<?xml version="1.0" encoding="UTF-8" standalone="no"?><!DOCTYPE svg PUBLIC "-//W3C//DTD SVG 1.1//EN" "http://www.w3.org/Graphics/SVG/1.1/DTD/svg11.dtd"><svg width="100%" height="100%" viewBox="0 0 370 421" version="1.1" xmlns="http://www.w3.org/2000/svg" xmlns:xlink="http://www.w3.org/1999/xlink" xml:space="preserve" xmlns:serif="http://www.serif.com/" style="fill-rule:evenodd;clip-rule:evenodd;stroke-linecap:round;stroke-linejoin:round;stroke-miterlimit:2;"><rect id="info-graphic-2" x="0" y="0.274" width="370" height="420" style="fill:none;"/><g><g transform="matrix(0.87792,-0.478808,0.478808,0.87792,4029.3,-4980.58)"><text x="-5931.4px" y="2677.22px" style="font-family:'AvenirNext-Bold', 'Avenir Next', sans-serif;font-weight:700;font-size:67.843px;fill:#edbe5e;">?</text></g><g transform="matrix(0.784445,0.620199,-0.620199,0.784445,-5445.87,-6699.36)"><text x="8735.86px" y="1884.98px" style="font-family:'AvenirNext-Bold', 'Avenir Next', sans-serif;font-weight:700;font-size:67.843px;fill:#edbe5e;">?</text></g><g transform="matrix(0.96487,-0.262728,0.262728,0.96487,2971.11,-1736.49)"><text x="-3194.34px" y="1090.81px" style="font-family:'AvenirNext-Bold', 'Avenir Next', sans-serif;font-weight:700;font-size:67.843px;fill:#edbe5e;">?</text></g><ellipse cx="189.134" cy="410.019" rx="70.866" ry="10.243" style="fill:#ccc;fill-opacity:0.75;"/><g><g id="boytato"><path d="M164.736,375.624c4.56,11.186 4.969,21.271 0,29.928" style="fill:none;stroke:#ac8639;stroke-width:7.71px;"/><path d="M215.829,375.722c3.064,9.78 3.227,19.745 0,29.928" style="fill:none;stroke:#ac8639;stroke-width:7.71px;"/><path d="M241.31,317.56c1.66,11.961 6.363,20.898 15.006,25.918" style="fill:none;stroke:#ac8639;stroke-width:7.71px;"/><path id="potato" d="M187.007,212.913c48.085,0 65.055,37.936 65.055,84.663c0,46.727 -13.259,84.663 -65.055,84.663c-51.797,0 -65.056,-37.936 -65.056,-84.663c0,-46.727 16.971,-84.663 65.056,-84.663Z" style="fill:#edbe5e;"/><clipPath id="_clip1"><path d="M187.007,212.913c48.085,0 65.055,37.936 65.055,84.663c0,46.727 -13.259,84.663 -65.055,84.663c-51.797,0 -65.056,-37.936 -65.056,-84.663c0,-46.727 16.971,-84.663 65.056,-84.663Z"/></clipPath><g clip-path="url(#_clip1)"><path id="shadow" d="M187.007,212.913c-86.798,39.506 -40.7,166.453 0,169.326c-51.797,0 -65.056,-37.936 -65.056,-84.663c0,-46.727 16.971,-84.663 65.056,-84.663Z" style="fill:#cda24c;fill-opacity:0.25098;"/><ellipse id="eye_1" cx="178.166" cy="278.836" rx="7.024" ry="7.004" style="fill:#302a1c;"/><ellipse id="eye_2" cx="229.476" cy="278.836" rx="7.024" ry="7.004" style="fill:#302a1c;"/><g id="eyebrows"><path d="M181.988,262.981c-2.831,2.096 -7.823,1.805 -10.217,0" style="fill:none;stroke:#ac8639;stroke-opacity:0.5;stroke-width:3.3px;"/><path d="M233.71,264.446c-2.831,-2.096 -7.823,-1.805 -10.217,0" style="fill:none;stroke:#ac8639;stroke-opacity:0.5;stroke-width:3.3px;"/></g><g id="marks"><path d="M142.157,304.306c2.831,-2.096 7.823,-1.805 10.218,0" style="fill:none;stroke:#ac8639;stroke-opacity:0.5;stroke-width:3.3px;"/><path d="M223.596,326.988c2.831,-2.096 7.823,-1.805 10.218,0" style="fill:none;stroke:#ac8639;stroke-opacity:0.5;stroke-width:3.3px;"/><path d="M165.394,342.595c2.832,-2.096 7.823,-1.805 10.218,0" style="fill:none;stroke:#ac8639;stroke-opacity:0.5;stroke-width:3.3px;"/><path d="M193.186,364.612c2.831,-2.096 7.823,-1.805 10.217,0" style="fill:none;stroke:#ac8639;stroke-opacity:0.5;stroke-width:3.3px;"/></g><path id="mouth" d="M194.27,304.135c10.136,0.019 10.812,0.219 17.997,0" style="fill:none;stroke:#302a1c;stroke-width:3.83px;"/></g><path d="M187.288,212.913l0.281,0.002l0.28,0.002l0.279,0.003l0.278,0.004l0.278,0.005l0.277,0.005l0.277,0.007l0.276,0.007l0.275,0.008l0.274,0.009l0.273,0.01l0.273,0.011l0.273,0.011l0.271,0.013l0.271,0.013l0.27,0.014l0.269,0.015l0.269,0.016l0.268,0.017l0.267,0.017l0.267,0.019l0.266,0.019l0.265,0.02l0.264,0.021l0.264,0.022l0.263,0.022l0.263,0.024l0.261,0.024l0.261,0.025l0.261,0.026l0.259,0.026l0.259,0.028l0.259,0.028l0.257,0.029l0.257,0.03l0.256,0.031l0.256,0.032l0.254,0.032l0.255,0.034l0.253,0.034l0.253,0.035l0.252,0.035l0.251,0.037l0.251,0.037l0.25,0.038l0.249,0.039l0.249,0.04l0.248,0.041l0.247,0.041l0.247,0.042l0.245,0.043l0.246,0.044l0.244,0.045l0.244,0.045l0.243,0.046l0.243,0.047l0.242,0.048l0.241,0.049l0.24,0.049l0.24,0.05l0.239,0.051l0.239,0.052l0.238,0.052l0.237,0.054l0.236,0.054l0.236,0.055l0.235,0.055l0.235,0.057l0.233,0.057l0.233,0.058l0.233,0.059l0.232,0.059l0.231,0.06l0.23,0.061l0.23,0.062l0.229,0.063l0.229,0.063l0.227,0.064l0.227,0.065l0.227,0.066l0.226,0.066l0.225,0.068l0.224,0.068l0.224,0.068l0.223,0.07l0.223,0.07l0.222,0.071l0.221,0.072l0.22,0.072l0.22,0.073l0.22,0.074l0.218,0.075l0.218,0.076l0.217,0.076l0.217,0.077l0.216,0.078l0.215,0.078l0.215,0.079l0.214,0.08l0.213,0.081l0.213,0.081l0.212,0.083l0.212,0.082l0.21,0.084l0.21,0.084l0.21,0.085l0.209,0.086l0.208,0.087l0.208,0.087l0.206,0.088l0.207,0.089l0.205,0.089l0.205,0.09l0.205,0.091l0.203,0.092l0.204,0.092l0.202,0.093l0.202,0.094l0.201,0.094l0.2,0.096l0.2,0.095l0.2,0.097l0.198,0.097l0.198,0.098l0.198,0.099l0.196,0.099l0.196,0.101l0.196,0.1l0.195,0.102l0.194,0.102l0.193,0.103l0.193,0.104l0.193,0.104l0.191,0.105l0.191,0.106l0.191,0.106l0.19,0.107l0.189,0.108l0.188,0.108l0.188,0.109l0.188,0.11l0.186,0.111l0.186,0.111l0.186,0.112l0.185,0.112l0.184,0.114l0.183,0.114l0.183,0.114l0.183,0.115l0.181,0.116l0.181,0.117l0.181,0.117l0.18,0.118l0.179,0.119l0.179,0.119l0.178,0.12l0.177,0.12l0.177,0.122l0.176,0.122l0.176,0.122l0.175,0.123l0.174,0.124l0.174,0.125l0.173,0.125l0.173,0.126l0.172,0.126l0.171,0.128l0.171,0.127l0.17,0.129l0.169,0.129l0.169,0.13l0.169,0.13l0.167,0.131l0.167,0.132l0.167,0.132l0.166,0.133l0.165,0.134l0.165,0.134l0.164,0.135l0.163,0.135l0.163,0.136l0.163,0.137l0.161,0.138l0.161,0.138l0.161,0.138l0.16,0.14l0.159,0.14l0.159,0.14l0.158,0.141l0.158,0.142l0.157,0.142l0.156,0.143l0.156,0.144l0.155,0.144l0.155,0.145l0.154,0.146l0.153,0.146l0.153,0.146l0.152,0.148l0.152,0.147l0.151,0.149l0.15,0.149l0.15,0.15l0.15,0.15l0.148,0.151l0.148,0.152l0.148,0.152l0.147,0.152l0.147,0.154l0.145,0.154l0.146,0.154l0.144,0.155l0.144,0.156l0.144,0.156l0.143,0.157l0.142,0.158l0.142,0.158l0.141,0.158l0.141,0.159l0.14,0.16l0.14,0.161l0.139,0.16l0.138,0.162l0.138,0.162l0.137,0.163l0.137,0.163l0.136,0.164l0.135,0.164l0.135,0.165l0.135,0.166l0.133,0.166l0.134,0.166l0.132,0.168l0.133,0.168l0.131,0.168l0.131,0.169l0.131,0.169l0.129,0.17l0.13,0.171l0.128,0.171l0.129,0.172l0.127,0.172l0.127,0.173l0.127,0.173l0.126,0.174l0.125,0.174l0.125,0.175l0.124,0.176l0.124,0.176l0.123,0.177l0.123,0.177l0.122,0.178l0.122,0.178l0.121,0.179l0.12,0.179l0.12,0.18l0.119,0.18l0.119,0.181l0.118,0.182l0.118,0.182l0.117,0.182l0.117,0.183l0.116,0.184l0.115,0.184l0.115,0.184l0.115,0.185l0.113,0.186l0.114,0.186l0.113,0.187l0.112,0.187l0.112,0.188l0.111,0.188l0.11,0.189l0.11,0.189l0.11,0.19l0.109,0.19l0.108,0.191l0.108,0.191l0.108,0.192l0.107,0.192l0.106,0.193l0.106,0.193l0.105,0.194l0.105,0.195l0.104,0.194l0.104,0.196l0.103,0.195l0.102,0.197l0.102,0.197l0.102,0.197l0.101,0.198l0.1,0.198l0.1,0.199l0.1,0.199l0.099,0.199l0.098,0.201l0.098,0.2l0.097,0.201l0.097,0.202l0.096,0.202l0.096,0.203l0.095,0.203l0.095,0.203l0.094,0.204l0.094,0.205l0.093,0.205l0.093,0.205l0.092,0.206l0.092,0.206l0.091,0.207l0.09,0.207l0.09,0.208l0.09,0.208l0.089,0.209l0.089,0.209l0.088,0.209l0.087,0.211l0.087,0.21l0.087,0.211l0.086,0.211l0.085,0.212l0.085,0.212l0.084,0.213l0.084,0.213l0.084,0.214l0.083,0.214l0.082,0.214l0.082,0.215l0.082,0.216l0.08,0.215l0.081,0.217l0.08,0.216l0.079,0.218l0.079,0.217l0.078,0.218l0.078,0.218l0.078,0.219l0.077,0.22l0.076,0.219l0.076,0.22l0.075,0.221l0.075,0.221l0.075,0.221l0.074,0.222l0.073,0.222l0.073,0.223l0.073,0.223l0.071,0.224l0.072,0.223l0.071,0.225l0.07,0.224l0.07,0.226l0.07,0.225l0.069,0.226l0.068,0.226l0.069,0.227l0.067,0.227l0.067,0.228l0.067,0.228l0.066,0.228l0.065,0.229l0.066,0.229l0.064,0.23l0.064,0.23l0.064,0.23l0.063,0.231l0.063,0.231l0.062,0.231l0.062,0.232l0.061,0.232l0.061,0.233l0.06,0.233l0.06,0.234l0.06,0.233l0.059,0.235l0.058,0.234l0.058,0.235l0.058,0.235l0.057,0.236l0.056,0.236l0.056,0.237l0.056,0.236l0.055,0.238l0.055,0.237l0.054,0.238l0.053,0.238l0.054,0.239l0.053,0.239l0.052,0.239l0.052,0.24l0.051,0.24l0.051,0.241l0.051,0.24l0.05,0.242l0.049,0.241l0.049,0.242l0.049,0.242l0.048,0.243l0.048,0.243l0.047,0.243l0.047,0.243l0.046,0.244l0.046,0.245l0.045,0.244l0.045,0.245l0.045,0.246l0.044,0.245l0.043,0.246l0.043,0.247l0.043,0.246l0.042,0.247l0.042,0.248l0.041,0.247l0.041,0.248l0.041,0.249l0.04,0.248l0.039,0.249l0.039,0.249l0.039,0.25l0.038,0.25l0.038,0.25l0.037,0.251l0.037,0.251l0.036,0.251l0.036,0.251l0.036,0.252l0.035,0.252l0.035,0.253l0.034,0.252l0.034,0.254l0.033,0.253l0.033,0.254l0.032,0.254l0.032,0.254l0.032,0.254l0.031,0.255l0.031,0.256l0.03,0.255l0.03,0.256l0.029,0.256l0.029,0.256l0.029,0.257l0.028,0.257l0.027,0.257l0.028,0.258l0.026,0.257l0.027,0.259l0.026,0.258l0.025,0.259l0.025,0.259l0.025,0.259l0.024,0.259l0.024,0.26l0.023,0.26l0.023,0.26l0.023,0.261l0.022,0.261l0.022,0.261l0.021,0.262l0.021,0.261l0.02,0.262l0.02,0.262l0.02,0.263l0.019,0.263l0.019,0.263l0.018,0.263l0.018,0.264l0.017,0.263l0.017,0.264l0.017,0.265l0.016,0.264l0.016,0.265l0.016,0.265l0.015,0.266l0.014,0.265l0.014,0.266l0.014,0.266l0.014,0.266l0.012,0.267l0.013,0.267l0.012,0.267l0.012,0.267l0.011,0.268l0.011,0.267l0.011,0.268l0.01,0.269l0.009,0.268l0.01,0.269l0.009,0.269l0.008,0.269l0.008,0.269l0.008,0.27l0.007,0.27l0.007,0.27l0.007,0.27l0.006,0.271l0.005,0.27l0.006,0.271l0.005,0.271l0.004,0.272l0.004,0.271l0.004,0.272l0.003,0.272l0.003,0.273l0.003,0.272l0.002,0.273l0.002,0.273l0.001,0.273l0.001,0.273l0.001,0.273l0,0.274l-0.001,0.547l-0.002,0.547l-0.003,0.545l-0.004,0.545l-0.006,0.544l-0.006,0.543l-0.008,0.542l-0.01,0.541l-0.01,0.54l-0.012,0.54l-0.014,0.539l-0.014,0.537l-0.016,0.537l-0.017,0.536l-0.019,0.534l-0.02,0.534l-0.021,0.533l-0.023,0.532l-0.024,0.531l-0.025,0.53l-0.027,0.529l-0.028,0.528l-0.03,0.526l-0.031,0.526l-0.032,0.525l-0.017,0.262l-0.017,0.262l-0.017,0.261l-0.018,0.261l-0.019,0.261l-0.018,0.261l-0.019,0.26l-0.019,0.26l-0.02,0.26l-0.02,0.259l-0.021,0.26l-0.02,0.259l-0.022,0.258l-0.021,0.259l-0.022,0.258l-0.022,0.258l-0.023,0.257l-0.023,0.257l-0.023,0.257l-0.024,0.257l-0.024,0.256l-0.025,0.256l-0.025,0.256l-0.025,0.256l-0.026,0.255l-0.026,0.255l-0.027,0.254l-0.027,0.255l-0.027,0.254l-0.028,0.253l-0.028,0.254l-0.028,0.253l-0.029,0.253l-0.029,0.252l-0.03,0.252l-0.03,0.252l-0.031,0.251l-0.031,0.252l-0.031,0.251l-0.032,0.25l-0.032,0.25l-0.032,0.25l-0.033,0.25l-0.033,0.249l-0.034,0.249l-0.034,0.249l-0.035,0.248l-0.035,0.248l-0.035,0.248l-0.036,0.247l-0.036,0.247l-0.037,0.247l-0.037,0.246l-0.037,0.246l-0.038,0.246l-0.038,0.245l-0.039,0.245l-0.039,0.245l-0.04,0.244l-0.04,0.244l-0.04,0.243l-0.041,0.244l-0.041,0.243l-0.042,0.242l-0.042,0.242l-0.043,0.242l-0.043,0.242l-0.043,0.241l-0.044,0.241l-0.045,0.24l-0.044,0.24l-0.046,0.24l-0.045,0.239l-0.046,0.239l-0.047,0.239l-0.047,0.238l-0.047,0.238l-0.048,0.238l-0.049,0.237l-0.048,0.237l-0.05,0.236l-0.049,0.236l-0.05,0.236l-0.051,0.235l-0.051,0.235l-0.051,0.235l-0.052,0.234l-0.053,0.234l-0.053,0.233l-0.053,0.233l-0.054,0.233l-0.054,0.232l-0.055,0.232l-0.055,0.231l-0.056,0.232l-0.056,0.23l-0.056,0.231l-0.057,0.23l-0.058,0.229l-0.058,0.229l-0.058,0.229l-0.059,0.228l-0.06,0.228l-0.06,0.228l-0.06,0.227l-0.061,0.227l-0.061,0.226l-0.062,0.226l-0.062,0.226l-0.063,0.225l-0.063,0.224l-0.064,0.225l-0.064,0.224l-0.065,0.223l-0.065,0.223l-0.066,0.223l-0.066,0.222l-0.067,0.222l-0.067,0.221l-0.068,0.221l-0.068,0.221l-0.068,0.22l-0.07,0.22l-0.069,0.219l-0.07,0.219l-0.071,0.218l-0.071,0.218l-0.072,0.218l-0.072,0.217l-0.073,0.216l-0.073,0.217l-0.074,0.216l-0.074,0.215l-0.075,0.215l-0.075,0.214l-0.076,0.214l-0.076,0.214l-0.077,0.213l-0.077,0.213l-0.078,0.212l-0.078,0.212l-0.079,0.211l-0.079,0.211l-0.08,0.211l-0.08,0.21l-0.081,0.209l-0.082,0.209l-0.082,0.209l-0.082,0.208l-0.083,0.208l-0.084,0.207l-0.084,0.207l-0.085,0.206l-0.085,0.206l-0.085,0.206l-0.087,0.205l-0.086,0.204l-0.088,0.204l-0.088,0.204l-0.088,0.203l-0.089,0.202l-0.089,0.202l-0.09,0.202l-0.091,0.201l-0.091,0.201l-0.092,0.2l-0.092,0.2l-0.092,0.199l-0.094,0.198l-0.094,0.199l-0.094,0.197l-0.095,0.198l-0.095,0.196l-0.096,0.197l-0.097,0.196l-0.097,0.195l-0.098,0.195l-0.098,0.194l-0.099,0.194l-0.1,0.193l-0.099,0.193l-0.101,0.192l-0.101,0.192l-0.102,0.191l-0.102,0.191l-0.103,0.19l-0.103,0.19l-0.104,0.189l-0.105,0.189l-0.105,0.188l-0.105,0.188l-0.107,0.187l-0.106,0.187l-0.108,0.186l-0.108,0.186l-0.108,0.185l-0.11,0.184l-0.109,0.185l-0.111,0.183l-0.11,0.183l-0.112,0.183l-0.112,0.182l-0.113,0.181l-0.113,0.181l-0.114,0.18l-0.114,0.18l-0.115,0.18l-0.116,0.178l-0.116,0.179l-0.117,0.177l-0.117,0.178l-0.118,0.176l-0.119,0.176l-0.119,0.176l-0.12,0.175l-0.12,0.174l-0.121,0.174l-0.122,0.173l-0.122,0.173l-0.123,0.173l-0.123,0.171l-0.124,0.171l-0.125,0.171l-0.125,0.17l-0.126,0.169l-0.127,0.169l-0.127,0.169l-0.127,0.168l-0.129,0.167l-0.129,0.166l-0.129,0.167l-0.13,0.165l-0.131,0.165l-0.132,0.164l-0.132,0.164l-0.132,0.163l-0.134,0.163l-0.134,0.162l-0.134,0.162l-0.136,0.161l-0.135,0.16l-0.137,0.16l-0.137,0.159l-0.138,0.159l-0.138,0.158l-0.139,0.157l-0.14,0.157l-0.14,0.156l-0.141,0.156l-0.142,0.155l-0.142,0.155l-0.143,0.153l-0.143,0.154l-0.144,0.153l-0.145,0.152l-0.146,0.151l-0.146,0.151l-0.146,0.15l-0.148,0.15l-0.148,0.149l-0.149,0.149l-0.149,0.148l-0.15,0.147l-0.151,0.147l-0.151,0.146l-0.152,0.145l-0.153,0.145l-0.153,0.144l-0.154,0.144l-0.154,0.143l-0.156,0.142l-0.156,0.142l-0.156,0.141l-0.158,0.141l-0.158,0.14l-0.158,0.139l-0.16,0.139l-0.16,0.138l-0.16,0.137l-0.162,0.137l-0.162,0.136l-0.162,0.135l-0.164,0.135l-0.164,0.134l-0.164,0.134l-0.166,0.133l-0.166,0.132l-0.167,0.132l-0.167,0.131l-0.168,0.13l-0.169,0.13l-0.17,0.129l-0.17,0.129l-0.171,0.128l-0.171,0.127l-0.173,0.126l-0.173,0.126l-0.173,0.125l-0.175,0.125l-0.175,0.124l-0.176,0.123l-0.176,0.123l-0.177,0.122l-0.178,0.121l-0.179,0.12l-0.179,0.12l-0.18,0.12l-0.181,0.118l-0.181,0.118l-0.182,0.117l-0.183,0.117l-0.184,0.116l-0.184,0.115l-0.185,0.115l-0.186,0.114l-0.186,0.113l-0.187,0.112l-0.188,0.112l-0.189,0.111l-0.189,0.111l-0.19,0.11l-0.19,0.109l-0.192,0.108l-0.192,0.108l-0.193,0.107l-0.194,0.107l-0.194,0.105l-0.195,0.105l-0.196,0.105l-0.196,0.103l-0.198,0.103l-0.198,0.102l-0.198,0.102l-0.2,0.101l-0.2,0.1l-0.201,0.099l-0.202,0.099l-0.202,0.098l-0.203,0.097l-0.204,0.097l-0.205,0.096l-0.205,0.095l-0.207,0.094l-0.206,0.094l-0.208,0.093l-0.209,0.092l-0.209,0.092l-0.21,0.091l-0.21,0.09l-0.212,0.089l-0.212,0.089l-0.213,0.088l-0.213,0.087l-0.215,0.087l-0.215,0.086l-0.216,0.085l-0.217,0.084l-0.217,0.084l-0.219,0.083l-0.219,0.082l-0.219,0.081l-0.221,0.081l-0.221,0.08l-0.222,0.079l-0.223,0.079l-0.224,0.077l-0.224,0.077l-0.225,0.077l-0.226,0.075l-0.227,0.075l-0.228,0.074l-0.228,0.073l-0.229,0.073l-0.23,0.071l-0.231,0.071l-0.231,0.07l-0.232,0.07l-0.233,0.069l-0.234,0.068l-0.234,0.067l-0.236,0.066l-0.236,0.066l-0.237,0.065l-0.238,0.064l-0.238,0.063l-0.24,0.063l-0.24,0.062l-0.241,0.061l-0.241,0.06l-0.243,0.06l-0.243,0.058l-0.244,0.058l-0.245,0.058l-0.246,0.056l-0.246,0.056l-0.248,0.055l-0.248,0.054l-0.249,0.053l-0.25,0.052l-0.25,0.052l-0.252,0.051l-0.252,0.05l-0.253,0.05l-0.254,0.048l-0.254,0.048l-0.256,0.047l-0.256,0.046l-0.257,0.046l-0.258,0.044l-0.259,0.044l-0.259,0.043l-0.261,0.042l-0.261,0.041l-0.262,0.041l-0.263,0.04l-0.264,0.039l-0.264,0.038l-0.265,0.037l-0.267,0.037l-0.267,0.036l-0.268,0.034l-0.268,0.035l-0.27,0.033l-0.27,0.032l-0.271,0.032l-0.272,0.031l-0.273,0.03l-0.274,0.029l-0.275,0.028l-0.275,0.028l-0.276,0.027l-0.277,0.025l-0.278,0.025l-0.279,0.025l-0.28,0.023l-0.28,0.023l-0.282,0.021l-0.282,0.021l-0.283,0.02l-0.284,0.019l-0.285,0.019l-0.285,0.017l-0.287,0.017l-0.287,0.016l-0.289,0.015l-0.289,0.014l-0.29,0.013l-0.29,0.013l-0.292,0.011l-0.293,0.011l-0.293,0.01l-0.294,0.009l-0.296,0.008l-0.296,0.008l-0.297,0.006l-0.297,0.006l-0.299,0.004l-0.3,0.004l-0.3,0.003l-0.301,0.003l-0.302,0.001l-0.303,0l-0.303,0l-0.303,-0.001l-0.301,-0.003l-0.3,-0.003l-0.3,-0.004l-0.299,-0.004l-0.297,-0.006l-0.297,-0.006l-0.296,-0.008l-0.295,-0.008l-0.295,-0.009l-0.293,-0.01l-0.293,-0.011l-0.291,-0.011l-0.291,-0.013l-0.29,-0.013l-0.289,-0.014l-0.289,-0.015l-0.287,-0.016l-0.286,-0.017l-0.286,-0.017l-0.285,-0.019l-0.284,-0.019l-0.283,-0.02l-0.282,-0.021l-0.281,-0.021l-0.281,-0.023l-0.28,-0.023l-0.278,-0.025l-0.278,-0.025l-0.278,-0.025l-0.276,-0.027l-0.275,-0.028l-0.275,-0.028l-0.274,-0.029l-0.272,-0.03l-0.273,-0.031l-0.271,-0.032l-0.27,-0.032l-0.27,-0.033l-0.268,-0.035l-0.268,-0.034l-0.267,-0.036l-0.266,-0.037l-0.266,-0.037l-0.264,-0.038l-0.264,-0.039l-0.263,-0.04l-0.262,-0.041l-0.261,-0.041l-0.261,-0.042l-0.259,-0.043l-0.259,-0.044l-0.258,-0.044l-0.257,-0.046l-0.256,-0.046l-0.256,-0.047l-0.254,-0.048l-0.254,-0.048l-0.253,-0.05l-0.252,-0.05l-0.252,-0.051l-0.25,-0.052l-0.25,-0.052l-0.249,-0.053l-0.248,-0.054l-0.247,-0.055l-0.247,-0.056l-0.246,-0.056l-0.245,-0.058l-0.244,-0.058l-0.243,-0.058l-0.243,-0.06l-0.241,-0.06l-0.241,-0.061l-0.24,-0.062l-0.24,-0.063l-0.238,-0.063l-0.238,-0.064l-0.237,-0.065l-0.236,-0.066l-0.235,-0.066l-0.235,-0.067l-0.234,-0.068l-0.233,-0.069l-0.232,-0.07l-0.231,-0.07l-0.231,-0.071l-0.23,-0.071l-0.229,-0.073l-0.228,-0.073l-0.228,-0.074l-0.227,-0.075l-0.225,-0.075l-0.226,-0.077l-0.224,-0.077l-0.224,-0.077l-0.223,-0.079l-0.222,-0.079l-0.221,-0.08l-0.221,-0.081l-0.219,-0.081l-0.219,-0.082l-0.219,-0.083l-0.217,-0.084l-0.217,-0.084l-0.216,-0.085l-0.215,-0.086l-0.214,-0.087l-0.214,-0.087l-0.213,-0.088l-0.212,-0.089l-0.212,-0.089l-0.21,-0.09l-0.21,-0.091l-0.209,-0.092l-0.209,-0.092l-0.207,-0.093l-0.207,-0.094l-0.206,-0.094l-0.206,-0.095l-0.205,-0.096l-0.203,-0.097l-0.204,-0.097l-0.202,-0.098l-0.202,-0.099l-0.201,-0.099l-0.2,-0.1l-0.199,-0.101l-0.199,-0.102l-0.198,-0.102l-0.197,-0.103l-0.197,-0.103l-0.196,-0.105l-0.195,-0.105l-0.194,-0.105l-0.194,-0.107l-0.193,-0.107l-0.192,-0.108l-0.191,-0.108l-0.191,-0.109l-0.19,-0.11l-0.189,-0.111l-0.189,-0.111l-0.188,-0.112l-0.187,-0.112l-0.186,-0.113l-0.186,-0.114l-0.185,-0.115l-0.184,-0.115l-0.184,-0.116l-0.183,-0.117l-0.182,-0.117l-0.181,-0.118l-0.181,-0.118l-0.18,-0.12l-0.179,-0.12l-0.179,-0.12l-0.178,-0.121l-0.177,-0.122l-0.176,-0.123l-0.176,-0.123l-0.175,-0.124l-0.174,-0.125l-0.174,-0.125l-0.173,-0.126l-0.172,-0.126l-0.172,-0.127l-0.171,-0.128l-0.17,-0.129l-0.17,-0.129l-0.169,-0.13l-0.168,-0.13l-0.167,-0.131l-0.167,-0.132l-0.166,-0.132l-0.165,-0.133l-0.165,-0.134l-0.164,-0.134l-0.164,-0.135l-0.162,-0.135l-0.162,-0.136l-0.162,-0.137l-0.16,-0.137l-0.16,-0.138l-0.16,-0.139l-0.158,-0.139l-0.158,-0.14l-0.158,-0.141l-0.156,-0.141l-0.156,-0.142l-0.155,-0.142l-0.155,-0.143l-0.154,-0.144l-0.153,-0.144l-0.153,-0.145l-0.152,-0.145l-0.151,-0.146l-0.151,-0.147l-0.15,-0.147l-0.149,-0.148l-0.149,-0.149l-0.148,-0.149l-0.148,-0.15l-0.146,-0.15l-0.146,-0.151l-0.146,-0.151l-0.145,-0.152l-0.144,-0.153l-0.143,-0.154l-0.143,-0.153l-0.142,-0.155l-0.142,-0.155l-0.141,-0.156l-0.14,-0.156l-0.14,-0.157l-0.139,-0.157l-0.138,-0.158l-0.138,-0.159l-0.137,-0.159l-0.136,-0.16l-0.136,-0.16l-0.136,-0.161l-0.134,-0.162l-0.134,-0.162l-0.133,-0.163l-0.133,-0.163l-0.132,-0.164l-0.132,-0.164l-0.13,-0.165l-0.131,-0.165l-0.129,-0.167l-0.129,-0.166l-0.129,-0.167l-0.127,-0.168l-0.127,-0.169l-0.127,-0.169l-0.126,-0.169l-0.125,-0.17l-0.125,-0.171l-0.124,-0.171l-0.123,-0.171l-0.123,-0.173l-0.122,-0.173l-0.122,-0.173l-0.121,-0.174l-0.12,-0.174l-0.12,-0.175l-0.119,-0.176l-0.119,-0.176l-0.118,-0.176l-0.117,-0.178l-0.117,-0.177l-0.116,-0.179l-0.116,-0.178l-0.115,-0.18l-0.114,-0.18l-0.114,-0.18l-0.113,-0.181l-0.113,-0.181l-0.112,-0.182l-0.111,-0.183l-0.111,-0.183l-0.111,-0.183l-0.109,-0.185l-0.109,-0.184l-0.109,-0.185l-0.108,-0.186l-0.107,-0.186l-0.107,-0.187l-0.106,-0.187l-0.106,-0.188l-0.105,-0.188l-0.105,-0.189l-0.104,-0.189l-0.103,-0.19l-0.103,-0.19l-0.102,-0.191l-0.102,-0.191l-0.101,-0.192l-0.1,-0.192l-0.1,-0.193l-0.1,-0.193l-0.099,-0.194l-0.098,-0.194l-0.098,-0.195l-0.097,-0.195l-0.096,-0.196l-0.096,-0.197l-0.096,-0.196l-0.095,-0.198l-0.094,-0.197l-0.094,-0.199l-0.093,-0.198l-0.093,-0.199l-0.092,-0.2l-0.092,-0.2l-0.091,-0.201l-0.091,-0.201l-0.09,-0.202l-0.089,-0.202l-0.089,-0.202l-0.088,-0.203l-0.088,-0.204l-0.087,-0.204l-0.087,-0.204l-0.086,-0.205l-0.086,-0.206l-0.085,-0.206l-0.085,-0.206l-0.084,-0.207l-0.084,-0.207l-0.083,-0.208l-0.082,-0.208l-0.082,-0.209l-0.082,-0.209l-0.08,-0.209l-0.081,-0.21l-0.08,-0.211l-0.079,-0.211l-0.079,-0.211l-0.078,-0.212l-0.078,-0.212l-0.077,-0.213l-0.077,-0.213l-0.076,-0.214l-0.076,-0.214l-0.075,-0.214l-0.075,-0.215l-0.074,-0.215l-0.074,-0.216l-0.073,-0.217l-0.073,-0.216l-0.072,-0.217l-0.072,-0.218l-0.071,-0.218l-0.07,-0.218l-0.071,-0.219l-0.069,-0.219l-0.069,-0.22l-0.069,-0.22l-0.068,-0.221l-0.068,-0.221l-0.067,-0.221l-0.067,-0.222l-0.066,-0.222l-0.066,-0.223l-0.065,-0.223l-0.065,-0.223l-0.064,-0.224l-0.064,-0.225l-0.063,-0.224l-0.063,-0.225l-0.062,-0.226l-0.062,-0.226l-0.061,-0.226l-0.061,-0.227l-0.06,-0.227l-0.06,-0.228l-0.06,-0.228l-0.059,-0.228l-0.058,-0.229l-0.058,-0.229l-0.058,-0.229l-0.057,-0.23l-0.056,-0.231l-0.056,-0.23l-0.056,-0.232l-0.055,-0.231l-0.055,-0.232l-0.054,-0.232l-0.054,-0.233l-0.053,-0.233l-0.053,-0.233l-0.052,-0.234l-0.052,-0.234l-0.052,-0.235l-0.051,-0.235l-0.051,-0.235l-0.05,-0.236l-0.049,-0.236l-0.05,-0.236l-0.048,-0.237l-0.049,-0.237l-0.048,-0.238l-0.047,-0.238l-0.047,-0.238l-0.047,-0.239l-0.046,-0.239l-0.045,-0.239l-0.045,-0.24l-0.045,-0.24l-0.045,-0.24l-0.043,-0.241l-0.044,-0.241l-0.043,-0.242l-0.043,-0.242l-0.042,-0.242l-0.041,-0.242l-0.042,-0.243l-0.041,-0.244l-0.04,-0.243l-0.04,-0.244l-0.04,-0.244l-0.039,-0.245l-0.038,-0.245l-0.039,-0.245l-0.038,-0.246l-0.037,-0.246l-0.037,-0.246l-0.037,-0.247l-0.036,-0.247l-0.036,-0.247l-0.035,-0.248l-0.035,-0.248l-0.035,-0.248l-0.034,-0.249l-0.034,-0.249l-0.033,-0.249l-0.033,-0.25l-0.032,-0.25l-0.032,-0.25l-0.032,-0.25l-0.031,-0.251l-0.031,-0.252l-0.031,-0.251l-0.03,-0.252l-0.029,-0.252l-0.03,-0.252l-0.029,-0.253l-0.028,-0.253l-0.028,-0.254l-0.028,-0.253l-0.027,-0.254l-0.027,-0.255l-0.027,-0.254l-0.026,-0.255l-0.025,-0.255l-0.026,-0.256l-0.025,-0.256l-0.024,-0.256l-0.025,-0.256l-0.023,-0.257l-0.024,-0.257l-0.023,-0.257l-0.023,-0.257l-0.022,-0.258l-0.022,-0.258l-0.021,-0.259l-0.022,-0.258l-0.02,-0.259l-0.021,-0.26l-0.02,-0.259l-0.02,-0.26l-0.019,-0.26l-0.019,-0.26l-0.018,-0.261l-0.019,-0.261l-0.017,-0.261l-0.018,-0.261l-0.017,-0.262l-0.017,-0.262l-0.032,-0.525l-0.031,-0.526l-0.03,-0.526l-0.028,-0.528l-0.027,-0.529l-0.025,-0.53l-0.024,-0.531l-0.023,-0.532l-0.021,-0.533l-0.02,-0.534l-0.019,-0.534l-0.017,-0.536l-0.016,-0.537l-0.014,-0.537l-0.013,-0.539l-0.012,-0.54l-0.011,-0.54l-0.009,-0.541l-0.009,-0.542l-0.006,-0.543l-0.006,-0.544l-0.004,-0.545l-0.003,-0.545l-0.002,-0.547l-0.001,-0.547l0,-0.274l0.001,-0.273l0.001,-0.273l0.001,-0.273l0.002,-0.273l0.002,-0.273l0.003,-0.272l0.003,-0.273l0.003,-0.272l0.004,-0.272l0.004,-0.271l0.004,-0.272l0.005,-0.271l0.006,-0.271l0.005,-0.27l0.006,-0.271l0.007,-0.27l0.007,-0.27l0.007,-0.27l0.008,-0.27l0.008,-0.269l0.008,-0.269l0.009,-0.269l0.01,-0.269l0.009,-0.268l0.01,-0.269l0.011,-0.268l0.011,-0.267l0.011,-0.268l0.012,-0.267l0.012,-0.267l0.013,-0.267l0.013,-0.267l0.013,-0.266l0.014,-0.266l0.014,-0.266l0.015,-0.265l0.015,-0.266l0.015,-0.265l0.016,-0.265l0.016,-0.264l0.017,-0.265l0.017,-0.264l0.017,-0.263l0.018,-0.264l0.019,-0.263l0.018,-0.263l0.019,-0.263l0.02,-0.263l0.02,-0.262l0.02,-0.262l0.021,-0.261l0.022,-0.262l0.021,-0.261l0.022,-0.261l0.023,-0.261l0.023,-0.26l0.023,-0.26l0.024,-0.26l0.024,-0.259l0.025,-0.259l0.025,-0.259l0.025,-0.259l0.026,-0.258l0.027,-0.259l0.027,-0.257l0.027,-0.258l0.027,-0.257l0.029,-0.257l0.028,-0.257l0.029,-0.256l0.029,-0.256l0.03,-0.256l0.03,-0.255l0.031,-0.256l0.031,-0.255l0.032,-0.254l0.032,-0.254l0.032,-0.254l0.033,-0.254l0.034,-0.253l0.033,-0.254l0.034,-0.252l0.035,-0.253l0.035,-0.252l0.036,-0.252l0.036,-0.251l0.036,-0.251l0.037,-0.251l0.037,-0.251l0.038,-0.25l0.038,-0.25l0.039,-0.25l0.039,-0.249l0.039,-0.249l0.04,-0.248l0.041,-0.249l0.041,-0.248l0.041,-0.247l0.042,-0.248l0.042,-0.247l0.043,-0.246l0.043,-0.247l0.043,-0.246l0.044,-0.245l0.045,-0.246l0.045,-0.245l0.045,-0.244l0.046,-0.245l0.046,-0.244l0.047,-0.243l0.048,-0.243l0.047,-0.243l0.048,-0.243l0.049,-0.242l0.049,-0.242l0.05,-0.241l0.05,-0.242l0.05,-0.24l0.051,-0.241l0.051,-0.24l0.052,-0.24l0.053,-0.239l0.052,-0.239l0.054,-0.239l0.053,-0.238l0.055,-0.238l0.054,-0.237l0.055,-0.238l0.056,-0.236l0.056,-0.237l0.057,-0.236l0.057,-0.236l0.057,-0.235l0.058,-0.235l0.058,-0.234l0.059,-0.235l0.06,-0.233l0.06,-0.234l0.06,-0.233l0.061,-0.233l0.061,-0.232l0.062,-0.232l0.062,-0.231l0.063,-0.231l0.063,-0.231l0.064,-0.23l0.064,-0.23l0.065,-0.23l0.065,-0.229l0.065,-0.229l0.066,-0.228l0.067,-0.228l0.067,-0.228l0.068,-0.227l0.068,-0.227l0.068,-0.226l0.069,-0.226l0.07,-0.225l0.07,-0.226l0.07,-0.224l0.071,-0.225l0.072,-0.223l0.072,-0.224l0.072,-0.223l0.073,-0.223l0.073,-0.222l0.074,-0.222l0.075,-0.221l0.075,-0.221l0.075,-0.221l0.076,-0.22l0.076,-0.219l0.077,-0.22l0.078,-0.219l0.078,-0.218l0.078,-0.218l0.079,-0.217l0.079,-0.218l0.08,-0.216l0.081,-0.217l0.081,-0.215l0.081,-0.216l0.082,-0.215l0.082,-0.214l0.083,-0.214l0.084,-0.214l0.084,-0.213l0.084,-0.213l0.085,-0.212l0.086,-0.212l0.086,-0.211l0.086,-0.211l0.087,-0.21l0.088,-0.211l0.088,-0.209l0.088,-0.209l0.089,-0.209l0.09,-0.208l0.09,-0.208l0.09,-0.207l0.091,-0.207l0.092,-0.206l0.092,-0.206l0.093,-0.205l0.093,-0.205l0.094,-0.205l0.094,-0.204l0.095,-0.203l0.095,-0.203l0.096,-0.203l0.096,-0.202l0.097,-0.202l0.097,-0.201l0.098,-0.2l0.098,-0.201l0.099,-0.199l0.1,-0.199l0.1,-0.199l0.1,-0.198l0.101,-0.198l0.102,-0.197l0.102,-0.197l0.102,-0.197l0.104,-0.195l0.103,-0.196l0.104,-0.194l0.105,-0.195l0.105,-0.194l0.106,-0.193l0.106,-0.193l0.107,-0.192l0.108,-0.192l0.108,-0.191l0.108,-0.191l0.109,-0.19l0.11,-0.19l0.11,-0.189l0.11,-0.189l0.112,-0.188l0.111,-0.188l0.113,-0.187l0.112,-0.187l0.114,-0.186l0.113,-0.186l0.115,-0.185l0.115,-0.184l0.115,-0.184l0.116,-0.184l0.117,-0.183l0.117,-0.182l0.118,-0.182l0.118,-0.182l0.119,-0.181l0.119,-0.18l0.12,-0.18l0.12,-0.179l0.121,-0.179l0.122,-0.178l0.122,-0.178l0.123,-0.177l0.123,-0.177l0.124,-0.176l0.124,-0.176l0.125,-0.175l0.125,-0.174l0.126,-0.174l0.127,-0.173l0.127,-0.173l0.127,-0.172l0.129,-0.172l0.128,-0.171l0.13,-0.171l0.13,-0.17l0.13,-0.169l0.131,-0.169l0.132,-0.168l0.132,-0.168l0.132,-0.168l0.134,-0.166l0.134,-0.166l0.134,-0.166l0.135,-0.165l0.135,-0.164l0.136,-0.164l0.137,-0.163l0.137,-0.163l0.138,-0.162l0.139,-0.162l0.139,-0.16l0.139,-0.161l0.14,-0.16l0.141,-0.159l0.141,-0.158l0.142,-0.158l0.142,-0.158l0.143,-0.157l0.144,-0.156l0.144,-0.156l0.144,-0.155l0.146,-0.154l0.146,-0.154l0.146,-0.154l0.147,-0.152l0.148,-0.152l0.148,-0.152l0.149,-0.151l0.149,-0.15l0.15,-0.15l0.15,-0.149l0.151,-0.149l0.152,-0.147l0.152,-0.148l0.153,-0.146l0.154,-0.146l0.154,-0.146l0.154,-0.145l0.155,-0.144l0.156,-0.144l0.157,-0.143l0.157,-0.142l0.157,-0.142l0.158,-0.141l0.159,-0.14l0.159,-0.14l0.16,-0.14l0.161,-0.138l0.161,-0.138l0.162,-0.138l0.162,-0.137l0.163,-0.136l0.163,-0.135l0.164,-0.135l0.165,-0.134l0.165,-0.134l0.166,-0.133l0.167,-0.132l0.167,-0.132l0.168,-0.131l0.168,-0.13l0.169,-0.13l0.169,-0.129l0.17,-0.129l0.171,-0.127l0.172,-0.128l0.171,-0.126l0.173,-0.126l0.173,-0.125l0.174,-0.125l0.174,-0.124l0.175,-0.123l0.176,-0.122l0.176,-0.122l0.177,-0.122l0.177,-0.12l0.178,-0.12l0.179,-0.119l0.179,-0.119l0.18,-0.118l0.181,-0.117l0.181,-0.117l0.181,-0.116l0.183,-0.115l0.183,-0.114l0.183,-0.114l0.185,-0.114l0.184,-0.112l0.186,-0.112l0.186,-0.111l0.187,-0.111l0.187,-0.11l0.188,-0.109l0.188,-0.108l0.19,-0.108l0.189,-0.107l0.191,-0.106l0.191,-0.106l0.192,-0.105l0.192,-0.104l0.193,-0.104l0.193,-0.103l0.195,-0.102l0.194,-0.102l0.196,-0.1l0.196,-0.101l0.197,-0.099l0.197,-0.099l0.198,-0.098l0.199,-0.097l0.199,-0.097l0.2,-0.095l0.2,-0.096l0.201,-0.094l0.202,-0.094l0.203,-0.093l0.203,-0.092l0.203,-0.092l0.205,-0.091l0.205,-0.09l0.205,-0.089l0.207,-0.089l0.207,-0.088l0.207,-0.087l0.208,-0.087l0.209,-0.086l0.21,-0.085l0.21,-0.084l0.211,-0.084l0.211,-0.082l0.212,-0.083l0.213,-0.081l0.213,-0.081l0.214,-0.08l0.215,-0.079l0.215,-0.078l0.216,-0.078l0.217,-0.077l0.217,-0.076l0.218,-0.076l0.219,-0.075l0.219,-0.074l0.22,-0.073l0.22,-0.072l0.221,-0.072l0.222,-0.071l0.223,-0.07l0.223,-0.07l0.224,-0.068l0.224,-0.068l0.225,-0.068l0.226,-0.066l0.227,-0.066l0.227,-0.065l0.228,-0.064l0.228,-0.063l0.229,-0.063l0.23,-0.062l0.23,-0.061l0.231,-0.06l0.232,-0.059l0.233,-0.059l0.233,-0.058l0.234,-0.057l0.234,-0.057l0.235,-0.055l0.236,-0.055l0.236,-0.054l0.238,-0.054l0.237,-0.052l0.239,-0.052l0.239,-0.051l0.24,-0.05l0.24,-0.049l0.241,-0.049l0.242,-0.048l0.243,-0.047l0.243,-0.046l0.244,-0.045l0.244,-0.045l0.246,-0.044l0.246,-0.043l0.246,-0.042l0.247,-0.041l0.248,-0.041l0.249,-0.04l0.249,-0.039l0.25,-0.038l0.251,-0.037l0.251,-0.037l0.252,-0.035l0.253,-0.035l0.254,-0.034l0.254,-0.034l0.255,-0.032l0.255,-0.032l0.256,-0.031l0.257,-0.03l0.258,-0.029l0.258,-0.028l0.259,-0.028l0.259,-0.026l0.261,-0.026l0.261,-0.025l0.261,-0.024l0.263,-0.024l0.263,-0.022l0.264,-0.022l0.264,-0.021l0.265,-0.02l0.266,-0.019l0.267,-0.019l0.267,-0.017l0.268,-0.017l0.269,-0.016l0.269,-0.015l0.27,-0.014l0.271,-0.013l0.272,-0.013l0.272,-0.011l0.273,-0.011l0.273,-0.01l0.275,-0.009l0.275,-0.008l0.275,-0.007l0.277,-0.007l0.277,-0.005l0.278,-0.005l0.278,-0.004l0.28,-0.003l0.279,-0.002l0.281,-0.002l0.282,0l0.281,0Zm-0.553,3.827l-0.267,0.001l-0.267,0.002l-0.269,0.003l-0.265,0.003l-0.267,0.005l-0.267,0.005l-0.263,0.006l-0.262,0.007l-0.261,0.008l-0.264,0.009l-0.263,0.009l-0.259,0.011l-0.261,0.011l-0.258,0.011l-0.26,0.014l-0.259,0.013l-0.251,0.014l-0.258,0.015l-0.257,0.016l-0.256,0.017l-0.252,0.017l-0.251,0.019l-0.258,0.019l-0.25,0.019l-0.249,0.021l-0.251,0.022l-0.248,0.022l-0.25,0.023l-0.249,0.024l-0.246,0.024l-0.247,0.026l-0.248,0.026l-0.243,0.027l-0.245,0.028l-0.245,0.028l-0.241,0.029l-0.24,0.03l-0.243,0.031l-0.242,0.032l-0.241,0.032l-0.241,0.033l-0.236,0.033l-0.235,0.035l-0.239,0.036l-0.237,0.036l-0.237,0.037l-0.236,0.037l-0.232,0.038l-0.235,0.04l-0.234,0.04l-0.23,0.04l-0.232,0.041l-0.232,0.042l-0.227,0.043l-0.231,0.044l-0.229,0.044l-0.229,0.045l-0.225,0.045l-0.227,0.048l-0.227,0.047l-0.226,0.048l-0.225,0.049l-0.221,0.049l-0.224,0.05l-0.223,0.051l-0.223,0.052l-0.218,0.051l-0.221,0.054l-0.22,0.053l-0.22,0.055l-0.219,0.055l-0.218,0.056l-0.218,0.057l-0.213,0.056l-0.216,0.059l-0.215,0.058l-0.212,0.059l-0.217,0.062l-0.213,0.06l-0.209,0.061l-0.212,0.062l-0.212,0.064l-0.21,0.063l-0.21,0.065l-0.209,0.065l-0.209,0.066l-0.208,0.066l-0.207,0.067l-0.206,0.068l-0.202,0.067l-0.205,0.07l-0.205,0.07l-0.203,0.07l-0.207,0.073l-0.199,0.07l-0.202,0.073l-0.201,0.073l-0.2,0.074l-0.2,0.075l-0.199,0.075l-0.198,0.076l-0.198,0.077l-0.197,0.077l-0.196,0.078l-0.196,0.078l-0.195,0.08l-0.194,0.079l-0.194,0.081l-0.197,0.082l-0.189,0.081l-0.191,0.082l-0.191,0.083l-0.191,0.084l-0.19,0.085l-0.189,0.085l-0.192,0.087l-0.188,0.086l-0.184,0.085l-0.186,0.088l-0.19,0.09l-0.185,0.089l-0.185,0.09l-0.184,0.09l-0.183,0.091l-0.183,0.091l-0.182,0.092l-0.185,0.095l-0.181,0.093l-0.18,0.094l-0.18,0.094l-0.179,0.095l-0.178,0.096l-0.178,0.097l-0.181,0.099l-0.176,0.097l-0.173,0.097l-0.179,0.101l-0.177,0.101l-0.171,0.098l-0.174,0.101l-0.176,0.103l-0.172,0.102l-0.172,0.103l-0.175,0.105l-0.17,0.104l-0.167,0.102l-0.172,0.107l-0.172,0.108l-0.165,0.104l-0.171,0.109l-0.167,0.107l-0.166,0.109l-0.169,0.11l-0.165,0.109l-0.164,0.11l-0.164,0.111l-0.167,0.113l-0.163,0.112l-0.162,0.112l-0.164,0.115l-0.162,0.113l-0.16,0.114l-0.16,0.115l-0.162,0.117l-0.162,0.118l-0.155,0.114l-0.158,0.118l-0.16,0.12l-0.159,0.12l-0.156,0.118l-0.156,0.12l-0.157,0.122l-0.154,0.12l-0.154,0.122l-0.156,0.123l-0.152,0.122l-0.153,0.124l-0.154,0.125l-0.153,0.126l-0.151,0.125l-0.149,0.125l-0.15,0.126l-0.151,0.129l-0.151,0.128l-0.145,0.126l-0.149,0.13l-0.149,0.131l-0.147,0.129l-0.148,0.133l-0.144,0.13l-0.145,0.131l-0.146,0.134l-0.146,0.134l-0.142,0.132l-0.143,0.134l-0.144,0.136l-0.143,0.137l-0.141,0.134l-0.14,0.136l-0.142,0.139l-0.139,0.136l-0.141,0.14l-0.14,0.14l-0.137,0.138l-0.14,0.141l-0.136,0.14l-0.136,0.14l-0.138,0.143l-0.137,0.143l-0.136,0.144l-0.134,0.143l-0.134,0.143l-0.134,0.145l-0.135,0.147l-0.131,0.144l-0.134,0.148l-0.132,0.147l-0.131,0.147l-0.131,0.149l-0.13,0.147l-0.128,0.148l-0.132,0.153l-0.13,0.151l-0.127,0.15l-0.127,0.15l-0.128,0.153l-0.127,0.153l-0.126,0.153l-0.126,0.154l-0.126,0.155l-0.125,0.156l-0.123,0.154l-0.125,0.157l-0.124,0.157l-0.121,0.156l-0.123,0.158l-0.123,0.159l-0.12,0.157l-0.121,0.16l-0.121,0.161l-0.119,0.159l-0.119,0.162l-0.12,0.162l-0.119,0.163l-0.118,0.163l-0.118,0.163l-0.115,0.163l-0.116,0.163l-0.117,0.167l-0.116,0.166l-0.114,0.164l-0.115,0.167l-0.114,0.168l-0.112,0.166l-0.113,0.169l-0.114,0.171l-0.111,0.167l-0.112,0.171l-0.111,0.17l-0.11,0.169l-0.11,0.173l-0.11,0.172l-0.109,0.172l-0.109,0.174l-0.108,0.174l-0.108,0.174l-0.106,0.173l-0.107,0.176l-0.107,0.177l-0.105,0.175l-0.105,0.177l-0.105,0.177l-0.104,0.178l-0.104,0.179l-0.102,0.177l-0.104,0.182l-0.103,0.179l-0.101,0.179l-0.101,0.181l-0.101,0.182l-0.1,0.182l-0.101,0.184l-0.1,0.183l-0.098,0.182l-0.098,0.184l-0.098,0.185l-0.098,0.185l-0.097,0.186l-0.096,0.186l-0.096,0.187l-0.096,0.186l-0.095,0.188l-0.095,0.188l-0.094,0.189l-0.094,0.189l-0.093,0.19l-0.092,0.19l-0.093,0.191l-0.091,0.191l-0.092,0.191l-0.091,0.193l-0.091,0.194l-0.089,0.192l-0.089,0.192l-0.089,0.195l-0.089,0.196l-0.088,0.194l-0.087,0.196l-0.088,0.196l-0.086,0.197l-0.086,0.196l-0.086,0.198l-0.085,0.199l-0.085,0.197l-0.084,0.199l-0.084,0.2l-0.083,0.2l-0.083,0.201l-0.082,0.2l-0.082,0.202l-0.082,0.203l-0.081,0.201l-0.08,0.202l-0.081,0.205l-0.079,0.204l-0.079,0.202l-0.079,0.205l-0.078,0.206l-0.078,0.206l-0.077,0.206l-0.077,0.206l-0.076,0.208l-0.076,0.207l-0.076,0.208l-0.074,0.208l-0.075,0.208l-0.074,0.211l-0.074,0.209l-0.073,0.21l-0.073,0.212l-0.072,0.21l-0.071,0.211l-0.072,0.214l-0.07,0.211l-0.07,0.212l-0.071,0.216l-0.069,0.213l-0.069,0.213l-0.069,0.215l-0.068,0.216l-0.067,0.215l-0.067,0.216l-0.067,0.216l-0.066,0.218l-0.066,0.217l-0.065,0.217l-0.065,0.218l-0.065,0.219l-0.064,0.219l-0.063,0.22l-0.064,0.221l-0.062,0.218l-0.062,0.221l-0.062,0.222l-0.061,0.22l-0.061,0.223l-0.06,0.223l-0.06,0.222l-0.06,0.223l-0.059,0.224l-0.058,0.224l-0.058,0.225l-0.058,0.226l-0.057,0.224l-0.057,0.225l-0.056,0.226l-0.056,0.227l-0.056,0.228l-0.055,0.226l-0.054,0.228l-0.054,0.229l-0.054,0.228l-0.053,0.229l-0.053,0.23l-0.052,0.229l-0.052,0.229l-0.051,0.231l-0.051,0.231l-0.051,0.232l-0.05,0.232l-0.05,0.231l-0.049,0.232l-0.049,0.233l-0.048,0.233l-0.048,0.234l-0.048,0.234l-0.047,0.234l-0.046,0.235l-0.046,0.235l-0.046,0.235l-0.045,0.235l-0.045,0.237l-0.045,0.237l-0.044,0.236l-0.043,0.238l-0.043,0.238l-0.043,0.238l-0.042,0.238l-0.042,0.239l-0.041,0.239l-0.041,0.24l-0.041,0.24l-0.04,0.239l-0.039,0.24l-0.04,0.242l-0.038,0.241l-0.039,0.242l-0.038,0.241l-0.037,0.242l-0.037,0.243l-0.037,0.243l-0.036,0.243l-0.036,0.244l-0.035,0.244l-0.035,0.244l-0.035,0.245l-0.034,0.245l-0.034,0.246l-0.033,0.246l-0.033,0.245l-0.032,0.246l-0.032,0.247l-0.031,0.247l-0.032,0.247l-0.03,0.248l-0.031,0.247l-0.029,0.249l-0.03,0.248l-0.029,0.25l-0.029,0.249l-0.028,0.249l-0.027,0.25l-0.028,0.25l-0.027,0.25l-0.026,0.251l-0.026,0.252l-0.026,0.251l-0.025,0.252l-0.025,0.252l-0.025,0.252l-0.024,0.252l-0.023,0.254l-0.023,0.253l-0.023,0.253l-0.023,0.254l-0.022,0.255l-0.021,0.254l-0.021,0.255l-0.021,0.255l-0.02,0.255l-0.02,0.255l-0.02,0.256l-0.019,0.256l-0.019,0.257l-0.018,0.256l-0.018,0.258l-0.017,0.257l-0.017,0.257l-0.017,0.258l-0.016,0.258l-0.016,0.259l-0.016,0.258l-0.015,0.259l-0.014,0.26l-0.015,0.26l-0.014,0.259l-0.013,0.26l-0.013,0.26l-0.013,0.26l-0.012,0.262l-0.012,0.261l-0.011,0.261l-0.011,0.261l-0.011,0.263l-0.01,0.261l-0.01,0.263l-0.01,0.262l-0.009,0.263l-0.009,0.263l-0.008,0.264l-0.008,0.263l-0.007,0.265l-0.007,0.263l-0.007,0.264l-0.007,0.265l-0.006,0.265l-0.005,0.265l-0.005,0.265l-0.005,0.266l-0.005,0.265l-0.004,0.267l-0.003,0.265l-0.003,0.267l-0.003,0.267l-0.003,0.267l-0.002,0.267l-0.002,0.267l-0.001,0.268l-0.001,0.268l0,0.268l-0.001,0.267l0.001,0.54l0.002,0.537l0.003,0.537l0.004,0.536l0.005,0.535l0.007,0.534l0.008,0.533l0.009,0.532l0.011,0.532l0.011,0.53l0.013,0.528l0.015,0.529l0.015,0.527l0.017,0.526l0.019,0.525l0.019,0.524l0.021,0.523l0.022,0.521l0.024,0.521l0.025,0.52l0.026,0.518l0.027,0.517l0.029,0.517l0.031,0.515l0.032,0.514l0.016,0.256l0.017,0.256l0.017,0.256l0.017,0.255l0.018,0.256l0.018,0.255l0.019,0.254l0.019,0.255l0.019,0.254l0.02,0.254l0.02,0.253l0.02,0.253l0.021,0.253l0.021,0.253l0.021,0.252l0.022,0.252l0.022,0.252l0.023,0.251l0.023,0.251l0.023,0.25l0.023,0.251l0.024,0.25l0.025,0.249l0.025,0.25l0.025,0.249l0.025,0.248l0.026,0.249l0.026,0.248l0.027,0.247l0.027,0.248l0.027,0.247l0.028,0.247l0.028,0.246l0.029,0.246l0.029,0.246l0.029,0.244l0.03,0.246l0.03,0.245l0.03,0.244l0.031,0.243l0.031,0.244l0.032,0.243l0.032,0.243l0.032,0.243l0.033,0.243l0.033,0.241l0.034,0.241l0.034,0.241l0.034,0.242l0.035,0.24l0.035,0.24l0.036,0.239l0.036,0.239l0.036,0.238l0.037,0.24l0.037,0.239l0.038,0.237l0.038,0.237l0.038,0.237l0.039,0.236l0.039,0.238l0.04,0.236l0.04,0.235l0.04,0.235l0.041,0.234l0.041,0.235l0.042,0.234l0.042,0.234l0.043,0.233l0.043,0.232l0.043,0.233l0.044,0.232l0.044,0.231l0.044,0.232l0.045,0.23l0.046,0.231l0.046,0.231l0.046,0.229l0.047,0.229l0.047,0.229l0.048,0.228l0.047,0.228l0.049,0.227l0.049,0.228l0.049,0.227l0.05,0.226l0.05,0.225l0.05,0.227l0.051,0.225l0.052,0.225l0.052,0.224l0.052,0.224l0.053,0.223l0.053,0.223l0.053,0.222l0.054,0.223l0.055,0.221l0.055,0.222l0.055,0.221l0.056,0.221l0.056,0.219l0.057,0.22l0.057,0.219l0.057,0.218l0.058,0.218l0.059,0.218l0.059,0.219l0.059,0.216l0.06,0.216l0.061,0.217l0.06,0.215l0.061,0.215l0.062,0.215l0.062,0.213l0.062,0.215l0.063,0.213l0.064,0.214l0.064,0.212l0.064,0.211l0.065,0.212l0.065,0.21l0.066,0.212l0.066,0.21l0.066,0.21l0.068,0.209l0.067,0.209l0.068,0.208l0.068,0.208l0.069,0.206l0.07,0.208l0.07,0.207l0.07,0.205l0.071,0.205l0.071,0.205l0.072,0.206l0.072,0.204l0.072,0.203l0.073,0.203l0.074,0.202l0.074,0.203l0.075,0.201l0.075,0.201l0.075,0.201l0.076,0.2l0.077,0.199l0.076,0.199l0.078,0.2l0.078,0.198l0.078,0.196l0.079,0.199l0.079,0.196l0.08,0.196l0.081,0.197l0.08,0.194l0.081,0.195l0.082,0.195l0.082,0.192l0.083,0.193l0.083,0.194l0.084,0.193l0.084,0.191l0.085,0.192l0.085,0.19l0.085,0.19l0.086,0.19l0.087,0.189l0.087,0.189l0.088,0.188l0.088,0.187l0.088,0.187l0.089,0.187l0.09,0.186l0.09,0.186l0.091,0.185l0.09,0.182l0.091,0.184l0.093,0.186l0.093,0.182l0.093,0.183l0.093,0.182l0.095,0.182l0.094,0.181l0.094,0.178l0.096,0.18l0.097,0.181l0.096,0.177l0.097,0.178l0.099,0.18l0.097,0.176l0.098,0.176l0.099,0.177l0.099,0.174l0.101,0.176l0.101,0.175l0.101,0.173l0.101,0.174l0.103,0.172l0.102,0.173l0.104,0.172l0.104,0.171l0.103,0.169l0.105,0.171l0.105,0.17l0.106,0.169l0.107,0.169l0.106,0.166l0.109,0.17l0.108,0.168l0.107,0.165l0.108,0.164l0.11,0.165l0.112,0.167l0.109,0.163l0.111,0.163l0.112,0.164l0.111,0.161l0.113,0.162l0.114,0.162l0.114,0.162l0.115,0.161l0.113,0.158l0.115,0.157l0.118,0.162l0.116,0.158l0.116,0.156l0.117,0.156l0.118,0.156l0.121,0.159l0.118,0.154l0.118,0.153l0.121,0.155l0.122,0.154l0.121,0.154l0.121,0.151l0.121,0.15l0.126,0.154l0.122,0.15l0.123,0.148l0.127,0.153l0.124,0.148l0.126,0.149l0.128,0.149l0.123,0.144l0.129,0.147l0.13,0.149l0.128,0.145l0.128,0.144l0.13,0.145l0.129,0.142l0.132,0.144l0.132,0.145l0.131,0.14l0.134,0.143l0.132,0.14l0.134,0.141l0.136,0.142l0.133,0.138l0.135,0.137l0.137,0.139l0.137,0.139l0.137,0.136l0.136,0.135l0.139,0.137l0.141,0.137l0.138,0.133l0.139,0.133l0.142,0.135l0.143,0.134l0.141,0.132l0.141,0.13l0.144,0.132l0.146,0.133l0.143,0.129l0.144,0.128l0.144,0.128l0.148,0.13l0.148,0.129l0.146,0.126l0.15,0.128l0.148,0.125l0.148,0.124l0.151,0.127l0.15,0.123l0.152,0.125l0.151,0.123l0.152,0.121l0.154,0.123l0.153,0.121l0.153,0.12l0.157,0.121l0.155,0.119l0.155,0.118l0.159,0.12l0.156,0.117l0.157,0.117l0.161,0.117l0.161,0.118l0.159,0.115l0.157,0.112l0.164,0.115l0.164,0.116l0.162,0.112l0.162,0.112l0.164,0.111l0.166,0.113l0.165,0.11l0.165,0.109l0.166,0.109l0.167,0.108l0.17,0.11l0.171,0.109l0.169,0.107l0.166,0.104l0.173,0.107l0.171,0.105l0.171,0.104l0.175,0.105l0.173,0.103l0.174,0.103l0.174,0.101l0.175,0.101l0.179,0.103l0.176,0.1l0.177,0.099l0.178,0.099l0.179,0.098l0.182,0.099l0.18,0.097l0.181,0.096l0.178,0.094l0.186,0.097l0.186,0.096l0.18,0.092l0.185,0.093l0.188,0.095l0.186,0.092l0.187,0.091l0.187,0.091l0.188,0.09l0.189,0.089l0.19,0.089l0.194,0.09l0.191,0.088l0.188,0.085l0.193,0.086l0.197,0.087l0.194,0.086l0.192,0.083l0.199,0.085l0.197,0.083l0.197,0.082l0.198,0.082l0.196,0.08l0.203,0.082l0.2,0.08l0.201,0.079l0.202,0.079l0.203,0.078l0.207,0.078l0.201,0.076l0.202,0.074l0.209,0.077l0.207,0.075l0.208,0.074l0.208,0.073l0.209,0.073l0.21,0.072l0.211,0.071l0.212,0.071l0.209,0.069l0.213,0.069l0.217,0.07l0.215,0.068l0.213,0.067l0.216,0.066l0.217,0.066l0.219,0.065l0.219,0.065l0.219,0.064l0.221,0.063l0.218,0.062l0.223,0.061l0.226,0.062l0.221,0.06l0.225,0.06l0.225,0.059l0.223,0.057l0.231,0.059l0.229,0.057l0.225,0.055l0.23,0.056l0.231,0.054l0.231,0.054l0.233,0.054l0.23,0.052l0.234,0.052l0.235,0.051l0.233,0.05l0.236,0.049l0.242,0.05l0.235,0.048l0.235,0.047l0.244,0.047l0.241,0.047l0.239,0.044l0.239,0.044l0.244,0.044l0.248,0.044l0.242,0.042l0.243,0.041l0.251,0.041l0.248,0.041l0.246,0.039l0.246,0.038l0.251,0.038l0.252,0.037l0.252,0.036l0.25,0.036l0.255,0.034l0.255,0.035l0.253,0.032l0.257,0.033l0.258,0.032l0.255,0.031l0.26,0.03l0.26,0.03l0.259,0.028l0.262,0.028l0.26,0.027l0.264,0.026l0.265,0.026l0.263,0.024l0.267,0.024l0.268,0.024l0.265,0.022l0.267,0.021l0.27,0.021l0.272,0.02l0.269,0.019l0.274,0.019l0.274,0.017l0.272,0.017l0.276,0.016l0.274,0.016l0.274,0.013l0.282,0.014l0.277,0.013l0.278,0.012l0.281,0.011l0.28,0.011l0.283,0.009l0.281,0.009l0.283,0.007l0.289,0.007l0.284,0.007l0.285,0.005l0.289,0.005l0.287,0.004l0.291,0.002l0.289,0.003l0.29,0.001l0.294,0l0.293,0l0.29,-0.001l0.289,-0.003l0.291,-0.002l0.287,-0.004l0.289,-0.005l0.285,-0.005l0.284,-0.007l0.29,-0.007l0.282,-0.007l0.281,-0.009l0.284,-0.009l0.279,-0.011l0.282,-0.011l0.277,-0.012l0.277,-0.013l0.282,-0.014l0.275,-0.013l0.273,-0.016l0.276,-0.016l0.272,-0.017l0.275,-0.017l0.273,-0.019l0.269,-0.019l0.272,-0.02l0.27,-0.021l0.267,-0.021l0.265,-0.022l0.268,-0.024l0.267,-0.024l0.263,-0.024l0.265,-0.026l0.264,-0.026l0.26,-0.027l0.263,-0.028l0.258,-0.028l0.26,-0.03l0.26,-0.03l0.256,-0.031l0.257,-0.032l0.257,-0.033l0.253,-0.032l0.255,-0.035l0.255,-0.034l0.25,-0.036l0.253,-0.036l0.251,-0.037l0.251,-0.038l0.246,-0.038l0.246,-0.039l0.248,-0.041l0.251,-0.041l0.243,-0.041l0.242,-0.042l0.248,-0.044l0.244,-0.044l0.239,-0.044l0.239,-0.044l0.241,-0.047l0.244,-0.047l0.235,-0.047l0.236,-0.048l0.241,-0.05l0.237,-0.049l0.232,-0.05l0.235,-0.051l0.234,-0.052l0.23,-0.052l0.233,-0.054l0.231,-0.054l0.231,-0.054l0.23,-0.056l0.226,-0.055l0.228,-0.057l0.231,-0.059l0.223,-0.057l0.225,-0.059l0.225,-0.06l0.221,-0.06l0.227,-0.062l0.222,-0.061l0.218,-0.062l0.221,-0.063l0.219,-0.064l0.219,-0.065l0.219,-0.065l0.217,-0.066l0.217,-0.066l0.212,-0.067l0.215,-0.068l0.217,-0.07l0.213,-0.069l0.209,-0.069l0.212,-0.071l0.211,-0.071l0.21,-0.072l0.209,-0.073l0.208,-0.073l0.208,-0.074l0.207,-0.075l0.209,-0.077l0.202,-0.074l0.201,-0.076l0.207,-0.078l0.203,-0.078l0.202,-0.079l0.201,-0.079l0.201,-0.08l0.203,-0.082l0.195,-0.08l0.198,-0.082l0.198,-0.082l0.196,-0.083l0.199,-0.085l0.192,-0.083l0.194,-0.086l0.197,-0.087l0.193,-0.086l0.188,-0.085l0.191,-0.088l0.194,-0.09l0.19,-0.089l0.189,-0.089l0.188,-0.09l0.187,-0.091l0.187,-0.091l0.186,-0.092l0.188,-0.095l0.185,-0.093l0.18,-0.092l0.186,-0.096l0.186,-0.097l0.178,-0.094l0.181,-0.096l0.18,-0.097l0.182,-0.099l0.179,-0.098l0.178,-0.099l0.177,-0.099l0.176,-0.1l0.179,-0.103l0.175,-0.101l0.174,-0.101l0.174,-0.103l0.173,-0.103l0.175,-0.105l0.171,-0.104l0.171,-0.105l0.173,-0.107l0.167,-0.104l0.168,-0.107l0.171,-0.109l0.171,-0.11l0.166,-0.108l0.166,-0.109l0.165,-0.109l0.165,-0.11l0.167,-0.113l0.163,-0.111l0.162,-0.112l0.162,-0.112l0.164,-0.116l0.164,-0.115l0.157,-0.112l0.159,-0.115l0.161,-0.118l0.161,-0.117l0.157,-0.117l0.157,-0.117l0.158,-0.12l0.156,-0.118l0.154,-0.119l0.157,-0.121l0.153,-0.12l0.153,-0.121l0.154,-0.123l0.152,-0.121l0.151,-0.123l0.152,-0.125l0.15,-0.123l0.151,-0.127l0.149,-0.124l0.147,-0.125l0.149,-0.128l0.147,-0.126l0.148,-0.13l0.148,-0.129l0.144,-0.127l0.144,-0.129l0.144,-0.129l0.145,-0.133l0.144,-0.132l0.141,-0.13l0.141,-0.132l0.143,-0.134l0.142,-0.135l0.139,-0.133l0.138,-0.133l0.141,-0.137l0.139,-0.137l0.137,-0.135l0.136,-0.136l0.137,-0.139l0.137,-0.139l0.135,-0.138l0.133,-0.137l0.136,-0.142l0.135,-0.141l0.132,-0.14l0.133,-0.143l0.131,-0.14l0.132,-0.145l0.132,-0.144l0.129,-0.142l0.13,-0.145l0.129,-0.144l0.127,-0.145l0.131,-0.149l0.128,-0.147l0.123,-0.144l0.128,-0.149l0.126,-0.149l0.124,-0.148l0.127,-0.153l0.123,-0.148l0.122,-0.15l0.126,-0.154l0.121,-0.15l0.121,-0.151l0.122,-0.154l0.121,-0.154l0.121,-0.155l0.118,-0.153l0.118,-0.154l0.121,-0.159l0.119,-0.156l0.116,-0.156l0.116,-0.156l0.117,-0.158l0.118,-0.162l0.114,-0.157l0.113,-0.158l0.115,-0.161l0.114,-0.162l0.114,-0.162l0.113,-0.162l0.111,-0.161l0.112,-0.164l0.111,-0.163l0.109,-0.163l0.112,-0.167l0.11,-0.165l0.108,-0.164l0.107,-0.165l0.108,-0.168l0.109,-0.17l0.106,-0.166l0.107,-0.169l0.106,-0.169l0.105,-0.17l0.105,-0.171l0.104,-0.169l0.103,-0.171l0.103,-0.172l0.104,-0.173l0.102,-0.173l0.101,-0.173l0.101,-0.173l0.101,-0.175l0.101,-0.176l0.099,-0.174l0.099,-0.177l0.098,-0.176l0.098,-0.176l0.098,-0.18l0.097,-0.178l0.096,-0.177l0.097,-0.181l0.096,-0.18l0.094,-0.178l0.095,-0.181l0.094,-0.182l0.093,-0.182l0.093,-0.183l0.093,-0.183l0.093,-0.185l0.091,-0.184l0.091,-0.182l0.09,-0.185l0.09,-0.186l0.09,-0.186l0.089,-0.187l0.088,-0.186l0.088,-0.188l0.088,-0.188l0.087,-0.189l0.087,-0.189l0.086,-0.19l0.085,-0.19l0.085,-0.19l0.085,-0.192l0.084,-0.191l0.084,-0.193l0.083,-0.194l0.083,-0.192l0.082,-0.193l0.082,-0.196l0.081,-0.194l0.08,-0.194l0.081,-0.197l0.08,-0.196l0.079,-0.197l0.079,-0.198l0.078,-0.196l0.078,-0.198l0.078,-0.2l0.077,-0.199l0.076,-0.199l0.076,-0.2l0.075,-0.201l0.075,-0.201l0.075,-0.201l0.074,-0.203l0.073,-0.202l0.074,-0.203l0.072,-0.204l0.072,-0.203l0.072,-0.206l0.072,-0.205l0.07,-0.205l0.07,-0.205l0.07,-0.207l0.07,-0.208l0.069,-0.206l0.068,-0.208l0.068,-0.208l0.067,-0.209l0.068,-0.21l0.066,-0.209l0.066,-0.21l0.066,-0.212l0.066,-0.21l0.064,-0.212l0.064,-0.211l0.064,-0.212l0.064,-0.214l0.063,-0.213l0.062,-0.215l0.062,-0.213l0.062,-0.215l0.061,-0.215l0.061,-0.215l0.06,-0.217l0.06,-0.216l0.059,-0.216l0.059,-0.219l0.059,-0.218l0.058,-0.217l0.057,-0.219l0.057,-0.219l0.057,-0.22l0.056,-0.219l0.056,-0.221l0.055,-0.221l0.055,-0.222l0.055,-0.221l0.054,-0.223l0.053,-0.222l0.053,-0.223l0.053,-0.223l0.052,-0.224l0.052,-0.224l0.052,-0.225l0.051,-0.225l0.05,-0.227l0.05,-0.225l0.05,-0.226l0.049,-0.227l0.049,-0.228l0.049,-0.227l0.048,-0.228l0.047,-0.228l0.047,-0.228l0.047,-0.23l0.046,-0.23l0.046,-0.23l0.046,-0.231l0.045,-0.23l0.044,-0.232l0.044,-0.231l0.044,-0.232l0.044,-0.233l0.042,-0.232l0.043,-0.233l0.042,-0.234l0.042,-0.234l0.041,-0.235l0.041,-0.234l0.04,-0.235l0.04,-0.235l0.04,-0.236l0.039,-0.238l0.039,-0.236l0.038,-0.237l0.038,-0.237l0.038,-0.237l0.037,-0.239l0.037,-0.24l0.036,-0.238l0.036,-0.239l0.036,-0.239l0.035,-0.24l0.035,-0.24l0.034,-0.242l0.034,-0.241l0.034,-0.241l0.033,-0.241l0.033,-0.243l0.032,-0.243l0.032,-0.243l0.032,-0.243l0.031,-0.244l0.031,-0.243l0.03,-0.244l0.03,-0.245l0.03,-0.246l0.029,-0.244l0.029,-0.246l0.029,-0.246l0.028,-0.246l0.028,-0.247l0.027,-0.247l0.027,-0.248l0.027,-0.247l0.026,-0.248l0.026,-0.249l0.025,-0.248l0.026,-0.249l0.024,-0.249l0.025,-0.25l0.024,-0.251l0.023,-0.25l0.024,-0.25l0.022,-0.251l0.023,-0.251l0.022,-0.252l0.022,-0.252l0.021,-0.252l0.021,-0.253l0.021,-0.253l0.02,-0.253l0.02,-0.253l0.02,-0.254l0.019,-0.254l0.019,-0.255l0.019,-0.254l0.018,-0.255l0.018,-0.256l0.017,-0.255l0.017,-0.256l0.017,-0.256l0.016,-0.256l0.032,-0.514l0.031,-0.515l0.029,-0.517l0.027,-0.517l0.027,-0.518l0.024,-0.52l0.024,-0.521l0.022,-0.521l0.021,-0.523l0.02,-0.524l0.018,-0.525l0.017,-0.526l0.015,-0.527l0.015,-0.529l0.013,-0.528l0.011,-0.53l0.011,-0.532l0.009,-0.532l0.008,-0.533l0.007,-0.534l0.005,-0.535l0.004,-0.536l0.003,-0.537l0.002,-0.537l0.001,-0.54l0,-0.267l-0.001,-0.268l-0.001,-0.268l-0.001,-0.268l-0.002,-0.267l-0.002,-0.267l-0.003,-0.267l-0.002,-0.267l-0.004,-0.267l-0.003,-0.265l-0.004,-0.267l-0.005,-0.265l-0.005,-0.266l-0.005,-0.265l-0.005,-0.265l-0.006,-0.265l-0.007,-0.265l-0.006,-0.264l-0.008,-0.263l-0.007,-0.265l-0.008,-0.263l-0.008,-0.264l-0.009,-0.263l-0.009,-0.263l-0.01,-0.262l-0.01,-0.263l-0.01,-0.262l-0.011,-0.262l-0.011,-0.261l-0.011,-0.261l-0.012,-0.262l-0.012,-0.261l-0.013,-0.26l-0.013,-0.26l-0.013,-0.26l-0.014,-0.259l-0.015,-0.26l-0.014,-0.26l-0.015,-0.259l-0.016,-0.258l-0.016,-0.259l-0.016,-0.258l-0.017,-0.258l-0.017,-0.257l-0.017,-0.257l-0.018,-0.258l-0.018,-0.256l-0.019,-0.257l-0.019,-0.256l-0.02,-0.256l-0.019,-0.255l-0.021,-0.255l-0.021,-0.255l-0.021,-0.255l-0.021,-0.255l-0.022,-0.254l-0.023,-0.254l-0.022,-0.253l-0.024,-0.253l-0.023,-0.254l-0.024,-0.252l-0.025,-0.252l-0.025,-0.252l-0.025,-0.252l-0.026,-0.251l-0.026,-0.252l-0.026,-0.251l-0.027,-0.25l-0.027,-0.25l-0.028,-0.25l-0.028,-0.249l-0.029,-0.249l-0.029,-0.25l-0.029,-0.248l-0.03,-0.249l-0.031,-0.247l-0.03,-0.248l-0.031,-0.247l-0.032,-0.247l-0.032,-0.247l-0.032,-0.247l-0.033,-0.244l-0.033,-0.246l-0.034,-0.246l-0.034,-0.245l-0.035,-0.245l-0.034,-0.244l-0.036,-0.244l-0.036,-0.244l-0.036,-0.243l-0.037,-0.243l-0.037,-0.243l-0.037,-0.242l-0.038,-0.241l-0.038,-0.242l-0.039,-0.241l-0.039,-0.242l-0.04,-0.24l-0.04,-0.239l-0.041,-0.241l-0.041,-0.239l-0.041,-0.239l-0.042,-0.239l-0.042,-0.238l-0.043,-0.238l-0.043,-0.238l-0.043,-0.238l-0.044,-0.236l-0.045,-0.236l-0.045,-0.238l-0.045,-0.235l-0.045,-0.235l-0.047,-0.235l-0.046,-0.235l-0.047,-0.234l-0.048,-0.234l-0.048,-0.234l-0.048,-0.233l-0.049,-0.233l-0.049,-0.232l-0.05,-0.231l-0.05,-0.232l-0.05,-0.232l-0.051,-0.231l-0.052,-0.231l-0.052,-0.229l-0.052,-0.229l-0.053,-0.23l-0.053,-0.229l-0.054,-0.228l-0.054,-0.229l-0.054,-0.228l-0.055,-0.226l-0.056,-0.228l-0.056,-0.227l-0.056,-0.226l-0.057,-0.225l-0.057,-0.224l-0.058,-0.226l-0.058,-0.225l-0.058,-0.224l-0.059,-0.224l-0.06,-0.223l-0.059,-0.222l-0.061,-0.223l-0.061,-0.223l-0.061,-0.22l-0.062,-0.221l-0.062,-0.222l-0.062,-0.219l-0.064,-0.22l-0.063,-0.22l-0.064,-0.219l-0.064,-0.218l-0.066,-0.219l-0.065,-0.218l-0.065,-0.216l-0.067,-0.218l-0.066,-0.216l-0.068,-0.216l-0.067,-0.215l-0.068,-0.216l-0.069,-0.215l-0.069,-0.213l-0.069,-0.213l-0.071,-0.216l-0.07,-0.212l-0.07,-0.211l-0.072,-0.213l-0.071,-0.212l-0.072,-0.21l-0.073,-0.212l-0.073,-0.21l-0.074,-0.209l-0.074,-0.211l-0.075,-0.208l-0.074,-0.208l-0.076,-0.208l-0.076,-0.207l-0.076,-0.208l-0.077,-0.206l-0.077,-0.206l-0.078,-0.206l-0.078,-0.206l-0.079,-0.205l-0.079,-0.202l-0.079,-0.204l-0.081,-0.205l-0.08,-0.202l-0.081,-0.201l-0.082,-0.203l-0.082,-0.202l-0.082,-0.2l-0.083,-0.201l-0.083,-0.2l-0.084,-0.2l-0.084,-0.199l-0.084,-0.197l-0.086,-0.199l-0.086,-0.198l-0.086,-0.196l-0.086,-0.197l-0.087,-0.196l-0.088,-0.196l-0.088,-0.194l-0.089,-0.196l-0.089,-0.195l-0.088,-0.191l-0.09,-0.193l-0.092,-0.195l-0.09,-0.192l-0.091,-0.191l-0.092,-0.191l-0.093,-0.191l-0.092,-0.19l-0.093,-0.19l-0.094,-0.189l-0.094,-0.189l-0.095,-0.188l-0.095,-0.188l-0.096,-0.186l-0.096,-0.187l-0.096,-0.186l-0.097,-0.186l-0.098,-0.185l-0.098,-0.185l-0.098,-0.184l-0.098,-0.182l-0.1,-0.182l-0.1,-0.185l-0.101,-0.182l-0.101,-0.182l-0.101,-0.181l-0.101,-0.179l-0.102,-0.179l-0.105,-0.182l-0.102,-0.177l-0.104,-0.179l-0.104,-0.178l-0.105,-0.177l-0.105,-0.177l-0.105,-0.175l-0.107,-0.177l-0.107,-0.176l-0.106,-0.173l-0.108,-0.174l-0.108,-0.174l-0.109,-0.174l-0.109,-0.172l-0.11,-0.172l-0.11,-0.173l-0.11,-0.169l-0.111,-0.17l-0.111,-0.171l-0.111,-0.167l-0.114,-0.171l-0.113,-0.169l-0.113,-0.166l-0.114,-0.168l-0.115,-0.167l-0.114,-0.164l-0.115,-0.166l-0.118,-0.167l-0.116,-0.163l-0.115,-0.163l-0.118,-0.163l-0.118,-0.163l-0.119,-0.163l-0.119,-0.162l-0.12,-0.162l-0.119,-0.159l-0.121,-0.161l-0.121,-0.16l-0.12,-0.157l-0.122,-0.159l-0.123,-0.158l-0.122,-0.156l-0.124,-0.157l-0.124,-0.157l-0.124,-0.154l-0.125,-0.156l-0.126,-0.155l-0.126,-0.154l-0.126,-0.153l-0.127,-0.153l-0.128,-0.153l-0.127,-0.15l-0.127,-0.15l-0.13,-0.151l-0.132,-0.153l-0.128,-0.148l-0.129,-0.147l-0.132,-0.149l-0.131,-0.147l-0.132,-0.147l-0.133,-0.148l-0.132,-0.144l-0.135,-0.147l-0.134,-0.145l-0.134,-0.143l-0.134,-0.143l-0.136,-0.143l-0.137,-0.144l-0.138,-0.143l-0.135,-0.14l-0.137,-0.14l-0.139,-0.141l-0.138,-0.138l-0.14,-0.14l-0.141,-0.14l-0.139,-0.137l-0.142,-0.138l-0.14,-0.136l-0.14,-0.134l-0.144,-0.137l-0.144,-0.136l-0.142,-0.134l-0.143,-0.132l-0.146,-0.134l-0.146,-0.134l-0.144,-0.131l-0.145,-0.131l-0.148,-0.132l-0.146,-0.129l-0.149,-0.131l-0.15,-0.13l-0.145,-0.126l-0.151,-0.128l-0.151,-0.129l-0.149,-0.126l-0.15,-0.125l-0.15,-0.125l-0.154,-0.126l-0.155,-0.126l-0.151,-0.123l-0.153,-0.122l-0.156,-0.123l-0.153,-0.122l-0.155,-0.12l-0.157,-0.122l-0.156,-0.12l-0.156,-0.118l-0.159,-0.12l-0.16,-0.12l-0.158,-0.118l-0.155,-0.114l-0.162,-0.118l-0.162,-0.117l-0.16,-0.115l-0.161,-0.114l-0.16,-0.113l-0.165,-0.115l-0.162,-0.112l-0.163,-0.112l-0.167,-0.113l-0.164,-0.111l-0.164,-0.11l-0.165,-0.109l-0.169,-0.11l-0.166,-0.109l-0.167,-0.107l-0.171,-0.109l-0.165,-0.104l-0.172,-0.108l-0.172,-0.107l-0.167,-0.102l-0.17,-0.104l-0.175,-0.105l-0.171,-0.103l-0.173,-0.102l-0.176,-0.103l-0.174,-0.101l-0.17,-0.098l-0.178,-0.101l-0.179,-0.101l-0.173,-0.097l-0.176,-0.097l-0.181,-0.099l-0.177,-0.097l-0.179,-0.096l-0.179,-0.095l-0.18,-0.094l-0.18,-0.094l-0.181,-0.093l-0.185,-0.095l-0.182,-0.092l-0.183,-0.091l-0.183,-0.091l-0.184,-0.09l-0.185,-0.09l-0.185,-0.089l-0.19,-0.09l-0.186,-0.088l-0.184,-0.085l-0.188,-0.086l-0.192,-0.087l-0.189,-0.085l-0.19,-0.085l-0.191,-0.084l-0.19,-0.083l-0.192,-0.082l-0.189,-0.081l-0.197,-0.082l-0.194,-0.081l-0.194,-0.079l-0.195,-0.08l-0.196,-0.078l-0.196,-0.078l-0.197,-0.077l-0.198,-0.077l-0.198,-0.076l-0.199,-0.075l-0.2,-0.075l-0.2,-0.074l-0.201,-0.073l-0.202,-0.073l-0.199,-0.07l-0.206,-0.073l-0.204,-0.071l-0.205,-0.069l-0.205,-0.07l-0.202,-0.067l-0.206,-0.068l-0.207,-0.067l-0.208,-0.066l-0.209,-0.066l-0.209,-0.065l-0.21,-0.065l-0.21,-0.063l-0.211,-0.064l-0.212,-0.062l-0.209,-0.061l-0.214,-0.06l-0.217,-0.062l-0.212,-0.059l-0.215,-0.058l-0.216,-0.059l-0.213,-0.056l-0.218,-0.057l-0.218,-0.056l-0.219,-0.055l-0.219,-0.055l-0.221,-0.053l-0.221,-0.054l-0.218,-0.051l-0.222,-0.052l-0.224,-0.051l-0.224,-0.05l-0.221,-0.049l-0.225,-0.049l-0.226,-0.048l-0.227,-0.047l-0.227,-0.048l-0.225,-0.045l-0.229,-0.045l-0.229,-0.044l-0.231,-0.044l-0.227,-0.043l-0.232,-0.042l-0.232,-0.041l-0.23,-0.04l-0.234,-0.04l-0.235,-0.04l-0.231,-0.038l-0.237,-0.037l-0.236,-0.037l-0.238,-0.036l-0.238,-0.036l-0.236,-0.035l-0.236,-0.033l-0.241,-0.033l-0.241,-0.032l-0.242,-0.032l-0.243,-0.031l-0.24,-0.03l-0.241,-0.029l-0.244,-0.028l-0.246,-0.028l-0.243,-0.027l-0.247,-0.026l-0.248,-0.026l-0.246,-0.024l-0.249,-0.024l-0.25,-0.023l-0.248,-0.022l-0.251,-0.022l-0.249,-0.021l-0.25,-0.019l-0.257,-0.019l-0.252,-0.019l-0.252,-0.017l-0.256,-0.017l-0.257,-0.016l-0.258,-0.015l-0.251,-0.014l-0.259,-0.013l-0.26,-0.014l-0.258,-0.011l-0.261,-0.011l-0.259,-0.011l-0.263,-0.009l-0.264,-0.009l-0.261,-0.008l-0.262,-0.007l-0.263,-0.006l-0.266,-0.005l-0.268,-0.005l-0.265,-0.003l-0.269,-0.003l-0.267,-0.002l-0.267,-0.001l-0.271,-0.001l-0.272,0.001Z" style="fill:#ac8639;"/><path d="M147.787,313.55c-4.56,11.187 35.084,18.582 39.474,0" style="fill:none;stroke:#ac8639;stroke-width:7.71px;"/></g><g id="tophat"><ellipse cx="186.38" cy="222.854" rx="47.942" ry="11.008" style="fill:#282624;"/><path d="M216.722,170.505c-19.204,-5.116 -39.413,-5.211 -60.683,0l0,56.464c20.209,5.438 40.439,4.946 60.683,0l0,-56.464Z" style="fill:#282624;"/><path d="M216.722,212.684c-19.62,4.796 -39.855,5.133 -60.683,0l0,6.574c19.941,5.547 40.171,5.49 60.683,0l0,-6.574Z" style="fill:#b5a686;"/></g></g><text x="89.398px" y="32.146px" style="font-family:'AvenirNext-DemiBold', 'Avenir Next', sans-serif;font-weight:600;font-size:45px;fill:#ccc;">A</text><text x="250.769px" y="32.146px" style="font-family:'AvenirNext-DemiBold', 'Avenir Next', sans-serif;font-weight:600;font-size:45px;fill:#ccc;">B</text><path d="M122.88,48.526l0.096,0.002l0.097,0.003l0.096,0.004l0.095,0.006l0.096,0.006l0.095,0.008l0.094,0.009l0.095,0.01l0.094,0.012l0.093,0.012l0.094,0.014l0.092,0.015l0.093,0.016l0.092,0.017l0.092,0.018l0.091,0.019l0.091,0.021l0.09,0.021l0.09,0.023l0.09,0.024l0.089,0.024l0.089,0.026l0.088,0.027l0.088,0.028l0.087,0.029l0.087,0.03l0.087,0.031l0.086,0.032l0.085,0.033l0.085,0.034l0.084,0.035l0.084,0.036l0.083,0.037l0.083,0.039l0.082,0.039l0.082,0.04l0.081,0.041l0.081,0.041l0.08,0.043l0.079,0.044l0.079,0.045l0.078,0.045l0.078,0.047l0.077,0.047l0.076,0.049l0.076,0.049l0.075,0.05l0.075,0.051l0.073,0.052l0.074,0.053l0.072,0.053l0.072,0.055l0.071,0.055l0.071,0.056l0.07,0.057l0.069,0.058l0.068,0.058l0.068,0.06l0.067,0.06l0.066,0.061l0.065,0.062l0.065,0.062l0.064,0.063l0.064,0.064l0.062,0.065l0.062,0.066l0.061,0.066l0.06,0.067l0.059,0.067l0.059,0.069l0.057,0.069l0.057,0.07l0.056,0.07l0.056,0.071l0.054,0.072l0.054,0.073l0.053,0.073l0.051,0.074l0.051,0.074l0.05,0.076l0.05,0.075l0.048,0.077l0.048,0.077l0.046,0.077l0.046,0.079l0.044,0.078l0.044,0.08l0.043,0.08l0.042,0.08l0.041,0.082l0.04,0.081l0.039,0.082l0.038,0.083l0.037,0.084l0.036,0.083l0.035,0.085l0.034,0.085l0.034,0.085l0.032,0.086l0.031,0.086l0.03,0.087l0.029,0.087l0.028,0.088l0.026,0.089l0.026,0.088l0.025,0.089l0.024,0.09l0.022,0.09l0.022,0.091l0.02,0.091l0.02,0.091l0.018,0.092l0.017,0.092l0.016,0.092l0.015,0.093l0.013,0.093l0.013,0.094l0.011,0.094l0.01,0.094l0.009,0.095l0.008,0.095l0.007,0.095l0.005,0.096l0.004,0.096l0.004,0.096l0.001,0.097l0.001,0.097l0,35l-0.001,0.096l-0.001,0.097l-0.004,0.096l-0.004,0.096l-0.005,0.096l-0.007,0.095l-0.008,0.095l-0.009,0.095l-0.01,0.094l-0.011,0.094l-0.013,0.094l-0.013,0.093l-0.015,0.093l-0.016,0.092l-0.017,0.093l-0.018,0.091l-0.02,0.092l-0.02,0.09l-0.022,0.091l-0.022,0.09l-0.024,0.09l-0.025,0.089l-0.026,0.089l-0.026,0.088l-0.028,0.088l-0.029,0.087l-0.03,0.087l-0.031,0.086l-0.032,0.086l-0.034,0.085l-0.034,0.085l-0.035,0.085l-0.036,0.084l-0.037,0.083l-0.038,0.083l-0.039,0.082l-0.04,0.082l-0.041,0.081l-0.042,0.08l-0.043,0.08l-0.044,0.08l-0.044,0.078l-0.046,0.079l-0.046,0.077l-0.048,0.077l-0.048,0.077l-0.05,0.076l-0.05,0.075l-0.051,0.074l-0.051,0.074l-0.053,0.073l-0.054,0.073l-0.054,0.072l-0.056,0.071l-0.056,0.07l-0.057,0.07l-0.057,0.069l-0.059,0.069l-0.059,0.067l-0.06,0.067l-0.061,0.067l-0.062,0.065l-0.062,0.065l-0.064,0.064l-0.064,0.063l-0.065,0.063l-0.065,0.061l-0.066,0.061l-0.067,0.06l-0.068,0.06l-0.068,0.058l-0.069,0.058l-0.07,0.057l-0.071,0.056l-0.071,0.055l-0.072,0.055l-0.072,0.053l-0.074,0.053l-0.073,0.052l-0.075,0.051l-0.075,0.05l-0.076,0.049l-0.076,0.049l-0.077,0.047l-0.078,0.047l-0.078,0.045l-0.079,0.045l-0.079,0.044l-0.08,0.043l-0.081,0.042l-0.081,0.04l-0.082,0.04l-0.082,0.04l-0.083,0.038l-0.083,0.037l-0.084,0.036l-0.084,0.035l-0.085,0.034l-0.085,0.033l-0.086,0.032l-0.087,0.031l-0.087,0.03l-0.087,0.029l-0.088,0.028l-0.088,0.027l-0.089,0.026l-0.089,0.025l-0.09,0.023l-0.09,0.023l-0.09,0.021l-0.091,0.021l-0.091,0.019l-0.092,0.018l-0.092,0.017l-0.093,0.016l-0.092,0.015l-0.094,0.014l-0.093,0.012l-0.094,0.012l-0.095,0.01l-0.094,0.009l-0.095,0.008l-0.096,0.006l-0.095,0.006l-0.096,0.004l-0.097,0.003l-0.096,0.002l-0.097,0.001l-35,0l-0.097,-0.001l-0.096,-0.002l-0.097,-0.003l-0.096,-0.004l-0.095,-0.006l-0.096,-0.006l-0.095,-0.008l-0.094,-0.009l-0.095,-0.01l-0.094,-0.012l-0.093,-0.012l-0.094,-0.014l-0.092,-0.015l-0.093,-0.016l-0.092,-0.017l-0.092,-0.018l-0.091,-0.019l-0.091,-0.021l-0.09,-0.021l-0.09,-0.023l-0.09,-0.023l-0.089,-0.025l-0.089,-0.026l-0.088,-0.027l-0.088,-0.028l-0.087,-0.029l-0.087,-0.03l-0.087,-0.031l-0.086,-0.032l-0.085,-0.033l-0.085,-0.034l-0.084,-0.035l-0.084,-0.036l-0.083,-0.037l-0.083,-0.038l-0.082,-0.04l-0.082,-0.04l-0.081,-0.04l-0.081,-0.042l-0.08,-0.043l-0.079,-0.044l-0.079,-0.045l-0.078,-0.045l-0.078,-0.047l-0.077,-0.047l-0.076,-0.049l-0.076,-0.049l-0.075,-0.05l-0.075,-0.051l-0.073,-0.052l-0.074,-0.053l-0.072,-0.053l-0.072,-0.055l-0.071,-0.055l-0.071,-0.056l-0.07,-0.057l-0.069,-0.058l-0.068,-0.058l-0.068,-0.06l-0.067,-0.06l-0.066,-0.061l-0.065,-0.061l-0.065,-0.063l-0.064,-0.063l-0.064,-0.064l-0.062,-0.065l-0.062,-0.065l-0.061,-0.067l-0.06,-0.067l-0.059,-0.067l-0.059,-0.069l-0.057,-0.069l-0.057,-0.07l-0.057,-0.07l-0.055,-0.071l-0.054,-0.072l-0.054,-0.073l-0.053,-0.073l-0.051,-0.074l-0.051,-0.074l-0.051,-0.075l-0.049,-0.076l-0.048,-0.077l-0.048,-0.077l-0.046,-0.077l-0.046,-0.079l-0.044,-0.078l-0.044,-0.08l-0.043,-0.08l-0.042,-0.08l-0.041,-0.081l-0.04,-0.082l-0.039,-0.082l-0.038,-0.083l-0.037,-0.083l-0.036,-0.084l-0.035,-0.085l-0.034,-0.085l-0.034,-0.085l-0.032,-0.086l-0.031,-0.086l-0.03,-0.087l-0.029,-0.087l-0.028,-0.088l-0.026,-0.088l-0.026,-0.089l-0.025,-0.089l-0.024,-0.09l-0.022,-0.09l-0.022,-0.091l-0.02,-0.09l-0.02,-0.092l-0.018,-0.091l-0.017,-0.093l-0.016,-0.092l-0.015,-0.093l-0.013,-0.093l-0.013,-0.094l-0.011,-0.094l-0.01,-0.094l-0.009,-0.095l-0.008,-0.095l-0.007,-0.095l-0.005,-0.096l-0.005,-0.096l-0.003,-0.096l-0.001,-0.097l-0.001,-0.096l0,-35l0.001,-0.097l0.001,-0.097l0.003,-0.096l0.005,-0.096l0.005,-0.096l0.007,-0.095l0.008,-0.095l0.009,-0.095l0.01,-0.094l0.011,-0.094l0.013,-0.094l0.013,-0.093l0.015,-0.093l0.016,-0.092l0.017,-0.092l0.018,-0.092l0.02,-0.091l0.02,-0.091l0.022,-0.091l0.022,-0.09l0.024,-0.09l0.025,-0.089l0.026,-0.088l0.026,-0.089l0.028,-0.088l0.029,-0.087l0.03,-0.087l0.031,-0.086l0.032,-0.086l0.034,-0.085l0.034,-0.085l0.035,-0.085l0.036,-0.083l0.037,-0.084l0.038,-0.083l0.039,-0.082l0.04,-0.081l0.041,-0.082l0.042,-0.08l0.043,-0.08l0.044,-0.08l0.044,-0.078l0.046,-0.079l0.046,-0.077l0.048,-0.077l0.048,-0.077l0.049,-0.075l0.051,-0.076l0.051,-0.074l0.051,-0.074l0.053,-0.073l0.054,-0.073l0.054,-0.072l0.055,-0.071l0.057,-0.07l0.057,-0.07l0.057,-0.069l0.059,-0.069l0.059,-0.067l0.06,-0.067l0.061,-0.066l0.062,-0.066l0.062,-0.065l0.064,-0.064l0.064,-0.063l0.065,-0.062l0.065,-0.062l0.066,-0.061l0.067,-0.06l0.068,-0.06l0.068,-0.058l0.069,-0.058l0.07,-0.057l0.071,-0.056l0.071,-0.055l0.072,-0.055l0.072,-0.053l0.074,-0.053l0.073,-0.052l0.075,-0.051l0.075,-0.05l0.076,-0.049l0.076,-0.049l0.077,-0.047l0.078,-0.047l0.078,-0.045l0.079,-0.045l0.079,-0.044l0.08,-0.043l0.081,-0.041l0.081,-0.041l0.082,-0.04l0.082,-0.039l0.083,-0.039l0.083,-0.037l0.084,-0.036l0.084,-0.035l0.085,-0.034l0.085,-0.033l0.086,-0.032l0.087,-0.031l0.087,-0.03l0.087,-0.029l0.088,-0.028l0.088,-0.027l0.089,-0.026l0.089,-0.024l0.09,-0.024l0.09,-0.023l0.09,-0.021l0.091,-0.021l0.091,-0.019l0.092,-0.018l0.092,-0.017l0.093,-0.016l0.092,-0.015l0.094,-0.014l0.093,-0.012l0.094,-0.012l0.095,-0.01l0.094,-0.009l0.095,-0.008l0.096,-0.006l0.095,-0.006l0.096,-0.004l0.097,-0.003l0.096,-0.002l0.097,0l35,0l0.097,0Zm-35.084,4l-0.058,0l-0.045,0.001l-0.057,0.002l-0.043,0.001l-0.03,0.002l-0.055,0.004l-0.042,0.003l-0.041,0.005l-0.054,0.005l-0.04,0.005l-0.04,0.005l-0.039,0.006l-0.051,0.008l-0.038,0.007l-0.038,0.007l-0.05,0.01l-0.049,0.01l-0.036,0.008l-0.036,0.009l-0.047,0.012l-0.047,0.012l-0.034,0.009l-0.034,0.01l-0.058,0.018l-0.033,0.01l-0.032,0.011l-0.044,0.015l-0.043,0.016l-0.043,0.016l-0.043,0.016l-0.03,0.012l-0.041,0.018l-0.041,0.017l-0.04,0.018l-0.04,0.018l-0.028,0.014l-0.05,0.024l-0.027,0.014l-0.038,0.02l-0.048,0.025l-0.026,0.015l-0.037,0.02l-0.046,0.028l-0.035,0.02l-0.035,0.022l-0.034,0.022l-0.034,0.022l-0.033,0.022l-0.034,0.023l-0.041,0.029l-0.032,0.023l-0.031,0.023l-0.032,0.024l-0.039,0.031l-0.03,0.023l-0.03,0.024l-0.037,0.032l-0.029,0.024l-0.037,0.032l-0.035,0.032l-0.027,0.025l-0.027,0.026l-0.034,0.032l-0.026,0.026l-0.033,0.034l-0.032,0.032l-0.025,0.027l-0.03,0.033l-0.025,0.027l-0.03,0.035l-0.029,0.033l-0.028,0.034l-0.028,0.035l-0.022,0.028l-0.027,0.034l-0.026,0.035l-0.026,0.035l-0.025,0.035l-0.025,0.034l-0.019,0.029l-0.024,0.036l-0.028,0.042l-0.022,0.036l-0.018,0.029l-0.022,0.036l-0.024,0.042l-0.021,0.036l-0.02,0.036l-0.019,0.037l-0.019,0.036l-0.021,0.042l-0.018,0.037l-0.018,0.037l-0.017,0.037l-0.017,0.037l-0.018,0.043l-0.016,0.037l-0.016,0.042l-0.015,0.037l-0.014,0.039l-0.015,0.042l-0.013,0.038l-0.015,0.043l-0.013,0.043l-0.012,0.038l-0.011,0.038l-0.012,0.043l-0.012,0.043l-0.009,0.04l-0.01,0.04l-0.01,0.044l-0.009,0.044l-0.008,0.041l-0.008,0.042l-0.008,0.046l-0.006,0.04l-0.007,0.044l-0.006,0.045l-0.005,0.041l-0.005,0.046l-0.004,0.045l-0.004,0.044l-0.003,0.044l-0.002,0.046l-0.002,0.046l-0.002,0.044l-0.001,0.047l0,0.059l0,34.974l0,0.058l0.001,0.046l0.002,0.046l0.002,0.046l0.002,0.045l0.003,0.044l0.004,0.044l0.004,0.046l0.005,0.043l0.005,0.043l0.006,0.045l0.007,0.044l0.006,0.043l0.008,0.041l0.008,0.044l0.008,0.044l0.009,0.042l0.009,0.04l0.01,0.04l0.011,0.046l0.011,0.04l0.011,0.039l0.013,0.045l0.012,0.039l0.012,0.039l0.015,0.043l0.013,0.038l0.015,0.043l0.014,0.038l0.015,0.037l0.016,0.042l0.016,0.038l0.016,0.037l0.019,0.042l0.017,0.037l0.018,0.037l0.02,0.043l0.019,0.036l0.019,0.036l0.019,0.037l0.02,0.036l0.021,0.036l0.021,0.037l0.025,0.041l0.022,0.036l0.018,0.029l0.023,0.036l0.024,0.036l0.029,0.041l0.024,0.035l0.021,0.029l0.026,0.035l0.026,0.035l0.021,0.027l0.028,0.034l0.034,0.042l0.022,0.027l0.023,0.027l0.036,0.041l0.031,0.034l0.018,0.019l0.031,0.033l0.032,0.033l0.033,0.034l0.033,0.033l0.019,0.019l0.035,0.032l0.034,0.032l0.028,0.025l0.037,0.032l0.029,0.025l0.029,0.024l0.038,0.031l0.03,0.024l0.039,0.03l0.032,0.024l0.031,0.023l0.041,0.03l0.023,0.016l0.033,0.023l0.043,0.028l0.043,0.028l0.035,0.023l0.025,0.015l0.035,0.021l0.046,0.027l0.037,0.021l0.026,0.014l0.037,0.02l0.049,0.025l0.038,0.019l0.028,0.014l0.039,0.018l0.04,0.019l0.04,0.018l0.041,0.017l0.041,0.017l0.042,0.017l0.031,0.012l0.043,0.016l0.043,0.016l0.032,0.011l0.044,0.015l0.045,0.014l0.034,0.01l0.046,0.013l0.046,0.013l0.035,0.01l0.035,0.008l0.048,0.012l0.049,0.011l0.036,0.007l0.037,0.008l0.051,0.009l0.038,0.007l0.038,0.006l0.052,0.007l0.053,0.007l0.04,0.005l0.028,0.003l0.054,0.005l0.042,0.004l0.042,0.003l0.056,0.003l0.043,0.002l0.044,0.001l0.045,0.001l0.058,0.001l34.974,0l0.058,-0.001l0.045,-0.001l0.044,-0.001l0.043,-0.002l0.056,-0.003l0.042,-0.003l0.042,-0.004l0.054,-0.005l0.028,-0.003l0.04,-0.005l0.053,-0.007l0.052,-0.007l0.038,-0.006l0.038,-0.007l0.051,-0.009l0.037,-0.008l0.037,-0.007l0.048,-0.011l0.048,-0.012l0.035,-0.008l0.035,-0.01l0.047,-0.013l0.046,-0.013l0.033,-0.01l0.044,-0.014l0.045,-0.015l0.032,-0.011l0.043,-0.016l0.043,-0.016l0.031,-0.012l0.042,-0.017l0.041,-0.017l0.04,-0.017l0.041,-0.018l0.04,-0.019l0.039,-0.018l0.028,-0.014l0.039,-0.019l0.048,-0.025l0.037,-0.02l0.026,-0.014l0.036,-0.021l0.047,-0.027l0.036,-0.022l0.024,-0.015l0.034,-0.021l0.043,-0.029l0.044,-0.029l0.033,-0.022l0.023,-0.016l0.041,-0.03l0.031,-0.023l0.032,-0.024l0.039,-0.03l0.03,-0.024l0.038,-0.031l0.03,-0.025l0.028,-0.024l0.036,-0.031l0.028,-0.026l0.036,-0.033l0.034,-0.032l0.019,-0.018l0.033,-0.033l0.033,-0.034l0.032,-0.033l0.031,-0.033l0.018,-0.019l0.03,-0.034l0.036,-0.041l0.024,-0.027l0.023,-0.028l0.033,-0.041l0.027,-0.033l0.022,-0.028l0.027,-0.036l0.025,-0.034l0.021,-0.029l0.025,-0.036l0.028,-0.04l0.023,-0.035l0.023,-0.036l0.02,-0.031l0.022,-0.036l0.025,-0.041l0.02,-0.035l0.02,-0.036l0.021,-0.037l0.019,-0.037l0.02,-0.036l0.018,-0.038l0.02,-0.04l0.017,-0.037l0.018,-0.038l0.019,-0.042l0.016,-0.037l0.015,-0.038l0.017,-0.042l0.015,-0.037l0.014,-0.038l0.016,-0.043l0.013,-0.039l0.013,-0.041l0.013,-0.038l0.012,-0.041l0.014,-0.047l0.01,-0.038l0.01,-0.039l0.012,-0.045l0.009,-0.04l0.009,-0.04l0.01,-0.044l0.008,-0.045l0.008,-0.042l0.007,-0.04l0.007,-0.044l0.007,-0.044l0.006,-0.045l0.005,-0.043l0.005,-0.044l0.004,-0.045l0.003,-0.042l0.004,-0.046l0.002,-0.046l0.002,-0.045l0.002,-0.045l0.001,-0.046l0,-0.059l0,-34.974l0,-0.06l-0.001,-0.047l-0.002,-0.043l-0.002,-0.045l-0.002,-0.047l-0.004,-0.046l-0.003,-0.042l-0.004,-0.044l-0.005,-0.046l-0.005,-0.042l-0.006,-0.045l-0.007,-0.044l-0.006,-0.042l-0.008,-0.044l-0.008,-0.041l-0.008,-0.041l-0.01,-0.046l-0.009,-0.044l-0.01,-0.04l-0.01,-0.039l-0.011,-0.042l-0.011,-0.042l-0.012,-0.04l-0.012,-0.04l-0.014,-0.042l-0.013,-0.04l-0.013,-0.039l-0.016,-0.043l-0.014,-0.039l-0.015,-0.037l-0.017,-0.042l-0.015,-0.038l-0.018,-0.041l-0.017,-0.038l-0.018,-0.038l-0.017,-0.037l-0.017,-0.035l-0.021,-0.042l-0.02,-0.037l-0.019,-0.037l-0.021,-0.037l-0.02,-0.036l-0.024,-0.041l-0.021,-0.035l-0.018,-0.03l-0.024,-0.036l-0.027,-0.043l-0.024,-0.035l-0.019,-0.028l-0.025,-0.035l-0.025,-0.035l-0.025,-0.035l-0.027,-0.035l-0.027,-0.035l-0.022,-0.027l-0.028,-0.034l-0.028,-0.034l-0.03,-0.035l-0.03,-0.035l-0.023,-0.026l-0.031,-0.033l-0.025,-0.027l-0.032,-0.032l-0.033,-0.034l-0.026,-0.026l-0.033,-0.032l-0.027,-0.025l-0.028,-0.026l-0.036,-0.032l-0.036,-0.032l-0.028,-0.024l-0.038,-0.032l-0.03,-0.024l-0.03,-0.023l-0.039,-0.031l-0.032,-0.024l-0.031,-0.023l-0.032,-0.023l-0.041,-0.029l-0.033,-0.023l-0.035,-0.023l-0.033,-0.022l-0.034,-0.021l-0.034,-0.021l-0.036,-0.021l-0.047,-0.028l-0.036,-0.02l-0.026,-0.015l-0.048,-0.025l-0.037,-0.02l-0.028,-0.014l-0.05,-0.024l-0.028,-0.013l-0.04,-0.019l-0.041,-0.018l-0.04,-0.017l-0.041,-0.017l-0.03,-0.012l-0.043,-0.017l-0.043,-0.016l-0.043,-0.016l-0.045,-0.015l-0.032,-0.011l-0.032,-0.01l-0.058,-0.018l-0.033,-0.009l-0.034,-0.01l-0.048,-0.012l-0.048,-0.012l-0.035,-0.009l-0.036,-0.008l-0.049,-0.01l-0.05,-0.01l-0.038,-0.007l-0.038,-0.007l-0.051,-0.008l-0.039,-0.006l-0.04,-0.005l-0.04,-0.005l-0.054,-0.005l-0.041,-0.005l-0.042,-0.003l-0.055,-0.004l-0.03,-0.002l-0.043,-0.001l-0.057,-0.002l-0.045,-0.001l-0.058,0l-34.974,0Z" style="fill:#ccc;"/><path d="M283.643,48.526l0.096,0.002l0.097,0.003l0.096,0.004l0.095,0.006l0.096,0.006l0.095,0.008l0.094,0.009l0.095,0.01l0.094,0.012l0.093,0.012l0.094,0.014l0.092,0.015l0.093,0.016l0.092,0.017l0.092,0.018l0.091,0.019l0.091,0.021l0.09,0.021l0.09,0.023l0.09,0.024l0.089,0.024l0.089,0.026l0.088,0.027l0.088,0.028l0.087,0.029l0.087,0.03l0.087,0.031l0.086,0.032l0.085,0.033l0.085,0.034l0.084,0.035l0.084,0.036l0.083,0.037l0.083,0.039l0.082,0.039l0.082,0.04l0.081,0.041l0.081,0.041l0.08,0.043l0.079,0.044l0.079,0.045l0.078,0.045l0.078,0.047l0.077,0.047l0.076,0.049l0.076,0.049l0.075,0.05l0.075,0.051l0.073,0.052l0.074,0.053l0.072,0.053l0.072,0.055l0.071,0.055l0.071,0.056l0.07,0.057l0.069,0.058l0.068,0.058l0.068,0.06l0.067,0.06l0.066,0.061l0.066,0.062l0.064,0.062l0.064,0.063l0.064,0.064l0.062,0.065l0.062,0.066l0.061,0.066l0.06,0.067l0.059,0.067l0.059,0.069l0.058,0.069l0.056,0.07l0.057,0.07l0.055,0.071l0.054,0.072l0.054,0.073l0.053,0.073l0.051,0.074l0.051,0.074l0.051,0.076l0.049,0.075l0.048,0.077l0.048,0.077l0.046,0.077l0.046,0.079l0.044,0.078l0.044,0.08l0.043,0.08l0.042,0.08l0.041,0.082l0.04,0.081l0.039,0.082l0.038,0.083l0.037,0.084l0.036,0.083l0.035,0.085l0.034,0.085l0.034,0.085l0.032,0.086l0.031,0.086l0.03,0.087l0.029,0.087l0.028,0.088l0.026,0.089l0.026,0.088l0.025,0.089l0.024,0.09l0.022,0.09l0.022,0.091l0.02,0.091l0.02,0.091l0.018,0.092l0.017,0.092l0.016,0.092l0.015,0.093l0.013,0.093l0.013,0.094l0.011,0.094l0.01,0.094l0.009,0.095l0.008,0.095l0.007,0.095l0.005,0.096l0.005,0.096l0.003,0.096l0.001,0.097l0.001,0.097l0,35l-0.001,0.096l-0.001,0.097l-0.003,0.096l-0.005,0.096l-0.005,0.096l-0.007,0.095l-0.008,0.095l-0.009,0.095l-0.01,0.094l-0.011,0.094l-0.013,0.094l-0.013,0.093l-0.015,0.093l-0.016,0.092l-0.017,0.093l-0.018,0.091l-0.02,0.092l-0.02,0.09l-0.022,0.091l-0.022,0.09l-0.024,0.09l-0.025,0.089l-0.026,0.089l-0.026,0.088l-0.028,0.088l-0.029,0.087l-0.03,0.087l-0.031,0.086l-0.032,0.086l-0.034,0.085l-0.034,0.085l-0.035,0.085l-0.036,0.084l-0.037,0.083l-0.038,0.083l-0.039,0.082l-0.04,0.082l-0.041,0.081l-0.042,0.08l-0.043,0.08l-0.044,0.08l-0.044,0.078l-0.046,0.079l-0.046,0.077l-0.048,0.077l-0.048,0.077l-0.049,0.076l-0.051,0.075l-0.051,0.074l-0.051,0.074l-0.053,0.073l-0.054,0.073l-0.054,0.072l-0.055,0.071l-0.057,0.07l-0.056,0.07l-0.058,0.069l-0.059,0.069l-0.059,0.067l-0.06,0.067l-0.061,0.067l-0.062,0.065l-0.062,0.065l-0.064,0.064l-0.064,0.063l-0.064,0.063l-0.066,0.061l-0.066,0.061l-0.067,0.06l-0.068,0.06l-0.068,0.058l-0.069,0.058l-0.07,0.057l-0.071,0.056l-0.071,0.055l-0.072,0.055l-0.072,0.053l-0.074,0.053l-0.073,0.052l-0.075,0.051l-0.075,0.05l-0.076,0.049l-0.076,0.049l-0.077,0.047l-0.078,0.047l-0.078,0.045l-0.079,0.045l-0.079,0.044l-0.08,0.043l-0.081,0.042l-0.081,0.04l-0.082,0.04l-0.082,0.04l-0.083,0.038l-0.083,0.037l-0.084,0.036l-0.084,0.035l-0.085,0.034l-0.085,0.033l-0.086,0.032l-0.087,0.031l-0.087,0.03l-0.087,0.029l-0.088,0.028l-0.088,0.027l-0.089,0.026l-0.089,0.025l-0.09,0.023l-0.09,0.023l-0.09,0.021l-0.091,0.021l-0.091,0.019l-0.092,0.018l-0.092,0.017l-0.093,0.016l-0.092,0.015l-0.094,0.014l-0.093,0.012l-0.094,0.012l-0.095,0.01l-0.094,0.009l-0.095,0.008l-0.096,0.006l-0.095,0.006l-0.096,0.004l-0.097,0.003l-0.096,0.002l-0.097,0.001l-35,0l-0.097,-0.001l-0.096,-0.002l-0.097,-0.003l-0.096,-0.004l-0.095,-0.006l-0.096,-0.006l-0.095,-0.008l-0.094,-0.009l-0.095,-0.01l-0.094,-0.012l-0.093,-0.012l-0.093,-0.014l-0.093,-0.015l-0.093,-0.016l-0.092,-0.017l-0.092,-0.018l-0.091,-0.019l-0.091,-0.021l-0.09,-0.021l-0.09,-0.023l-0.09,-0.023l-0.089,-0.025l-0.089,-0.026l-0.088,-0.027l-0.088,-0.028l-0.087,-0.029l-0.087,-0.03l-0.087,-0.031l-0.085,-0.032l-0.086,-0.033l-0.085,-0.034l-0.084,-0.035l-0.084,-0.036l-0.083,-0.037l-0.083,-0.038l-0.082,-0.04l-0.082,-0.04l-0.081,-0.04l-0.081,-0.042l-0.08,-0.043l-0.079,-0.044l-0.079,-0.045l-0.078,-0.045l-0.078,-0.047l-0.077,-0.047l-0.076,-0.049l-0.076,-0.049l-0.075,-0.05l-0.075,-0.051l-0.073,-0.052l-0.074,-0.053l-0.072,-0.053l-0.072,-0.055l-0.071,-0.055l-0.071,-0.056l-0.07,-0.057l-0.069,-0.058l-0.068,-0.058l-0.068,-0.06l-0.067,-0.06l-0.066,-0.061l-0.065,-0.061l-0.065,-0.063l-0.064,-0.063l-0.063,-0.064l-0.063,-0.065l-0.062,-0.065l-0.061,-0.067l-0.06,-0.067l-0.059,-0.067l-0.059,-0.069l-0.057,-0.069l-0.057,-0.07l-0.056,-0.07l-0.056,-0.071l-0.054,-0.072l-0.054,-0.073l-0.052,-0.073l-0.052,-0.074l-0.051,-0.074l-0.05,-0.075l-0.05,-0.076l-0.048,-0.077l-0.048,-0.077l-0.046,-0.077l-0.046,-0.079l-0.044,-0.078l-0.044,-0.08l-0.043,-0.08l-0.042,-0.08l-0.041,-0.081l-0.04,-0.082l-0.039,-0.082l-0.038,-0.083l-0.037,-0.083l-0.036,-0.084l-0.035,-0.085l-0.034,-0.085l-0.033,-0.085l-0.033,-0.086l-0.031,-0.086l-0.03,-0.087l-0.029,-0.087l-0.028,-0.088l-0.026,-0.088l-0.026,-0.089l-0.025,-0.089l-0.024,-0.09l-0.022,-0.09l-0.022,-0.091l-0.02,-0.09l-0.019,-0.092l-0.019,-0.091l-0.017,-0.093l-0.016,-0.092l-0.014,-0.093l-0.014,-0.093l-0.013,-0.094l-0.011,-0.094l-0.01,-0.094l-0.009,-0.095l-0.008,-0.095l-0.007,-0.095l-0.005,-0.096l-0.004,-0.096l-0.004,-0.096l-0.001,-0.097l-0.001,-0.096l0,-35l0.001,-0.097l0.001,-0.097l0.004,-0.096l0.004,-0.096l0.005,-0.096l0.007,-0.095l0.008,-0.095l0.009,-0.095l0.01,-0.094l0.011,-0.094l0.013,-0.094l0.014,-0.093l0.014,-0.093l0.016,-0.092l0.017,-0.092l0.019,-0.092l0.019,-0.091l0.02,-0.091l0.022,-0.091l0.022,-0.09l0.024,-0.09l0.025,-0.089l0.026,-0.088l0.026,-0.089l0.028,-0.088l0.029,-0.087l0.03,-0.087l0.031,-0.086l0.033,-0.086l0.033,-0.085l0.034,-0.085l0.035,-0.085l0.036,-0.083l0.037,-0.084l0.038,-0.083l0.039,-0.082l0.04,-0.081l0.041,-0.082l0.042,-0.08l0.043,-0.08l0.044,-0.08l0.044,-0.078l0.046,-0.079l0.046,-0.077l0.048,-0.077l0.048,-0.077l0.05,-0.075l0.05,-0.076l0.051,-0.074l0.052,-0.074l0.052,-0.073l0.054,-0.073l0.054,-0.072l0.056,-0.071l0.056,-0.07l0.057,-0.07l0.057,-0.069l0.059,-0.069l0.059,-0.067l0.06,-0.067l0.061,-0.066l0.062,-0.066l0.063,-0.065l0.063,-0.064l0.064,-0.063l0.065,-0.062l0.065,-0.062l0.066,-0.061l0.067,-0.06l0.068,-0.06l0.068,-0.058l0.069,-0.058l0.07,-0.057l0.071,-0.056l0.071,-0.055l0.072,-0.055l0.072,-0.053l0.074,-0.053l0.073,-0.052l0.075,-0.051l0.075,-0.05l0.076,-0.049l0.076,-0.049l0.077,-0.047l0.078,-0.047l0.078,-0.045l0.079,-0.045l0.079,-0.044l0.08,-0.043l0.081,-0.041l0.081,-0.041l0.082,-0.04l0.082,-0.039l0.083,-0.039l0.083,-0.037l0.084,-0.036l0.084,-0.035l0.085,-0.034l0.086,-0.033l0.085,-0.032l0.087,-0.031l0.087,-0.03l0.087,-0.029l0.088,-0.028l0.088,-0.027l0.089,-0.026l0.089,-0.024l0.09,-0.024l0.09,-0.023l0.09,-0.021l0.091,-0.021l0.091,-0.019l0.092,-0.018l0.092,-0.017l0.093,-0.016l0.093,-0.015l0.093,-0.014l0.093,-0.012l0.094,-0.012l0.095,-0.01l0.094,-0.009l0.095,-0.008l0.096,-0.006l0.095,-0.006l0.096,-0.004l0.097,-0.003l0.096,-0.002l0.097,0l35,0l0.097,0Zm-35.084,4l-0.058,0l-0.045,0.001l-0.057,0.002l-0.043,0.001l-0.03,0.002l-0.055,0.004l-0.042,0.003l-0.041,0.005l-0.054,0.005l-0.04,0.005l-0.04,0.005l-0.039,0.006l-0.051,0.008l-0.038,0.007l-0.038,0.007l-0.05,0.01l-0.049,0.01l-0.036,0.008l-0.036,0.009l-0.047,0.012l-0.047,0.012l-0.034,0.009l-0.034,0.01l-0.058,0.018l-0.033,0.01l-0.032,0.011l-0.044,0.015l-0.043,0.016l-0.043,0.016l-0.042,0.016l-0.03,0.012l-0.043,0.018l-0.04,0.017l-0.04,0.018l-0.04,0.018l-0.028,0.014l-0.05,0.024l-0.027,0.014l-0.038,0.02l-0.049,0.026l-0.026,0.014l-0.036,0.02l-0.045,0.027l-0.036,0.021l-0.035,0.022l-0.034,0.022l-0.034,0.022l-0.033,0.022l-0.033,0.022l-0.042,0.03l-0.033,0.023l-0.031,0.024l-0.031,0.023l-0.038,0.03l-0.031,0.024l-0.03,0.025l-0.037,0.031l-0.029,0.024l-0.037,0.032l-0.035,0.032l-0.027,0.025l-0.027,0.025l-0.035,0.034l-0.025,0.025l-0.032,0.033l-0.033,0.033l-0.025,0.027l-0.031,0.033l-0.024,0.027l-0.029,0.034l-0.03,0.035l-0.028,0.034l-0.027,0.033l-0.023,0.029l-0.027,0.034l-0.026,0.034l-0.026,0.036l-0.025,0.035l-0.025,0.035l-0.02,0.029l-0.023,0.035l-0.027,0.042l-0.023,0.035l-0.018,0.03l-0.022,0.036l-0.024,0.041l-0.021,0.037l-0.02,0.036l-0.019,0.037l-0.02,0.037l-0.02,0.041l-0.019,0.037l-0.017,0.037l-0.017,0.037l-0.017,0.038l-0.018,0.041l-0.015,0.037l-0.017,0.043l-0.015,0.037l-0.014,0.039l-0.016,0.043l-0.012,0.037l-0.015,0.044l-0.013,0.042l-0.012,0.037l-0.011,0.039l-0.012,0.044l-0.011,0.042l-0.011,0.041l-0.009,0.04l-0.009,0.042l-0.01,0.046l-0.008,0.04l-0.008,0.041l-0.008,0.047l-0.006,0.041l-0.007,0.043l-0.006,0.043l-0.005,0.044l-0.005,0.046l-0.004,0.044l-0.004,0.044l-0.003,0.044l-0.002,0.045l-0.002,0.045l-0.002,0.047l-0.001,0.046l0,0.059l0,34.974l0,0.058l0.001,0.046l0.002,0.047l0.002,0.045l0.002,0.045l0.003,0.044l0.004,0.044l0.004,0.045l0.005,0.044l0.005,0.045l0.006,0.043l0.007,0.043l0.007,0.044l0.007,0.042l0.008,0.043l0.008,0.043l0.01,0.044l0.008,0.039l0.01,0.039l0.012,0.047l0.01,0.039l0.011,0.04l0.013,0.047l0.012,0.037l0.012,0.039l0.015,0.043l0.012,0.038l0.016,0.043l0.014,0.038l0.015,0.037l0.017,0.044l0.015,0.036l0.016,0.037l0.019,0.042l0.017,0.037l0.017,0.036l0.021,0.044l0.018,0.036l0.02,0.036l0.019,0.037l0.02,0.036l0.021,0.037l0.021,0.035l0.025,0.042l0.022,0.036l0.019,0.03l0.022,0.035l0.024,0.034l0.028,0.042l0.025,0.036l0.021,0.029l0.026,0.035l0.026,0.035l0.021,0.027l0.029,0.035l0.032,0.04l0.023,0.028l0.024,0.027l0.035,0.04l0.031,0.035l0.018,0.019l0.031,0.033l0.033,0.034l0.032,0.033l0.033,0.032l0.02,0.02l0.034,0.032l0.035,0.032l0.027,0.025l0.037,0.032l0.029,0.025l0.028,0.023l0.039,0.032l0.031,0.024l0.038,0.03l0.031,0.023l0.031,0.024l0.042,0.03l0.024,0.017l0.032,0.022l0.043,0.028l0.043,0.028l0.035,0.022l0.025,0.016l0.036,0.021l0.045,0.027l0.036,0.02l0.026,0.015l0.038,0.02l0.049,0.025l0.038,0.019l0.028,0.014l0.039,0.019l0.04,0.018l0.04,0.018l0.04,0.017l0.043,0.018l0.042,0.017l0.03,0.011l0.043,0.016l0.043,0.016l0.032,0.011l0.044,0.015l0.045,0.014l0.033,0.01l0.047,0.013l0.046,0.013l0.035,0.01l0.035,0.008l0.048,0.012l0.049,0.011l0.036,0.007l0.037,0.008l0.051,0.009l0.038,0.007l0.038,0.006l0.052,0.007l0.053,0.007l0.04,0.005l0.028,0.003l0.054,0.005l0.042,0.004l0.042,0.003l0.056,0.003l0.043,0.002l0.044,0.001l0.045,0.001l0.058,0.001l34.974,0l0.058,-0.001l0.045,-0.001l0.044,-0.001l0.043,-0.002l0.056,-0.003l0.042,-0.003l0.042,-0.004l0.054,-0.005l0.028,-0.003l0.04,-0.005l0.053,-0.007l0.052,-0.007l0.038,-0.006l0.038,-0.007l0.051,-0.009l0.037,-0.008l0.037,-0.007l0.048,-0.011l0.048,-0.012l0.035,-0.008l0.035,-0.01l0.047,-0.013l0.046,-0.013l0.033,-0.01l0.045,-0.014l0.044,-0.015l0.032,-0.011l0.043,-0.016l0.043,-0.016l0.031,-0.012l0.042,-0.017l0.041,-0.017l0.041,-0.017l0.04,-0.018l0.04,-0.018l0.039,-0.019l0.028,-0.014l0.039,-0.019l0.048,-0.025l0.037,-0.02l0.026,-0.014l0.037,-0.021l0.046,-0.027l0.036,-0.022l0.024,-0.015l0.034,-0.021l0.044,-0.029l0.044,-0.029l0.032,-0.022l0.023,-0.016l0.041,-0.03l0.031,-0.023l0.032,-0.024l0.039,-0.03l0.03,-0.024l0.038,-0.031l0.03,-0.025l0.028,-0.024l0.036,-0.031l0.028,-0.026l0.036,-0.033l0.034,-0.032l0.019,-0.018l0.033,-0.033l0.033,-0.034l0.032,-0.033l0.031,-0.033l0.018,-0.019l0.03,-0.034l0.036,-0.041l0.024,-0.027l0.023,-0.028l0.033,-0.041l0.027,-0.033l0.022,-0.028l0.027,-0.036l0.025,-0.034l0.021,-0.029l0.025,-0.036l0.028,-0.04l0.023,-0.035l0.023,-0.036l0.02,-0.031l0.022,-0.036l0.025,-0.041l0.02,-0.035l0.02,-0.036l0.021,-0.037l0.019,-0.037l0.02,-0.036l0.018,-0.038l0.02,-0.04l0.017,-0.037l0.018,-0.038l0.019,-0.042l0.016,-0.037l0.016,-0.038l0.016,-0.042l0.015,-0.037l0.014,-0.038l0.016,-0.043l0.013,-0.039l0.013,-0.041l0.013,-0.038l0.012,-0.041l0.014,-0.047l0.01,-0.038l0.011,-0.039l0.011,-0.045l0.009,-0.04l0.01,-0.04l0.009,-0.044l0.009,-0.045l0.007,-0.042l0.007,-0.04l0.007,-0.044l0.007,-0.044l0.006,-0.045l0.005,-0.043l0.005,-0.044l0.004,-0.045l0.004,-0.042l0.003,-0.046l0.002,-0.046l0.002,-0.045l0.002,-0.045l0.001,-0.046l0,-0.059l0,-34.974l0,-0.06l-0.001,-0.047l-0.002,-0.043l-0.002,-0.045l-0.002,-0.047l-0.003,-0.046l-0.004,-0.042l-0.004,-0.044l-0.005,-0.046l-0.005,-0.042l-0.006,-0.045l-0.007,-0.044l-0.006,-0.042l-0.008,-0.044l-0.007,-0.041l-0.009,-0.041l-0.009,-0.046l-0.01,-0.044l-0.01,-0.04l-0.01,-0.039l-0.011,-0.042l-0.011,-0.042l-0.012,-0.04l-0.012,-0.04l-0.014,-0.042l-0.013,-0.04l-0.013,-0.039l-0.016,-0.043l-0.014,-0.039l-0.015,-0.037l-0.016,-0.042l-0.016,-0.038l-0.018,-0.041l-0.017,-0.038l-0.018,-0.038l-0.017,-0.037l-0.017,-0.035l-0.021,-0.042l-0.02,-0.037l-0.019,-0.037l-0.021,-0.037l-0.02,-0.036l-0.024,-0.041l-0.021,-0.035l-0.018,-0.03l-0.024,-0.036l-0.027,-0.043l-0.024,-0.035l-0.019,-0.028l-0.025,-0.035l-0.025,-0.035l-0.025,-0.035l-0.027,-0.035l-0.027,-0.035l-0.022,-0.027l-0.028,-0.034l-0.028,-0.034l-0.03,-0.035l-0.03,-0.035l-0.023,-0.026l-0.031,-0.033l-0.025,-0.027l-0.032,-0.032l-0.033,-0.034l-0.026,-0.026l-0.033,-0.032l-0.027,-0.025l-0.028,-0.026l-0.036,-0.032l-0.036,-0.032l-0.028,-0.024l-0.038,-0.032l-0.03,-0.024l-0.03,-0.023l-0.039,-0.031l-0.032,-0.024l-0.031,-0.023l-0.032,-0.023l-0.041,-0.029l-0.033,-0.023l-0.034,-0.023l-0.034,-0.022l-0.034,-0.021l-0.034,-0.021l-0.036,-0.021l-0.046,-0.028l-0.037,-0.02l-0.026,-0.015l-0.048,-0.025l-0.037,-0.02l-0.028,-0.014l-0.05,-0.024l-0.028,-0.014l-0.04,-0.018l-0.04,-0.018l-0.041,-0.017l-0.041,-0.017l-0.03,-0.012l-0.043,-0.017l-0.043,-0.016l-0.043,-0.016l-0.044,-0.015l-0.032,-0.011l-0.033,-0.01l-0.058,-0.018l-0.033,-0.009l-0.034,-0.01l-0.048,-0.012l-0.048,-0.012l-0.035,-0.009l-0.036,-0.008l-0.049,-0.01l-0.05,-0.01l-0.038,-0.007l-0.037,-0.007l-0.052,-0.008l-0.039,-0.006l-0.04,-0.005l-0.04,-0.005l-0.054,-0.005l-0.041,-0.005l-0.042,-0.003l-0.055,-0.004l-0.03,-0.002l-0.043,-0.001l-0.057,-0.002l-0.045,-0.001l-0.058,0l-34.974,0Z" style="fill:#ccc;"/></g></svg>