<?xml version="1.0" encoding="UTF-8" standalone="no"?><!DOCTYPE svg PUBLIC "-//W3C//DTD SVG 1.1//EN" "http://www.w3.org/Graphics/SVG/1.1/DTD/svg11.dtd"><svg width="100%" height="100%" viewBox="0 0 370 421" version="1.1" xmlns="http://www.w3.org/2000/svg" xmlns:xlink="http://www.w3.org/1999/xlink" xml:space="preserve" xmlns:serif="http://www.serif.com/" style="fill-rule:evenodd;clip-rule:evenodd;stroke-linecap:round;stroke-linejoin:round;stroke-miterlimit:2;"><rect id="info-graphic-4" x="0" y="0.274" width="370" height="420" style="fill:none;"/><g><ellipse cx="183.983" cy="353.123" rx="75.371" ry="13.676" style="fill:#ccc;fill-opacity:0.75;"/><g><g id="girltato"><path d="M151.966,311.045c5.914,14.51 6.445,27.59 0,38.819" style="fill:none;stroke:#ac8639;stroke-width:10px;"/><path d="M218.239,311.172c3.974,12.685 4.185,25.612 0,38.819" style="fill:none;stroke:#ac8639;stroke-width:10px;"/><path d="M293.915,243.966c-14.51,5.914 -31.615,5.051 -42.33,-5.088" style="fill:none;stroke:#ac8639;stroke-width:10px;"/><path id="potato" d="M180.853,99.991c62.372,0 84.384,49.208 84.384,109.817c0,60.61 -17.198,109.818 -84.384,109.818c-67.185,0 -84.383,-49.208 -84.383,-109.818c0,-60.609 22.012,-109.817 84.383,-109.817Z" style="fill:#edbe5e;"/><clipPath id="_clip1"><path d="M180.853,99.991c62.372,0 84.384,49.208 84.384,109.817c0,60.61 -17.198,109.818 -84.384,109.818c-67.185,0 -84.383,-49.208 -84.383,-109.818c0,-60.609 22.012,-109.817 84.383,-109.817Z"/></clipPath><g clip-path="url(#_clip1)"><path id="shadow" d="M180.853,99.991c-112.586,51.244 -52.791,215.908 0,219.635c-67.185,0 -84.383,-49.208 -84.383,-109.818c0,-60.609 22.012,-109.817 84.383,-109.817Z" style="fill:#cda24c;fill-opacity:0.25098;"/><ellipse id="eye_1" cx="169.386" cy="185.5" rx="9.111" ry="9.085" style="fill:#302a1c;"/><ellipse id="eye_2" cx="235.941" cy="185.5" rx="9.111" ry="9.085" style="fill:#302a1c;"/><g id="eyebrows"><path d="M174.344,166.835c-3.672,-2.719 -10.147,-2.341 -13.253,0" style="fill:none;stroke:#ac8639;stroke-opacity:0.5;stroke-width:4.29px;"/><path d="M241.433,166.835c-3.672,-2.719 -10.147,-2.341 -13.253,0" style="fill:none;stroke:#ac8639;stroke-opacity:0.5;stroke-width:4.29px;"/></g><g id="marks"><path d="M122.679,218.538c3.672,-2.719 10.147,-2.341 13.253,0" style="fill:none;stroke:#ac8639;stroke-opacity:0.5;stroke-width:4.29px;"/><path d="M228.314,247.958c3.672,-2.719 10.147,-2.341 13.253,0" style="fill:none;stroke:#ac8639;stroke-opacity:0.5;stroke-width:4.29px;"/><path d="M152.82,268.203c3.672,-2.719 10.147,-2.342 13.253,0" style="fill:none;stroke:#ac8639;stroke-opacity:0.5;stroke-width:4.29px;"/><path d="M188.868,296.761c3.672,-2.719 10.148,-2.342 13.253,0" style="fill:none;stroke:#ac8639;stroke-opacity:0.5;stroke-width:4.29px;"/></g></g><path d="M181.218,99.992l0.364,0.002l0.363,0.002l0.363,0.004l0.361,0.005l0.36,0.007l0.36,0.007l0.358,0.008l0.358,0.01l0.357,0.01l0.356,0.012l0.354,0.013l0.354,0.014l0.353,0.015l0.353,0.016l0.351,0.017l0.35,0.019l0.35,0.019l0.348,0.021l0.348,0.021l0.346,0.023l0.346,0.024l0.345,0.025l0.344,0.026l0.343,0.027l0.342,0.028l0.342,0.029l0.34,0.031l0.339,0.031l0.339,0.033l0.338,0.033l0.336,0.035l0.336,0.035l0.335,0.037l0.334,0.038l0.333,0.039l0.333,0.04l0.331,0.041l0.331,0.042l0.329,0.043l0.329,0.045l0.328,0.045l0.327,0.046l0.326,0.048l0.325,0.048l0.324,0.049l0.324,0.051l0.322,0.052l0.322,0.052l0.32,0.054l0.32,0.055l0.319,0.055l0.318,0.057l0.318,0.058l0.316,0.059l0.315,0.06l0.315,0.061l0.314,0.062l0.312,0.063l0.312,0.064l0.311,0.065l0.311,0.066l0.309,0.067l0.308,0.068l0.308,0.069l0.307,0.07l0.306,0.072l0.305,0.072l0.304,0.073l0.303,0.074l0.302,0.075l0.302,0.076l0.3,0.078l0.3,0.078l0.299,0.079l0.298,0.08l0.297,0.082l0.297,0.082l0.295,0.083l0.295,0.084l0.294,0.085l0.292,0.087l0.292,0.087l0.292,0.088l0.29,0.089l0.289,0.09l0.289,0.091l0.288,0.092l0.287,0.093l0.286,0.094l0.285,0.095l0.284,0.096l0.284,0.097l0.283,0.098l0.281,0.099l0.281,0.1l0.281,0.101l0.279,0.102l0.278,0.102l0.278,0.104l0.277,0.105l0.276,0.105l0.275,0.107l0.274,0.107l0.273,0.109l0.273,0.109l0.272,0.111l0.27,0.111l0.271,0.112l0.269,0.113l0.268,0.114l0.268,0.116l0.266,0.116l0.266,0.117l0.265,0.117l0.265,0.119l0.263,0.12l0.263,0.121l0.261,0.121l0.261,0.123l0.26,0.123l0.26,0.125l0.258,0.125l0.258,0.126l0.257,0.127l0.256,0.128l0.255,0.129l0.254,0.13l0.254,0.131l0.252,0.131l0.252,0.133l0.251,0.134l0.25,0.134l0.25,0.135l0.249,0.136l0.247,0.138l0.247,0.138l0.247,0.138l0.245,0.14l0.245,0.141l0.243,0.141l0.243,0.143l0.242,0.143l0.242,0.144l0.24,0.146l0.24,0.145l0.239,0.147l0.238,0.148l0.237,0.149l0.237,0.149l0.236,0.151l0.235,0.151l0.234,0.152l0.233,0.153l0.233,0.154l0.231,0.154l0.231,0.156l0.23,0.156l0.23,0.158l0.228,0.158l0.228,0.159l0.227,0.16l0.226,0.16l0.226,0.162l0.224,0.162l0.224,0.164l0.223,0.164l0.222,0.165l0.222,0.165l0.22,0.167l0.22,0.168l0.219,0.168l0.219,0.169l0.217,0.17l0.217,0.171l0.216,0.171l0.215,0.173l0.214,0.173l0.214,0.174l0.213,0.175l0.212,0.176l0.211,0.177l0.211,0.177l0.21,0.178l0.209,0.179l0.208,0.18l0.207,0.181l0.207,0.181l0.206,0.182l0.205,0.183l0.204,0.184l0.204,0.185l0.203,0.186l0.202,0.186l0.201,0.187l0.201,0.188l0.199,0.189l0.199,0.189l0.199,0.19l0.197,0.191l0.197,0.192l0.196,0.193l0.195,0.193l0.195,0.194l0.193,0.195l0.193,0.196l0.192,0.197l0.192,0.197l0.191,0.198l0.189,0.199l0.19,0.2l0.188,0.2l0.188,0.201l0.187,0.202l0.186,0.203l0.185,0.203l0.185,0.205l0.184,0.205l0.183,0.205l0.183,0.207l0.181,0.207l0.181,0.208l0.181,0.209l0.179,0.209l0.179,0.211l0.178,0.211l0.177,0.211l0.177,0.213l0.175,0.213l0.175,0.214l0.175,0.215l0.173,0.215l0.173,0.216l0.172,0.217l0.172,0.218l0.17,0.218l0.17,0.219l0.169,0.22l0.169,0.221l0.168,0.221l0.167,0.222l0.166,0.223l0.166,0.223l0.164,0.224l0.164,0.225l0.164,0.226l0.163,0.226l0.161,0.227l0.162,0.228l0.16,0.228l0.16,0.229l0.159,0.23l0.158,0.231l0.158,0.231l0.157,0.232l0.156,0.232l0.156,0.234l0.155,0.234l0.154,0.234l0.153,0.236l0.153,0.236l0.152,0.236l0.151,0.238l0.15,0.238l0.15,0.239l0.149,0.239l0.149,0.24l0.147,0.241l0.147,0.242l0.147,0.242l0.145,0.243l0.145,0.243l0.144,0.244l0.144,0.245l0.143,0.245l0.142,0.247l0.141,0.246l0.141,0.248l0.14,0.248l0.139,0.249l0.139,0.249l0.138,0.25l0.137,0.251l0.136,0.251l0.136,0.252l0.135,0.253l0.135,0.253l0.134,0.254l0.133,0.255l0.132,0.255l0.132,0.256l0.131,0.257l0.13,0.257l0.13,0.258l0.129,0.258l0.128,0.259l0.128,0.26l0.127,0.26l0.126,0.261l0.125,0.261l0.125,0.262l0.125,0.263l0.123,0.264l0.123,0.264l0.122,0.264l0.122,0.265l0.121,0.266l0.12,0.267l0.119,0.267l0.119,0.267l0.118,0.269l0.118,0.268l0.117,0.27l0.116,0.27l0.115,0.27l0.115,0.272l0.114,0.271l0.114,0.273l0.113,0.273l0.112,0.273l0.111,0.275l0.111,0.274l0.11,0.276l0.11,0.276l0.109,0.276l0.108,0.277l0.108,0.278l0.107,0.278l0.106,0.279l0.105,0.279l0.105,0.28l0.105,0.281l0.103,0.281l0.103,0.281l0.103,0.283l0.101,0.282l0.101,0.284l0.101,0.283l0.1,0.285l0.099,0.285l0.098,0.285l0.098,0.286l0.097,0.287l0.097,0.287l0.096,0.288l0.095,0.288l0.094,0.289l0.094,0.289l0.094,0.29l0.092,0.291l0.093,0.291l0.091,0.291l0.091,0.292l0.09,0.293l0.089,0.293l0.089,0.293l0.089,0.294l0.087,0.295l0.087,0.295l0.087,0.296l0.085,0.296l0.085,0.297l0.085,0.297l0.084,0.298l0.083,0.298l0.083,0.299l0.082,0.299l0.081,0.3l0.081,0.3l0.08,0.301l0.079,0.301l0.079,0.302l0.078,0.302l0.078,0.303l0.077,0.303l0.077,0.304l0.075,0.304l0.076,0.305l0.074,0.305l0.074,0.306l0.073,0.306l0.073,0.307l0.072,0.307l0.072,0.308l0.071,0.308l0.07,0.309l0.07,0.309l0.069,0.309l0.068,0.31l0.068,0.311l0.067,0.311l0.067,0.311l0.066,0.312l0.066,0.312l0.064,0.313l0.065,0.313l0.063,0.314l0.063,0.314l0.063,0.315l0.062,0.315l0.061,0.315l0.061,0.316l0.06,0.317l0.059,0.317l0.059,0.317l0.058,0.318l0.058,0.318l0.057,0.319l0.057,0.319l0.056,0.319l0.055,0.32l0.055,0.32l0.054,0.321l0.054,0.322l0.053,0.321l0.052,0.322l0.052,0.323l0.051,0.323l0.051,0.323l0.05,0.324l0.05,0.324l0.049,0.325l0.048,0.325l0.048,0.325l0.047,0.326l0.047,0.326l0.046,0.327l0.045,0.327l0.045,0.327l0.045,0.328l0.043,0.328l0.044,0.329l0.042,0.329l0.042,0.329l0.042,0.33l0.041,0.331l0.04,0.33l0.04,0.331l0.039,0.332l0.039,0.331l0.038,0.332l0.037,0.333l0.037,0.333l0.037,0.333l0.036,0.334l0.035,0.334l0.035,0.334l0.034,0.335l0.034,0.335l0.033,0.336l0.032,0.336l0.032,0.336l0.032,0.337l0.031,0.337l0.03,0.337l0.03,0.338l0.029,0.338l0.029,0.338l0.028,0.339l0.027,0.339l0.027,0.339l0.027,0.34l0.026,0.34l0.025,0.341l0.025,0.341l0.024,0.341l0.024,0.341l0.023,0.342l0.023,0.342l0.022,0.343l0.022,0.343l0.021,0.343l0.02,0.343l0.02,0.344l0.02,0.344l0.019,0.345l0.018,0.345l0.018,0.345l0.017,0.345l0.017,0.346l0.017,0.346l0.015,0.346l0.016,0.347l0.014,0.347l0.014,0.347l0.014,0.348l0.013,0.348l0.013,0.348l0.012,0.349l0.011,0.349l0.011,0.349l0.011,0.349l0.01,0.35l0.009,0.35l0.009,0.35l0.009,0.351l0.008,0.351l0.007,0.351l0.007,0.351l0.006,0.352l0.006,0.352l0.005,0.352l0.005,0.353l0.005,0.353l0.003,0.353l0.004,0.353l0.002,0.354l0.003,0.354l0.001,0.354l0.002,0.355l0,0.354l0.001,0.355l0,0.355l-0.001,0.355l-0.001,0.355l-0.001,0.354l-0.002,0.354l-0.002,0.353l-0.003,0.354l-0.003,0.353l-0.003,0.353l-0.004,0.352l-0.004,0.353l-0.005,0.352l-0.005,0.352l-0.006,0.351l-0.005,0.351l-0.007,0.351l-0.006,0.351l-0.007,0.35l-0.008,0.35l-0.008,0.35l-0.008,0.349l-0.009,0.349l-0.009,0.349l-0.01,0.349l-0.01,0.348l-0.011,0.348l-0.011,0.347l-0.011,0.348l-0.012,0.347l-0.012,0.346l-0.013,0.347l-0.013,0.346l-0.013,0.346l-0.014,0.345l-0.015,0.345l-0.015,0.345l-0.015,0.345l-0.016,0.344l-0.016,0.344l-0.017,0.343l-0.017,0.343l-0.018,0.343l-0.018,0.343l-0.018,0.342l-0.019,0.342l-0.02,0.341l-0.019,0.341l-0.021,0.341l-0.021,0.341l-0.021,0.34l-0.022,0.34l-0.022,0.339l-0.022,0.339l-0.024,0.339l-0.023,0.338l-0.024,0.338l-0.025,0.338l-0.025,0.337l-0.026,0.337l-0.026,0.337l-0.026,0.336l-0.027,0.336l-0.028,0.336l-0.027,0.335l-0.029,0.335l-0.029,0.334l-0.029,0.334l-0.03,0.334l-0.031,0.333l-0.03,0.333l-0.032,0.332l-0.032,0.333l-0.032,0.331l-0.033,0.332l-0.033,0.331l-0.034,0.33l-0.035,0.331l-0.035,0.329l-0.035,0.33l-0.036,0.329l-0.036,0.329l-0.037,0.328l-0.038,0.328l-0.038,0.327l-0.038,0.327l-0.039,0.327l-0.04,0.326l-0.04,0.326l-0.04,0.325l-0.042,0.325l-0.041,0.325l-0.042,0.324l-0.043,0.324l-0.043,0.323l-0.044,0.323l-0.044,0.323l-0.045,0.322l-0.045,0.321l-0.046,0.322l-0.047,0.32l-0.047,0.321l-0.047,0.32l-0.048,0.319l-0.049,0.319l-0.049,0.319l-0.05,0.318l-0.05,0.318l-0.051,0.317l-0.051,0.317l-0.052,0.316l-0.052,0.316l-0.053,0.316l-0.054,0.315l-0.054,0.315l-0.055,0.314l-0.055,0.314l-0.056,0.313l-0.056,0.313l-0.057,0.312l-0.058,0.312l-0.058,0.311l-0.058,0.311l-0.06,0.311l-0.059,0.31l-0.061,0.309l-0.061,0.309l-0.061,0.309l-0.062,0.308l-0.063,0.308l-0.063,0.307l-0.064,0.307l-0.064,0.306l-0.065,0.305l-0.066,0.306l-0.066,0.304l-0.067,0.305l-0.067,0.303l-0.068,0.304l-0.069,0.303l-0.069,0.302l-0.07,0.302l-0.07,0.301l-0.071,0.301l-0.072,0.3l-0.072,0.3l-0.073,0.299l-0.073,0.299l-0.074,0.298l-0.075,0.298l-0.075,0.297l-0.076,0.297l-0.076,0.296l-0.078,0.296l-0.077,0.295l-0.079,0.294l-0.078,0.295l-0.08,0.293l-0.08,0.293l-0.081,0.293l-0.081,0.292l-0.082,0.291l-0.083,0.291l-0.083,0.291l-0.084,0.289l-0.085,0.29l-0.085,0.289l-0.086,0.288l-0.087,0.288l-0.087,0.287l-0.087,0.286l-0.089,0.286l-0.089,0.286l-0.09,0.285l-0.09,0.284l-0.091,0.284l-0.092,0.284l-0.092,0.282l-0.093,0.282l-0.094,0.282l-0.094,0.281l-0.095,0.281l-0.095,0.28l-0.097,0.279l-0.097,0.279l-0.097,0.278l-0.098,0.278l-0.099,0.277l-0.1,0.276l-0.1,0.276l-0.101,0.275l-0.102,0.275l-0.102,0.274l-0.103,0.274l-0.103,0.273l-0.105,0.272l-0.105,0.272l-0.105,0.271l-0.107,0.271l-0.107,0.27l-0.107,0.27l-0.109,0.268l-0.109,0.269l-0.11,0.267l-0.11,0.267l-0.111,0.267l-0.112,0.265l-0.113,0.266l-0.113,0.264l-0.114,0.264l-0.114,0.264l-0.116,0.262l-0.116,0.263l-0.116,0.261l-0.118,0.261l-0.118,0.26l-0.119,0.26l-0.119,0.259l-0.121,0.258l-0.121,0.258l-0.121,0.257l-0.123,0.257l-0.123,0.256l-0.124,0.255l-0.124,0.254l-0.126,0.254l-0.126,0.254l-0.127,0.252l-0.127,0.252l-0.128,0.252l-0.129,0.251l-0.13,0.25l-0.13,0.249l-0.131,0.249l-0.132,0.248l-0.133,0.247l-0.133,0.247l-0.134,0.246l-0.135,0.246l-0.136,0.245l-0.136,0.244l-0.137,0.243l-0.138,0.243l-0.138,0.242l-0.14,0.242l-0.14,0.241l-0.141,0.24l-0.141,0.239l-0.143,0.239l-0.143,0.238l-0.143,0.238l-0.145,0.236l-0.145,0.236l-0.147,0.236l-0.146,0.234l-0.148,0.234l-0.148,0.234l-0.15,0.232l-0.15,0.232l-0.15,0.231l-0.152,0.231l-0.152,0.23l-0.153,0.229l-0.154,0.228l-0.155,0.228l-0.155,0.227l-0.156,0.226l-0.157,0.226l-0.158,0.225l-0.158,0.224l-0.16,0.223l-0.16,0.223l-0.161,0.222l-0.161,0.221l-0.163,0.221l-0.163,0.219l-0.164,0.22l-0.165,0.218l-0.166,0.218l-0.166,0.216l-0.168,0.217l-0.168,0.215l-0.168,0.215l-0.17,0.214l-0.171,0.213l-0.171,0.213l-0.172,0.211l-0.173,0.211l-0.174,0.211l-0.174,0.209l-0.176,0.209l-0.176,0.208l-0.177,0.207l-0.178,0.207l-0.178,0.205l-0.18,0.205l-0.18,0.205l-0.181,0.203l-0.182,0.203l-0.183,0.202l-0.184,0.201l-0.184,0.2l-0.186,0.2l-0.186,0.199l-0.187,0.198l-0.188,0.197l-0.188,0.197l-0.19,0.195l-0.19,0.195l-0.191,0.195l-0.192,0.193l-0.193,0.193l-0.194,0.192l-0.194,0.191l-0.196,0.19l-0.196,0.189l-0.197,0.189l-0.198,0.188l-0.199,0.187l-0.2,0.186l-0.2,0.186l-0.202,0.184l-0.202,0.184l-0.203,0.183l-0.204,0.183l-0.205,0.181l-0.206,0.181l-0.207,0.18l-0.207,0.179l-0.209,0.178l-0.209,0.177l-0.21,0.177l-0.211,0.176l-0.212,0.175l-0.213,0.174l-0.213,0.173l-0.215,0.172l-0.216,0.172l-0.216,0.171l-0.217,0.17l-0.218,0.169l-0.219,0.168l-0.22,0.168l-0.221,0.166l-0.222,0.166l-0.222,0.165l-0.224,0.164l-0.224,0.164l-0.225,0.162l-0.226,0.161l-0.228,0.161l-0.228,0.16l-0.229,0.159l-0.229,0.158l-0.231,0.157l-0.232,0.157l-0.232,0.155l-0.234,0.155l-0.234,0.154l-0.235,0.153l-0.237,0.152l-0.237,0.151l-0.238,0.151l-0.239,0.149l-0.24,0.149l-0.241,0.147l-0.241,0.147l-0.243,0.146l-0.244,0.145l-0.244,0.145l-0.246,0.143l-0.246,0.142l-0.248,0.142l-0.248,0.141l-0.249,0.139l-0.251,0.139l-0.251,0.138l-0.252,0.137l-0.253,0.137l-0.254,0.135l-0.255,0.134l-0.256,0.134l-0.256,0.132l-0.258,0.132l-0.259,0.131l-0.26,0.13l-0.26,0.129l-0.262,0.128l-0.263,0.127l-0.263,0.126l-0.265,0.125l-0.265,0.125l-0.267,0.123l-0.267,0.123l-0.268,0.121l-0.27,0.121l-0.27,0.12l-0.271,0.118l-0.273,0.118l-0.273,0.117l-0.274,0.116l-0.275,0.115l-0.276,0.115l-0.278,0.113l-0.278,0.112l-0.279,0.111l-0.28,0.111l-0.281,0.109l-0.282,0.109l-0.283,0.107l-0.284,0.107l-0.286,0.105l-0.286,0.105l-0.287,0.104l-0.288,0.102l-0.289,0.102l-0.29,0.101l-0.291,0.1l-0.292,0.099l-0.293,0.098l-0.294,0.096l-0.295,0.096l-0.297,0.095l-0.297,0.095l-0.298,0.093l-0.299,0.092l-0.3,0.091l-0.301,0.09l-0.303,0.089l-0.303,0.088l-0.304,0.087l-0.305,0.086l-0.307,0.086l-0.307,0.084l-0.308,0.083l-0.31,0.082l-0.31,0.082l-0.312,0.08l-0.312,0.079l-0.314,0.078l-0.314,0.077l-0.316,0.077l-0.317,0.075l-0.317,0.074l-0.319,0.073l-0.32,0.072l-0.321,0.071l-0.321,0.071l-0.323,0.069l-0.324,0.068l-0.325,0.067l-0.326,0.066l-0.328,0.065l-0.328,0.064l-0.329,0.063l-0.33,0.062l-0.332,0.061l-0.332,0.06l-0.334,0.059l-0.334,0.058l-0.336,0.056l-0.336,0.056l-0.338,0.055l-0.339,0.054l-0.34,0.052l-0.341,0.052l-0.342,0.05l-0.343,0.05l-0.344,0.048l-0.346,0.048l-0.346,0.046l-0.347,0.045l-0.349,0.045l-0.349,0.043l-0.351,0.042l-0.352,0.041l-0.353,0.04l-0.354,0.039l-0.355,0.038l-0.356,0.036l-0.357,0.036l-0.359,0.035l-0.359,0.033l-0.361,0.033l-0.361,0.031l-0.363,0.031l-0.364,0.029l-0.365,0.028l-0.366,0.027l-0.367,0.026l-0.368,0.025l-0.37,0.024l-0.37,0.023l-0.372,0.021l-0.373,0.021l-0.374,0.019l-0.375,0.019l-0.376,0.017l-0.377,0.016l-0.378,0.015l-0.38,0.014l-0.38,0.013l-0.382,0.011l-0.383,0.011l-0.384,0.01l-0.385,0.008l-0.386,0.007l-0.388,0.006l-0.388,0.006l-0.39,0.003l-0.391,0.003l-0.392,0.002l-0.393,0.001l-0.393,-0.001l-0.392,-0.002l-0.391,-0.003l-0.389,-0.003l-0.389,-0.006l-0.387,-0.006l-0.387,-0.007l-0.385,-0.008l-0.384,-0.01l-0.383,-0.011l-0.381,-0.011l-0.381,-0.013l-0.379,-0.014l-0.379,-0.015l-0.377,-0.016l-0.376,-0.017l-0.375,-0.019l-0.374,-0.019l-0.373,-0.021l-0.371,-0.021l-0.371,-0.023l-0.369,-0.024l-0.368,-0.025l-0.368,-0.026l-0.366,-0.027l-0.365,-0.028l-0.364,-0.029l-0.362,-0.031l-0.362,-0.031l-0.361,-0.033l-0.359,-0.033l-0.358,-0.035l-0.358,-0.036l-0.356,-0.036l-0.355,-0.038l-0.354,-0.039l-0.353,-0.04l-0.351,-0.041l-0.351,-0.042l-0.35,-0.043l-0.348,-0.045l-0.348,-0.045l-0.346,-0.046l-0.345,-0.048l-0.345,-0.048l-0.343,-0.05l-0.342,-0.05l-0.341,-0.052l-0.34,-0.052l-0.338,-0.054l-0.338,-0.055l-0.337,-0.056l-0.336,-0.056l-0.334,-0.058l-0.334,-0.059l-0.332,-0.06l-0.331,-0.061l-0.331,-0.062l-0.329,-0.063l-0.328,-0.064l-0.327,-0.065l-0.326,-0.066l-0.325,-0.067l-0.324,-0.068l-0.323,-0.069l-0.322,-0.071l-0.321,-0.071l-0.32,-0.072l-0.318,-0.073l-0.318,-0.074l-0.317,-0.075l-0.315,-0.077l-0.315,-0.077l-0.313,-0.078l-0.313,-0.079l-0.311,-0.08l-0.311,-0.082l-0.309,-0.082l-0.309,-0.083l-0.307,-0.084l-0.306,-0.086l-0.306,-0.086l-0.304,-0.087l-0.303,-0.088l-0.302,-0.089l-0.301,-0.09l-0.301,-0.091l-0.299,-0.092l-0.298,-0.093l-0.297,-0.095l-0.296,-0.095l-0.295,-0.096l-0.294,-0.096l-0.294,-0.098l-0.292,-0.099l-0.291,-0.1l-0.29,-0.101l-0.289,-0.102l-0.288,-0.102l-0.287,-0.104l-0.286,-0.105l-0.285,-0.105l-0.284,-0.107l-0.283,-0.107l-0.282,-0.109l-0.282,-0.109l-0.28,-0.111l-0.279,-0.111l-0.278,-0.112l-0.277,-0.113l-0.276,-0.115l-0.276,-0.115l-0.274,-0.116l-0.273,-0.117l-0.272,-0.118l-0.272,-0.118l-0.27,-0.12l-0.269,-0.121l-0.269,-0.121l-0.267,-0.123l-0.267,-0.123l-0.265,-0.125l-0.265,-0.125l-0.263,-0.126l-0.263,-0.127l-0.261,-0.128l-0.261,-0.129l-0.26,-0.13l-0.258,-0.131l-0.258,-0.132l-0.257,-0.132l-0.256,-0.134l-0.255,-0.134l-0.254,-0.135l-0.253,-0.137l-0.252,-0.137l-0.251,-0.138l-0.25,-0.139l-0.25,-0.139l-0.248,-0.141l-0.247,-0.142l-0.247,-0.142l-0.245,-0.143l-0.245,-0.145l-0.243,-0.145l-0.243,-0.146l-0.242,-0.147l-0.241,-0.147l-0.24,-0.149l-0.239,-0.149l-0.238,-0.151l-0.237,-0.151l-0.236,-0.152l-0.235,-0.153l-0.235,-0.154l-0.233,-0.155l-0.233,-0.155l-0.232,-0.157l-0.23,-0.157l-0.23,-0.158l-0.229,-0.159l-0.228,-0.16l-0.227,-0.161l-0.226,-0.161l-0.226,-0.162l-0.224,-0.164l-0.224,-0.164l-0.222,-0.165l-0.222,-0.166l-0.221,-0.166l-0.219,-0.168l-0.219,-0.168l-0.219,-0.169l-0.217,-0.17l-0.216,-0.171l-0.216,-0.172l-0.214,-0.172l-0.214,-0.173l-0.213,-0.174l-0.212,-0.175l-0.211,-0.176l-0.21,-0.177l-0.209,-0.177l-0.208,-0.178l-0.208,-0.179l-0.207,-0.18l-0.205,-0.181l-0.205,-0.181l-0.204,-0.183l-0.203,-0.183l-0.203,-0.184l-0.201,-0.184l-0.201,-0.186l-0.199,-0.186l-0.199,-0.187l-0.198,-0.188l-0.197,-0.189l-0.197,-0.189l-0.195,-0.19l-0.195,-0.191l-0.194,-0.192l-0.192,-0.193l-0.192,-0.193l-0.192,-0.195l-0.19,-0.195l-0.189,-0.195l-0.189,-0.197l-0.188,-0.197l-0.187,-0.198l-0.186,-0.199l-0.185,-0.2l-0.185,-0.2l-0.183,-0.201l-0.183,-0.202l-0.182,-0.203l-0.181,-0.203l-0.181,-0.205l-0.179,-0.205l-0.179,-0.205l-0.178,-0.207l-0.177,-0.207l-0.176,-0.208l-0.175,-0.209l-0.175,-0.209l-0.174,-0.211l-0.173,-0.211l-0.172,-0.211l-0.171,-0.213l-0.17,-0.213l-0.17,-0.214l-0.169,-0.215l-0.168,-0.215l-0.167,-0.217l-0.167,-0.216l-0.166,-0.218l-0.164,-0.218l-0.164,-0.22l-0.164,-0.219l-0.162,-0.221l-0.162,-0.221l-0.161,-0.222l-0.16,-0.223l-0.159,-0.223l-0.159,-0.224l-0.158,-0.225l-0.156,-0.226l-0.157,-0.226l-0.155,-0.227l-0.155,-0.228l-0.153,-0.228l-0.154,-0.229l-0.152,-0.23l-0.151,-0.231l-0.151,-0.231l-0.15,-0.232l-0.149,-0.232l-0.149,-0.234l-0.147,-0.234l-0.147,-0.234l-0.146,-0.236l-0.146,-0.236l-0.144,-0.236l-0.144,-0.238l-0.143,-0.238l-0.142,-0.239l-0.142,-0.239l-0.141,-0.24l-0.14,-0.241l-0.139,-0.242l-0.139,-0.242l-0.138,-0.243l-0.137,-0.243l-0.136,-0.244l-0.135,-0.245l-0.135,-0.246l-0.134,-0.246l-0.134,-0.247l-0.132,-0.247l-0.132,-0.248l-0.131,-0.249l-0.131,-0.249l-0.129,-0.25l-0.129,-0.251l-0.129,-0.252l-0.127,-0.252l-0.127,-0.252l-0.126,-0.254l-0.125,-0.254l-0.125,-0.254l-0.124,-0.255l-0.123,-0.256l-0.122,-0.257l-0.122,-0.257l-0.121,-0.258l-0.12,-0.258l-0.12,-0.259l-0.119,-0.26l-0.118,-0.26l-0.117,-0.261l-0.117,-0.261l-0.116,-0.263l-0.115,-0.262l-0.115,-0.264l-0.114,-0.264l-0.113,-0.264l-0.113,-0.266l-0.112,-0.265l-0.111,-0.267l-0.11,-0.267l-0.11,-0.267l-0.109,-0.269l-0.108,-0.268l-0.108,-0.27l-0.107,-0.27l-0.106,-0.271l-0.106,-0.271l-0.105,-0.272l-0.104,-0.272l-0.104,-0.273l-0.103,-0.274l-0.102,-0.274l-0.102,-0.275l-0.101,-0.275l-0.1,-0.276l-0.099,-0.276l-0.099,-0.277l-0.099,-0.278l-0.097,-0.278l-0.097,-0.279l-0.096,-0.279l-0.096,-0.28l-0.095,-0.281l-0.094,-0.281l-0.094,-0.282l-0.093,-0.282l-0.092,-0.282l-0.092,-0.284l-0.091,-0.284l-0.09,-0.284l-0.09,-0.285l-0.089,-0.286l-0.088,-0.286l-0.088,-0.286l-0.087,-0.287l-0.087,-0.288l-0.085,-0.288l-0.086,-0.289l-0.084,-0.29l-0.084,-0.289l-0.083,-0.291l-0.083,-0.291l-0.082,-0.291l-0.082,-0.292l-0.08,-0.293l-0.081,-0.293l-0.079,-0.293l-0.079,-0.295l-0.078,-0.294l-0.078,-0.295l-0.077,-0.296l-0.077,-0.296l-0.076,-0.297l-0.075,-0.297l-0.074,-0.298l-0.074,-0.298l-0.074,-0.299l-0.073,-0.299l-0.072,-0.3l-0.071,-0.3l-0.071,-0.301l-0.071,-0.301l-0.069,-0.302l-0.07,-0.302l-0.068,-0.303l-0.068,-0.304l-0.068,-0.303l-0.066,-0.305l-0.067,-0.304l-0.065,-0.306l-0.065,-0.305l-0.065,-0.306l-0.063,-0.307l-0.064,-0.307l-0.062,-0.308l-0.063,-0.308l-0.061,-0.309l-0.061,-0.309l-0.06,-0.309l-0.06,-0.31l-0.059,-0.311l-0.059,-0.311l-0.058,-0.311l-0.058,-0.312l-0.057,-0.312l-0.056,-0.313l-0.056,-0.313l-0.055,-0.314l-0.055,-0.314l-0.054,-0.315l-0.053,-0.315l-0.053,-0.316l-0.053,-0.316l-0.052,-0.316l-0.051,-0.317l-0.051,-0.317l-0.05,-0.318l-0.05,-0.318l-0.049,-0.319l-0.048,-0.319l-0.048,-0.319l-0.048,-0.32l-0.047,-0.321l-0.046,-0.32l-0.046,-0.322l-0.046,-0.321l-0.044,-0.322l-0.045,-0.323l-0.043,-0.323l-0.044,-0.323l-0.042,-0.324l-0.042,-0.324l-0.042,-0.325l-0.041,-0.325l-0.041,-0.325l-0.04,-0.326l-0.039,-0.326l-0.039,-0.327l-0.039,-0.327l-0.038,-0.327l-0.037,-0.328l-0.037,-0.328l-0.037,-0.329l-0.036,-0.329l-0.035,-0.33l-0.035,-0.329l-0.034,-0.331l-0.034,-0.33l-0.034,-0.331l-0.033,-0.332l-0.032,-0.331l-0.032,-0.333l-0.031,-0.332l-0.031,-0.333l-0.03,-0.333l-0.03,-0.334l-0.03,-0.334l-0.029,-0.334l-0.028,-0.335l-0.028,-0.335l-0.028,-0.336l-0.027,-0.336l-0.026,-0.336l-0.026,-0.337l-0.026,-0.337l-0.025,-0.337l-0.024,-0.338l-0.024,-0.338l-0.024,-0.338l-0.023,-0.339l-0.023,-0.339l-0.022,-0.339l-0.022,-0.34l-0.021,-0.34l-0.021,-0.341l-0.02,-0.341l-0.02,-0.341l-0.02,-0.341l-0.019,-0.342l-0.018,-0.342l-0.018,-0.343l-0.018,-0.343l-0.017,-0.343l-0.017,-0.343l-0.016,-0.344l-0.016,-0.344l-0.015,-0.345l-0.015,-0.345l-0.014,-0.345l-0.014,-0.345l-0.014,-0.346l-0.013,-0.346l-0.013,-0.347l-0.012,-0.346l-0.012,-0.347l-0.011,-0.348l-0.011,-0.347l-0.011,-0.348l-0.01,-0.348l-0.009,-0.349l-0.01,-0.349l-0.008,-0.349l-0.009,-0.349l-0.008,-0.35l-0.007,-0.35l-0.007,-0.35l-0.007,-0.351l-0.006,-0.351l-0.006,-0.351l-0.006,-0.351l-0.005,-0.352l-0.004,-0.352l-0.004,-0.353l-0.004,-0.352l-0.004,-0.353l-0.003,-0.353l-0.002,-0.354l-0.002,-0.353l-0.002,-0.354l-0.002,-0.354l-0.001,-0.355l0,-0.355l0,-0.355l0,-0.355l0.001,-0.354l0.001,-0.355l0.002,-0.354l0.002,-0.354l0.003,-0.354l0.003,-0.353l0.004,-0.353l0.004,-0.353l0.005,-0.353l0.005,-0.352l0.006,-0.352l0.006,-0.352l0.007,-0.351l0.008,-0.351l0.008,-0.351l0.008,-0.351l0.009,-0.35l0.009,-0.35l0.01,-0.35l0.011,-0.349l0.011,-0.349l0.012,-0.349l0.012,-0.349l0.012,-0.348l0.013,-0.348l0.014,-0.348l0.014,-0.347l0.015,-0.347l0.015,-0.347l0.016,-0.346l0.016,-0.346l0.017,-0.346l0.017,-0.345l0.018,-0.345l0.018,-0.345l0.019,-0.345l0.02,-0.344l0.02,-0.344l0.02,-0.343l0.022,-0.343l0.021,-0.343l0.022,-0.343l0.023,-0.342l0.023,-0.342l0.024,-0.341l0.024,-0.341l0.025,-0.341l0.026,-0.341l0.025,-0.34l0.027,-0.34l0.027,-0.339l0.028,-0.339l0.028,-0.339l0.028,-0.338l0.03,-0.338l0.029,-0.338l0.031,-0.337l0.031,-0.337l0.031,-0.337l0.032,-0.336l0.033,-0.336l0.033,-0.336l0.033,-0.335l0.034,-0.335l0.035,-0.334l0.036,-0.334l0.035,-0.334l0.037,-0.333l0.037,-0.333l0.037,-0.333l0.039,-0.332l0.038,-0.331l0.039,-0.332l0.04,-0.331l0.041,-0.33l0.041,-0.331l0.041,-0.33l0.042,-0.329l0.043,-0.329l0.043,-0.329l0.044,-0.328l0.044,-0.328l0.045,-0.327l0.046,-0.327l0.046,-0.327l0.046,-0.326l0.048,-0.326l0.047,-0.325l0.049,-0.325l0.049,-0.325l0.049,-0.324l0.05,-0.324l0.051,-0.323l0.051,-0.323l0.052,-0.323l0.053,-0.322l0.053,-0.321l0.053,-0.322l0.054,-0.321l0.055,-0.32l0.056,-0.32l0.055,-0.319l0.057,-0.319l0.057,-0.319l0.058,-0.318l0.058,-0.318l0.059,-0.317l0.06,-0.317l0.06,-0.317l0.06,-0.316l0.062,-0.315l0.061,-0.315l0.063,-0.315l0.063,-0.314l0.064,-0.314l0.064,-0.313l0.065,-0.313l0.065,-0.312l0.066,-0.312l0.067,-0.311l0.067,-0.311l0.068,-0.311l0.069,-0.31l0.069,-0.309l0.069,-0.309l0.071,-0.309l0.071,-0.308l0.071,-0.308l0.072,-0.307l0.073,-0.307l0.073,-0.306l0.074,-0.306l0.075,-0.305l0.075,-0.305l0.076,-0.304l0.076,-0.304l0.077,-0.303l0.078,-0.303l0.078,-0.302l0.079,-0.302l0.08,-0.301l0.08,-0.301l0.08,-0.3l0.082,-0.3l0.082,-0.299l0.082,-0.299l0.084,-0.298l0.083,-0.298l0.085,-0.297l0.085,-0.297l0.086,-0.296l0.086,-0.296l0.087,-0.295l0.088,-0.295l0.088,-0.294l0.089,-0.293l0.089,-0.293l0.091,-0.293l0.09,-0.292l0.092,-0.291l0.092,-0.291l0.093,-0.291l0.093,-0.29l0.094,-0.289l0.095,-0.289l0.095,-0.288l0.096,-0.288l0.096,-0.287l0.097,-0.287l0.098,-0.286l0.099,-0.285l0.099,-0.285l0.1,-0.285l0.1,-0.283l0.101,-0.284l0.102,-0.282l0.102,-0.283l0.103,-0.281l0.104,-0.281l0.104,-0.281l0.105,-0.28l0.106,-0.279l0.106,-0.279l0.107,-0.278l0.107,-0.278l0.109,-0.277l0.108,-0.276l0.11,-0.276l0.11,-0.276l0.111,-0.274l0.112,-0.275l0.112,-0.273l0.113,-0.273l0.113,-0.273l0.114,-0.271l0.115,-0.272l0.116,-0.27l0.116,-0.27l0.117,-0.27l0.117,-0.268l0.118,-0.269l0.119,-0.267l0.12,-0.267l0.12,-0.267l0.121,-0.266l0.121,-0.265l0.122,-0.264l0.123,-0.264l0.124,-0.264l0.124,-0.263l0.125,-0.262l0.125,-0.261l0.127,-0.261l0.127,-0.26l0.127,-0.26l0.129,-0.259l0.129,-0.258l0.129,-0.258l0.131,-0.257l0.131,-0.257l0.131,-0.256l0.133,-0.255l0.133,-0.255l0.134,-0.254l0.134,-0.253l0.135,-0.253l0.136,-0.252l0.137,-0.251l0.137,-0.251l0.138,-0.25l0.138,-0.249l0.14,-0.249l0.14,-0.248l0.14,-0.248l0.142,-0.246l0.142,-0.247l0.143,-0.245l0.143,-0.245l0.144,-0.244l0.145,-0.243l0.146,-0.243l0.146,-0.242l0.147,-0.242l0.148,-0.241l0.148,-0.24l0.149,-0.239l0.15,-0.239l0.151,-0.238l0.151,-0.238l0.152,-0.236l0.152,-0.236l0.154,-0.236l0.154,-0.234l0.155,-0.234l0.155,-0.234l0.156,-0.232l0.157,-0.232l0.158,-0.231l0.158,-0.231l0.159,-0.23l0.16,-0.229l0.161,-0.228l0.161,-0.228l0.162,-0.227l0.162,-0.226l0.164,-0.226l0.164,-0.225l0.165,-0.224l0.165,-0.223l0.167,-0.223l0.167,-0.222l0.167,-0.221l0.169,-0.221l0.169,-0.22l0.17,-0.219l0.171,-0.218l0.171,-0.218l0.172,-0.217l0.173,-0.216l0.174,-0.215l0.174,-0.215l0.175,-0.214l0.176,-0.213l0.176,-0.213l0.178,-0.211l0.178,-0.211l0.178,-0.211l0.18,-0.209l0.18,-0.209l0.181,-0.208l0.182,-0.207l0.182,-0.207l0.183,-0.205l0.184,-0.205l0.185,-0.205l0.185,-0.203l0.187,-0.203l0.187,-0.202l0.187,-0.201l0.189,-0.2l0.189,-0.2l0.19,-0.199l0.19,-0.198l0.192,-0.197l0.192,-0.197l0.193,-0.196l0.194,-0.195l0.194,-0.194l0.195,-0.193l0.196,-0.193l0.197,-0.192l0.198,-0.191l0.198,-0.19l0.199,-0.189l0.2,-0.189l0.2,-0.188l0.201,-0.187l0.203,-0.186l0.202,-0.186l0.204,-0.185l0.204,-0.184l0.205,-0.183l0.206,-0.182l0.207,-0.181l0.208,-0.181l0.208,-0.18l0.209,-0.179l0.209,-0.178l0.211,-0.177l0.211,-0.177l0.212,-0.176l0.213,-0.175l0.214,-0.174l0.214,-0.173l0.215,-0.173l0.216,-0.171l0.217,-0.171l0.218,-0.17l0.218,-0.169l0.219,-0.168l0.22,-0.168l0.221,-0.167l0.221,-0.165l0.222,-0.165l0.223,-0.164l0.224,-0.164l0.225,-0.162l0.225,-0.162l0.226,-0.16l0.227,-0.16l0.228,-0.159l0.229,-0.158l0.229,-0.158l0.23,-0.156l0.231,-0.156l0.232,-0.154l0.232,-0.154l0.234,-0.153l0.234,-0.152l0.235,-0.151l0.235,-0.151l0.237,-0.149l0.237,-0.149l0.238,-0.148l0.239,-0.147l0.24,-0.145l0.241,-0.146l0.241,-0.144l0.242,-0.143l0.243,-0.143l0.244,-0.141l0.244,-0.141l0.246,-0.14l0.246,-0.138l0.247,-0.138l0.248,-0.138l0.248,-0.136l0.25,-0.135l0.25,-0.134l0.251,-0.134l0.252,-0.133l0.253,-0.131l0.253,-0.131l0.255,-0.13l0.255,-0.129l0.256,-0.128l0.257,-0.127l0.257,-0.126l0.259,-0.125l0.259,-0.125l0.26,-0.123l0.261,-0.123l0.262,-0.121l0.262,-0.121l0.264,-0.12l0.264,-0.119l0.265,-0.117l0.266,-0.117l0.267,-0.116l0.267,-0.116l0.269,-0.114l0.269,-0.113l0.27,-0.112l0.271,-0.111l0.272,-0.111l0.272,-0.109l0.273,-0.109l0.275,-0.107l0.275,-0.107l0.276,-0.105l0.276,-0.105l0.278,-0.104l0.279,-0.102l0.279,-0.102l0.28,-0.101l0.281,-0.1l0.282,-0.099l0.282,-0.098l0.284,-0.097l0.284,-0.096l0.286,-0.095l0.286,-0.094l0.287,-0.093l0.287,-0.092l0.289,-0.091l0.289,-0.09l0.291,-0.089l0.291,-0.088l0.292,-0.087l0.293,-0.087l0.294,-0.085l0.294,-0.084l0.296,-0.083l0.296,-0.082l0.297,-0.082l0.298,-0.08l0.299,-0.079l0.3,-0.078l0.301,-0.078l0.301,-0.076l0.302,-0.075l0.304,-0.074l0.304,-0.073l0.305,-0.072l0.306,-0.072l0.306,-0.07l0.308,-0.069l0.308,-0.068l0.31,-0.067l0.31,-0.066l0.311,-0.065l0.312,-0.064l0.313,-0.063l0.313,-0.062l0.315,-0.061l0.315,-0.06l0.317,-0.059l0.317,-0.058l0.318,-0.057l0.319,-0.055l0.32,-0.055l0.321,-0.054l0.321,-0.052l0.323,-0.052l0.323,-0.051l0.324,-0.049l0.326,-0.048l0.326,-0.048l0.327,-0.046l0.327,-0.045l0.329,-0.045l0.33,-0.043l0.33,-0.042l0.332,-0.041l0.332,-0.04l0.333,-0.039l0.334,-0.038l0.335,-0.037l0.336,-0.035l0.337,-0.035l0.337,-0.033l0.339,-0.033l0.339,-0.031l0.341,-0.031l0.341,-0.029l0.342,-0.028l0.343,-0.027l0.344,-0.026l0.345,-0.025l0.346,-0.024l0.347,-0.023l0.347,-0.021l0.349,-0.021l0.349,-0.019l0.351,-0.019l0.351,-0.017l0.352,-0.016l0.353,-0.015l0.354,-0.014l0.355,-0.013l0.356,-0.012l0.356,-0.01l0.358,-0.01l0.359,-0.008l0.359,-0.007l0.36,-0.007l0.362,-0.005l0.362,-0.004l0.363,-0.002l0.364,-0.002l0.365,-0.001l0.365,0.001Zm-0.713,4.962l-0.348,0.002l-0.349,0.003l-0.349,0.004l-0.344,0.005l-0.344,0.006l-0.345,0.007l-0.345,0.008l-0.341,0.008l-0.339,0.011l-0.342,0.011l-0.337,0.012l-0.337,0.013l-0.338,0.015l-0.338,0.015l-0.334,0.017l-0.332,0.017l-0.335,0.019l-0.334,0.02l-0.333,0.02l-0.328,0.022l-0.328,0.022l-0.326,0.024l-0.329,0.025l-0.329,0.026l-0.323,0.026l-0.326,0.028l-0.325,0.029l-0.321,0.03l-0.323,0.031l-0.322,0.032l-0.318,0.032l-0.316,0.034l-0.32,0.035l-0.319,0.036l-0.313,0.037l-0.317,0.038l-0.315,0.039l-0.311,0.04l-0.314,0.041l-0.312,0.042l-0.308,0.043l-0.311,0.044l-0.31,0.045l-0.309,0.046l-0.304,0.046l-0.303,0.047l-0.31,0.05l-0.305,0.05l-0.3,0.05l-0.3,0.051l-0.302,0.053l-0.304,0.055l-0.297,0.054l-0.296,0.055l-0.302,0.057l-0.297,0.057l-0.293,0.058l-0.296,0.06l-0.291,0.06l-0.293,0.061l-0.297,0.063l-0.288,0.063l-0.291,0.064l-0.29,0.065l-0.286,0.066l-0.288,0.067l-0.287,0.068l-0.286,0.069l-0.286,0.07l-0.285,0.07l-0.283,0.072l-0.282,0.072l-0.282,0.074l-0.281,0.074l-0.277,0.075l-0.278,0.076l-0.278,0.077l-0.278,0.078l-0.28,0.08l-0.272,0.079l-0.273,0.081l-0.275,0.081l-0.269,0.082l-0.275,0.085l-0.271,0.084l-0.27,0.085l-0.269,0.086l-0.269,0.087l-0.267,0.088l-0.263,0.088l-0.269,0.091l-0.265,0.09l-0.264,0.092l-0.262,0.092l-0.263,0.093l-0.261,0.094l-0.26,0.095l-0.263,0.097l-0.256,0.095l-0.257,0.098l-0.261,0.099l-0.256,0.099l-0.251,0.099l-0.255,0.101l-0.256,0.103l-0.254,0.103l-0.251,0.103l-0.255,0.106l-0.25,0.105l-0.245,0.104l-0.253,0.109l-0.247,0.108l-0.246,0.108l-0.246,0.109l-0.246,0.111l-0.247,0.112l-0.243,0.112l-0.243,0.113l-0.241,0.113l-0.244,0.116l-0.241,0.115l-0.239,0.116l-0.238,0.117l-0.238,0.118l-0.24,0.12l-0.236,0.119l-0.235,0.12l-0.234,0.121l-0.237,0.123l-0.233,0.123l-0.231,0.123l-0.235,0.126l-0.231,0.125l-0.23,0.126l-0.23,0.128l-0.229,0.127l-0.227,0.129l-0.23,0.13l-0.225,0.13l-0.224,0.13l-0.228,0.134l-0.224,0.132l-0.222,0.133l-0.224,0.135l-0.224,0.136l-0.22,0.135l-0.22,0.137l-0.218,0.136l-0.22,0.14l-0.22,0.14l-0.214,0.137l-0.219,0.143l-0.218,0.143l-0.213,0.141l-0.216,0.144l-0.212,0.143l-0.212,0.144l-0.215,0.147l-0.212,0.147l-0.209,0.146l-0.209,0.147l-0.211,0.15l-0.21,0.15l-0.207,0.15l-0.205,0.15l-0.207,0.152l-0.207,0.154l-0.207,0.155l-0.203,0.153l-0.202,0.153l-0.204,0.158l-0.201,0.155l-0.201,0.158l-0.202,0.158l-0.199,0.159l-0.201,0.16l-0.197,0.16l-0.198,0.162l-0.198,0.162l-0.197,0.164l-0.195,0.162l-0.193,0.163l-0.198,0.168l-0.192,0.164l-0.192,0.166l-0.194,0.17l-0.191,0.167l-0.189,0.168l-0.193,0.171l-0.19,0.172l-0.187,0.169l-0.186,0.17l-0.188,0.174l-0.188,0.174l-0.187,0.175l-0.186,0.176l-0.182,0.173l-0.185,0.178l-0.184,0.178l-0.18,0.175l-0.182,0.18l-0.182,0.18l-0.182,0.181l-0.18,0.182l-0.179,0.181l-0.179,0.183l-0.176,0.182l-0.178,0.185l-0.177,0.185l-0.174,0.184l-0.176,0.187l-0.176,0.188l-0.174,0.188l-0.173,0.188l-0.172,0.189l-0.172,0.19l-0.169,0.189l-0.172,0.193l-0.171,0.194l-0.168,0.191l-0.169,0.195l-0.166,0.192l-0.168,0.196l-0.168,0.198l-0.164,0.195l-0.167,0.199l-0.165,0.198l-0.163,0.198l-0.163,0.199l-0.163,0.201l-0.162,0.201l-0.161,0.201l-0.161,0.203l-0.16,0.203l-0.159,0.204l-0.159,0.205l-0.158,0.205l-0.157,0.206l-0.158,0.208l-0.156,0.208l-0.154,0.205l-0.154,0.209l-0.156,0.211l-0.153,0.211l-0.153,0.211l-0.153,0.213l-0.152,0.212l-0.149,0.211l-0.151,0.215l-0.15,0.215l-0.149,0.215l-0.15,0.219l-0.148,0.216l-0.144,0.213l-0.148,0.22l-0.146,0.22l-0.145,0.219l-0.145,0.221l-0.144,0.22l-0.143,0.222l-0.143,0.223l-0.143,0.225l-0.141,0.222l-0.139,0.222l-0.14,0.225l-0.141,0.228l-0.14,0.228l-0.139,0.228l-0.136,0.225l-0.136,0.228l-0.138,0.232l-0.135,0.228l-0.135,0.23l-0.135,0.233l-0.135,0.233l-0.132,0.231l-0.132,0.233l-0.133,0.234l-0.133,0.237l-0.13,0.234l-0.129,0.236l-0.13,0.237l-0.129,0.236l-0.128,0.238l-0.129,0.242l-0.127,0.239l-0.125,0.237l-0.125,0.24l-0.127,0.244l-0.125,0.242l-0.123,0.241l-0.124,0.246l-0.123,0.244l-0.122,0.243l-0.121,0.246l-0.121,0.246l-0.121,0.247l-0.119,0.246l-0.119,0.248l-0.119,0.25l-0.118,0.25l-0.116,0.248l-0.117,0.251l-0.116,0.251l-0.115,0.252l-0.116,0.254l-0.113,0.251l-0.114,0.254l-0.114,0.256l-0.111,0.253l-0.112,0.256l-0.112,0.258l-0.11,0.256l-0.11,0.257l-0.109,0.258l-0.109,0.259l-0.108,0.259l-0.107,0.259l-0.107,0.261l-0.106,0.261l-0.106,0.263l-0.105,0.262l-0.104,0.263l-0.105,0.266l-0.103,0.263l-0.101,0.263l-0.103,0.266l-0.102,0.268l-0.101,0.267l-0.1,0.266l-0.1,0.269l-0.098,0.267l-0.099,0.269l-0.098,0.271l-0.097,0.269l-0.097,0.272l-0.095,0.271l-0.096,0.272l-0.095,0.273l-0.094,0.274l-0.094,0.273l-0.093,0.274l-0.092,0.274l-0.092,0.277l-0.092,0.278l-0.09,0.276l-0.09,0.275l-0.09,0.28l-0.089,0.279l-0.087,0.276l-0.088,0.281l-0.088,0.282l-0.086,0.278l-0.085,0.281l-0.087,0.285l-0.084,0.282l-0.084,0.282l-0.084,0.283l-0.083,0.285l-0.082,0.285l-0.082,0.284l-0.081,0.285l-0.081,0.288l-0.08,0.288l-0.079,0.285l-0.079,0.288l-0.079,0.289l-0.077,0.289l-0.078,0.29l-0.076,0.289l-0.076,0.292l-0.076,0.291l-0.074,0.29l-0.074,0.292l-0.074,0.295l-0.073,0.294l-0.072,0.292l-0.072,0.294l-0.072,0.297l-0.071,0.295l-0.07,0.294l-0.069,0.297l-0.069,0.296l-0.069,0.298l-0.068,0.299l-0.067,0.299l-0.066,0.297l-0.066,0.299l-0.066,0.302l-0.065,0.3l-0.065,0.3l-0.063,0.301l-0.064,0.303l-0.063,0.303l-0.062,0.302l-0.061,0.304l-0.061,0.303l-0.061,0.306l-0.06,0.306l-0.059,0.303l-0.058,0.305l-0.059,0.308l-0.057,0.306l-0.057,0.307l-0.057,0.308l-0.056,0.308l-0.055,0.31l-0.055,0.309l-0.054,0.31l-0.054,0.309l-0.053,0.31l-0.053,0.313l-0.052,0.311l-0.051,0.311l-0.051,0.313l-0.05,0.313l-0.05,0.313l-0.049,0.314l-0.049,0.314l-0.048,0.316l-0.048,0.315l-0.046,0.313l-0.046,0.317l-0.047,0.318l-0.045,0.316l-0.045,0.317l-0.044,0.318l-0.044,0.319l-0.043,0.318l-0.042,0.318l-0.042,0.321l-0.042,0.319l-0.04,0.32l-0.041,0.322l-0.04,0.32l-0.039,0.322l-0.039,0.323l-0.038,0.321l-0.038,0.324l-0.037,0.323l-0.036,0.323l-0.036,0.325l-0.036,0.324l-0.035,0.326l-0.034,0.324l-0.034,0.326l-0.033,0.326l-0.033,0.328l-0.032,0.326l-0.032,0.327l-0.031,0.328l-0.031,0.327l-0.03,0.328l-0.029,0.33l-0.029,0.33l-0.029,0.329l-0.028,0.331l-0.028,0.331l-0.026,0.328l-0.026,0.332l-0.026,0.332l-0.026,0.331l-0.025,0.333l-0.024,0.333l-0.024,0.333l-0.023,0.332l-0.022,0.334l-0.023,0.335l-0.021,0.334l-0.021,0.336l-0.021,0.335l-0.02,0.334l-0.02,0.337l-0.019,0.335l-0.018,0.336l-0.018,0.339l-0.018,0.338l-0.016,0.335l-0.017,0.338l-0.016,0.341l-0.015,0.337l-0.015,0.338l-0.014,0.34l-0.014,0.34l-0.014,0.34l-0.012,0.34l-0.013,0.341l-0.012,0.341l-0.011,0.34l-0.011,0.342l-0.01,0.343l-0.01,0.342l-0.009,0.342l-0.009,0.343l-0.008,0.343l-0.008,0.344l-0.007,0.345l-0.007,0.342l-0.006,0.345l-0.006,0.345l-0.005,0.344l-0.004,0.346l-0.005,0.347l-0.004,0.345l-0.003,0.346l-0.003,0.347l-0.002,0.346l-0.001,0.347l-0.002,0.347l0,0.348l-0.001,0.35l0,0.348l0.001,0.348l0.001,0.349l0.002,0.35l0.001,0.348l0.002,0.349l0.003,0.347l0.003,0.346l0.003,0.349l0.004,0.348l0.004,0.345l0.005,0.345l0.005,0.346l0.005,0.347l0.006,0.344l0.006,0.346l0.006,0.343l0.015,0.69l0.008,0.342l0.008,0.345l0.008,0.342l0.01,0.342l0.009,0.343l0.01,0.343l0.01,0.34l0.011,0.341l0.011,0.342l0.012,0.342l0.012,0.339l0.012,0.339l0.013,0.341l0.013,0.339l0.014,0.338l0.014,0.34l0.015,0.337l0.015,0.337l0.016,0.339l0.016,0.338l0.016,0.335l0.017,0.336l0.017,0.337l0.018,0.335l0.018,0.337l0.018,0.335l0.019,0.334l0.02,0.333l0.02,0.334l0.02,0.335l0.021,0.333l0.021,0.332l0.022,0.332l0.022,0.332l0.023,0.331l0.023,0.333l0.024,0.33l0.024,0.329l0.024,0.331l0.025,0.33l0.026,0.329l0.025,0.329l0.027,0.328l0.027,0.328l0.027,0.327l0.028,0.328l0.028,0.327l0.029,0.326l0.029,0.326l0.03,0.325l0.03,0.323l0.031,0.327l0.031,0.325l0.031,0.322l0.033,0.326l0.032,0.323l0.033,0.321l0.034,0.322l0.034,0.322l0.034,0.321l0.035,0.32l0.036,0.321l0.036,0.322l0.036,0.318l0.037,0.318l0.038,0.32l0.038,0.319l0.038,0.317l0.039,0.315l0.04,0.318l0.04,0.319l0.04,0.315l0.041,0.314l0.042,0.315l0.042,0.315l0.043,0.315l0.043,0.313l0.043,0.312l0.044,0.314l0.045,0.313l0.045,0.312l0.046,0.31l0.046,0.31l0.047,0.312l0.047,0.31l0.048,0.31l0.048,0.308l0.048,0.308l0.05,0.309l0.049,0.306l0.051,0.306l0.051,0.308l0.051,0.307l0.052,0.305l0.052,0.303l0.054,0.306l0.053,0.304l0.054,0.303l0.055,0.303l0.055,0.305l0.055,0.301l0.057,0.3l0.056,0.301l0.058,0.3l0.058,0.301l0.058,0.299l0.059,0.299l0.06,0.299l0.059,0.298l0.061,0.296l0.061,0.297l0.062,0.296l0.062,0.297l0.063,0.295l0.063,0.295l0.065,0.296l0.064,0.292l0.064,0.291l0.066,0.293l0.066,0.293l0.067,0.291l0.067,0.291l0.068,0.29l0.069,0.29l0.068,0.289l0.07,0.289l0.071,0.29l0.07,0.286l0.071,0.287l0.072,0.288l0.072,0.284l0.073,0.286l0.073,0.285l0.075,0.284l0.074,0.284l0.075,0.282l0.077,0.284l0.076,0.283l0.077,0.28l0.077,0.279l0.078,0.281l0.079,0.28l0.08,0.28l0.079,0.278l0.081,0.278l0.081,0.278l0.081,0.276l0.083,0.277l0.083,0.275l0.083,0.273l0.084,0.276l0.085,0.274l0.085,0.273l0.086,0.273l0.086,0.272l0.087,0.27l0.087,0.27l0.089,0.271l0.089,0.271l0.089,0.268l0.09,0.269l0.091,0.268l0.092,0.269l0.091,0.264l0.092,0.264l0.093,0.266l0.093,0.265l0.095,0.265l0.096,0.265l0.094,0.261l0.096,0.262l0.097,0.261l0.097,0.261l0.098,0.26l0.099,0.261l0.099,0.259l0.1,0.257l0.1,0.257l0.102,0.259l0.101,0.256l0.102,0.255l0.103,0.255l0.104,0.255l0.104,0.254l0.104,0.253l0.106,0.254l0.106,0.251l0.106,0.251l0.107,0.249l0.109,0.252l0.108,0.249l0.109,0.248l0.11,0.249l0.111,0.248l0.11,0.245l0.112,0.246l0.113,0.247l0.113,0.245l0.113,0.243l0.113,0.241l0.116,0.245l0.117,0.245l0.114,0.237l0.117,0.241l0.119,0.243l0.117,0.236l0.118,0.238l0.12,0.239l0.12,0.238l0.122,0.238l0.121,0.236l0.12,0.233l0.123,0.234l0.124,0.234l0.124,0.235l0.126,0.234l0.125,0.231l0.124,0.229l0.127,0.23l0.128,0.231l0.127,0.229l0.129,0.228l0.129,0.228l0.13,0.226l0.131,0.228l0.13,0.224l0.132,0.225l0.135,0.227l0.132,0.222l0.133,0.221l0.135,0.224l0.135,0.221l0.135,0.219l0.138,0.222l0.137,0.22l0.137,0.217l0.139,0.218l0.139,0.217l0.139,0.215l0.143,0.218l0.141,0.216l0.14,0.21l0.144,0.216l0.144,0.213l0.143,0.211l0.146,0.214l0.146,0.212l0.144,0.207l0.146,0.208l0.15,0.211l0.148,0.208l0.148,0.206l0.15,0.208l0.148,0.202l0.152,0.206l0.153,0.206l0.153,0.203l0.152,0.203l0.154,0.201l0.155,0.203l0.156,0.201l0.155,0.199l0.155,0.196l0.159,0.202l0.158,0.197l0.159,0.197l0.16,0.197l0.16,0.195l0.161,0.195l0.16,0.193l0.162,0.193l0.165,0.194l0.164,0.192l0.164,0.19l0.165,0.19l0.166,0.19l0.168,0.19l0.166,0.187l0.17,0.189l0.17,0.188l0.166,0.182l0.171,0.185l0.172,0.186l0.172,0.184l0.172,0.182l0.175,0.184l0.172,0.18l0.176,0.18l0.177,0.182l0.176,0.178l0.177,0.18l0.178,0.176l0.179,0.178l0.179,0.175l0.181,0.177l0.18,0.174l0.182,0.174l0.182,0.173l0.185,0.173l0.185,0.173l0.183,0.169l0.187,0.172l0.187,0.17l0.185,0.167l0.189,0.169l0.19,0.168l0.188,0.165l0.19,0.166l0.193,0.166l0.19,0.163l0.195,0.165l0.191,0.161l0.195,0.161l0.198,0.164l0.193,0.158l0.198,0.16l0.199,0.16l0.199,0.159l0.198,0.156l0.199,0.156l0.202,0.157l0.203,0.155l0.201,0.154l0.205,0.154l0.202,0.152l0.207,0.152l0.206,0.153l0.204,0.147l0.209,0.151l0.209,0.149l0.211,0.15l0.209,0.146l0.21,0.146l0.213,0.147l0.214,0.145l0.213,0.144l0.212,0.142l0.217,0.144l0.218,0.143l0.217,0.141l0.216,0.139l0.22,0.141l0.219,0.138l0.22,0.137l0.223,0.138l0.224,0.138l0.222,0.135l0.223,0.134l0.223,0.133l0.228,0.134l0.226,0.132l0.227,0.131l0.23,0.132l0.232,0.131l0.23,0.13l0.23,0.127l0.234,0.129l0.229,0.125l0.237,0.127l0.237,0.126l0.231,0.122l0.24,0.125l0.237,0.122l0.238,0.122l0.243,0.122l0.239,0.12l0.24,0.119l0.246,0.12l0.243,0.118l0.243,0.116l0.249,0.118l0.241,0.113l0.247,0.114l0.252,0.116l0.247,0.112l0.253,0.113l0.252,0.112l0.248,0.108l0.256,0.111l0.256,0.11l0.251,0.106l0.256,0.107l0.26,0.108l0.258,0.105l0.259,0.105l0.259,0.103l0.261,0.103l0.261,0.101l0.263,0.101l0.264,0.1l0.268,0.101l0.266,0.099l0.263,0.096l0.271,0.098l0.269,0.096l0.27,0.095l0.271,0.094l0.272,0.093l0.273,0.093l0.275,0.091l0.275,0.091l0.276,0.09l0.277,0.089l0.279,0.088l0.282,0.088l0.277,0.086l0.282,0.085l0.282,0.084l0.284,0.084l0.285,0.083l0.286,0.082l0.287,0.081l0.288,0.08l0.289,0.079l0.29,0.078l0.292,0.078l0.288,0.075l0.294,0.076l0.298,0.075l0.296,0.074l0.293,0.072l0.298,0.072l0.299,0.071l0.3,0.07l0.297,0.069l0.303,0.068l0.307,0.068l0.301,0.066l0.305,0.065l0.307,0.065l0.308,0.063l0.309,0.063l0.307,0.061l0.311,0.06l0.313,0.06l0.313,0.059l0.311,0.057l0.316,0.057l0.317,0.056l0.318,0.055l0.319,0.054l0.317,0.053l0.321,0.052l0.323,0.051l0.321,0.049l0.325,0.049l0.326,0.049l0.324,0.046l0.328,0.046l0.329,0.046l0.331,0.044l0.332,0.043l0.33,0.042l0.331,0.041l0.335,0.04l0.337,0.039l0.337,0.039l0.339,0.037l0.337,0.036l0.338,0.035l0.342,0.034l0.344,0.033l0.341,0.032l0.346,0.031l0.347,0.031l0.345,0.029l0.346,0.027l0.351,0.027l0.352,0.026l0.35,0.025l0.354,0.024l0.352,0.023l0.356,0.021l0.358,0.022l0.356,0.019l0.357,0.019l0.361,0.017l0.363,0.017l0.357,0.015l0.365,0.015l0.366,0.013l0.365,0.012l0.368,0.012l0.37,0.01l0.368,0.009l0.369,0.008l0.37,0.007l0.375,0.006l0.376,0.005l0.371,0.004l0.378,0.002l0.38,0.002l0.377,0.001l0.378,-0.001l0.379,-0.002l0.379,-0.002l0.371,-0.004l0.375,-0.005l0.375,-0.006l0.37,-0.007l0.37,-0.008l0.367,-0.009l0.37,-0.01l0.369,-0.012l0.364,-0.012l0.366,-0.013l0.365,-0.015l0.358,-0.015l0.362,-0.017l0.361,-0.017l0.357,-0.019l0.356,-0.019l0.358,-0.022l0.357,-0.021l0.352,-0.023l0.354,-0.024l0.35,-0.025l0.352,-0.026l0.35,-0.027l0.346,-0.027l0.345,-0.029l0.348,-0.031l0.345,-0.031l0.342,-0.032l0.343,-0.033l0.343,-0.034l0.338,-0.035l0.336,-0.036l0.339,-0.037l0.338,-0.039l0.337,-0.039l0.335,-0.04l0.331,-0.041l0.329,-0.042l0.332,-0.043l0.331,-0.044l0.329,-0.046l0.329,-0.046l0.324,-0.046l0.326,-0.049l0.325,-0.049l0.32,-0.049l0.323,-0.051l0.321,-0.052l0.317,-0.053l0.319,-0.054l0.318,-0.055l0.318,-0.056l0.315,-0.057l0.311,-0.057l0.314,-0.059l0.312,-0.06l0.312,-0.06l0.306,-0.061l0.309,-0.063l0.308,-0.063l0.307,-0.065l0.306,-0.065l0.3,-0.066l0.307,-0.068l0.303,-0.068l0.298,-0.069l0.3,-0.07l0.299,-0.071l0.297,-0.072l0.293,-0.071l0.296,-0.075l0.299,-0.075l0.293,-0.076l0.289,-0.075l0.291,-0.078l0.29,-0.078l0.29,-0.079l0.288,-0.08l0.286,-0.081l0.286,-0.082l0.285,-0.083l0.284,-0.084l0.283,-0.084l0.281,-0.085l0.277,-0.086l0.283,-0.088l0.278,-0.088l0.278,-0.089l0.276,-0.09l0.275,-0.091l0.274,-0.091l0.273,-0.093l0.273,-0.093l0.27,-0.094l0.27,-0.095l0.269,-0.096l0.272,-0.098l0.262,-0.096l0.266,-0.099l0.269,-0.101l0.263,-0.1l0.263,-0.101l0.262,-0.101l0.26,-0.103l0.26,-0.104l0.259,-0.104l0.257,-0.105l0.26,-0.108l0.256,-0.107l0.251,-0.106l0.257,-0.11l0.256,-0.111l0.248,-0.108l0.251,-0.112l0.252,-0.113l0.249,-0.112l0.251,-0.116l0.247,-0.114l0.242,-0.113l0.248,-0.118l0.244,-0.116l0.242,-0.118l0.245,-0.12l0.242,-0.119l0.239,-0.12l0.242,-0.122l0.238,-0.122l0.238,-0.122l0.239,-0.125l0.231,-0.122l0.238,-0.127l0.236,-0.126l0.229,-0.125l0.235,-0.129l0.23,-0.128l0.229,-0.129l0.231,-0.131l0.231,-0.132l0.227,-0.131l0.226,-0.132l0.228,-0.134l0.224,-0.133l0.222,-0.134l0.223,-0.135l0.225,-0.138l0.223,-0.138l0.218,-0.137l0.218,-0.138l0.222,-0.141l0.216,-0.139l0.216,-0.141l0.218,-0.143l0.216,-0.143l0.213,-0.143l0.213,-0.144l0.215,-0.146l0.213,-0.146l0.209,-0.145l0.209,-0.147l0.211,-0.15l0.211,-0.15l0.208,-0.15l0.202,-0.147l0.207,-0.153l0.207,-0.152l0.202,-0.152l0.205,-0.154l0.202,-0.154l0.202,-0.155l0.202,-0.157l0.199,-0.156l0.198,-0.156l0.2,-0.16l0.198,-0.159l0.197,-0.159l0.195,-0.159l0.197,-0.164l0.196,-0.162l0.191,-0.161l0.193,-0.163l0.19,-0.163l0.194,-0.167l0.191,-0.167l0.187,-0.164l0.19,-0.168l0.189,-0.169l0.186,-0.167l0.187,-0.171l0.186,-0.17l0.183,-0.169l0.186,-0.174l0.184,-0.173l0.182,-0.173l0.182,-0.174l0.181,-0.174l0.181,-0.177l0.179,-0.175l0.179,-0.178l0.177,-0.176l0.178,-0.18l0.176,-0.179l0.177,-0.181l0.175,-0.18l0.172,-0.18l0.174,-0.183l0.173,-0.183l0.172,-0.184l0.172,-0.186l0.171,-0.185l0.168,-0.184l0.169,-0.186l0.168,-0.188l0.169,-0.189l0.167,-0.189l0.166,-0.19l0.165,-0.19l0.162,-0.189l0.165,-0.193l0.165,-0.194l0.162,-0.193l0.161,-0.193l0.161,-0.195l0.159,-0.195l0.161,-0.197l0.158,-0.197l0.158,-0.197l0.16,-0.202l0.154,-0.196l0.157,-0.201l0.156,-0.201l0.153,-0.2l0.153,-0.201l0.154,-0.204l0.153,-0.203l0.152,-0.206l0.152,-0.206l0.148,-0.202l0.15,-0.208l0.148,-0.206l0.149,-0.208l0.149,-0.211l0.146,-0.208l0.144,-0.207l0.146,-0.212l0.146,-0.214l0.144,-0.211l0.143,-0.213l0.145,-0.216l0.139,-0.21l0.142,-0.216l0.142,-0.218l0.139,-0.215l0.139,-0.217l0.139,-0.218l0.137,-0.217l0.137,-0.22l0.138,-0.222l0.136,-0.22l0.135,-0.222l0.134,-0.22l0.134,-0.223l0.133,-0.223l0.133,-0.225l0.131,-0.224l0.132,-0.228l0.131,-0.226l0.129,-0.226l0.13,-0.228l0.127,-0.226l0.13,-0.232l0.127,-0.23l0.125,-0.228l0.126,-0.231l0.125,-0.231l0.126,-0.236l0.125,-0.234l0.122,-0.232l0.122,-0.234l0.122,-0.234l0.121,-0.236l0.121,-0.238l0.121,-0.24l0.119,-0.237l0.118,-0.236l0.118,-0.238l0.118,-0.243l0.118,-0.241l0.114,-0.239l0.116,-0.243l0.115,-0.243l0.114,-0.243l0.113,-0.243l0.114,-0.245l0.112,-0.247l0.112,-0.246l0.111,-0.245l0.111,-0.25l0.109,-0.247l0.109,-0.248l0.109,-0.249l0.108,-0.25l0.107,-0.251l0.106,-0.251l0.106,-0.251l0.106,-0.254l0.105,-0.253l0.104,-0.254l0.103,-0.255l0.103,-0.255l0.103,-0.257l0.101,-0.254l0.101,-0.257l0.101,-0.259l0.099,-0.257l0.099,-0.259l0.099,-0.261l0.098,-0.26l0.097,-0.261l0.097,-0.261l0.096,-0.262l0.095,-0.263l0.095,-0.263l0.094,-0.263l0.094,-0.267l0.094,-0.266l0.091,-0.264l0.092,-0.264l0.091,-0.269l0.091,-0.268l0.09,-0.269l0.09,-0.27l0.088,-0.269l0.088,-0.269l0.088,-0.272l0.087,-0.27l0.086,-0.272l0.086,-0.273l0.085,-0.273l0.085,-0.274l0.085,-0.276l0.083,-0.273l0.082,-0.275l0.083,-0.277l0.081,-0.276l0.081,-0.278l0.081,-0.28l0.08,-0.276l0.079,-0.278l0.079,-0.282l0.078,-0.281l0.078,-0.279l0.076,-0.28l0.077,-0.283l0.076,-0.284l0.075,-0.282l0.075,-0.284l0.074,-0.284l0.073,-0.285l0.073,-0.286l0.073,-0.286l0.071,-0.286l0.071,-0.285l0.071,-0.29l0.071,-0.288l0.068,-0.287l0.07,-0.291l0.068,-0.29l0.068,-0.29l0.067,-0.291l0.067,-0.291l0.066,-0.293l0.066,-0.293l0.065,-0.291l0.064,-0.294l0.064,-0.294l0.063,-0.295l0.064,-0.297l0.061,-0.294l0.062,-0.295l0.061,-0.299l0.061,-0.296l0.06,-0.298l0.059,-0.299l0.059,-0.299l0.059,-0.299l0.058,-0.301l0.057,-0.3l0.057,-0.301l0.056,-0.3l0.055,-0.303l0.056,-0.303l0.054,-0.301l0.054,-0.305l0.054,-0.304l0.053,-0.306l0.052,-0.303l0.052,-0.305l0.052,-0.307l0.051,-0.308l0.05,-0.306l0.05,-0.306l0.049,-0.309l0.049,-0.308l0.048,-0.31l0.048,-0.31l0.047,-0.307l0.046,-0.311l0.047,-0.312l0.045,-0.312l0.046,-0.312l0.044,-0.31l0.044,-0.314l0.044,-0.313l0.043,-0.313l0.042,-0.315l0.042,-0.315l0.042,-0.315l0.041,-0.314l0.04,-0.317l0.041,-0.317l0.039,-0.316l0.039,-0.317l0.039,-0.318l0.037,-0.318l0.038,-0.318l0.037,-0.32l0.036,-0.32l0.037,-0.32l0.035,-0.319l0.035,-0.322l0.035,-0.321l0.034,-0.322l0.033,-0.322l0.033,-0.323l0.033,-0.321l0.032,-0.324l0.032,-0.326l0.031,-0.323l0.03,-0.325l0.031,-0.325l0.029,-0.325l0.03,-0.326l0.028,-0.326l0.028,-0.327l0.028,-0.328l0.028,-0.327l0.026,-0.328l0.027,-0.328l0.026,-0.329l0.025,-0.329l0.025,-0.33l0.025,-0.331l0.024,-0.33l0.023,-0.329l0.023,-0.331l0.023,-0.333l0.022,-0.332l0.022,-0.332l0.021,-0.332l0.021,-0.335l0.021,-0.333l0.019,-0.332l0.02,-0.335l0.019,-0.336l0.019,-0.335l0.018,-0.333l0.017,-0.337l0.018,-0.337l0.016,-0.334l0.017,-0.338l0.016,-0.337l0.015,-0.337l0.015,-0.339l0.015,-0.337l0.014,-0.34l0.014,-0.338l0.013,-0.339l0.013,-0.341l0.012,-0.339l0.012,-0.341l0.012,-0.34l0.011,-0.34l0.011,-0.343l0.01,-0.34l0.01,-0.343l0.01,-0.343l0.009,-0.342l0.008,-0.342l0.009,-0.345l0.008,-0.344l0.007,-0.343l0.007,-0.343l0.006,-0.345l0.007,-0.346l0.005,-0.344l0.006,-0.347l0.005,-0.346l0.004,-0.345l0.004,-0.347l0.004,-0.348l0.004,-0.346l0.002,-0.346l0.003,-0.348l0.002,-0.351l0.002,-0.346l0.001,-0.348l0.001,-0.351l0.001,-0.349l0,-0.348l0,-0.349l-0.001,-0.346l-0.001,-0.348l-0.002,-0.348l-0.002,-0.346l-0.003,-0.347l-0.003,-0.346l-0.004,-0.346l-0.004,-0.346l-0.005,-0.344l-0.005,-0.346l-0.006,-0.345l-0.006,-0.345l-0.007,-0.344l-0.007,-0.343l-0.008,-0.344l-0.008,-0.343l-0.009,-0.342l-0.009,-0.343l-0.01,-0.342l-0.01,-0.343l-0.011,-0.342l-0.011,-0.341l-0.012,-0.34l-0.012,-0.34l-0.013,-0.341l-0.014,-0.34l-0.013,-0.34l-0.015,-0.34l-0.014,-0.338l-0.016,-0.339l-0.016,-0.339l-0.016,-0.337l-0.017,-0.338l-0.018,-0.336l-0.018,-0.337l-0.018,-0.338l-0.019,-0.335l-0.02,-0.337l-0.02,-0.336l-0.02,-0.333l-0.021,-0.334l-0.022,-0.336l-0.022,-0.335l-0.023,-0.334l-0.023,-0.332l-0.024,-0.333l-0.024,-0.333l-0.025,-0.333l-0.025,-0.333l-0.026,-0.33l-0.026,-0.331l-0.027,-0.331l-0.028,-0.329l-0.028,-0.331l-0.028,-0.331l-0.029,-0.326l-0.03,-0.33l-0.03,-0.33l-0.031,-0.327l-0.031,-0.328l-0.031,-0.327l-0.033,-0.328l-0.032,-0.326l-0.034,-0.325l-0.034,-0.327l-0.034,-0.324l-0.035,-0.326l-0.036,-0.325l-0.035,-0.324l-0.037,-0.323l-0.037,-0.323l-0.038,-0.324l-0.038,-0.321l-0.039,-0.322l-0.039,-0.323l-0.04,-0.32l-0.04,-0.322l-0.041,-0.32l-0.041,-0.319l-0.043,-0.321l-0.042,-0.318l-0.043,-0.318l-0.044,-0.319l-0.044,-0.318l-0.045,-0.317l-0.045,-0.318l-0.046,-0.316l-0.046,-0.315l-0.047,-0.315l-0.048,-0.315l-0.048,-0.316l-0.049,-0.314l-0.049,-0.314l-0.05,-0.313l-0.05,-0.313l-0.051,-0.313l-0.051,-0.311l-0.052,-0.313l-0.053,-0.311l-0.053,-0.308l-0.053,-0.311l-0.055,-0.312l-0.055,-0.309l-0.054,-0.306l-0.057,-0.308l-0.056,-0.31l-0.057,-0.307l-0.058,-0.306l-0.058,-0.308l-0.059,-0.305l-0.059,-0.303l-0.06,-0.307l-0.06,-0.305l-0.061,-0.303l-0.062,-0.304l-0.062,-0.302l-0.063,-0.305l-0.063,-0.299l-0.064,-0.301l-0.064,-0.302l-0.065,-0.3l-0.066,-0.302l-0.066,-0.299l-0.067,-0.297l-0.067,-0.3l-0.068,-0.298l-0.068,-0.296l-0.07,-0.298l-0.069,-0.297l-0.07,-0.294l-0.071,-0.297l-0.071,-0.295l-0.072,-0.292l-0.073,-0.296l-0.073,-0.294l-0.073,-0.291l-0.074,-0.292l-0.076,-0.293l-0.074,-0.29l-0.077,-0.291l-0.077,-0.292l-0.076,-0.288l-0.078,-0.289l-0.078,-0.289l-0.079,-0.286l-0.08,-0.289l-0.08,-0.286l-0.08,-0.286l-0.082,-0.287l-0.081,-0.284l-0.083,-0.285l-0.083,-0.285l-0.084,-0.283l-0.084,-0.284l-0.084,-0.282l-0.086,-0.281l-0.086,-0.283l-0.086,-0.28l-0.087,-0.279l-0.088,-0.28l-0.088,-0.278l-0.089,-0.279l-0.09,-0.28l-0.09,-0.277l-0.09,-0.274l-0.092,-0.278l-0.092,-0.277l-0.092,-0.272l-0.093,-0.277l-0.093,-0.272l-0.094,-0.272l-0.096,-0.277l-0.095,-0.27l-0.095,-0.269l-0.098,-0.274l-0.097,-0.271l-0.098,-0.269l-0.098,-0.267l-0.099,-0.269l-0.1,-0.269l-0.1,-0.267l-0.101,-0.266l-0.101,-0.266l-0.103,-0.268l-0.103,-0.265l-0.102,-0.262l-0.104,-0.263l-0.105,-0.265l-0.104,-0.262l-0.107,-0.263l-0.106,-0.261l-0.106,-0.259l-0.108,-0.261l-0.108,-0.259l-0.109,-0.259l-0.109,-0.258l-0.11,-0.257l-0.111,-0.258l-0.111,-0.256l-0.111,-0.254l-0.112,-0.255l-0.114,-0.256l-0.114,-0.255l-0.113,-0.252l-0.114,-0.251l-0.116,-0.251l-0.117,-0.253l-0.116,-0.251l-0.117,-0.248l-0.118,-0.251l-0.119,-0.249l-0.118,-0.247l-0.12,-0.247l-0.12,-0.247l-0.122,-0.246l-0.122,-0.247l-0.121,-0.244l-0.122,-0.242l-0.124,-0.244l-0.123,-0.241l-0.126,-0.244l-0.126,-0.244l-0.125,-0.24l-0.125,-0.237l-0.129,-0.241l-0.127,-0.24l-0.128,-0.236l-0.129,-0.238l-0.13,-0.237l-0.13,-0.236l-0.131,-0.235l-0.132,-0.236l-0.131,-0.233l-0.133,-0.234l-0.133,-0.231l-0.134,-0.233l-0.136,-0.233l-0.135,-0.231l-0.134,-0.227l-0.137,-0.23l-0.139,-0.232l-0.136,-0.225l-0.138,-0.226l-0.139,-0.228l-0.141,-0.227l-0.139,-0.224l-0.141,-0.224l-0.14,-0.222l-0.143,-0.225l-0.145,-0.225l-0.143,-0.221l-0.141,-0.217l-0.146,-0.221l-0.147,-0.223l-0.145,-0.218l-0.147,-0.218l-0.145,-0.215l-0.149,-0.218l-0.149,-0.217l-0.149,-0.215l-0.149,-0.215l-0.15,-0.213l-0.151,-0.213l-0.152,-0.212l-0.153,-0.213l-0.154,-0.213l-0.152,-0.209l-0.154,-0.209l-0.156,-0.211l-0.154,-0.205l-0.156,-0.208l-0.158,-0.208l-0.157,-0.206l-0.158,-0.205l-0.159,-0.205l-0.159,-0.204l-0.16,-0.203l-0.161,-0.203l-0.161,-0.201l-0.162,-0.201l-0.163,-0.201l-0.163,-0.199l-0.164,-0.2l-0.165,-0.198l-0.164,-0.196l-0.164,-0.195l-0.17,-0.199l-0.167,-0.196l-0.167,-0.192l-0.169,-0.195l-0.168,-0.191l-0.171,-0.194l-0.171,-0.193l-0.17,-0.189l-0.172,-0.19l-0.173,-0.19l-0.172,-0.187l-0.173,-0.186l-0.178,-0.191l-0.175,-0.187l-0.174,-0.183l-0.177,-0.185l-0.177,-0.185l-0.175,-0.181l-0.18,-0.183l-0.181,-0.183l-0.179,-0.181l-0.18,-0.18l-0.183,-0.181l-0.183,-0.18l-0.18,-0.175l-0.184,-0.178l-0.185,-0.178l-0.183,-0.174l-0.185,-0.175l-0.187,-0.175l-0.187,-0.174l-0.188,-0.173l-0.186,-0.171l-0.188,-0.169l-0.19,-0.172l-0.194,-0.172l-0.188,-0.167l-0.189,-0.166l-0.197,-0.172l-0.192,-0.166l-0.19,-0.162l-0.198,-0.168l-0.194,-0.164l-0.194,-0.162l-0.198,-0.164l-0.197,-0.162l-0.2,-0.163l-0.196,-0.159l-0.201,-0.16l-0.198,-0.159l-0.201,-0.158l-0.203,-0.159l-0.2,-0.154l-0.205,-0.158l-0.202,-0.154l-0.202,-0.152l-0.206,-0.154l-0.208,-0.154l-0.208,-0.153l-0.205,-0.15l-0.207,-0.15l-0.21,-0.15l-0.211,-0.15l-0.208,-0.147l-0.21,-0.146l-0.212,-0.147l-0.215,-0.147l-0.212,-0.144l-0.212,-0.143l-0.215,-0.144l-0.215,-0.142l-0.218,-0.143l-0.217,-0.141l-0.214,-0.138l-0.22,-0.14l-0.221,-0.14l-0.219,-0.137l-0.218,-0.136l-0.22,-0.134l-0.225,-0.137l-0.224,-0.135l-0.222,-0.133l-0.224,-0.132l-0.228,-0.134l-0.224,-0.13l-0.225,-0.13l-0.23,-0.131l-0.227,-0.128l-0.228,-0.127l-0.231,-0.128l-0.23,-0.126l-0.231,-0.125l-0.233,-0.126l-0.232,-0.123l-0.233,-0.123l-0.238,-0.123l-0.234,-0.121l-0.235,-0.12l-0.235,-0.119l-0.24,-0.12l-0.239,-0.118l-0.239,-0.117l-0.238,-0.116l-0.239,-0.115l-0.245,-0.115l-0.242,-0.114l-0.243,-0.113l-0.243,-0.112l-0.248,-0.112l-0.244,-0.111l-0.246,-0.109l-0.247,-0.108l-0.247,-0.108l-0.253,-0.109l-0.245,-0.104l-0.25,-0.105l-0.255,-0.106l-0.252,-0.103l-0.251,-0.102l-0.257,-0.104l-0.255,-0.101l-0.252,-0.099l-0.256,-0.099l-0.26,-0.099l-0.258,-0.098l-0.256,-0.095l-0.263,-0.097l-0.259,-0.095l-0.262,-0.094l-0.262,-0.093l-0.263,-0.092l-0.264,-0.092l-0.265,-0.09l-0.269,-0.091l-0.263,-0.088l-0.267,-0.088l-0.268,-0.087l-0.27,-0.086l-0.27,-0.085l-0.27,-0.084l-0.276,-0.085l-0.269,-0.082l-0.274,-0.081l-0.275,-0.081l-0.271,-0.079l-0.28,-0.08l-0.277,-0.078l-0.278,-0.077l-0.279,-0.077l-0.276,-0.074l-0.281,-0.074l-0.282,-0.074l-0.283,-0.072l-0.284,-0.072l-0.284,-0.07l-0.285,-0.07l-0.286,-0.069l-0.288,-0.068l-0.288,-0.067l-0.285,-0.066l-0.29,-0.065l-0.291,-0.064l-0.289,-0.063l-0.296,-0.063l-0.294,-0.061l-0.291,-0.06l-0.295,-0.06l-0.293,-0.057l-0.298,-0.058l-0.302,-0.057l-0.296,-0.055l-0.296,-0.054l-0.305,-0.055l-0.302,-0.053l-0.299,-0.051l-0.301,-0.05l-0.305,-0.05l-0.309,-0.05l-0.304,-0.047l-0.304,-0.046l-0.309,-0.046l-0.31,-0.045l-0.31,-0.044l-0.308,-0.043l-0.313,-0.042l-0.313,-0.041l-0.312,-0.04l-0.315,-0.039l-0.316,-0.038l-0.314,-0.037l-0.319,-0.036l-0.319,-0.035l-0.317,-0.034l-0.317,-0.032l-0.323,-0.032l-0.323,-0.031l-0.32,-0.03l-0.326,-0.029l-0.326,-0.028l-0.323,-0.026l-0.328,-0.026l-0.329,-0.025l-0.327,-0.024l-0.327,-0.023l-0.329,-0.021l-0.333,-0.02l-0.334,-0.02l-0.335,-0.019l-0.332,-0.017l-0.333,-0.017l-0.338,-0.015l-0.339,-0.015l-0.336,-0.013l-0.338,-0.012l-0.342,-0.011l-0.339,-0.011l-0.34,-0.008l-0.345,-0.008l-0.346,-0.007l-0.343,-0.006l-0.345,-0.005l-0.348,-0.004l-0.35,-0.003l-0.347,-0.002l-0.349,0l-0.348,0Z" style="fill:#ac8639;"/><path d="M121.014,240.817c-14.51,5.914 -31.615,5.051 -42.33,-5.088" style="fill:none;stroke:#ac8639;stroke-width:10px;"/><g id="lips"><path d="M207.507,220.867c-1.309,0.148 -6.818,0.411 -7.793,0.423c-8.011,0.1 -12.373,-1.609 -13.585,-3.181c-0.734,-0.952 29.853,-2.213 30.784,-1.671c1.638,0.954 -1.988,3.592 -9.406,4.429Z" style="fill:#b63e36;"/><path d="M203.341,212.522c0.421,0 0.97,-1.316 3.679,-1.202c8.005,0.334 11.219,2.102 11.219,4.085c0,1.423 -17.48,2.425 -28.418,1.954c-6.159,-0.265 -7.305,-1.052 -6.501,-1.052c1.113,0 2.981,-0.778 4.78,-1.536c3.154,-1.328 6.371,-3.175 11.116,-3.451c2.97,-0.173 3.704,1.202 4.125,1.202Z" style="fill:#b63e36;"/></g></g><g id="kanye_glasses"><path d="M149.029,176.117c0,0 -28.777,-0.086 -37.56,0c-7.083,0.07 -6.916,7.434 -6.916,7.434" style="fill:none;stroke:#302a1c;stroke-width:4.29px;"/><path d="M203.529,167.906c0,0 -17.876,-3.29 -31.477,-2.383c-9.748,0.65 -14.96,2.604 -17.766,4.766c-7.652,5.895 -9.445,18.502 -4.765,29.386c5.05,11.746 30.61,9.684 35.74,6.354c11.346,-7.364 14.632,-23.577 15.091,-25.415c0.314,-1.257 3.177,-12.708 3.177,-12.708Z" style="fill:none;stroke:#302a1c;stroke-width:4.29px;stroke-linecap:butt;"/><path d="M206.323,167.906c0,0 17.876,-3.29 31.477,-2.383c9.747,0.65 14.96,2.604 17.765,4.766c7.653,5.895 9.445,18.502 4.766,29.386c-5.05,11.746 -30.611,9.684 -35.741,6.354c-11.345,-7.364 -14.631,-23.577 -15.09,-25.415c-0.315,-1.257 -3.177,-12.708 -3.177,-12.708Z" style="fill:none;stroke:#302a1c;stroke-width:4.29px;stroke-linecap:butt;"/><path d="M202.555,181.408c0,0 0.007,-2.269 2.371,-2.269c2.364,0 2.385,2.269 2.385,2.269l3.285,-16.612c-3.8,0.122 -7.602,0.116 -11.406,0l3.365,16.612Z" style="fill:#302a1c;"/><path d="M150.005,173.724l50.718,0.794" style="fill:#302a1c;stroke:#302a1c;stroke-width:4.29px;stroke-linecap:butt;"/><path d="M259.846,173.724l-50.717,0.794" style="fill:#302a1c;stroke:#302a1c;stroke-width:4.29px;stroke-linecap:butt;"/><path d="M146.953,183.313l53.77,0" style="fill:#302a1c;stroke:#302a1c;stroke-width:4.29px;stroke-linecap:butt;"/><path d="M262.898,183.313l-53.769,0" style="fill:#302a1c;stroke:#302a1c;stroke-width:4.29px;stroke-linecap:butt;"/><path d="M146.953,192.108l50.837,0" style="fill:#302a1c;stroke:#302a1c;stroke-width:4.29px;stroke-linecap:butt;"/><path d="M262.898,192.108l-50.836,0" style="fill:#302a1c;stroke:#302a1c;stroke-width:4.29px;stroke-linecap:butt;"/><path d="M150.005,200.903l41.676,0" style="fill:#302a1c;stroke:#302a1c;stroke-width:4.29px;stroke-linecap:butt;"/><path d="M259.846,200.903l-41.676,0" style="fill:#302a1c;stroke:#302a1c;stroke-width:4.29px;stroke-linecap:butt;"/></g></g><g><path d="M96.185,65.102c-0.269,-0.636 -1.003,-0.935 -1.639,-0.667l-43.809,18.466c-0.637,0.268 -0.935,1.002 -0.667,1.639l8.747,20.751c0.268,0.637 1.002,0.936 1.638,0.667l43.81,-18.465c0.636,-0.269 0.935,-1.003 0.666,-1.639l-8.746,-20.752Z" style="fill:#77a100;"/><path d="M73.856,76.55c4.772,-2.011 10.28,0.23 12.291,5.002c2.012,4.772 -0.23,10.28 -5.002,12.291c-4.772,2.012 -10.279,-0.23 -12.291,-5.002c-2.011,-4.772 0.23,-10.279 5.002,-12.291Z" style="fill:#e6d6a7;fill-opacity:0.5;"/></g><g><path d="M316.589,124.569c-0.268,-0.636 -1.002,-0.935 -1.638,-0.667l-43.809,18.466c-0.637,0.268 -0.936,1.002 -0.667,1.639l8.746,20.751c0.269,0.637 1.003,0.936 1.639,0.667l43.809,-18.465c0.637,-0.269 0.935,-1.003 0.667,-1.639l-8.747,-20.752Z" style="fill:#77a100;"/><path d="M294.261,136.017c4.772,-2.011 10.279,0.23 12.291,5.002c2.011,4.772 -0.23,10.28 -5.002,12.291c-4.772,2.012 -10.28,-0.229 -12.291,-5.002c-2.012,-4.772 0.23,-10.279 5.002,-12.291Z" style="fill:#e6d6a7;fill-opacity:0.5;"/></g><g><path d="M80.147,161.169c0.497,-0.479 0.511,-1.272 0.031,-1.769l-33.009,-34.214c-0.479,-0.497 -1.272,-0.511 -1.769,-0.032l-16.207,15.636c-0.496,0.48 -0.511,1.272 -0.031,1.769l33.009,34.214c0.48,0.497 1.272,0.512 1.769,0.032l16.207,-15.636Z" style="fill:#77a100;"/><path d="M61.423,144.465c3.596,3.727 3.489,9.672 -0.238,13.267c-3.727,3.596 -9.672,3.49 -13.268,-0.237c-3.595,-3.727 -3.489,-9.672 0.238,-13.268c3.727,-3.596 9.672,-3.489 13.268,0.238Z" style="fill:#e6d6a7;fill-opacity:0.5;"/></g><g><path d="M73.744,182.547c-0.307,-0.618 -1.059,-0.87 -1.677,-0.562l-42.562,21.182c-0.618,0.308 -0.87,1.06 -0.563,1.678l10.034,20.161c0.308,0.618 1.06,0.87 1.678,0.562l42.562,-21.183c0.618,-0.307 0.87,-1.059 0.562,-1.677l-10.034,-20.161Z" style="fill:#77a100;"/><path d="M52.18,195.376c4.636,-2.307 10.273,-0.417 12.581,4.22c2.307,4.636 0.416,10.273 -4.22,12.581c-4.636,2.307 -10.274,0.416 -12.581,-4.22c-2.307,-4.636 -0.417,-10.274 4.22,-12.581Z" style="fill:#e6d6a7;fill-opacity:0.5;"/></g><g><path d="M302.287,54.443c-0.308,-0.618 -1.059,-0.87 -1.677,-0.563l-42.562,21.183c-0.618,0.308 -0.87,1.059 -0.563,1.677l10.034,20.161c0.308,0.618 1.059,0.871 1.678,0.563l42.561,-21.183c0.619,-0.308 0.871,-1.059 0.563,-1.677l-10.034,-20.161Z" style="fill:#77a100;"/><path d="M280.722,67.272c4.637,-2.308 10.274,-0.417 12.581,4.219c2.308,4.637 0.417,10.274 -4.219,12.581c-4.636,2.308 -10.274,0.417 -12.581,-4.219c-2.308,-4.636 -0.417,-10.274 4.219,-12.581Z" style="fill:#e6d6a7;fill-opacity:0.5;"/></g><g><path d="M313.781,296.725c0.377,-0.579 0.213,-1.354 -0.365,-1.731l-39.839,-25.944c-0.578,-0.377 -1.354,-0.213 -1.731,0.365l-12.289,18.871c-0.377,0.579 -0.213,1.354 0.365,1.731l39.839,25.945c0.578,0.376 1.354,0.213 1.731,-0.366l12.289,-18.871Z" style="fill:#77a100;"/><path d="M291.79,284.643c4.339,2.826 5.568,8.644 2.742,12.983c-2.826,4.34 -8.644,5.569 -12.984,2.742c-4.339,-2.826 -5.568,-8.643 -2.742,-12.983c2.826,-4.34 8.644,-5.568 12.984,-2.742Z" style="fill:#e6d6a7;fill-opacity:0.5;"/></g><g><path d="M73.639,259.975c-0.311,-0.616 -1.064,-0.865 -1.681,-0.554l-42.453,21.4c-0.616,0.31 -0.865,1.063 -0.554,1.68l10.137,20.109c0.311,0.617 1.064,0.865 1.68,0.554l42.453,-21.399c0.617,-0.311 0.865,-1.064 0.554,-1.68l-10.136,-20.11Z" style="fill:#77a100;"/><path d="M52.14,272.914c4.624,-2.331 10.271,-0.469 12.602,4.155c2.331,4.625 0.469,10.272 -4.155,12.603c-4.625,2.331 -10.272,0.469 -12.603,-4.156c-2.331,-4.624 -0.469,-10.271 4.156,-12.602Z" style="fill:#e6d6a7;fill-opacity:0.5;"/></g><g><path d="M105.536,99.755c-0.476,-0.499 -1.269,-0.518 -1.768,-0.042l-34.416,32.799c-0.5,0.476 -0.519,1.269 -0.043,1.769l15.537,16.302c0.476,0.5 1.269,0.519 1.769,0.043l34.415,-32.8c0.5,-0.476 0.519,-1.269 0.043,-1.768l-15.537,-16.303Z" style="fill:#77a100;"/><path d="M88.718,118.377c3.748,-3.573 9.693,-3.43 13.266,0.319c3.572,3.749 3.43,9.693 -0.319,13.266c-3.749,3.573 -9.694,3.43 -13.266,-0.319c-3.573,-3.749 -3.43,-9.693 0.319,-13.266Z" style="fill:#e6d6a7;fill-opacity:0.5;"/></g><g><g><path d="M277.744,175.727c-0.676,0.144 -1.107,0.809 -0.963,1.485l9.911,46.497c0.144,0.675 0.809,1.107 1.484,0.963l22.025,-4.695c0.676,-0.144 1.107,-0.809 0.963,-1.484l-9.911,-46.498c-0.144,-0.675 -0.809,-1.106 -1.485,-0.962l-22.024,4.694Z" style="fill:#77a100;"/><path d="M284.795,199.808c-1.079,-5.065 2.156,-10.053 7.221,-11.133c5.065,-1.08 10.054,2.156 11.133,7.221c1.08,5.065 -2.155,10.054 -7.22,11.133c-5.065,1.08 -10.054,-2.156 -11.134,-7.221Z" style="fill:#e6d6a7;fill-opacity:0.5;"/></g></g><g><g><path d="M321.729,182.055c-0.58,-0.376 -1.355,-0.211 -1.731,0.368l-25.882,39.88c-0.375,0.579 -0.21,1.354 0.369,1.73l18.89,12.26c0.579,0.376 1.355,0.211 1.731,-0.369l25.881,-39.879c0.376,-0.579 0.211,-1.354 -0.368,-1.73l-18.89,-12.26Z" style="fill:#77a100;"/><path d="M309.681,204.066c2.819,-4.344 8.635,-5.582 12.979,-2.763c4.344,2.819 5.582,8.635 2.763,12.979c-2.82,4.344 -8.635,5.582 -12.979,2.763c-4.344,-2.819 -5.582,-8.635 -2.763,-12.979Z" style="fill:#e6d6a7;fill-opacity:0.5;"/></g></g></g></svg>