<?xml version="1.0" encoding="UTF-8" standalone="no"?><!DOCTYPE svg PUBLIC "-//W3C//DTD SVG 1.1//EN" "http://www.w3.org/Graphics/SVG/1.1/DTD/svg11.dtd"><svg width="100%" height="100%" viewBox="0 0 1200 400" version="1.1" xmlns="http://www.w3.org/2000/svg" xmlns:xlink="http://www.w3.org/1999/xlink" xml:space="preserve" xmlns:serif="http://www.serif.com/" style="fill-rule:evenodd;clip-rule:evenodd;stroke-linejoin:round;stroke-miterlimit:1.41421;"><rect id="city-minwidth" x="0" y="0" width="1200" height="400" style="fill:none;"/><g id="clouds"><g><g opacity="0.9"><circle cx="101.658" cy="137.339" r="16.301" style="fill:#fafafa;"/><ellipse cx="117.11" cy="128.347" rx="21.735" ry="19.018" style="fill:#fafafa;"/><ellipse cx="146.431" cy="115.808" rx="35.528" ry="31.557" style="fill:#fafafa;"/><ellipse cx="182.869" cy="115.604" rx="23.751" ry="22.571" style="fill:#fafafa;"/><ellipse cx="201.387" cy="130.316" rx="23.751" ry="22.571" style="fill:#fafafa;"/><path d="M154.009,109.329c31.208,0 49.021,28.563 49.021,43.558l-102.221,0.753c0,-14.994 21.993,-44.311 53.2,-44.311Z" style="fill:#fafafa;"/></g></g><g><circle cx="875.687" cy="222.991" r="19.5" style="fill:#fafafa;"/><ellipse cx="894.171" cy="212.234" rx="26" ry="22.75" style="fill:#fafafa;"/><ellipse cx="929.246" cy="197.234" rx="42.5" ry="37.75" style="fill:#fafafa;"/><ellipse cx="972.833" cy="196.991" rx="28.412" ry="27" style="fill:#fafafa;"/><ellipse cx="994.986" cy="214.589" rx="28.412" ry="27" style="fill:#fafafa;"/><path d="M938.311,189.484c37.331,0 58.64,34.168 58.64,52.105l-122.28,0.902c0,-17.937 26.308,-53.007 63.64,-53.007Z" style="fill:#fafafa;"/></g><g><g opacity="0.9"><ellipse cx="437.007" cy="254.787" rx="31.992" ry="28.204" style="fill:#fafafa;"/><ellipse cx="476.916" cy="226.803" rx="47" ry="43.182" style="fill:#fafafa;"/><ellipse cx="529.407" cy="241.741" rx="22.657" ry="22.75" style="fill:#fafafa;"/><ellipse cx="555.05" cy="263.96" rx="19.5" ry="18.531" style="fill:#fafafa;"/><path d="M500.639,229.985c37.332,0 58.64,34.167 58.64,52.104l-122.28,0.902c0,-17.937 26.308,-53.006 63.64,-53.006Z" style="fill:#fafafa;"/></g></g><g><ellipse cx="144.494" cy="160.043" rx="32.5" ry="23.577" style="fill:#fafafa;"/><ellipse cx="185.037" cy="136.65" rx="47.747" ry="36.098" style="fill:#fafafa;"/><ellipse cx="238.362" cy="149.138" rx="23.017" ry="19.018" style="fill:#fafafa;"/><ellipse cx="264.413" cy="167.712" rx="19.81" ry="15.491" style="fill:#fafafa;"/><path d="M209.137,139.31c37.925,0 59.572,28.562 59.572,43.557l-124.223,0.754c0,-14.995 26.726,-44.311 64.651,-44.311Z" style="fill:#fafafa;"/></g><g><g opacity="0.9"><ellipse cx="955.608" cy="183.539" rx="31.992" ry="28.204" style="fill:#fafafa;"/><ellipse cx="971.864" cy="164.998" rx="31.992" ry="28.204" style="fill:#fafafa;"/><ellipse cx="1015.85" cy="163.296" rx="47" ry="43.182" style="fill:#fafafa;"/><ellipse cx="1067.38" cy="171.639" rx="25.772" ry="18.531" style="fill:#fafafa;"/><ellipse cx="1084.4" cy="188.138" rx="30.246" ry="23.105" style="fill:#fafafa;"/><path d="M1019.24,158.736c37.332,0 58.64,34.168 58.64,52.105l-122.28,0.902c0,-17.937 26.309,-53.007 63.64,-53.007Z" style="fill:#fafafa;"/></g></g><g><ellipse cx="495.338" cy="287.545" rx="31.992" ry="28.204" style="fill:#fafafa;"/><ellipse cx="511.594" cy="269.004" rx="31.992" ry="28.204" style="fill:#fafafa;"/><ellipse cx="555.58" cy="267.303" rx="47" ry="43.182" style="fill:#fafafa;"/><ellipse cx="607.109" cy="275.645" rx="25.772" ry="18.531" style="fill:#fafafa;"/><ellipse cx="624.127" cy="292.144" rx="30.246" ry="23.105" style="fill:#fafafa;"/><path d="M558.97,262.743c37.331,0 58.64,34.168 58.64,52.105l-122.28,0.901c0,-17.937 26.308,-53.006 63.64,-53.006Z" style="fill:#fafafa;"/></g></g></svg>