<?xml version="1.0" encoding="UTF-8" standalone="no"?><!DOCTYPE svg PUBLIC "-//W3C//DTD SVG 1.1//EN" "http://www.w3.org/Graphics/SVG/1.1/DTD/svg11.dtd"><svg width="100%" height="100%" viewBox="0 0 250 250" version="1.1" xmlns="http://www.w3.org/2000/svg" xmlns:xlink="http://www.w3.org/1999/xlink" xml:space="preserve" xmlns:serif="http://www.serif.com/" style="fill-rule:evenodd;clip-rule:evenodd;stroke-linecap:round;stroke-linejoin:round;stroke-miterlimit:2;"><rect id="m_bunny" x="0" y="0" width="250" height="250" style="fill:none;"/><g id="boytato"><path d="M102.848,211.737c4.139,10.157 4.511,19.314 0,27.174" style="fill:none;stroke:#ac8639;stroke-width:7px;"/><path d="M149.238,211.826c2.782,8.88 2.93,17.929 0,27.174" style="fill:none;stroke:#ac8639;stroke-width:7px;"/><path d="M172.374,159.017c1.508,10.86 5.778,18.975 13.626,23.533" style="fill:none;stroke:#ac8639;stroke-width:7px;"/><path id="potato" d="M123.068,64c43.66,0 59.069,34.445 59.069,76.872c0,42.427 -12.039,76.872 -59.069,76.872c-47.029,0 -59.068,-34.445 -59.068,-76.872c0,-42.427 15.409,-76.872 59.068,-76.872Z" style="fill:#edbe5e;"/><clipPath id="_clip1"><path d="M123.068,64c43.66,0 59.069,34.445 59.069,76.872c0,42.427 -12.039,76.872 -59.069,76.872c-47.029,0 -59.068,-34.445 -59.068,-76.872c0,-42.427 15.409,-76.872 59.068,-76.872Z"/></clipPath><g clip-path="url(#_clip1)"><path id="shadow" d="M123.068,64c-78.81,35.87 -36.954,151.135 0,153.744c-47.029,0 -59.068,-34.445 -59.068,-76.872c0,-42.427 15.409,-76.872 59.068,-76.872Z" style="fill:#cda24c;fill-opacity:0.25098;"/><ellipse id="eye_1" cx="115.041" cy="123.856" rx="6.378" ry="6.36" style="fill:#302a1c;"/><ellipse id="eye_2" cx="161.63" cy="123.856" rx="6.378" ry="6.36" style="fill:#302a1c;"/><g id="eyebrows"><path d="M118.512,110.791c-2.571,-1.903 -7.103,-1.639 -9.277,0" style="fill:none;stroke:#ac8639;stroke-opacity:0.5;stroke-width:3px;"/><path d="M165.474,110.791c-2.57,-1.903 -7.103,-1.639 -9.277,0" style="fill:none;stroke:#ac8639;stroke-opacity:0.5;stroke-width:3px;"/></g><g id="marks"><path d="M82.347,146.983c2.57,-1.903 7.103,-1.639 9.277,0" style="fill:none;stroke:#ac8639;stroke-opacity:0.5;stroke-width:3px;"/><path d="M156.291,167.577c2.571,-1.903 7.103,-1.639 9.277,0" style="fill:none;stroke:#ac8639;stroke-opacity:0.5;stroke-width:3px;"/><path d="M103.445,181.748c2.571,-1.903 7.103,-1.639 9.277,0" style="fill:none;stroke:#ac8639;stroke-opacity:0.5;stroke-width:3px;"/><path d="M128.679,201.739c2.571,-1.904 7.103,-1.639 9.277,0" style="fill:none;stroke:#ac8639;stroke-opacity:0.5;stroke-width:3px;"/></g><path id="mouth" d="M129.663,146.827c9.203,0.018 9.818,0.199 16.341,0" style="fill:none;stroke:#302a1c;stroke-width:3.47px;"/></g><path d="M123.324,64l0.255,0.002l0.254,0.002l0.254,0.002l0.253,0.004l0.252,0.004l0.251,0.005l0.251,0.006l0.251,0.007l0.249,0.007l0.25,0.008l0.248,0.009l0.248,0.01l0.247,0.011l0.246,0.011l0.246,0.012l0.245,0.013l0.245,0.014l0.244,0.014l0.243,0.015l0.243,0.016l0.242,0.017l0.241,0.017l0.241,0.018l0.24,0.019l0.24,0.02l0.239,0.02l0.238,0.022l0.238,0.022l0.237,0.022l0.236,0.024l0.236,0.024l0.235,0.025l0.234,0.026l0.234,0.026l0.233,0.028l0.233,0.028l0.232,0.028l0.231,0.03l0.231,0.03l0.23,0.031l0.23,0.032l0.229,0.032l0.228,0.033l0.227,0.034l0.227,0.035l0.227,0.035l0.226,0.036l0.225,0.037l0.224,0.038l0.224,0.038l0.223,0.039l0.223,0.04l0.222,0.04l0.221,0.042l0.221,0.042l0.221,0.042l0.219,0.044l0.219,0.044l0.218,0.045l0.218,0.045l0.217,0.046l0.217,0.047l0.216,0.048l0.215,0.048l0.215,0.049l0.214,0.05l0.213,0.051l0.213,0.051l0.212,0.052l0.212,0.053l0.211,0.053l0.211,0.054l0.209,0.055l0.21,0.055l0.208,0.056l0.208,0.057l0.208,0.058l0.207,0.058l0.206,0.059l0.206,0.06l0.205,0.06l0.204,0.061l0.204,0.062l0.203,0.062l0.203,0.063l0.202,0.064l0.201,0.064l0.201,0.065l0.2,0.066l0.2,0.067l0.199,0.067l0.198,0.068l0.198,0.068l0.198,0.07l0.196,0.069l0.196,0.071l0.196,0.071l0.195,0.072l0.194,0.073l0.194,0.073l0.193,0.074l0.193,0.075l0.191,0.075l0.192,0.076l0.191,0.076l0.19,0.078l0.189,0.078l0.19,0.078l0.188,0.079l0.188,0.08l0.187,0.081l0.187,0.081l0.186,0.082l0.186,0.082l0.184,0.084l0.185,0.083l0.184,0.085l0.183,0.085l0.183,0.086l0.182,0.086l0.181,0.087l0.181,0.088l0.18,0.088l0.18,0.089l0.179,0.09l0.179,0.09l0.178,0.091l0.177,0.092l0.177,0.092l0.177,0.093l0.175,0.093l0.176,0.094l0.174,0.095l0.174,0.095l0.174,0.096l0.173,0.097l0.172,0.097l0.172,0.098l0.171,0.098l0.171,0.099l0.17,0.1l0.169,0.1l0.169,0.101l0.168,0.102l0.168,0.102l0.168,0.103l0.166,0.103l0.166,0.104l0.166,0.105l0.165,0.105l0.164,0.106l0.164,0.107l0.164,0.107l0.162,0.107l0.163,0.109l0.161,0.108l0.161,0.11l0.161,0.11l0.16,0.111l0.159,0.111l0.159,0.112l0.158,0.112l0.158,0.114l0.157,0.113l0.157,0.114l0.156,0.115l0.156,0.116l0.155,0.116l0.154,0.117l0.154,0.117l0.154,0.118l0.152,0.118l0.153,0.119l0.151,0.119l0.152,0.121l0.15,0.12l0.15,0.122l0.15,0.122l0.149,0.122l0.148,0.123l0.148,0.124l0.148,0.124l0.146,0.125l0.147,0.125l0.145,0.126l0.146,0.126l0.144,0.127l0.144,0.128l0.144,0.128l0.143,0.129l0.143,0.129l0.142,0.13l0.141,0.13l0.141,0.131l0.14,0.132l0.14,0.132l0.14,0.132l0.138,0.134l0.139,0.133l0.137,0.135l0.137,0.135l0.137,0.135l0.136,0.136l0.136,0.136l0.135,0.137l0.134,0.138l0.134,0.138l0.134,0.139l0.133,0.139l0.132,0.14l0.132,0.14l0.132,0.141l0.13,0.141l0.131,0.142l0.129,0.142l0.13,0.143l0.129,0.144l0.128,0.144l0.127,0.145l0.128,0.145l0.126,0.145l0.127,0.146l0.125,0.147l0.125,0.147l0.125,0.148l0.124,0.148l0.124,0.149l0.123,0.149l0.122,0.15l0.122,0.15l0.122,0.151l0.121,0.151l0.12,0.152l0.12,0.153l0.12,0.152l0.119,0.154l0.118,0.154l0.118,0.154l0.117,0.155l0.117,0.155l0.117,0.156l0.116,0.157l0.115,0.156l0.115,0.158l0.114,0.158l0.114,0.158l0.113,0.159l0.113,0.159l0.113,0.16l0.111,0.161l0.112,0.161l0.111,0.161l0.11,0.162l0.11,0.162l0.109,0.163l0.109,0.163l0.108,0.164l0.108,0.164l0.108,0.165l0.106,0.165l0.107,0.166l0.106,0.166l0.105,0.167l0.105,0.167l0.104,0.168l0.104,0.168l0.104,0.168l0.102,0.169l0.103,0.17l0.102,0.17l0.101,0.17l0.101,0.171l0.101,0.172l0.1,0.171l0.099,0.173l0.099,0.172l0.098,0.174l0.098,0.173l0.098,0.175l0.097,0.174l0.097,0.175l0.096,0.176l0.095,0.176l0.095,0.176l0.095,0.177l0.094,0.177l0.094,0.178l0.093,0.178l0.092,0.179l0.093,0.179l0.091,0.18l0.092,0.18l0.09,0.18l0.091,0.181l0.09,0.181l0.089,0.182l0.089,0.182l0.088,0.183l0.088,0.183l0.087,0.183l0.087,0.184l0.087,0.185l0.086,0.184l0.085,0.186l0.085,0.185l0.085,0.186l0.084,0.187l0.084,0.187l0.083,0.187l0.083,0.188l0.082,0.188l0.082,0.189l0.081,0.189l0.081,0.189l0.08,0.19l0.08,0.19l0.08,0.191l0.079,0.191l0.078,0.192l0.078,0.192l0.078,0.192l0.077,0.193l0.077,0.193l0.076,0.193l0.076,0.194l0.075,0.195l0.075,0.194l0.074,0.195l0.074,0.196l0.074,0.196l0.073,0.196l0.072,0.197l0.072,0.197l0.072,0.198l0.071,0.198l0.071,0.198l0.07,0.199l0.07,0.199l0.069,0.199l0.069,0.2l0.069,0.2l0.068,0.201l0.067,0.201l0.067,0.201l0.067,0.202l0.066,0.202l0.066,0.203l0.065,0.203l0.065,0.203l0.065,0.204l0.064,0.204l0.063,0.204l0.063,0.205l0.063,0.205l0.062,0.206l0.062,0.206l0.062,0.206l0.06,0.206l0.061,0.207l0.06,0.208l0.059,0.207l0.06,0.209l0.058,0.208l0.059,0.209l0.057,0.209l0.058,0.209l0.057,0.21l0.056,0.21l0.056,0.211l0.056,0.211l0.055,0.211l0.055,0.212l0.054,0.212l0.054,0.212l0.054,0.213l0.053,0.213l0.052,0.213l0.053,0.214l0.051,0.214l0.052,0.214l0.051,0.215l0.05,0.215l0.05,0.215l0.05,0.216l0.049,0.216l0.049,0.216l0.048,0.217l0.048,0.217l0.048,0.217l0.047,0.218l0.046,0.218l0.047,0.218l0.045,0.219l0.046,0.219l0.045,0.219l0.044,0.219l0.045,0.22l0.043,0.221l0.044,0.22l0.042,0.221l0.043,0.221l0.042,0.222l0.042,0.222l0.041,0.222l0.041,0.222l0.04,0.223l0.04,0.223l0.04,0.223l0.039,0.224l0.039,0.224l0.038,0.224l0.038,0.225l0.037,0.225l0.037,0.225l0.037,0.225l0.036,0.226l0.036,0.226l0.036,0.226l0.035,0.227l0.035,0.227l0.034,0.227l0.034,0.228l0.033,0.227l0.033,0.228l0.033,0.229l0.032,0.228l0.032,0.229l0.031,0.23l0.032,0.229l0.03,0.23l0.03,0.23l0.03,0.23l0.03,0.231l0.029,0.231l0.028,0.231l0.029,0.231l0.028,0.232l0.027,0.232l0.027,0.232l0.027,0.233l0.026,0.233l0.026,0.233l0.026,0.233l0.025,0.233l0.024,0.234l0.025,0.234l0.024,0.235l0.023,0.234l0.023,0.235l0.023,0.235l0.022,0.236l0.022,0.235l0.022,0.236l0.021,0.236l0.021,0.237l0.021,0.236l0.02,0.237l0.019,0.237l0.02,0.238l0.019,0.237l0.018,0.238l0.018,0.238l0.018,0.239l0.018,0.238l0.017,0.239l0.016,0.239l0.016,0.239l0.016,0.24l0.016,0.24l0.015,0.24l0.015,0.24l0.014,0.24l0.014,0.241l0.014,0.241l0.013,0.241l0.013,0.242l0.012,0.241l0.013,0.242l0.011,0.242l0.012,0.242l0.011,0.243l0.01,0.242l0.011,0.243l0.01,0.243l0.009,0.244l0.018,0.487l0.017,0.488l0.015,0.489l0.013,0.49l0.012,0.491l0.011,0.491l0.009,0.492l0.008,0.493l0.007,0.494l0.005,0.495l0.003,0.495l0.002,0.496l0.001,0.497l-0.001,0.497l-0.001,0.496l-0.003,0.495l-0.004,0.495l-0.005,0.494l-0.006,0.493l-0.007,0.492l-0.009,0.491l-0.01,0.491l-0.01,0.49l-0.013,0.489l-0.013,0.488l-0.014,0.487l-0.016,0.487l-0.017,0.485l-0.018,0.485l-0.019,0.484l-0.021,0.483l-0.021,0.482l-0.023,0.481l-0.025,0.48l-0.025,0.479l-0.027,0.479l-0.028,0.477l-0.03,0.477l-0.031,0.475l-0.032,0.475l-0.033,0.473l-0.035,0.473l-0.036,0.471l-0.037,0.471l-0.039,0.469l-0.04,0.469l-0.042,0.467l-0.043,0.466l-0.044,0.466l-0.023,0.232l-0.023,0.232l-0.023,0.232l-0.024,0.231l-0.024,0.231l-0.024,0.231l-0.025,0.231l-0.025,0.23l-0.026,0.23l-0.026,0.23l-0.026,0.229l-0.026,0.23l-0.027,0.228l-0.028,0.229l-0.027,0.228l-0.028,0.229l-0.029,0.227l-0.029,0.228l-0.029,0.227l-0.029,0.227l-0.03,0.227l-0.03,0.226l-0.031,0.226l-0.031,0.226l-0.031,0.225l-0.032,0.225l-0.032,0.225l-0.033,0.225l-0.033,0.224l-0.033,0.224l-0.034,0.224l-0.034,0.223l-0.034,0.223l-0.035,0.223l-0.035,0.222l-0.035,0.222l-0.036,0.222l-0.037,0.222l-0.036,0.221l-0.037,0.221l-0.038,0.22l-0.038,0.221l-0.038,0.219l-0.039,0.22l-0.039,0.219l-0.039,0.219l-0.04,0.219l-0.04,0.218l-0.041,0.218l-0.041,0.218l-0.042,0.217l-0.041,0.217l-0.043,0.217l-0.042,0.216l-0.043,0.216l-0.044,0.216l-0.044,0.215l-0.044,0.215l-0.045,0.215l-0.045,0.214l-0.045,0.214l-0.046,0.214l-0.047,0.213l-0.046,0.213l-0.048,0.213l-0.047,0.212l-0.048,0.212l-0.049,0.212l-0.048,0.211l-0.05,0.211l-0.049,0.211l-0.05,0.21l-0.051,0.21l-0.051,0.209l-0.051,0.209l-0.052,0.209l-0.052,0.208l-0.053,0.209l-0.053,0.207l-0.054,0.208l-0.054,0.207l-0.054,0.206l-0.055,0.206l-0.055,0.206l-0.056,0.206l-0.056,0.205l-0.056,0.205l-0.057,0.204l-0.058,0.204l-0.058,0.204l-0.058,0.203l-0.059,0.203l-0.059,0.203l-0.06,0.202l-0.06,0.202l-0.06,0.201l-0.061,0.201l-0.062,0.201l-0.062,0.2l-0.062,0.2l-0.063,0.199l-0.063,0.199l-0.064,0.199l-0.064,0.198l-0.065,0.198l-0.065,0.198l-0.065,0.197l-0.066,0.197l-0.067,0.196l-0.067,0.196l-0.067,0.195l-0.068,0.196l-0.068,0.194l-0.069,0.195l-0.069,0.194l-0.07,0.193l-0.07,0.193l-0.071,0.193l-0.071,0.192l-0.071,0.192l-0.072,0.192l-0.073,0.191l-0.073,0.191l-0.073,0.19l-0.074,0.19l-0.075,0.189l-0.075,0.189l-0.075,0.189l-0.076,0.188l-0.076,0.188l-0.077,0.187l-0.077,0.187l-0.078,0.187l-0.078,0.186l-0.079,0.185l-0.079,0.185l-0.08,0.185l-0.08,0.185l-0.081,0.184l-0.081,0.183l-0.082,0.183l-0.082,0.183l-0.083,0.182l-0.083,0.182l-0.084,0.181l-0.084,0.181l-0.085,0.18l-0.085,0.18l-0.086,0.18l-0.086,0.179l-0.087,0.179l-0.087,0.178l-0.088,0.178l-0.088,0.177l-0.089,0.177l-0.089,0.176l-0.09,0.176l-0.09,0.176l-0.091,0.175l-0.091,0.174l-0.092,0.175l-0.092,0.173l-0.093,0.173l-0.093,0.173l-0.094,0.173l-0.094,0.171l-0.095,0.172l-0.096,0.171l-0.096,0.17l-0.096,0.17l-0.097,0.17l-0.098,0.169l-0.098,0.168l-0.098,0.168l-0.099,0.168l-0.1,0.167l-0.1,0.167l-0.101,0.166l-0.101,0.166l-0.102,0.165l-0.102,0.165l-0.103,0.164l-0.103,0.164l-0.104,0.163l-0.104,0.163l-0.105,0.162l-0.106,0.162l-0.106,0.161l-0.107,0.161l-0.107,0.161l-0.107,0.159l-0.109,0.16l-0.108,0.159l-0.11,0.158l-0.11,0.158l-0.11,0.157l-0.111,0.157l-0.112,0.157l-0.112,0.156l-0.112,0.155l-0.113,0.155l-0.114,0.154l-0.114,0.154l-0.115,0.154l-0.116,0.152l-0.116,0.153l-0.116,0.152l-0.117,0.151l-0.118,0.151l-0.118,0.15l-0.119,0.15l-0.119,0.149l-0.12,0.149l-0.121,0.148l-0.121,0.148l-0.121,0.147l-0.123,0.147l-0.122,0.146l-0.124,0.145l-0.124,0.145l-0.124,0.145l-0.125,0.144l-0.126,0.143l-0.126,0.143l-0.127,0.143l-0.127,0.142l-0.128,0.141l-0.129,0.141l-0.129,0.14l-0.13,0.14l-0.13,0.139l-0.131,0.139l-0.131,0.138l-0.132,0.138l-0.133,0.137l-0.133,0.136l-0.134,0.136l-0.134,0.135l-0.135,0.135l-0.136,0.135l-0.136,0.133l-0.137,0.133l-0.137,0.133l-0.138,0.132l-0.139,0.132l-0.139,0.131l-0.14,0.13l-0.14,0.13l-0.141,0.129l-0.142,0.129l-0.142,0.128l-0.143,0.128l-0.144,0.127l-0.144,0.126l-0.144,0.126l-0.146,0.125l-0.145,0.125l-0.147,0.124l-0.147,0.124l-0.148,0.123l-0.148,0.122l-0.149,0.122l-0.15,0.122l-0.15,0.12l-0.151,0.12l-0.151,0.12l-0.152,0.119l-0.153,0.118l-0.153,0.118l-0.154,0.117l-0.155,0.117l-0.155,0.116l-0.156,0.116l-0.156,0.114l-0.157,0.115l-0.158,0.113l-0.158,0.113l-0.159,0.113l-0.16,0.112l-0.16,0.111l-0.161,0.111l-0.161,0.11l-0.162,0.109l-0.163,0.109l-0.164,0.109l-0.164,0.107l-0.164,0.107l-0.166,0.107l-0.166,0.106l-0.166,0.105l-0.168,0.105l-0.168,0.104l-0.168,0.103l-0.17,0.103l-0.169,0.102l-0.171,0.102l-0.171,0.101l-0.172,0.1l-0.173,0.1l-0.173,0.099l-0.174,0.098l-0.174,0.098l-0.175,0.097l-0.176,0.097l-0.176,0.096l-0.178,0.095l-0.177,0.095l-0.179,0.094l-0.179,0.093l-0.18,0.093l-0.18,0.092l-0.181,0.092l-0.182,0.091l-0.183,0.09l-0.183,0.09l-0.184,0.089l-0.184,0.088l-0.185,0.088l-0.186,0.087l-0.187,0.086l-0.187,0.086l-0.188,0.085l-0.188,0.085l-0.189,0.083l-0.19,0.084l-0.191,0.082l-0.191,0.082l-0.192,0.081l-0.193,0.081l-0.193,0.08l-0.194,0.079l-0.195,0.078l-0.195,0.078l-0.196,0.078l-0.197,0.076l-0.198,0.076l-0.198,0.075l-0.199,0.075l-0.199,0.074l-0.2,0.073l-0.201,0.073l-0.202,0.072l-0.202,0.071l-0.203,0.07l-0.204,0.07l-0.205,0.07l-0.205,0.068l-0.206,0.068l-0.206,0.067l-0.208,0.067l-0.208,0.066l-0.208,0.065l-0.21,0.064l-0.21,0.064l-0.211,0.063l-0.211,0.062l-0.212,0.062l-0.213,0.061l-0.214,0.06l-0.215,0.06l-0.215,0.059l-0.216,0.058l-0.216,0.058l-0.217,0.057l-0.218,0.056l-0.219,0.055l-0.22,0.055l-0.22,0.054l-0.221,0.053l-0.221,0.053l-0.223,0.052l-0.223,0.051l-0.224,0.051l-0.224,0.05l-0.226,0.049l-0.226,0.048l-0.226,0.048l-0.228,0.047l-0.228,0.046l-0.229,0.045l-0.23,0.045l-0.23,0.044l-0.232,0.044l-0.232,0.042l-0.232,0.042l-0.234,0.042l-0.234,0.04l-0.235,0.04l-0.236,0.039l-0.236,0.038l-0.237,0.038l-0.238,0.037l-0.239,0.036l-0.239,0.035l-0.24,0.035l-0.241,0.034l-0.242,0.033l-0.242,0.032l-0.244,0.032l-0.244,0.031l-0.244,0.03l-0.246,0.03l-0.246,0.028l-0.247,0.028l-0.248,0.028l-0.248,0.026l-0.25,0.026l-0.25,0.025l-0.251,0.024l-0.251,0.023l-0.253,0.023l-0.253,0.022l-0.254,0.021l-0.254,0.021l-0.256,0.02l-0.256,0.019l-0.257,0.018l-0.258,0.017l-0.259,0.017l-0.259,0.016l-0.26,0.015l-0.261,0.014l-0.262,0.014l-0.262,0.013l-0.264,0.012l-0.264,0.011l-0.264,0.011l-0.266,0.01l-0.267,0.009l-0.267,0.008l-0.268,0.007l-0.269,0.007l-0.269,0.006l-0.27,0.005l-0.272,0.004l-0.272,0.004l-0.272,0.002l-0.274,0.002l-0.274,0.002l-0.276,0l-0.275,0l-0.274,-0.002l-0.274,-0.002l-0.272,-0.002l-0.272,-0.004l-0.272,-0.004l-0.27,-0.005l-0.269,-0.006l-0.269,-0.007l-0.268,-0.007l-0.268,-0.008l-0.266,-0.009l-0.266,-0.01l-0.264,-0.011l-0.264,-0.011l-0.264,-0.012l-0.262,-0.013l-0.262,-0.014l-0.261,-0.014l-0.26,-0.015l-0.259,-0.016l-0.259,-0.017l-0.258,-0.017l-0.257,-0.018l-0.256,-0.019l-0.256,-0.02l-0.254,-0.021l-0.254,-0.021l-0.253,-0.022l-0.253,-0.023l-0.251,-0.023l-0.251,-0.024l-0.25,-0.025l-0.25,-0.026l-0.248,-0.026l-0.248,-0.028l-0.247,-0.028l-0.246,-0.028l-0.246,-0.03l-0.244,-0.03l-0.244,-0.031l-0.244,-0.032l-0.242,-0.032l-0.242,-0.033l-0.241,-0.034l-0.24,-0.035l-0.239,-0.035l-0.239,-0.036l-0.238,-0.037l-0.237,-0.038l-0.236,-0.038l-0.236,-0.039l-0.235,-0.04l-0.234,-0.04l-0.234,-0.042l-0.232,-0.042l-0.232,-0.042l-0.232,-0.044l-0.23,-0.044l-0.23,-0.045l-0.229,-0.045l-0.228,-0.046l-0.228,-0.047l-0.226,-0.048l-0.226,-0.048l-0.226,-0.049l-0.224,-0.05l-0.224,-0.051l-0.223,-0.051l-0.223,-0.052l-0.221,-0.053l-0.221,-0.053l-0.22,-0.054l-0.22,-0.055l-0.219,-0.055l-0.218,-0.056l-0.217,-0.057l-0.216,-0.058l-0.216,-0.058l-0.215,-0.059l-0.215,-0.06l-0.214,-0.06l-0.213,-0.061l-0.212,-0.062l-0.211,-0.062l-0.211,-0.063l-0.21,-0.064l-0.21,-0.064l-0.208,-0.065l-0.208,-0.066l-0.208,-0.067l-0.206,-0.067l-0.206,-0.068l-0.205,-0.068l-0.205,-0.07l-0.204,-0.07l-0.203,-0.07l-0.202,-0.071l-0.202,-0.072l-0.201,-0.073l-0.2,-0.073l-0.199,-0.074l-0.199,-0.075l-0.199,-0.075l-0.197,-0.076l-0.197,-0.076l-0.196,-0.078l-0.195,-0.078l-0.195,-0.078l-0.194,-0.079l-0.193,-0.08l-0.193,-0.081l-0.192,-0.081l-0.191,-0.082l-0.191,-0.082l-0.19,-0.084l-0.189,-0.083l-0.188,-0.085l-0.188,-0.085l-0.188,-0.086l-0.186,-0.086l-0.186,-0.087l-0.185,-0.088l-0.184,-0.088l-0.184,-0.089l-0.183,-0.09l-0.183,-0.09l-0.182,-0.091l-0.181,-0.092l-0.18,-0.092l-0.18,-0.093l-0.179,-0.093l-0.179,-0.094l-0.177,-0.095l-0.178,-0.095l-0.176,-0.096l-0.176,-0.097l-0.175,-0.097l-0.174,-0.098l-0.174,-0.098l-0.173,-0.099l-0.173,-0.1l-0.172,-0.1l-0.171,-0.101l-0.171,-0.102l-0.169,-0.102l-0.17,-0.103l-0.168,-0.103l-0.168,-0.104l-0.168,-0.105l-0.166,-0.105l-0.166,-0.106l-0.166,-0.107l-0.164,-0.107l-0.164,-0.107l-0.164,-0.109l-0.163,-0.109l-0.162,-0.109l-0.161,-0.11l-0.161,-0.111l-0.16,-0.111l-0.16,-0.112l-0.159,-0.113l-0.158,-0.113l-0.158,-0.113l-0.157,-0.115l-0.156,-0.114l-0.156,-0.116l-0.155,-0.116l-0.155,-0.117l-0.154,-0.117l-0.153,-0.118l-0.153,-0.118l-0.152,-0.119l-0.151,-0.12l-0.151,-0.12l-0.15,-0.12l-0.15,-0.122l-0.149,-0.122l-0.148,-0.122l-0.148,-0.123l-0.147,-0.124l-0.147,-0.124l-0.145,-0.125l-0.146,-0.125l-0.144,-0.126l-0.144,-0.126l-0.144,-0.127l-0.143,-0.128l-0.142,-0.128l-0.142,-0.129l-0.141,-0.129l-0.14,-0.13l-0.14,-0.13l-0.139,-0.131l-0.139,-0.132l-0.138,-0.132l-0.137,-0.133l-0.137,-0.133l-0.136,-0.133l-0.136,-0.135l-0.135,-0.135l-0.134,-0.135l-0.134,-0.136l-0.133,-0.136l-0.133,-0.137l-0.132,-0.138l-0.131,-0.138l-0.131,-0.139l-0.13,-0.139l-0.13,-0.14l-0.129,-0.14l-0.129,-0.141l-0.128,-0.141l-0.127,-0.142l-0.127,-0.143l-0.126,-0.143l-0.126,-0.143l-0.125,-0.144l-0.124,-0.145l-0.124,-0.145l-0.124,-0.145l-0.122,-0.146l-0.123,-0.147l-0.121,-0.147l-0.121,-0.148l-0.121,-0.148l-0.12,-0.149l-0.119,-0.149l-0.119,-0.15l-0.118,-0.15l-0.118,-0.151l-0.117,-0.151l-0.116,-0.152l-0.116,-0.153l-0.116,-0.152l-0.115,-0.154l-0.114,-0.154l-0.114,-0.154l-0.113,-0.155l-0.112,-0.155l-0.112,-0.156l-0.112,-0.157l-0.111,-0.157l-0.11,-0.157l-0.11,-0.158l-0.11,-0.158l-0.108,-0.159l-0.109,-0.16l-0.107,-0.159l-0.107,-0.161l-0.107,-0.161l-0.106,-0.161l-0.106,-0.162l-0.105,-0.162l-0.104,-0.163l-0.104,-0.163l-0.103,-0.164l-0.103,-0.164l-0.102,-0.165l-0.102,-0.165l-0.101,-0.166l-0.101,-0.166l-0.1,-0.167l-0.1,-0.167l-0.099,-0.168l-0.098,-0.168l-0.098,-0.168l-0.098,-0.169l-0.097,-0.17l-0.096,-0.17l-0.096,-0.17l-0.096,-0.171l-0.095,-0.172l-0.094,-0.171l-0.094,-0.173l-0.093,-0.173l-0.093,-0.173l-0.092,-0.173l-0.092,-0.175l-0.091,-0.174l-0.091,-0.175l-0.09,-0.176l-0.09,-0.176l-0.089,-0.176l-0.089,-0.177l-0.088,-0.177l-0.088,-0.178l-0.087,-0.178l-0.087,-0.179l-0.086,-0.179l-0.086,-0.18l-0.085,-0.18l-0.085,-0.18l-0.084,-0.181l-0.084,-0.181l-0.083,-0.182l-0.083,-0.182l-0.082,-0.183l-0.082,-0.183l-0.081,-0.183l-0.081,-0.184l-0.08,-0.185l-0.08,-0.185l-0.079,-0.185l-0.079,-0.185l-0.078,-0.186l-0.078,-0.187l-0.077,-0.187l-0.077,-0.187l-0.076,-0.188l-0.076,-0.188l-0.075,-0.189l-0.075,-0.189l-0.075,-0.189l-0.074,-0.19l-0.073,-0.19l-0.073,-0.191l-0.073,-0.191l-0.072,-0.192l-0.071,-0.192l-0.072,-0.192l-0.07,-0.193l-0.07,-0.193l-0.07,-0.193l-0.069,-0.194l-0.069,-0.195l-0.068,-0.194l-0.068,-0.196l-0.068,-0.195l-0.066,-0.196l-0.067,-0.196l-0.066,-0.197l-0.065,-0.197l-0.065,-0.198l-0.065,-0.198l-0.064,-0.198l-0.064,-0.199l-0.063,-0.199l-0.063,-0.199l-0.062,-0.2l-0.062,-0.2l-0.062,-0.201l-0.061,-0.201l-0.06,-0.201l-0.06,-0.202l-0.06,-0.202l-0.059,-0.203l-0.059,-0.203l-0.058,-0.203l-0.058,-0.204l-0.058,-0.204l-0.057,-0.204l-0.056,-0.205l-0.056,-0.205l-0.056,-0.206l-0.055,-0.206l-0.055,-0.206l-0.054,-0.206l-0.054,-0.207l-0.054,-0.208l-0.053,-0.207l-0.053,-0.209l-0.052,-0.208l-0.052,-0.209l-0.051,-0.209l-0.051,-0.209l-0.051,-0.21l-0.05,-0.21l-0.049,-0.211l-0.05,-0.211l-0.048,-0.211l-0.049,-0.212l-0.048,-0.212l-0.047,-0.212l-0.048,-0.213l-0.046,-0.213l-0.047,-0.213l-0.046,-0.214l-0.045,-0.214l-0.045,-0.214l-0.045,-0.215l-0.044,-0.215l-0.044,-0.215l-0.044,-0.216l-0.043,-0.216l-0.042,-0.216l-0.043,-0.217l-0.041,-0.217l-0.042,-0.217l-0.041,-0.218l-0.041,-0.218l-0.04,-0.218l-0.04,-0.219l-0.039,-0.219l-0.039,-0.219l-0.039,-0.22l-0.038,-0.219l-0.038,-0.221l-0.038,-0.22l-0.037,-0.221l-0.036,-0.221l-0.037,-0.222l-0.036,-0.222l-0.035,-0.222l-0.035,-0.222l-0.035,-0.223l-0.035,-0.223l-0.034,-0.223l-0.033,-0.224l-0.033,-0.224l-0.033,-0.224l-0.033,-0.225l-0.032,-0.225l-0.032,-0.225l-0.031,-0.225l-0.031,-0.226l-0.031,-0.226l-0.03,-0.226l-0.03,-0.227l-0.029,-0.227l-0.029,-0.227l-0.029,-0.228l-0.029,-0.227l-0.028,-0.229l-0.027,-0.228l-0.028,-0.229l-0.027,-0.228l-0.026,-0.23l-0.026,-0.229l-0.026,-0.23l-0.026,-0.23l-0.025,-0.23l-0.025,-0.231l-0.024,-0.231l-0.024,-0.231l-0.024,-0.231l-0.023,-0.232l-0.023,-0.232l-0.023,-0.232l-0.044,-0.466l-0.043,-0.466l-0.042,-0.467l-0.04,-0.469l-0.039,-0.469l-0.037,-0.471l-0.036,-0.471l-0.035,-0.473l-0.033,-0.473l-0.032,-0.475l-0.031,-0.475l-0.03,-0.477l-0.028,-0.477l-0.027,-0.479l-0.025,-0.479l-0.025,-0.48l-0.023,-0.481l-0.021,-0.482l-0.021,-0.483l-0.019,-0.484l-0.018,-0.485l-0.017,-0.485l-0.016,-0.487l-0.014,-0.487l-0.013,-0.488l-0.013,-0.489l-0.01,-0.49l-0.01,-0.491l-0.009,-0.491l-0.007,-0.492l-0.006,-0.493l-0.005,-0.494l-0.004,-0.495l-0.003,-0.495l-0.001,-0.496l-0.001,-0.497l0.001,-0.497l0.002,-0.496l0.003,-0.495l0.005,-0.495l0.007,-0.494l0.008,-0.493l0.009,-0.492l0.011,-0.491l0.012,-0.491l0.013,-0.49l0.015,-0.489l0.017,-0.488l0.018,-0.487l0.009,-0.244l0.01,-0.243l0.011,-0.243l0.01,-0.242l0.011,-0.243l0.012,-0.242l0.011,-0.242l0.013,-0.242l0.012,-0.241l0.013,-0.242l0.013,-0.241l0.014,-0.241l0.014,-0.241l0.014,-0.24l0.015,-0.24l0.015,-0.24l0.016,-0.24l0.016,-0.24l0.016,-0.239l0.016,-0.239l0.017,-0.239l0.018,-0.238l0.018,-0.239l0.018,-0.238l0.018,-0.238l0.019,-0.237l0.02,-0.238l0.019,-0.237l0.02,-0.237l0.021,-0.236l0.021,-0.237l0.021,-0.236l0.021,-0.236l0.022,-0.235l0.023,-0.236l0.023,-0.235l0.023,-0.235l0.023,-0.234l0.024,-0.235l0.025,-0.234l0.024,-0.234l0.025,-0.233l0.026,-0.233l0.026,-0.233l0.026,-0.233l0.027,-0.233l0.027,-0.232l0.027,-0.232l0.028,-0.232l0.029,-0.231l0.028,-0.231l0.029,-0.231l0.03,-0.231l0.03,-0.23l0.03,-0.23l0.03,-0.23l0.031,-0.229l0.032,-0.23l0.032,-0.229l0.032,-0.228l0.033,-0.229l0.033,-0.228l0.033,-0.227l0.034,-0.228l0.034,-0.227l0.035,-0.227l0.035,-0.227l0.036,-0.226l0.035,-0.226l0.037,-0.226l0.036,-0.225l0.038,-0.225l0.037,-0.225l0.038,-0.225l0.038,-0.224l0.039,-0.224l0.039,-0.224l0.04,-0.223l0.04,-0.223l0.04,-0.223l0.041,-0.222l0.041,-0.222l0.042,-0.222l0.042,-0.222l0.043,-0.221l0.042,-0.221l0.044,-0.22l0.043,-0.221l0.045,-0.22l0.044,-0.219l0.045,-0.219l0.046,-0.219l0.045,-0.219l0.047,-0.218l0.046,-0.218l0.047,-0.218l0.048,-0.217l0.048,-0.217l0.048,-0.217l0.049,-0.216l0.049,-0.216l0.05,-0.216l0.05,-0.215l0.05,-0.215l0.051,-0.215l0.052,-0.214l0.051,-0.214l0.053,-0.214l0.052,-0.213l0.053,-0.213l0.054,-0.213l0.054,-0.212l0.054,-0.212l0.055,-0.212l0.055,-0.211l0.056,-0.211l0.056,-0.211l0.056,-0.21l0.057,-0.21l0.058,-0.209l0.057,-0.209l0.059,-0.209l0.058,-0.208l0.06,-0.209l0.059,-0.207l0.06,-0.208l0.061,-0.207l0.06,-0.206l0.062,-0.206l0.062,-0.206l0.062,-0.206l0.062,-0.205l0.064,-0.205l0.063,-0.204l0.064,-0.204l0.065,-0.204l0.064,-0.203l0.066,-0.203l0.066,-0.203l0.066,-0.202l0.067,-0.202l0.067,-0.201l0.067,-0.201l0.068,-0.201l0.069,-0.2l0.069,-0.2l0.069,-0.199l0.07,-0.199l0.07,-0.199l0.071,-0.198l0.071,-0.198l0.072,-0.198l0.072,-0.197l0.072,-0.197l0.073,-0.196l0.074,-0.196l0.074,-0.196l0.074,-0.195l0.075,-0.194l0.075,-0.195l0.076,-0.194l0.076,-0.193l0.077,-0.193l0.077,-0.193l0.078,-0.192l0.078,-0.192l0.078,-0.192l0.079,-0.191l0.08,-0.191l0.08,-0.19l0.08,-0.19l0.081,-0.189l0.081,-0.189l0.082,-0.189l0.082,-0.188l0.083,-0.188l0.083,-0.187l0.084,-0.187l0.084,-0.187l0.084,-0.186l0.086,-0.185l0.085,-0.186l0.086,-0.184l0.087,-0.185l0.087,-0.184l0.087,-0.183l0.088,-0.183l0.088,-0.183l0.089,-0.182l0.089,-0.182l0.09,-0.181l0.091,-0.181l0.09,-0.18l0.092,-0.18l0.091,-0.18l0.092,-0.179l0.093,-0.179l0.093,-0.178l0.094,-0.178l0.094,-0.177l0.095,-0.177l0.095,-0.176l0.095,-0.176l0.096,-0.176l0.097,-0.175l0.097,-0.174l0.098,-0.175l0.098,-0.173l0.098,-0.174l0.099,-0.172l0.099,-0.173l0.1,-0.171l0.101,-0.172l0.101,-0.171l0.101,-0.17l0.102,-0.17l0.103,-0.17l0.102,-0.169l0.104,-0.168l0.104,-0.168l0.104,-0.168l0.105,-0.167l0.105,-0.167l0.106,-0.166l0.107,-0.166l0.106,-0.165l0.108,-0.165l0.108,-0.164l0.108,-0.164l0.109,-0.163l0.109,-0.163l0.11,-0.162l0.11,-0.162l0.111,-0.161l0.111,-0.161l0.112,-0.161l0.113,-0.16l0.113,-0.159l0.113,-0.159l0.114,-0.158l0.114,-0.158l0.115,-0.158l0.115,-0.156l0.116,-0.157l0.117,-0.156l0.117,-0.155l0.117,-0.155l0.118,-0.154l0.118,-0.154l0.119,-0.154l0.12,-0.152l0.12,-0.153l0.12,-0.152l0.121,-0.151l0.122,-0.151l0.122,-0.15l0.122,-0.15l0.123,-0.149l0.124,-0.149l0.124,-0.148l0.125,-0.148l0.125,-0.147l0.125,-0.147l0.127,-0.146l0.126,-0.145l0.127,-0.145l0.128,-0.145l0.128,-0.144l0.129,-0.144l0.129,-0.143l0.13,-0.142l0.131,-0.142l0.13,-0.141l0.132,-0.141l0.132,-0.14l0.132,-0.14l0.133,-0.139l0.134,-0.139l0.134,-0.138l0.134,-0.138l0.135,-0.137l0.136,-0.136l0.136,-0.136l0.137,-0.135l0.137,-0.135l0.137,-0.135l0.139,-0.133l0.138,-0.134l0.14,-0.132l0.14,-0.132l0.14,-0.132l0.141,-0.131l0.141,-0.13l0.142,-0.13l0.143,-0.129l0.143,-0.129l0.144,-0.128l0.144,-0.128l0.144,-0.127l0.146,-0.126l0.145,-0.126l0.147,-0.125l0.146,-0.125l0.148,-0.124l0.148,-0.124l0.148,-0.123l0.149,-0.122l0.15,-0.122l0.15,-0.122l0.15,-0.12l0.152,-0.121l0.151,-0.119l0.153,-0.119l0.152,-0.118l0.154,-0.118l0.154,-0.117l0.154,-0.117l0.155,-0.116l0.156,-0.116l0.156,-0.115l0.157,-0.114l0.157,-0.113l0.157,-0.114l0.159,-0.112l0.159,-0.112l0.159,-0.111l0.16,-0.111l0.161,-0.11l0.161,-0.11l0.161,-0.108l0.163,-0.109l0.162,-0.107l0.164,-0.107l0.164,-0.107l0.164,-0.106l0.165,-0.105l0.166,-0.105l0.166,-0.104l0.166,-0.103l0.168,-0.103l0.167,-0.102l0.169,-0.102l0.169,-0.101l0.169,-0.1l0.17,-0.1l0.171,-0.099l0.171,-0.098l0.172,-0.098l0.172,-0.097l0.173,-0.097l0.174,-0.096l0.174,-0.095l0.174,-0.095l0.176,-0.094l0.175,-0.093l0.177,-0.093l0.177,-0.092l0.177,-0.092l0.178,-0.091l0.179,-0.09l0.179,-0.09l0.18,-0.089l0.18,-0.088l0.181,-0.088l0.181,-0.087l0.182,-0.086l0.183,-0.086l0.183,-0.085l0.184,-0.085l0.184,-0.083l0.185,-0.084l0.186,-0.082l0.186,-0.082l0.187,-0.081l0.187,-0.081l0.188,-0.08l0.188,-0.079l0.189,-0.078l0.19,-0.078l0.19,-0.078l0.191,-0.076l0.192,-0.076l0.191,-0.075l0.193,-0.075l0.193,-0.074l0.194,-0.073l0.194,-0.073l0.195,-0.072l0.196,-0.071l0.196,-0.071l0.196,-0.069l0.198,-0.07l0.198,-0.068l0.198,-0.068l0.199,-0.067l0.2,-0.067l0.2,-0.066l0.201,-0.065l0.201,-0.064l0.202,-0.064l0.203,-0.063l0.203,-0.062l0.204,-0.062l0.204,-0.061l0.205,-0.06l0.206,-0.06l0.206,-0.059l0.207,-0.058l0.208,-0.058l0.208,-0.057l0.208,-0.056l0.209,-0.055l0.21,-0.055l0.211,-0.054l0.211,-0.053l0.211,-0.053l0.213,-0.052l0.213,-0.051l0.213,-0.051l0.214,-0.05l0.215,-0.049l0.215,-0.048l0.216,-0.048l0.217,-0.047l0.217,-0.046l0.218,-0.045l0.218,-0.045l0.219,-0.044l0.219,-0.044l0.221,-0.042l0.22,-0.042l0.222,-0.042l0.222,-0.04l0.223,-0.04l0.223,-0.039l0.224,-0.038l0.224,-0.038l0.225,-0.037l0.226,-0.036l0.227,-0.035l0.227,-0.035l0.227,-0.034l0.228,-0.033l0.229,-0.032l0.23,-0.032l0.23,-0.031l0.231,-0.03l0.231,-0.03l0.232,-0.028l0.233,-0.028l0.233,-0.028l0.234,-0.026l0.234,-0.026l0.235,-0.025l0.236,-0.024l0.236,-0.024l0.237,-0.022l0.238,-0.022l0.238,-0.022l0.239,-0.02l0.24,-0.02l0.24,-0.019l0.24,-0.018l0.242,-0.017l0.242,-0.017l0.243,-0.016l0.243,-0.015l0.244,-0.014l0.245,-0.014l0.245,-0.013l0.246,-0.012l0.246,-0.011l0.247,-0.011l0.248,-0.01l0.248,-0.009l0.25,-0.008l0.249,-0.007l0.251,-0.007l0.251,-0.006l0.251,-0.005l0.252,-0.004l0.253,-0.004l0.254,-0.002l0.254,-0.002l0.255,-0.002l0.255,0l0.256,0Zm-0.5,3.474l-0.244,0.001l-0.244,0.002l-0.242,0.003l-0.242,0.003l-0.242,0.004l-0.24,0.005l-0.24,0.006l-0.24,0.006l-0.239,0.007l-0.238,0.008l-0.237,0.009l-0.236,0.009l-0.236,0.01l-0.236,0.011l-0.234,0.012l-0.234,0.012l-0.234,0.013l-0.232,0.014l-0.232,0.014l-0.231,0.015l-0.231,0.016l-0.23,0.017l-0.229,0.017l-0.228,0.018l-0.228,0.019l-0.227,0.019l-0.227,0.02l-0.226,0.021l-0.225,0.022l-0.224,0.022l-0.224,0.023l-0.224,0.024l-0.222,0.024l-0.222,0.026l-0.221,0.025l-0.221,0.027l-0.22,0.027l-0.219,0.028l-0.219,0.029l-0.218,0.029l-0.217,0.03l-0.217,0.031l-0.216,0.031l-0.215,0.032l-0.215,0.033l-0.214,0.034l-0.213,0.034l-0.213,0.035l-0.213,0.035l-0.211,0.036l-0.211,0.037l-0.21,0.038l-0.21,0.038l-0.209,0.039l-0.208,0.039l-0.207,0.04l-0.208,0.041l-0.206,0.042l-0.205,0.042l-0.206,0.043l-0.205,0.044l-0.202,0.044l-0.204,0.045l-0.204,0.045l-0.201,0.047l-0.201,0.046l-0.2,0.048l-0.201,0.048l-0.2,0.049l-0.199,0.049l-0.197,0.05l-0.197,0.051l-0.198,0.051l-0.197,0.053l-0.195,0.052l-0.196,0.054l-0.194,0.053l-0.194,0.055l-0.192,0.055l-0.193,0.056l-0.192,0.057l-0.192,0.057l-0.191,0.058l-0.19,0.058l-0.19,0.059l-0.189,0.06l-0.188,0.06l-0.188,0.061l-0.187,0.061l-0.186,0.062l-0.187,0.063l-0.185,0.064l-0.184,0.063l-0.184,0.065l-0.184,0.066l-0.184,0.066l-0.182,0.066l-0.182,0.067l-0.182,0.068l-0.179,0.068l-0.18,0.069l-0.18,0.069l-0.178,0.07l-0.18,0.071l-0.177,0.072l-0.177,0.072l-0.177,0.072l-0.175,0.073l-0.177,0.074l-0.174,0.075l-0.173,0.074l-0.175,0.076l-0.174,0.076l-0.172,0.077l-0.171,0.077l-0.171,0.078l-0.172,0.079l-0.17,0.078l-0.169,0.08l-0.17,0.081l-0.169,0.081l-0.167,0.081l-0.167,0.082l-0.168,0.083l-0.166,0.082l-0.165,0.084l-0.166,0.085l-0.165,0.085l-0.163,0.085l-0.164,0.086l-0.163,0.087l-0.162,0.087l-0.162,0.088l-0.162,0.089l-0.161,0.088l-0.16,0.09l-0.16,0.09l-0.159,0.091l-0.159,0.091l-0.158,0.092l-0.158,0.092l-0.156,0.093l-0.156,0.093l-0.157,0.095l-0.156,0.095l-0.154,0.095l-0.155,0.095l-0.154,0.097l-0.152,0.096l-0.153,0.098l-0.153,0.098l-0.152,0.099l-0.15,0.098l-0.151,0.1l-0.151,0.101l-0.149,0.101l-0.15,0.101l-0.148,0.102l-0.149,0.103l-0.147,0.102l-0.147,0.104l-0.147,0.104l-0.146,0.105l-0.145,0.105l-0.145,0.106l-0.144,0.106l-0.144,0.107l-0.145,0.108l-0.142,0.108l-0.142,0.108l-0.143,0.109l-0.141,0.11l-0.141,0.11l-0.141,0.111l-0.14,0.111l-0.139,0.111l-0.139,0.113l-0.139,0.113l-0.138,0.113l-0.137,0.114l-0.137,0.115l-0.137,0.115l-0.135,0.115l-0.136,0.116l-0.136,0.118l-0.134,0.116l-0.134,0.118l-0.134,0.118l-0.133,0.119l-0.132,0.12l-0.132,0.119l-0.132,0.121l-0.132,0.121l-0.13,0.121l-0.13,0.122l-0.13,0.123l-0.129,0.123l-0.129,0.123l-0.128,0.124l-0.128,0.125l-0.127,0.125l-0.127,0.126l-0.127,0.127l-0.125,0.126l-0.125,0.127l-0.126,0.128l-0.125,0.129l-0.124,0.128l-0.123,0.129l-0.123,0.13l-0.123,0.131l-0.122,0.131l-0.121,0.131l-0.121,0.132l-0.121,0.132l-0.121,0.134l-0.12,0.134l-0.119,0.133l-0.118,0.134l-0.119,0.136l-0.118,0.135l-0.117,0.136l-0.118,0.137l-0.116,0.137l-0.117,0.139l-0.115,0.137l-0.115,0.139l-0.115,0.139l-0.114,0.139l-0.114,0.141l-0.114,0.141l-0.112,0.14l-0.113,0.143l-0.112,0.142l-0.112,0.143l-0.11,0.142l-0.111,0.144l-0.111,0.145l-0.109,0.145l-0.109,0.145l-0.109,0.145l-0.109,0.147l-0.108,0.147l-0.107,0.147l-0.107,0.148l-0.107,0.148l-0.106,0.148l-0.105,0.15l-0.106,0.15l-0.105,0.15l-0.104,0.15l-0.104,0.152l-0.103,0.152l-0.104,0.153l-0.102,0.152l-0.102,0.152l-0.102,0.154l-0.101,0.155l-0.1,0.154l-0.101,0.156l-0.1,0.156l-0.1,0.156l-0.098,0.156l-0.099,0.157l-0.098,0.158l-0.098,0.158l-0.097,0.159l-0.097,0.159l-0.097,0.159l-0.095,0.16l-0.096,0.161l-0.095,0.16l-0.094,0.162l-0.095,0.163l-0.094,0.162l-0.093,0.162l-0.092,0.163l-0.093,0.164l-0.092,0.165l-0.092,0.165l-0.091,0.165l-0.09,0.165l-0.091,0.167l-0.09,0.167l-0.089,0.166l-0.089,0.168l-0.088,0.168l-0.089,0.169l-0.087,0.169l-0.087,0.169l-0.087,0.171l-0.087,0.17l-0.085,0.17l-0.086,0.172l-0.085,0.171l-0.084,0.172l-0.085,0.173l-0.084,0.173l-0.083,0.174l-0.083,0.174l-0.082,0.174l-0.083,0.175l-0.081,0.176l-0.082,0.176l-0.08,0.176l-0.081,0.176l-0.079,0.177l-0.08,0.178l-0.079,0.178l-0.078,0.178l-0.079,0.18l-0.078,0.179l-0.077,0.181l-0.077,0.179l-0.076,0.181l-0.077,0.181l-0.075,0.181l-0.075,0.182l-0.075,0.183l-0.075,0.183l-0.073,0.183l-0.074,0.184l-0.073,0.184l-0.073,0.184l-0.072,0.185l-0.072,0.186l-0.072,0.187l-0.07,0.185l-0.071,0.187l-0.07,0.187l-0.07,0.187l-0.069,0.189l-0.069,0.188l-0.069,0.189l-0.068,0.189l-0.067,0.19l-0.067,0.189l-0.067,0.192l-0.067,0.19l-0.065,0.191l-0.066,0.193l-0.065,0.191l-0.065,0.193l-0.064,0.193l-0.064,0.193l-0.064,0.194l-0.063,0.194l-0.063,0.195l-0.062,0.195l-0.061,0.194l-0.062,0.196l-0.061,0.196l-0.061,0.198l-0.06,0.197l-0.059,0.196l-0.059,0.197l-0.059,0.199l-0.059,0.198l-0.058,0.199l-0.058,0.2l-0.057,0.2l-0.057,0.199l-0.056,0.201l-0.056,0.201l-0.056,0.201l-0.055,0.202l-0.055,0.201l-0.055,0.203l-0.054,0.203l-0.053,0.202l-0.053,0.204l-0.053,0.203l-0.052,0.205l-0.052,0.204l-0.052,0.204l-0.051,0.207l-0.051,0.205l-0.05,0.205l-0.05,0.208l-0.05,0.207l-0.049,0.207l-0.048,0.207l-0.049,0.207l-0.047,0.208l-0.048,0.21l-0.047,0.209l-0.047,0.209l-0.046,0.209l-0.046,0.21l-0.046,0.21l-0.045,0.211l-0.044,0.211l-0.045,0.211l-0.044,0.213l-0.043,0.212l-0.043,0.211l-0.043,0.214l-0.042,0.213l-0.042,0.213l-0.042,0.214l-0.041,0.214l-0.04,0.214l-0.041,0.215l-0.04,0.215l-0.039,0.215l-0.039,0.217l-0.039,0.216l-0.038,0.216l-0.039,0.217l-0.037,0.217l-0.037,0.216l-0.037,0.219l-0.036,0.218l-0.036,0.219l-0.036,0.218l-0.035,0.219l-0.035,0.22l-0.034,0.219l-0.034,0.22l-0.034,0.221l-0.033,0.22l-0.033,0.22l-0.033,0.222l-0.032,0.222l-0.032,0.222l-0.031,0.221l-0.031,0.222l-0.03,0.224l-0.031,0.223l-0.029,0.223l-0.03,0.223l-0.029,0.224l-0.028,0.224l-0.029,0.226l-0.028,0.225l-0.027,0.224l-0.027,0.225l-0.027,0.227l-0.026,0.225l-0.026,0.227l-0.026,0.227l-0.025,0.226l-0.025,0.228l-0.024,0.227l-0.024,0.228l-0.024,0.228l-0.023,0.228l-0.023,0.228l-0.023,0.229l-0.022,0.229l-0.022,0.23l-0.021,0.23l-0.021,0.228l-0.021,0.231l-0.02,0.231l-0.02,0.231l-0.02,0.231l-0.019,0.231l-0.019,0.231l-0.018,0.232l-0.019,0.232l-0.017,0.232l-0.018,0.234l-0.017,0.232l-0.016,0.232l-0.016,0.235l-0.016,0.234l-0.016,0.233l-0.015,0.234l-0.015,0.235l-0.014,0.233l-0.014,0.235l-0.014,0.237l-0.013,0.234l-0.013,0.236l-0.013,0.236l-0.012,0.236l-0.012,0.236l-0.011,0.236l-0.011,0.238l-0.011,0.237l-0.011,0.237l-0.01,0.237l-0.009,0.239l-0.01,0.236l-0.017,0.478l-0.016,0.478l-0.015,0.478l-0.014,0.479l-0.011,0.481l-0.011,0.481l-0.009,0.482l-0.008,0.482l-0.006,0.484l-0.005,0.485l-0.003,0.485l-0.002,0.486l-0.001,0.487l0.001,0.489l0.001,0.488l0.003,0.488l0.004,0.486l0.005,0.486l0.006,0.485l0.007,0.484l0.008,0.483l0.01,0.482l0.011,0.482l0.011,0.48l0.013,0.479l0.014,0.479l0.016,0.478l0.016,0.476l0.018,0.476l0.019,0.475l0.02,0.474l0.022,0.472l0.022,0.472l0.024,0.471l0.025,0.469l0.026,0.469l0.028,0.468l0.029,0.466l0.03,0.466l0.031,0.464l0.033,0.464l0.034,0.461l0.035,0.462l0.037,0.46l0.038,0.459l0.039,0.458l0.041,0.456l0.042,0.455l0.043,0.457l0.022,0.225l0.022,0.225l0.023,0.227l0.023,0.226l0.024,0.226l0.024,0.225l0.024,0.225l0.024,0.224l0.025,0.224l0.025,0.224l0.026,0.224l0.026,0.223l0.026,0.224l0.027,0.223l0.027,0.221l0.027,0.223l0.028,0.222l0.028,0.22l0.028,0.222l0.029,0.221l0.029,0.221l0.029,0.219l0.03,0.22l0.03,0.22l0.031,0.219l0.031,0.219l0.031,0.219l0.031,0.219l0.032,0.217l0.033,0.218l0.032,0.217l0.033,0.216l0.034,0.217l0.034,0.217l0.034,0.216l0.034,0.216l0.035,0.214l0.035,0.215l0.036,0.214l0.036,0.215l0.036,0.214l0.037,0.213l0.037,0.214l0.038,0.213l0.037,0.211l0.039,0.213l0.038,0.212l0.039,0.211l0.04,0.211l0.039,0.211l0.04,0.209l0.041,0.211l0.041,0.21l0.041,0.209l0.042,0.208l0.042,0.209l0.042,0.208l0.043,0.208l0.043,0.208l0.044,0.207l0.044,0.206l0.044,0.206l0.045,0.206l0.045,0.206l0.045,0.205l0.046,0.205l0.046,0.204l0.047,0.204l0.047,0.203l0.048,0.204l0.048,0.203l0.048,0.203l0.048,0.201l0.05,0.202l0.049,0.202l0.05,0.2l0.05,0.201l0.051,0.201l0.051,0.199l0.051,0.2l0.052,0.198l0.052,0.198l0.053,0.199l0.053,0.198l0.054,0.197l0.054,0.197l0.054,0.197l0.055,0.196l0.055,0.195l0.055,0.196l0.056,0.195l0.056,0.194l0.057,0.195l0.057,0.193l0.058,0.193l0.058,0.193l0.058,0.193l0.059,0.192l0.059,0.192l0.06,0.191l0.06,0.191l0.061,0.19l0.06,0.189l0.062,0.19l0.062,0.19l0.062,0.188l0.062,0.189l0.063,0.187l0.063,0.187l0.064,0.188l0.065,0.186l0.065,0.187l0.065,0.186l0.065,0.184l0.066,0.184l0.067,0.186l0.066,0.184l0.067,0.182l0.068,0.184l0.069,0.183l0.068,0.182l0.069,0.182l0.069,0.181l0.07,0.18l0.07,0.181l0.071,0.18l0.071,0.18l0.072,0.179l0.072,0.178l0.072,0.178l0.073,0.178l0.074,0.178l0.073,0.176l0.074,0.176l0.075,0.177l0.075,0.175l0.076,0.175l0.076,0.175l0.076,0.173l0.077,0.173l0.077,0.174l0.078,0.173l0.078,0.172l0.078,0.171l0.08,0.172l0.079,0.171l0.08,0.17l0.081,0.17l0.08,0.17l0.082,0.168l0.082,0.169l0.082,0.168l0.082,0.167l0.084,0.168l0.083,0.166l0.084,0.166l0.084,0.165l0.085,0.166l0.086,0.165l0.086,0.164l0.086,0.163l0.087,0.163l0.087,0.163l0.088,0.162l0.088,0.162l0.088,0.162l0.09,0.161l0.089,0.16l0.09,0.16l0.09,0.159l0.092,0.16l0.091,0.158l0.091,0.157l0.093,0.158l0.092,0.156l0.094,0.157l0.094,0.156l0.094,0.156l0.094,0.154l0.095,0.155l0.096,0.154l0.096,0.153l0.097,0.153l0.097,0.154l0.097,0.151l0.098,0.151l0.098,0.151l0.1,0.151l0.099,0.15l0.1,0.15l0.1,0.148l0.101,0.148l0.102,0.149l0.101,0.147l0.102,0.147l0.104,0.147l0.102,0.146l0.104,0.145l0.105,0.146l0.104,0.144l0.105,0.144l0.106,0.143l0.106,0.143l0.107,0.143l0.107,0.142l0.108,0.141l0.108,0.141l0.109,0.14l0.109,0.141l0.11,0.139l0.109,0.139l0.111,0.138l0.112,0.138l0.111,0.138l0.112,0.136l0.113,0.137l0.113,0.136l0.114,0.135l0.114,0.135l0.114,0.133l0.115,0.134l0.117,0.134l0.116,0.133l0.116,0.132l0.118,0.132l0.117,0.13l0.119,0.131l0.119,0.131l0.119,0.129l0.12,0.129l0.12,0.129l0.12,0.127l0.123,0.129l0.122,0.127l0.122,0.126l0.123,0.126l0.124,0.126l0.124,0.125l0.124,0.124l0.125,0.123l0.125,0.124l0.127,0.124l0.127,0.122l0.127,0.121l0.128,0.121l0.128,0.121l0.129,0.121l0.13,0.12l0.13,0.119l0.131,0.119l0.13,0.117l0.131,0.118l0.133,0.117l0.133,0.117l0.133,0.116l0.133,0.114l0.136,0.116l0.135,0.115l0.135,0.113l0.136,0.114l0.137,0.113l0.137,0.112l0.137,0.111l0.14,0.112l0.138,0.111l0.14,0.11l0.14,0.11l0.14,0.108l0.141,0.109l0.143,0.108l0.142,0.108l0.143,0.106l0.144,0.107l0.144,0.106l0.144,0.105l0.146,0.105l0.146,0.104l0.146,0.104l0.148,0.103l0.148,0.103l0.148,0.102l0.149,0.101l0.15,0.102l0.149,0.1l0.151,0.099l0.151,0.1l0.152,0.098l0.154,0.099l0.152,0.098l0.154,0.096l0.154,0.097l0.156,0.097l0.156,0.095l0.156,0.095l0.157,0.094l0.157,0.094l0.158,0.093l0.159,0.093l0.16,0.092l0.159,0.092l0.161,0.091l0.162,0.09l0.161,0.09l0.164,0.09l0.163,0.089l0.163,0.087l0.165,0.088l0.166,0.088l0.165,0.086l0.166,0.086l0.168,0.085l0.168,0.085l0.168,0.084l0.169,0.084l0.17,0.083l0.171,0.083l0.171,0.082l0.172,0.081l0.172,0.081l0.173,0.08l0.174,0.08l0.175,0.079l0.175,0.078l0.176,0.078l0.176,0.077l0.178,0.077l0.177,0.077l0.179,0.075l0.179,0.075l0.181,0.074l0.18,0.074l0.181,0.073l0.182,0.073l0.182,0.072l0.185,0.071l0.183,0.071l0.186,0.07l0.185,0.07l0.186,0.069l0.188,0.068l0.187,0.068l0.188,0.067l0.19,0.067l0.188,0.066l0.191,0.065l0.193,0.065l0.191,0.064l0.192,0.063l0.194,0.063l0.194,0.063l0.195,0.061l0.196,0.062l0.196,0.06l0.197,0.06l0.198,0.059l0.199,0.058l0.199,0.059l0.2,0.057l0.2,0.056l0.202,0.056l0.202,0.056l0.203,0.055l0.204,0.054l0.204,0.053l0.206,0.053l0.206,0.052l0.206,0.052l0.208,0.051l0.208,0.05l0.209,0.05l0.209,0.049l0.21,0.048l0.212,0.048l0.212,0.047l0.213,0.046l0.214,0.046l0.214,0.045l0.215,0.044l0.216,0.044l0.216,0.043l0.218,0.042l0.218,0.042l0.219,0.041l0.22,0.041l0.22,0.039l0.221,0.039l0.223,0.039l0.222,0.037l0.224,0.037l0.225,0.037l0.225,0.036l0.226,0.035l0.227,0.034l0.226,0.033l0.229,0.033l0.23,0.033l0.23,0.031l0.23,0.031l0.232,0.03l0.233,0.03l0.232,0.029l0.234,0.028l0.235,0.027l0.236,0.027l0.236,0.026l0.237,0.025l0.238,0.025l0.238,0.023l0.24,0.024l0.241,0.022l0.241,0.022l0.242,0.021l0.243,0.02l0.243,0.02l0.245,0.019l0.246,0.018l0.245,0.017l0.247,0.017l0.248,0.016l0.249,0.015l0.249,0.015l0.25,0.013l0.25,0.013l0.253,0.013l0.253,0.011l0.253,0.011l0.254,0.01l0.256,0.01l0.255,0.008l0.257,0.008l0.258,0.007l0.259,0.007l0.258,0.005l0.261,0.005l0.261,0.005l0.261,0.003l0.263,0.003l0.264,0.001l0.264,0.002l0.265,0l0.266,0l0.264,-0.002l0.264,-0.001l0.263,-0.003l0.261,-0.003l0.261,-0.005l0.261,-0.005l0.258,-0.005l0.259,-0.007l0.258,-0.007l0.257,-0.008l0.255,-0.008l0.256,-0.01l0.254,-0.01l0.253,-0.011l0.253,-0.011l0.253,-0.013l0.25,-0.013l0.25,-0.013l0.249,-0.015l0.249,-0.015l0.248,-0.016l0.247,-0.017l0.245,-0.017l0.246,-0.018l0.245,-0.019l0.243,-0.02l0.243,-0.02l0.242,-0.021l0.241,-0.022l0.241,-0.022l0.24,-0.024l0.238,-0.023l0.238,-0.025l0.237,-0.025l0.236,-0.026l0.236,-0.027l0.235,-0.027l0.234,-0.028l0.232,-0.029l0.233,-0.03l0.232,-0.03l0.23,-0.031l0.23,-0.031l0.23,-0.033l0.228,-0.033l0.227,-0.033l0.227,-0.034l0.226,-0.035l0.225,-0.036l0.225,-0.037l0.224,-0.037l0.222,-0.037l0.223,-0.039l0.221,-0.039l0.22,-0.039l0.22,-0.041l0.218,-0.041l0.219,-0.042l0.218,-0.042l0.216,-0.043l0.216,-0.044l0.215,-0.044l0.214,-0.045l0.214,-0.046l0.213,-0.046l0.212,-0.047l0.211,-0.048l0.211,-0.048l0.209,-0.049l0.209,-0.05l0.208,-0.05l0.208,-0.051l0.206,-0.052l0.206,-0.052l0.206,-0.053l0.204,-0.053l0.204,-0.054l0.203,-0.055l0.202,-0.056l0.202,-0.056l0.2,-0.056l0.2,-0.057l0.199,-0.059l0.199,-0.058l0.198,-0.059l0.197,-0.06l0.196,-0.06l0.196,-0.062l0.195,-0.061l0.194,-0.063l0.194,-0.063l0.192,-0.063l0.191,-0.064l0.193,-0.065l0.191,-0.065l0.188,-0.066l0.19,-0.067l0.188,-0.067l0.188,-0.068l0.187,-0.068l0.185,-0.069l0.186,-0.07l0.186,-0.07l0.183,-0.071l0.184,-0.071l0.183,-0.072l0.182,-0.073l0.181,-0.073l0.18,-0.074l0.181,-0.074l0.179,-0.075l0.179,-0.076l0.177,-0.076l0.178,-0.077l0.176,-0.077l0.176,-0.077l0.175,-0.079l0.175,-0.079l0.174,-0.08l0.173,-0.08l0.172,-0.081l0.172,-0.081l0.171,-0.082l0.171,-0.083l0.17,-0.083l0.169,-0.084l0.168,-0.084l0.168,-0.085l0.168,-0.085l0.166,-0.086l0.165,-0.086l0.167,-0.088l0.164,-0.088l0.163,-0.087l0.163,-0.089l0.164,-0.09l0.161,-0.09l0.162,-0.09l0.161,-0.091l0.159,-0.092l0.16,-0.092l0.159,-0.093l0.158,-0.093l0.158,-0.094l0.157,-0.094l0.155,-0.095l0.156,-0.095l0.156,-0.097l0.154,-0.097l0.153,-0.096l0.153,-0.098l0.154,-0.099l0.152,-0.098l0.151,-0.1l0.151,-0.099l0.15,-0.101l0.15,-0.101l0.148,-0.101l0.148,-0.102l0.148,-0.103l0.148,-0.103l0.146,-0.104l0.146,-0.104l0.146,-0.105l0.144,-0.105l0.144,-0.106l0.144,-0.107l0.143,-0.106l0.142,-0.108l0.143,-0.108l0.141,-0.109l0.14,-0.108l0.14,-0.11l0.14,-0.11l0.138,-0.111l0.14,-0.112l0.137,-0.111l0.137,-0.112l0.137,-0.113l0.137,-0.114l0.135,-0.114l0.134,-0.114l0.135,-0.115l0.134,-0.115l0.133,-0.116l0.133,-0.117l0.133,-0.117l0.131,-0.118l0.13,-0.117l0.131,-0.119l0.13,-0.119l0.13,-0.121l0.129,-0.12l0.128,-0.12l0.128,-0.122l0.127,-0.121l0.127,-0.122l0.127,-0.124l0.125,-0.124l0.125,-0.123l0.124,-0.124l0.124,-0.125l0.124,-0.126l0.123,-0.126l0.122,-0.126l0.122,-0.127l0.123,-0.129l0.12,-0.127l0.12,-0.129l0.12,-0.129l0.119,-0.129l0.119,-0.131l0.118,-0.13l0.118,-0.131l0.118,-0.132l0.116,-0.132l0.116,-0.133l0.117,-0.134l0.115,-0.134l0.114,-0.133l0.114,-0.135l0.114,-0.135l0.113,-0.136l0.113,-0.137l0.112,-0.136l0.111,-0.138l0.112,-0.138l0.11,-0.138l0.11,-0.139l0.11,-0.139l0.11,-0.141l0.108,-0.14l0.108,-0.14l0.108,-0.143l0.107,-0.141l0.107,-0.143l0.106,-0.143l0.106,-0.143l0.105,-0.144l0.104,-0.144l0.105,-0.146l0.104,-0.145l0.103,-0.146l0.103,-0.147l0.102,-0.146l0.101,-0.148l0.102,-0.149l0.101,-0.148l0.1,-0.148l0.1,-0.15l0.099,-0.15l0.1,-0.151l0.098,-0.151l0.098,-0.151l0.097,-0.151l0.097,-0.154l0.097,-0.153l0.096,-0.153l0.096,-0.154l0.095,-0.155l0.094,-0.154l0.094,-0.156l0.094,-0.156l0.094,-0.157l0.093,-0.157l0.092,-0.157l0.091,-0.157l0.091,-0.158l0.091,-0.159l0.091,-0.16l0.09,-0.16l0.089,-0.16l0.09,-0.162l0.088,-0.161l0.088,-0.161l0.088,-0.164l0.087,-0.162l0.087,-0.162l0.086,-0.165l0.086,-0.163l0.085,-0.165l0.086,-0.166l0.084,-0.165l0.084,-0.166l0.083,-0.166l0.084,-0.168l0.082,-0.167l0.082,-0.168l0.082,-0.169l0.081,-0.168l0.081,-0.17l0.081,-0.17l0.08,-0.17l0.079,-0.171l0.08,-0.172l0.078,-0.171l0.078,-0.172l0.078,-0.173l0.077,-0.174l0.077,-0.173l0.076,-0.173l0.076,-0.175l0.076,-0.175l0.075,-0.175l0.075,-0.177l0.074,-0.176l0.074,-0.177l0.073,-0.177l0.072,-0.177l0.073,-0.179l0.073,-0.179l0.071,-0.178l0.071,-0.179l0.071,-0.181l0.07,-0.181l0.07,-0.18l0.069,-0.181l0.069,-0.182l0.068,-0.182l0.069,-0.183l0.068,-0.184l0.067,-0.182l0.066,-0.184l0.067,-0.186l0.066,-0.184l0.065,-0.185l0.066,-0.185l0.064,-0.186l0.064,-0.187l0.065,-0.188l0.063,-0.187l0.063,-0.187l0.062,-0.189l0.062,-0.188l0.062,-0.19l0.062,-0.19l0.06,-0.189l0.061,-0.19l0.06,-0.191l0.06,-0.191l0.059,-0.193l0.059,-0.191l0.058,-0.192l0.058,-0.194l0.058,-0.193l0.057,-0.193l0.057,-0.195l0.056,-0.195l0.056,-0.194l0.055,-0.195l0.055,-0.196l0.055,-0.197l0.054,-0.196l0.054,-0.197l0.054,-0.197l0.053,-0.197l0.053,-0.2l0.052,-0.198l0.052,-0.198l0.051,-0.2l0.051,-0.199l0.051,-0.201l0.05,-0.201l0.05,-0.201l0.049,-0.201l0.049,-0.201l0.049,-0.202l0.048,-0.203l0.048,-0.203l0.048,-0.204l0.047,-0.203l0.047,-0.204l0.046,-0.204l0.046,-0.205l0.045,-0.205l0.045,-0.206l0.045,-0.206l0.044,-0.206l0.044,-0.206l0.044,-0.208l0.043,-0.207l0.043,-0.207l0.042,-0.209l0.042,-0.209l0.042,-0.208l0.041,-0.209l0.041,-0.21l0.041,-0.211l0.04,-0.209l0.039,-0.211l0.04,-0.211l0.039,-0.211l0.038,-0.212l0.039,-0.213l0.037,-0.211l0.038,-0.213l0.037,-0.214l0.037,-0.214l0.036,-0.213l0.036,-0.214l0.036,-0.215l0.035,-0.215l0.035,-0.214l0.034,-0.216l0.034,-0.216l0.034,-0.217l0.034,-0.217l0.033,-0.216l0.032,-0.217l0.033,-0.218l0.032,-0.217l0.031,-0.219l0.031,-0.219l0.031,-0.219l0.031,-0.219l0.03,-0.22l0.03,-0.22l0.029,-0.22l0.029,-0.22l0.029,-0.22l0.028,-0.223l0.028,-0.22l0.028,-0.222l0.027,-0.223l0.027,-0.221l0.027,-0.223l0.026,-0.224l0.026,-0.223l0.026,-0.224l0.025,-0.224l0.025,-0.224l0.024,-0.224l0.024,-0.225l0.024,-0.225l0.024,-0.226l0.023,-0.226l0.023,-0.226l0.022,-0.226l0.022,-0.225l0.043,-0.457l0.042,-0.455l0.041,-0.456l0.039,-0.458l0.038,-0.459l0.037,-0.46l0.035,-0.462l0.034,-0.461l0.033,-0.464l0.031,-0.464l0.03,-0.466l0.029,-0.467l0.028,-0.467l0.026,-0.468l0.025,-0.47l0.024,-0.471l0.023,-0.472l0.021,-0.472l0.02,-0.474l0.019,-0.475l0.018,-0.476l0.016,-0.476l0.016,-0.478l0.014,-0.478l0.013,-0.48l0.011,-0.48l0.011,-0.482l0.01,-0.482l0.008,-0.483l0.007,-0.484l0.006,-0.485l0.005,-0.486l0.004,-0.486l0.003,-0.488l0.002,-0.488l0,-0.488l-0.001,-0.488l-0.002,-0.486l-0.003,-0.485l-0.005,-0.485l-0.006,-0.484l-0.008,-0.482l-0.009,-0.482l-0.011,-0.482l-0.011,-0.48l-0.014,-0.479l-0.014,-0.478l-0.017,-0.478l-0.017,-0.478l-0.01,-0.236l-0.009,-0.238l-0.01,-0.238l-0.011,-0.238l-0.01,-0.236l-0.012,-0.237l-0.011,-0.237l-0.012,-0.236l-0.012,-0.236l-0.013,-0.236l-0.013,-0.236l-0.013,-0.234l-0.014,-0.237l-0.014,-0.235l-0.014,-0.233l-0.015,-0.235l-0.015,-0.234l-0.016,-0.233l-0.016,-0.234l-0.016,-0.235l-0.016,-0.232l-0.017,-0.233l-0.018,-0.233l-0.017,-0.231l-0.019,-0.233l-0.018,-0.232l-0.019,-0.231l-0.019,-0.231l-0.02,-0.231l-0.02,-0.231l-0.02,-0.231l-0.021,-0.23l-0.021,-0.229l-0.021,-0.23l-0.022,-0.23l-0.022,-0.229l-0.023,-0.229l-0.023,-0.228l-0.023,-0.228l-0.024,-0.228l-0.024,-0.228l-0.024,-0.227l-0.025,-0.228l-0.025,-0.227l-0.026,-0.226l-0.026,-0.226l-0.026,-0.226l-0.027,-0.227l-0.027,-0.225l-0.028,-0.225l-0.027,-0.224l-0.029,-0.225l-0.028,-0.225l-0.029,-0.224l-0.03,-0.223l-0.029,-0.223l-0.031,-0.223l-0.03,-0.224l-0.031,-0.222l-0.031,-0.221l-0.032,-0.222l-0.032,-0.222l-0.033,-0.222l-0.033,-0.22l-0.033,-0.22l-0.034,-0.221l-0.034,-0.22l-0.034,-0.219l-0.035,-0.22l-0.035,-0.219l-0.036,-0.218l-0.036,-0.22l-0.036,-0.217l-0.037,-0.218l-0.037,-0.217l-0.038,-0.217l-0.038,-0.217l-0.038,-0.217l-0.039,-0.216l-0.039,-0.215l-0.039,-0.215l-0.04,-0.216l-0.041,-0.215l-0.04,-0.214l-0.041,-0.214l-0.042,-0.214l-0.042,-0.213l-0.042,-0.213l-0.043,-0.214l-0.043,-0.211l-0.043,-0.212l-0.044,-0.213l-0.045,-0.211l-0.044,-0.211l-0.045,-0.211l-0.046,-0.21l-0.046,-0.21l-0.046,-0.209l-0.047,-0.209l-0.047,-0.209l-0.048,-0.21l-0.047,-0.208l-0.049,-0.207l-0.048,-0.207l-0.049,-0.207l-0.05,-0.207l-0.05,-0.208l-0.05,-0.206l-0.051,-0.204l-0.051,-0.206l-0.052,-0.205l-0.052,-0.204l-0.052,-0.205l-0.053,-0.203l-0.053,-0.204l-0.053,-0.202l-0.054,-0.203l-0.055,-0.203l-0.055,-0.202l-0.055,-0.201l-0.056,-0.201l-0.056,-0.201l-0.056,-0.2l-0.057,-0.2l-0.057,-0.2l-0.058,-0.2l-0.058,-0.199l-0.059,-0.198l-0.059,-0.199l-0.059,-0.197l-0.059,-0.197l-0.061,-0.197l-0.06,-0.196l-0.061,-0.197l-0.062,-0.196l-0.061,-0.194l-0.063,-0.195l-0.062,-0.195l-0.063,-0.194l-0.064,-0.194l-0.064,-0.193l-0.064,-0.193l-0.065,-0.193l-0.065,-0.192l-0.065,-0.192l-0.066,-0.191l-0.067,-0.191l-0.066,-0.19l-0.067,-0.189l-0.068,-0.191l-0.069,-0.189l-0.068,-0.19l-0.069,-0.187l-0.069,-0.188l-0.07,-0.188l-0.07,-0.187l-0.071,-0.187l-0.07,-0.185l-0.072,-0.187l-0.072,-0.186l-0.072,-0.185l-0.073,-0.184l-0.073,-0.184l-0.074,-0.184l-0.073,-0.183l-0.075,-0.183l-0.075,-0.183l-0.075,-0.182l-0.075,-0.181l-0.077,-0.181l-0.076,-0.181l-0.077,-0.179l-0.077,-0.181l-0.078,-0.179l-0.079,-0.18l-0.078,-0.178l-0.079,-0.178l-0.08,-0.178l-0.08,-0.177l-0.08,-0.176l-0.08,-0.176l-0.082,-0.177l-0.081,-0.175l-0.082,-0.174l-0.083,-0.175l-0.083,-0.174l-0.083,-0.174l-0.084,-0.173l-0.085,-0.173l-0.084,-0.172l-0.085,-0.171l-0.086,-0.172l-0.085,-0.17l-0.087,-0.17l-0.087,-0.172l-0.087,-0.168l-0.087,-0.168l-0.089,-0.17l-0.088,-0.168l-0.089,-0.168l-0.089,-0.166l-0.09,-0.167l-0.091,-0.167l-0.09,-0.165l-0.091,-0.165l-0.092,-0.166l-0.092,-0.164l-0.092,-0.163l-0.093,-0.164l-0.093,-0.162l-0.095,-0.163l-0.094,-0.162l-0.094,-0.161l-0.095,-0.161l-0.096,-0.161l-0.095,-0.16l-0.097,-0.159l-0.097,-0.159l-0.097,-0.159l-0.098,-0.158l-0.098,-0.158l-0.099,-0.157l-0.098,-0.156l-0.1,-0.157l-0.1,-0.155l-0.1,-0.155l-0.101,-0.155l-0.102,-0.155l-0.101,-0.154l-0.102,-0.152l-0.102,-0.152l-0.104,-0.153l-0.103,-0.152l-0.104,-0.152l-0.104,-0.15l-0.105,-0.15l-0.106,-0.15l-0.105,-0.15l-0.106,-0.148l-0.107,-0.148l-0.107,-0.148l-0.107,-0.147l-0.109,-0.148l-0.108,-0.146l-0.108,-0.145l-0.11,-0.145l-0.109,-0.145l-0.111,-0.145l-0.111,-0.144l-0.11,-0.142l-0.112,-0.143l-0.112,-0.142l-0.113,-0.143l-0.113,-0.141l-0.113,-0.14l-0.114,-0.14l-0.114,-0.14l-0.115,-0.139l-0.115,-0.139l-0.115,-0.137l-0.117,-0.139l-0.116,-0.137l-0.118,-0.137l-0.117,-0.136l-0.118,-0.135l-0.119,-0.136l-0.118,-0.134l-0.119,-0.133l-0.12,-0.134l-0.121,-0.134l-0.121,-0.132l-0.121,-0.132l-0.121,-0.131l-0.122,-0.131l-0.123,-0.131l-0.124,-0.13l-0.122,-0.129l-0.125,-0.129l-0.124,-0.128l-0.125,-0.128l-0.126,-0.127l-0.125,-0.126l-0.127,-0.127l-0.127,-0.126l-0.127,-0.125l-0.128,-0.125l-0.128,-0.124l-0.129,-0.123l-0.129,-0.123l-0.131,-0.123l-0.129,-0.122l-0.131,-0.121l-0.131,-0.121l-0.132,-0.121l-0.132,-0.119l-0.132,-0.12l-0.133,-0.119l-0.134,-0.118l-0.134,-0.118l-0.134,-0.116l-0.136,-0.118l-0.136,-0.116l-0.135,-0.115l-0.137,-0.115l-0.137,-0.115l-0.137,-0.114l-0.138,-0.113l-0.139,-0.113l-0.139,-0.113l-0.139,-0.111l-0.14,-0.111l-0.141,-0.111l-0.141,-0.11l-0.141,-0.11l-0.143,-0.109l-0.142,-0.108l-0.143,-0.108l-0.144,-0.108l-0.143,-0.107l-0.145,-0.106l-0.145,-0.106l-0.145,-0.105l-0.146,-0.105l-0.147,-0.104l-0.147,-0.104l-0.147,-0.102l-0.149,-0.103l-0.148,-0.102l-0.15,-0.101l-0.149,-0.101l-0.151,-0.101l-0.151,-0.1l-0.15,-0.098l-0.152,-0.099l-0.153,-0.098l-0.153,-0.098l-0.152,-0.096l-0.154,-0.097l-0.155,-0.095l-0.154,-0.095l-0.157,-0.096l-0.156,-0.094l-0.155,-0.093l-0.157,-0.092l-0.158,-0.093l-0.158,-0.092l-0.159,-0.091l-0.16,-0.091l-0.159,-0.09l-0.16,-0.089l-0.161,-0.089l-0.162,-0.089l-0.162,-0.088l-0.162,-0.087l-0.163,-0.087l-0.164,-0.086l-0.163,-0.085l-0.165,-0.085l-0.165,-0.085l-0.166,-0.084l-0.166,-0.082l-0.168,-0.083l-0.167,-0.082l-0.167,-0.081l-0.169,-0.082l-0.17,-0.08l-0.169,-0.079l-0.171,-0.08l-0.171,-0.078l-0.171,-0.078l-0.171,-0.077l-0.173,-0.077l-0.173,-0.076l-0.175,-0.076l-0.173,-0.074l-0.174,-0.075l-0.177,-0.074l-0.175,-0.073l-0.177,-0.072l-0.177,-0.072l-0.177,-0.072l-0.18,-0.071l-0.178,-0.07l-0.18,-0.069l-0.18,-0.069l-0.179,-0.068l-0.182,-0.068l-0.183,-0.067l-0.181,-0.066l-0.184,-0.066l-0.184,-0.066l-0.184,-0.065l-0.184,-0.063l-0.185,-0.064l-0.187,-0.063l-0.186,-0.062l-0.187,-0.061l-0.188,-0.061l-0.188,-0.06l-0.189,-0.06l-0.19,-0.059l-0.19,-0.058l-0.191,-0.058l-0.191,-0.057l-0.193,-0.057l-0.193,-0.056l-0.192,-0.055l-0.194,-0.055l-0.195,-0.054l-0.195,-0.053l-0.195,-0.052l-0.197,-0.053l-0.198,-0.051l-0.197,-0.051l-0.198,-0.05l-0.198,-0.049l-0.2,-0.049l-0.2,-0.048l-0.201,-0.048l-0.201,-0.046l-0.201,-0.047l-0.204,-0.045l-0.204,-0.045l-0.203,-0.044l-0.204,-0.044l-0.206,-0.043l-0.205,-0.042l-0.206,-0.042l-0.208,-0.041l-0.207,-0.04l-0.208,-0.039l-0.209,-0.039l-0.21,-0.038l-0.21,-0.038l-0.211,-0.037l-0.211,-0.036l-0.212,-0.035l-0.214,-0.035l-0.213,-0.034l-0.214,-0.034l-0.215,-0.033l-0.215,-0.032l-0.216,-0.031l-0.217,-0.031l-0.217,-0.03l-0.218,-0.029l-0.219,-0.029l-0.219,-0.028l-0.22,-0.027l-0.221,-0.027l-0.221,-0.025l-0.222,-0.026l-0.222,-0.024l-0.224,-0.024l-0.224,-0.023l-0.224,-0.022l-0.225,-0.022l-0.226,-0.021l-0.227,-0.02l-0.227,-0.019l-0.228,-0.019l-0.228,-0.018l-0.229,-0.017l-0.231,-0.017l-0.23,-0.016l-0.231,-0.015l-0.232,-0.014l-0.232,-0.014l-0.234,-0.013l-0.234,-0.012l-0.234,-0.012l-0.236,-0.011l-0.236,-0.01l-0.236,-0.009l-0.237,-0.009l-0.238,-0.008l-0.239,-0.007l-0.24,-0.006l-0.24,-0.006l-0.24,-0.005l-0.242,-0.004l-0.242,-0.003l-0.242,-0.003l-0.244,-0.002l-0.244,-0.001l-0.245,0l-0.244,0Z" style="fill:#ac8639;"/><path d="M87.458,155.376c-4.14,10.157 -4.512,19.314 0,27.174" style="fill:none;stroke:#ac8639;stroke-width:7px;"/></g><g id="bunny"><path d="M91.734,9.481c5.942,-1.55 14.543,11.671 19.195,29.506c4.653,17.835 9.095,32.141 -2.336,35.123c-11.43,2.982 -14.542,-11.671 -19.195,-29.506c-4.652,-17.835 -3.606,-33.573 2.336,-35.123Z" style="fill:#282624;"/><clipPath id="_clip2"><path d="M91.734,9.481c5.942,-1.55 14.543,11.671 19.195,29.506c4.653,17.835 9.095,32.141 -2.336,35.123c-11.43,2.982 -14.542,-11.671 -19.195,-29.506c-4.652,-17.835 -3.606,-33.573 2.336,-35.123Z"/></clipPath><g clip-path="url(#_clip2)"><path d="M94.038,18.563c4.316,-1.126 11.313,11.353 15.616,27.849c4.304,16.496 8.28,29.763 -0.022,31.929c-8.302,2.166 -11.313,-11.353 -15.616,-27.849c-4.303,-16.497 -4.293,-30.803 0.022,-31.929Z" style="fill:#b5a686;"/></g><path d="M153.368,13.136c5.885,1.75 6.397,17.515 1.141,35.182c-5.255,17.666 -8.864,32.205 -20.186,28.837c-11.322,-3.368 -6.397,-17.515 -1.142,-35.182c5.256,-17.667 14.301,-30.588 20.187,-28.837Z" style="fill:#282624;"/><clipPath id="_clip3"><path d="M153.368,13.136c5.885,1.75 6.397,17.515 1.141,35.182c-5.255,17.666 -8.864,32.205 -20.186,28.837c-11.322,-3.368 -6.397,-17.515 -1.142,-35.182c5.256,-17.667 14.301,-30.588 20.187,-28.837Z"/></clipPath><g clip-path="url(#_clip3)"><path d="M150.636,22.098c4.275,1.272 3.799,15.571 -1.062,31.911c-4.861,16.341 -8.33,29.75 -16.553,27.303c-8.224,-2.446 -3.799,-15.57 1.062,-31.911c4.861,-16.34 12.278,-28.574 16.553,-27.303Z" style="fill:#b5a686;"/></g><path d="M122.907,59.412c18.16,0 32.903,5.777 32.903,12.894c0,7.116 -65.805,7.116 -65.805,0c0,-7.117 14.743,-12.894 32.902,-12.894Z" style="fill:#282624;"/></g></svg>