<?xml version="1.0" encoding="UTF-8" standalone="no"?><!DOCTYPE svg PUBLIC "-//W3C//DTD SVG 1.1//EN" "http://www.w3.org/Graphics/SVG/1.1/DTD/svg11.dtd"><svg width="100%" height="100%" viewBox="0 0 40 40" version="1.1" xmlns="http://www.w3.org/2000/svg" xmlns:xlink="http://www.w3.org/1999/xlink" xml:space="preserve" xmlns:serif="http://www.serif.com/" style="fill-rule:evenodd;clip-rule:evenodd;stroke-linejoin:round;stroke-miterlimit:1.41421;"><rect id="chat-icon" x="0" y="0" width="40" height="40" style="fill:none;"/><clipPath id="_clip1"><rect x="0" y="0" width="40" height="40"/></clipPath><g clip-path="url(#_clip1)"><g id="chat"><path id="chat-inactive" d="M20.024,0c1.936,0.005 3.888,0.411 5.669,1.201c3.119,1.382 5.703,3.94 7.119,7.043c1.232,2.701 1.574,5.788 0.967,8.706c-0.589,2.831 -2.08,5.457 -4.193,7.424c-1.827,1.701 -4.11,2.908 -6.558,3.445c-2.906,0.639 -6.011,0.329 -8.745,-0.886l-5.417,1.193c-0.129,0.017 -0.163,0.03 -0.294,0.014c-0.341,-0.041 -0.648,-0.301 -0.742,-0.637c-0.036,-0.127 -0.028,-0.162 -0.031,-0.293l0.358,-5.535c-0.009,-0.014 -0.018,-0.029 -0.027,-0.043c-1.507,-2.372 -2.273,-5.148 -2.197,-7.944c0.051,-1.895 0.488,-3.779 1.283,-5.502c1.211,-2.623 3.249,-4.853 5.744,-6.299c2.061,-1.193 4.425,-1.847 6.814,-1.885c0.068,-0.001 0.136,-0.002 0.204,-0.002c0.015,0 0.03,0 0.046,0Zm-5.604,25.136c0.184,0.011 0.239,0.036 0.341,0.081c0.216,0.096 0.435,0.197 0.657,0.286c2.797,1.121 6.013,1.173 8.85,0.124c2.223,-0.823 4.195,-2.306 5.611,-4.204c1.571,-2.106 2.436,-4.727 2.436,-7.35c0,-2.044 -0.515,-4.086 -1.496,-5.883c-1.439,-2.638 -3.87,-4.722 -6.71,-5.728c-2.536,-0.898 -5.374,-0.932 -7.93,-0.097c-2.232,0.729 -4.243,2.116 -5.726,3.935c-1.234,1.513 -2.103,3.322 -2.504,5.236c-0.657,3.129 -0.052,6.496 1.711,9.223c0.037,0.058 0.075,0.115 0.113,0.171c0,0 0.062,0.098 0.096,0.188c0.044,0.115 0.066,0.24 0.063,0.364c-0.001,0.017 -0.001,0.02 -0.002,0.035l-0.3,4.639l4.54,-1c0,0 0.107,-0.02 0.191,-0.021c0.03,-0.001 0.044,0 0.059,0.001Z" style="fill:#262626;fill-rule:nonzero;"/><g><path d="M13.932,35.502c-0.15,-0.203 -0.346,-0.352 -0.587,-0.446c-0.241,-0.093 -0.476,-0.14 -0.706,-0.14c-0.295,0 -0.563,0.053 -0.804,0.16c-0.241,0.107 -0.448,0.255 -0.622,0.442c-0.174,0.187 -0.308,0.407 -0.402,0.659c-0.093,0.251 -0.14,0.524 -0.14,0.819c0,0.311 0.045,0.594 0.136,0.851c0.091,0.257 0.221,0.478 0.39,0.663c0.168,0.185 0.371,0.328 0.606,0.43c0.236,0.101 0.501,0.152 0.795,0.152c0.306,0 0.576,-0.06 0.812,-0.18c0.235,-0.121 0.425,-0.28 0.57,-0.478l0.811,0.57c-0.252,0.316 -0.559,0.561 -0.924,0.735c-0.364,0.174 -0.789,0.261 -1.277,0.261c-0.444,0 -0.852,-0.074 -1.225,-0.221c-0.372,-0.147 -0.692,-0.353 -0.959,-0.618c-0.268,-0.265 -0.477,-0.581 -0.627,-0.948c-0.15,-0.367 -0.225,-0.773 -0.225,-1.217c0,-0.455 0.079,-0.866 0.237,-1.233c0.158,-0.367 0.375,-0.679 0.651,-0.936c0.276,-0.257 0.601,-0.455 0.976,-0.594c0.375,-0.139 0.781,-0.209 1.221,-0.209c0.182,0 0.372,0.018 0.57,0.052c0.198,0.035 0.388,0.089 0.57,0.161c0.182,0.072 0.354,0.162 0.514,0.269c0.161,0.107 0.297,0.236 0.41,0.386l-0.771,0.61Z" style="fill:#262626;fill-rule:nonzero;"/><path d="M15.418,34.169l1.012,0l0,2.297l2.658,0l0,-2.297l1.012,0l0,5.686l-1.012,0l0,-2.522l-2.658,0l0,2.522l-1.012,0l0,-5.686Z" style="fill:#262626;fill-rule:nonzero;"/><path d="M23.137,34.169l0.875,0l2.45,5.686l-1.157,0l-0.53,-1.301l-2.466,0l-0.514,1.301l-1.132,0l2.474,-5.686Zm1.285,3.518l-0.876,-2.314l-0.891,2.314l1.767,0Z" style="fill:#262626;fill-rule:nonzero;"/><path d="M27.691,35.052l-1.743,0l0,-0.883l4.498,0l0,0.883l-1.743,0l0,4.803l-1.012,0l0,-4.803Z" style="fill:#262626;fill-rule:nonzero;"/></g></g></g></svg>