<?xml version="1.0" encoding="UTF-8" standalone="no"?><!DOCTYPE svg PUBLIC "-//W3C//DTD SVG 1.1//EN" "http://www.w3.org/Graphics/SVG/1.1/DTD/svg11.dtd"><svg width="100%" height="100%" viewBox="0 0 31 30" version="1.1" xmlns="http://www.w3.org/2000/svg" xmlns:xlink="http://www.w3.org/1999/xlink" xml:space="preserve" xmlns:serif="http://www.serif.com/" style="fill-rule:evenodd;clip-rule:evenodd;stroke-linejoin:round;stroke-miterlimit:1.41421;"><g id="info-button" serif:id="info button"><path d="M15.578,0l0.097,0.001l0.097,0.002l0.096,0.002l0.097,0.003l0.096,0.003l0.096,0.004l0.096,0.005l0.096,0.005l0.095,0.005l0.096,0.007l0.095,0.007l0.095,0.007l0.095,0.008l0.095,0.009l0.094,0.01l0.095,0.009l0.094,0.011l0.094,0.011l0.094,0.012l0.094,0.012l0.093,0.013l0.093,0.013l0.094,0.014l0.093,0.014l0.092,0.016l0.093,0.015l0.092,0.016l0.092,0.017l0.092,0.018l0.092,0.018l0.092,0.018l0.091,0.019l0.092,0.02l0.091,0.02l0.09,0.02l0.091,0.022l0.09,0.021l0.09,0.023l0.09,0.023l0.09,0.023l0.09,0.024l0.089,0.024l0.089,0.025l0.089,0.026l0.088,0.026l0.089,0.027l0.088,0.027l0.088,0.028l0.088,0.028l0.087,0.028l0.087,0.03l0.087,0.029l0.087,0.031l0.087,0.031l0.086,0.031l0.086,0.032l0.086,0.032l0.085,0.033l0.085,0.033l0.085,0.034l0.085,0.034l0.085,0.035l0.084,0.036l0.084,0.035l0.084,0.037l0.083,0.037l0.083,0.037l0.083,0.038l0.083,0.038l0.082,0.039l0.082,0.039l0.082,0.04l0.082,0.04l0.081,0.041l0.081,0.041l0.081,0.042l0.08,0.042l0.08,0.042l0.08,0.044l0.079,0.043l0.08,0.044l0.079,0.045l0.078,0.045l0.079,0.045l0.078,0.046l0.078,0.046l0.077,0.047l0.077,0.047l0.077,0.048l0.077,0.048l0.076,0.048l0.076,0.05l0.075,0.049l0.076,0.05l0.075,0.05l0.074,0.051l0.075,0.051l0.074,0.052l0.073,0.052l0.074,0.052l0.073,0.053l0.072,0.054l0.073,0.054l0.072,0.054l0.072,0.054l0.071,0.056l0.071,0.055l0.071,0.056l0.07,0.056l0.07,0.057l0.07,0.057l0.069,0.058l0.069,0.058l0.068,0.058l0.069,0.059l0.067,0.059l0.068,0.059l0.067,0.06l0.067,0.061l0.066,0.06l0.066,0.062l0.066,0.061l0.065,0.062l0.065,0.062l0.065,0.063l0.064,0.063l0.064,0.063l0.063,0.064l0.064,0.065l0.062,0.064l0.062,0.065l0.062,0.065l0.062,0.066l0.061,0.066l0.061,0.067l0.06,0.066l0.06,0.067l0.06,0.068l0.059,0.068l0.059,0.068l0.058,0.069l0.058,0.069l0.057,0.069l0.058,0.07l0.056,0.07l0.057,0.07l0.055,0.071l0.056,0.071l0.055,0.071l0.055,0.072l0.054,0.072l0.054,0.072l0.053,0.073l0.053,0.073l0.053,0.073l0.052,0.074l0.051,0.074l0.051,0.074l0.051,0.075l0.051,0.075l0.05,0.075l0.049,0.076l0.049,0.076l0.049,0.076l0.048,0.076l0.047,0.077l0.048,0.077l0.046,0.078l0.047,0.078l0.046,0.078l0.045,0.078l0.045,0.079l0.044,0.079l0.044,0.079l0.044,0.08l0.043,0.079l0.043,0.081l0.042,0.08l0.041,0.081l0.042,0.081l0.04,0.081l0.041,0.081l0.039,0.082l0.04,0.082l0.038,0.083l0.039,0.082l0.038,0.083l0.037,0.084l0.037,0.083l0.036,0.084l0.036,0.084l0.035,0.084l0.035,0.084l0.034,0.085l0.034,0.085l0.034,0.085l0.033,0.086l0.032,0.086l0.032,0.086l0.031,0.086l0.031,0.086l0.03,0.087l0.03,0.087l0.029,0.087l0.029,0.088l0.028,0.088l0.028,0.088l0.027,0.088l0.026,0.088l0.026,0.089l0.026,0.089l0.025,0.089l0.025,0.089l0.023,0.089l0.024,0.09l0.023,0.09l0.022,0.09l0.022,0.091l0.021,0.09l0.021,0.091l0.02,0.091l0.019,0.091l0.02,0.092l0.018,0.091l0.018,0.092l0.017,0.092l0.017,0.092l0.016,0.093l0.016,0.092l0.015,0.093l0.015,0.093l0.013,0.093l0.014,0.093l0.013,0.094l0.012,0.094l0.012,0.094l0.011,0.094l0.01,0.094l0.01,0.094l0.009,0.095l0.009,0.095l0.008,0.095l0.008,0.095l0.007,0.095l0.006,0.095l0.006,0.096l0.005,0.096l0.005,0.095l0.003,0.097l0.004,0.096l0.003,0.096l0.002,0.097l0.001,0.096l0.001,0.097l0,0.097l0,0.097l-0.001,0.097l-0.001,0.096l-0.002,0.097l-0.003,0.096l-0.004,0.096l-0.003,0.097l-0.005,0.095l-0.005,0.096l-0.006,0.096l-0.006,0.095l-0.007,0.095l-0.008,0.095l-0.008,0.095l-0.009,0.095l-0.009,0.095l-0.01,0.094l-0.01,0.094l-0.011,0.094l-0.012,0.094l-0.012,0.094l-0.013,0.094l-0.014,0.093l-0.013,0.093l-0.015,0.093l-0.015,0.093l-0.016,0.092l-0.016,0.093l-0.017,0.092l-0.017,0.092l-0.018,0.092l-0.018,0.091l-0.02,0.092l-0.019,0.091l-0.02,0.091l-0.021,0.091l-0.021,0.09l-0.022,0.091l-0.022,0.09l-0.023,0.09l-0.024,0.09l-0.023,0.089l-0.025,0.089l-0.025,0.089l-0.026,0.089l-0.026,0.089l-0.026,0.088l-0.027,0.088l-0.028,0.088l-0.028,0.088l-0.029,0.088l-0.029,0.087l-0.03,0.087l-0.03,0.087l-0.031,0.086l-0.031,0.086l-0.032,0.086l-0.032,0.086l-0.033,0.086l-0.034,0.085l-0.034,0.085l-0.034,0.085l-0.035,0.084l-0.035,0.084l-0.036,0.084l-0.036,0.084l-0.037,0.083l-0.037,0.084l-0.038,0.083l-0.039,0.082l-0.038,0.083l-0.04,0.082l-0.039,0.082l-0.041,0.081l-0.04,0.081l-0.042,0.081l-0.041,0.081l-0.042,0.08l-0.043,0.081l-0.043,0.079l-0.044,0.08l-0.044,0.079l-0.044,0.079l-0.045,0.079l-0.045,0.078l-0.046,0.078l-0.047,0.078l-0.046,0.078l-0.048,0.077l-0.047,0.077l-0.048,0.076l-0.049,0.076l-0.049,0.076l-0.049,0.076l-0.05,0.075l-0.051,0.075l-0.051,0.075l-0.051,0.074l-0.051,0.074l-0.052,0.074l-0.053,0.073l-0.053,0.073l-0.053,0.073l-0.054,0.072l-0.054,0.072l-0.055,0.072l-0.055,0.071l-0.056,0.071l-0.055,0.071l-0.057,0.07l-0.056,0.07l-0.058,0.07l-0.057,0.069l-0.058,0.069l-0.058,0.069l-0.059,0.068l-0.059,0.068l-0.06,0.068l-0.06,0.067l-0.06,0.066l-0.061,0.067l-0.061,0.066l-0.062,0.066l-0.062,0.065l-0.062,0.065l-0.062,0.064l-0.064,0.065l-0.063,0.064l-0.064,0.063l-0.064,0.063l-0.065,0.063l-0.065,0.062l-0.065,0.062l-0.066,0.061l-0.066,0.062l-0.066,0.06l-0.067,0.061l-0.067,0.06l-0.068,0.059l-0.067,0.059l-0.069,0.059l-0.068,0.058l-0.069,0.058l-0.069,0.058l-0.07,0.057l-0.07,0.057l-0.07,0.056l-0.071,0.056l-0.071,0.055l-0.071,0.056l-0.072,0.054l-0.072,0.054l-0.073,0.054l-0.072,0.054l-0.073,0.053l-0.074,0.052l-0.073,0.052l-0.074,0.052l-0.075,0.051l-0.074,0.051l-0.075,0.05l-0.076,0.05l-0.075,0.049l-0.076,0.05l-0.076,0.048l-0.077,0.048l-0.077,0.048l-0.077,0.047l-0.077,0.047l-0.078,0.046l-0.078,0.046l-0.079,0.045l-0.078,0.045l-0.079,0.045l-0.08,0.044l-0.079,0.043l-0.08,0.044l-0.08,0.042l-0.08,0.042l-0.081,0.042l-0.081,0.041l-0.081,0.041l-0.082,0.04l-0.082,0.04l-0.082,0.039l-0.082,0.039l-0.083,0.038l-0.083,0.038l-0.083,0.037l-0.083,0.037l-0.084,0.037l-0.084,0.035l-0.084,0.036l-0.085,0.035l-0.085,0.034l-0.085,0.034l-0.085,0.033l-0.085,0.033l-0.086,0.032l-0.086,0.032l-0.086,0.031l-0.087,0.031l-0.087,0.031l-0.087,0.029l-0.087,0.03l-0.087,0.028l-0.088,0.028l-0.088,0.028l-0.088,0.027l-0.089,0.027l-0.088,0.026l-0.089,0.026l-0.089,0.025l-0.089,0.024l-0.09,0.024l-0.09,0.023l-0.09,0.023l-0.09,0.023l-0.09,0.021l-0.091,0.022l-0.09,0.02l-0.091,0.02l-0.092,0.02l-0.091,0.019l-0.092,0.018l-0.092,0.018l-0.092,0.018l-0.092,0.017l-0.092,0.016l-0.093,0.015l-0.092,0.016l-0.093,0.014l-0.094,0.014l-0.093,0.013l-0.093,0.013l-0.094,0.012l-0.094,0.012l-0.094,0.011l-0.094,0.011l-0.095,0.009l-0.094,0.01l-0.095,0.009l-0.095,0.008l-0.095,0.007l-0.095,0.007l-0.096,0.007l-0.095,0.005l-0.096,0.005l-0.096,0.005l-0.096,0.004l-0.096,0.003l-0.097,0.003l-0.096,0.002l-0.097,0.002l-0.097,0.001l-0.097,0l-0.096,0l-0.097,-0.001l-0.097,-0.002l-0.096,-0.002l-0.097,-0.003l-0.096,-0.003l-0.096,-0.004l-0.096,-0.005l-0.096,-0.005l-0.095,-0.005l-0.096,-0.007l-0.095,-0.007l-0.095,-0.007l-0.095,-0.008l-0.095,-0.009l-0.094,-0.01l-0.095,-0.009l-0.094,-0.011l-0.094,-0.011l-0.094,-0.012l-0.094,-0.012l-0.093,-0.013l-0.093,-0.013l-0.094,-0.014l-0.093,-0.014l-0.092,-0.016l-0.093,-0.015l-0.092,-0.016l-0.093,-0.017l-0.092,-0.018l-0.091,-0.018l-0.092,-0.018l-0.091,-0.019l-0.092,-0.02l-0.091,-0.02l-0.09,-0.02l-0.091,-0.022l-0.09,-0.021l-0.09,-0.023l-0.09,-0.023l-0.09,-0.023l-0.09,-0.024l-0.089,-0.024l-0.089,-0.025l-0.089,-0.026l-0.088,-0.026l-0.089,-0.027l-0.088,-0.027l-0.088,-0.028l-0.088,-0.028l-0.087,-0.028l-0.087,-0.03l-0.087,-0.029l-0.087,-0.031l-0.087,-0.031l-0.086,-0.031l-0.086,-0.032l-0.086,-0.032l-0.085,-0.033l-0.085,-0.033l-0.085,-0.034l-0.085,-0.034l-0.085,-0.035l-0.084,-0.036l-0.084,-0.035l-0.084,-0.037l-0.083,-0.037l-0.083,-0.037l-0.083,-0.038l-0.083,-0.038l-0.082,-0.039l-0.082,-0.039l-0.082,-0.04l-0.082,-0.04l-0.081,-0.041l-0.081,-0.041l-0.081,-0.042l-0.08,-0.042l-0.08,-0.042l-0.08,-0.044l-0.08,-0.043l-0.079,-0.044l-0.079,-0.045l-0.078,-0.045l-0.079,-0.045l-0.078,-0.046l-0.078,-0.046l-0.077,-0.047l-0.077,-0.047l-0.077,-0.048l-0.077,-0.048l-0.076,-0.048l-0.076,-0.05l-0.075,-0.049l-0.076,-0.05l-0.075,-0.05l-0.074,-0.051l-0.075,-0.051l-0.074,-0.052l-0.073,-0.052l-0.074,-0.052l-0.073,-0.053l-0.073,-0.054l-0.072,-0.054l-0.072,-0.054l-0.072,-0.054l-0.071,-0.056l-0.071,-0.055l-0.071,-0.056l-0.07,-0.056l-0.07,-0.057l-0.07,-0.057l-0.069,-0.058l-0.069,-0.058l-0.068,-0.058l-0.069,-0.059l-0.068,-0.059l-0.067,-0.059l-0.067,-0.06l-0.067,-0.061l-0.066,-0.06l-0.066,-0.062l-0.066,-0.061l-0.065,-0.062l-0.065,-0.062l-0.065,-0.063l-0.064,-0.063l-0.064,-0.063l-0.063,-0.064l-0.064,-0.065l-0.062,-0.064l-0.063,-0.065l-0.061,-0.065l-0.062,-0.066l-0.061,-0.066l-0.061,-0.067l-0.06,-0.066l-0.06,-0.067l-0.06,-0.068l-0.059,-0.068l-0.059,-0.068l-0.058,-0.069l-0.058,-0.069l-0.057,-0.069l-0.058,-0.07l-0.056,-0.07l-0.057,-0.07l-0.056,-0.071l-0.055,-0.071l-0.055,-0.071l-0.055,-0.072l-0.054,-0.072l-0.054,-0.072l-0.053,-0.073l-0.053,-0.073l-0.053,-0.073l-0.052,-0.074l-0.051,-0.074l-0.052,-0.074l-0.05,-0.075l-0.051,-0.075l-0.05,-0.075l-0.049,-0.076l-0.049,-0.076l-0.049,-0.076l-0.048,-0.076l-0.047,-0.077l-0.048,-0.077l-0.046,-0.078l-0.047,-0.078l-0.046,-0.078l-0.045,-0.078l-0.045,-0.079l-0.044,-0.079l-0.044,-0.079l-0.044,-0.08l-0.043,-0.079l-0.043,-0.081l-0.042,-0.08l-0.041,-0.081l-0.042,-0.081l-0.04,-0.081l-0.041,-0.081l-0.039,-0.082l-0.04,-0.082l-0.038,-0.083l-0.039,-0.082l-0.038,-0.083l-0.037,-0.084l-0.037,-0.083l-0.036,-0.084l-0.036,-0.084l-0.035,-0.084l-0.035,-0.084l-0.035,-0.085l-0.033,-0.085l-0.034,-0.085l-0.033,-0.086l-0.032,-0.086l-0.032,-0.086l-0.031,-0.086l-0.031,-0.086l-0.03,-0.087l-0.03,-0.087l-0.029,-0.087l-0.029,-0.088l-0.028,-0.088l-0.028,-0.088l-0.027,-0.088l-0.026,-0.088l-0.027,-0.089l-0.025,-0.089l-0.025,-0.089l-0.025,-0.089l-0.024,-0.089l-0.023,-0.09l-0.023,-0.09l-0.022,-0.09l-0.022,-0.091l-0.021,-0.09l-0.021,-0.091l-0.02,-0.091l-0.02,-0.091l-0.019,-0.092l-0.018,-0.091l-0.018,-0.092l-0.017,-0.092l-0.017,-0.092l-0.016,-0.093l-0.016,-0.092l-0.015,-0.093l-0.015,-0.093l-0.014,-0.093l-0.013,-0.093l-0.013,-0.094l-0.012,-0.094l-0.012,-0.094l-0.011,-0.094l-0.01,-0.094l-0.01,-0.094l-0.009,-0.095l-0.009,-0.095l-0.008,-0.095l-0.008,-0.095l-0.007,-0.095l-0.006,-0.095l-0.006,-0.096l-0.005,-0.096l-0.005,-0.095l-0.004,-0.097l-0.003,-0.096l-0.003,-0.096l-0.002,-0.097l-0.001,-0.096l-0.001,-0.097l-0.001,-0.097l0.001,-0.097l0.001,-0.097l0.001,-0.096l0.002,-0.097l0.003,-0.096l0.003,-0.096l0.004,-0.097l0.005,-0.095l0.005,-0.096l0.006,-0.096l0.006,-0.095l0.007,-0.095l0.008,-0.095l0.008,-0.095l0.009,-0.095l0.009,-0.095l0.01,-0.094l0.01,-0.094l0.011,-0.094l0.012,-0.094l0.012,-0.094l0.013,-0.094l0.013,-0.093l0.014,-0.093l0.015,-0.093l0.015,-0.093l0.016,-0.092l0.016,-0.093l0.017,-0.092l0.017,-0.092l0.018,-0.092l0.018,-0.091l0.019,-0.092l0.02,-0.091l0.02,-0.091l0.021,-0.091l0.021,-0.09l0.022,-0.091l0.022,-0.09l0.023,-0.09l0.023,-0.09l0.024,-0.089l0.025,-0.089l0.025,-0.089l0.025,-0.089l0.027,-0.089l0.026,-0.088l0.027,-0.088l0.028,-0.088l0.028,-0.088l0.029,-0.088l0.029,-0.087l0.03,-0.087l0.03,-0.087l0.031,-0.086l0.031,-0.086l0.032,-0.086l0.032,-0.086l0.033,-0.086l0.034,-0.085l0.033,-0.085l0.035,-0.085l0.035,-0.084l0.035,-0.084l0.036,-0.084l0.036,-0.084l0.037,-0.083l0.037,-0.084l0.038,-0.083l0.039,-0.082l0.038,-0.083l0.04,-0.082l0.039,-0.082l0.041,-0.081l0.04,-0.081l0.042,-0.081l0.041,-0.081l0.042,-0.08l0.043,-0.081l0.043,-0.079l0.044,-0.08l0.044,-0.079l0.044,-0.079l0.045,-0.079l0.045,-0.078l0.046,-0.078l0.047,-0.078l0.046,-0.078l0.048,-0.077l0.047,-0.077l0.048,-0.076l0.049,-0.076l0.049,-0.076l0.049,-0.076l0.05,-0.075l0.051,-0.075l0.05,-0.075l0.052,-0.074l0.051,-0.074l0.052,-0.074l0.053,-0.073l0.053,-0.073l0.053,-0.073l0.054,-0.072l0.054,-0.072l0.055,-0.072l0.055,-0.071l0.055,-0.071l0.056,-0.071l0.057,-0.07l0.056,-0.07l0.058,-0.07l0.057,-0.069l0.058,-0.069l0.058,-0.069l0.059,-0.068l0.059,-0.068l0.06,-0.068l0.06,-0.067l0.06,-0.066l0.061,-0.067l0.061,-0.066l0.062,-0.066l0.061,-0.065l0.063,-0.065l0.062,-0.064l0.064,-0.065l0.063,-0.064l0.064,-0.063l0.064,-0.063l0.065,-0.063l0.065,-0.062l0.065,-0.062l0.066,-0.061l0.066,-0.062l0.066,-0.06l0.067,-0.061l0.067,-0.06l0.067,-0.059l0.068,-0.059l0.069,-0.059l0.068,-0.058l0.069,-0.058l0.069,-0.058l0.07,-0.057l0.07,-0.057l0.07,-0.056l0.071,-0.056l0.071,-0.055l0.071,-0.056l0.072,-0.054l0.072,-0.054l0.072,-0.054l0.073,-0.054l0.073,-0.053l0.074,-0.052l0.073,-0.052l0.074,-0.052l0.075,-0.051l0.074,-0.051l0.075,-0.05l0.076,-0.05l0.075,-0.049l0.076,-0.05l0.076,-0.048l0.077,-0.048l0.077,-0.048l0.077,-0.047l0.077,-0.047l0.078,-0.046l0.078,-0.046l0.079,-0.045l0.078,-0.045l0.079,-0.045l0.079,-0.044l0.08,-0.043l0.08,-0.044l0.08,-0.042l0.08,-0.042l0.081,-0.042l0.081,-0.041l0.081,-0.041l0.082,-0.04l0.082,-0.04l0.082,-0.039l0.082,-0.039l0.083,-0.038l0.083,-0.038l0.083,-0.037l0.083,-0.037l0.084,-0.037l0.084,-0.035l0.084,-0.036l0.085,-0.035l0.085,-0.034l0.085,-0.034l0.085,-0.033l0.085,-0.033l0.086,-0.032l0.086,-0.032l0.086,-0.031l0.087,-0.031l0.087,-0.031l0.087,-0.029l0.087,-0.03l0.087,-0.028l0.088,-0.028l0.088,-0.028l0.088,-0.027l0.089,-0.027l0.088,-0.026l0.089,-0.026l0.089,-0.025l0.089,-0.024l0.09,-0.024l0.09,-0.023l0.09,-0.023l0.09,-0.023l0.09,-0.021l0.091,-0.022l0.09,-0.02l0.091,-0.02l0.092,-0.02l0.091,-0.019l0.092,-0.018l0.091,-0.018l0.092,-0.018l0.093,-0.017l0.092,-0.016l0.093,-0.015l0.092,-0.016l0.093,-0.014l0.094,-0.014l0.093,-0.013l0.093,-0.013l0.094,-0.012l0.094,-0.012l0.094,-0.011l0.094,-0.011l0.095,-0.009l0.094,-0.01l0.095,-0.009l0.095,-0.008l0.095,-0.007l0.095,-0.007l0.096,-0.007l0.095,-0.005l0.096,-0.005l0.096,-0.005l0.096,-0.004l0.096,-0.003l0.097,-0.003l0.096,-0.002l0.097,-0.002l0.097,-0.001l0.096,0l0.097,0Zm-0.17,3l-0.08,0.001l-0.085,0.001l-0.073,0.002l-0.072,0.002l-0.085,0.003l-0.078,0.003l-0.072,0.004l-0.073,0.003l-0.077,0.005l-0.084,0.006l-0.077,0.005l-0.071,0.006l-0.077,0.007l-0.077,0.007l-0.076,0.007l-0.077,0.008l-0.07,0.008l-0.075,0.009l-0.076,0.009l-0.076,0.01l-0.081,0.011l-0.069,0.01l-0.075,0.012l-0.074,0.011l-0.074,0.012l-0.074,0.013l-0.074,0.013l-0.074,0.013l-0.074,0.014l-0.073,0.014l-0.073,0.015l-0.073,0.015l-0.072,0.016l-0.078,0.017l-0.067,0.015l-0.071,0.017l-0.072,0.017l-0.071,0.018l-0.077,0.02l-0.071,0.018l-0.071,0.019l-0.071,0.019l-0.07,0.02l-0.07,0.02l-0.07,0.021l-0.075,0.022l-0.069,0.022l-0.069,0.021l-0.075,0.024l-0.068,0.023l-0.063,0.021l-0.068,0.023l-0.074,0.026l-0.073,0.026l-0.067,0.024l-0.068,0.025l-0.067,0.025l-0.066,0.026l-0.072,0.028l-0.066,0.027l-0.066,0.026l-0.071,0.03l-0.071,0.029l-0.065,0.028l-0.06,0.026l-0.07,0.031l-0.069,0.031l-0.065,0.029l-0.064,0.03l-0.068,0.033l-0.069,0.032l-0.059,0.029l-0.067,0.033l-0.068,0.034l-0.063,0.032l-0.062,0.032l-0.066,0.035l-0.067,0.035l-0.061,0.033l-0.062,0.034l-0.065,0.037l-0.066,0.036l-0.06,0.035l-0.065,0.037l-0.06,0.035l-0.059,0.036l-0.064,0.039l-0.064,0.039l-0.063,0.039l-0.059,0.036l-0.062,0.041l-0.063,0.04l-0.057,0.037l-0.058,0.039l-0.061,0.041l-0.061,0.041l-0.062,0.043l-0.06,0.042l-0.056,0.039l-0.06,0.043l-0.056,0.04l-0.059,0.044l-0.059,0.044l-0.055,0.041l-0.062,0.048l-0.058,0.045l-0.054,0.042l-0.054,0.042l-0.057,0.046l-0.06,0.049l-0.053,0.043l-0.056,0.047l-0.056,0.047l-0.056,0.047l-0.055,0.047l-0.051,0.045l-0.055,0.048l-0.054,0.049l-0.054,0.048l-0.053,0.049l-0.053,0.049l-0.053,0.05l-0.053,0.05l-0.052,0.05l-0.052,0.05l-0.049,0.048l-0.051,0.051l-0.053,0.054l-0.051,0.052l-0.051,0.052l-0.047,0.048l-0.049,0.053l-0.052,0.055l-0.049,0.053l-0.049,0.053l-0.048,0.054l-0.047,0.053l-0.048,0.054l-0.047,0.054l-0.047,0.054l-0.047,0.055l-0.046,0.055l-0.048,0.058l-0.045,0.055l-0.043,0.053l-0.047,0.059l-0.047,0.059l-0.041,0.053l-0.045,0.057l-0.045,0.06l-0.043,0.057l-0.043,0.058l-0.042,0.057l-0.043,0.06l-0.042,0.059l-0.042,0.058l-0.042,0.061l-0.041,0.059l-0.04,0.059l-0.039,0.058l-0.04,0.06l-0.041,0.063l-0.038,0.06l-0.039,0.06l-0.039,0.063l-0.04,0.063l-0.037,0.061l-0.037,0.061l-0.036,0.06l-0.036,0.062l-0.039,0.068l-0.035,0.06l-0.035,0.063l-0.035,0.063l-0.035,0.064l-0.035,0.065l-0.032,0.061l-0.035,0.066l-0.034,0.066l-0.033,0.065l-0.032,0.064l-0.032,0.064l-0.032,0.066l-0.031,0.065l-0.032,0.067l-0.031,0.067l-0.029,0.065l-0.029,0.065l-0.03,0.068l-0.03,0.067l-0.029,0.068l-0.028,0.066l-0.027,0.066l-0.028,0.071l-0.027,0.067l-0.026,0.066l-0.026,0.069l-0.027,0.07l-0.025,0.069l-0.025,0.067l-0.024,0.07l-0.025,0.07l-0.024,0.069l-0.022,0.068l-0.023,0.07l-0.023,0.072l-0.022,0.07l-0.022,0.069l-0.021,0.071l-0.021,0.071l-0.02,0.07l-0.02,0.071l-0.02,0.074l-0.019,0.069l-0.019,0.073l-0.018,0.071l-0.018,0.071l-0.017,0.074l-0.017,0.071l-0.017,0.073l-0.016,0.074l-0.015,0.072l-0.016,0.073l-0.014,0.073l-0.014,0.072l-0.014,0.074l-0.014,0.075l-0.013,0.073l-0.012,0.075l-0.013,0.074l-0.011,0.073l-0.011,0.075l-0.011,0.075l-0.01,0.074l-0.01,0.075l-0.009,0.075l-0.009,0.076l-0.008,0.075l-0.008,0.076l-0.008,0.075l-0.007,0.076l-0.006,0.076l-0.006,0.076l-0.006,0.077l-0.005,0.077l-0.005,0.076l-0.004,0.076l-0.003,0.078l-0.004,0.076l-0.002,0.078l-0.003,0.078l-0.001,0.077l-0.002,0.077l0,0.078l-0.001,0.078l0.001,0.078l0,0.078l0.002,0.077l0.001,0.077l0.003,0.078l0.002,0.078l0.004,0.076l0.003,0.078l0.004,0.077l0.005,0.075l0.005,0.077l0.006,0.077l0.006,0.076l0.006,0.075l0.007,0.076l0.008,0.076l0.008,0.076l0.008,0.076l0.009,0.075l0.009,0.075l0.01,0.074l0.01,0.075l0.011,0.075l0.011,0.075l0.011,0.073l0.013,0.076l0.012,0.073l0.013,0.074l0.013,0.073l0.014,0.074l0.015,0.073l0.014,0.073l0.016,0.073l0.015,0.073l0.016,0.073l0.017,0.073l0.017,0.073l0.017,0.07l0.018,0.072l0.018,0.073l0.019,0.071l0.019,0.072l0.02,0.072l0.02,0.071l0.02,0.07l0.021,0.071l0.021,0.071l0.022,0.069l0.022,0.07l0.022,0.07l0.024,0.071l0.023,0.071l0.023,0.067l0.025,0.07l0.024,0.07l0.025,0.067l0.025,0.069l0.027,0.07l0.025,0.067l0.027,0.068l0.028,0.069l0.026,0.067l0.028,0.067l0.029,0.069l0.028,0.066l0.03,0.068l0.029,0.065l0.03,0.067l0.03,0.068l0.03,0.064l0.032,0.067l0.031,0.065l0.031,0.063l0.033,0.067l0.033,0.066l0.032,0.064l0.034,0.065l0.033,0.064l0.034,0.062l0.035,0.066l0.035,0.064l0.035,0.063l0.035,0.062l0.037,0.064l0.035,0.062l0.038,0.064l0.036,0.061l0.037,0.061l0.039,0.064l0.038,0.06l0.038,0.06l0.04,0.063l0.038,0.06l0.04,0.06l0.041,0.062l0.039,0.059l0.042,0.062l0.041,0.059l0.038,0.055l0.044,0.061l0.044,0.062l0.041,0.057l0.042,0.058l0.043,0.057l0.043,0.058l0.043,0.056l0.047,0.06l0.043,0.056l0.045,0.056l0.045,0.056l0.045,0.055l0.048,0.059l0.045,0.055l0.043,0.052l0.047,0.054l0.05,0.058l0.047,0.054l0.048,0.054l0.05,0.056l0.048,0.054l0.046,0.05l0.049,0.053l0.049,0.052l0.049,0.052l0.053,0.055l0.051,0.052l0.048,0.049l0.05,0.051l0.051,0.051l0.055,0.054l0.052,0.05l0.049,0.047l0.053,0.05l0.053,0.05l0.053,0.049l0.053,0.049l0.054,0.048l0.051,0.046l0.054,0.048l0.059,0.05l0.055,0.048l0.052,0.044l0.056,0.047l0.056,0.047l0.053,0.043l0.056,0.046l0.058,0.046l0.057,0.045l0.057,0.045l0.059,0.046l0.054,0.041l0.059,0.044l0.059,0.044l0.055,0.04l0.06,0.044l0.06,0.042l0.06,0.043l0.061,0.042l0.057,0.04l0.056,0.038l0.062,0.041l0.062,0.041l0.062,0.041l0.062,0.04l0.058,0.038l0.059,0.036l0.063,0.04l0.064,0.038l0.059,0.036l0.064,0.038l0.065,0.039l0.055,0.032l0.065,0.037l0.066,0.036l0.065,0.037l0.062,0.034l0.061,0.033l0.067,0.035l0.066,0.035l0.062,0.032l0.063,0.032l0.068,0.034l0.062,0.031l0.069,0.033l0.069,0.033l0.063,0.03l0.064,0.03l0.065,0.029l0.064,0.029l0.07,0.031l0.07,0.03l0.065,0.028l0.066,0.028l0.071,0.029l0.066,0.027l0.066,0.026l0.066,0.026l0.072,0.027l0.067,0.026l0.068,0.025l0.072,0.026l0.068,0.024l0.068,0.024l0.068,0.023l0.074,0.025l0.069,0.023l0.069,0.022l0.069,0.021l0.069,0.022l0.075,0.022l0.07,0.021l0.07,0.02l0.07,0.02l0.071,0.019l0.071,0.019l0.071,0.019l0.077,0.019l0.071,0.018l0.066,0.016l0.072,0.017l0.078,0.017l0.072,0.016l0.072,0.016l0.073,0.015l0.073,0.015l0.073,0.014l0.074,0.014l0.074,0.013l0.074,0.013l0.074,0.013l0.074,0.012l0.074,0.012l0.075,0.011l0.075,0.011l0.075,0.01l0.076,0.01l0.07,0.008l0.075,0.009l0.082,0.009l0.071,0.008l0.076,0.007l0.077,0.007l0.154,0.013l0.071,0.005l0.078,0.005l0.078,0.005l0.078,0.004l0.078,0.004l0.078,0.003l0.073,0.003l0.078,0.002l0.079,0.002l0.079,0.001l0.074,0.001l0.159,0l0.074,-0.001l0.079,-0.001l0.079,-0.002l0.078,-0.002l0.073,-0.003l0.078,-0.003l0.078,-0.004l0.078,-0.004l0.078,-0.005l0.078,-0.005l0.071,-0.005l0.077,-0.006l0.077,-0.007l0.077,-0.007l0.076,-0.007l0.071,-0.008l0.081,-0.009l0.076,-0.009l0.07,-0.008l0.075,-0.01l0.076,-0.01l0.075,-0.011l0.075,-0.011l0.074,-0.012l0.074,-0.012l0.075,-0.013l0.073,-0.013l0.074,-0.013l0.073,-0.014l0.074,-0.014l0.073,-0.015l0.073,-0.015l0.072,-0.016l0.072,-0.016l0.078,-0.018l0.072,-0.016l0.066,-0.016l0.071,-0.018l0.077,-0.019l0.071,-0.019l0.071,-0.019l0.071,-0.019l0.07,-0.02l0.07,-0.02l0.07,-0.021l0.075,-0.022l0.069,-0.021l0.069,-0.022l0.069,-0.022l0.069,-0.023l0.074,-0.025l0.068,-0.023l0.068,-0.024l0.068,-0.024l0.073,-0.027l0.066,-0.024l0.068,-0.026l0.072,-0.027l0.066,-0.026l0.066,-0.026l0.066,-0.027l0.071,-0.03l0.066,-0.027l0.065,-0.028l0.07,-0.031l0.07,-0.03l0.064,-0.029l0.065,-0.029l0.064,-0.03l0.064,-0.03l0.068,-0.033l0.068,-0.033l0.063,-0.031l0.068,-0.034l0.062,-0.032l0.063,-0.032l0.067,-0.035l0.066,-0.035l0.061,-0.033l0.062,-0.034l0.065,-0.037l0.066,-0.036l0.065,-0.037l0.055,-0.032l0.065,-0.039l0.064,-0.037l0.059,-0.037l0.064,-0.038l0.063,-0.039l0.059,-0.037l0.058,-0.038l0.062,-0.04l0.063,-0.041l0.061,-0.041l0.062,-0.041l0.057,-0.039l0.056,-0.039l0.061,-0.042l0.06,-0.043l0.06,-0.042l0.06,-0.044l0.055,-0.04l0.059,-0.044l0.059,-0.044l0.054,-0.042l0.058,-0.044l0.058,-0.046l0.057,-0.045l0.057,-0.046l0.057,-0.046l0.053,-0.043l0.056,-0.047l0.056,-0.047l0.052,-0.044l0.055,-0.047l0.059,-0.052l0.054,-0.047l0.051,-0.045l0.054,-0.049l0.053,-0.049l0.054,-0.05l0.053,-0.049l0.052,-0.05l0.049,-0.047l0.052,-0.05l0.055,-0.054l0.051,-0.051l0.051,-0.051l0.047,-0.048l0.05,-0.052l0.053,-0.056l0.05,-0.052l0.049,-0.052l0.049,-0.053l0.046,-0.05l0.048,-0.053l0.051,-0.057l0.047,-0.054l0.047,-0.054l0.05,-0.058l0.046,-0.054l0.044,-0.052l0.045,-0.055l0.048,-0.059l0.046,-0.055l0.044,-0.056l0.045,-0.056l0.043,-0.056l0.046,-0.06l0.044,-0.057l0.043,-0.057l0.042,-0.057l0.043,-0.058l0.042,-0.058l0.043,-0.06l0.043,-0.062l0.039,-0.055l0.041,-0.059l0.042,-0.062l0.04,-0.059l0.041,-0.062l0.039,-0.06l0.038,-0.06l0.04,-0.063l0.038,-0.06l0.038,-0.06l0.039,-0.064l0.036,-0.061l0.037,-0.061l0.038,-0.064l0.035,-0.061l0.037,-0.065l0.035,-0.062l0.035,-0.062l0.035,-0.065l0.035,-0.066l0.034,-0.062l0.033,-0.064l0.034,-0.065l0.032,-0.064l0.033,-0.066l0.033,-0.067l0.032,-0.064l0.03,-0.063l0.031,-0.067l0.031,-0.065l0.03,-0.068l0.03,-0.067l0.03,-0.066l0.029,-0.067l0.028,-0.066l0.029,-0.069l0.027,-0.067l0.027,-0.067l0.028,-0.068l0.027,-0.069l0.026,-0.068l0.025,-0.068l0.026,-0.069l0.025,-0.068l0.024,-0.07l0.025,-0.07l0.023,-0.068l0.024,-0.07l0.023,-0.07l0.022,-0.071l0.023,-0.07l0.021,-0.069l0.021,-0.071l0.021,-0.071l0.02,-0.07l0.02,-0.071l0.02,-0.072l0.019,-0.072l0.019,-0.071l0.018,-0.073l0.018,-0.072l0.017,-0.07l0.017,-0.073l0.017,-0.073l0.016,-0.073l0.015,-0.072l0.016,-0.074l0.014,-0.073l0.015,-0.073l0.013,-0.074l0.014,-0.074l0.013,-0.074l0.012,-0.072l0.012,-0.075l0.012,-0.074l0.011,-0.075l0.011,-0.075l0.01,-0.075l0.01,-0.075l0.009,-0.075l0.009,-0.074l0.008,-0.076l0.008,-0.076l0.008,-0.076l0.007,-0.075l0.006,-0.076l0.006,-0.077l0.006,-0.076l0.005,-0.076l0.005,-0.077l0.004,-0.077l0.003,-0.076l0.004,-0.077l0.002,-0.078l0.003,-0.077l0.001,-0.077l0.001,-0.079l0.001,-0.077l0,-0.078l0,-0.078l-0.001,-0.077l-0.001,-0.079l-0.001,-0.077l-0.003,-0.077l-0.002,-0.078l-0.004,-0.077l-0.003,-0.076l-0.004,-0.076l-0.005,-0.078l-0.005,-0.076l-0.006,-0.076l-0.006,-0.077l-0.006,-0.076l-0.007,-0.076l-0.008,-0.075l-0.008,-0.076l-0.008,-0.075l-0.009,-0.075l-0.009,-0.075l-0.01,-0.076l-0.01,-0.075l-0.011,-0.074l-0.011,-0.075l-0.012,-0.074l-0.012,-0.073l-0.012,-0.074l-0.013,-0.074l-0.014,-0.075l-0.014,-0.074l-0.014,-0.072l-0.014,-0.073l-0.016,-0.074l-0.015,-0.071l-0.016,-0.074l-0.017,-0.073l-0.017,-0.071l-0.017,-0.074l-0.018,-0.071l-0.018,-0.071l-0.019,-0.072l-0.019,-0.071l-0.02,-0.073l-0.02,-0.071l-0.02,-0.07l-0.021,-0.071l-0.021,-0.071l-0.021,-0.068l-0.023,-0.071l-0.023,-0.073l-0.022,-0.068l-0.023,-0.068l-0.024,-0.07l-0.025,-0.07l-0.024,-0.07l-0.025,-0.068l-0.026,-0.069l-0.025,-0.068l-0.027,-0.07l-0.026,-0.067l-0.027,-0.066l-0.028,-0.071l-0.027,-0.066l-0.028,-0.066l-0.029,-0.068l-0.029,-0.067l-0.031,-0.068l-0.029,-0.065l-0.029,-0.065l-0.032,-0.068l-0.031,-0.066l-0.03,-0.064l-0.033,-0.067l-0.032,-0.064l-0.031,-0.063l-0.034,-0.066l-0.034,-0.066l-0.035,-0.066l-0.032,-0.061l-0.035,-0.065l-0.035,-0.065l-0.035,-0.062l-0.035,-0.062l-0.035,-0.062l-0.039,-0.067l-0.036,-0.061l-0.037,-0.061l-0.036,-0.062l-0.038,-0.06l-0.039,-0.063l-0.039,-0.063l-0.039,-0.06l-0.038,-0.06l-0.041,-0.063l-0.039,-0.059l-0.04,-0.06l-0.04,-0.058l-0.041,-0.059l-0.043,-0.061l-0.041,-0.059l-0.041,-0.057l-0.044,-0.061l-0.043,-0.058l-0.042,-0.057l-0.043,-0.057l-0.046,-0.06l-0.044,-0.057l-0.041,-0.053l-0.047,-0.059l-0.047,-0.059l-0.043,-0.053l-0.045,-0.055l-0.048,-0.058l-0.047,-0.055l-0.046,-0.055l-0.047,-0.054l-0.047,-0.054l-0.047,-0.054l-0.048,-0.054l-0.049,-0.053l-0.048,-0.053l-0.049,-0.052l-0.052,-0.056l-0.049,-0.053l-0.048,-0.049l-0.05,-0.052l-0.05,-0.051l-0.054,-0.054l-0.052,-0.051l-0.048,-0.048l-0.052,-0.05l-0.052,-0.05l-0.052,-0.049l-0.053,-0.05l-0.054,-0.05l-0.053,-0.049l-0.054,-0.048l-0.054,-0.049l-0.055,-0.048l-0.051,-0.045l-0.056,-0.047l-0.055,-0.047l-0.056,-0.047l-0.056,-0.047l-0.053,-0.043l-0.06,-0.049l-0.057,-0.046l-0.054,-0.042l-0.054,-0.043l-0.058,-0.044l-0.062,-0.048l-0.055,-0.041l-0.059,-0.044l-0.059,-0.044l-0.056,-0.04l-0.06,-0.043l-0.056,-0.039l-0.06,-0.042l-0.061,-0.042l-0.062,-0.042l-0.061,-0.041l-0.057,-0.038l-0.059,-0.039l-0.062,-0.039l-0.062,-0.04l-0.059,-0.037l-0.063,-0.039l-0.064,-0.039l-0.064,-0.039l-0.059,-0.036l-0.06,-0.035l-0.065,-0.037l-0.06,-0.035l-0.066,-0.036l-0.065,-0.037l-0.062,-0.034l-0.061,-0.033l-0.066,-0.035l-0.067,-0.035l-0.063,-0.032l-0.062,-0.032l-0.068,-0.034l-0.068,-0.034l-0.058,-0.028l-0.068,-0.032l-0.069,-0.033l-0.064,-0.03l-0.065,-0.029l-0.069,-0.031l-0.07,-0.031l-0.06,-0.026l-0.065,-0.028l-0.071,-0.029l-0.071,-0.03l-0.066,-0.026l-0.066,-0.027l-0.072,-0.028l-0.066,-0.026l-0.068,-0.025l-0.066,-0.025l-0.068,-0.024l-0.073,-0.026l-0.074,-0.026l-0.068,-0.023l-0.063,-0.021l-0.068,-0.023l-0.075,-0.024l-0.069,-0.021l-0.069,-0.022l-0.075,-0.022l-0.07,-0.021l-0.07,-0.02l-0.07,-0.02l-0.071,-0.019l-0.071,-0.019l-0.071,-0.018l-0.077,-0.02l-0.071,-0.018l-0.071,-0.017l-0.072,-0.017l-0.067,-0.015l-0.078,-0.017l-0.072,-0.016l-0.073,-0.015l-0.073,-0.015l-0.074,-0.014l-0.073,-0.014l-0.074,-0.013l-0.073,-0.013l-0.075,-0.013l-0.074,-0.012l-0.074,-0.011l-0.075,-0.012l-0.069,-0.01l-0.082,-0.011l-0.075,-0.01l-0.075,-0.009l-0.076,-0.009l-0.071,-0.008l-0.076,-0.008l-0.076,-0.007l-0.077,-0.007l-0.077,-0.007l-0.071,-0.006l-0.077,-0.005l-0.084,-0.006l-0.078,-0.005l-0.072,-0.003l-0.072,-0.004l-0.078,-0.003l-0.085,-0.003l-0.072,-0.002l-0.074,-0.002l-0.084,-0.001l-0.08,-0.001l-0.074,0l-0.073,0Z" style="fill:#282624;"/><path d="M20.252,11.699c0,0.431 -0.052,0.81 -0.157,1.136c-0.104,0.327 -0.251,0.627 -0.44,0.901c-0.19,0.275 -0.418,0.533 -0.686,0.774c-0.268,0.242 -0.572,0.493 -0.911,0.754c-0.209,0.17 -0.382,0.32 -0.519,0.451c-0.138,0.131 -0.245,0.265 -0.324,0.402c-0.078,0.137 -0.134,0.281 -0.166,0.431c-0.033,0.15 -0.049,0.33 -0.049,0.539l0,0.509l-3.056,0l0,-0.745c0,-0.339 0.032,-0.643 0.097,-0.911c0.066,-0.267 0.164,-0.512 0.294,-0.734c0.131,-0.222 0.291,-0.438 0.48,-0.647c0.19,-0.209 0.415,-0.424 0.676,-0.646l0.647,-0.608c0.222,-0.196 0.411,-0.401 0.568,-0.617c0.157,-0.215 0.235,-0.473 0.235,-0.774c0,-0.418 -0.127,-0.751 -0.382,-0.999c-0.255,-0.248 -0.604,-0.372 -1.048,-0.372c-0.549,0 -0.96,0.186 -1.234,0.558c-0.275,0.372 -0.425,0.794 -0.451,1.264l-3.115,-0.333c0.078,-0.705 0.258,-1.326 0.539,-1.861c0.28,-0.536 0.643,-0.98 1.087,-1.333c0.444,-0.352 0.947,-0.617 1.509,-0.793c0.561,-0.176 1.155,-0.265 1.782,-0.265c0.588,0 1.16,0.076 1.715,0.226c0.555,0.15 1.048,0.385 1.479,0.705c0.431,0.32 0.777,0.728 1.038,1.225c0.261,0.496 0.392,1.084 0.392,1.763Zm-2.86,8.659c0,0.523 -0.183,0.964 -0.549,1.323c-0.366,0.359 -0.816,0.539 -1.352,0.539c-0.261,0 -0.506,-0.046 -0.734,-0.138c-0.229,-0.091 -0.431,-0.222 -0.608,-0.391c-0.176,-0.17 -0.316,-0.366 -0.421,-0.588c-0.104,-0.222 -0.157,-0.464 -0.157,-0.725c0,-0.248 0.049,-0.487 0.147,-0.715c0.098,-0.229 0.235,-0.428 0.412,-0.598c0.176,-0.169 0.382,-0.303 0.617,-0.401c0.235,-0.098 0.483,-0.147 0.744,-0.147c0.262,0 0.506,0.049 0.735,0.147c0.229,0.098 0.431,0.228 0.607,0.392c0.177,0.163 0.314,0.359 0.412,0.587c0.098,0.229 0.147,0.467 0.147,0.715Z" style="fill:#2a292a;fill-rule:nonzero;"/></g></svg>