<?xml version="1.0" encoding="UTF-8" standalone="no"?><!DOCTYPE svg PUBLIC "-//W3C//DTD SVG 1.1//EN" "http://www.w3.org/Graphics/SVG/1.1/DTD/svg11.dtd"><svg width="100%" height="100%" viewBox="0 0 40 40" version="1.1" xmlns="http://www.w3.org/2000/svg" xmlns:xlink="http://www.w3.org/1999/xlink" xml:space="preserve" xmlns:serif="http://www.serif.com/" style="fill-rule:evenodd;clip-rule:evenodd;stroke-linejoin:round;stroke-miterlimit:1.41421;"><rect id="town-icon" x="0" y="0" width="40" height="40" style="fill:none;"/><clipPath id="_clip1"><rect x="0" y="0" width="40" height="40"/></clipPath><g clip-path="url(#_clip1)"><g id="town"><path id="town-active" d="M20.368,0.008c0.015,0.001 0.03,0.002 0.044,0.003l0.017,0.003l0.015,0.002l0.02,0.005l0.02,0.002l0.016,0.005c0.019,0.004 0.037,0.009 0.054,0.014c0.023,0.007 0.046,0.015 0.068,0.024l0.001,0c0.067,0.028 0.131,0.063 0.19,0.106l0.01,0.007c0.027,0.021 0.052,0.045 0.077,0.068c0.008,0.007 0.015,0.014 0.023,0.02l12.899,13.193c0.031,0.037 0.065,0.072 0.093,0.112c0.249,0.357 0.185,0.895 -0.161,1.18c-0.298,0.248 -0.765,0.263 -1.08,0.033c-0.039,-0.029 -0.073,-0.063 -0.109,-0.095l-1.424,-1.456l0,14.034c-0.009,0.122 -0.005,0.154 -0.043,0.272c-0.085,0.263 -0.301,0.479 -0.564,0.564c-0.118,0.038 -0.15,0.034 -0.272,0.043l-5.864,0c-0.121,-0.009 -0.154,-0.005 -0.271,-0.043c-0.264,-0.085 -0.48,-0.301 -0.565,-0.564c-0.038,-0.118 -0.034,-0.15 -0.043,-0.272c0,-1.604 0.002,-3.208 0,-4.811c-0.004,-1.197 -0.369,-2.441 -1.255,-3.208c-1.083,-0.938 -2.901,-0.945 -3.992,0.046c-0.844,0.767 -1.202,1.993 -1.203,3.176l0,4.797c-0.01,0.122 -0.005,0.154 -0.043,0.272c-0.086,0.263 -0.301,0.479 -0.565,0.564c-0.117,0.038 -0.15,0.034 -0.272,0.043l-6.449,0c-0.122,-0.009 -0.155,-0.005 -0.272,-0.043c-0.263,-0.085 -0.479,-0.301 -0.565,-0.564c-0.038,-0.118 -0.033,-0.15 -0.043,-0.272l0,-13.97l-1.437,1.406c-0.037,0.031 -0.072,0.065 -0.112,0.092c-0.357,0.249 -0.894,0.185 -1.18,-0.16c-0.248,-0.299 -0.263,-0.765 -0.033,-1.08c0.028,-0.039 0.063,-0.073 0.095,-0.11l2.882,-2.82c0.016,-0.02 0.033,-0.039 0.05,-0.059l10.554,-10.314l0.001,0c0.057,-0.056 0.122,-0.104 0.192,-0.142c0.011,-0.006 0.022,-0.012 0.033,-0.017l0.009,-0.005l0.002,-0.001c0.066,-0.032 0.136,-0.054 0.207,-0.069l0,0l0.001,0c0.023,-0.004 0.047,-0.008 0.071,-0.011c0.029,-0.003 0.059,-0.004 0.089,-0.004l0.022,-0.001l0.062,0.005Zm-0.092,2.122l-9.657,9.447l0,14.811l4.691,0c0,-1.312 -0.001,-2.623 0,-3.935c0.005,-1.436 0.415,-2.927 1.369,-4.037c0.564,-0.658 1.313,-1.156 2.147,-1.41c0.486,-0.148 0.991,-0.215 1.504,-0.212c1.137,0.009 2.272,0.405 3.121,1.157c1.251,1.106 1.825,2.882 1.827,4.519l0,3.918l4.104,0l0,-14.836l-9.106,-9.422Z" style="fill:#262626;fill-rule:nonzero;"/><g><path d="M9.112,35.052l-1.743,0l0,-0.883l4.498,0l0,0.883l-1.742,0l0,4.803l-1.013,0l0,-4.803Z" style="fill:#262626;fill-rule:nonzero;"/><path d="M12.012,36.996c0,-0.455 0.076,-0.866 0.229,-1.233c0.153,-0.367 0.364,-0.679 0.635,-0.936c0.27,-0.257 0.591,-0.455 0.963,-0.594c0.373,-0.139 0.778,-0.209 1.217,-0.209c0.445,0 0.854,0.07 1.229,0.209c0.375,0.139 0.699,0.337 0.972,0.594c0.273,0.257 0.486,0.569 0.639,0.936c0.152,0.367 0.228,0.778 0.228,1.233c0,0.444 -0.076,0.85 -0.228,1.217c-0.153,0.367 -0.366,0.683 -0.639,0.948c-0.273,0.265 -0.597,0.471 -0.972,0.618c-0.375,0.147 -0.784,0.221 -1.229,0.221c-0.439,0 -0.844,-0.074 -1.217,-0.221c-0.372,-0.147 -0.693,-0.353 -0.963,-0.618c-0.271,-0.265 -0.482,-0.581 -0.635,-0.948c-0.153,-0.367 -0.229,-0.773 -0.229,-1.217Zm1.1,0c0,0.305 0.047,0.585 0.141,0.839c0.094,0.255 0.228,0.476 0.402,0.663c0.174,0.187 0.38,0.333 0.618,0.438c0.238,0.104 0.502,0.156 0.791,0.156c0.289,0 0.554,-0.052 0.795,-0.156c0.241,-0.105 0.449,-0.251 0.623,-0.438c0.174,-0.187 0.308,-0.408 0.402,-0.663c0.093,-0.254 0.14,-0.534 0.14,-0.839c0,-0.295 -0.047,-0.568 -0.14,-0.819c-0.094,-0.252 -0.227,-0.472 -0.398,-0.659c-0.171,-0.187 -0.378,-0.335 -0.619,-0.442c-0.24,-0.107 -0.508,-0.16 -0.803,-0.16c-0.294,0 -0.561,0.053 -0.799,0.16c-0.238,0.107 -0.443,0.255 -0.614,0.442c-0.172,0.187 -0.304,0.407 -0.398,0.659c-0.094,0.251 -0.141,0.524 -0.141,0.819Z" style="fill:#262626;fill-rule:nonzero;"/><path d="M18.526,34.169l1.109,0l1.1,4.176l0.016,0l1.253,-4.176l1.044,0l1.229,4.176l0.016,0l1.125,-4.176l1.076,0l-1.663,5.686l-0.98,0l-1.333,-4.265l-0.016,0l-1.333,4.265l-0.98,0l-1.663,-5.686Z" style="fill:#262626;fill-rule:nonzero;"/><path d="M27.169,34.169l1.341,0l2.643,4.257l0.016,0l0,-4.257l1.012,0l0,5.686l-1.285,0l-2.699,-4.393l-0.016,0l0,4.393l-1.012,0l0,-5.686Z" style="fill:#262626;fill-rule:nonzero;"/></g></g></g></svg>