<?xml version="1.0" encoding="UTF-8" standalone="no"?><!DOCTYPE svg PUBLIC "-//W3C//DTD SVG 1.1//EN" "http://www.w3.org/Graphics/SVG/1.1/DTD/svg11.dtd"><svg width="100%" height="100%" viewBox="0 0 40 40" version="1.1" xmlns="http://www.w3.org/2000/svg" xmlns:xlink="http://www.w3.org/1999/xlink" xml:space="preserve" xmlns:serif="http://www.serif.com/" style="fill-rule:evenodd;clip-rule:evenodd;stroke-linejoin:round;stroke-miterlimit:1.41421;"><rect id="vote-icon" x="0" y="0" width="40" height="40" style="fill:none;"/><g id="vote"><g><path d="M9.423,34.169l1.132,0l1.567,4.377l0.032,0l1.582,-4.377l1.092,0l-2.281,5.686l-0.875,0l-2.249,-5.686Z" style="fill:#262626;fill-rule:nonzero;"/><path d="M15.005,36.996c0,-0.455 0.076,-0.866 0.229,-1.233c0.153,-0.367 0.364,-0.679 0.635,-0.936c0.27,-0.257 0.591,-0.455 0.963,-0.594c0.373,-0.139 0.778,-0.209 1.217,-0.209c0.445,0 0.854,0.07 1.229,0.209c0.375,0.139 0.699,0.337 0.972,0.594c0.273,0.257 0.486,0.569 0.639,0.936c0.152,0.367 0.229,0.778 0.229,1.233c0,0.444 -0.077,0.85 -0.229,1.217c-0.153,0.367 -0.366,0.683 -0.639,0.948c-0.273,0.265 -0.597,0.471 -0.972,0.618c-0.375,0.147 -0.784,0.221 -1.229,0.221c-0.439,0 -0.844,-0.074 -1.217,-0.221c-0.372,-0.147 -0.693,-0.353 -0.963,-0.618c-0.271,-0.265 -0.482,-0.581 -0.635,-0.948c-0.153,-0.367 -0.229,-0.773 -0.229,-1.217Zm1.101,0c0,0.305 0.046,0.585 0.14,0.839c0.094,0.255 0.228,0.476 0.402,0.663c0.174,0.187 0.38,0.333 0.618,0.438c0.239,0.104 0.502,0.156 0.791,0.156c0.29,0 0.555,-0.052 0.796,-0.156c0.241,-0.105 0.448,-0.251 0.622,-0.438c0.174,-0.187 0.308,-0.408 0.402,-0.663c0.093,-0.254 0.14,-0.534 0.14,-0.839c0,-0.295 -0.047,-0.568 -0.14,-0.819c-0.094,-0.252 -0.227,-0.472 -0.398,-0.659c-0.171,-0.187 -0.377,-0.335 -0.618,-0.442c-0.241,-0.107 -0.509,-0.16 -0.804,-0.16c-0.294,0 -0.561,0.053 -0.799,0.16c-0.238,0.107 -0.443,0.255 -0.614,0.442c-0.172,0.187 -0.304,0.407 -0.398,0.659c-0.094,0.251 -0.14,0.524 -0.14,0.819Z" style="fill:#262626;fill-rule:nonzero;"/><path d="M23.005,35.052l-1.743,0l0,-0.883l4.498,0l0,0.883l-1.743,0l0,4.803l-1.012,0l0,-4.803Z" style="fill:#262626;fill-rule:nonzero;"/><path d="M26.419,34.169l3.767,0l0,0.883l-2.755,0l0,1.446l2.61,0l0,0.851l-2.61,0l0,1.607l2.899,0l0,0.899l-3.911,0l0,-5.686Z" style="fill:#262626;fill-rule:nonzero;"/></g><path id="vote-inactive" d="M20.15,0.016c0.144,0.039 0.145,0.039 0.281,0.102l11.441,6.606c0.041,0.028 0.084,0.053 0.123,0.086c0.115,0.097 0.204,0.224 0.255,0.365c0.046,0.126 0.041,0.162 0.052,0.295l0,13.21c-0.008,0.1 -0.017,0.201 -0.052,0.295c-0.034,0.095 -0.085,0.182 -0.149,0.259c-0.086,0.103 -0.121,0.116 -0.229,0.193l-11.441,6.605c-0.121,0.056 -0.149,0.079 -0.281,0.102c-0.149,0.027 -0.304,0.013 -0.445,-0.039c-0.047,-0.017 -0.09,-0.042 -0.136,-0.063l-11.441,-6.605c-0.041,-0.029 -0.084,-0.054 -0.123,-0.087c-0.115,-0.097 -0.204,-0.224 -0.255,-0.365c-0.046,-0.126 -0.041,-0.162 -0.052,-0.295l0,-13.21c0.011,-0.133 0.006,-0.169 0.052,-0.295c0.051,-0.142 0.141,-0.269 0.255,-0.365c0.039,-0.033 0.082,-0.058 0.123,-0.086l11.441,-6.606c0.046,-0.021 0.089,-0.046 0.136,-0.063c0.127,-0.046 0.163,-0.041 0.295,-0.052c0.05,0.004 0.1,0.008 0.15,0.013Zm10.429,9.027l-9.717,5.611l0,11.14l9.717,-5.611l0,-11.14Zm-21.158,11.14l9.717,5.611l0,-11.187l-9.717,-5.61l0,11.186Zm0.831,-12.696l9.788,5.651l9.748,-5.628l-9.788,-5.651l-9.748,5.628Zm11.84,-2.02c0.343,0.014 0.66,0.233 0.783,0.544c0.151,0.38 -0.015,0.849 -0.37,1.063l-3.876,2.238c-0.278,0.153 -0.63,0.148 -0.892,-0.019c-0.295,-0.187 -0.454,-0.564 -0.381,-0.906c0.05,-0.236 0.206,-0.443 0.412,-0.567l3.876,-2.238c0.028,-0.015 0.035,-0.02 0.064,-0.033c0.032,-0.016 0.066,-0.029 0.1,-0.04c0.057,-0.019 0.116,-0.031 0.176,-0.038c0.07,-0.007 0.086,-0.004 0.108,-0.004Z" style="fill:#262626;fill-rule:nonzero;"/></g></svg>