<?xml version="1.0" encoding="UTF-8" standalone="no"?><!DOCTYPE svg PUBLIC "-//W3C//DTD SVG 1.1//EN" "http://www.w3.org/Graphics/SVG/1.1/DTD/svg11.dtd"><svg width="100%" height="100%" viewBox="0 0 50 50" version="1.1" xmlns="http://www.w3.org/2000/svg" xmlns:xlink="http://www.w3.org/1999/xlink" xml:space="preserve" xmlns:serif="http://www.serif.com/" style="fill-rule:evenodd;clip-rule:evenodd;stroke-linecap:round;stroke-linejoin:round;stroke-miterlimit:2;"><rect id="f_alien_thumb" x="0" y="0" width="50" height="50" style="fill:none;"/><clipPath id="_clip1"><rect x="0" y="0" width="50" height="50"/></clipPath><g clip-path="url(#_clip1)"><circle cx="25" cy="25" r="25" style="fill:none;"/><clipPath id="_clip2"><circle cx="25" cy="25" r="25"/></clipPath><g clip-path="url(#_clip2)"><g><g id="girltato"><path d="M20.002,50.418c1.079,2.647 1.176,5.033 0,7.082" style="fill:none;stroke:#ac8639;stroke-width:1.82px;"/><path d="M32.093,50.441c0.725,2.314 0.763,4.672 0,7.082" style="fill:none;stroke:#ac8639;stroke-width:1.82px;"/><path d="M38.122,36.677c0.393,2.831 1.506,4.946 3.552,6.134" style="fill:none;stroke:#ac8639;stroke-width:1.82px;"/><path id="potato" d="M25.272,11.914c11.379,0 15.395,8.977 15.395,20.034c0,11.058 -3.138,20.035 -15.395,20.035c-12.257,0 -15.395,-8.977 -15.395,-20.035c0,-11.057 4.016,-20.034 15.395,-20.034Z" style="fill:#edbe5e;"/><clipPath id="_clip3"><path d="M25.272,11.914c11.379,0 15.395,8.977 15.395,20.034c0,11.058 -3.138,20.035 -15.395,20.035c-12.257,0 -15.395,-8.977 -15.395,-20.035c0,-11.057 4.016,-20.034 15.395,-20.034Z"/></clipPath><g clip-path="url(#_clip3)"><path id="shadow" d="M25.272,11.914c-20.54,9.348 -9.631,39.389 0,40.069c-12.257,0 -15.395,-8.977 -15.395,-20.035c0,-11.057 4.016,-20.034 15.395,-20.034Z" style="fill:#cda24c;fill-opacity:0.25098;"/><ellipse id="eye_1" cx="23.18" cy="27.514" rx="1.662" ry="1.658" style="fill:#302a1c;"/><ellipse id="eye_2" cx="35.322" cy="27.514" rx="1.662" ry="1.658" style="fill:#302a1c;"/><g id="eyebrows"><path d="M24.085,24.109c-0.67,-0.497 -1.852,-0.428 -2.418,0" style="fill:none;stroke:#ac8639;stroke-opacity:0.5;stroke-width:0.78px;"/><path d="M36.324,24.109c-0.67,-0.497 -1.851,-0.428 -2.418,0" style="fill:none;stroke:#ac8639;stroke-opacity:0.5;stroke-width:0.78px;"/></g><g id="marks"><path d="M14.659,33.541c0.67,-0.496 1.851,-0.427 2.418,0" style="fill:none;stroke:#ac8639;stroke-opacity:0.5;stroke-width:0.78px;"/><path d="M33.931,38.908c0.67,-0.496 1.851,-0.427 2.417,0" style="fill:none;stroke:#ac8639;stroke-opacity:0.5;stroke-width:0.78px;"/><path d="M20.158,42.602c0.67,-0.496 1.851,-0.427 2.418,0" style="fill:none;stroke:#ac8639;stroke-opacity:0.5;stroke-width:0.78px;"/><path d="M26.734,47.812c0.67,-0.496 1.852,-0.427 2.418,0" style="fill:none;stroke:#ac8639;stroke-opacity:0.5;stroke-width:0.78px;"/></g></g><path d="M25.405,11.914l0.132,0.001l0.132,0.002l0.131,0.003l0.13,0.004l0.13,0.004l0.129,0.006l0.128,0.006l0.128,0.007l0.127,0.007l0.126,0.009l0.126,0.009l0.125,0.01l0.124,0.011l0.124,0.012l0.123,0.012l0.123,0.013l0.121,0.014l0.121,0.015l0.121,0.016l0.12,0.016l0.119,0.017l0.118,0.018l0.118,0.019l0.117,0.019l0.117,0.02l0.116,0.021l0.115,0.022l0.115,0.022l0.113,0.023l0.114,0.024l0.113,0.025l0.112,0.025l0.111,0.027l0.111,0.026l0.11,0.028l0.11,0.028l0.108,0.03l0.109,0.029l0.107,0.031l0.107,0.031l0.107,0.032l0.106,0.033l0.105,0.033l0.104,0.034l0.104,0.035l0.104,0.036l0.102,0.036l0.102,0.037l0.102,0.038l0.101,0.038l0.1,0.039l0.099,0.04l0.099,0.04l0.099,0.041l0.097,0.042l0.098,0.043l0.096,0.043l0.096,0.044l0.096,0.044l0.094,0.046l0.094,0.045l0.094,0.047l0.093,0.047l0.092,0.048l0.092,0.049l0.091,0.049l0.091,0.05l0.09,0.05l0.089,0.051l0.089,0.052l0.088,0.053l0.088,0.053l0.087,0.053l0.086,0.055l0.086,0.055l0.085,0.056l0.085,0.056l0.084,0.057l0.084,0.057l0.083,0.058l0.082,0.059l0.082,0.06l0.081,0.06l0.081,0.06l0.08,0.062l0.079,0.061l0.079,0.063l0.079,0.063l0.078,0.064l0.077,0.064l0.076,0.065l0.077,0.065l0.075,0.066l0.075,0.067l0.075,0.067l0.073,0.068l0.074,0.068l0.072,0.069l0.073,0.07l0.071,0.07l0.071,0.071l0.071,0.071l0.07,0.072l0.069,0.072l0.069,0.073l0.069,0.074l0.067,0.074l0.068,0.075l0.066,0.075l0.067,0.076l0.065,0.076l0.065,0.077l0.065,0.077l0.064,0.078l0.063,0.079l0.063,0.079l0.063,0.079l0.061,0.08l0.062,0.081l0.061,0.081l0.06,0.082l0.06,0.082l0.059,0.083l0.059,0.083l0.058,0.084l0.057,0.084l0.057,0.084l0.057,0.086l0.056,0.085l0.056,0.087l0.055,0.087l0.054,0.087l0.054,0.087l0.054,0.089l0.053,0.088l0.052,0.09l0.052,0.089l0.052,0.091l0.051,0.09l0.05,0.091l0.05,0.092l0.05,0.092l0.048,0.093l0.049,0.093l0.048,0.093l0.047,0.094l0.047,0.094l0.047,0.095l0.046,0.096l0.045,0.095l0.045,0.096l0.044,0.097l0.044,0.097l0.044,0.098l0.043,0.098l0.042,0.098l0.042,0.099l0.042,0.099l0.041,0.1l0.041,0.1l0.04,0.101l0.039,0.101l0.039,0.101l0.039,0.102l0.038,0.102l0.038,0.103l0.037,0.103l0.037,0.103l0.036,0.104l0.036,0.105l0.035,0.104l0.035,0.105l0.035,0.106l0.034,0.106l0.033,0.106l0.033,0.107l0.033,0.107l0.032,0.107l0.031,0.108l0.032,0.108l0.03,0.109l0.031,0.108l0.029,0.11l0.03,0.109l0.029,0.11l0.028,0.111l0.028,0.111l0.028,0.111l0.027,0.111l0.026,0.112l0.026,0.112l0.026,0.113l0.026,0.112l0.024,0.114l0.025,0.113l0.024,0.114l0.023,0.114l0.024,0.115l0.022,0.115l0.022,0.115l0.022,0.116l0.022,0.115l0.021,0.117l0.02,0.116l0.02,0.117l0.02,0.117l0.019,0.117l0.019,0.118l0.018,0.118l0.018,0.119l0.018,0.118l0.017,0.119l0.017,0.119l0.016,0.12l0.016,0.12l0.015,0.12l0.015,0.12l0.015,0.121l0.014,0.121l0.014,0.121l0.013,0.122l0.013,0.122l0.013,0.122l0.012,0.122l0.012,0.123l0.011,0.123l0.011,0.123l0.011,0.123l0.01,0.124l0.01,0.124l0.009,0.124l0.009,0.124l0.009,0.125l0.008,0.125l0.008,0.125l0.007,0.126l0.007,0.125l0.007,0.126l0.006,0.126l0.006,0.127l0.005,0.126l0.005,0.127l0.005,0.127l0.004,0.127l0.004,0.128l0.004,0.127l0.003,0.128l0.003,0.128l0.002,0.128l0.002,0.129l0.002,0.129l0.002,0.258l0.001,0.258l-0.001,0.259l-0.002,0.258l-0.002,0.257l-0.005,0.257l-0.005,0.255l-0.007,0.255l-0.007,0.254l-0.009,0.253l-0.011,0.252l-0.012,0.251l-0.013,0.25l-0.014,0.249l-0.016,0.248l-0.017,0.247l-0.018,0.246l-0.02,0.245l-0.01,0.122l-0.011,0.122l-0.011,0.121l-0.012,0.122l-0.012,0.121l-0.012,0.12l-0.013,0.121l-0.013,0.12l-0.013,0.12l-0.014,0.119l-0.014,0.12l-0.015,0.119l-0.015,0.118l-0.015,0.119l-0.016,0.118l-0.016,0.117l-0.016,0.118l-0.017,0.117l-0.017,0.117l-0.018,0.116l-0.018,0.116l-0.018,0.116l-0.019,0.116l-0.019,0.115l-0.02,0.115l-0.02,0.114l-0.02,0.115l-0.021,0.114l-0.022,0.113l-0.021,0.113l-0.022,0.113l-0.023,0.113l-0.023,0.112l-0.023,0.112l-0.024,0.111l-0.024,0.111l-0.025,0.111l-0.025,0.11l-0.026,0.11l-0.026,0.11l-0.026,0.109l-0.027,0.109l-0.028,0.109l-0.027,0.108l-0.029,0.108l-0.028,0.107l-0.029,0.107l-0.03,0.107l-0.03,0.106l-0.031,0.106l-0.031,0.105l-0.031,0.106l-0.032,0.104l-0.032,0.104l-0.033,0.104l-0.033,0.104l-0.034,0.103l-0.035,0.103l-0.034,0.102l-0.036,0.102l-0.035,0.101l-0.036,0.101l-0.037,0.101l-0.037,0.1l-0.038,0.099l-0.038,0.1l-0.039,0.099l-0.039,0.098l-0.04,0.098l-0.04,0.098l-0.041,0.097l-0.041,0.096l-0.041,0.096l-0.043,0.096l-0.042,0.096l-0.044,0.094l-0.043,0.095l-0.045,0.094l-0.044,0.093l-0.046,0.093l-0.046,0.093l-0.046,0.092l-0.047,0.091l-0.047,0.092l-0.048,0.09l-0.049,0.09l-0.049,0.09l-0.05,0.089l-0.05,0.089l-0.05,0.088l-0.052,0.088l-0.051,0.087l-0.053,0.087l-0.053,0.086l-0.053,0.086l-0.054,0.085l-0.055,0.085l-0.055,0.084l-0.056,0.084l-0.056,0.083l-0.057,0.083l-0.057,0.082l-0.058,0.082l-0.059,0.081l-0.059,0.08l-0.06,0.081l-0.06,0.079l-0.061,0.079l-0.061,0.079l-0.062,0.077l-0.063,0.078l-0.063,0.077l-0.064,0.076l-0.064,0.076l-0.065,0.075l-0.066,0.075l-0.066,0.074l-0.067,0.073l-0.068,0.073l-0.068,0.073l-0.068,0.072l-0.07,0.071l-0.07,0.071l-0.07,0.07l-0.071,0.069l-0.072,0.069l-0.072,0.069l-0.074,0.068l-0.073,0.067l-0.074,0.066l-0.075,0.066l-0.076,0.066l-0.076,0.065l-0.077,0.064l-0.077,0.064l-0.079,0.063l-0.078,0.062l-0.08,0.062l-0.08,0.061l-0.081,0.061l-0.081,0.06l-0.082,0.06l-0.083,0.058l-0.083,0.059l-0.084,0.057l-0.085,0.057l-0.085,0.056l-0.086,0.056l-0.087,0.055l-0.087,0.054l-0.088,0.054l-0.089,0.053l-0.089,0.053l-0.091,0.051l-0.09,0.052l-0.092,0.05l-0.092,0.05l-0.093,0.049l-0.093,0.049l-0.095,0.048l-0.094,0.047l-0.096,0.046l-0.096,0.046l-0.097,0.045l-0.098,0.045l-0.099,0.044l-0.099,0.043l-0.1,0.043l-0.1,0.041l-0.102,0.041l-0.102,0.041l-0.102,0.04l-0.104,0.039l-0.104,0.038l-0.105,0.038l-0.106,0.037l-0.106,0.036l-0.107,0.036l-0.108,0.034l-0.109,0.035l-0.109,0.033l-0.11,0.033l-0.111,0.032l-0.112,0.031l-0.112,0.03l-0.113,0.03l-0.114,0.029l-0.114,0.029l-0.116,0.027l-0.116,0.027l-0.117,0.026l-0.117,0.026l-0.119,0.024l-0.119,0.024l-0.12,0.024l-0.121,0.022l-0.121,0.022l-0.122,0.021l-0.123,0.02l-0.124,0.019l-0.125,0.019l-0.125,0.018l-0.126,0.017l-0.127,0.016l-0.128,0.016l-0.129,0.014l-0.129,0.014l-0.13,0.014l-0.131,0.012l-0.132,0.012l-0.132,0.011l-0.134,0.01l-0.134,0.009l-0.135,0.008l-0.136,0.008l-0.136,0.007l-0.138,0.006l-0.138,0.005l-0.139,0.005l-0.14,0.004l-0.141,0.002l-0.141,0.002l-0.143,0.002l-0.143,0l-0.143,0l-0.143,-0.002l-0.141,-0.002l-0.141,-0.002l-0.14,-0.004l-0.139,-0.005l-0.138,-0.005l-0.137,-0.006l-0.137,-0.007l-0.136,-0.008l-0.135,-0.008l-0.134,-0.009l-0.133,-0.01l-0.133,-0.011l-0.132,-0.012l-0.131,-0.012l-0.13,-0.014l-0.129,-0.014l-0.129,-0.014l-0.128,-0.016l-0.127,-0.016l-0.126,-0.017l-0.125,-0.018l-0.125,-0.019l-0.124,-0.019l-0.123,-0.02l-0.122,-0.021l-0.121,-0.022l-0.121,-0.022l-0.12,-0.024l-0.119,-0.024l-0.119,-0.024l-0.117,-0.026l-0.117,-0.026l-0.116,-0.027l-0.115,-0.027l-0.115,-0.029l-0.114,-0.029l-0.113,-0.03l-0.112,-0.03l-0.112,-0.031l-0.111,-0.032l-0.11,-0.033l-0.109,-0.033l-0.109,-0.035l-0.108,-0.034l-0.107,-0.036l-0.106,-0.036l-0.106,-0.037l-0.105,-0.038l-0.104,-0.038l-0.103,-0.039l-0.103,-0.04l-0.102,-0.041l-0.102,-0.041l-0.1,-0.041l-0.1,-0.043l-0.099,-0.043l-0.099,-0.044l-0.097,-0.045l-0.097,-0.045l-0.097,-0.046l-0.095,-0.046l-0.095,-0.047l-0.095,-0.048l-0.093,-0.049l-0.093,-0.049l-0.092,-0.05l-0.092,-0.05l-0.09,-0.052l-0.09,-0.051l-0.09,-0.053l-0.089,-0.053l-0.088,-0.054l-0.087,-0.054l-0.087,-0.055l-0.086,-0.056l-0.085,-0.056l-0.085,-0.057l-0.084,-0.057l-0.083,-0.059l-0.083,-0.058l-0.082,-0.06l-0.081,-0.06l-0.081,-0.061l-0.08,-0.061l-0.079,-0.062l-0.079,-0.062l-0.078,-0.063l-0.078,-0.064l-0.077,-0.064l-0.076,-0.065l-0.075,-0.066l-0.075,-0.066l-0.075,-0.066l-0.073,-0.067l-0.073,-0.068l-0.073,-0.069l-0.072,-0.069l-0.071,-0.069l-0.07,-0.07l-0.07,-0.071l-0.069,-0.071l-0.069,-0.072l-0.068,-0.073l-0.068,-0.073l-0.066,-0.073l-0.067,-0.074l-0.065,-0.075l-0.065,-0.075l-0.065,-0.076l-0.064,-0.076l-0.063,-0.077l-0.063,-0.078l-0.062,-0.077l-0.061,-0.079l-0.061,-0.079l-0.06,-0.079l-0.06,-0.081l-0.059,-0.08l-0.059,-0.081l-0.058,-0.082l-0.057,-0.082l-0.057,-0.083l-0.056,-0.083l-0.056,-0.084l-0.055,-0.084l-0.055,-0.085l-0.054,-0.085l-0.053,-0.086l-0.053,-0.086l-0.052,-0.087l-0.052,-0.087l-0.051,-0.088l-0.051,-0.088l-0.05,-0.089l-0.05,-0.089l-0.049,-0.09l-0.048,-0.09l-0.048,-0.09l-0.048,-0.092l-0.047,-0.091l-0.046,-0.092l-0.046,-0.093l-0.045,-0.093l-0.045,-0.093l-0.044,-0.094l-0.044,-0.095l-0.043,-0.094l-0.043,-0.096l-0.042,-0.096l-0.042,-0.096l-0.041,-0.096l-0.041,-0.097l-0.04,-0.098l-0.04,-0.098l-0.039,-0.098l-0.039,-0.099l-0.038,-0.1l-0.037,-0.099l-0.038,-0.1l-0.036,-0.101l-0.037,-0.101l-0.035,-0.101l-0.036,-0.102l-0.034,-0.102l-0.035,-0.103l-0.033,-0.103l-0.034,-0.104l-0.033,-0.104l-0.032,-0.104l-0.032,-0.104l-0.031,-0.106l-0.031,-0.105l-0.031,-0.106l-0.03,-0.106l-0.029,-0.107l-0.03,-0.107l-0.028,-0.107l-0.028,-0.108l-0.028,-0.108l-0.028,-0.109l-0.027,-0.109l-0.026,-0.109l-0.026,-0.11l-0.026,-0.11l-0.025,-0.11l-0.024,-0.111l-0.025,-0.111l-0.023,-0.111l-0.024,-0.112l-0.023,-0.112l-0.022,-0.113l-0.023,-0.113l-0.021,-0.113l-0.022,-0.113l-0.02,-0.114l-0.021,-0.115l-0.02,-0.114l-0.02,-0.115l-0.019,-0.115l-0.019,-0.116l-0.018,-0.116l-0.018,-0.116l-0.018,-0.116l-0.017,-0.117l-0.017,-0.117l-0.016,-0.118l-0.016,-0.117l-0.016,-0.118l-0.015,-0.119l-0.015,-0.118l-0.015,-0.119l-0.014,-0.12l-0.014,-0.119l-0.013,-0.12l-0.013,-0.12l-0.013,-0.121l-0.012,-0.12l-0.012,-0.121l-0.011,-0.122l-0.012,-0.121l-0.01,-0.122l-0.011,-0.122l-0.02,-0.245l-0.018,-0.246l-0.017,-0.247l-0.016,-0.248l-0.014,-0.249l-0.013,-0.25l-0.012,-0.251l-0.01,-0.252l-0.009,-0.253l-0.008,-0.254l-0.007,-0.255l-0.005,-0.255l-0.004,-0.257l-0.003,-0.257l-0.002,-0.258l-0.001,-0.259l0.001,-0.258l0.002,-0.258l0.002,-0.129l0.002,-0.129l0.002,-0.128l0.003,-0.128l0.003,-0.128l0.004,-0.127l0.004,-0.128l0.004,-0.127l0.005,-0.127l0.005,-0.127l0.005,-0.126l0.006,-0.127l0.007,-0.126l0.006,-0.126l0.007,-0.125l0.008,-0.126l0.007,-0.125l0.009,-0.125l0.008,-0.125l0.009,-0.124l0.009,-0.124l0.01,-0.124l0.01,-0.124l0.011,-0.123l0.011,-0.123l0.011,-0.123l0.012,-0.123l0.012,-0.122l0.013,-0.122l0.013,-0.122l0.013,-0.122l0.014,-0.121l0.014,-0.121l0.015,-0.121l0.015,-0.12l0.015,-0.12l0.016,-0.12l0.016,-0.12l0.017,-0.119l0.017,-0.119l0.018,-0.118l0.018,-0.119l0.018,-0.118l0.019,-0.118l0.019,-0.117l0.02,-0.117l0.02,-0.117l0.021,-0.116l0.02,-0.117l0.022,-0.115l0.022,-0.116l0.022,-0.115l0.023,-0.115l0.023,-0.115l0.023,-0.114l0.024,-0.114l0.025,-0.113l0.025,-0.114l0.025,-0.112l0.026,-0.113l0.026,-0.112l0.027,-0.112l0.027,-0.111l0.027,-0.111l0.028,-0.111l0.029,-0.111l0.029,-0.11l0.029,-0.109l0.03,-0.11l0.03,-0.108l0.031,-0.109l0.031,-0.108l0.031,-0.108l0.033,-0.107l0.032,-0.107l0.033,-0.107l0.034,-0.106l0.033,-0.106l0.035,-0.106l0.035,-0.105l0.035,-0.104l0.036,-0.105l0.036,-0.104l0.037,-0.103l0.037,-0.103l0.038,-0.103l0.038,-0.102l0.039,-0.102l0.039,-0.101l0.039,-0.101l0.041,-0.101l0.04,-0.1l0.041,-0.1l0.042,-0.099l0.042,-0.099l0.042,-0.098l0.043,-0.098l0.044,-0.098l0.044,-0.097l0.044,-0.097l0.045,-0.096l0.046,-0.095l0.045,-0.096l0.047,-0.095l0.047,-0.094l0.047,-0.094l0.048,-0.093l0.049,-0.093l0.049,-0.093l0.049,-0.092l0.05,-0.092l0.05,-0.091l0.051,-0.09l0.052,-0.091l0.052,-0.089l0.052,-0.09l0.053,-0.088l0.054,-0.089l0.054,-0.087l0.054,-0.087l0.055,-0.087l0.056,-0.087l0.056,-0.085l0.057,-0.086l0.057,-0.084l0.057,-0.084l0.059,-0.084l0.058,-0.083l0.06,-0.083l0.059,-0.082l0.061,-0.082l0.06,-0.081l0.062,-0.081l0.062,-0.08l0.062,-0.079l0.063,-0.079l0.063,-0.079l0.064,-0.078l0.065,-0.077l0.065,-0.077l0.066,-0.076l0.066,-0.076l0.067,-0.075l0.067,-0.075l0.068,-0.074l0.068,-0.074l0.069,-0.073l0.069,-0.072l0.07,-0.072l0.071,-0.071l0.071,-0.071l0.072,-0.07l0.072,-0.07l0.072,-0.069l0.074,-0.068l0.074,-0.068l0.074,-0.067l0.075,-0.067l0.076,-0.066l0.076,-0.065l0.076,-0.065l0.078,-0.064l0.077,-0.064l0.079,-0.063l0.079,-0.063l0.079,-0.061l0.08,-0.062l0.081,-0.06l0.081,-0.06l0.082,-0.06l0.082,-0.059l0.083,-0.058l0.084,-0.057l0.084,-0.057l0.085,-0.056l0.085,-0.056l0.086,-0.055l0.086,-0.055l0.087,-0.053l0.088,-0.053l0.088,-0.053l0.089,-0.052l0.089,-0.051l0.09,-0.05l0.091,-0.05l0.091,-0.049l0.092,-0.049l0.092,-0.048l0.093,-0.047l0.094,-0.047l0.094,-0.045l0.095,-0.046l0.095,-0.044l0.096,-0.044l0.097,-0.043l0.097,-0.043l0.097,-0.042l0.099,-0.041l0.099,-0.04l0.099,-0.04l0.101,-0.039l0.1,-0.038l0.102,-0.038l0.102,-0.037l0.103,-0.036l0.103,-0.036l0.104,-0.035l0.104,-0.034l0.106,-0.033l0.105,-0.033l0.107,-0.032l0.107,-0.031l0.107,-0.031l0.109,-0.029l0.109,-0.03l0.109,-0.028l0.11,-0.028l0.111,-0.026l0.112,-0.027l0.112,-0.025l0.112,-0.025l0.114,-0.024l0.114,-0.023l0.114,-0.022l0.116,-0.022l0.115,-0.021l0.117,-0.02l0.117,-0.019l0.118,-0.019l0.118,-0.018l0.12,-0.017l0.119,-0.016l0.121,-0.016l0.121,-0.015l0.122,-0.014l0.122,-0.013l0.123,-0.012l0.124,-0.012l0.124,-0.011l0.125,-0.01l0.126,-0.009l0.126,-0.009l0.127,-0.007l0.128,-0.007l0.128,-0.006l0.129,-0.006l0.13,-0.004l0.13,-0.004l0.131,-0.003l0.132,-0.002l0.132,-0.001l0.133,0l0.133,0Zm-0.26,0.906l-0.127,0.001l-0.126,0.002l-0.125,0.002l-0.125,0.004l-0.124,0.004l-0.123,0.005l-0.122,0.006l-0.122,0.007l-0.121,0.007l-0.12,0.008l-0.12,0.009l-0.119,0.009l-0.118,0.011l-0.118,0.011l-0.117,0.012l-0.116,0.012l-0.115,0.014l-0.115,0.014l-0.115,0.014l-0.113,0.016l-0.112,0.016l-0.113,0.017l-0.112,0.018l-0.11,0.018l-0.11,0.019l-0.11,0.02l-0.108,0.02l-0.108,0.021l-0.108,0.022l-0.106,0.022l-0.106,0.024l-0.106,0.024l-0.104,0.024l-0.104,0.025l-0.104,0.027l-0.104,0.026l-0.101,0.027l-0.102,0.028l-0.101,0.029l-0.1,0.029l-0.099,0.03l-0.099,0.031l-0.099,0.031l-0.098,0.032l-0.097,0.032l-0.096,0.034l-0.096,0.034l-0.096,0.034l-0.094,0.035l-0.094,0.036l-0.093,0.036l-0.093,0.037l-0.092,0.038l-0.092,0.038l-0.091,0.039l-0.09,0.04l-0.09,0.04l-0.089,0.041l-0.089,0.041l-0.088,0.042l-0.087,0.043l-0.087,0.043l-0.086,0.044l-0.086,0.044l-0.086,0.045l-0.084,0.046l-0.083,0.046l-0.084,0.047l-0.083,0.047l-0.082,0.048l-0.082,0.049l-0.081,0.049l-0.081,0.05l-0.08,0.05l-0.079,0.051l-0.079,0.051l-0.079,0.053l-0.078,0.053l-0.077,0.053l-0.076,0.053l-0.077,0.055l-0.076,0.055l-0.075,0.055l-0.074,0.057l-0.075,0.056l-0.073,0.058l-0.074,0.058l-0.072,0.058l-0.072,0.059l-0.072,0.06l-0.071,0.06l-0.07,0.06l-0.07,0.062l-0.07,0.062l-0.068,0.061l-0.069,0.063l-0.068,0.064l-0.068,0.064l-0.067,0.065l-0.066,0.065l-0.066,0.065l-0.066,0.066l-0.065,0.067l-0.064,0.067l-0.064,0.068l-0.064,0.069l-0.063,0.068l-0.062,0.07l-0.063,0.071l-0.061,0.069l-0.061,0.072l-0.061,0.071l-0.06,0.073l-0.06,0.072l-0.059,0.074l-0.059,0.074l-0.058,0.073l-0.058,0.075l-0.057,0.076l-0.057,0.075l-0.056,0.077l-0.057,0.077l-0.055,0.077l-0.054,0.078l-0.055,0.078l-0.054,0.079l-0.054,0.081l-0.053,0.079l-0.052,0.08l-0.053,0.082l-0.052,0.081l-0.051,0.083l-0.051,0.081l-0.05,0.083l-0.05,0.084l-0.049,0.084l-0.05,0.086l-0.048,0.084l-0.047,0.084l-0.048,0.087l-0.048,0.087l-0.046,0.087l-0.047,0.087l-0.045,0.088l-0.046,0.089l-0.045,0.089l-0.044,0.089l-0.044,0.09l-0.044,0.09l-0.043,0.091l-0.042,0.091l-0.043,0.092l-0.041,0.092l-0.042,0.094l-0.041,0.092l-0.04,0.093l-0.04,0.095l-0.04,0.095l-0.039,0.094l-0.038,0.096l-0.039,0.096l-0.037,0.096l-0.038,0.097l-0.037,0.097l-0.036,0.098l-0.036,0.098l-0.035,0.098l-0.036,0.1l-0.035,0.099l-0.034,0.099l-0.034,0.1l-0.033,0.102l-0.033,0.1l-0.032,0.102l-0.033,0.102l-0.031,0.102l-0.032,0.103l-0.03,0.103l-0.031,0.104l-0.03,0.103l-0.029,0.105l-0.029,0.105l-0.029,0.105l-0.028,0.106l-0.028,0.105l-0.027,0.106l-0.028,0.108l-0.026,0.106l-0.026,0.108l-0.026,0.108l-0.025,0.108l-0.025,0.109l-0.025,0.109l-0.024,0.109l-0.023,0.109l-0.023,0.111l-0.023,0.11l-0.022,0.111l-0.023,0.112l-0.021,0.111l-0.021,0.111l-0.021,0.113l-0.02,0.113l-0.02,0.112l-0.019,0.114l-0.02,0.113l-0.018,0.114l-0.019,0.115l-0.017,0.114l-0.018,0.115l-0.017,0.115l-0.016,0.115l-0.017,0.117l-0.015,0.115l-0.016,0.117l-0.015,0.117l-0.015,0.117l-0.014,0.117l-0.013,0.117l-0.014,0.119l-0.013,0.119l-0.013,0.118l-0.012,0.119l-0.012,0.12l-0.011,0.118l-0.011,0.12l-0.011,0.121l-0.01,0.12l-0.01,0.121l-0.01,0.12l-0.009,0.121l-0.009,0.122l-0.008,0.122l-0.008,0.122l-0.008,0.121l-0.007,0.123l-0.007,0.124l-0.006,0.123l-0.006,0.122l-0.006,0.124l-0.005,0.124l-0.005,0.124l-0.005,0.124l-0.004,0.125l-0.004,0.124l-0.004,0.124l-0.002,0.126l-0.003,0.126l-0.003,0.124l-0.002,0.127l-0.001,0.126l-0.003,0.253l0,0.254l0,0.254l0.002,0.254l0.003,0.252l0.004,0.253l0.005,0.251l0.007,0.25l0.008,0.249l0.008,0.249l0.01,0.247l0.012,0.246l0.013,0.245l0.014,0.244l0.015,0.243l0.017,0.242l0.018,0.241l0.019,0.24l0.011,0.118l0.01,0.119l0.011,0.119l0.011,0.119l0.012,0.118l0.012,0.117l0.012,0.117l0.013,0.118l0.013,0.117l0.013,0.116l0.014,0.116l0.014,0.117l0.015,0.115l0.015,0.115l0.015,0.115l0.016,0.114l0.016,0.114l0.016,0.115l0.017,0.113l0.017,0.113l0.017,0.112l0.018,0.113l0.019,0.112l0.018,0.112l0.019,0.112l0.02,0.11l0.019,0.111l0.021,0.111l0.02,0.109l0.021,0.11l0.022,0.109l0.022,0.109l0.022,0.108l0.022,0.108l0.023,0.108l0.024,0.108l0.023,0.106l0.025,0.106l0.024,0.106l0.026,0.106l0.025,0.105l0.026,0.105l0.026,0.105l0.027,0.103l0.027,0.104l0.028,0.104l0.027,0.102l0.029,0.102l0.029,0.103l0.029,0.102l0.029,0.099l0.031,0.102l0.031,0.101l0.03,0.098l0.032,0.099l0.032,0.1l0.032,0.098l0.033,0.099l0.033,0.097l0.033,0.097l0.035,0.097l0.034,0.096l0.035,0.096l0.035,0.095l0.036,0.095l0.036,0.094l0.037,0.094l0.038,0.094l0.037,0.092l0.038,0.093l0.039,0.092l0.039,0.092l0.039,0.091l0.04,0.091l0.041,0.09l0.04,0.089l0.042,0.089l0.042,0.089l0.042,0.088l0.043,0.088l0.043,0.087l0.044,0.087l0.043,0.086l0.045,0.086l0.046,0.085l0.045,0.085l0.046,0.084l0.047,0.084l0.046,0.083l0.048,0.082l0.048,0.083l0.048,0.081l0.05,0.082l0.049,0.08l0.05,0.08l0.05,0.08l0.051,0.079l0.051,0.078l0.052,0.078l0.053,0.078l0.053,0.077l0.054,0.077l0.054,0.076l0.054,0.075l0.055,0.075l0.055,0.074l0.056,0.074l0.057,0.074l0.057,0.073l0.057,0.071l0.058,0.072l0.059,0.071l0.06,0.072l0.059,0.07l0.06,0.069l0.061,0.069l0.061,0.069l0.061,0.067l0.064,0.068l0.062,0.067l0.063,0.066l0.064,0.066l0.065,0.065l0.065,0.065l0.065,0.064l0.067,0.064l0.066,0.063l0.068,0.062l0.069,0.063l0.067,0.061l0.069,0.061l0.07,0.06l0.071,0.06l0.07,0.059l0.071,0.058l0.073,0.059l0.072,0.058l0.073,0.056l0.073,0.056l0.075,0.057l0.076,0.055l0.075,0.055l0.076,0.054l0.077,0.053l0.077,0.054l0.079,0.052l0.079,0.053l0.079,0.051l0.079,0.05l0.081,0.05l0.082,0.05l0.082,0.05l0.082,0.048l0.084,0.048l0.083,0.047l0.085,0.047l0.086,0.046l0.085,0.045l0.087,0.045l0.088,0.045l0.087,0.044l0.089,0.042l0.09,0.043l0.089,0.042l0.091,0.041l0.092,0.042l0.092,0.039l0.093,0.04l0.093,0.039l0.095,0.038l0.095,0.038l0.096,0.037l0.096,0.036l0.098,0.036l0.098,0.035l0.098,0.035l0.1,0.034l0.1,0.033l0.101,0.033l0.102,0.032l0.102,0.031l0.104,0.031l0.104,0.03l0.104,0.029l0.106,0.029l0.107,0.028l0.107,0.027l0.108,0.027l0.109,0.026l0.109,0.025l0.11,0.025l0.112,0.024l0.111,0.023l0.113,0.023l0.113,0.022l0.115,0.021l0.115,0.021l0.116,0.02l0.116,0.019l0.118,0.018l0.119,0.018l0.119,0.017l0.12,0.016l0.12,0.016l0.123,0.014l0.122,0.014l0.124,0.014l0.124,0.013l0.125,0.011l0.126,0.012l0.127,0.01l0.127,0.01l0.129,0.009l0.129,0.008l0.13,0.007l0.132,0.007l0.131,0.005l0.133,0.006l0.134,0.004l0.134,0.003l0.136,0.003l0.136,0.002l0.137,0.001l0.138,0.001l0.138,-0.001l0.137,-0.001l0.137,-0.002l0.135,-0.003l0.135,-0.003l0.133,-0.004l0.133,-0.006l0.132,-0.005l0.131,-0.007l0.13,-0.007l0.129,-0.008l0.129,-0.009l0.128,-0.01l0.126,-0.01l0.126,-0.012l0.125,-0.011l0.124,-0.013l0.124,-0.014l0.123,-0.014l0.122,-0.014l0.12,-0.016l0.12,-0.016l0.119,-0.017l0.119,-0.018l0.118,-0.018l0.116,-0.019l0.116,-0.02l0.115,-0.021l0.115,-0.021l0.113,-0.022l0.113,-0.023l0.112,-0.023l0.111,-0.024l0.11,-0.025l0.109,-0.025l0.109,-0.026l0.109,-0.027l0.106,-0.027l0.107,-0.028l0.106,-0.029l0.104,-0.029l0.104,-0.03l0.104,-0.031l0.103,-0.031l0.101,-0.032l0.101,-0.033l0.1,-0.033l0.1,-0.034l0.099,-0.035l0.098,-0.035l0.097,-0.036l0.096,-0.036l0.096,-0.037l0.096,-0.038l0.094,-0.038l0.094,-0.039l0.092,-0.04l0.092,-0.039l0.092,-0.041l0.091,-0.042l0.089,-0.042l0.09,-0.042l0.089,-0.043l0.088,-0.044l0.087,-0.045l0.087,-0.045l0.086,-0.045l0.085,-0.046l0.085,-0.047l0.084,-0.047l0.083,-0.048l0.082,-0.049l0.082,-0.049l0.082,-0.049l0.081,-0.051l0.079,-0.05l0.08,-0.052l0.079,-0.052l0.077,-0.052l0.078,-0.053l0.077,-0.054l0.076,-0.054l0.076,-0.055l0.075,-0.055l0.074,-0.056l0.074,-0.057l0.073,-0.057l0.073,-0.057l0.072,-0.058l0.071,-0.059l0.071,-0.059l0.07,-0.06l0.07,-0.06l0.069,-0.061l0.068,-0.062l0.068,-0.061l0.068,-0.063l0.066,-0.063l0.066,-0.064l0.066,-0.064l0.065,-0.065l0.065,-0.065l0.064,-0.066l0.063,-0.066l0.063,-0.067l0.062,-0.067l0.062,-0.069l0.062,-0.068l0.06,-0.069l0.06,-0.069l0.06,-0.071l0.059,-0.07l0.058,-0.071l0.059,-0.073l0.058,-0.072l0.057,-0.073l0.056,-0.073l0.056,-0.073l0.055,-0.075l0.055,-0.075l0.055,-0.076l0.054,-0.075l0.053,-0.077l0.053,-0.077l0.053,-0.077l0.051,-0.078l0.052,-0.079l0.051,-0.08l0.05,-0.079l0.05,-0.079l0.049,-0.081l0.05,-0.082l0.048,-0.082l0.048,-0.082l0.048,-0.082l0.047,-0.084l0.046,-0.083l0.046,-0.084l0.046,-0.085l0.045,-0.085l0.045,-0.086l0.044,-0.087l0.043,-0.086l0.044,-0.087l0.042,-0.088l0.043,-0.088l0.041,-0.088l0.041,-0.09l0.042,-0.09l0.04,-0.089l0.04,-0.091l0.039,-0.091l0.039,-0.092l0.039,-0.092l0.038,-0.092l0.038,-0.094l0.037,-0.093l0.037,-0.094l0.036,-0.094l0.036,-0.095l0.035,-0.095l0.035,-0.096l0.035,-0.096l0.033,-0.096l0.034,-0.098l0.034,-0.098l0.032,-0.098l0.033,-0.098l0.031,-0.099l0.032,-0.099l0.031,-0.1l0.03,-0.1l0.03,-0.101l0.03,-0.101l0.029,-0.102l0.029,-0.101l0.028,-0.102l0.028,-0.104l0.028,-0.104l0.027,-0.103l0.027,-0.103l0.026,-0.104l0.026,-0.106l0.026,-0.106l0.025,-0.105l0.024,-0.105l0.025,-0.107l0.024,-0.107l0.023,-0.107l0.023,-0.107l0.022,-0.109l0.023,-0.108l0.021,-0.109l0.022,-0.109l0.021,-0.11l0.021,-0.11l0.02,-0.11l0.019,-0.11l0.02,-0.112l0.019,-0.112l0.019,-0.111l0.018,-0.111l0.018,-0.113l0.017,-0.114l0.018,-0.113l0.016,-0.112l0.017,-0.115l0.016,-0.114l0.015,-0.113l0.015,-0.115l0.015,-0.117l0.015,-0.115l0.014,-0.115l0.014,-0.116l0.013,-0.118l0.013,-0.117l0.013,-0.116l0.012,-0.117l0.012,-0.119l0.012,-0.118l0.011,-0.117l0.011,-0.12l0.011,-0.119l0.01,-0.118l0.019,-0.24l0.018,-0.241l0.017,-0.242l0.015,-0.243l0.015,-0.244l0.012,-0.245l0.012,-0.246l0.01,-0.247l0.009,-0.248l0.007,-0.25l0.007,-0.25l0.005,-0.251l0.004,-0.252l0.003,-0.253l0.002,-0.254l0,-0.254l0,-0.255l-0.002,-0.253l-0.002,-0.125l-0.002,-0.126l-0.003,-0.125l-0.002,-0.126l-0.003,-0.125l-0.004,-0.125l-0.004,-0.124l-0.004,-0.126l-0.004,-0.123l-0.005,-0.123l-0.006,-0.125l-0.006,-0.124l-0.006,-0.123l-0.006,-0.123l-0.007,-0.122l-0.007,-0.123l-0.008,-0.123l-0.008,-0.121l-0.008,-0.122l-0.009,-0.122l-0.009,-0.12l-0.01,-0.122l-0.009,-0.12l-0.011,-0.12l-0.01,-0.121l-0.011,-0.119l-0.012,-0.12l-0.012,-0.119l-0.012,-0.118l-0.013,-0.12l-0.013,-0.118l-0.013,-0.118l-0.014,-0.118l-0.014,-0.117l-0.015,-0.117l-0.015,-0.116l-0.015,-0.117l-0.016,-0.117l-0.016,-0.116l-0.017,-0.114l-0.017,-0.117l-0.017,-0.114l-0.018,-0.114l-0.019,-0.115l-0.018,-0.114l-0.019,-0.113l-0.02,-0.113l-0.02,-0.114l-0.02,-0.112l-0.021,-0.112l-0.021,-0.112l-0.022,-0.112l-0.021,-0.112l-0.022,-0.109l-0.024,-0.111l-0.023,-0.111l-0.023,-0.109l-0.024,-0.11l-0.025,-0.108l-0.024,-0.108l-0.026,-0.109l-0.026,-0.109l-0.026,-0.107l-0.026,-0.106l-0.027,-0.107l-0.028,-0.107l-0.028,-0.106l-0.028,-0.105l-0.028,-0.105l-0.029,-0.105l-0.03,-0.105l-0.03,-0.103l-0.03,-0.103l-0.031,-0.104l-0.032,-0.104l-0.031,-0.102l-0.032,-0.1l-0.033,-0.103l-0.033,-0.101l-0.033,-0.101l-0.034,-0.1l-0.034,-0.099l-0.035,-0.099l-0.035,-0.099l-0.036,-0.099l-0.036,-0.098l-0.036,-0.098l-0.037,-0.098l-0.038,-0.096l-0.037,-0.096l-0.038,-0.096l-0.039,-0.096l-0.039,-0.094l-0.04,-0.095l-0.04,-0.094l-0.04,-0.094l-0.041,-0.093l-0.041,-0.092l-0.042,-0.093l-0.042,-0.092l-0.043,-0.091l-0.043,-0.091l-0.044,-0.09l-0.044,-0.09l-0.044,-0.089l-0.045,-0.09l-0.045,-0.088l-0.046,-0.088l-0.046,-0.087l-0.047,-0.087l-0.047,-0.087l-0.048,-0.086l-0.048,-0.086l-0.048,-0.084l-0.049,-0.084l-0.05,-0.085l-0.05,-0.084l-0.05,-0.082l-0.051,-0.083l-0.052,-0.083l-0.051,-0.08l-0.052,-0.082l-0.053,-0.08l-0.053,-0.08l-0.054,-0.08l-0.053,-0.078l-0.055,-0.079l-0.056,-0.079l-0.055,-0.076l-0.055,-0.077l-0.057,-0.076l-0.057,-0.077l-0.057,-0.075l-0.058,-0.074l-0.058,-0.075l-0.059,-0.074l-0.059,-0.073l-0.059,-0.072l-0.061,-0.072l-0.061,-0.072l-0.061,-0.072l-0.061,-0.07l-0.062,-0.07l-0.063,-0.069l-0.063,-0.07l-0.064,-0.068l-0.063,-0.067l-0.066,-0.068l-0.064,-0.067l-0.065,-0.065l-0.067,-0.066l-0.066,-0.066l-0.067,-0.064l-0.068,-0.064l-0.068,-0.064l-0.068,-0.062l-0.069,-0.062l-0.069,-0.062l-0.07,-0.061l-0.071,-0.061l-0.072,-0.061l-0.071,-0.059l-0.072,-0.059l-0.073,-0.059l-0.072,-0.057l-0.074,-0.058l-0.075,-0.057l-0.074,-0.055l-0.075,-0.056l-0.076,-0.055l-0.076,-0.054l-0.077,-0.054l-0.077,-0.054l-0.078,-0.052l-0.078,-0.052l-0.079,-0.052l-0.08,-0.051l-0.081,-0.05l-0.08,-0.05l-0.08,-0.049l-0.083,-0.049l-0.082,-0.048l-0.083,-0.047l-0.083,-0.047l-0.084,-0.046l-0.085,-0.046l-0.085,-0.045l-0.086,-0.044l-0.086,-0.044l-0.086,-0.043l-0.088,-0.043l-0.088,-0.042l-0.089,-0.041l-0.089,-0.041l-0.089,-0.04l-0.091,-0.04l-0.091,-0.039l-0.092,-0.038l-0.091,-0.038l-0.093,-0.037l-0.094,-0.036l-0.094,-0.036l-0.095,-0.035l-0.095,-0.035l-0.096,-0.033l-0.096,-0.033l-0.097,-0.033l-0.098,-0.032l-0.098,-0.031l-0.1,-0.031l-0.099,-0.03l-0.1,-0.029l-0.101,-0.029l-0.101,-0.028l-0.102,-0.027l-0.104,-0.026l-0.103,-0.027l-0.104,-0.025l-0.105,-0.024l-0.105,-0.024l-0.106,-0.023l-0.107,-0.023l-0.108,-0.022l-0.108,-0.021l-0.108,-0.02l-0.11,-0.02l-0.11,-0.019l-0.11,-0.019l-0.112,-0.017l-0.113,-0.017l-0.112,-0.016l-0.113,-0.016l-0.114,-0.014l-0.115,-0.014l-0.116,-0.014l-0.116,-0.012l-0.117,-0.012l-0.118,-0.011l-0.118,-0.011l-0.119,-0.009l-0.119,-0.009l-0.121,-0.008l-0.121,-0.007l-0.122,-0.007l-0.122,-0.006l-0.123,-0.005l-0.124,-0.004l-0.124,-0.004l-0.126,-0.002l-0.126,-0.002l-0.127,-0.001l-0.127,-0.001l-0.127,0.001Z" style="fill:#ac8639;"/><path d="M15.991,35.728c-1.079,2.648 -1.176,5.034 0,7.083" style="fill:none;stroke:#ac8639;stroke-width:1.82px;"/><g id="lips"><path d="M30.135,33.966c-0.239,0.027 -1.244,0.075 -1.422,0.077c-1.461,0.018 -2.257,-0.293 -2.478,-0.58c-0.134,-0.174 5.446,-0.404 5.616,-0.305c0.298,0.174 -0.363,0.655 -1.716,0.808Z" style="fill:#b63e36;"/><path d="M29.375,32.443c0.077,0 0.177,-0.24 0.671,-0.219c1.46,0.061 2.047,0.384 2.047,0.745c0,0.26 -3.189,0.443 -5.185,0.357c-1.123,-0.049 -1.333,-0.192 -1.186,-0.192c0.203,0 0.544,-0.142 0.872,-0.28c0.576,-0.243 1.162,-0.579 2.028,-0.63c0.542,-0.031 0.676,0.219 0.753,0.219Z" style="fill:#b63e36;"/></g></g><g id="pompons"><g><path d="M14.103,5.176c0,0 8.479,-1.216 8.067,8.855" style="fill:none;stroke:#282624;stroke-width:0.78px;"/><g><path d="M13.405,7.665l1.693,-4.436" style="fill:none;stroke:#302a1c;stroke-width:1.3px;"/><path d="M14.827,8.243l-0.751,-4.689" style="fill:none;stroke:#302a1c;stroke-width:1.3px;"/><path d="M16.5,6.57l-4.436,-1.694" style="fill:none;stroke:#302a1c;stroke-width:1.3px;"/><path d="M16.238,4.832l-4.334,1.939" style="fill:none;stroke:#302a1c;stroke-width:1.3px;"/><path d="M16.06,7.56l-2.994,-3.685" style="fill:none;stroke:#302a1c;stroke-width:1.3px;"/><path d="M16.229,3.797l-4.334,1.939" style="fill:none;stroke:#302a1c;stroke-width:1.3px;"/><path d="M14.222,2.994l2.22,2.732" style="fill:none;stroke:#302a1c;stroke-width:1.3px;"/></g></g><g><path d="M30.908,2.822c0,0 -8.328,2.003 -4.223,11.209" style="fill:none;stroke:#282624;stroke-width:0.78px;"/><g><path d="M32.04,4.788l-1.339,-4.556" style="fill:none;stroke:#302a1c;stroke-width:1.3px;"/><path d="M33.522,4.386l-3.437,-3.276" style="fill:none;stroke:#302a1c;stroke-width:1.3px;"/><path d="M33.84,2.042l-4.555,1.339" style="fill:none;stroke:#302a1c;stroke-width:1.3px;"/><path d="M32.578,0.817l-2.274,4.168" style="fill:none;stroke:#302a1c;stroke-width:1.3px;"/><path d="M34.09,3.096l-4.615,-1.118" style="fill:none;stroke:#302a1c;stroke-width:1.3px;"/><path d="M31.944,0l-2.273,4.168" style="fill:none;stroke:#302a1c;stroke-width:1.3px;"/><path d="M29.861,0.577l3.422,0.828" style="fill:none;stroke:#302a1c;stroke-width:1.3px;"/></g></g><path d="M28.42,14.31c-1.015,-0.412 -5.567,-0.436 -7.219,0.401" style="fill:none;stroke:#282624;stroke-width:0.78px;"/></g></g></g><path d="M25.162,0.001l0.161,0.001l0.161,0.003l0.161,0.003l0.16,0.005l0.161,0.005l0.16,0.007l0.16,0.008l0.159,0.008l0.16,0.01l0.159,0.01l0.158,0.012l0.159,0.013l0.158,0.013l0.158,0.015l0.158,0.015l0.157,0.017l0.157,0.017l0.157,0.019l0.156,0.019l0.156,0.02l0.156,0.022l0.156,0.022l0.155,0.023l0.155,0.024l0.155,0.026l0.154,0.026l0.154,0.027l0.154,0.028l0.153,0.029l0.153,0.03l0.153,0.03l0.152,0.032l0.152,0.033l0.152,0.033l0.151,0.035l0.151,0.035l0.151,0.036l0.15,0.038l0.15,0.038l0.149,0.039l0.15,0.04l0.148,0.04l0.149,0.042l0.148,0.043l0.148,0.043l0.147,0.044l0.147,0.046l0.146,0.046l0.147,0.047l0.145,0.048l0.146,0.048l0.145,0.05l0.144,0.051l0.144,0.051l0.144,0.052l0.143,0.053l0.143,0.054l0.143,0.055l0.142,0.055l0.142,0.057l0.141,0.057l0.141,0.058l0.14,0.059l0.14,0.06l0.14,0.06l0.139,0.062l0.138,0.062l0.139,0.063l0.137,0.064l0.138,0.064l0.137,0.066l0.136,0.066l0.136,0.067l0.135,0.068l0.135,0.069l0.135,0.069l0.134,0.07l0.133,0.071l0.133,0.072l0.133,0.073l0.132,0.073l0.132,0.074l0.131,0.075l0.13,0.076l0.131,0.076l0.129,0.078l0.129,0.077l0.129,0.079l0.128,0.08l0.128,0.08l0.127,0.081l0.126,0.082l0.126,0.082l0.126,0.083l0.125,0.084l0.124,0.085l0.124,0.085l0.123,0.086l0.123,0.087l0.122,0.087l0.122,0.089l0.121,0.089l0.121,0.089l0.12,0.091l0.119,0.091l0.119,0.092l0.119,0.092l0.118,0.093l0.117,0.094l0.116,0.095l0.116,0.095l0.116,0.096l0.115,0.096l0.114,0.098l0.114,0.097l0.113,0.099l0.113,0.099l0.111,0.1l0.112,0.101l0.11,0.101l0.111,0.102l0.109,0.102l0.109,0.104l0.108,0.103l0.108,0.105l0.107,0.105l0.106,0.106l0.106,0.106l0.105,0.107l0.105,0.108l0.103,0.108l0.104,0.109l0.102,0.109l0.102,0.111l0.101,0.11l0.101,0.112l0.1,0.111l0.099,0.113l0.099,0.113l0.097,0.114l0.098,0.114l0.096,0.115l0.096,0.116l0.095,0.116l0.095,0.116l0.094,0.117l0.093,0.118l0.092,0.119l0.092,0.119l0.091,0.119l0.091,0.12l0.089,0.121l0.089,0.121l0.089,0.122l0.087,0.122l0.087,0.123l0.086,0.123l0.085,0.124l0.085,0.124l0.084,0.125l0.083,0.126l0.082,0.126l0.082,0.126l0.081,0.127l0.08,0.128l0.08,0.128l0.079,0.129l0.077,0.129l0.078,0.129l0.076,0.131l0.076,0.13l0.075,0.131l0.074,0.132l0.073,0.132l0.073,0.133l0.072,0.133l0.071,0.133l0.07,0.134l0.069,0.135l0.069,0.135l0.068,0.135l0.067,0.136l0.066,0.136l0.066,0.137l0.064,0.138l0.064,0.137l0.063,0.139l0.062,0.138l0.062,0.139l0.06,0.14l0.06,0.14l0.059,0.14l0.058,0.141l0.057,0.141l0.057,0.142l0.055,0.142l0.055,0.143l0.054,0.143l0.053,0.143l0.052,0.144l0.051,0.144l0.051,0.144l0.05,0.145l0.048,0.146l0.048,0.145l0.047,0.147l0.046,0.146l0.046,0.147l0.044,0.147l0.043,0.148l0.043,0.148l0.042,0.149l0.04,0.148l0.04,0.15l0.039,0.149l0.038,0.15l0.038,0.15l0.036,0.151l0.035,0.151l0.035,0.151l0.033,0.152l0.033,0.152l0.032,0.152l0.03,0.153l0.03,0.153l0.029,0.153l0.028,0.154l0.027,0.154l0.026,0.154l0.026,0.155l0.024,0.155l0.023,0.155l0.022,0.156l0.022,0.156l0.02,0.156l0.019,0.156l0.019,0.157l0.017,0.157l0.017,0.157l0.015,0.158l0.015,0.158l0.013,0.158l0.013,0.159l0.012,0.158l0.01,0.159l0.01,0.16l0.008,0.159l0.008,0.16l0.007,0.16l0.005,0.161l0.005,0.16l0.003,0.161l0.003,0.161l0.001,0.161l0.001,0.162l-0.001,0.162l-0.001,0.161l-0.003,0.161l-0.003,0.161l-0.005,0.16l-0.005,0.161l-0.007,0.16l-0.008,0.16l-0.008,0.159l-0.01,0.16l-0.01,0.159l-0.012,0.158l-0.013,0.159l-0.013,0.158l-0.015,0.158l-0.015,0.158l-0.017,0.157l-0.017,0.157l-0.019,0.157l-0.019,0.156l-0.02,0.156l-0.022,0.156l-0.022,0.156l-0.023,0.155l-0.024,0.155l-0.026,0.155l-0.026,0.154l-0.027,0.154l-0.028,0.154l-0.029,0.153l-0.03,0.153l-0.03,0.153l-0.032,0.152l-0.033,0.152l-0.033,0.152l-0.035,0.151l-0.035,0.151l-0.036,0.151l-0.038,0.15l-0.038,0.15l-0.039,0.149l-0.04,0.15l-0.04,0.148l-0.042,0.149l-0.043,0.148l-0.043,0.148l-0.044,0.147l-0.046,0.147l-0.046,0.146l-0.047,0.147l-0.048,0.145l-0.048,0.146l-0.05,0.145l-0.051,0.144l-0.051,0.144l-0.052,0.144l-0.053,0.143l-0.054,0.143l-0.055,0.143l-0.055,0.142l-0.057,0.142l-0.057,0.141l-0.058,0.141l-0.059,0.14l-0.06,0.14l-0.06,0.14l-0.062,0.139l-0.062,0.138l-0.063,0.139l-0.064,0.137l-0.064,0.138l-0.066,0.137l-0.066,0.136l-0.067,0.136l-0.068,0.135l-0.069,0.135l-0.069,0.135l-0.07,0.134l-0.071,0.133l-0.072,0.133l-0.073,0.133l-0.073,0.132l-0.074,0.132l-0.075,0.131l-0.076,0.13l-0.076,0.131l-0.078,0.129l-0.077,0.129l-0.079,0.129l-0.08,0.128l-0.08,0.128l-0.081,0.127l-0.082,0.126l-0.082,0.126l-0.083,0.126l-0.084,0.125l-0.085,0.124l-0.085,0.124l-0.086,0.123l-0.087,0.123l-0.087,0.122l-0.089,0.122l-0.089,0.121l-0.089,0.121l-0.091,0.12l-0.091,0.119l-0.092,0.119l-0.092,0.119l-0.093,0.118l-0.094,0.117l-0.095,0.116l-0.095,0.116l-0.096,0.116l-0.096,0.115l-0.098,0.114l-0.097,0.114l-0.099,0.113l-0.099,0.113l-0.1,0.111l-0.101,0.112l-0.101,0.11l-0.102,0.111l-0.102,0.109l-0.104,0.109l-0.103,0.108l-0.105,0.108l-0.105,0.107l-0.106,0.106l-0.106,0.106l-0.107,0.105l-0.108,0.105l-0.108,0.103l-0.109,0.104l-0.109,0.102l-0.111,0.102l-0.11,0.101l-0.112,0.101l-0.111,0.1l-0.113,0.099l-0.113,0.099l-0.114,0.097l-0.114,0.098l-0.115,0.096l-0.116,0.096l-0.116,0.095l-0.116,0.095l-0.117,0.094l-0.118,0.093l-0.119,0.092l-0.119,0.092l-0.119,0.091l-0.12,0.091l-0.121,0.089l-0.121,0.089l-0.122,0.089l-0.122,0.087l-0.123,0.087l-0.123,0.086l-0.124,0.085l-0.124,0.085l-0.125,0.084l-0.126,0.083l-0.126,0.082l-0.126,0.082l-0.127,0.081l-0.128,0.08l-0.128,0.08l-0.129,0.079l-0.129,0.077l-0.129,0.078l-0.131,0.076l-0.13,0.076l-0.131,0.075l-0.132,0.074l-0.132,0.073l-0.133,0.073l-0.133,0.072l-0.133,0.071l-0.134,0.07l-0.135,0.069l-0.135,0.069l-0.135,0.068l-0.136,0.067l-0.136,0.066l-0.137,0.066l-0.138,0.064l-0.137,0.064l-0.139,0.063l-0.138,0.062l-0.139,0.062l-0.14,0.06l-0.14,0.06l-0.14,0.059l-0.141,0.058l-0.141,0.057l-0.142,0.057l-0.142,0.055l-0.143,0.055l-0.143,0.054l-0.143,0.053l-0.144,0.052l-0.144,0.051l-0.144,0.051l-0.145,0.05l-0.146,0.048l-0.145,0.048l-0.147,0.047l-0.146,0.046l-0.147,0.046l-0.147,0.044l-0.148,0.043l-0.148,0.043l-0.149,0.042l-0.148,0.04l-0.15,0.04l-0.149,0.039l-0.15,0.038l-0.15,0.038l-0.151,0.036l-0.151,0.035l-0.151,0.035l-0.152,0.033l-0.152,0.033l-0.152,0.032l-0.153,0.03l-0.153,0.03l-0.153,0.029l-0.154,0.028l-0.154,0.027l-0.154,0.026l-0.155,0.026l-0.155,0.024l-0.155,0.023l-0.156,0.022l-0.156,0.022l-0.156,0.02l-0.156,0.019l-0.157,0.019l-0.157,0.017l-0.157,0.017l-0.158,0.015l-0.158,0.015l-0.158,0.013l-0.159,0.013l-0.158,0.012l-0.159,0.01l-0.16,0.01l-0.159,0.008l-0.16,0.008l-0.16,0.007l-0.161,0.005l-0.16,0.005l-0.161,0.003l-0.161,0.003l-0.161,0.001l-0.162,0.001l-0.162,-0.001l-0.161,-0.001l-0.161,-0.003l-0.161,-0.003l-0.16,-0.005l-0.161,-0.005l-0.16,-0.007l-0.16,-0.008l-0.159,-0.008l-0.16,-0.01l-0.159,-0.01l-0.158,-0.012l-0.159,-0.013l-0.158,-0.013l-0.158,-0.015l-0.158,-0.015l-0.157,-0.017l-0.157,-0.017l-0.157,-0.019l-0.156,-0.019l-0.156,-0.02l-0.156,-0.022l-0.156,-0.022l-0.155,-0.023l-0.155,-0.024l-0.155,-0.026l-0.154,-0.026l-0.154,-0.027l-0.154,-0.028l-0.153,-0.029l-0.153,-0.03l-0.153,-0.03l-0.152,-0.032l-0.152,-0.033l-0.152,-0.033l-0.151,-0.035l-0.151,-0.035l-0.151,-0.036l-0.15,-0.038l-0.15,-0.038l-0.149,-0.039l-0.15,-0.04l-0.148,-0.04l-0.149,-0.042l-0.148,-0.043l-0.148,-0.043l-0.147,-0.044l-0.147,-0.046l-0.146,-0.046l-0.147,-0.047l-0.145,-0.048l-0.146,-0.048l-0.145,-0.05l-0.144,-0.051l-0.144,-0.051l-0.144,-0.052l-0.143,-0.053l-0.143,-0.054l-0.143,-0.055l-0.142,-0.055l-0.142,-0.057l-0.141,-0.057l-0.141,-0.058l-0.14,-0.059l-0.14,-0.06l-0.14,-0.06l-0.139,-0.062l-0.138,-0.062l-0.139,-0.063l-0.137,-0.064l-0.138,-0.064l-0.137,-0.066l-0.136,-0.066l-0.136,-0.067l-0.135,-0.068l-0.135,-0.069l-0.135,-0.069l-0.134,-0.07l-0.133,-0.071l-0.133,-0.072l-0.133,-0.073l-0.132,-0.073l-0.132,-0.074l-0.131,-0.075l-0.13,-0.076l-0.131,-0.076l-0.129,-0.078l-0.129,-0.077l-0.129,-0.079l-0.128,-0.08l-0.128,-0.08l-0.127,-0.081l-0.126,-0.082l-0.126,-0.082l-0.126,-0.083l-0.125,-0.084l-0.124,-0.085l-0.124,-0.085l-0.123,-0.086l-0.123,-0.087l-0.122,-0.087l-0.122,-0.089l-0.121,-0.089l-0.121,-0.089l-0.12,-0.091l-0.119,-0.091l-0.119,-0.092l-0.119,-0.092l-0.118,-0.093l-0.117,-0.094l-0.116,-0.095l-0.116,-0.095l-0.116,-0.096l-0.115,-0.096l-0.114,-0.098l-0.114,-0.097l-0.113,-0.099l-0.113,-0.099l-0.111,-0.1l-0.112,-0.101l-0.11,-0.101l-0.111,-0.102l-0.109,-0.102l-0.109,-0.104l-0.108,-0.103l-0.108,-0.105l-0.107,-0.105l-0.106,-0.106l-0.106,-0.106l-0.105,-0.107l-0.105,-0.108l-0.103,-0.108l-0.104,-0.109l-0.102,-0.109l-0.102,-0.111l-0.101,-0.11l-0.101,-0.112l-0.1,-0.111l-0.099,-0.113l-0.099,-0.113l-0.097,-0.114l-0.098,-0.114l-0.096,-0.115l-0.096,-0.116l-0.095,-0.116l-0.095,-0.116l-0.094,-0.117l-0.093,-0.118l-0.092,-0.119l-0.092,-0.119l-0.091,-0.119l-0.091,-0.12l-0.089,-0.121l-0.089,-0.121l-0.089,-0.122l-0.087,-0.122l-0.087,-0.123l-0.086,-0.123l-0.085,-0.124l-0.085,-0.124l-0.084,-0.125l-0.083,-0.126l-0.082,-0.126l-0.082,-0.126l-0.081,-0.127l-0.08,-0.128l-0.08,-0.128l-0.079,-0.129l-0.077,-0.129l-0.078,-0.129l-0.076,-0.131l-0.076,-0.13l-0.075,-0.131l-0.074,-0.132l-0.073,-0.132l-0.073,-0.133l-0.072,-0.133l-0.071,-0.133l-0.07,-0.134l-0.069,-0.135l-0.069,-0.135l-0.068,-0.135l-0.067,-0.136l-0.066,-0.136l-0.066,-0.137l-0.064,-0.138l-0.064,-0.137l-0.063,-0.139l-0.062,-0.138l-0.062,-0.139l-0.06,-0.14l-0.06,-0.14l-0.059,-0.14l-0.058,-0.141l-0.057,-0.141l-0.057,-0.142l-0.055,-0.142l-0.055,-0.143l-0.054,-0.143l-0.053,-0.143l-0.052,-0.144l-0.051,-0.144l-0.051,-0.144l-0.05,-0.145l-0.048,-0.146l-0.048,-0.145l-0.047,-0.147l-0.046,-0.146l-0.046,-0.147l-0.044,-0.147l-0.043,-0.148l-0.043,-0.148l-0.042,-0.149l-0.04,-0.148l-0.04,-0.15l-0.039,-0.149l-0.038,-0.15l-0.038,-0.15l-0.036,-0.151l-0.035,-0.151l-0.035,-0.151l-0.033,-0.152l-0.033,-0.152l-0.032,-0.152l-0.03,-0.153l-0.03,-0.153l-0.029,-0.153l-0.028,-0.154l-0.027,-0.154l-0.026,-0.154l-0.026,-0.155l-0.024,-0.155l-0.023,-0.155l-0.022,-0.156l-0.022,-0.156l-0.02,-0.156l-0.019,-0.156l-0.019,-0.157l-0.017,-0.157l-0.017,-0.157l-0.015,-0.158l-0.015,-0.158l-0.013,-0.158l-0.013,-0.159l-0.012,-0.158l-0.01,-0.159l-0.01,-0.16l-0.008,-0.159l-0.008,-0.16l-0.007,-0.16l-0.005,-0.161l-0.005,-0.16l-0.003,-0.161l-0.003,-0.161l-0.001,-0.161l-0.001,-0.162l0.001,-0.162l0.001,-0.161l0.003,-0.161l0.003,-0.161l0.005,-0.16l0.005,-0.161l0.007,-0.16l0.008,-0.16l0.008,-0.159l0.01,-0.16l0.01,-0.159l0.012,-0.158l0.013,-0.159l0.013,-0.158l0.015,-0.158l0.015,-0.158l0.017,-0.157l0.017,-0.157l0.019,-0.157l0.019,-0.156l0.02,-0.156l0.022,-0.156l0.022,-0.156l0.023,-0.155l0.024,-0.155l0.026,-0.155l0.026,-0.154l0.027,-0.154l0.028,-0.154l0.029,-0.153l0.03,-0.153l0.03,-0.153l0.032,-0.152l0.033,-0.152l0.033,-0.152l0.035,-0.151l0.035,-0.151l0.036,-0.151l0.038,-0.15l0.038,-0.15l0.039,-0.149l0.04,-0.15l0.04,-0.148l0.042,-0.149l0.043,-0.148l0.043,-0.148l0.044,-0.147l0.046,-0.147l0.046,-0.146l0.047,-0.147l0.048,-0.145l0.048,-0.146l0.05,-0.145l0.051,-0.144l0.051,-0.144l0.052,-0.144l0.053,-0.143l0.054,-0.143l0.055,-0.143l0.055,-0.142l0.057,-0.142l0.057,-0.141l0.058,-0.141l0.059,-0.14l0.06,-0.14l0.06,-0.14l0.062,-0.139l0.062,-0.138l0.063,-0.139l0.064,-0.137l0.064,-0.138l0.066,-0.137l0.066,-0.136l0.067,-0.136l0.068,-0.135l0.069,-0.135l0.069,-0.135l0.07,-0.134l0.071,-0.133l0.072,-0.133l0.073,-0.133l0.073,-0.132l0.074,-0.132l0.075,-0.131l0.076,-0.13l0.076,-0.131l0.078,-0.129l0.077,-0.129l0.079,-0.129l0.08,-0.128l0.08,-0.128l0.081,-0.127l0.082,-0.126l0.082,-0.126l0.083,-0.126l0.084,-0.125l0.085,-0.124l0.085,-0.124l0.086,-0.123l0.087,-0.123l0.087,-0.122l0.089,-0.122l0.089,-0.121l0.089,-0.121l0.091,-0.12l0.091,-0.119l0.092,-0.119l0.092,-0.119l0.093,-0.118l0.094,-0.117l0.095,-0.116l0.095,-0.116l0.096,-0.116l0.096,-0.115l0.098,-0.114l0.097,-0.114l0.099,-0.113l0.099,-0.113l0.1,-0.111l0.101,-0.112l0.101,-0.11l0.102,-0.111l0.102,-0.109l0.104,-0.109l0.103,-0.108l0.105,-0.108l0.105,-0.107l0.106,-0.106l0.106,-0.106l0.107,-0.105l0.108,-0.105l0.108,-0.103l0.109,-0.104l0.109,-0.102l0.111,-0.102l0.11,-0.101l0.112,-0.101l0.111,-0.1l0.113,-0.099l0.113,-0.099l0.114,-0.097l0.114,-0.098l0.115,-0.096l0.116,-0.096l0.116,-0.095l0.116,-0.095l0.117,-0.094l0.118,-0.093l0.119,-0.092l0.119,-0.092l0.119,-0.091l0.12,-0.091l0.121,-0.089l0.121,-0.089l0.122,-0.089l0.122,-0.087l0.123,-0.087l0.123,-0.086l0.124,-0.085l0.124,-0.085l0.125,-0.084l0.126,-0.083l0.126,-0.082l0.126,-0.082l0.127,-0.081l0.128,-0.08l0.128,-0.08l0.129,-0.079l0.129,-0.077l0.129,-0.078l0.131,-0.076l0.13,-0.076l0.131,-0.075l0.132,-0.074l0.132,-0.073l0.133,-0.073l0.133,-0.072l0.133,-0.071l0.134,-0.07l0.135,-0.069l0.135,-0.069l0.135,-0.068l0.136,-0.067l0.136,-0.066l0.137,-0.066l0.138,-0.064l0.137,-0.064l0.139,-0.063l0.138,-0.062l0.139,-0.062l0.14,-0.06l0.14,-0.06l0.14,-0.059l0.141,-0.058l0.141,-0.057l0.142,-0.057l0.142,-0.055l0.143,-0.055l0.143,-0.054l0.143,-0.053l0.144,-0.052l0.144,-0.051l0.144,-0.051l0.145,-0.05l0.146,-0.048l0.145,-0.048l0.147,-0.047l0.146,-0.046l0.147,-0.046l0.147,-0.044l0.148,-0.043l0.148,-0.043l0.149,-0.042l0.148,-0.04l0.15,-0.04l0.149,-0.039l0.15,-0.038l0.15,-0.038l0.151,-0.036l0.151,-0.035l0.151,-0.035l0.152,-0.033l0.152,-0.033l0.152,-0.032l0.153,-0.03l0.153,-0.03l0.153,-0.029l0.154,-0.028l0.154,-0.027l0.154,-0.026l0.155,-0.026l0.155,-0.024l0.155,-0.023l0.156,-0.022l0.156,-0.022l0.156,-0.02l0.156,-0.019l0.157,-0.019l0.157,-0.017l0.157,-0.017l0.158,-0.015l0.158,-0.015l0.158,-0.013l0.159,-0.013l0.158,-0.012l0.159,-0.01l0.16,-0.01l0.159,-0.008l0.16,-0.008l0.16,-0.007l0.161,-0.005l0.16,-0.005l0.161,-0.003l0.161,-0.003l0.161,-0.001l0.162,-0.001l0.162,0.001Zm-0.305,3l-0.142,0.001l-0.142,0.002l-0.142,0.003l-0.141,0.004l-0.142,0.005l-0.141,0.006l-0.14,0.007l-0.141,0.007l-0.141,0.009l-0.139,0.009l-0.14,0.01l-0.141,0.011l-0.138,0.012l-0.139,0.013l-0.139,0.014l-0.138,0.014l-0.139,0.016l-0.137,0.016l-0.138,0.017l-0.138,0.018l-0.138,0.019l-0.136,0.019l-0.136,0.021l-0.137,0.021l-0.136,0.022l-0.136,0.023l-0.135,0.024l-0.135,0.025l-0.135,0.025l-0.134,0.026l-0.134,0.027l-0.134,0.028l-0.134,0.029l-0.134,0.029l-0.133,0.031l-0.132,0.031l-0.133,0.032l-0.132,0.032l-0.131,0.034l-0.132,0.034l-0.132,0.035l-0.131,0.036l-0.129,0.037l-0.13,0.037l-0.13,0.038l-0.13,0.04l-0.13,0.04l-0.127,0.039l-0.129,0.042l-0.129,0.042l-0.127,0.043l-0.127,0.043l-0.128,0.045l-0.127,0.045l-0.126,0.046l-0.126,0.047l-0.125,0.047l-0.126,0.048l-0.125,0.049l-0.124,0.049l-0.124,0.051l-0.124,0.051l-0.124,0.052l-0.123,0.052l-0.123,0.054l-0.122,0.054l-0.121,0.054l-0.122,0.056l-0.122,0.056l-0.12,0.056l-0.12,0.058l-0.122,0.059l-0.118,0.058l-0.118,0.06l-0.121,0.061l-0.117,0.06l-0.118,0.062l-0.119,0.064l-0.116,0.062l-0.117,0.064l-0.116,0.065l-0.114,0.064l-0.116,0.066l-0.116,0.068l-0.116,0.067l-0.112,0.067l-0.113,0.069l-0.113,0.069l-0.113,0.07l-0.113,0.071l-0.113,0.072l-0.11,0.071l-0.111,0.073l-0.112,0.074l-0.109,0.072l-0.108,0.075l-0.11,0.075l-0.109,0.076l-0.108,0.076l-0.108,0.078l-0.108,0.078l-0.106,0.078l-0.106,0.079l-0.105,0.078l-0.106,0.081l-0.104,0.081l-0.104,0.081l-0.104,0.083l-0.105,0.083l-0.102,0.083l-0.102,0.084l-0.102,0.084l-0.1,0.084l-0.101,0.087l-0.1,0.086l-0.1,0.087l-0.099,0.087l-0.098,0.087l-0.1,0.091l-0.097,0.088l-0.095,0.089l-0.098,0.091l-0.096,0.091l-0.095,0.092l-0.095,0.091l-0.093,0.092l-0.095,0.095l-0.094,0.093l-0.091,0.093l-0.093,0.096l-0.092,0.096l-0.09,0.095l-0.09,0.096l-0.09,0.098l-0.089,0.097l-0.089,0.099l-0.087,0.097l-0.088,0.1l-0.088,0.1l-0.084,0.098l-0.086,0.102l-0.086,0.102l-0.085,0.102l-0.085,0.103l-0.082,0.102l-0.082,0.102l-0.082,0.104l-0.082,0.105l-0.081,0.104l-0.079,0.104l-0.08,0.107l-0.08,0.107l-0.078,0.106l-0.077,0.106l-0.078,0.109l-0.075,0.107l-0.077,0.11l-0.075,0.108l-0.074,0.11l-0.075,0.111l-0.072,0.11l-0.073,0.11l-0.071,0.111l-0.073,0.114l-0.07,0.111l-0.069,0.112l-0.071,0.116l-0.068,0.113l-0.067,0.112l-0.067,0.114l-0.067,0.116l-0.066,0.116l-0.066,0.116l-0.064,0.116l-0.064,0.116l-0.064,0.12l-0.062,0.115l-0.061,0.117l-0.062,0.119l-0.059,0.117l-0.061,0.121l-0.059,0.12l-0.058,0.121l-0.057,0.118l-0.057,0.121l-0.056,0.122l-0.056,0.122l-0.055,0.122l-0.053,0.121l-0.054,0.123l-0.053,0.124l-0.051,0.121l-0.051,0.125l-0.051,0.125l-0.049,0.123l-0.049,0.126l-0.049,0.127l-0.046,0.124l-0.046,0.124l-0.048,0.131l-0.045,0.125l-0.043,0.126l-0.044,0.129l-0.043,0.126l-0.042,0.127l-0.041,0.13l-0.041,0.131l-0.04,0.128l-0.039,0.128l-0.038,0.129l-0.037,0.13l-0.037,0.132l-0.036,0.133l-0.035,0.13l-0.034,0.131l-0.034,0.131l-0.032,0.132l-0.032,0.132l-0.031,0.132l-0.031,0.135l-0.029,0.133l-0.028,0.131l-0.029,0.137l-0.027,0.134l-0.026,0.134l-0.026,0.138l-0.024,0.132l-0.024,0.135l-0.023,0.136l-0.022,0.136l-0.021,0.137l-0.02,0.134l-0.02,0.14l-0.019,0.138l-0.018,0.135l-0.017,0.138l-0.016,0.138l-0.016,0.139l-0.014,0.136l-0.014,0.14l-0.013,0.14l-0.012,0.14l-0.011,0.141l-0.01,0.137l-0.009,0.139l-0.009,0.141l-0.007,0.142l-0.007,0.139l-0.006,0.142l-0.005,0.143l-0.004,0.14l-0.003,0.14l-0.002,0.144l-0.001,0.144l-0.001,0.141l0.001,0.141l0.001,0.144l0.002,0.144l0.003,0.14l0.004,0.14l0.005,0.143l0.006,0.142l0.007,0.139l0.007,0.142l0.009,0.141l0.009,0.139l0.01,0.137l0.011,0.141l0.012,0.14l0.013,0.14l0.014,0.14l0.014,0.136l0.016,0.139l0.016,0.138l0.017,0.138l0.018,0.135l0.019,0.138l0.02,0.14l0.02,0.134l0.021,0.137l0.022,0.136l0.023,0.136l0.024,0.135l0.024,0.132l0.026,0.138l0.026,0.134l0.027,0.134l0.029,0.137l0.028,0.131l0.029,0.133l0.031,0.135l0.031,0.132l0.032,0.132l0.032,0.132l0.034,0.131l0.034,0.131l0.035,0.13l0.036,0.133l0.037,0.132l0.037,0.13l0.038,0.129l0.039,0.128l0.04,0.128l0.041,0.131l0.041,0.13l0.042,0.127l0.043,0.126l0.044,0.129l0.043,0.126l0.045,0.125l0.048,0.131l0.046,0.124l0.046,0.124l0.049,0.127l0.049,0.126l0.049,0.123l0.051,0.125l0.051,0.125l0.051,0.121l0.053,0.124l0.054,0.123l0.053,0.121l0.055,0.122l0.056,0.122l0.056,0.122l0.057,0.121l0.057,0.118l0.058,0.121l0.059,0.12l0.061,0.121l0.059,0.117l0.062,0.119l0.061,0.117l0.062,0.115l0.064,0.12l0.064,0.116l0.064,0.116l0.066,0.116l0.066,0.116l0.067,0.116l0.067,0.114l0.067,0.112l0.068,0.113l0.071,0.116l0.069,0.112l0.07,0.111l0.073,0.114l0.071,0.111l0.073,0.11l0.072,0.11l0.075,0.111l0.074,0.11l0.075,0.108l0.077,0.11l0.075,0.107l0.078,0.109l0.077,0.106l0.078,0.106l0.08,0.107l0.08,0.107l0.079,0.104l0.081,0.104l0.082,0.105l0.082,0.104l0.082,0.102l0.082,0.102l0.085,0.103l0.085,0.102l0.086,0.102l0.086,0.102l0.084,0.098l0.088,0.1l0.088,0.1l0.087,0.097l0.089,0.099l0.089,0.097l0.09,0.098l0.09,0.096l0.09,0.095l0.092,0.096l0.093,0.096l0.091,0.093l0.094,0.093l0.095,0.095l0.093,0.092l0.095,0.091l0.095,0.092l0.096,0.091l0.098,0.091l0.095,0.089l0.097,0.088l0.1,0.091l0.098,0.087l0.099,0.087l0.1,0.087l0.1,0.086l0.101,0.087l0.1,0.084l0.102,0.084l0.102,0.084l0.102,0.083l0.105,0.083l0.104,0.083l0.104,0.081l0.104,0.081l0.106,0.081l0.105,0.078l0.106,0.079l0.106,0.078l0.108,0.078l0.108,0.078l0.108,0.076l0.109,0.076l0.11,0.075l0.108,0.075l0.109,0.072l0.112,0.074l0.111,0.073l0.11,0.071l0.113,0.072l0.113,0.071l0.113,0.07l0.113,0.069l0.113,0.069l0.112,0.067l0.116,0.067l0.116,0.068l0.116,0.066l0.114,0.064l0.116,0.065l0.117,0.064l0.116,0.062l0.119,0.064l0.118,0.062l0.117,0.06l0.121,0.061l0.118,0.06l0.118,0.058l0.122,0.059l0.12,0.058l0.12,0.056l0.122,0.056l0.122,0.056l0.121,0.054l0.122,0.054l0.123,0.054l0.123,0.052l0.124,0.052l0.124,0.051l0.124,0.051l0.124,0.049l0.125,0.049l0.126,0.048l0.125,0.047l0.126,0.047l0.126,0.046l0.127,0.045l0.128,0.045l0.127,0.043l0.127,0.043l0.129,0.042l0.129,0.042l0.127,0.039l0.13,0.04l0.13,0.04l0.13,0.038l0.13,0.037l0.129,0.037l0.131,0.036l0.132,0.035l0.132,0.034l0.131,0.034l0.132,0.032l0.133,0.032l0.132,0.031l0.133,0.031l0.134,0.029l0.134,0.029l0.134,0.028l0.134,0.027l0.134,0.026l0.135,0.025l0.135,0.025l0.135,0.024l0.136,0.023l0.136,0.022l0.137,0.021l0.136,0.021l0.136,0.019l0.138,0.019l0.138,0.018l0.138,0.017l0.137,0.016l0.139,0.016l0.138,0.014l0.139,0.014l0.139,0.013l0.138,0.012l0.141,0.011l0.14,0.01l0.139,0.009l0.141,0.009l0.141,0.007l0.14,0.007l0.141,0.006l0.142,0.005l0.141,0.004l0.142,0.003l0.142,0.002l0.142,0.001l0.143,0.001l0.143,-0.001l0.142,-0.001l0.142,-0.002l0.142,-0.003l0.141,-0.004l0.142,-0.005l0.141,-0.006l0.14,-0.007l0.141,-0.007l0.141,-0.009l0.139,-0.009l0.14,-0.01l0.141,-0.011l0.138,-0.012l0.139,-0.013l0.139,-0.014l0.138,-0.014l0.139,-0.016l0.137,-0.016l0.138,-0.017l0.138,-0.018l0.138,-0.019l0.136,-0.019l0.136,-0.021l0.137,-0.021l0.136,-0.022l0.136,-0.023l0.135,-0.024l0.135,-0.025l0.135,-0.025l0.134,-0.026l0.134,-0.027l0.134,-0.028l0.134,-0.029l0.134,-0.029l0.133,-0.031l0.132,-0.031l0.133,-0.032l0.132,-0.032l0.131,-0.034l0.132,-0.034l0.132,-0.035l0.131,-0.036l0.129,-0.037l0.13,-0.037l0.13,-0.038l0.13,-0.04l0.13,-0.04l0.127,-0.039l0.129,-0.042l0.129,-0.042l0.127,-0.043l0.127,-0.043l0.128,-0.045l0.127,-0.045l0.126,-0.046l0.126,-0.047l0.125,-0.047l0.126,-0.048l0.125,-0.049l0.124,-0.049l0.124,-0.051l0.124,-0.051l0.124,-0.052l0.123,-0.052l0.123,-0.054l0.122,-0.054l0.121,-0.054l0.122,-0.056l0.122,-0.056l0.12,-0.056l0.12,-0.058l0.122,-0.059l0.118,-0.058l0.118,-0.06l0.121,-0.061l0.117,-0.06l0.118,-0.062l0.119,-0.064l0.116,-0.062l0.117,-0.064l0.116,-0.065l0.114,-0.064l0.116,-0.066l0.116,-0.068l0.116,-0.067l0.112,-0.067l0.113,-0.069l0.113,-0.069l0.113,-0.07l0.113,-0.071l0.113,-0.072l0.11,-0.071l0.111,-0.073l0.112,-0.074l0.109,-0.072l0.108,-0.075l0.11,-0.075l0.109,-0.076l0.108,-0.076l0.108,-0.078l0.108,-0.078l0.106,-0.078l0.106,-0.079l0.105,-0.078l0.106,-0.081l0.104,-0.081l0.104,-0.081l0.104,-0.083l0.105,-0.083l0.102,-0.083l0.102,-0.084l0.102,-0.084l0.1,-0.084l0.101,-0.087l0.1,-0.086l0.1,-0.087l0.099,-0.087l0.098,-0.087l0.1,-0.091l0.097,-0.088l0.095,-0.089l0.098,-0.091l0.096,-0.091l0.095,-0.092l0.095,-0.091l0.093,-0.092l0.095,-0.095l0.094,-0.093l0.091,-0.093l0.093,-0.096l0.092,-0.096l0.09,-0.095l0.09,-0.096l0.09,-0.098l0.089,-0.097l0.089,-0.099l0.087,-0.097l0.088,-0.1l0.088,-0.1l0.084,-0.098l0.086,-0.102l0.086,-0.102l0.085,-0.102l0.085,-0.103l0.082,-0.102l0.082,-0.102l0.082,-0.104l0.082,-0.105l0.081,-0.104l0.079,-0.104l0.08,-0.107l0.08,-0.107l0.078,-0.106l0.077,-0.106l0.078,-0.109l0.075,-0.107l0.077,-0.11l0.075,-0.108l0.074,-0.11l0.075,-0.111l0.072,-0.11l0.073,-0.11l0.071,-0.111l0.073,-0.114l0.07,-0.111l0.069,-0.112l0.071,-0.116l0.068,-0.113l0.067,-0.112l0.067,-0.114l0.067,-0.116l0.066,-0.116l0.066,-0.116l0.064,-0.116l0.064,-0.116l0.064,-0.12l0.062,-0.115l0.061,-0.117l0.062,-0.119l0.059,-0.117l0.061,-0.121l0.059,-0.12l0.058,-0.121l0.057,-0.118l0.057,-0.121l0.056,-0.122l0.056,-0.122l0.055,-0.122l0.053,-0.121l0.054,-0.123l0.053,-0.124l0.051,-0.121l0.051,-0.125l0.051,-0.125l0.049,-0.123l0.049,-0.126l0.049,-0.127l0.046,-0.124l0.046,-0.124l0.048,-0.131l0.045,-0.125l0.043,-0.126l0.044,-0.129l0.043,-0.126l0.042,-0.127l0.041,-0.13l0.041,-0.131l0.04,-0.128l0.039,-0.128l0.038,-0.129l0.037,-0.13l0.037,-0.132l0.036,-0.133l0.035,-0.13l0.034,-0.131l0.034,-0.131l0.032,-0.132l0.032,-0.132l0.031,-0.132l0.031,-0.135l0.029,-0.133l0.028,-0.131l0.029,-0.137l0.027,-0.134l0.026,-0.134l0.026,-0.138l0.024,-0.132l0.024,-0.135l0.023,-0.136l0.022,-0.136l0.021,-0.137l0.02,-0.134l0.02,-0.14l0.019,-0.138l0.018,-0.135l0.017,-0.138l0.016,-0.138l0.016,-0.139l0.014,-0.136l0.014,-0.14l0.013,-0.14l0.012,-0.14l0.011,-0.141l0.01,-0.137l0.009,-0.139l0.009,-0.141l0.007,-0.142l0.007,-0.139l0.006,-0.142l0.005,-0.143l0.004,-0.14l0.003,-0.14l0.002,-0.144l0.001,-0.144l0.001,-0.141l-0.001,-0.141l-0.001,-0.144l-0.002,-0.144l-0.003,-0.14l-0.004,-0.14l-0.005,-0.143l-0.006,-0.142l-0.007,-0.139l-0.007,-0.142l-0.009,-0.141l-0.009,-0.139l-0.01,-0.137l-0.011,-0.141l-0.012,-0.14l-0.013,-0.14l-0.014,-0.14l-0.014,-0.136l-0.016,-0.139l-0.016,-0.138l-0.017,-0.138l-0.018,-0.135l-0.019,-0.138l-0.02,-0.14l-0.02,-0.134l-0.021,-0.137l-0.022,-0.136l-0.023,-0.136l-0.024,-0.135l-0.024,-0.132l-0.026,-0.138l-0.026,-0.134l-0.027,-0.134l-0.029,-0.137l-0.028,-0.131l-0.029,-0.133l-0.031,-0.135l-0.031,-0.132l-0.032,-0.132l-0.032,-0.132l-0.034,-0.131l-0.034,-0.131l-0.035,-0.13l-0.036,-0.133l-0.037,-0.132l-0.037,-0.13l-0.038,-0.129l-0.039,-0.128l-0.04,-0.128l-0.041,-0.131l-0.041,-0.13l-0.042,-0.127l-0.043,-0.126l-0.044,-0.129l-0.043,-0.126l-0.045,-0.125l-0.048,-0.131l-0.046,-0.124l-0.046,-0.124l-0.049,-0.127l-0.049,-0.126l-0.049,-0.123l-0.051,-0.125l-0.051,-0.125l-0.051,-0.121l-0.053,-0.124l-0.054,-0.123l-0.053,-0.121l-0.055,-0.122l-0.056,-0.122l-0.056,-0.122l-0.057,-0.121l-0.057,-0.118l-0.058,-0.121l-0.059,-0.12l-0.061,-0.121l-0.059,-0.117l-0.062,-0.119l-0.061,-0.117l-0.062,-0.115l-0.064,-0.12l-0.064,-0.116l-0.064,-0.116l-0.066,-0.116l-0.066,-0.116l-0.067,-0.116l-0.067,-0.114l-0.067,-0.112l-0.068,-0.113l-0.071,-0.116l-0.069,-0.112l-0.07,-0.111l-0.073,-0.114l-0.071,-0.111l-0.073,-0.11l-0.072,-0.11l-0.075,-0.111l-0.074,-0.11l-0.075,-0.108l-0.077,-0.11l-0.075,-0.107l-0.078,-0.109l-0.077,-0.106l-0.078,-0.106l-0.08,-0.107l-0.08,-0.107l-0.079,-0.104l-0.081,-0.104l-0.082,-0.105l-0.082,-0.104l-0.082,-0.102l-0.082,-0.102l-0.085,-0.103l-0.085,-0.102l-0.086,-0.102l-0.086,-0.102l-0.084,-0.098l-0.088,-0.1l-0.088,-0.1l-0.087,-0.097l-0.089,-0.099l-0.089,-0.097l-0.09,-0.098l-0.09,-0.096l-0.09,-0.095l-0.092,-0.096l-0.093,-0.096l-0.091,-0.093l-0.094,-0.093l-0.095,-0.095l-0.093,-0.092l-0.095,-0.091l-0.095,-0.092l-0.096,-0.091l-0.098,-0.091l-0.095,-0.089l-0.097,-0.088l-0.1,-0.091l-0.098,-0.087l-0.099,-0.087l-0.1,-0.087l-0.1,-0.086l-0.101,-0.087l-0.1,-0.084l-0.102,-0.084l-0.102,-0.084l-0.102,-0.083l-0.105,-0.083l-0.104,-0.083l-0.104,-0.081l-0.104,-0.081l-0.106,-0.081l-0.105,-0.078l-0.106,-0.079l-0.106,-0.078l-0.108,-0.078l-0.108,-0.078l-0.108,-0.076l-0.109,-0.076l-0.11,-0.075l-0.108,-0.075l-0.109,-0.072l-0.112,-0.074l-0.111,-0.073l-0.11,-0.071l-0.113,-0.072l-0.113,-0.071l-0.113,-0.07l-0.113,-0.069l-0.113,-0.069l-0.112,-0.067l-0.116,-0.067l-0.116,-0.068l-0.116,-0.066l-0.114,-0.064l-0.116,-0.065l-0.117,-0.064l-0.116,-0.062l-0.119,-0.064l-0.118,-0.062l-0.117,-0.06l-0.121,-0.061l-0.118,-0.06l-0.118,-0.058l-0.122,-0.059l-0.12,-0.058l-0.12,-0.056l-0.122,-0.056l-0.122,-0.056l-0.121,-0.054l-0.122,-0.054l-0.123,-0.054l-0.123,-0.052l-0.124,-0.052l-0.124,-0.051l-0.124,-0.051l-0.124,-0.049l-0.125,-0.049l-0.126,-0.048l-0.125,-0.047l-0.126,-0.047l-0.126,-0.046l-0.127,-0.045l-0.128,-0.045l-0.127,-0.043l-0.127,-0.043l-0.129,-0.042l-0.129,-0.042l-0.127,-0.039l-0.13,-0.04l-0.13,-0.04l-0.13,-0.038l-0.13,-0.037l-0.129,-0.037l-0.131,-0.036l-0.132,-0.035l-0.132,-0.034l-0.131,-0.034l-0.132,-0.032l-0.133,-0.032l-0.132,-0.031l-0.133,-0.031l-0.134,-0.029l-0.134,-0.029l-0.134,-0.028l-0.134,-0.027l-0.134,-0.026l-0.135,-0.025l-0.135,-0.025l-0.135,-0.024l-0.136,-0.023l-0.136,-0.022l-0.137,-0.021l-0.136,-0.021l-0.136,-0.019l-0.138,-0.019l-0.138,-0.018l-0.138,-0.017l-0.137,-0.016l-0.139,-0.016l-0.138,-0.014l-0.139,-0.014l-0.139,-0.013l-0.138,-0.012l-0.141,-0.011l-0.14,-0.01l-0.139,-0.009l-0.141,-0.009l-0.141,-0.007l-0.14,-0.007l-0.141,-0.006l-0.142,-0.005l-0.141,-0.004l-0.142,-0.003l-0.142,-0.002l-0.142,-0.001l-0.143,-0.001l-0.143,0.001Z" style="fill:#2a2a2a;"/></g></svg>