<?xml version="1.0" encoding="UTF-8" standalone="no"?><!DOCTYPE svg PUBLIC "-//W3C//DTD SVG 1.1//EN" "http://www.w3.org/Graphics/SVG/1.1/DTD/svg11.dtd"><svg width="100%" height="100%" viewBox="0 0 50 50" version="1.1" xmlns="http://www.w3.org/2000/svg" xmlns:xlink="http://www.w3.org/1999/xlink" xml:space="preserve" xmlns:serif="http://www.serif.com/" style="fill-rule:evenodd;clip-rule:evenodd;stroke-linecap:round;stroke-linejoin:round;stroke-miterlimit:2;"><rect id="f_beret_thumb" x="0" y="0" width="50" height="50" style="fill:none;"/><clipPath id="_clip1"><rect x="0" y="0" width="50" height="50"/></clipPath><g clip-path="url(#_clip1)"><circle cx="25" cy="25" r="25" style="fill:none;"/><clipPath id="_clip2"><circle cx="25" cy="25" r="25"/></clipPath><g clip-path="url(#_clip2)"><g><g id="girltato"><path d="M19.797,49.065c1.095,2.687 1.193,5.109 0,7.188" style="fill:none;stroke:#ac8639;stroke-width:1.85px;"/><path d="M32.069,49.088c0.736,2.349 0.775,4.743 0,7.189" style="fill:none;stroke:#ac8639;stroke-width:1.85px;"/><path d="M38.19,35.118c0.398,2.873 1.528,5.02 3.604,6.225" style="fill:none;stroke:#ac8639;stroke-width:1.85px;"/><path id="potato" d="M25.146,9.981c11.55,0 15.626,9.113 15.626,20.337c0,11.223 -3.185,20.336 -15.626,20.336c-12.442,0 -15.626,-9.113 -15.626,-20.336c0,-11.224 4.076,-20.337 15.626,-20.337Z" style="fill:#edbe5e;"/><clipPath id="_clip3"><path d="M25.146,9.981c11.55,0 15.626,9.113 15.626,20.337c0,11.223 -3.185,20.336 -15.626,20.336c-12.442,0 -15.626,-9.113 -15.626,-20.336c0,-11.224 4.076,-20.337 15.626,-20.337Z"/></clipPath><g clip-path="url(#_clip3)"><path id="shadow" d="M25.146,9.981c-20.849,9.49 -9.776,39.983 0,40.673c-12.442,0 -15.626,-9.113 -15.626,-20.336c0,-11.224 4.076,-20.337 15.626,-20.337Z" style="fill:#cda24c;fill-opacity:0.25098;"/><ellipse id="eye_1" cx="23.022" cy="25.816" rx="1.687" ry="1.682" style="fill:#302a1c;"/><ellipse id="eye_2" cx="35.347" cy="25.816" rx="1.687" ry="1.682" style="fill:#302a1c;"/><g id="eyebrows"><path d="M23.941,22.36c-0.68,-0.504 -1.88,-0.434 -2.455,0" style="fill:none;stroke:#ac8639;stroke-opacity:0.5;stroke-width:0.79px;"/><path d="M36.364,22.36c-0.68,-0.504 -1.879,-0.434 -2.454,0" style="fill:none;stroke:#ac8639;stroke-opacity:0.5;stroke-width:0.79px;"/></g><g id="marks"><path d="M14.373,31.934c0.68,-0.503 1.879,-0.433 2.454,0" style="fill:none;stroke:#ac8639;stroke-opacity:0.5;stroke-width:0.79px;"/><path d="M33.935,37.382c0.68,-0.503 1.879,-0.433 2.454,0" style="fill:none;stroke:#ac8639;stroke-opacity:0.5;stroke-width:0.79px;"/><path d="M19.955,41.131c0.68,-0.503 1.879,-0.433 2.454,0" style="fill:none;stroke:#ac8639;stroke-opacity:0.5;stroke-width:0.79px;"/><path d="M26.63,46.42c0.68,-0.504 1.879,-0.434 2.454,0" style="fill:none;stroke:#ac8639;stroke-opacity:0.5;stroke-width:0.79px;"/></g></g><path d="M25.281,9.982l0.134,0.001l0.134,0.002l0.133,0.003l0.132,0.004l0.132,0.004l0.131,0.006l0.13,0.006l0.13,0.007l0.128,0.008l0.129,0.008l0.127,0.01l0.127,0.01l0.126,0.011l0.126,0.012l0.125,0.013l0.124,0.013l0.124,0.014l0.122,0.015l0.123,0.016l0.121,0.017l0.121,0.017l0.12,0.018l0.12,0.019l0.119,0.02l0.118,0.02l0.118,0.021l0.117,0.022l0.116,0.023l0.116,0.024l0.115,0.024l0.114,0.025l0.114,0.026l0.113,0.026l0.113,0.028l0.112,0.028l0.111,0.028l0.11,0.03l0.11,0.03l0.11,0.031l0.108,0.032l0.108,0.032l0.108,0.034l0.106,0.033l0.106,0.035l0.106,0.035l0.105,0.037l0.104,0.036l0.104,0.038l0.103,0.038l0.102,0.039l0.102,0.04l0.101,0.04l0.1,0.041l0.1,0.042l0.099,0.042l0.099,0.043l0.098,0.044l0.097,0.045l0.097,0.045l0.096,0.046l0.096,0.046l0.095,0.048l0.094,0.048l0.094,0.048l0.093,0.049l0.093,0.05l0.092,0.051l0.091,0.051l0.091,0.052l0.09,0.053l0.089,0.053l0.089,0.054l0.089,0.055l0.087,0.055l0.087,0.056l0.087,0.056l0.086,0.057l0.085,0.058l0.085,0.058l0.084,0.059l0.084,0.06l0.083,0.06l0.083,0.061l0.081,0.062l0.082,0.062l0.08,0.063l0.081,0.063l0.079,0.064l0.079,0.065l0.078,0.065l0.078,0.066l0.078,0.067l0.076,0.067l0.076,0.067l0.076,0.069l0.075,0.068l0.074,0.07l0.074,0.07l0.073,0.07l0.073,0.072l0.072,0.071l0.072,0.073l0.071,0.073l0.07,0.073l0.07,0.074l0.07,0.075l0.069,0.075l0.068,0.076l0.067,0.076l0.068,0.077l0.066,0.078l0.066,0.078l0.066,0.078l0.065,0.079l0.064,0.08l0.064,0.08l0.063,0.081l0.063,0.081l0.063,0.082l0.061,0.082l0.061,0.083l0.061,0.084l0.06,0.084l0.06,0.084l0.059,0.085l0.058,0.086l0.058,0.086l0.058,0.086l0.057,0.087l0.056,0.088l0.056,0.088l0.055,0.088l0.055,0.089l0.055,0.09l0.053,0.09l0.054,0.091l0.052,0.091l0.053,0.091l0.051,0.092l0.051,0.093l0.051,0.093l0.05,0.093l0.05,0.094l0.049,0.094l0.049,0.095l0.048,0.096l0.048,0.095l0.047,0.097l0.046,0.097l0.047,0.097l0.045,0.097l0.045,0.098l0.045,0.099l0.044,0.099l0.044,0.1l0.043,0.099l0.043,0.101l0.042,0.101l0.041,0.101l0.042,0.101l0.04,0.102l0.04,0.103l0.04,0.103l0.039,0.103l0.039,0.104l0.038,0.104l0.038,0.105l0.038,0.105l0.036,0.105l0.037,0.106l0.036,0.106l0.035,0.107l0.035,0.107l0.034,0.108l0.034,0.108l0.034,0.108l0.033,0.108l0.032,0.109l0.033,0.11l0.031,0.11l0.031,0.11l0.031,0.11l0.03,0.111l0.03,0.112l0.029,0.111l0.029,0.112l0.029,0.113l0.028,0.113l0.027,0.113l0.027,0.113l0.027,0.114l0.026,0.114l0.026,0.115l0.025,0.115l0.025,0.115l0.024,0.116l0.024,0.115l0.023,0.117l0.023,0.116l0.023,0.117l0.022,0.118l0.022,0.117l0.021,0.118l0.021,0.118l0.02,0.119l0.02,0.119l0.02,0.119l0.019,0.12l0.019,0.119l0.018,0.121l0.018,0.12l0.017,0.121l0.017,0.121l0.017,0.121l0.016,0.122l0.015,0.122l0.016,0.122l0.015,0.122l0.014,0.123l0.014,0.123l0.014,0.124l0.013,0.123l0.013,0.124l0.012,0.124l0.012,0.125l0.011,0.125l0.011,0.125l0.011,0.125l0.011,0.125l0.009,0.126l0.01,0.126l0.009,0.127l0.009,0.126l0.008,0.127l0.008,0.127l0.007,0.127l0.008,0.128l0.006,0.128l0.007,0.128l0.006,0.128l0.005,0.128l0.005,0.129l0.005,0.129l0.004,0.129l0.004,0.129l0.004,0.13l0.003,0.13l0.003,0.13l0.002,0.13l0.003,0.13l0.001,0.131l0.002,0.131l0,0.131l0.001,0.131l0,0.132l0,0.262l-0.002,0.262l-0.003,0.261l-0.004,0.26l-0.006,0.26l-0.006,0.258l-0.008,0.258l-0.01,0.257l-0.01,0.255l-0.012,0.255l-0.013,0.254l-0.015,0.253l-0.016,0.252l-0.017,0.25l-0.019,0.25l-0.01,0.125l-0.01,0.124l-0.011,0.124l-0.011,0.123l-0.011,0.124l-0.012,0.123l-0.012,0.123l-0.012,0.122l-0.013,0.122l-0.013,0.122l-0.014,0.122l-0.014,0.121l-0.014,0.121l-0.015,0.121l-0.015,0.121l-0.015,0.12l-0.016,0.12l-0.017,0.119l-0.016,0.119l-0.017,0.119l-0.018,0.119l-0.018,0.118l-0.018,0.118l-0.019,0.118l-0.019,0.117l-0.02,0.117l-0.019,0.116l-0.021,0.117l-0.021,0.116l-0.021,0.115l-0.021,0.115l-0.022,0.115l-0.023,0.115l-0.023,0.114l-0.023,0.114l-0.024,0.113l-0.024,0.114l-0.025,0.112l-0.025,0.113l-0.025,0.112l-0.026,0.112l-0.027,0.111l-0.026,0.111l-0.028,0.11l-0.028,0.111l-0.028,0.109l-0.028,0.11l-0.03,0.109l-0.029,0.108l-0.03,0.109l-0.031,0.108l-0.031,0.107l-0.031,0.107l-0.032,0.107l-0.032,0.106l-0.033,0.106l-0.034,0.105l-0.033,0.105l-0.035,0.105l-0.034,0.104l-0.036,0.104l-0.036,0.103l-0.036,0.103l-0.037,0.103l-0.037,0.102l-0.038,0.101l-0.038,0.102l-0.039,0.1l-0.039,0.101l-0.04,0.1l-0.04,0.099l-0.041,0.099l-0.041,0.099l-0.042,0.098l-0.042,0.097l-0.043,0.098l-0.043,0.096l-0.044,0.097l-0.045,0.095l-0.045,0.096l-0.045,0.095l-0.046,0.094l-0.047,0.094l-0.047,0.094l-0.047,0.093l-0.048,0.092l-0.049,0.092l-0.049,0.092l-0.05,0.091l-0.051,0.09l-0.05,0.09l-0.052,0.09l-0.052,0.089l-0.052,0.088l-0.054,0.088l-0.053,0.088l-0.055,0.087l-0.054,0.087l-0.056,0.086l-0.056,0.085l-0.056,0.085l-0.057,0.085l-0.058,0.083l-0.058,0.084l-0.059,0.083l-0.06,0.082l-0.06,0.082l-0.06,0.081l-0.062,0.081l-0.061,0.08l-0.063,0.08l-0.063,0.079l-0.063,0.078l-0.065,0.078l-0.064,0.078l-0.066,0.077l-0.066,0.076l-0.066,0.076l-0.068,0.075l-0.067,0.075l-0.069,0.074l-0.069,0.073l-0.07,0.073l-0.07,0.073l-0.071,0.072l-0.072,0.071l-0.072,0.07l-0.073,0.07l-0.073,0.07l-0.074,0.069l-0.075,0.068l-0.076,0.068l-0.076,0.067l-0.076,0.066l-0.078,0.066l-0.078,0.065l-0.078,0.065l-0.08,0.064l-0.08,0.063l-0.08,0.063l-0.081,0.062l-0.082,0.062l-0.083,0.061l-0.083,0.06l-0.084,0.06l-0.085,0.059l-0.085,0.058l-0.086,0.058l-0.087,0.057l-0.087,0.057l-0.088,0.055l-0.089,0.056l-0.089,0.054l-0.09,0.054l-0.091,0.053l-0.091,0.053l-0.092,0.052l-0.093,0.051l-0.094,0.051l-0.094,0.05l-0.095,0.049l-0.096,0.049l-0.096,0.047l-0.097,0.048l-0.098,0.046l-0.098,0.046l-0.1,0.045l-0.1,0.045l-0.1,0.044l-0.102,0.043l-0.102,0.042l-0.103,0.042l-0.103,0.041l-0.104,0.04l-0.105,0.04l-0.106,0.039l-0.107,0.038l-0.107,0.038l-0.108,0.037l-0.109,0.036l-0.109,0.035l-0.11,0.035l-0.111,0.034l-0.112,0.033l-0.113,0.032l-0.113,0.032l-0.114,0.031l-0.115,0.03l-0.115,0.03l-0.117,0.029l-0.117,0.028l-0.118,0.027l-0.118,0.026l-0.12,0.026l-0.12,0.025l-0.121,0.025l-0.121,0.023l-0.123,0.023l-0.123,0.022l-0.124,0.021l-0.125,0.021l-0.126,0.019l-0.126,0.019l-0.128,0.018l-0.128,0.018l-0.129,0.016l-0.129,0.016l-0.131,0.015l-0.131,0.014l-0.132,0.014l-0.133,0.012l-0.134,0.012l-0.135,0.011l-0.135,0.01l-0.136,0.01l-0.137,0.008l-0.138,0.008l-0.139,0.007l-0.139,0.006l-0.14,0.006l-0.142,0.004l-0.142,0.004l-0.142,0.003l-0.144,0.002l-0.145,0.001l-0.145,0.001l-0.145,-0.001l-0.145,-0.001l-0.144,-0.002l-0.143,-0.003l-0.142,-0.004l-0.141,-0.004l-0.14,-0.006l-0.14,-0.006l-0.138,-0.007l-0.138,-0.008l-0.137,-0.008l-0.136,-0.01l-0.136,-0.01l-0.134,-0.011l-0.134,-0.012l-0.133,-0.012l-0.132,-0.014l-0.131,-0.014l-0.131,-0.015l-0.129,-0.016l-0.129,-0.016l-0.128,-0.018l-0.128,-0.018l-0.126,-0.019l-0.126,-0.019l-0.125,-0.021l-0.124,-0.021l-0.123,-0.022l-0.123,-0.023l-0.121,-0.023l-0.121,-0.025l-0.121,-0.025l-0.119,-0.026l-0.119,-0.026l-0.117,-0.027l-0.118,-0.028l-0.116,-0.029l-0.115,-0.03l-0.115,-0.03l-0.114,-0.031l-0.113,-0.032l-0.113,-0.032l-0.112,-0.033l-0.111,-0.034l-0.11,-0.035l-0.109,-0.035l-0.109,-0.036l-0.108,-0.037l-0.107,-0.038l-0.107,-0.038l-0.106,-0.039l-0.105,-0.04l-0.104,-0.04l-0.104,-0.041l-0.102,-0.042l-0.103,-0.042l-0.101,-0.043l-0.101,-0.044l-0.1,-0.045l-0.099,-0.045l-0.098,-0.046l-0.098,-0.046l-0.097,-0.048l-0.096,-0.047l-0.096,-0.049l-0.095,-0.049l-0.094,-0.05l-0.094,-0.051l-0.093,-0.051l-0.092,-0.052l-0.091,-0.053l-0.091,-0.053l-0.09,-0.054l-0.089,-0.054l-0.089,-0.056l-0.088,-0.055l-0.087,-0.057l-0.087,-0.057l-0.086,-0.058l-0.085,-0.058l-0.085,-0.059l-0.084,-0.06l-0.083,-0.06l-0.083,-0.061l-0.082,-0.062l-0.081,-0.062l-0.081,-0.063l-0.08,-0.063l-0.079,-0.064l-0.079,-0.065l-0.078,-0.065l-0.077,-0.066l-0.077,-0.066l-0.076,-0.067l-0.075,-0.068l-0.075,-0.068l-0.074,-0.069l-0.073,-0.07l-0.073,-0.07l-0.073,-0.07l-0.071,-0.071l-0.071,-0.072l-0.07,-0.073l-0.07,-0.073l-0.069,-0.073l-0.069,-0.074l-0.068,-0.075l-0.067,-0.075l-0.066,-0.076l-0.066,-0.076l-0.066,-0.077l-0.065,-0.078l-0.064,-0.078l-0.063,-0.078l-0.063,-0.079l-0.063,-0.08l-0.062,-0.08l-0.061,-0.081l-0.06,-0.081l-0.061,-0.082l-0.059,-0.082l-0.059,-0.083l-0.058,-0.084l-0.058,-0.083l-0.057,-0.085l-0.056,-0.085l-0.056,-0.085l-0.056,-0.086l-0.055,-0.087l-0.054,-0.087l-0.054,-0.088l-0.053,-0.088l-0.052,-0.088l-0.052,-0.089l-0.052,-0.09l-0.051,-0.09l-0.05,-0.09l-0.05,-0.091l-0.049,-0.092l-0.049,-0.092l-0.048,-0.092l-0.048,-0.093l-0.047,-0.094l-0.046,-0.094l-0.046,-0.094l-0.046,-0.095l-0.045,-0.096l-0.044,-0.095l-0.044,-0.097l-0.043,-0.096l-0.043,-0.098l-0.042,-0.097l-0.042,-0.098l-0.042,-0.099l-0.04,-0.099l-0.041,-0.099l-0.039,-0.1l-0.04,-0.101l-0.038,-0.1l-0.039,-0.102l-0.037,-0.101l-0.038,-0.102l-0.036,-0.103l-0.037,-0.103l-0.035,-0.103l-0.036,-0.104l-0.034,-0.104l-0.035,-0.105l-0.034,-0.105l-0.033,-0.105l-0.033,-0.106l-0.032,-0.106l-0.032,-0.107l-0.032,-0.107l-0.031,-0.107l-0.03,-0.108l-0.03,-0.109l-0.03,-0.108l-0.029,-0.109l-0.028,-0.11l-0.029,-0.109l-0.027,-0.111l-0.028,-0.11l-0.027,-0.111l-0.026,-0.111l-0.026,-0.112l-0.025,-0.112l-0.025,-0.113l-0.025,-0.112l-0.024,-0.114l-0.024,-0.113l-0.023,-0.114l-0.023,-0.114l-0.023,-0.115l-0.022,-0.115l-0.021,-0.115l-0.022,-0.115l-0.02,-0.116l-0.021,-0.117l-0.02,-0.116l-0.019,-0.117l-0.019,-0.117l-0.019,-0.118l-0.018,-0.118l-0.018,-0.118l-0.018,-0.119l-0.017,-0.119l-0.016,-0.119l-0.017,-0.119l-0.016,-0.12l-0.015,-0.12l-0.015,-0.121l-0.015,-0.121l-0.014,-0.121l-0.014,-0.121l-0.014,-0.122l-0.013,-0.122l-0.013,-0.122l-0.012,-0.122l-0.013,-0.123l-0.011,-0.123l-0.012,-0.124l-0.011,-0.123l-0.01,-0.124l-0.01,-0.124l-0.01,-0.125l-0.019,-0.25l-0.017,-0.25l-0.016,-0.252l-0.015,-0.253l-0.013,-0.254l-0.012,-0.255l-0.011,-0.255l-0.009,-0.257l-0.008,-0.258l-0.006,-0.258l-0.006,-0.26l-0.004,-0.26l-0.003,-0.261l-0.002,-0.262l0,-0.262l0,-0.132l0,-0.131l0.001,-0.131l0.002,-0.131l0.001,-0.131l0.002,-0.13l0.003,-0.13l0.003,-0.13l0.003,-0.13l0.003,-0.13l0.004,-0.129l0.005,-0.129l0.005,-0.129l0.005,-0.129l0.005,-0.128l0.006,-0.128l0.007,-0.128l0.006,-0.128l0.007,-0.128l0.008,-0.127l0.008,-0.127l0.008,-0.127l0.009,-0.126l0.009,-0.127l0.009,-0.126l0.01,-0.126l0.011,-0.125l0.01,-0.125l0.011,-0.125l0.012,-0.125l0.012,-0.125l0.012,-0.124l0.013,-0.124l0.013,-0.123l0.014,-0.124l0.014,-0.123l0.014,-0.123l0.015,-0.122l0.015,-0.122l0.016,-0.122l0.016,-0.122l0.017,-0.121l0.017,-0.121l0.017,-0.121l0.018,-0.12l0.018,-0.121l0.019,-0.119l0.019,-0.12l0.019,-0.119l0.02,-0.119l0.021,-0.119l0.021,-0.118l0.021,-0.118l0.022,-0.117l0.022,-0.118l0.022,-0.117l0.023,-0.116l0.024,-0.117l0.024,-0.115l0.024,-0.116l0.025,-0.115l0.025,-0.115l0.026,-0.115l0.026,-0.114l0.027,-0.114l0.027,-0.113l0.027,-0.113l0.028,-0.113l0.029,-0.113l0.028,-0.112l0.03,-0.111l0.03,-0.112l0.03,-0.111l0.03,-0.11l0.032,-0.11l0.031,-0.11l0.032,-0.11l0.033,-0.109l0.033,-0.108l0.034,-0.108l0.033,-0.108l0.035,-0.108l0.035,-0.107l0.035,-0.107l0.036,-0.106l0.036,-0.106l0.037,-0.105l0.038,-0.105l0.037,-0.105l0.039,-0.104l0.038,-0.104l0.04,-0.103l0.039,-0.103l0.041,-0.103l0.04,-0.102l0.041,-0.101l0.042,-0.101l0.042,-0.101l0.043,-0.101l0.043,-0.099l0.044,-0.1l0.044,-0.099l0.045,-0.099l0.045,-0.098l0.045,-0.097l0.046,-0.097l0.047,-0.097l0.047,-0.097l0.048,-0.095l0.048,-0.096l0.049,-0.095l0.049,-0.094l0.049,-0.094l0.051,-0.093l0.05,-0.093l0.052,-0.093l0.051,-0.092l0.053,-0.091l0.052,-0.091l0.054,-0.091l0.053,-0.09l0.055,-0.09l0.054,-0.089l0.056,-0.088l0.056,-0.088l0.056,-0.088l0.057,-0.087l0.058,-0.086l0.057,-0.086l0.059,-0.086l0.059,-0.085l0.06,-0.084l0.06,-0.084l0.06,-0.084l0.062,-0.083l0.061,-0.082l0.063,-0.082l0.062,-0.081l0.064,-0.081l0.064,-0.08l0.064,-0.08l0.065,-0.079l0.066,-0.078l0.066,-0.078l0.066,-0.078l0.067,-0.077l0.068,-0.076l0.068,-0.076l0.069,-0.075l0.069,-0.075l0.07,-0.074l0.071,-0.073l0.071,-0.073l0.072,-0.073l0.072,-0.071l0.072,-0.072l0.074,-0.07l0.074,-0.07l0.074,-0.07l0.075,-0.068l0.076,-0.069l0.076,-0.067l0.076,-0.067l0.078,-0.067l0.077,-0.066l0.079,-0.065l0.079,-0.065l0.079,-0.064l0.08,-0.063l0.081,-0.063l0.081,-0.062l0.082,-0.062l0.083,-0.061l0.083,-0.06l0.083,-0.06l0.085,-0.059l0.084,-0.058l0.086,-0.058l0.086,-0.057l0.086,-0.056l0.088,-0.056l0.087,-0.055l0.089,-0.055l0.089,-0.054l0.089,-0.053l0.09,-0.053l0.091,-0.052l0.091,-0.051l0.092,-0.051l0.093,-0.05l0.093,-0.049l0.094,-0.048l0.094,-0.048l0.095,-0.048l0.096,-0.046l0.096,-0.046l0.096,-0.045l0.098,-0.045l0.098,-0.044l0.099,-0.043l0.099,-0.042l0.1,-0.042l0.1,-0.041l0.101,-0.04l0.102,-0.04l0.102,-0.039l0.103,-0.038l0.104,-0.038l0.104,-0.036l0.105,-0.037l0.105,-0.035l0.107,-0.035l0.106,-0.033l0.108,-0.034l0.108,-0.032l0.108,-0.032l0.11,-0.031l0.109,-0.03l0.111,-0.03l0.111,-0.028l0.112,-0.028l0.112,-0.028l0.114,-0.026l0.113,-0.026l0.115,-0.025l0.115,-0.024l0.115,-0.024l0.117,-0.023l0.117,-0.022l0.117,-0.021l0.119,-0.02l0.119,-0.02l0.119,-0.019l0.121,-0.018l0.121,-0.017l0.121,-0.017l0.122,-0.016l0.123,-0.015l0.124,-0.014l0.124,-0.013l0.125,-0.013l0.125,-0.012l0.127,-0.011l0.127,-0.01l0.127,-0.01l0.128,-0.008l0.129,-0.008l0.13,-0.007l0.13,-0.006l0.131,-0.006l0.132,-0.004l0.132,-0.004l0.133,-0.003l0.134,-0.002l0.134,-0.001l0.135,-0.001l0.135,0.001Zm-0.264,0.919l-0.129,0.001l-0.128,0.002l-0.127,0.003l-0.126,0.003l-0.126,0.005l-0.125,0.005l-0.124,0.006l-0.124,0.006l-0.123,0.008l-0.122,0.008l-0.121,0.009l-0.122,0.01l-0.12,0.01l-0.119,0.012l-0.118,0.012l-0.118,0.012l-0.118,0.014l-0.116,0.014l-0.116,0.015l-0.115,0.016l-0.115,0.016l-0.113,0.017l-0.114,0.018l-0.112,0.019l-0.112,0.019l-0.111,0.02l-0.11,0.021l-0.11,0.021l-0.109,0.023l-0.108,0.022l-0.108,0.024l-0.107,0.024l-0.106,0.025l-0.106,0.026l-0.105,0.026l-0.104,0.027l-0.104,0.028l-0.103,0.028l-0.103,0.029l-0.101,0.03l-0.101,0.03l-0.101,0.031l-0.1,0.032l-0.099,0.033l-0.099,0.033l-0.097,0.033l-0.098,0.035l-0.097,0.035l-0.095,0.035l-0.095,0.037l-0.095,0.037l-0.095,0.037l-0.093,0.038l-0.094,0.04l-0.092,0.039l-0.091,0.04l-0.091,0.04l-0.091,0.042l-0.09,0.042l-0.09,0.043l-0.088,0.043l-0.088,0.044l-0.088,0.044l-0.086,0.045l-0.087,0.046l-0.086,0.046l-0.085,0.047l-0.085,0.048l-0.084,0.048l-0.084,0.049l-0.082,0.049l-0.083,0.05l-0.082,0.051l-0.081,0.051l-0.081,0.051l-0.079,0.052l-0.08,0.053l-0.08,0.054l-0.078,0.054l-0.078,0.055l-0.077,0.055l-0.077,0.056l-0.076,0.056l-0.076,0.057l-0.075,0.058l-0.075,0.058l-0.075,0.059l-0.073,0.059l-0.073,0.06l-0.073,0.06l-0.072,0.061l-0.071,0.062l-0.071,0.062l-0.071,0.063l-0.07,0.063l-0.07,0.064l-0.069,0.064l-0.068,0.065l-0.069,0.066l-0.067,0.066l-0.067,0.066l-0.066,0.068l-0.066,0.067l-0.065,0.068l-0.066,0.07l-0.065,0.069l-0.063,0.07l-0.064,0.071l-0.063,0.071l-0.062,0.071l-0.063,0.072l-0.061,0.072l-0.061,0.074l-0.061,0.074l-0.06,0.074l-0.06,0.075l-0.058,0.075l-0.059,0.077l-0.059,0.076l-0.057,0.077l-0.057,0.077l-0.057,0.078l-0.056,0.079l-0.056,0.079l-0.055,0.08l-0.055,0.08l-0.054,0.081l-0.054,0.081l-0.054,0.082l-0.053,0.082l-0.053,0.083l-0.052,0.083l-0.051,0.083l-0.051,0.085l-0.051,0.085l-0.05,0.085l-0.05,0.086l-0.049,0.086l-0.049,0.087l-0.048,0.087l-0.048,0.088l-0.047,0.088l-0.048,0.089l-0.046,0.089l-0.046,0.09l-0.046,0.091l-0.045,0.09l-0.044,0.092l-0.045,0.091l-0.043,0.092l-0.044,0.093l-0.042,0.093l-0.043,0.093l-0.042,0.095l-0.041,0.094l-0.041,0.095l-0.041,0.096l-0.04,0.096l-0.04,0.096l-0.039,0.097l-0.039,0.097l-0.038,0.098l-0.038,0.099l-0.038,0.098l-0.036,0.099l-0.037,0.1l-0.036,0.099l-0.036,0.102l-0.035,0.1l-0.035,0.101l-0.034,0.102l-0.034,0.103l-0.034,0.102l-0.033,0.103l-0.032,0.104l-0.033,0.103l-0.031,0.104l-0.031,0.105l-0.031,0.106l-0.031,0.105l-0.029,0.106l-0.03,0.106l-0.029,0.107l-0.029,0.107l-0.028,0.108l-0.028,0.107l-0.027,0.109l-0.027,0.108l-0.027,0.11l-0.026,0.109l-0.025,0.11l-0.026,0.11l-0.025,0.112l-0.024,0.11l-0.024,0.111l-0.024,0.112l-0.023,0.112l-0.022,0.113l-0.023,0.113l-0.022,0.113l-0.021,0.113l-0.021,0.114l-0.021,0.115l-0.02,0.114l-0.02,0.115l-0.019,0.115l-0.019,0.116l-0.019,0.116l-0.017,0.116l-0.018,0.117l-0.017,0.116l-0.017,0.118l-0.017,0.118l-0.016,0.117l-0.015,0.119l-0.016,0.119l-0.015,0.119l-0.014,0.118l-0.014,0.119l-0.014,0.121l-0.013,0.12l-0.013,0.12l-0.012,0.121l-0.013,0.121l-0.011,0.121l-0.011,0.122l-0.011,0.122l-0.011,0.122l-0.01,0.123l-0.009,0.122l-0.01,0.123l-0.009,0.123l-0.008,0.124l-0.008,0.124l-0.008,0.123l-0.007,0.124l-0.007,0.126l-0.007,0.125l-0.006,0.124l-0.006,0.126l-0.005,0.125l-0.005,0.126l-0.005,0.126l-0.004,0.127l-0.004,0.126l-0.003,0.126l-0.003,0.128l-0.003,0.128l-0.003,0.126l-0.002,0.129l-0.001,0.128l-0.002,0.128l-0.001,0.128l0,0.129l0,0.128l0,0.259l0.002,0.258l0.003,0.256l0.004,0.256l0.005,0.256l0.007,0.253l0.008,0.253l0.009,0.253l0.01,0.25l0.012,0.25l0.013,0.249l0.014,0.247l0.016,0.247l0.016,0.245l0.019,0.245l0.01,0.122l0.01,0.121l0.01,0.121l0.011,0.121l0.011,0.12l0.011,0.121l0.012,0.12l0.012,0.118l0.013,0.119l0.013,0.12l0.013,0.119l0.013,0.117l0.014,0.118l0.015,0.119l0.014,0.117l0.015,0.116l0.016,0.117l0.016,0.116l0.016,0.116l0.017,0.116l0.017,0.115l0.017,0.115l0.018,0.114l0.018,0.114l0.019,0.114l0.019,0.114l0.019,0.113l0.019,0.112l0.021,0.113l0.02,0.112l0.021,0.111l0.021,0.111l0.022,0.111l0.022,0.11l0.023,0.111l0.023,0.109l0.023,0.11l0.024,0.109l0.024,0.108l0.025,0.107l0.025,0.108l0.025,0.108l0.026,0.107l0.026,0.106l0.027,0.106l0.027,0.105l0.028,0.106l0.028,0.105l0.028,0.103l0.029,0.104l0.029,0.105l0.03,0.103l0.03,0.101l0.031,0.103l0.031,0.102l0.031,0.101l0.032,0.1l0.032,0.101l0.033,0.1l0.034,0.1l0.033,0.099l0.034,0.098l0.035,0.098l0.035,0.098l0.035,0.097l0.036,0.097l0.036,0.096l0.037,0.096l0.038,0.095l0.038,0.096l0.037,0.093l0.039,0.095l0.039,0.093l0.04,0.093l0.04,0.093l0.041,0.092l0.04,0.091l0.042,0.09l0.042,0.091l0.042,0.09l0.043,0.09l0.044,0.089l0.044,0.089l0.044,0.088l0.044,0.087l0.046,0.087l0.046,0.087l0.046,0.085l0.047,0.086l0.047,0.085l0.047,0.084l0.049,0.084l0.049,0.084l0.049,0.082l0.05,0.083l0.049,0.081l0.052,0.082l0.051,0.081l0.051,0.08l0.052,0.08l0.053,0.078l0.053,0.08l0.055,0.078l0.054,0.078l0.054,0.077l0.055,0.076l0.056,0.076l0.056,0.075l0.058,0.076l0.057,0.075l0.058,0.073l0.058,0.073l0.059,0.073l0.059,0.072l0.061,0.072l0.06,0.072l0.061,0.07l0.062,0.071l0.062,0.069l0.062,0.068l0.064,0.069l0.064,0.068l0.065,0.068l0.064,0.067l0.066,0.066l0.066,0.066l0.066,0.064l0.068,0.065l0.067,0.064l0.068,0.063l0.07,0.064l0.069,0.062l0.07,0.061l0.071,0.062l0.072,0.061l0.071,0.06l0.072,0.059l0.074,0.06l0.073,0.058l0.075,0.057l0.074,0.058l0.076,0.056l0.077,0.057l0.076,0.056l0.077,0.054l0.078,0.054l0.079,0.055l0.079,0.053l0.08,0.053l0.081,0.052l0.081,0.051l0.081,0.051l0.084,0.051l0.083,0.05l0.083,0.048l0.085,0.049l0.085,0.048l0.085,0.047l0.088,0.048l0.087,0.046l0.088,0.045l0.089,0.046l0.089,0.044l0.089,0.044l0.092,0.043l0.09,0.042l0.093,0.042l0.093,0.042l0.093,0.041l0.095,0.04l0.095,0.039l0.095,0.039l0.097,0.038l0.098,0.038l0.097,0.037l0.099,0.036l0.1,0.036l0.1,0.035l0.101,0.035l0.102,0.033l0.102,0.033l0.103,0.033l0.104,0.032l0.106,0.031l0.105,0.03l0.106,0.03l0.108,0.029l0.108,0.029l0.108,0.028l0.11,0.027l0.111,0.026l0.11,0.026l0.112,0.025l0.113,0.024l0.114,0.024l0.114,0.023l0.115,0.022l0.116,0.022l0.117,0.02l0.118,0.021l0.119,0.019l0.119,0.019l0.12,0.018l0.121,0.017l0.122,0.016l0.123,0.016l0.123,0.015l0.125,0.015l0.125,0.013l0.126,0.013l0.127,0.012l0.128,0.011l0.128,0.011l0.13,0.01l0.131,0.009l0.131,0.008l0.132,0.008l0.133,0.006l0.134,0.006l0.135,0.005l0.135,0.005l0.137,0.003l0.137,0.003l0.139,0.002l0.139,0.001l0.14,0.001l0.14,-0.001l0.139,-0.001l0.139,-0.002l0.137,-0.003l0.137,-0.003l0.135,-0.005l0.135,-0.005l0.134,-0.006l0.133,-0.006l0.132,-0.008l0.131,-0.008l0.13,-0.009l0.13,-0.01l0.129,-0.011l0.128,-0.011l0.127,-0.012l0.126,-0.013l0.125,-0.013l0.125,-0.015l0.123,-0.015l0.123,-0.016l0.122,-0.016l0.121,-0.017l0.12,-0.018l0.119,-0.019l0.119,-0.019l0.117,-0.021l0.117,-0.02l0.116,-0.022l0.116,-0.022l0.114,-0.023l0.114,-0.024l0.113,-0.024l0.112,-0.025l0.11,-0.026l0.111,-0.026l0.11,-0.027l0.108,-0.028l0.108,-0.029l0.108,-0.029l0.106,-0.03l0.105,-0.03l0.105,-0.031l0.105,-0.032l0.103,-0.033l0.102,-0.033l0.102,-0.034l0.101,-0.034l0.1,-0.035l0.1,-0.036l0.099,-0.036l0.097,-0.037l0.098,-0.038l0.097,-0.038l0.095,-0.039l0.095,-0.039l0.095,-0.04l0.093,-0.041l0.093,-0.041l0.092,-0.043l0.091,-0.042l0.091,-0.043l0.09,-0.044l0.089,-0.045l0.089,-0.045l0.088,-0.045l0.088,-0.047l0.086,-0.046l0.086,-0.048l0.085,-0.048l0.084,-0.048l0.085,-0.05l0.082,-0.049l0.083,-0.051l0.082,-0.051l0.081,-0.051l0.081,-0.053l0.08,-0.052l0.079,-0.053l0.078,-0.054l0.079,-0.055l0.077,-0.055l0.077,-0.055l0.076,-0.056l0.075,-0.057l0.075,-0.058l0.075,-0.057l0.073,-0.059l0.073,-0.059l0.073,-0.059l0.071,-0.06l0.072,-0.061l0.071,-0.062l0.07,-0.061l0.069,-0.062l0.069,-0.063l0.069,-0.064l0.067,-0.064l0.067,-0.064l0.067,-0.066l0.066,-0.065l0.065,-0.066l0.066,-0.068l0.064,-0.067l0.064,-0.067l0.063,-0.069l0.063,-0.07l0.062,-0.069l0.062,-0.07l0.061,-0.07l0.06,-0.072l0.06,-0.071l0.059,-0.072l0.06,-0.074l0.058,-0.073l0.058,-0.074l0.057,-0.074l0.057,-0.075l0.056,-0.075l0.056,-0.077l0.056,-0.077l0.054,-0.076l0.054,-0.078l0.054,-0.078l0.054,-0.079l0.052,-0.079l0.052,-0.08l0.052,-0.08l0.051,-0.081l0.051,-0.082l0.051,-0.082l0.049,-0.081l0.049,-0.083l0.049,-0.084l0.048,-0.084l0.048,-0.085l0.047,-0.084l0.047,-0.085l0.046,-0.086l0.046,-0.087l0.045,-0.087l0.045,-0.088l0.044,-0.087l0.044,-0.089l0.044,-0.089l0.043,-0.09l0.042,-0.089l0.042,-0.091l0.042,-0.092l0.04,-0.09l0.041,-0.092l0.04,-0.093l0.04,-0.093l0.039,-0.093l0.038,-0.095l0.039,-0.094l0.037,-0.094l0.038,-0.096l0.037,-0.096l0.036,-0.096l0.036,-0.097l0.035,-0.097l0.036,-0.098l0.034,-0.097l0.034,-0.099l0.034,-0.1l0.033,-0.099l0.033,-0.1l0.032,-0.1l0.032,-0.1l0.031,-0.103l0.031,-0.101l0.031,-0.102l0.03,-0.103l0.03,-0.103l0.029,-0.103l0.029,-0.104l0.028,-0.105l0.028,-0.105l0.028,-0.105l0.027,-0.105l0.026,-0.105l0.027,-0.107l0.026,-0.108l0.025,-0.107l0.025,-0.107l0.025,-0.108l0.024,-0.109l0.024,-0.108l0.023,-0.109l0.023,-0.11l0.023,-0.111l0.022,-0.109l0.021,-0.112l0.022,-0.111l0.021,-0.112l0.02,-0.111l0.02,-0.112l0.02,-0.114l0.019,-0.113l0.019,-0.113l0.019,-0.113l0.018,-0.114l0.018,-0.116l0.017,-0.115l0.017,-0.114l0.017,-0.116l0.016,-0.116l0.016,-0.115l0.015,-0.117l0.015,-0.118l0.015,-0.117l0.014,-0.117l0.014,-0.118l0.014,-0.119l0.013,-0.119l0.013,-0.118l0.013,-0.119l0.012,-0.12l0.012,-0.12l0.011,-0.119l0.011,-0.121l0.011,-0.121l0.01,-0.121l0.01,-0.122l0.01,-0.12l0.018,-0.246l0.017,-0.245l0.016,-0.247l0.014,-0.248l0.013,-0.248l0.012,-0.25l0.01,-0.251l0.009,-0.252l0.008,-0.253l0.007,-0.254l0.005,-0.254l0.004,-0.256l0.003,-0.257l0.002,-0.258l0,-0.259l0,-0.128l-0.001,-0.129l0,-0.129l-0.002,-0.127l-0.001,-0.128l-0.002,-0.128l-0.003,-0.127l-0.003,-0.128l-0.003,-0.127l-0.003,-0.127l-0.004,-0.126l-0.005,-0.128l-0.004,-0.125l-0.005,-0.125l-0.006,-0.126l-0.005,-0.126l-0.007,-0.125l-0.006,-0.125l-0.007,-0.124l-0.007,-0.124l-0.008,-0.125l-0.008,-0.123l-0.009,-0.124l-0.008,-0.123l-0.01,-0.123l-0.01,-0.123l-0.009,-0.122l-0.011,-0.122l-0.011,-0.122l-0.011,-0.121l-0.012,-0.123l-0.012,-0.12l-0.012,-0.12l-0.013,-0.122l-0.013,-0.12l-0.014,-0.119l-0.014,-0.12l-0.014,-0.119l-0.015,-0.118l-0.016,-0.119l-0.015,-0.118l-0.016,-0.118l-0.017,-0.118l-0.017,-0.117l-0.017,-0.118l-0.018,-0.116l-0.018,-0.116l-0.018,-0.116l-0.019,-0.116l-0.019,-0.115l-0.02,-0.114l-0.021,-0.116l-0.02,-0.114l-0.021,-0.113l-0.022,-0.114l-0.022,-0.114l-0.022,-0.113l-0.022,-0.112l-0.023,-0.112l-0.024,-0.111l-0.024,-0.112l-0.025,-0.111l-0.024,-0.111l-0.025,-0.109l-0.026,-0.111l-0.026,-0.11l-0.027,-0.109l-0.027,-0.108l-0.027,-0.108l-0.028,-0.108l-0.028,-0.108l-0.029,-0.107l-0.029,-0.107l-0.029,-0.106l-0.031,-0.106l-0.03,-0.105l-0.031,-0.105l-0.031,-0.106l-0.032,-0.104l-0.032,-0.104l-0.032,-0.102l-0.034,-0.104l-0.033,-0.103l-0.034,-0.102l-0.034,-0.102l-0.035,-0.101l-0.035,-0.1l-0.036,-0.101l-0.036,-0.1l-0.037,-0.1l-0.037,-0.099l-0.037,-0.099l-0.038,-0.098l-0.038,-0.098l-0.039,-0.097l-0.039,-0.097l-0.04,-0.096l-0.04,-0.096l-0.041,-0.095l-0.041,-0.096l-0.041,-0.094l-0.042,-0.094l-0.043,-0.094l-0.043,-0.093l-0.043,-0.093l-0.044,-0.092l-0.044,-0.091l-0.044,-0.092l-0.046,-0.09l-0.046,-0.092l-0.045,-0.089l-0.047,-0.089l-0.047,-0.089l-0.047,-0.088l-0.048,-0.089l-0.048,-0.086l-0.049,-0.087l-0.049,-0.086l-0.05,-0.085l-0.05,-0.086l-0.051,-0.085l-0.051,-0.084l-0.052,-0.085l-0.052,-0.083l-0.052,-0.082l-0.053,-0.082l-0.054,-0.082l-0.054,-0.081l-0.054,-0.081l-0.054,-0.08l-0.056,-0.08l-0.056,-0.08l-0.056,-0.078l-0.057,-0.077l-0.057,-0.078l-0.058,-0.078l-0.058,-0.075l-0.058,-0.076l-0.06,-0.076l-0.06,-0.075l-0.059,-0.074l-0.061,-0.073l-0.061,-0.074l-0.062,-0.073l-0.062,-0.072l-0.063,-0.072l-0.062,-0.07l-0.064,-0.071l-0.064,-0.07l-0.065,-0.07l-0.064,-0.068l-0.066,-0.069l-0.066,-0.067l-0.066,-0.067l-0.067,-0.067l-0.068,-0.066l-0.068,-0.066l-0.069,-0.065l-0.069,-0.065l-0.068,-0.063l-0.071,-0.063l-0.071,-0.063l-0.07,-0.062l-0.072,-0.062l-0.073,-0.061l-0.072,-0.06l-0.073,-0.06l-0.074,-0.059l-0.074,-0.059l-0.075,-0.058l-0.075,-0.058l-0.075,-0.056l-0.077,-0.057l-0.077,-0.056l-0.077,-0.055l-0.078,-0.055l-0.079,-0.054l-0.079,-0.054l-0.079,-0.052l-0.08,-0.052l-0.081,-0.052l-0.082,-0.052l-0.082,-0.05l-0.081,-0.05l-0.084,-0.049l-0.083,-0.049l-0.084,-0.048l-0.085,-0.048l-0.085,-0.047l-0.086,-0.046l-0.087,-0.046l-0.086,-0.045l-0.088,-0.044l-0.088,-0.044l-0.089,-0.043l-0.089,-0.043l-0.09,-0.042l-0.091,-0.041l-0.091,-0.041l-0.092,-0.04l-0.092,-0.04l-0.093,-0.039l-0.093,-0.038l-0.095,-0.037l-0.094,-0.037l-0.096,-0.037l-0.096,-0.035l-0.097,-0.035l-0.097,-0.035l-0.097,-0.033l-0.099,-0.033l-0.1,-0.033l-0.099,-0.031l-0.101,-0.032l-0.101,-0.03l-0.102,-0.03l-0.102,-0.029l-0.103,-0.028l-0.104,-0.028l-0.104,-0.027l-0.105,-0.026l-0.106,-0.026l-0.106,-0.025l-0.107,-0.024l-0.108,-0.024l-0.108,-0.022l-0.109,-0.023l-0.11,-0.021l-0.111,-0.021l-0.111,-0.02l-0.111,-0.019l-0.113,-0.019l-0.113,-0.018l-0.114,-0.017l-0.114,-0.016l-0.115,-0.016l-0.116,-0.015l-0.117,-0.014l-0.117,-0.014l-0.118,-0.012l-0.118,-0.012l-0.12,-0.012l-0.12,-0.01l-0.121,-0.01l-0.121,-0.009l-0.122,-0.008l-0.123,-0.008l-0.124,-0.006l-0.124,-0.006l-0.125,-0.005l-0.126,-0.005l-0.126,-0.003l-0.127,-0.003l-0.128,-0.002l-0.129,-0.001l-0.129,-0.001l-0.129,0.001Z" style="fill:#ac8639;"/><path d="M15.725,34.155c-1.095,2.687 -1.193,5.109 0,7.188" style="fill:none;stroke:#ac8639;stroke-width:1.85px;"/><g id="lips"><path d="M30.082,32.365c-0.243,0.028 -1.263,0.077 -1.443,0.079c-1.484,0.018 -2.292,-0.298 -2.516,-0.589c-0.136,-0.177 5.528,-0.41 5.701,-0.31c0.303,0.177 -0.369,0.665 -1.742,0.82Z" style="fill:#b63e36;"/><path d="M29.31,30.82c0.078,0 0.18,-0.244 0.682,-0.223c1.482,0.062 2.077,0.39 2.077,0.757c0,0.263 -3.237,0.449 -5.262,0.362c-1.141,-0.049 -1.353,-0.195 -1.204,-0.195c0.206,0 0.552,-0.144 0.885,-0.284c0.584,-0.246 1.18,-0.588 2.058,-0.64c0.55,-0.032 0.686,0.223 0.764,0.223Z" style="fill:#b63e36;"/></g></g><path id="beret" d="M21.935,6.766c-0.624,-0.634 -1.458,-1.671 -0.486,-1.874c0.997,-0.209 1.744,0.999 2.026,1.77c5.147,-0.264 10.315,0.296 11.979,1.964c2.529,2.534 0,4.006 0,4.303c0,2.378 -21.163,1.852 -21.163,1.852c0,0 -5.881,-1.914 -2.646,-5.159c1.451,-1.455 5.721,-2.475 10.29,-2.856Z" style="fill:#302a1c;"/></g></g><path d="M25.162,0.001l0.161,0.001l0.161,0.003l0.161,0.003l0.16,0.005l0.161,0.005l0.16,0.007l0.16,0.008l0.159,0.008l0.16,0.01l0.159,0.01l0.158,0.012l0.159,0.013l0.158,0.013l0.158,0.015l0.158,0.015l0.157,0.017l0.157,0.017l0.157,0.019l0.156,0.019l0.156,0.02l0.156,0.022l0.156,0.022l0.155,0.023l0.155,0.024l0.155,0.026l0.154,0.026l0.154,0.027l0.154,0.028l0.153,0.029l0.153,0.03l0.153,0.03l0.152,0.032l0.152,0.033l0.152,0.033l0.151,0.035l0.151,0.035l0.151,0.036l0.15,0.038l0.15,0.038l0.149,0.039l0.15,0.04l0.148,0.04l0.149,0.042l0.148,0.043l0.148,0.043l0.147,0.044l0.147,0.046l0.146,0.046l0.147,0.047l0.145,0.048l0.146,0.048l0.145,0.05l0.144,0.051l0.144,0.051l0.144,0.052l0.143,0.053l0.143,0.054l0.143,0.055l0.142,0.055l0.142,0.057l0.141,0.057l0.141,0.058l0.14,0.059l0.14,0.06l0.14,0.06l0.139,0.062l0.138,0.062l0.139,0.063l0.137,0.064l0.138,0.064l0.137,0.066l0.136,0.066l0.136,0.067l0.135,0.068l0.135,0.069l0.135,0.069l0.134,0.07l0.133,0.071l0.133,0.072l0.133,0.073l0.132,0.073l0.132,0.074l0.131,0.075l0.13,0.076l0.131,0.076l0.129,0.078l0.129,0.077l0.129,0.079l0.128,0.08l0.128,0.08l0.127,0.081l0.126,0.082l0.126,0.082l0.126,0.083l0.125,0.084l0.124,0.085l0.124,0.085l0.123,0.086l0.123,0.087l0.122,0.087l0.122,0.089l0.121,0.089l0.121,0.089l0.12,0.091l0.119,0.091l0.119,0.092l0.119,0.092l0.118,0.093l0.117,0.094l0.116,0.095l0.116,0.095l0.116,0.096l0.115,0.096l0.114,0.098l0.114,0.097l0.113,0.099l0.113,0.099l0.111,0.1l0.112,0.101l0.11,0.101l0.111,0.102l0.109,0.102l0.109,0.104l0.108,0.103l0.108,0.105l0.107,0.105l0.106,0.106l0.106,0.106l0.105,0.107l0.105,0.108l0.103,0.108l0.104,0.109l0.102,0.109l0.102,0.111l0.101,0.11l0.101,0.112l0.1,0.111l0.099,0.113l0.099,0.113l0.097,0.114l0.098,0.114l0.096,0.115l0.096,0.116l0.095,0.116l0.095,0.116l0.094,0.117l0.093,0.118l0.092,0.119l0.092,0.119l0.091,0.119l0.091,0.12l0.089,0.121l0.089,0.121l0.089,0.122l0.087,0.122l0.087,0.123l0.086,0.123l0.085,0.124l0.085,0.124l0.084,0.125l0.083,0.126l0.082,0.126l0.082,0.126l0.081,0.127l0.08,0.128l0.08,0.128l0.079,0.129l0.077,0.129l0.078,0.129l0.076,0.131l0.076,0.13l0.075,0.131l0.074,0.132l0.073,0.132l0.073,0.133l0.072,0.133l0.071,0.133l0.07,0.134l0.069,0.135l0.069,0.135l0.068,0.135l0.067,0.136l0.066,0.136l0.066,0.137l0.064,0.138l0.064,0.137l0.063,0.139l0.062,0.138l0.062,0.139l0.06,0.14l0.06,0.14l0.059,0.14l0.058,0.141l0.057,0.141l0.057,0.142l0.055,0.142l0.055,0.143l0.054,0.143l0.053,0.143l0.052,0.144l0.051,0.144l0.051,0.144l0.05,0.145l0.048,0.146l0.048,0.145l0.047,0.147l0.046,0.146l0.046,0.147l0.044,0.147l0.043,0.148l0.043,0.148l0.042,0.149l0.04,0.148l0.04,0.15l0.039,0.149l0.038,0.15l0.038,0.15l0.036,0.151l0.035,0.151l0.035,0.151l0.033,0.152l0.033,0.152l0.032,0.152l0.03,0.153l0.03,0.153l0.029,0.153l0.028,0.154l0.027,0.154l0.026,0.154l0.026,0.155l0.024,0.155l0.023,0.155l0.022,0.156l0.022,0.156l0.02,0.156l0.019,0.156l0.019,0.157l0.017,0.157l0.017,0.157l0.015,0.158l0.015,0.158l0.013,0.158l0.013,0.159l0.012,0.158l0.01,0.159l0.01,0.16l0.008,0.159l0.008,0.16l0.007,0.16l0.005,0.161l0.005,0.16l0.003,0.161l0.003,0.161l0.001,0.161l0.001,0.162l-0.001,0.162l-0.001,0.161l-0.003,0.161l-0.003,0.161l-0.005,0.16l-0.005,0.161l-0.007,0.16l-0.008,0.16l-0.008,0.159l-0.01,0.16l-0.01,0.159l-0.012,0.158l-0.013,0.159l-0.013,0.158l-0.015,0.158l-0.015,0.158l-0.017,0.157l-0.017,0.157l-0.019,0.157l-0.019,0.156l-0.02,0.156l-0.022,0.156l-0.022,0.156l-0.023,0.155l-0.024,0.155l-0.026,0.155l-0.026,0.154l-0.027,0.154l-0.028,0.154l-0.029,0.153l-0.03,0.153l-0.03,0.153l-0.032,0.152l-0.033,0.152l-0.033,0.152l-0.035,0.151l-0.035,0.151l-0.036,0.151l-0.038,0.15l-0.038,0.15l-0.039,0.149l-0.04,0.15l-0.04,0.148l-0.042,0.149l-0.043,0.148l-0.043,0.148l-0.044,0.147l-0.046,0.147l-0.046,0.146l-0.047,0.147l-0.048,0.145l-0.048,0.146l-0.05,0.145l-0.051,0.144l-0.051,0.144l-0.052,0.144l-0.053,0.143l-0.054,0.143l-0.055,0.143l-0.055,0.142l-0.057,0.142l-0.057,0.141l-0.058,0.141l-0.059,0.14l-0.06,0.14l-0.06,0.14l-0.062,0.139l-0.062,0.138l-0.063,0.139l-0.064,0.137l-0.064,0.138l-0.066,0.137l-0.066,0.136l-0.067,0.136l-0.068,0.135l-0.069,0.135l-0.069,0.135l-0.07,0.134l-0.071,0.133l-0.072,0.133l-0.073,0.133l-0.073,0.132l-0.074,0.132l-0.075,0.131l-0.076,0.13l-0.076,0.131l-0.078,0.129l-0.077,0.129l-0.079,0.129l-0.08,0.128l-0.08,0.128l-0.081,0.127l-0.082,0.126l-0.082,0.126l-0.083,0.126l-0.084,0.125l-0.085,0.124l-0.085,0.124l-0.086,0.123l-0.087,0.123l-0.087,0.122l-0.089,0.122l-0.089,0.121l-0.089,0.121l-0.091,0.12l-0.091,0.119l-0.092,0.119l-0.092,0.119l-0.093,0.118l-0.094,0.117l-0.095,0.116l-0.095,0.116l-0.096,0.116l-0.096,0.115l-0.098,0.114l-0.097,0.114l-0.099,0.113l-0.099,0.113l-0.1,0.111l-0.101,0.112l-0.101,0.11l-0.102,0.111l-0.102,0.109l-0.104,0.109l-0.103,0.108l-0.105,0.108l-0.105,0.107l-0.106,0.106l-0.106,0.106l-0.107,0.105l-0.108,0.105l-0.108,0.103l-0.109,0.104l-0.109,0.102l-0.111,0.102l-0.11,0.101l-0.112,0.101l-0.111,0.1l-0.113,0.099l-0.113,0.099l-0.114,0.097l-0.114,0.098l-0.115,0.096l-0.116,0.096l-0.116,0.095l-0.116,0.095l-0.117,0.094l-0.118,0.093l-0.119,0.092l-0.119,0.092l-0.119,0.091l-0.12,0.091l-0.121,0.089l-0.121,0.089l-0.122,0.089l-0.122,0.087l-0.123,0.087l-0.123,0.086l-0.124,0.085l-0.124,0.085l-0.125,0.084l-0.126,0.083l-0.126,0.082l-0.126,0.082l-0.127,0.081l-0.128,0.08l-0.128,0.08l-0.129,0.079l-0.129,0.077l-0.129,0.078l-0.131,0.076l-0.13,0.076l-0.131,0.075l-0.132,0.074l-0.132,0.073l-0.133,0.073l-0.133,0.072l-0.133,0.071l-0.134,0.07l-0.135,0.069l-0.135,0.069l-0.135,0.068l-0.136,0.067l-0.136,0.066l-0.137,0.066l-0.138,0.064l-0.137,0.064l-0.139,0.063l-0.138,0.062l-0.139,0.062l-0.14,0.06l-0.14,0.06l-0.14,0.059l-0.141,0.058l-0.141,0.057l-0.142,0.057l-0.142,0.055l-0.143,0.055l-0.143,0.054l-0.143,0.053l-0.144,0.052l-0.144,0.051l-0.144,0.051l-0.145,0.05l-0.146,0.048l-0.145,0.048l-0.147,0.047l-0.146,0.046l-0.147,0.046l-0.147,0.044l-0.148,0.043l-0.148,0.043l-0.149,0.042l-0.148,0.04l-0.15,0.04l-0.149,0.039l-0.15,0.038l-0.15,0.038l-0.151,0.036l-0.151,0.035l-0.151,0.035l-0.152,0.033l-0.152,0.033l-0.152,0.032l-0.153,0.03l-0.153,0.03l-0.153,0.029l-0.154,0.028l-0.154,0.027l-0.154,0.026l-0.155,0.026l-0.155,0.024l-0.155,0.023l-0.156,0.022l-0.156,0.022l-0.156,0.02l-0.156,0.019l-0.157,0.019l-0.157,0.017l-0.157,0.017l-0.158,0.015l-0.158,0.015l-0.158,0.013l-0.159,0.013l-0.158,0.012l-0.159,0.01l-0.16,0.01l-0.159,0.008l-0.16,0.008l-0.16,0.007l-0.161,0.005l-0.16,0.005l-0.161,0.003l-0.161,0.003l-0.161,0.001l-0.162,0.001l-0.162,-0.001l-0.161,-0.001l-0.161,-0.003l-0.161,-0.003l-0.16,-0.005l-0.161,-0.005l-0.16,-0.007l-0.16,-0.008l-0.159,-0.008l-0.16,-0.01l-0.159,-0.01l-0.158,-0.012l-0.159,-0.013l-0.158,-0.013l-0.158,-0.015l-0.158,-0.015l-0.157,-0.017l-0.157,-0.017l-0.157,-0.019l-0.156,-0.019l-0.156,-0.02l-0.156,-0.022l-0.156,-0.022l-0.155,-0.023l-0.155,-0.024l-0.155,-0.026l-0.154,-0.026l-0.154,-0.027l-0.154,-0.028l-0.153,-0.029l-0.153,-0.03l-0.153,-0.03l-0.152,-0.032l-0.152,-0.033l-0.152,-0.033l-0.151,-0.035l-0.151,-0.035l-0.151,-0.036l-0.15,-0.038l-0.15,-0.038l-0.149,-0.039l-0.15,-0.04l-0.148,-0.04l-0.149,-0.042l-0.148,-0.043l-0.148,-0.043l-0.147,-0.044l-0.147,-0.046l-0.146,-0.046l-0.147,-0.047l-0.145,-0.048l-0.146,-0.048l-0.145,-0.05l-0.144,-0.051l-0.144,-0.051l-0.144,-0.052l-0.143,-0.053l-0.143,-0.054l-0.143,-0.055l-0.142,-0.055l-0.142,-0.057l-0.141,-0.057l-0.141,-0.058l-0.14,-0.059l-0.14,-0.06l-0.14,-0.06l-0.139,-0.062l-0.138,-0.062l-0.139,-0.063l-0.137,-0.064l-0.138,-0.064l-0.137,-0.066l-0.136,-0.066l-0.136,-0.067l-0.135,-0.068l-0.135,-0.069l-0.135,-0.069l-0.134,-0.07l-0.133,-0.071l-0.133,-0.072l-0.133,-0.073l-0.132,-0.073l-0.132,-0.074l-0.131,-0.075l-0.13,-0.076l-0.131,-0.076l-0.129,-0.078l-0.129,-0.077l-0.129,-0.079l-0.128,-0.08l-0.128,-0.08l-0.127,-0.081l-0.126,-0.082l-0.126,-0.082l-0.126,-0.083l-0.125,-0.084l-0.124,-0.085l-0.124,-0.085l-0.123,-0.086l-0.123,-0.087l-0.122,-0.087l-0.122,-0.089l-0.121,-0.089l-0.121,-0.089l-0.12,-0.091l-0.119,-0.091l-0.119,-0.092l-0.119,-0.092l-0.118,-0.093l-0.117,-0.094l-0.116,-0.095l-0.116,-0.095l-0.116,-0.096l-0.115,-0.096l-0.114,-0.098l-0.114,-0.097l-0.113,-0.099l-0.113,-0.099l-0.111,-0.1l-0.112,-0.101l-0.11,-0.101l-0.111,-0.102l-0.109,-0.102l-0.109,-0.104l-0.108,-0.103l-0.108,-0.105l-0.107,-0.105l-0.106,-0.106l-0.106,-0.106l-0.105,-0.107l-0.105,-0.108l-0.103,-0.108l-0.104,-0.109l-0.102,-0.109l-0.102,-0.111l-0.101,-0.11l-0.101,-0.112l-0.1,-0.111l-0.099,-0.113l-0.099,-0.113l-0.097,-0.114l-0.098,-0.114l-0.096,-0.115l-0.096,-0.116l-0.095,-0.116l-0.095,-0.116l-0.094,-0.117l-0.093,-0.118l-0.092,-0.119l-0.092,-0.119l-0.091,-0.119l-0.091,-0.12l-0.089,-0.121l-0.089,-0.121l-0.089,-0.122l-0.087,-0.122l-0.087,-0.123l-0.086,-0.123l-0.085,-0.124l-0.085,-0.124l-0.084,-0.125l-0.083,-0.126l-0.082,-0.126l-0.082,-0.126l-0.081,-0.127l-0.08,-0.128l-0.08,-0.128l-0.079,-0.129l-0.077,-0.129l-0.078,-0.129l-0.076,-0.131l-0.076,-0.13l-0.075,-0.131l-0.074,-0.132l-0.073,-0.132l-0.073,-0.133l-0.072,-0.133l-0.071,-0.133l-0.07,-0.134l-0.069,-0.135l-0.069,-0.135l-0.068,-0.135l-0.067,-0.136l-0.066,-0.136l-0.066,-0.137l-0.064,-0.138l-0.064,-0.137l-0.063,-0.139l-0.062,-0.138l-0.062,-0.139l-0.06,-0.14l-0.06,-0.14l-0.059,-0.14l-0.058,-0.141l-0.057,-0.141l-0.057,-0.142l-0.055,-0.142l-0.055,-0.143l-0.054,-0.143l-0.053,-0.143l-0.052,-0.144l-0.051,-0.144l-0.051,-0.144l-0.05,-0.145l-0.048,-0.146l-0.048,-0.145l-0.047,-0.147l-0.046,-0.146l-0.046,-0.147l-0.044,-0.147l-0.043,-0.148l-0.043,-0.148l-0.042,-0.149l-0.04,-0.148l-0.04,-0.15l-0.039,-0.149l-0.038,-0.15l-0.038,-0.15l-0.036,-0.151l-0.035,-0.151l-0.035,-0.151l-0.033,-0.152l-0.033,-0.152l-0.032,-0.152l-0.03,-0.153l-0.03,-0.153l-0.029,-0.153l-0.028,-0.154l-0.027,-0.154l-0.026,-0.154l-0.026,-0.155l-0.024,-0.155l-0.023,-0.155l-0.022,-0.156l-0.022,-0.156l-0.02,-0.156l-0.019,-0.156l-0.019,-0.157l-0.017,-0.157l-0.017,-0.157l-0.015,-0.158l-0.015,-0.158l-0.013,-0.158l-0.013,-0.159l-0.012,-0.158l-0.01,-0.159l-0.01,-0.16l-0.008,-0.159l-0.008,-0.16l-0.007,-0.16l-0.005,-0.161l-0.005,-0.16l-0.003,-0.161l-0.003,-0.161l-0.001,-0.161l-0.001,-0.162l0.001,-0.162l0.001,-0.161l0.003,-0.161l0.003,-0.161l0.005,-0.16l0.005,-0.161l0.007,-0.16l0.008,-0.16l0.008,-0.159l0.01,-0.16l0.01,-0.159l0.012,-0.158l0.013,-0.159l0.013,-0.158l0.015,-0.158l0.015,-0.158l0.017,-0.157l0.017,-0.157l0.019,-0.157l0.019,-0.156l0.02,-0.156l0.022,-0.156l0.022,-0.156l0.023,-0.155l0.024,-0.155l0.026,-0.155l0.026,-0.154l0.027,-0.154l0.028,-0.154l0.029,-0.153l0.03,-0.153l0.03,-0.153l0.032,-0.152l0.033,-0.152l0.033,-0.152l0.035,-0.151l0.035,-0.151l0.036,-0.151l0.038,-0.15l0.038,-0.15l0.039,-0.149l0.04,-0.15l0.04,-0.148l0.042,-0.149l0.043,-0.148l0.043,-0.148l0.044,-0.147l0.046,-0.147l0.046,-0.146l0.047,-0.147l0.048,-0.145l0.048,-0.146l0.05,-0.145l0.051,-0.144l0.051,-0.144l0.052,-0.144l0.053,-0.143l0.054,-0.143l0.055,-0.143l0.055,-0.142l0.057,-0.142l0.057,-0.141l0.058,-0.141l0.059,-0.14l0.06,-0.14l0.06,-0.14l0.062,-0.139l0.062,-0.138l0.063,-0.139l0.064,-0.137l0.064,-0.138l0.066,-0.137l0.066,-0.136l0.067,-0.136l0.068,-0.135l0.069,-0.135l0.069,-0.135l0.07,-0.134l0.071,-0.133l0.072,-0.133l0.073,-0.133l0.073,-0.132l0.074,-0.132l0.075,-0.131l0.076,-0.13l0.076,-0.131l0.078,-0.129l0.077,-0.129l0.079,-0.129l0.08,-0.128l0.08,-0.128l0.081,-0.127l0.082,-0.126l0.082,-0.126l0.083,-0.126l0.084,-0.125l0.085,-0.124l0.085,-0.124l0.086,-0.123l0.087,-0.123l0.087,-0.122l0.089,-0.122l0.089,-0.121l0.089,-0.121l0.091,-0.12l0.091,-0.119l0.092,-0.119l0.092,-0.119l0.093,-0.118l0.094,-0.117l0.095,-0.116l0.095,-0.116l0.096,-0.116l0.096,-0.115l0.098,-0.114l0.097,-0.114l0.099,-0.113l0.099,-0.113l0.1,-0.111l0.101,-0.112l0.101,-0.11l0.102,-0.111l0.102,-0.109l0.104,-0.109l0.103,-0.108l0.105,-0.108l0.105,-0.107l0.106,-0.106l0.106,-0.106l0.107,-0.105l0.108,-0.105l0.108,-0.103l0.109,-0.104l0.109,-0.102l0.111,-0.102l0.11,-0.101l0.112,-0.101l0.111,-0.1l0.113,-0.099l0.113,-0.099l0.114,-0.097l0.114,-0.098l0.115,-0.096l0.116,-0.096l0.116,-0.095l0.116,-0.095l0.117,-0.094l0.118,-0.093l0.119,-0.092l0.119,-0.092l0.119,-0.091l0.12,-0.091l0.121,-0.089l0.121,-0.089l0.122,-0.089l0.122,-0.087l0.123,-0.087l0.123,-0.086l0.124,-0.085l0.124,-0.085l0.125,-0.084l0.126,-0.083l0.126,-0.082l0.126,-0.082l0.127,-0.081l0.128,-0.08l0.128,-0.08l0.129,-0.079l0.129,-0.077l0.129,-0.078l0.131,-0.076l0.13,-0.076l0.131,-0.075l0.132,-0.074l0.132,-0.073l0.133,-0.073l0.133,-0.072l0.133,-0.071l0.134,-0.07l0.135,-0.069l0.135,-0.069l0.135,-0.068l0.136,-0.067l0.136,-0.066l0.137,-0.066l0.138,-0.064l0.137,-0.064l0.139,-0.063l0.138,-0.062l0.139,-0.062l0.14,-0.06l0.14,-0.06l0.14,-0.059l0.141,-0.058l0.141,-0.057l0.142,-0.057l0.142,-0.055l0.143,-0.055l0.143,-0.054l0.143,-0.053l0.144,-0.052l0.144,-0.051l0.144,-0.051l0.145,-0.05l0.146,-0.048l0.145,-0.048l0.147,-0.047l0.146,-0.046l0.147,-0.046l0.147,-0.044l0.148,-0.043l0.148,-0.043l0.149,-0.042l0.148,-0.04l0.15,-0.04l0.149,-0.039l0.15,-0.038l0.15,-0.038l0.151,-0.036l0.151,-0.035l0.151,-0.035l0.152,-0.033l0.152,-0.033l0.152,-0.032l0.153,-0.03l0.153,-0.03l0.153,-0.029l0.154,-0.028l0.154,-0.027l0.154,-0.026l0.155,-0.026l0.155,-0.024l0.155,-0.023l0.156,-0.022l0.156,-0.022l0.156,-0.02l0.156,-0.019l0.157,-0.019l0.157,-0.017l0.157,-0.017l0.158,-0.015l0.158,-0.015l0.158,-0.013l0.159,-0.013l0.158,-0.012l0.159,-0.01l0.16,-0.01l0.159,-0.008l0.16,-0.008l0.16,-0.007l0.161,-0.005l0.16,-0.005l0.161,-0.003l0.161,-0.003l0.161,-0.001l0.162,-0.001l0.162,0.001Zm-0.305,3l-0.142,0.001l-0.142,0.002l-0.142,0.003l-0.141,0.004l-0.142,0.005l-0.141,0.006l-0.14,0.007l-0.141,0.007l-0.141,0.009l-0.139,0.009l-0.14,0.01l-0.141,0.011l-0.138,0.012l-0.139,0.013l-0.139,0.014l-0.138,0.014l-0.139,0.016l-0.137,0.016l-0.138,0.017l-0.138,0.018l-0.138,0.019l-0.136,0.019l-0.136,0.021l-0.137,0.021l-0.136,0.022l-0.136,0.023l-0.135,0.024l-0.135,0.025l-0.135,0.025l-0.134,0.026l-0.134,0.027l-0.134,0.028l-0.134,0.029l-0.134,0.029l-0.133,0.031l-0.132,0.031l-0.133,0.032l-0.132,0.032l-0.131,0.034l-0.132,0.034l-0.132,0.035l-0.131,0.036l-0.129,0.037l-0.13,0.037l-0.13,0.038l-0.13,0.04l-0.13,0.04l-0.127,0.039l-0.129,0.042l-0.129,0.042l-0.127,0.043l-0.127,0.043l-0.128,0.045l-0.127,0.045l-0.126,0.046l-0.126,0.047l-0.125,0.047l-0.126,0.048l-0.125,0.049l-0.124,0.049l-0.124,0.051l-0.124,0.051l-0.124,0.052l-0.123,0.052l-0.123,0.054l-0.122,0.054l-0.121,0.054l-0.122,0.056l-0.122,0.056l-0.12,0.056l-0.12,0.058l-0.122,0.059l-0.118,0.058l-0.118,0.06l-0.121,0.061l-0.117,0.06l-0.118,0.062l-0.119,0.064l-0.116,0.062l-0.117,0.064l-0.116,0.065l-0.114,0.064l-0.116,0.066l-0.116,0.068l-0.116,0.067l-0.112,0.067l-0.113,0.069l-0.113,0.069l-0.113,0.07l-0.113,0.071l-0.113,0.072l-0.11,0.071l-0.111,0.073l-0.112,0.074l-0.109,0.072l-0.108,0.075l-0.11,0.075l-0.109,0.076l-0.108,0.076l-0.108,0.078l-0.108,0.078l-0.106,0.078l-0.106,0.079l-0.105,0.078l-0.106,0.081l-0.104,0.081l-0.104,0.081l-0.104,0.083l-0.105,0.083l-0.102,0.083l-0.102,0.084l-0.102,0.084l-0.1,0.084l-0.101,0.087l-0.1,0.086l-0.1,0.087l-0.099,0.087l-0.098,0.087l-0.1,0.091l-0.097,0.088l-0.095,0.089l-0.098,0.091l-0.096,0.091l-0.095,0.092l-0.095,0.091l-0.093,0.092l-0.095,0.095l-0.094,0.093l-0.091,0.093l-0.093,0.096l-0.092,0.096l-0.09,0.095l-0.09,0.096l-0.09,0.098l-0.089,0.097l-0.089,0.099l-0.087,0.097l-0.088,0.1l-0.088,0.1l-0.084,0.098l-0.086,0.102l-0.086,0.102l-0.085,0.102l-0.085,0.103l-0.082,0.102l-0.082,0.102l-0.082,0.104l-0.082,0.105l-0.081,0.104l-0.079,0.104l-0.08,0.107l-0.08,0.107l-0.078,0.106l-0.077,0.106l-0.078,0.109l-0.075,0.107l-0.077,0.11l-0.075,0.108l-0.074,0.11l-0.075,0.111l-0.072,0.11l-0.073,0.11l-0.071,0.111l-0.073,0.114l-0.07,0.111l-0.069,0.112l-0.071,0.116l-0.068,0.113l-0.067,0.112l-0.067,0.114l-0.067,0.116l-0.066,0.116l-0.066,0.116l-0.064,0.116l-0.064,0.116l-0.064,0.12l-0.062,0.115l-0.061,0.117l-0.062,0.119l-0.059,0.117l-0.061,0.121l-0.059,0.12l-0.058,0.121l-0.057,0.118l-0.057,0.121l-0.056,0.122l-0.056,0.122l-0.055,0.122l-0.053,0.121l-0.054,0.123l-0.053,0.124l-0.051,0.121l-0.051,0.125l-0.051,0.125l-0.049,0.123l-0.049,0.126l-0.049,0.127l-0.046,0.124l-0.046,0.124l-0.048,0.131l-0.045,0.125l-0.043,0.126l-0.044,0.129l-0.043,0.126l-0.042,0.127l-0.041,0.13l-0.041,0.131l-0.04,0.128l-0.039,0.128l-0.038,0.129l-0.037,0.13l-0.037,0.132l-0.036,0.133l-0.035,0.13l-0.034,0.131l-0.034,0.131l-0.032,0.132l-0.032,0.132l-0.031,0.132l-0.031,0.135l-0.029,0.133l-0.028,0.131l-0.029,0.137l-0.027,0.134l-0.026,0.134l-0.026,0.138l-0.024,0.132l-0.024,0.135l-0.023,0.136l-0.022,0.136l-0.021,0.137l-0.02,0.134l-0.02,0.14l-0.019,0.138l-0.018,0.135l-0.017,0.138l-0.016,0.138l-0.016,0.139l-0.014,0.136l-0.014,0.14l-0.013,0.14l-0.012,0.14l-0.011,0.141l-0.01,0.137l-0.009,0.139l-0.009,0.141l-0.007,0.142l-0.007,0.139l-0.006,0.142l-0.005,0.143l-0.004,0.14l-0.003,0.14l-0.002,0.144l-0.001,0.144l-0.001,0.141l0.001,0.141l0.001,0.144l0.002,0.144l0.003,0.14l0.004,0.14l0.005,0.143l0.006,0.142l0.007,0.139l0.007,0.142l0.009,0.141l0.009,0.139l0.01,0.137l0.011,0.141l0.012,0.14l0.013,0.14l0.014,0.14l0.014,0.136l0.016,0.139l0.016,0.138l0.017,0.138l0.018,0.135l0.019,0.138l0.02,0.14l0.02,0.134l0.021,0.137l0.022,0.136l0.023,0.136l0.024,0.135l0.024,0.132l0.026,0.138l0.026,0.134l0.027,0.134l0.029,0.137l0.028,0.131l0.029,0.133l0.031,0.135l0.031,0.132l0.032,0.132l0.032,0.132l0.034,0.131l0.034,0.131l0.035,0.13l0.036,0.133l0.037,0.132l0.037,0.13l0.038,0.129l0.039,0.128l0.04,0.128l0.041,0.131l0.041,0.13l0.042,0.127l0.043,0.126l0.044,0.129l0.043,0.126l0.045,0.125l0.048,0.131l0.046,0.124l0.046,0.124l0.049,0.127l0.049,0.126l0.049,0.123l0.051,0.125l0.051,0.125l0.051,0.121l0.053,0.124l0.054,0.123l0.053,0.121l0.055,0.122l0.056,0.122l0.056,0.122l0.057,0.121l0.057,0.118l0.058,0.121l0.059,0.12l0.061,0.121l0.059,0.117l0.062,0.119l0.061,0.117l0.062,0.115l0.064,0.12l0.064,0.116l0.064,0.116l0.066,0.116l0.066,0.116l0.067,0.116l0.067,0.114l0.067,0.112l0.068,0.113l0.071,0.116l0.069,0.112l0.07,0.111l0.073,0.114l0.071,0.111l0.073,0.11l0.072,0.11l0.075,0.111l0.074,0.11l0.075,0.108l0.077,0.11l0.075,0.107l0.078,0.109l0.077,0.106l0.078,0.106l0.08,0.107l0.08,0.107l0.079,0.104l0.081,0.104l0.082,0.105l0.082,0.104l0.082,0.102l0.082,0.102l0.085,0.103l0.085,0.102l0.086,0.102l0.086,0.102l0.084,0.098l0.088,0.1l0.088,0.1l0.087,0.097l0.089,0.099l0.089,0.097l0.09,0.098l0.09,0.096l0.09,0.095l0.092,0.096l0.093,0.096l0.091,0.093l0.094,0.093l0.095,0.095l0.093,0.092l0.095,0.091l0.095,0.092l0.096,0.091l0.098,0.091l0.095,0.089l0.097,0.088l0.1,0.091l0.098,0.087l0.099,0.087l0.1,0.087l0.1,0.086l0.101,0.087l0.1,0.084l0.102,0.084l0.102,0.084l0.102,0.083l0.105,0.083l0.104,0.083l0.104,0.081l0.104,0.081l0.106,0.081l0.105,0.078l0.106,0.079l0.106,0.078l0.108,0.078l0.108,0.078l0.108,0.076l0.109,0.076l0.11,0.075l0.108,0.075l0.109,0.072l0.112,0.074l0.111,0.073l0.11,0.071l0.113,0.072l0.113,0.071l0.113,0.07l0.113,0.069l0.113,0.069l0.112,0.067l0.116,0.067l0.116,0.068l0.116,0.066l0.114,0.064l0.116,0.065l0.117,0.064l0.116,0.062l0.119,0.064l0.118,0.062l0.117,0.06l0.121,0.061l0.118,0.06l0.118,0.058l0.122,0.059l0.12,0.058l0.12,0.056l0.122,0.056l0.122,0.056l0.121,0.054l0.122,0.054l0.123,0.054l0.123,0.052l0.124,0.052l0.124,0.051l0.124,0.051l0.124,0.049l0.125,0.049l0.126,0.048l0.125,0.047l0.126,0.047l0.126,0.046l0.127,0.045l0.128,0.045l0.127,0.043l0.127,0.043l0.129,0.042l0.129,0.042l0.127,0.039l0.13,0.04l0.13,0.04l0.13,0.038l0.13,0.037l0.129,0.037l0.131,0.036l0.132,0.035l0.132,0.034l0.131,0.034l0.132,0.032l0.133,0.032l0.132,0.031l0.133,0.031l0.134,0.029l0.134,0.029l0.134,0.028l0.134,0.027l0.134,0.026l0.135,0.025l0.135,0.025l0.135,0.024l0.136,0.023l0.136,0.022l0.137,0.021l0.136,0.021l0.136,0.019l0.138,0.019l0.138,0.018l0.138,0.017l0.137,0.016l0.139,0.016l0.138,0.014l0.139,0.014l0.139,0.013l0.138,0.012l0.141,0.011l0.14,0.01l0.139,0.009l0.141,0.009l0.141,0.007l0.14,0.007l0.141,0.006l0.142,0.005l0.141,0.004l0.142,0.003l0.142,0.002l0.142,0.001l0.143,0.001l0.143,-0.001l0.142,-0.001l0.142,-0.002l0.142,-0.003l0.141,-0.004l0.142,-0.005l0.141,-0.006l0.14,-0.007l0.141,-0.007l0.141,-0.009l0.139,-0.009l0.14,-0.01l0.141,-0.011l0.138,-0.012l0.139,-0.013l0.139,-0.014l0.138,-0.014l0.139,-0.016l0.137,-0.016l0.138,-0.017l0.138,-0.018l0.138,-0.019l0.136,-0.019l0.136,-0.021l0.137,-0.021l0.136,-0.022l0.136,-0.023l0.135,-0.024l0.135,-0.025l0.135,-0.025l0.134,-0.026l0.134,-0.027l0.134,-0.028l0.134,-0.029l0.134,-0.029l0.133,-0.031l0.132,-0.031l0.133,-0.032l0.132,-0.032l0.131,-0.034l0.132,-0.034l0.132,-0.035l0.131,-0.036l0.129,-0.037l0.13,-0.037l0.13,-0.038l0.13,-0.04l0.13,-0.04l0.127,-0.039l0.129,-0.042l0.129,-0.042l0.127,-0.043l0.127,-0.043l0.128,-0.045l0.127,-0.045l0.126,-0.046l0.126,-0.047l0.125,-0.047l0.126,-0.048l0.125,-0.049l0.124,-0.049l0.124,-0.051l0.124,-0.051l0.124,-0.052l0.123,-0.052l0.123,-0.054l0.122,-0.054l0.121,-0.054l0.122,-0.056l0.122,-0.056l0.12,-0.056l0.12,-0.058l0.122,-0.059l0.118,-0.058l0.118,-0.06l0.121,-0.061l0.117,-0.06l0.118,-0.062l0.119,-0.064l0.116,-0.062l0.117,-0.064l0.116,-0.065l0.114,-0.064l0.116,-0.066l0.116,-0.068l0.116,-0.067l0.112,-0.067l0.113,-0.069l0.113,-0.069l0.113,-0.07l0.113,-0.071l0.113,-0.072l0.11,-0.071l0.111,-0.073l0.112,-0.074l0.109,-0.072l0.108,-0.075l0.11,-0.075l0.109,-0.076l0.108,-0.076l0.108,-0.078l0.108,-0.078l0.106,-0.078l0.106,-0.079l0.105,-0.078l0.106,-0.081l0.104,-0.081l0.104,-0.081l0.104,-0.083l0.105,-0.083l0.102,-0.083l0.102,-0.084l0.102,-0.084l0.1,-0.084l0.101,-0.087l0.1,-0.086l0.1,-0.087l0.099,-0.087l0.098,-0.087l0.1,-0.091l0.097,-0.088l0.095,-0.089l0.098,-0.091l0.096,-0.091l0.095,-0.092l0.095,-0.091l0.093,-0.092l0.095,-0.095l0.094,-0.093l0.091,-0.093l0.093,-0.096l0.092,-0.096l0.09,-0.095l0.09,-0.096l0.09,-0.098l0.089,-0.097l0.089,-0.099l0.087,-0.097l0.088,-0.1l0.088,-0.1l0.084,-0.098l0.086,-0.102l0.086,-0.102l0.085,-0.102l0.085,-0.103l0.082,-0.102l0.082,-0.102l0.082,-0.104l0.082,-0.105l0.081,-0.104l0.079,-0.104l0.08,-0.107l0.08,-0.107l0.078,-0.106l0.077,-0.106l0.078,-0.109l0.075,-0.107l0.077,-0.11l0.075,-0.108l0.074,-0.11l0.075,-0.111l0.072,-0.11l0.073,-0.11l0.071,-0.111l0.073,-0.114l0.07,-0.111l0.069,-0.112l0.071,-0.116l0.068,-0.113l0.067,-0.112l0.067,-0.114l0.067,-0.116l0.066,-0.116l0.066,-0.116l0.064,-0.116l0.064,-0.116l0.064,-0.12l0.062,-0.115l0.061,-0.117l0.062,-0.119l0.059,-0.117l0.061,-0.121l0.059,-0.12l0.058,-0.121l0.057,-0.118l0.057,-0.121l0.056,-0.122l0.056,-0.122l0.055,-0.122l0.053,-0.121l0.054,-0.123l0.053,-0.124l0.051,-0.121l0.051,-0.125l0.051,-0.125l0.049,-0.123l0.049,-0.126l0.049,-0.127l0.046,-0.124l0.046,-0.124l0.048,-0.131l0.045,-0.125l0.043,-0.126l0.044,-0.129l0.043,-0.126l0.042,-0.127l0.041,-0.13l0.041,-0.131l0.04,-0.128l0.039,-0.128l0.038,-0.129l0.037,-0.13l0.037,-0.132l0.036,-0.133l0.035,-0.13l0.034,-0.131l0.034,-0.131l0.032,-0.132l0.032,-0.132l0.031,-0.132l0.031,-0.135l0.029,-0.133l0.028,-0.131l0.029,-0.137l0.027,-0.134l0.026,-0.134l0.026,-0.138l0.024,-0.132l0.024,-0.135l0.023,-0.136l0.022,-0.136l0.021,-0.137l0.02,-0.134l0.02,-0.14l0.019,-0.138l0.018,-0.135l0.017,-0.138l0.016,-0.138l0.016,-0.139l0.014,-0.136l0.014,-0.14l0.013,-0.14l0.012,-0.14l0.011,-0.141l0.01,-0.137l0.009,-0.139l0.009,-0.141l0.007,-0.142l0.007,-0.139l0.006,-0.142l0.005,-0.143l0.004,-0.14l0.003,-0.14l0.002,-0.144l0.001,-0.144l0.001,-0.141l-0.001,-0.141l-0.001,-0.144l-0.002,-0.144l-0.003,-0.14l-0.004,-0.14l-0.005,-0.143l-0.006,-0.142l-0.007,-0.139l-0.007,-0.142l-0.009,-0.141l-0.009,-0.139l-0.01,-0.137l-0.011,-0.141l-0.012,-0.14l-0.013,-0.14l-0.014,-0.14l-0.014,-0.136l-0.016,-0.139l-0.016,-0.138l-0.017,-0.138l-0.018,-0.135l-0.019,-0.138l-0.02,-0.14l-0.02,-0.134l-0.021,-0.137l-0.022,-0.136l-0.023,-0.136l-0.024,-0.135l-0.024,-0.132l-0.026,-0.138l-0.026,-0.134l-0.027,-0.134l-0.029,-0.137l-0.028,-0.131l-0.029,-0.133l-0.031,-0.135l-0.031,-0.132l-0.032,-0.132l-0.032,-0.132l-0.034,-0.131l-0.034,-0.131l-0.035,-0.13l-0.036,-0.133l-0.037,-0.132l-0.037,-0.13l-0.038,-0.129l-0.039,-0.128l-0.04,-0.128l-0.041,-0.131l-0.041,-0.13l-0.042,-0.127l-0.043,-0.126l-0.044,-0.129l-0.043,-0.126l-0.045,-0.125l-0.048,-0.131l-0.046,-0.124l-0.046,-0.124l-0.049,-0.127l-0.049,-0.126l-0.049,-0.123l-0.051,-0.125l-0.051,-0.125l-0.051,-0.121l-0.053,-0.124l-0.054,-0.123l-0.053,-0.121l-0.055,-0.122l-0.056,-0.122l-0.056,-0.122l-0.057,-0.121l-0.057,-0.118l-0.058,-0.121l-0.059,-0.12l-0.061,-0.121l-0.059,-0.117l-0.062,-0.119l-0.061,-0.117l-0.062,-0.115l-0.064,-0.12l-0.064,-0.116l-0.064,-0.116l-0.066,-0.116l-0.066,-0.116l-0.067,-0.116l-0.067,-0.114l-0.067,-0.112l-0.068,-0.113l-0.071,-0.116l-0.069,-0.112l-0.07,-0.111l-0.073,-0.114l-0.071,-0.111l-0.073,-0.11l-0.072,-0.11l-0.075,-0.111l-0.074,-0.11l-0.075,-0.108l-0.077,-0.11l-0.075,-0.107l-0.078,-0.109l-0.077,-0.106l-0.078,-0.106l-0.08,-0.107l-0.08,-0.107l-0.079,-0.104l-0.081,-0.104l-0.082,-0.105l-0.082,-0.104l-0.082,-0.102l-0.082,-0.102l-0.085,-0.103l-0.085,-0.102l-0.086,-0.102l-0.086,-0.102l-0.084,-0.098l-0.088,-0.1l-0.088,-0.1l-0.087,-0.097l-0.089,-0.099l-0.089,-0.097l-0.09,-0.098l-0.09,-0.096l-0.09,-0.095l-0.092,-0.096l-0.093,-0.096l-0.091,-0.093l-0.094,-0.093l-0.095,-0.095l-0.093,-0.092l-0.095,-0.091l-0.095,-0.092l-0.096,-0.091l-0.098,-0.091l-0.095,-0.089l-0.097,-0.088l-0.1,-0.091l-0.098,-0.087l-0.099,-0.087l-0.1,-0.087l-0.1,-0.086l-0.101,-0.087l-0.1,-0.084l-0.102,-0.084l-0.102,-0.084l-0.102,-0.083l-0.105,-0.083l-0.104,-0.083l-0.104,-0.081l-0.104,-0.081l-0.106,-0.081l-0.105,-0.078l-0.106,-0.079l-0.106,-0.078l-0.108,-0.078l-0.108,-0.078l-0.108,-0.076l-0.109,-0.076l-0.11,-0.075l-0.108,-0.075l-0.109,-0.072l-0.112,-0.074l-0.111,-0.073l-0.11,-0.071l-0.113,-0.072l-0.113,-0.071l-0.113,-0.07l-0.113,-0.069l-0.113,-0.069l-0.112,-0.067l-0.116,-0.067l-0.116,-0.068l-0.116,-0.066l-0.114,-0.064l-0.116,-0.065l-0.117,-0.064l-0.116,-0.062l-0.119,-0.064l-0.118,-0.062l-0.117,-0.06l-0.121,-0.061l-0.118,-0.06l-0.118,-0.058l-0.122,-0.059l-0.12,-0.058l-0.12,-0.056l-0.122,-0.056l-0.122,-0.056l-0.121,-0.054l-0.122,-0.054l-0.123,-0.054l-0.123,-0.052l-0.124,-0.052l-0.124,-0.051l-0.124,-0.051l-0.124,-0.049l-0.125,-0.049l-0.126,-0.048l-0.125,-0.047l-0.126,-0.047l-0.126,-0.046l-0.127,-0.045l-0.128,-0.045l-0.127,-0.043l-0.127,-0.043l-0.129,-0.042l-0.129,-0.042l-0.127,-0.039l-0.13,-0.04l-0.13,-0.04l-0.13,-0.038l-0.13,-0.037l-0.129,-0.037l-0.131,-0.036l-0.132,-0.035l-0.132,-0.034l-0.131,-0.034l-0.132,-0.032l-0.133,-0.032l-0.132,-0.031l-0.133,-0.031l-0.134,-0.029l-0.134,-0.029l-0.134,-0.028l-0.134,-0.027l-0.134,-0.026l-0.135,-0.025l-0.135,-0.025l-0.135,-0.024l-0.136,-0.023l-0.136,-0.022l-0.137,-0.021l-0.136,-0.021l-0.136,-0.019l-0.138,-0.019l-0.138,-0.018l-0.138,-0.017l-0.137,-0.016l-0.139,-0.016l-0.138,-0.014l-0.139,-0.014l-0.139,-0.013l-0.138,-0.012l-0.141,-0.011l-0.14,-0.01l-0.139,-0.009l-0.141,-0.009l-0.141,-0.007l-0.14,-0.007l-0.141,-0.006l-0.142,-0.005l-0.141,-0.004l-0.142,-0.003l-0.142,-0.002l-0.142,-0.001l-0.143,-0.001l-0.143,0.001Z" style="fill:#2a2a2a;"/></g></svg>