<?xml version="1.0" encoding="UTF-8" standalone="no"?><!DOCTYPE svg PUBLIC "-//W3C//DTD SVG 1.1//EN" "http://www.w3.org/Graphics/SVG/1.1/DTD/svg11.dtd"><svg width="100%" height="100%" viewBox="0 0 50 50" version="1.1" xmlns="http://www.w3.org/2000/svg" xmlns:xlink="http://www.w3.org/1999/xlink" xml:space="preserve" xmlns:serif="http://www.serif.com/" style="fill-rule:evenodd;clip-rule:evenodd;stroke-linecap:round;stroke-linejoin:round;stroke-miterlimit:2;"><rect id="f_headshades_thumb" x="0" y="0" width="50" height="50" style="fill:none;"/><clipPath id="_clip1"><rect x="0" y="0" width="50" height="50"/></clipPath><g clip-path="url(#_clip1)"><circle cx="25" cy="25" r="25" style="fill:none;"/><clipPath id="_clip2"><circle cx="25" cy="25" r="25"/></clipPath><g clip-path="url(#_clip2)"><g><g id="girltato"><path d="M18.707,51.181c1.145,2.809 1.248,5.342 0,7.516" style="fill:none;stroke:#ac8639;stroke-width:1.94px;"/><path d="M31.539,51.205c0.77,2.457 0.811,4.96 0,7.517" style="fill:none;stroke:#ac8639;stroke-width:1.94px;"/><path d="M37.939,36.598c0.417,3.004 1.598,5.248 3.769,6.509" style="fill:none;stroke:#ac8639;stroke-width:1.94px;"/><path id="potato" d="M24.301,10.315c12.076,0 16.339,9.528 16.339,21.263c0,11.736 -3.33,21.264 -16.339,21.264c-13.01,0 -16.34,-9.528 -16.34,-21.264c0,-11.735 4.263,-21.263 16.34,-21.263Z" style="fill:#edbe5e;"/><clipPath id="_clip3"><path d="M24.301,10.315c12.076,0 16.339,9.528 16.339,21.263c0,11.736 -3.33,21.264 -16.339,21.264c-13.01,0 -16.34,-9.528 -16.34,-21.264c0,-11.735 4.263,-21.263 16.34,-21.263Z"/></clipPath><g clip-path="url(#_clip3)"><path id="shadow" d="M24.301,10.315c-21.8,9.922 -10.222,41.806 0,42.527c-13.01,0 -16.34,-9.528 -16.34,-21.264c0,-11.735 4.263,-21.263 16.34,-21.263Z" style="fill:#cda24c;fill-opacity:0.25098;"/><ellipse id="eye_1" cx="22.08" cy="26.872" rx="1.764" ry="1.759" style="fill:#302a1c;"/><ellipse id="eye_2" cx="34.967" cy="26.872" rx="1.764" ry="1.759" style="fill:#302a1c;"/><g id="eyebrows"><path d="M23.04,23.258c-0.711,-0.527 -1.965,-0.454 -2.566,0" style="fill:none;stroke:#ac8639;stroke-opacity:0.5;stroke-width:0.83px;"/><path d="M36.031,23.258c-0.711,-0.527 -1.965,-0.454 -2.567,0" style="fill:none;stroke:#ac8639;stroke-opacity:0.5;stroke-width:0.83px;"/></g><g id="marks"><path d="M13.036,33.269c0.711,-0.527 1.965,-0.454 2.566,0" style="fill:none;stroke:#ac8639;stroke-opacity:0.5;stroke-width:0.83px;"/><path d="M33.49,38.965c0.711,-0.526 1.965,-0.453 2.567,0" style="fill:none;stroke:#ac8639;stroke-opacity:0.5;stroke-width:0.83px;"/><path d="M18.872,42.885c0.712,-0.526 1.965,-0.453 2.567,0" style="fill:none;stroke:#ac8639;stroke-opacity:0.5;stroke-width:0.83px;"/><path d="M25.852,48.415c0.712,-0.526 1.965,-0.453 2.567,0" style="fill:none;stroke:#ac8639;stroke-opacity:0.5;stroke-width:0.83px;"/></g></g><path d="M24.442,10.315l0.14,0.001l0.14,0.002l0.139,0.004l0.138,0.003l0.138,0.005l0.137,0.006l0.136,0.006l0.135,0.008l0.135,0.008l0.134,0.009l0.134,0.01l0.132,0.01l0.132,0.012l0.132,0.012l0.13,0.013l0.13,0.014l0.129,0.015l0.129,0.016l0.128,0.017l0.127,0.017l0.126,0.018l0.126,0.019l0.125,0.02l0.124,0.02l0.124,0.022l0.123,0.022l0.122,0.023l0.122,0.024l0.121,0.024l0.12,0.026l0.12,0.026l0.119,0.027l0.118,0.028l0.118,0.028l0.117,0.029l0.116,0.031l0.116,0.03l0.115,0.032l0.114,0.033l0.113,0.033l0.113,0.034l0.113,0.034l0.111,0.036l0.111,0.036l0.11,0.037l0.11,0.038l0.109,0.038l0.108,0.039l0.108,0.04l0.107,0.041l0.106,0.042l0.106,0.042l0.105,0.043l0.105,0.043l0.103,0.045l0.104,0.045l0.102,0.046l0.102,0.046l0.101,0.047l0.101,0.048l0.1,0.049l0.099,0.05l0.098,0.05l0.099,0.051l0.097,0.051l0.097,0.052l0.096,0.053l0.095,0.054l0.095,0.054l0.094,0.055l0.094,0.056l0.093,0.056l0.092,0.057l0.092,0.058l0.091,0.058l0.091,0.059l0.09,0.06l0.089,0.061l0.089,0.061l0.088,0.061l0.087,0.063l0.087,0.063l0.086,0.063l0.086,0.065l0.085,0.065l0.084,0.066l0.084,0.066l0.083,0.067l0.083,0.067l0.082,0.069l0.081,0.068l0.081,0.07l0.08,0.07l0.08,0.071l0.079,0.071l0.078,0.072l0.078,0.073l0.077,0.073l0.077,0.074l0.076,0.074l0.075,0.075l0.075,0.076l0.074,0.076l0.074,0.077l0.073,0.078l0.073,0.078l0.072,0.078l0.071,0.08l0.071,0.079l0.07,0.081l0.07,0.081l0.069,0.081l0.068,0.082l0.068,0.083l0.068,0.083l0.066,0.084l0.067,0.085l0.065,0.085l0.065,0.085l0.065,0.086l0.064,0.087l0.063,0.087l0.063,0.088l0.062,0.088l0.062,0.089l0.061,0.09l0.061,0.09l0.06,0.09l0.06,0.091l0.059,0.092l0.058,0.092l0.058,0.092l0.057,0.093l0.057,0.094l0.056,0.094l0.056,0.095l0.055,0.095l0.055,0.096l0.054,0.096l0.053,0.097l0.053,0.097l0.053,0.098l0.052,0.098l0.051,0.099l0.051,0.099l0.05,0.1l0.05,0.1l0.05,0.1l0.048,0.102l0.049,0.101l0.047,0.102l0.047,0.103l0.047,0.103l0.046,0.103l0.046,0.104l0.045,0.105l0.045,0.105l0.044,0.105l0.043,0.106l0.043,0.106l0.043,0.107l0.042,0.107l0.041,0.108l0.041,0.108l0.041,0.109l0.04,0.108l0.039,0.11l0.039,0.11l0.039,0.11l0.038,0.111l0.038,0.111l0.037,0.111l0.036,0.112l0.036,0.113l0.036,0.112l0.035,0.113l0.034,0.114l0.034,0.114l0.034,0.114l0.033,0.115l0.032,0.116l0.033,0.115l0.031,0.116l0.031,0.116l0.031,0.117l0.03,0.117l0.03,0.118l0.029,0.118l0.029,0.118l0.028,0.119l0.028,0.119l0.027,0.119l0.027,0.12l0.027,0.12l0.026,0.121l0.025,0.121l0.025,0.121l0.025,0.121l0.024,0.122l0.023,0.123l0.023,0.122l0.023,0.123l0.022,0.124l0.022,0.123l0.021,0.124l0.021,0.124l0.021,0.125l0.02,0.125l0.019,0.125l0.019,0.126l0.019,0.126l0.018,0.126l0.018,0.127l0.017,0.127l0.017,0.127l0.016,0.127l0.016,0.128l0.016,0.128l0.015,0.129l0.015,0.128l0.014,0.129l0.014,0.13l0.013,0.129l0.013,0.13l0.012,0.13l0.012,0.131l0.012,0.13l0.011,0.131l0.011,0.132l0.01,0.131l0.01,0.132l0.01,0.132l0.009,0.132l0.009,0.133l0.008,0.133l0.008,0.133l0.007,0.133l0.007,0.134l0.007,0.134l0.006,0.134l0.006,0.134l0.005,0.135l0.005,0.134l0.005,0.135l0.004,0.136l0.004,0.135l0.003,0.136l0.003,0.136l0.003,0.136l0.002,0.136l0.002,0.137l0.001,0.137l0.001,0.137l0.001,0.137l0,0.137l-0.001,0.275l-0.002,0.274l-0.003,0.273l-0.004,0.272l-0.006,0.271l-0.007,0.27l-0.008,0.27l-0.01,0.268l-0.011,0.268l-0.012,0.266l-0.014,0.266l-0.015,0.264l-0.008,0.132l-0.009,0.131l-0.009,0.131l-0.009,0.131l-0.01,0.131l-0.01,0.131l-0.01,0.13l-0.011,0.13l-0.011,0.129l-0.011,0.129l-0.012,0.129l-0.013,0.129l-0.012,0.129l-0.013,0.128l-0.014,0.127l-0.013,0.128l-0.015,0.127l-0.014,0.127l-0.015,0.127l-0.016,0.126l-0.015,0.126l-0.017,0.125l-0.016,0.126l-0.017,0.125l-0.018,0.124l-0.018,0.125l-0.018,0.124l-0.019,0.123l-0.019,0.124l-0.019,0.123l-0.02,0.122l-0.021,0.123l-0.021,0.121l-0.021,0.122l-0.022,0.121l-0.022,0.121l-0.022,0.121l-0.023,0.12l-0.024,0.12l-0.024,0.119l-0.024,0.119l-0.025,0.119l-0.025,0.118l-0.026,0.118l-0.026,0.117l-0.027,0.118l-0.027,0.116l-0.028,0.117l-0.028,0.116l-0.028,0.115l-0.029,0.116l-0.03,0.114l-0.03,0.115l-0.03,0.114l-0.031,0.113l-0.032,0.114l-0.032,0.112l-0.032,0.113l-0.033,0.112l-0.033,0.111l-0.034,0.111l-0.034,0.111l-0.035,0.11l-0.036,0.11l-0.036,0.109l-0.036,0.109l-0.037,0.109l-0.037,0.108l-0.038,0.108l-0.039,0.107l-0.039,0.107l-0.039,0.106l-0.04,0.106l-0.04,0.105l-0.042,0.105l-0.041,0.104l-0.042,0.104l-0.043,0.104l-0.043,0.103l-0.044,0.103l-0.044,0.102l-0.045,0.101l-0.045,0.101l-0.046,0.101l-0.046,0.1l-0.047,0.1l-0.048,0.099l-0.048,0.099l-0.049,0.098l-0.049,0.098l-0.05,0.097l-0.05,0.097l-0.051,0.096l-0.052,0.096l-0.052,0.095l-0.052,0.095l-0.054,0.094l-0.053,0.093l-0.055,0.094l-0.055,0.092l-0.055,0.092l-0.056,0.092l-0.057,0.091l-0.057,0.09l-0.058,0.09l-0.059,0.09l-0.059,0.089l-0.06,0.088l-0.06,0.088l-0.061,0.087l-0.062,0.086l-0.062,0.087l-0.062,0.085l-0.064,0.085l-0.064,0.085l-0.064,0.083l-0.066,0.084l-0.066,0.082l-0.066,0.083l-0.067,0.081l-0.068,0.081l-0.068,0.081l-0.069,0.079l-0.07,0.08l-0.07,0.078l-0.071,0.078l-0.072,0.078l-0.072,0.077l-0.073,0.076l-0.074,0.076l-0.074,0.075l-0.075,0.074l-0.075,0.074l-0.076,0.073l-0.077,0.073l-0.078,0.072l-0.078,0.071l-0.079,0.071l-0.079,0.07l-0.081,0.069l-0.08,0.069l-0.082,0.069l-0.082,0.067l-0.083,0.067l-0.084,0.066l-0.084,0.066l-0.085,0.065l-0.086,0.064l-0.086,0.064l-0.087,0.063l-0.088,0.063l-0.088,0.061l-0.09,0.061l-0.089,0.061l-0.091,0.06l-0.091,0.059l-0.092,0.058l-0.093,0.058l-0.093,0.057l-0.095,0.056l-0.095,0.056l-0.095,0.055l-0.097,0.054l-0.097,0.054l-0.097,0.053l-0.099,0.052l-0.099,0.051l-0.1,0.051l-0.101,0.05l-0.102,0.05l-0.102,0.048l-0.103,0.048l-0.104,0.048l-0.104,0.046l-0.105,0.046l-0.106,0.045l-0.107,0.045l-0.108,0.043l-0.108,0.043l-0.109,0.042l-0.11,0.042l-0.11,0.04l-0.112,0.04l-0.112,0.04l-0.113,0.038l-0.113,0.038l-0.115,0.037l-0.115,0.036l-0.116,0.036l-0.117,0.034l-0.118,0.034l-0.118,0.033l-0.119,0.033l-0.12,0.031l-0.121,0.031l-0.122,0.03l-0.122,0.03l-0.123,0.028l-0.125,0.028l-0.124,0.027l-0.126,0.026l-0.127,0.026l-0.127,0.024l-0.128,0.024l-0.129,0.023l-0.13,0.022l-0.13,0.022l-0.132,0.02l-0.132,0.02l-0.133,0.019l-0.134,0.018l-0.135,0.017l-0.135,0.017l-0.137,0.016l-0.137,0.014l-0.138,0.014l-0.139,0.014l-0.14,0.012l-0.141,0.012l-0.141,0.01l-0.143,0.01l-0.143,0.009l-0.144,0.008l-0.145,0.008l-0.146,0.006l-0.147,0.006l-0.147,0.004l-0.149,0.004l-0.149,0.003l-0.15,0.003l-0.151,0.001l-0.152,0l-0.152,0l-0.152,-0.001l-0.15,-0.003l-0.149,-0.003l-0.149,-0.004l-0.147,-0.004l-0.147,-0.006l-0.146,-0.006l-0.145,-0.008l-0.144,-0.008l-0.143,-0.009l-0.143,-0.01l-0.141,-0.01l-0.141,-0.012l-0.14,-0.012l-0.139,-0.014l-0.138,-0.014l-0.137,-0.014l-0.137,-0.016l-0.135,-0.017l-0.135,-0.017l-0.134,-0.018l-0.133,-0.019l-0.132,-0.02l-0.132,-0.02l-0.13,-0.022l-0.13,-0.022l-0.129,-0.023l-0.128,-0.024l-0.127,-0.024l-0.127,-0.026l-0.126,-0.026l-0.124,-0.027l-0.124,-0.028l-0.124,-0.028l-0.122,-0.03l-0.122,-0.03l-0.121,-0.031l-0.12,-0.031l-0.119,-0.033l-0.118,-0.033l-0.118,-0.034l-0.117,-0.034l-0.116,-0.036l-0.115,-0.036l-0.114,-0.037l-0.114,-0.038l-0.113,-0.038l-0.112,-0.04l-0.112,-0.04l-0.11,-0.04l-0.11,-0.042l-0.109,-0.042l-0.108,-0.043l-0.108,-0.043l-0.107,-0.045l-0.106,-0.045l-0.105,-0.046l-0.104,-0.046l-0.104,-0.048l-0.103,-0.048l-0.102,-0.048l-0.102,-0.05l-0.101,-0.05l-0.1,-0.051l-0.099,-0.051l-0.099,-0.052l-0.097,-0.053l-0.097,-0.054l-0.097,-0.054l-0.095,-0.055l-0.095,-0.056l-0.094,-0.056l-0.094,-0.057l-0.093,-0.058l-0.092,-0.058l-0.091,-0.059l-0.091,-0.06l-0.089,-0.061l-0.09,-0.061l-0.088,-0.061l-0.088,-0.063l-0.087,-0.063l-0.086,-0.064l-0.086,-0.064l-0.085,-0.065l-0.084,-0.066l-0.084,-0.066l-0.083,-0.067l-0.082,-0.067l-0.082,-0.069l-0.08,-0.069l-0.081,-0.069l-0.079,-0.07l-0.079,-0.071l-0.078,-0.071l-0.078,-0.072l-0.077,-0.073l-0.076,-0.073l-0.075,-0.074l-0.075,-0.074l-0.074,-0.075l-0.074,-0.076l-0.073,-0.076l-0.072,-0.077l-0.072,-0.078l-0.071,-0.078l-0.07,-0.078l-0.07,-0.08l-0.069,-0.079l-0.068,-0.081l-0.068,-0.081l-0.067,-0.081l-0.066,-0.083l-0.066,-0.082l-0.065,-0.084l-0.065,-0.083l-0.064,-0.085l-0.063,-0.085l-0.063,-0.085l-0.062,-0.087l-0.062,-0.086l-0.061,-0.087l-0.06,-0.088l-0.06,-0.088l-0.059,-0.089l-0.059,-0.09l-0.057,-0.09l-0.058,-0.09l-0.057,-0.091l-0.056,-0.092l-0.055,-0.092l-0.055,-0.092l-0.055,-0.094l-0.053,-0.093l-0.054,-0.094l-0.052,-0.095l-0.052,-0.095l-0.052,-0.096l-0.051,-0.096l-0.05,-0.097l-0.05,-0.097l-0.049,-0.098l-0.049,-0.098l-0.048,-0.099l-0.047,-0.099l-0.047,-0.1l-0.047,-0.1l-0.046,-0.101l-0.045,-0.101l-0.045,-0.101l-0.044,-0.102l-0.044,-0.103l-0.043,-0.103l-0.043,-0.104l-0.042,-0.104l-0.041,-0.104l-0.041,-0.105l-0.041,-0.105l-0.04,-0.106l-0.039,-0.106l-0.039,-0.107l-0.039,-0.107l-0.038,-0.108l-0.037,-0.108l-0.037,-0.109l-0.036,-0.109l-0.036,-0.109l-0.036,-0.11l-0.035,-0.11l-0.034,-0.111l-0.034,-0.111l-0.033,-0.111l-0.033,-0.112l-0.032,-0.113l-0.032,-0.112l-0.032,-0.114l-0.031,-0.113l-0.03,-0.114l-0.03,-0.115l-0.03,-0.114l-0.029,-0.116l-0.028,-0.115l-0.028,-0.116l-0.028,-0.117l-0.027,-0.116l-0.027,-0.118l-0.026,-0.117l-0.026,-0.118l-0.025,-0.118l-0.025,-0.119l-0.024,-0.119l-0.024,-0.119l-0.023,-0.12l-0.024,-0.12l-0.022,-0.121l-0.022,-0.121l-0.022,-0.121l-0.021,-0.122l-0.021,-0.121l-0.021,-0.123l-0.02,-0.122l-0.019,-0.123l-0.019,-0.124l-0.019,-0.123l-0.018,-0.124l-0.018,-0.125l-0.018,-0.124l-0.017,-0.125l-0.016,-0.126l-0.016,-0.125l-0.016,-0.126l-0.016,-0.126l-0.015,-0.127l-0.014,-0.127l-0.015,-0.127l-0.013,-0.128l-0.014,-0.127l-0.013,-0.128l-0.012,-0.129l-0.013,-0.129l-0.012,-0.129l-0.011,-0.129l-0.011,-0.129l-0.011,-0.13l-0.01,-0.13l-0.01,-0.131l-0.01,-0.131l-0.009,-0.131l-0.009,-0.131l-0.008,-0.131l-0.009,-0.132l-0.015,-0.264l-0.014,-0.266l-0.012,-0.266l-0.011,-0.268l-0.01,-0.268l-0.008,-0.27l-0.007,-0.27l-0.006,-0.271l-0.004,-0.272l-0.003,-0.273l-0.002,-0.274l-0.001,-0.275l0.001,-0.137l0,-0.137l0.001,-0.137l0.001,-0.137l0.002,-0.137l0.002,-0.136l0.003,-0.136l0.003,-0.136l0.003,-0.136l0.004,-0.135l0.004,-0.136l0.005,-0.135l0.005,-0.134l0.005,-0.135l0.006,-0.134l0.006,-0.134l0.007,-0.134l0.007,-0.134l0.007,-0.133l0.008,-0.133l0.008,-0.133l0.009,-0.133l0.009,-0.132l0.01,-0.132l0.01,-0.132l0.01,-0.131l0.011,-0.132l0.011,-0.131l0.012,-0.13l0.012,-0.131l0.012,-0.13l0.013,-0.13l0.013,-0.129l0.014,-0.13l0.014,-0.129l0.015,-0.128l0.015,-0.129l0.016,-0.128l0.016,-0.128l0.016,-0.127l0.017,-0.127l0.017,-0.127l0.018,-0.127l0.018,-0.126l0.019,-0.126l0.019,-0.126l0.019,-0.125l0.02,-0.125l0.021,-0.125l0.021,-0.124l0.021,-0.124l0.022,-0.123l0.022,-0.124l0.023,-0.123l0.023,-0.122l0.023,-0.123l0.024,-0.122l0.025,-0.121l0.025,-0.121l0.025,-0.121l0.026,-0.121l0.027,-0.12l0.027,-0.12l0.027,-0.119l0.028,-0.119l0.028,-0.119l0.029,-0.118l0.029,-0.118l0.03,-0.118l0.03,-0.117l0.031,-0.117l0.031,-0.116l0.031,-0.116l0.033,-0.115l0.032,-0.116l0.033,-0.115l0.034,-0.114l0.034,-0.114l0.034,-0.114l0.035,-0.113l0.036,-0.112l0.036,-0.113l0.037,-0.112l0.037,-0.111l0.037,-0.111l0.038,-0.111l0.039,-0.11l0.039,-0.11l0.039,-0.11l0.04,-0.108l0.041,-0.109l0.041,-0.108l0.041,-0.108l0.042,-0.107l0.043,-0.107l0.043,-0.106l0.043,-0.106l0.044,-0.105l0.045,-0.105l0.045,-0.105l0.046,-0.104l0.046,-0.103l0.047,-0.103l0.047,-0.103l0.048,-0.102l0.048,-0.101l0.049,-0.102l0.049,-0.1l0.05,-0.1l0.05,-0.1l0.051,-0.099l0.051,-0.099l0.052,-0.098l0.053,-0.098l0.053,-0.097l0.053,-0.097l0.054,-0.096l0.055,-0.096l0.055,-0.095l0.056,-0.095l0.056,-0.094l0.057,-0.094l0.057,-0.093l0.058,-0.092l0.058,-0.092l0.059,-0.092l0.06,-0.091l0.06,-0.09l0.061,-0.09l0.061,-0.09l0.062,-0.089l0.062,-0.088l0.063,-0.088l0.063,-0.087l0.064,-0.087l0.065,-0.086l0.065,-0.085l0.065,-0.085l0.067,-0.085l0.067,-0.084l0.067,-0.083l0.068,-0.083l0.068,-0.082l0.069,-0.081l0.07,-0.081l0.07,-0.081l0.071,-0.079l0.071,-0.08l0.072,-0.078l0.073,-0.078l0.073,-0.078l0.074,-0.077l0.074,-0.076l0.075,-0.076l0.075,-0.075l0.076,-0.074l0.077,-0.074l0.077,-0.073l0.078,-0.073l0.078,-0.072l0.079,-0.071l0.08,-0.071l0.08,-0.07l0.081,-0.07l0.081,-0.068l0.082,-0.069l0.083,-0.067l0.083,-0.067l0.084,-0.066l0.084,-0.066l0.085,-0.065l0.086,-0.065l0.086,-0.063l0.087,-0.063l0.087,-0.063l0.088,-0.061l0.089,-0.061l0.089,-0.061l0.09,-0.06l0.091,-0.059l0.091,-0.058l0.092,-0.058l0.092,-0.057l0.093,-0.056l0.094,-0.056l0.094,-0.055l0.095,-0.054l0.095,-0.054l0.096,-0.053l0.097,-0.052l0.098,-0.051l0.098,-0.051l0.098,-0.05l0.1,-0.05l0.099,-0.049l0.101,-0.048l0.101,-0.047l0.102,-0.046l0.103,-0.046l0.103,-0.045l0.103,-0.045l0.105,-0.043l0.105,-0.043l0.106,-0.042l0.106,-0.042l0.107,-0.041l0.108,-0.04l0.108,-0.039l0.109,-0.038l0.11,-0.038l0.11,-0.037l0.111,-0.036l0.111,-0.036l0.113,-0.034l0.113,-0.034l0.113,-0.033l0.115,-0.033l0.114,-0.032l0.116,-0.03l0.116,-0.031l0.117,-0.029l0.118,-0.028l0.118,-0.028l0.119,-0.027l0.12,-0.026l0.12,-0.026l0.121,-0.024l0.122,-0.024l0.122,-0.023l0.123,-0.022l0.124,-0.022l0.124,-0.02l0.125,-0.02l0.126,-0.019l0.126,-0.018l0.127,-0.017l0.128,-0.017l0.129,-0.016l0.129,-0.015l0.13,-0.014l0.13,-0.013l0.132,-0.012l0.132,-0.012l0.132,-0.01l0.134,-0.01l0.134,-0.009l0.135,-0.008l0.135,-0.008l0.136,-0.006l0.137,-0.006l0.138,-0.005l0.138,-0.003l0.139,-0.004l0.14,-0.002l0.14,-0.001l0.142,0l0.141,0Zm-0.277,0.961l-0.134,0.001l-0.134,0.002l-0.133,0.003l-0.132,0.004l-0.132,0.004l-0.13,0.006l-0.13,0.006l-0.129,0.007l-0.129,0.008l-0.128,0.008l-0.127,0.01l-0.126,0.01l-0.125,0.011l-0.125,0.012l-0.125,0.012l-0.122,0.013l-0.123,0.015l-0.122,0.014l-0.121,0.016l-0.121,0.017l-0.12,0.017l-0.118,0.018l-0.118,0.018l-0.118,0.02l-0.117,0.02l-0.116,0.021l-0.116,0.022l-0.114,0.022l-0.114,0.023l-0.113,0.024l-0.113,0.025l-0.112,0.025l-0.111,0.026l-0.11,0.027l-0.11,0.028l-0.109,0.028l-0.109,0.029l-0.108,0.03l-0.107,0.03l-0.107,0.031l-0.105,0.032l-0.105,0.032l-0.104,0.033l-0.104,0.034l-0.103,0.035l-0.103,0.035l-0.101,0.036l-0.101,0.037l-0.101,0.037l-0.1,0.038l-0.099,0.039l-0.098,0.039l-0.098,0.04l-0.097,0.04l-0.097,0.042l-0.096,0.042l-0.095,0.042l-0.095,0.044l-0.094,0.044l-0.093,0.044l-0.093,0.045l-0.092,0.046l-0.092,0.047l-0.091,0.047l-0.09,0.047l-0.09,0.049l-0.089,0.049l-0.088,0.05l-0.088,0.05l-0.088,0.051l-0.086,0.052l-0.086,0.052l-0.086,0.053l-0.085,0.053l-0.084,0.054l-0.084,0.055l-0.083,0.055l-0.083,0.056l-0.082,0.057l-0.082,0.057l-0.08,0.057l-0.081,0.059l-0.08,0.059l-0.079,0.06l-0.079,0.06l-0.077,0.06l-0.078,0.062l-0.078,0.062l-0.076,0.062l-0.076,0.064l-0.076,0.064l-0.074,0.064l-0.074,0.065l-0.074,0.066l-0.073,0.066l-0.073,0.067l-0.072,0.067l-0.071,0.067l-0.072,0.069l-0.071,0.069l-0.07,0.07l-0.069,0.07l-0.069,0.071l-0.069,0.072l-0.068,0.072l-0.067,0.072l-0.067,0.073l-0.067,0.074l-0.065,0.074l-0.066,0.076l-0.064,0.074l-0.065,0.076l-0.064,0.078l-0.063,0.076l-0.063,0.078l-0.063,0.079l-0.061,0.078l-0.062,0.08l-0.06,0.079l-0.06,0.081l-0.061,0.081l-0.059,0.081l-0.059,0.083l-0.058,0.083l-0.058,0.082l-0.057,0.084l-0.057,0.085l-0.057,0.085l-0.056,0.085l-0.055,0.086l-0.055,0.087l-0.054,0.086l-0.054,0.088l-0.054,0.089l-0.053,0.088l-0.052,0.089l-0.052,0.09l-0.051,0.09l-0.052,0.091l-0.05,0.092l-0.05,0.091l-0.049,0.092l-0.05,0.094l-0.049,0.093l-0.048,0.094l-0.047,0.094l-0.047,0.095l-0.047,0.095l-0.046,0.095l-0.046,0.098l-0.046,0.097l-0.044,0.097l-0.044,0.098l-0.044,0.098l-0.043,0.099l-0.044,0.1l-0.042,0.1l-0.042,0.1l-0.042,0.1l-0.041,0.102l-0.04,0.101l-0.04,0.102l-0.04,0.104l-0.039,0.103l-0.039,0.103l-0.038,0.104l-0.038,0.105l-0.037,0.105l-0.037,0.106l-0.036,0.105l-0.036,0.106l-0.036,0.108l-0.035,0.107l-0.034,0.107l-0.034,0.109l-0.034,0.109l-0.033,0.108l-0.033,0.11l-0.032,0.109l-0.032,0.111l-0.031,0.111l-0.031,0.111l-0.03,0.112l-0.03,0.111l-0.03,0.113l-0.029,0.114l-0.029,0.113l-0.028,0.113l-0.027,0.113l-0.028,0.116l-0.027,0.115l-0.026,0.115l-0.026,0.115l-0.026,0.117l-0.025,0.117l-0.024,0.116l-0.024,0.117l-0.024,0.118l-0.024,0.118l-0.022,0.118l-0.023,0.118l-0.022,0.12l-0.021,0.12l-0.021,0.119l-0.021,0.119l-0.02,0.121l-0.02,0.122l-0.019,0.121l-0.02,0.122l-0.018,0.122l-0.018,0.121l-0.018,0.123l-0.017,0.124l-0.017,0.122l-0.016,0.124l-0.016,0.124l-0.016,0.124l-0.015,0.125l-0.014,0.125l-0.015,0.126l-0.014,0.126l-0.013,0.125l-0.013,0.125l-0.012,0.127l-0.013,0.128l-0.012,0.127l-0.011,0.127l-0.011,0.127l-0.01,0.128l-0.01,0.13l-0.01,0.128l-0.009,0.129l-0.009,0.128l-0.009,0.13l-0.008,0.13l-0.007,0.129l-0.008,0.131l-0.006,0.13l-0.007,0.132l-0.006,0.13l-0.006,0.132l-0.005,0.132l-0.005,0.131l-0.004,0.133l-0.004,0.132l-0.004,0.133l-0.003,0.132l-0.003,0.134l-0.003,0.133l-0.002,0.133l-0.002,0.134l-0.001,0.134l-0.001,0.134l-0.001,0.135l0,0.134l0.001,0.27l0.002,0.271l0.003,0.268l0.004,0.267l0.006,0.267l0.006,0.265l0.009,0.265l0.009,0.263l0.011,0.263l0.012,0.261l0.014,0.26l0.014,0.259l0.009,0.129l0.008,0.128l0.009,0.129l0.009,0.129l0.009,0.127l0.01,0.127l0.01,0.128l0.01,0.127l0.011,0.127l0.011,0.126l0.012,0.126l0.012,0.125l0.012,0.125l0.013,0.126l0.013,0.125l0.014,0.123l0.014,0.124l0.014,0.125l0.014,0.123l0.015,0.122l0.016,0.123l0.016,0.123l0.016,0.122l0.016,0.121l0.017,0.121l0.018,0.121l0.017,0.121l0.019,0.12l0.018,0.119l0.019,0.12l0.02,0.119l0.019,0.119l0.02,0.117l0.021,0.118l0.021,0.118l0.022,0.116l0.022,0.118l0.022,0.116l0.023,0.115l0.023,0.116l0.023,0.115l0.024,0.115l0.025,0.114l0.024,0.113l0.026,0.114l0.026,0.114l0.026,0.112l0.026,0.111l0.027,0.113l0.028,0.111l0.028,0.111l0.028,0.11l0.029,0.11l0.029,0.11l0.03,0.108l0.03,0.11l0.031,0.107l0.031,0.109l0.031,0.107l0.032,0.106l0.032,0.106l0.033,0.106l0.034,0.106l0.034,0.105l0.034,0.104l0.035,0.104l0.035,0.105l0.036,0.103l0.035,0.101l0.037,0.103l0.037,0.102l0.038,0.101l0.038,0.101l0.038,0.099l0.039,0.1l0.04,0.099l0.04,0.099l0.04,0.098l0.041,0.098l0.042,0.097l0.042,0.097l0.042,0.096l0.043,0.096l0.043,0.095l0.044,0.094l0.044,0.094l0.045,0.094l0.046,0.093l0.046,0.093l0.046,0.092l0.047,0.091l0.047,0.09l0.048,0.092l0.049,0.09l0.048,0.089l0.05,0.089l0.049,0.088l0.051,0.088l0.051,0.087l0.051,0.087l0.052,0.085l0.053,0.086l0.053,0.086l0.053,0.084l0.055,0.084l0.054,0.084l0.055,0.082l0.056,0.082l0.056,0.082l0.056,0.081l0.058,0.081l0.058,0.08l0.058,0.079l0.059,0.08l0.059,0.078l0.061,0.078l0.06,0.077l0.061,0.077l0.061,0.076l0.062,0.075l0.064,0.076l0.063,0.074l0.064,0.074l0.064,0.073l0.065,0.072l0.066,0.073l0.066,0.072l0.067,0.071l0.067,0.07l0.068,0.07l0.068,0.069l0.07,0.069l0.07,0.068l0.07,0.068l0.07,0.066l0.072,0.067l0.072,0.065l0.072,0.066l0.074,0.064l0.074,0.064l0.074,0.064l0.075,0.063l0.076,0.062l0.076,0.062l0.077,0.061l0.079,0.061l0.077,0.059l0.079,0.059l0.081,0.06l0.079,0.057l0.081,0.058l0.082,0.057l0.082,0.056l0.083,0.056l0.084,0.055l0.084,0.054l0.084,0.054l0.087,0.054l0.086,0.053l0.087,0.052l0.087,0.051l0.088,0.051l0.09,0.05l0.09,0.05l0.09,0.048l0.091,0.049l0.093,0.048l0.092,0.046l0.093,0.047l0.095,0.046l0.094,0.045l0.096,0.045l0.097,0.044l0.096,0.043l0.098,0.042l0.099,0.042l0.099,0.042l0.1,0.04l0.101,0.04l0.102,0.04l0.102,0.038l0.104,0.038l0.104,0.038l0.104,0.036l0.106,0.036l0.107,0.036l0.107,0.034l0.108,0.034l0.109,0.034l0.109,0.032l0.111,0.032l0.111,0.031l0.112,0.031l0.113,0.029l0.114,0.029l0.114,0.029l0.115,0.027l0.117,0.027l0.117,0.027l0.118,0.025l0.119,0.025l0.119,0.024l0.121,0.023l0.121,0.023l0.122,0.021l0.123,0.021l0.124,0.021l0.125,0.019l0.126,0.019l0.126,0.018l0.128,0.017l0.128,0.017l0.129,0.016l0.13,0.015l0.131,0.014l0.132,0.013l0.133,0.013l0.134,0.012l0.134,0.011l0.135,0.01l0.137,0.009l0.137,0.009l0.138,0.008l0.139,0.007l0.141,0.006l0.141,0.005l0.141,0.005l0.143,0.004l0.144,0.003l0.144,0.002l0.146,0.001l0.147,0l0.146,0l0.146,-0.001l0.144,-0.002l0.144,-0.003l0.143,-0.004l0.141,-0.005l0.141,-0.005l0.141,-0.006l0.139,-0.007l0.138,-0.008l0.137,-0.009l0.137,-0.009l0.135,-0.01l0.135,-0.011l0.133,-0.012l0.133,-0.013l0.132,-0.013l0.131,-0.014l0.13,-0.015l0.129,-0.016l0.128,-0.017l0.128,-0.017l0.126,-0.018l0.126,-0.019l0.125,-0.019l0.124,-0.021l0.123,-0.021l0.122,-0.021l0.122,-0.023l0.12,-0.023l0.119,-0.024l0.119,-0.025l0.118,-0.025l0.117,-0.027l0.117,-0.027l0.115,-0.027l0.114,-0.029l0.114,-0.029l0.113,-0.029l0.112,-0.031l0.111,-0.031l0.111,-0.032l0.109,-0.032l0.109,-0.034l0.108,-0.034l0.107,-0.034l0.107,-0.036l0.106,-0.036l0.104,-0.036l0.104,-0.038l0.104,-0.038l0.102,-0.038l0.102,-0.04l0.101,-0.04l0.1,-0.04l0.099,-0.042l0.099,-0.042l0.098,-0.042l0.097,-0.043l0.096,-0.044l0.096,-0.045l0.095,-0.045l0.094,-0.046l0.093,-0.046l0.092,-0.047l0.093,-0.048l0.091,-0.049l0.09,-0.048l0.09,-0.05l0.09,-0.05l0.088,-0.051l0.087,-0.051l0.087,-0.052l0.086,-0.053l0.087,-0.054l0.084,-0.054l0.084,-0.054l0.084,-0.055l0.083,-0.056l0.082,-0.056l0.082,-0.057l0.081,-0.058l0.08,-0.057l0.08,-0.06l0.079,-0.059l0.077,-0.059l0.079,-0.061l0.077,-0.061l0.076,-0.062l0.076,-0.062l0.075,-0.063l0.074,-0.064l0.074,-0.064l0.074,-0.064l0.073,-0.066l0.071,-0.065l0.072,-0.067l0.07,-0.066l0.071,-0.068l0.07,-0.068l0.068,-0.068l0.069,-0.07l0.068,-0.07l0.067,-0.07l0.067,-0.071l0.066,-0.072l0.066,-0.073l0.065,-0.072l0.064,-0.073l0.064,-0.074l0.063,-0.074l0.064,-0.076l0.062,-0.075l0.061,-0.076l0.061,-0.077l0.06,-0.077l0.061,-0.078l0.059,-0.078l0.059,-0.08l0.058,-0.079l0.058,-0.08l0.058,-0.081l0.056,-0.081l0.056,-0.082l0.056,-0.082l0.055,-0.082l0.054,-0.084l0.055,-0.084l0.054,-0.085l0.053,-0.085l0.052,-0.085l0.052,-0.086l0.051,-0.087l0.051,-0.087l0.051,-0.088l0.049,-0.088l0.05,-0.089l0.049,-0.09l0.048,-0.089l0.048,-0.091l0.048,-0.091l0.046,-0.091l0.046,-0.092l0.046,-0.093l0.046,-0.093l0.045,-0.094l0.044,-0.094l0.044,-0.094l0.043,-0.095l0.043,-0.096l0.042,-0.096l0.042,-0.097l0.042,-0.097l0.041,-0.098l0.04,-0.098l0.04,-0.099l0.04,-0.099l0.039,-0.1l0.038,-0.099l0.038,-0.101l0.038,-0.102l0.037,-0.101l0.036,-0.102l0.037,-0.102l0.035,-0.103l0.035,-0.105l0.035,-0.104l0.034,-0.104l0.034,-0.105l0.034,-0.106l0.033,-0.106l0.032,-0.106l0.032,-0.106l0.031,-0.107l0.031,-0.109l0.031,-0.107l0.03,-0.11l0.03,-0.108l0.029,-0.11l0.029,-0.11l0.028,-0.11l0.028,-0.111l0.028,-0.111l0.027,-0.113l0.026,-0.111l0.026,-0.112l0.026,-0.114l0.026,-0.114l0.024,-0.113l0.025,-0.115l0.024,-0.114l0.023,-0.114l0.023,-0.117l0.023,-0.115l0.022,-0.116l0.022,-0.118l0.022,-0.117l0.021,-0.117l0.02,-0.117l0.021,-0.118l0.02,-0.119l0.019,-0.119l0.019,-0.12l0.018,-0.119l0.019,-0.12l0.017,-0.121l0.018,-0.121l0.017,-0.121l0.016,-0.121l0.016,-0.122l0.016,-0.123l0.016,-0.123l0.015,-0.122l0.014,-0.123l0.015,-0.125l0.014,-0.124l0.013,-0.123l0.013,-0.125l0.013,-0.126l0.012,-0.125l0.012,-0.125l0.012,-0.126l0.011,-0.126l0.011,-0.127l0.01,-0.127l0.01,-0.128l0.01,-0.127l0.009,-0.127l0.009,-0.129l0.009,-0.129l0.009,-0.128l0.008,-0.129l0.014,-0.259l0.014,-0.26l0.012,-0.261l0.011,-0.263l0.009,-0.263l0.009,-0.265l0.006,-0.265l0.006,-0.267l0.004,-0.267l0.003,-0.268l0.002,-0.271l0.001,-0.27l0,-0.134l-0.001,-0.135l-0.001,-0.134l-0.001,-0.134l-0.002,-0.134l-0.002,-0.133l-0.003,-0.133l-0.003,-0.134l-0.003,-0.132l-0.004,-0.133l-0.004,-0.133l-0.004,-0.132l-0.005,-0.131l-0.005,-0.132l-0.006,-0.131l-0.006,-0.132l-0.006,-0.131l-0.007,-0.129l-0.008,-0.132l-0.007,-0.129l-0.008,-0.13l-0.009,-0.13l-0.009,-0.128l-0.009,-0.129l-0.01,-0.128l-0.01,-0.13l-0.01,-0.128l-0.011,-0.127l-0.011,-0.127l-0.012,-0.127l-0.013,-0.128l-0.012,-0.127l-0.013,-0.125l-0.013,-0.125l-0.014,-0.126l-0.015,-0.126l-0.014,-0.125l-0.015,-0.125l-0.016,-0.124l-0.016,-0.124l-0.016,-0.124l-0.017,-0.122l-0.017,-0.124l-0.018,-0.123l-0.018,-0.121l-0.018,-0.122l-0.02,-0.122l-0.019,-0.121l-0.02,-0.122l-0.02,-0.121l-0.021,-0.119l-0.021,-0.119l-0.021,-0.12l-0.022,-0.12l-0.022,-0.118l-0.023,-0.118l-0.024,-0.118l-0.024,-0.118l-0.024,-0.117l-0.024,-0.116l-0.025,-0.117l-0.026,-0.117l-0.026,-0.115l-0.026,-0.115l-0.027,-0.115l-0.027,-0.116l-0.028,-0.113l-0.028,-0.113l-0.029,-0.113l-0.029,-0.114l-0.03,-0.113l-0.029,-0.111l-0.031,-0.112l-0.031,-0.111l-0.031,-0.111l-0.032,-0.111l-0.032,-0.109l-0.033,-0.11l-0.033,-0.108l-0.033,-0.109l-0.035,-0.109l-0.034,-0.107l-0.035,-0.107l-0.036,-0.108l-0.036,-0.106l-0.036,-0.105l-0.037,-0.106l-0.037,-0.105l-0.038,-0.105l-0.038,-0.104l-0.039,-0.103l-0.039,-0.103l-0.04,-0.104l-0.04,-0.102l-0.04,-0.101l-0.041,-0.102l-0.042,-0.1l-0.042,-0.1l-0.042,-0.1l-0.043,-0.1l-0.044,-0.099l-0.044,-0.098l-0.044,-0.098l-0.044,-0.097l-0.046,-0.097l-0.046,-0.098l-0.046,-0.095l-0.047,-0.095l-0.047,-0.095l-0.047,-0.094l-0.048,-0.094l-0.049,-0.093l-0.05,-0.094l-0.049,-0.092l-0.05,-0.091l-0.05,-0.092l-0.052,-0.091l-0.051,-0.09l-0.052,-0.09l-0.052,-0.089l-0.053,-0.088l-0.054,-0.089l-0.054,-0.088l-0.054,-0.086l-0.055,-0.087l-0.055,-0.086l-0.056,-0.085l-0.057,-0.085l-0.057,-0.085l-0.057,-0.084l-0.057,-0.082l-0.059,-0.083l-0.059,-0.083l-0.06,-0.081l-0.059,-0.081l-0.06,-0.08l-0.061,-0.08l-0.062,-0.08l-0.061,-0.078l-0.063,-0.079l-0.063,-0.078l-0.063,-0.076l-0.064,-0.078l-0.065,-0.076l-0.064,-0.074l-0.065,-0.076l-0.066,-0.074l-0.067,-0.074l-0.067,-0.073l-0.067,-0.072l-0.068,-0.072l-0.069,-0.072l-0.069,-0.071l-0.069,-0.07l-0.07,-0.07l-0.071,-0.069l-0.071,-0.069l-0.072,-0.067l-0.072,-0.067l-0.072,-0.067l-0.073,-0.066l-0.075,-0.066l-0.074,-0.065l-0.074,-0.064l-0.076,-0.064l-0.076,-0.064l-0.076,-0.062l-0.078,-0.062l-0.078,-0.062l-0.077,-0.06l-0.079,-0.06l-0.079,-0.06l-0.08,-0.059l-0.081,-0.059l-0.08,-0.057l-0.082,-0.057l-0.082,-0.057l-0.083,-0.056l-0.083,-0.055l-0.084,-0.055l-0.084,-0.054l-0.085,-0.053l-0.086,-0.053l-0.086,-0.052l-0.086,-0.052l-0.088,-0.051l-0.088,-0.05l-0.088,-0.05l-0.089,-0.049l-0.09,-0.049l-0.09,-0.047l-0.091,-0.047l-0.092,-0.047l-0.092,-0.046l-0.093,-0.045l-0.093,-0.044l-0.094,-0.044l-0.095,-0.044l-0.095,-0.042l-0.096,-0.042l-0.097,-0.042l-0.097,-0.04l-0.098,-0.04l-0.098,-0.039l-0.099,-0.039l-0.1,-0.038l-0.101,-0.037l-0.101,-0.037l-0.101,-0.036l-0.102,-0.035l-0.104,-0.035l-0.104,-0.034l-0.104,-0.033l-0.105,-0.032l-0.105,-0.032l-0.107,-0.031l-0.107,-0.03l-0.108,-0.03l-0.109,-0.029l-0.109,-0.028l-0.11,-0.028l-0.11,-0.027l-0.111,-0.026l-0.112,-0.025l-0.113,-0.025l-0.113,-0.024l-0.114,-0.023l-0.114,-0.022l-0.116,-0.022l-0.116,-0.021l-0.117,-0.02l-0.118,-0.02l-0.118,-0.018l-0.118,-0.018l-0.12,-0.017l-0.121,-0.017l-0.121,-0.016l-0.122,-0.014l-0.123,-0.015l-0.122,-0.013l-0.125,-0.012l-0.125,-0.012l-0.125,-0.011l-0.126,-0.01l-0.127,-0.01l-0.128,-0.008l-0.129,-0.008l-0.129,-0.007l-0.13,-0.006l-0.13,-0.006l-0.132,-0.004l-0.132,-0.004l-0.133,-0.003l-0.134,-0.002l-0.134,-0.001l-0.135,0l-0.136,0Z" style="fill:#ac8639;"/><path d="M14.45,35.59c-1.145,2.81 -1.248,5.343 0,7.517" style="fill:none;stroke:#ac8639;stroke-width:1.94px;"/><g id="lips"><path d="M29.461,33.72c-0.253,0.028 -1.32,0.079 -1.508,0.082c-1.552,0.019 -2.396,-0.312 -2.631,-0.616c-0.142,-0.185 5.78,-0.429 5.961,-0.324c0.317,0.185 -0.385,0.696 -1.822,0.858Z" style="fill:#b63e36;"/><path d="M28.655,32.104c0.081,0 0.188,-0.255 0.712,-0.233c1.55,0.065 2.172,0.407 2.172,0.791c0,0.276 -3.384,0.47 -5.502,0.378c-1.193,-0.051 -1.415,-0.203 -1.259,-0.203c0.216,0 0.577,-0.151 0.926,-0.298c0.61,-0.257 1.233,-0.614 2.152,-0.668c0.575,-0.033 0.717,0.233 0.799,0.233Z" style="fill:#b63e36;"/></g></g><g id="shades-on-head"><path d="M26.154,15.351c0.966,-0.537 1.836,-0.663 2.905,0" style="fill:none;stroke:#302a1c;stroke-width:0.83px;"/><path d="M18.44,14.9l-6.847,3.71c-0.728,0.42 -0.064,0.995 -0.064,0.995" style="fill:none;stroke:#302a1c;stroke-width:0.83px;"/><path d="M33.039,11.498c4.517,0 4.426,1.673 4.426,3.734c0,2.061 -1.984,3.734 -4.426,3.734c-2.443,0 -4.426,-1.673 -4.426,-3.734c0,-2.061 -0.092,-3.734 4.426,-3.734Z" style="fill:#302a1c;"/><clipPath id="_clip4"><path d="M33.039,11.498c4.517,0 4.426,1.673 4.426,3.734c0,2.061 -1.984,3.734 -4.426,3.734c-2.443,0 -4.426,-1.673 -4.426,-3.734c0,-2.061 -0.092,-3.734 4.426,-3.734Z"/></clipPath><g clip-path="url(#_clip4)"><path d="M36.501,11.498l-6.915,6.933" style="fill:none;stroke:#b5a686;stroke-width:2px;"/></g><path d="M22.558,11.498c4.518,0 4.426,1.673 4.426,3.734c0,2.061 -1.983,3.734 -4.426,3.734c-2.442,0 -4.425,-1.673 -4.425,-3.734c0,-2.061 -0.092,-3.734 4.425,-3.734Z" style="fill:#302a1c;"/><clipPath id="_clip5"><path d="M22.558,11.498c4.518,0 4.426,1.673 4.426,3.734c0,2.061 -1.983,3.734 -4.426,3.734c-2.442,0 -4.425,-1.673 -4.425,-3.734c0,-2.061 -0.092,-3.734 4.425,-3.734Z"/></clipPath><g clip-path="url(#_clip5)"><path d="M25.851,11.498l-6.915,6.933" style="fill:none;stroke:#b5a686;stroke-width:2px;"/></g></g></g></g><path d="M25.162,0.001l0.161,0.001l0.161,0.003l0.161,0.003l0.16,0.005l0.161,0.005l0.16,0.007l0.16,0.008l0.159,0.008l0.16,0.01l0.159,0.01l0.158,0.012l0.159,0.013l0.158,0.013l0.158,0.015l0.158,0.015l0.157,0.017l0.157,0.017l0.157,0.019l0.156,0.019l0.156,0.02l0.156,0.022l0.156,0.022l0.155,0.023l0.155,0.024l0.155,0.026l0.154,0.026l0.154,0.027l0.154,0.028l0.153,0.029l0.153,0.03l0.153,0.03l0.152,0.032l0.152,0.033l0.152,0.033l0.151,0.035l0.151,0.035l0.151,0.036l0.15,0.038l0.15,0.038l0.149,0.039l0.15,0.04l0.148,0.04l0.149,0.042l0.148,0.043l0.148,0.043l0.147,0.044l0.147,0.046l0.146,0.046l0.147,0.047l0.145,0.048l0.146,0.048l0.145,0.05l0.144,0.051l0.144,0.051l0.144,0.052l0.143,0.053l0.143,0.054l0.143,0.055l0.142,0.055l0.142,0.057l0.141,0.057l0.141,0.058l0.14,0.059l0.14,0.06l0.14,0.06l0.139,0.062l0.138,0.062l0.139,0.063l0.137,0.064l0.138,0.064l0.137,0.066l0.136,0.066l0.136,0.067l0.135,0.068l0.135,0.069l0.135,0.069l0.134,0.07l0.133,0.071l0.133,0.072l0.133,0.073l0.132,0.073l0.132,0.074l0.131,0.075l0.13,0.076l0.131,0.076l0.129,0.078l0.129,0.077l0.129,0.079l0.128,0.08l0.128,0.08l0.127,0.081l0.126,0.082l0.126,0.082l0.126,0.083l0.125,0.084l0.124,0.085l0.124,0.085l0.123,0.086l0.123,0.087l0.122,0.087l0.122,0.089l0.121,0.089l0.121,0.089l0.12,0.091l0.119,0.091l0.119,0.092l0.119,0.092l0.118,0.093l0.117,0.094l0.116,0.095l0.116,0.095l0.116,0.096l0.115,0.096l0.114,0.098l0.114,0.097l0.113,0.099l0.113,0.099l0.111,0.1l0.112,0.101l0.11,0.101l0.111,0.102l0.109,0.102l0.109,0.104l0.108,0.103l0.108,0.105l0.107,0.105l0.106,0.106l0.106,0.106l0.105,0.107l0.105,0.108l0.103,0.108l0.104,0.109l0.102,0.109l0.102,0.111l0.101,0.11l0.101,0.112l0.1,0.111l0.099,0.113l0.099,0.113l0.097,0.114l0.098,0.114l0.096,0.115l0.096,0.116l0.095,0.116l0.095,0.116l0.094,0.117l0.093,0.118l0.092,0.119l0.092,0.119l0.091,0.119l0.091,0.12l0.089,0.121l0.089,0.121l0.089,0.122l0.087,0.122l0.087,0.123l0.086,0.123l0.085,0.124l0.085,0.124l0.084,0.125l0.083,0.126l0.082,0.126l0.082,0.126l0.081,0.127l0.08,0.128l0.08,0.128l0.079,0.129l0.077,0.129l0.078,0.129l0.076,0.131l0.076,0.13l0.075,0.131l0.074,0.132l0.073,0.132l0.073,0.133l0.072,0.133l0.071,0.133l0.07,0.134l0.069,0.135l0.069,0.135l0.068,0.135l0.067,0.136l0.066,0.136l0.066,0.137l0.064,0.138l0.064,0.137l0.063,0.139l0.062,0.138l0.062,0.139l0.06,0.14l0.06,0.14l0.059,0.14l0.058,0.141l0.057,0.141l0.057,0.142l0.055,0.142l0.055,0.143l0.054,0.143l0.053,0.143l0.052,0.144l0.051,0.144l0.051,0.144l0.05,0.145l0.048,0.146l0.048,0.145l0.047,0.147l0.046,0.146l0.046,0.147l0.044,0.147l0.043,0.148l0.043,0.148l0.042,0.149l0.04,0.148l0.04,0.15l0.039,0.149l0.038,0.15l0.038,0.15l0.036,0.151l0.035,0.151l0.035,0.151l0.033,0.152l0.033,0.152l0.032,0.152l0.03,0.153l0.03,0.153l0.029,0.153l0.028,0.154l0.027,0.154l0.026,0.154l0.026,0.155l0.024,0.155l0.023,0.155l0.022,0.156l0.022,0.156l0.02,0.156l0.019,0.156l0.019,0.157l0.017,0.157l0.017,0.157l0.015,0.158l0.015,0.158l0.013,0.158l0.013,0.159l0.012,0.158l0.01,0.159l0.01,0.16l0.008,0.159l0.008,0.16l0.007,0.16l0.005,0.161l0.005,0.16l0.003,0.161l0.003,0.161l0.001,0.161l0.001,0.162l-0.001,0.162l-0.001,0.161l-0.003,0.161l-0.003,0.161l-0.005,0.16l-0.005,0.161l-0.007,0.16l-0.008,0.16l-0.008,0.159l-0.01,0.16l-0.01,0.159l-0.012,0.158l-0.013,0.159l-0.013,0.158l-0.015,0.158l-0.015,0.158l-0.017,0.157l-0.017,0.157l-0.019,0.157l-0.019,0.156l-0.02,0.156l-0.022,0.156l-0.022,0.156l-0.023,0.155l-0.024,0.155l-0.026,0.155l-0.026,0.154l-0.027,0.154l-0.028,0.154l-0.029,0.153l-0.03,0.153l-0.03,0.153l-0.032,0.152l-0.033,0.152l-0.033,0.152l-0.035,0.151l-0.035,0.151l-0.036,0.151l-0.038,0.15l-0.038,0.15l-0.039,0.149l-0.04,0.15l-0.04,0.148l-0.042,0.149l-0.043,0.148l-0.043,0.148l-0.044,0.147l-0.046,0.147l-0.046,0.146l-0.047,0.147l-0.048,0.145l-0.048,0.146l-0.05,0.145l-0.051,0.144l-0.051,0.144l-0.052,0.144l-0.053,0.143l-0.054,0.143l-0.055,0.143l-0.055,0.142l-0.057,0.142l-0.057,0.141l-0.058,0.141l-0.059,0.14l-0.06,0.14l-0.06,0.14l-0.062,0.139l-0.062,0.138l-0.063,0.139l-0.064,0.137l-0.064,0.138l-0.066,0.137l-0.066,0.136l-0.067,0.136l-0.068,0.135l-0.069,0.135l-0.069,0.135l-0.07,0.134l-0.071,0.133l-0.072,0.133l-0.073,0.133l-0.073,0.132l-0.074,0.132l-0.075,0.131l-0.076,0.13l-0.076,0.131l-0.078,0.129l-0.077,0.129l-0.079,0.129l-0.08,0.128l-0.08,0.128l-0.081,0.127l-0.082,0.126l-0.082,0.126l-0.083,0.126l-0.084,0.125l-0.085,0.124l-0.085,0.124l-0.086,0.123l-0.087,0.123l-0.087,0.122l-0.089,0.122l-0.089,0.121l-0.089,0.121l-0.091,0.12l-0.091,0.119l-0.092,0.119l-0.092,0.119l-0.093,0.118l-0.094,0.117l-0.095,0.116l-0.095,0.116l-0.096,0.116l-0.096,0.115l-0.098,0.114l-0.097,0.114l-0.099,0.113l-0.099,0.113l-0.1,0.111l-0.101,0.112l-0.101,0.11l-0.102,0.111l-0.102,0.109l-0.104,0.109l-0.103,0.108l-0.105,0.108l-0.105,0.107l-0.106,0.106l-0.106,0.106l-0.107,0.105l-0.108,0.105l-0.108,0.103l-0.109,0.104l-0.109,0.102l-0.111,0.102l-0.11,0.101l-0.112,0.101l-0.111,0.1l-0.113,0.099l-0.113,0.099l-0.114,0.097l-0.114,0.098l-0.115,0.096l-0.116,0.096l-0.116,0.095l-0.116,0.095l-0.117,0.094l-0.118,0.093l-0.119,0.092l-0.119,0.092l-0.119,0.091l-0.12,0.091l-0.121,0.089l-0.121,0.089l-0.122,0.089l-0.122,0.087l-0.123,0.087l-0.123,0.086l-0.124,0.085l-0.124,0.085l-0.125,0.084l-0.126,0.083l-0.126,0.082l-0.126,0.082l-0.127,0.081l-0.128,0.08l-0.128,0.08l-0.129,0.079l-0.129,0.077l-0.129,0.078l-0.131,0.076l-0.13,0.076l-0.131,0.075l-0.132,0.074l-0.132,0.073l-0.133,0.073l-0.133,0.072l-0.133,0.071l-0.134,0.07l-0.135,0.069l-0.135,0.069l-0.135,0.068l-0.136,0.067l-0.136,0.066l-0.137,0.066l-0.138,0.064l-0.137,0.064l-0.139,0.063l-0.138,0.062l-0.139,0.062l-0.14,0.06l-0.14,0.06l-0.14,0.059l-0.141,0.058l-0.141,0.057l-0.142,0.057l-0.142,0.055l-0.143,0.055l-0.143,0.054l-0.143,0.053l-0.144,0.052l-0.144,0.051l-0.144,0.051l-0.145,0.05l-0.146,0.048l-0.145,0.048l-0.147,0.047l-0.146,0.046l-0.147,0.046l-0.147,0.044l-0.148,0.043l-0.148,0.043l-0.149,0.042l-0.148,0.04l-0.15,0.04l-0.149,0.039l-0.15,0.038l-0.15,0.038l-0.151,0.036l-0.151,0.035l-0.151,0.035l-0.152,0.033l-0.152,0.033l-0.152,0.032l-0.153,0.03l-0.153,0.03l-0.153,0.029l-0.154,0.028l-0.154,0.027l-0.154,0.026l-0.155,0.026l-0.155,0.024l-0.155,0.023l-0.156,0.022l-0.156,0.022l-0.156,0.02l-0.156,0.019l-0.157,0.019l-0.157,0.017l-0.157,0.017l-0.158,0.015l-0.158,0.015l-0.158,0.013l-0.159,0.013l-0.158,0.012l-0.159,0.01l-0.16,0.01l-0.159,0.008l-0.16,0.008l-0.16,0.007l-0.161,0.005l-0.16,0.005l-0.161,0.003l-0.161,0.003l-0.161,0.001l-0.162,0.001l-0.162,-0.001l-0.161,-0.001l-0.161,-0.003l-0.161,-0.003l-0.16,-0.005l-0.161,-0.005l-0.16,-0.007l-0.16,-0.008l-0.159,-0.008l-0.16,-0.01l-0.159,-0.01l-0.158,-0.012l-0.159,-0.013l-0.158,-0.013l-0.158,-0.015l-0.158,-0.015l-0.157,-0.017l-0.157,-0.017l-0.157,-0.019l-0.156,-0.019l-0.156,-0.02l-0.156,-0.022l-0.156,-0.022l-0.155,-0.023l-0.155,-0.024l-0.155,-0.026l-0.154,-0.026l-0.154,-0.027l-0.154,-0.028l-0.153,-0.029l-0.153,-0.03l-0.153,-0.03l-0.152,-0.032l-0.152,-0.033l-0.152,-0.033l-0.151,-0.035l-0.151,-0.035l-0.151,-0.036l-0.15,-0.038l-0.15,-0.038l-0.149,-0.039l-0.15,-0.04l-0.148,-0.04l-0.149,-0.042l-0.148,-0.043l-0.148,-0.043l-0.147,-0.044l-0.147,-0.046l-0.146,-0.046l-0.147,-0.047l-0.145,-0.048l-0.146,-0.048l-0.145,-0.05l-0.144,-0.051l-0.144,-0.051l-0.144,-0.052l-0.143,-0.053l-0.143,-0.054l-0.143,-0.055l-0.142,-0.055l-0.142,-0.057l-0.141,-0.057l-0.141,-0.058l-0.14,-0.059l-0.14,-0.06l-0.14,-0.06l-0.139,-0.062l-0.138,-0.062l-0.139,-0.063l-0.137,-0.064l-0.138,-0.064l-0.137,-0.066l-0.136,-0.066l-0.136,-0.067l-0.135,-0.068l-0.135,-0.069l-0.135,-0.069l-0.134,-0.07l-0.133,-0.071l-0.133,-0.072l-0.133,-0.073l-0.132,-0.073l-0.132,-0.074l-0.131,-0.075l-0.13,-0.076l-0.131,-0.076l-0.129,-0.078l-0.129,-0.077l-0.129,-0.079l-0.128,-0.08l-0.128,-0.08l-0.127,-0.081l-0.126,-0.082l-0.126,-0.082l-0.126,-0.083l-0.125,-0.084l-0.124,-0.085l-0.124,-0.085l-0.123,-0.086l-0.123,-0.087l-0.122,-0.087l-0.122,-0.089l-0.121,-0.089l-0.121,-0.089l-0.12,-0.091l-0.119,-0.091l-0.119,-0.092l-0.119,-0.092l-0.118,-0.093l-0.117,-0.094l-0.116,-0.095l-0.116,-0.095l-0.116,-0.096l-0.115,-0.096l-0.114,-0.098l-0.114,-0.097l-0.113,-0.099l-0.113,-0.099l-0.111,-0.1l-0.112,-0.101l-0.11,-0.101l-0.111,-0.102l-0.109,-0.102l-0.109,-0.104l-0.108,-0.103l-0.108,-0.105l-0.107,-0.105l-0.106,-0.106l-0.106,-0.106l-0.105,-0.107l-0.105,-0.108l-0.103,-0.108l-0.104,-0.109l-0.102,-0.109l-0.102,-0.111l-0.101,-0.11l-0.101,-0.112l-0.1,-0.111l-0.099,-0.113l-0.099,-0.113l-0.097,-0.114l-0.098,-0.114l-0.096,-0.115l-0.096,-0.116l-0.095,-0.116l-0.095,-0.116l-0.094,-0.117l-0.093,-0.118l-0.092,-0.119l-0.092,-0.119l-0.091,-0.119l-0.091,-0.12l-0.089,-0.121l-0.089,-0.121l-0.089,-0.122l-0.087,-0.122l-0.087,-0.123l-0.086,-0.123l-0.085,-0.124l-0.085,-0.124l-0.084,-0.125l-0.083,-0.126l-0.082,-0.126l-0.082,-0.126l-0.081,-0.127l-0.08,-0.128l-0.08,-0.128l-0.079,-0.129l-0.077,-0.129l-0.078,-0.129l-0.076,-0.131l-0.076,-0.13l-0.075,-0.131l-0.074,-0.132l-0.073,-0.132l-0.073,-0.133l-0.072,-0.133l-0.071,-0.133l-0.07,-0.134l-0.069,-0.135l-0.069,-0.135l-0.068,-0.135l-0.067,-0.136l-0.066,-0.136l-0.066,-0.137l-0.064,-0.138l-0.064,-0.137l-0.063,-0.139l-0.062,-0.138l-0.062,-0.139l-0.06,-0.14l-0.06,-0.14l-0.059,-0.14l-0.058,-0.141l-0.057,-0.141l-0.057,-0.142l-0.055,-0.142l-0.055,-0.143l-0.054,-0.143l-0.053,-0.143l-0.052,-0.144l-0.051,-0.144l-0.051,-0.144l-0.05,-0.145l-0.048,-0.146l-0.048,-0.145l-0.047,-0.147l-0.046,-0.146l-0.046,-0.147l-0.044,-0.147l-0.043,-0.148l-0.043,-0.148l-0.042,-0.149l-0.04,-0.148l-0.04,-0.15l-0.039,-0.149l-0.038,-0.15l-0.038,-0.15l-0.036,-0.151l-0.035,-0.151l-0.035,-0.151l-0.033,-0.152l-0.033,-0.152l-0.032,-0.152l-0.03,-0.153l-0.03,-0.153l-0.029,-0.153l-0.028,-0.154l-0.027,-0.154l-0.026,-0.154l-0.026,-0.155l-0.024,-0.155l-0.023,-0.155l-0.022,-0.156l-0.022,-0.156l-0.02,-0.156l-0.019,-0.156l-0.019,-0.157l-0.017,-0.157l-0.017,-0.157l-0.015,-0.158l-0.015,-0.158l-0.013,-0.158l-0.013,-0.159l-0.012,-0.158l-0.01,-0.159l-0.01,-0.16l-0.008,-0.159l-0.008,-0.16l-0.007,-0.16l-0.005,-0.161l-0.005,-0.16l-0.003,-0.161l-0.003,-0.161l-0.001,-0.161l-0.001,-0.162l0.001,-0.162l0.001,-0.161l0.003,-0.161l0.003,-0.161l0.005,-0.16l0.005,-0.161l0.007,-0.16l0.008,-0.16l0.008,-0.159l0.01,-0.16l0.01,-0.159l0.012,-0.158l0.013,-0.159l0.013,-0.158l0.015,-0.158l0.015,-0.158l0.017,-0.157l0.017,-0.157l0.019,-0.157l0.019,-0.156l0.02,-0.156l0.022,-0.156l0.022,-0.156l0.023,-0.155l0.024,-0.155l0.026,-0.155l0.026,-0.154l0.027,-0.154l0.028,-0.154l0.029,-0.153l0.03,-0.153l0.03,-0.153l0.032,-0.152l0.033,-0.152l0.033,-0.152l0.035,-0.151l0.035,-0.151l0.036,-0.151l0.038,-0.15l0.038,-0.15l0.039,-0.149l0.04,-0.15l0.04,-0.148l0.042,-0.149l0.043,-0.148l0.043,-0.148l0.044,-0.147l0.046,-0.147l0.046,-0.146l0.047,-0.147l0.048,-0.145l0.048,-0.146l0.05,-0.145l0.051,-0.144l0.051,-0.144l0.052,-0.144l0.053,-0.143l0.054,-0.143l0.055,-0.143l0.055,-0.142l0.057,-0.142l0.057,-0.141l0.058,-0.141l0.059,-0.14l0.06,-0.14l0.06,-0.14l0.062,-0.139l0.062,-0.138l0.063,-0.139l0.064,-0.137l0.064,-0.138l0.066,-0.137l0.066,-0.136l0.067,-0.136l0.068,-0.135l0.069,-0.135l0.069,-0.135l0.07,-0.134l0.071,-0.133l0.072,-0.133l0.073,-0.133l0.073,-0.132l0.074,-0.132l0.075,-0.131l0.076,-0.13l0.076,-0.131l0.078,-0.129l0.077,-0.129l0.079,-0.129l0.08,-0.128l0.08,-0.128l0.081,-0.127l0.082,-0.126l0.082,-0.126l0.083,-0.126l0.084,-0.125l0.085,-0.124l0.085,-0.124l0.086,-0.123l0.087,-0.123l0.087,-0.122l0.089,-0.122l0.089,-0.121l0.089,-0.121l0.091,-0.12l0.091,-0.119l0.092,-0.119l0.092,-0.119l0.093,-0.118l0.094,-0.117l0.095,-0.116l0.095,-0.116l0.096,-0.116l0.096,-0.115l0.098,-0.114l0.097,-0.114l0.099,-0.113l0.099,-0.113l0.1,-0.111l0.101,-0.112l0.101,-0.11l0.102,-0.111l0.102,-0.109l0.104,-0.109l0.103,-0.108l0.105,-0.108l0.105,-0.107l0.106,-0.106l0.106,-0.106l0.107,-0.105l0.108,-0.105l0.108,-0.103l0.109,-0.104l0.109,-0.102l0.111,-0.102l0.11,-0.101l0.112,-0.101l0.111,-0.1l0.113,-0.099l0.113,-0.099l0.114,-0.097l0.114,-0.098l0.115,-0.096l0.116,-0.096l0.116,-0.095l0.116,-0.095l0.117,-0.094l0.118,-0.093l0.119,-0.092l0.119,-0.092l0.119,-0.091l0.12,-0.091l0.121,-0.089l0.121,-0.089l0.122,-0.089l0.122,-0.087l0.123,-0.087l0.123,-0.086l0.124,-0.085l0.124,-0.085l0.125,-0.084l0.126,-0.083l0.126,-0.082l0.126,-0.082l0.127,-0.081l0.128,-0.08l0.128,-0.08l0.129,-0.079l0.129,-0.077l0.129,-0.078l0.131,-0.076l0.13,-0.076l0.131,-0.075l0.132,-0.074l0.132,-0.073l0.133,-0.073l0.133,-0.072l0.133,-0.071l0.134,-0.07l0.135,-0.069l0.135,-0.069l0.135,-0.068l0.136,-0.067l0.136,-0.066l0.137,-0.066l0.138,-0.064l0.137,-0.064l0.139,-0.063l0.138,-0.062l0.139,-0.062l0.14,-0.06l0.14,-0.06l0.14,-0.059l0.141,-0.058l0.141,-0.057l0.142,-0.057l0.142,-0.055l0.143,-0.055l0.143,-0.054l0.143,-0.053l0.144,-0.052l0.144,-0.051l0.144,-0.051l0.145,-0.05l0.146,-0.048l0.145,-0.048l0.147,-0.047l0.146,-0.046l0.147,-0.046l0.147,-0.044l0.148,-0.043l0.148,-0.043l0.149,-0.042l0.148,-0.04l0.15,-0.04l0.149,-0.039l0.15,-0.038l0.15,-0.038l0.151,-0.036l0.151,-0.035l0.151,-0.035l0.152,-0.033l0.152,-0.033l0.152,-0.032l0.153,-0.03l0.153,-0.03l0.153,-0.029l0.154,-0.028l0.154,-0.027l0.154,-0.026l0.155,-0.026l0.155,-0.024l0.155,-0.023l0.156,-0.022l0.156,-0.022l0.156,-0.02l0.156,-0.019l0.157,-0.019l0.157,-0.017l0.157,-0.017l0.158,-0.015l0.158,-0.015l0.158,-0.013l0.159,-0.013l0.158,-0.012l0.159,-0.01l0.16,-0.01l0.159,-0.008l0.16,-0.008l0.16,-0.007l0.161,-0.005l0.16,-0.005l0.161,-0.003l0.161,-0.003l0.161,-0.001l0.162,-0.001l0.162,0.001Zm-0.305,3l-0.142,0.001l-0.142,0.002l-0.142,0.003l-0.141,0.004l-0.142,0.005l-0.141,0.006l-0.14,0.007l-0.141,0.007l-0.141,0.009l-0.139,0.009l-0.14,0.01l-0.141,0.011l-0.138,0.012l-0.139,0.013l-0.139,0.014l-0.138,0.014l-0.139,0.016l-0.137,0.016l-0.138,0.017l-0.138,0.018l-0.138,0.019l-0.136,0.019l-0.136,0.021l-0.137,0.021l-0.136,0.022l-0.136,0.023l-0.135,0.024l-0.135,0.025l-0.135,0.025l-0.134,0.026l-0.134,0.027l-0.134,0.028l-0.134,0.029l-0.134,0.029l-0.133,0.031l-0.132,0.031l-0.133,0.032l-0.132,0.032l-0.131,0.034l-0.132,0.034l-0.132,0.035l-0.131,0.036l-0.129,0.037l-0.13,0.037l-0.13,0.038l-0.13,0.04l-0.13,0.04l-0.127,0.039l-0.129,0.042l-0.129,0.042l-0.127,0.043l-0.127,0.043l-0.128,0.045l-0.127,0.045l-0.126,0.046l-0.126,0.047l-0.125,0.047l-0.126,0.048l-0.125,0.049l-0.124,0.049l-0.124,0.051l-0.124,0.051l-0.124,0.052l-0.123,0.052l-0.123,0.054l-0.122,0.054l-0.121,0.054l-0.122,0.056l-0.122,0.056l-0.12,0.056l-0.12,0.058l-0.122,0.059l-0.118,0.058l-0.118,0.06l-0.121,0.061l-0.117,0.06l-0.118,0.062l-0.119,0.064l-0.116,0.062l-0.117,0.064l-0.116,0.065l-0.114,0.064l-0.116,0.066l-0.116,0.068l-0.116,0.067l-0.112,0.067l-0.113,0.069l-0.113,0.069l-0.113,0.07l-0.113,0.071l-0.113,0.072l-0.11,0.071l-0.111,0.073l-0.112,0.074l-0.109,0.072l-0.108,0.075l-0.11,0.075l-0.109,0.076l-0.108,0.076l-0.108,0.078l-0.108,0.078l-0.106,0.078l-0.106,0.079l-0.105,0.078l-0.106,0.081l-0.104,0.081l-0.104,0.081l-0.104,0.083l-0.105,0.083l-0.102,0.083l-0.102,0.084l-0.102,0.084l-0.1,0.084l-0.101,0.087l-0.1,0.086l-0.1,0.087l-0.099,0.087l-0.098,0.087l-0.1,0.091l-0.097,0.088l-0.095,0.089l-0.098,0.091l-0.096,0.091l-0.095,0.092l-0.095,0.091l-0.093,0.092l-0.095,0.095l-0.094,0.093l-0.091,0.093l-0.093,0.096l-0.092,0.096l-0.09,0.095l-0.09,0.096l-0.09,0.098l-0.089,0.097l-0.089,0.099l-0.087,0.097l-0.088,0.1l-0.088,0.1l-0.084,0.098l-0.086,0.102l-0.086,0.102l-0.085,0.102l-0.085,0.103l-0.082,0.102l-0.082,0.102l-0.082,0.104l-0.082,0.105l-0.081,0.104l-0.079,0.104l-0.08,0.107l-0.08,0.107l-0.078,0.106l-0.077,0.106l-0.078,0.109l-0.075,0.107l-0.077,0.11l-0.075,0.108l-0.074,0.11l-0.075,0.111l-0.072,0.11l-0.073,0.11l-0.071,0.111l-0.073,0.114l-0.07,0.111l-0.069,0.112l-0.071,0.116l-0.068,0.113l-0.067,0.112l-0.067,0.114l-0.067,0.116l-0.066,0.116l-0.066,0.116l-0.064,0.116l-0.064,0.116l-0.064,0.12l-0.062,0.115l-0.061,0.117l-0.062,0.119l-0.059,0.117l-0.061,0.121l-0.059,0.12l-0.058,0.121l-0.057,0.118l-0.057,0.121l-0.056,0.122l-0.056,0.122l-0.055,0.122l-0.053,0.121l-0.054,0.123l-0.053,0.124l-0.051,0.121l-0.051,0.125l-0.051,0.125l-0.049,0.123l-0.049,0.126l-0.049,0.127l-0.046,0.124l-0.046,0.124l-0.048,0.131l-0.045,0.125l-0.043,0.126l-0.044,0.129l-0.043,0.126l-0.042,0.127l-0.041,0.13l-0.041,0.131l-0.04,0.128l-0.039,0.128l-0.038,0.129l-0.037,0.13l-0.037,0.132l-0.036,0.133l-0.035,0.13l-0.034,0.131l-0.034,0.131l-0.032,0.132l-0.032,0.132l-0.031,0.132l-0.031,0.135l-0.029,0.133l-0.028,0.131l-0.029,0.137l-0.027,0.134l-0.026,0.134l-0.026,0.138l-0.024,0.132l-0.024,0.135l-0.023,0.136l-0.022,0.136l-0.021,0.137l-0.02,0.134l-0.02,0.14l-0.019,0.138l-0.018,0.135l-0.017,0.138l-0.016,0.138l-0.016,0.139l-0.014,0.136l-0.014,0.14l-0.013,0.14l-0.012,0.14l-0.011,0.141l-0.01,0.137l-0.009,0.139l-0.009,0.141l-0.007,0.142l-0.007,0.139l-0.006,0.142l-0.005,0.143l-0.004,0.14l-0.003,0.14l-0.002,0.144l-0.001,0.144l-0.001,0.141l0.001,0.141l0.001,0.144l0.002,0.144l0.003,0.14l0.004,0.14l0.005,0.143l0.006,0.142l0.007,0.139l0.007,0.142l0.009,0.141l0.009,0.139l0.01,0.137l0.011,0.141l0.012,0.14l0.013,0.14l0.014,0.14l0.014,0.136l0.016,0.139l0.016,0.138l0.017,0.138l0.018,0.135l0.019,0.138l0.02,0.14l0.02,0.134l0.021,0.137l0.022,0.136l0.023,0.136l0.024,0.135l0.024,0.132l0.026,0.138l0.026,0.134l0.027,0.134l0.029,0.137l0.028,0.131l0.029,0.133l0.031,0.135l0.031,0.132l0.032,0.132l0.032,0.132l0.034,0.131l0.034,0.131l0.035,0.13l0.036,0.133l0.037,0.132l0.037,0.13l0.038,0.129l0.039,0.128l0.04,0.128l0.041,0.131l0.041,0.13l0.042,0.127l0.043,0.126l0.044,0.129l0.043,0.126l0.045,0.125l0.048,0.131l0.046,0.124l0.046,0.124l0.049,0.127l0.049,0.126l0.049,0.123l0.051,0.125l0.051,0.125l0.051,0.121l0.053,0.124l0.054,0.123l0.053,0.121l0.055,0.122l0.056,0.122l0.056,0.122l0.057,0.121l0.057,0.118l0.058,0.121l0.059,0.12l0.061,0.121l0.059,0.117l0.062,0.119l0.061,0.117l0.062,0.115l0.064,0.12l0.064,0.116l0.064,0.116l0.066,0.116l0.066,0.116l0.067,0.116l0.067,0.114l0.067,0.112l0.068,0.113l0.071,0.116l0.069,0.112l0.07,0.111l0.073,0.114l0.071,0.111l0.073,0.11l0.072,0.11l0.075,0.111l0.074,0.11l0.075,0.108l0.077,0.11l0.075,0.107l0.078,0.109l0.077,0.106l0.078,0.106l0.08,0.107l0.08,0.107l0.079,0.104l0.081,0.104l0.082,0.105l0.082,0.104l0.082,0.102l0.082,0.102l0.085,0.103l0.085,0.102l0.086,0.102l0.086,0.102l0.084,0.098l0.088,0.1l0.088,0.1l0.087,0.097l0.089,0.099l0.089,0.097l0.09,0.098l0.09,0.096l0.09,0.095l0.092,0.096l0.093,0.096l0.091,0.093l0.094,0.093l0.095,0.095l0.093,0.092l0.095,0.091l0.095,0.092l0.096,0.091l0.098,0.091l0.095,0.089l0.097,0.088l0.1,0.091l0.098,0.087l0.099,0.087l0.1,0.087l0.1,0.086l0.101,0.087l0.1,0.084l0.102,0.084l0.102,0.084l0.102,0.083l0.105,0.083l0.104,0.083l0.104,0.081l0.104,0.081l0.106,0.081l0.105,0.078l0.106,0.079l0.106,0.078l0.108,0.078l0.108,0.078l0.108,0.076l0.109,0.076l0.11,0.075l0.108,0.075l0.109,0.072l0.112,0.074l0.111,0.073l0.11,0.071l0.113,0.072l0.113,0.071l0.113,0.07l0.113,0.069l0.113,0.069l0.112,0.067l0.116,0.067l0.116,0.068l0.116,0.066l0.114,0.064l0.116,0.065l0.117,0.064l0.116,0.062l0.119,0.064l0.118,0.062l0.117,0.06l0.121,0.061l0.118,0.06l0.118,0.058l0.122,0.059l0.12,0.058l0.12,0.056l0.122,0.056l0.122,0.056l0.121,0.054l0.122,0.054l0.123,0.054l0.123,0.052l0.124,0.052l0.124,0.051l0.124,0.051l0.124,0.049l0.125,0.049l0.126,0.048l0.125,0.047l0.126,0.047l0.126,0.046l0.127,0.045l0.128,0.045l0.127,0.043l0.127,0.043l0.129,0.042l0.129,0.042l0.127,0.039l0.13,0.04l0.13,0.04l0.13,0.038l0.13,0.037l0.129,0.037l0.131,0.036l0.132,0.035l0.132,0.034l0.131,0.034l0.132,0.032l0.133,0.032l0.132,0.031l0.133,0.031l0.134,0.029l0.134,0.029l0.134,0.028l0.134,0.027l0.134,0.026l0.135,0.025l0.135,0.025l0.135,0.024l0.136,0.023l0.136,0.022l0.137,0.021l0.136,0.021l0.136,0.019l0.138,0.019l0.138,0.018l0.138,0.017l0.137,0.016l0.139,0.016l0.138,0.014l0.139,0.014l0.139,0.013l0.138,0.012l0.141,0.011l0.14,0.01l0.139,0.009l0.141,0.009l0.141,0.007l0.14,0.007l0.141,0.006l0.142,0.005l0.141,0.004l0.142,0.003l0.142,0.002l0.142,0.001l0.143,0.001l0.143,-0.001l0.142,-0.001l0.142,-0.002l0.142,-0.003l0.141,-0.004l0.142,-0.005l0.141,-0.006l0.14,-0.007l0.141,-0.007l0.141,-0.009l0.139,-0.009l0.14,-0.01l0.141,-0.011l0.138,-0.012l0.139,-0.013l0.139,-0.014l0.138,-0.014l0.139,-0.016l0.137,-0.016l0.138,-0.017l0.138,-0.018l0.138,-0.019l0.136,-0.019l0.136,-0.021l0.137,-0.021l0.136,-0.022l0.136,-0.023l0.135,-0.024l0.135,-0.025l0.135,-0.025l0.134,-0.026l0.134,-0.027l0.134,-0.028l0.134,-0.029l0.134,-0.029l0.133,-0.031l0.132,-0.031l0.133,-0.032l0.132,-0.032l0.131,-0.034l0.132,-0.034l0.132,-0.035l0.131,-0.036l0.129,-0.037l0.13,-0.037l0.13,-0.038l0.13,-0.04l0.13,-0.04l0.127,-0.039l0.129,-0.042l0.129,-0.042l0.127,-0.043l0.127,-0.043l0.128,-0.045l0.127,-0.045l0.126,-0.046l0.126,-0.047l0.125,-0.047l0.126,-0.048l0.125,-0.049l0.124,-0.049l0.124,-0.051l0.124,-0.051l0.124,-0.052l0.123,-0.052l0.123,-0.054l0.122,-0.054l0.121,-0.054l0.122,-0.056l0.122,-0.056l0.12,-0.056l0.12,-0.058l0.122,-0.059l0.118,-0.058l0.118,-0.06l0.121,-0.061l0.117,-0.06l0.118,-0.062l0.119,-0.064l0.116,-0.062l0.117,-0.064l0.116,-0.065l0.114,-0.064l0.116,-0.066l0.116,-0.068l0.116,-0.067l0.112,-0.067l0.113,-0.069l0.113,-0.069l0.113,-0.07l0.113,-0.071l0.113,-0.072l0.11,-0.071l0.111,-0.073l0.112,-0.074l0.109,-0.072l0.108,-0.075l0.11,-0.075l0.109,-0.076l0.108,-0.076l0.108,-0.078l0.108,-0.078l0.106,-0.078l0.106,-0.079l0.105,-0.078l0.106,-0.081l0.104,-0.081l0.104,-0.081l0.104,-0.083l0.105,-0.083l0.102,-0.083l0.102,-0.084l0.102,-0.084l0.1,-0.084l0.101,-0.087l0.1,-0.086l0.1,-0.087l0.099,-0.087l0.098,-0.087l0.1,-0.091l0.097,-0.088l0.095,-0.089l0.098,-0.091l0.096,-0.091l0.095,-0.092l0.095,-0.091l0.093,-0.092l0.095,-0.095l0.094,-0.093l0.091,-0.093l0.093,-0.096l0.092,-0.096l0.09,-0.095l0.09,-0.096l0.09,-0.098l0.089,-0.097l0.089,-0.099l0.087,-0.097l0.088,-0.1l0.088,-0.1l0.084,-0.098l0.086,-0.102l0.086,-0.102l0.085,-0.102l0.085,-0.103l0.082,-0.102l0.082,-0.102l0.082,-0.104l0.082,-0.105l0.081,-0.104l0.079,-0.104l0.08,-0.107l0.08,-0.107l0.078,-0.106l0.077,-0.106l0.078,-0.109l0.075,-0.107l0.077,-0.11l0.075,-0.108l0.074,-0.11l0.075,-0.111l0.072,-0.11l0.073,-0.11l0.071,-0.111l0.073,-0.114l0.07,-0.111l0.069,-0.112l0.071,-0.116l0.068,-0.113l0.067,-0.112l0.067,-0.114l0.067,-0.116l0.066,-0.116l0.066,-0.116l0.064,-0.116l0.064,-0.116l0.064,-0.12l0.062,-0.115l0.061,-0.117l0.062,-0.119l0.059,-0.117l0.061,-0.121l0.059,-0.12l0.058,-0.121l0.057,-0.118l0.057,-0.121l0.056,-0.122l0.056,-0.122l0.055,-0.122l0.053,-0.121l0.054,-0.123l0.053,-0.124l0.051,-0.121l0.051,-0.125l0.051,-0.125l0.049,-0.123l0.049,-0.126l0.049,-0.127l0.046,-0.124l0.046,-0.124l0.048,-0.131l0.045,-0.125l0.043,-0.126l0.044,-0.129l0.043,-0.126l0.042,-0.127l0.041,-0.13l0.041,-0.131l0.04,-0.128l0.039,-0.128l0.038,-0.129l0.037,-0.13l0.037,-0.132l0.036,-0.133l0.035,-0.13l0.034,-0.131l0.034,-0.131l0.032,-0.132l0.032,-0.132l0.031,-0.132l0.031,-0.135l0.029,-0.133l0.028,-0.131l0.029,-0.137l0.027,-0.134l0.026,-0.134l0.026,-0.138l0.024,-0.132l0.024,-0.135l0.023,-0.136l0.022,-0.136l0.021,-0.137l0.02,-0.134l0.02,-0.14l0.019,-0.138l0.018,-0.135l0.017,-0.138l0.016,-0.138l0.016,-0.139l0.014,-0.136l0.014,-0.14l0.013,-0.14l0.012,-0.14l0.011,-0.141l0.01,-0.137l0.009,-0.139l0.009,-0.141l0.007,-0.142l0.007,-0.139l0.006,-0.142l0.005,-0.143l0.004,-0.14l0.003,-0.14l0.002,-0.144l0.001,-0.144l0.001,-0.141l-0.001,-0.141l-0.001,-0.144l-0.002,-0.144l-0.003,-0.14l-0.004,-0.14l-0.005,-0.143l-0.006,-0.142l-0.007,-0.139l-0.007,-0.142l-0.009,-0.141l-0.009,-0.139l-0.01,-0.137l-0.011,-0.141l-0.012,-0.14l-0.013,-0.14l-0.014,-0.14l-0.014,-0.136l-0.016,-0.139l-0.016,-0.138l-0.017,-0.138l-0.018,-0.135l-0.019,-0.138l-0.02,-0.14l-0.02,-0.134l-0.021,-0.137l-0.022,-0.136l-0.023,-0.136l-0.024,-0.135l-0.024,-0.132l-0.026,-0.138l-0.026,-0.134l-0.027,-0.134l-0.029,-0.137l-0.028,-0.131l-0.029,-0.133l-0.031,-0.135l-0.031,-0.132l-0.032,-0.132l-0.032,-0.132l-0.034,-0.131l-0.034,-0.131l-0.035,-0.13l-0.036,-0.133l-0.037,-0.132l-0.037,-0.13l-0.038,-0.129l-0.039,-0.128l-0.04,-0.128l-0.041,-0.131l-0.041,-0.13l-0.042,-0.127l-0.043,-0.126l-0.044,-0.129l-0.043,-0.126l-0.045,-0.125l-0.048,-0.131l-0.046,-0.124l-0.046,-0.124l-0.049,-0.127l-0.049,-0.126l-0.049,-0.123l-0.051,-0.125l-0.051,-0.125l-0.051,-0.121l-0.053,-0.124l-0.054,-0.123l-0.053,-0.121l-0.055,-0.122l-0.056,-0.122l-0.056,-0.122l-0.057,-0.121l-0.057,-0.118l-0.058,-0.121l-0.059,-0.12l-0.061,-0.121l-0.059,-0.117l-0.062,-0.119l-0.061,-0.117l-0.062,-0.115l-0.064,-0.12l-0.064,-0.116l-0.064,-0.116l-0.066,-0.116l-0.066,-0.116l-0.067,-0.116l-0.067,-0.114l-0.067,-0.112l-0.068,-0.113l-0.071,-0.116l-0.069,-0.112l-0.07,-0.111l-0.073,-0.114l-0.071,-0.111l-0.073,-0.11l-0.072,-0.11l-0.075,-0.111l-0.074,-0.11l-0.075,-0.108l-0.077,-0.11l-0.075,-0.107l-0.078,-0.109l-0.077,-0.106l-0.078,-0.106l-0.08,-0.107l-0.08,-0.107l-0.079,-0.104l-0.081,-0.104l-0.082,-0.105l-0.082,-0.104l-0.082,-0.102l-0.082,-0.102l-0.085,-0.103l-0.085,-0.102l-0.086,-0.102l-0.086,-0.102l-0.084,-0.098l-0.088,-0.1l-0.088,-0.1l-0.087,-0.097l-0.089,-0.099l-0.089,-0.097l-0.09,-0.098l-0.09,-0.096l-0.09,-0.095l-0.092,-0.096l-0.093,-0.096l-0.091,-0.093l-0.094,-0.093l-0.095,-0.095l-0.093,-0.092l-0.095,-0.091l-0.095,-0.092l-0.096,-0.091l-0.098,-0.091l-0.095,-0.089l-0.097,-0.088l-0.1,-0.091l-0.098,-0.087l-0.099,-0.087l-0.1,-0.087l-0.1,-0.086l-0.101,-0.087l-0.1,-0.084l-0.102,-0.084l-0.102,-0.084l-0.102,-0.083l-0.105,-0.083l-0.104,-0.083l-0.104,-0.081l-0.104,-0.081l-0.106,-0.081l-0.105,-0.078l-0.106,-0.079l-0.106,-0.078l-0.108,-0.078l-0.108,-0.078l-0.108,-0.076l-0.109,-0.076l-0.11,-0.075l-0.108,-0.075l-0.109,-0.072l-0.112,-0.074l-0.111,-0.073l-0.11,-0.071l-0.113,-0.072l-0.113,-0.071l-0.113,-0.07l-0.113,-0.069l-0.113,-0.069l-0.112,-0.067l-0.116,-0.067l-0.116,-0.068l-0.116,-0.066l-0.114,-0.064l-0.116,-0.065l-0.117,-0.064l-0.116,-0.062l-0.119,-0.064l-0.118,-0.062l-0.117,-0.06l-0.121,-0.061l-0.118,-0.06l-0.118,-0.058l-0.122,-0.059l-0.12,-0.058l-0.12,-0.056l-0.122,-0.056l-0.122,-0.056l-0.121,-0.054l-0.122,-0.054l-0.123,-0.054l-0.123,-0.052l-0.124,-0.052l-0.124,-0.051l-0.124,-0.051l-0.124,-0.049l-0.125,-0.049l-0.126,-0.048l-0.125,-0.047l-0.126,-0.047l-0.126,-0.046l-0.127,-0.045l-0.128,-0.045l-0.127,-0.043l-0.127,-0.043l-0.129,-0.042l-0.129,-0.042l-0.127,-0.039l-0.13,-0.04l-0.13,-0.04l-0.13,-0.038l-0.13,-0.037l-0.129,-0.037l-0.131,-0.036l-0.132,-0.035l-0.132,-0.034l-0.131,-0.034l-0.132,-0.032l-0.133,-0.032l-0.132,-0.031l-0.133,-0.031l-0.134,-0.029l-0.134,-0.029l-0.134,-0.028l-0.134,-0.027l-0.134,-0.026l-0.135,-0.025l-0.135,-0.025l-0.135,-0.024l-0.136,-0.023l-0.136,-0.022l-0.137,-0.021l-0.136,-0.021l-0.136,-0.019l-0.138,-0.019l-0.138,-0.018l-0.138,-0.017l-0.137,-0.016l-0.139,-0.016l-0.138,-0.014l-0.139,-0.014l-0.139,-0.013l-0.138,-0.012l-0.141,-0.011l-0.14,-0.01l-0.139,-0.009l-0.141,-0.009l-0.141,-0.007l-0.14,-0.007l-0.141,-0.006l-0.142,-0.005l-0.141,-0.004l-0.142,-0.003l-0.142,-0.002l-0.142,-0.001l-0.143,-0.001l-0.143,0.001Z" style="fill:#2a2a2a;"/></g></svg>