<?xml version="1.0" encoding="UTF-8" standalone="no"?><!DOCTYPE svg PUBLIC "-//W3C//DTD SVG 1.1//EN" "http://www.w3.org/Graphics/SVG/1.1/DTD/svg11.dtd"><svg width="100%" height="100%" viewBox="0 0 50 50" version="1.1" xmlns="http://www.w3.org/2000/svg" xmlns:xlink="http://www.w3.org/1999/xlink" xml:space="preserve" xmlns:serif="http://www.serif.com/" style="fill-rule:evenodd;clip-rule:evenodd;stroke-linecap:round;stroke-linejoin:round;stroke-miterlimit:2;"><rect id="f_messengerhat_thumb" x="0" y="0" width="50" height="50" style="fill:none;"/><clipPath id="_clip1"><rect x="0" y="0" width="50" height="50"/></clipPath><g clip-path="url(#_clip1)"><circle cx="25" cy="25" r="25" style="fill:none;"/><clipPath id="_clip2"><circle cx="25" cy="25" r="25"/></clipPath><g clip-path="url(#_clip2)"><g><g id="girltato"><path d="M19.345,50.076c1.101,2.703 1.2,5.139 0,7.23" style="fill:none;stroke:#ac8639;stroke-width:1.86px;"/><path d="M31.689,50.1c0.74,2.362 0.779,4.77 0,7.23" style="fill:none;stroke:#ac8639;stroke-width:1.86px;"/><path d="M37.845,36.048c0.401,2.89 1.537,5.049 3.625,6.262" style="fill:none;stroke:#ac8639;stroke-width:1.86px;"/><path id="potato" d="M24.725,10.766c11.617,0 15.717,9.165 15.717,20.454c0,11.289 -3.203,20.454 -15.717,20.454c-12.513,0 -15.717,-9.165 -15.717,-20.454c0,-11.289 4.1,-20.454 15.717,-20.454Z" style="fill:#edbe5e;"/><clipPath id="_clip3"><path d="M24.725,10.766c11.617,0 15.717,9.165 15.717,20.454c0,11.289 -3.203,20.454 -15.717,20.454c-12.513,0 -15.717,-9.165 -15.717,-20.454c0,-11.289 4.1,-20.454 15.717,-20.454Z"/></clipPath><g clip-path="url(#_clip3)"><path id="shadow" d="M24.725,10.766c-20.969,9.545 -9.832,40.214 0,40.908c-12.513,0 -15.717,-9.165 -15.717,-20.454c0,-11.289 4.1,-20.454 15.717,-20.454Z" style="fill:#cda24c;fill-opacity:0.25098;"/><ellipse id="eye_1" cx="22.59" cy="26.693" rx="1.697" ry="1.692" style="fill:#302a1c;"/><ellipse id="eye_2" cx="34.986" cy="26.693" rx="1.697" ry="1.692" style="fill:#302a1c;"/><g id="eyebrows"><path d="M23.513,23.216c-0.684,-0.506 -1.89,-0.436 -2.468,0" style="fill:none;stroke:#ac8639;stroke-opacity:0.5;stroke-width:0.8px;"/><path d="M36.009,23.216c-0.684,-0.506 -1.89,-0.436 -2.469,0" style="fill:none;stroke:#ac8639;stroke-opacity:0.5;stroke-width:0.8px;"/></g><g id="marks"><path d="M13.89,32.846c0.684,-0.506 1.89,-0.436 2.469,0" style="fill:none;stroke:#ac8639;stroke-opacity:0.5;stroke-width:0.8px;"/><path d="M33.565,38.326c0.684,-0.507 1.89,-0.436 2.469,0" style="fill:none;stroke:#ac8639;stroke-opacity:0.5;stroke-width:0.8px;"/><path d="M19.504,42.097c0.684,-0.507 1.89,-0.437 2.468,0" style="fill:none;stroke:#ac8639;stroke-opacity:0.5;stroke-width:0.8px;"/><path d="M26.218,47.416c0.684,-0.507 1.89,-0.437 2.469,0" style="fill:none;stroke:#ac8639;stroke-opacity:0.5;stroke-width:0.8px;"/></g></g><path d="M24.861,10.767l0.135,0.001l0.135,0.002l0.133,0.003l0.133,0.004l0.133,0.004l0.131,0.006l0.131,0.006l0.131,0.007l0.129,0.008l0.129,0.008l0.129,0.01l0.127,0.01l0.127,0.011l0.127,0.012l0.125,0.013l0.125,0.013l0.124,0.015l0.124,0.015l0.123,0.016l0.122,0.016l0.122,0.018l0.121,0.018l0.12,0.019l0.12,0.02l0.119,0.021l0.118,0.021l0.118,0.022l0.117,0.023l0.116,0.024l0.116,0.024l0.115,0.025l0.114,0.026l0.114,0.027l0.113,0.027l0.113,0.028l0.112,0.029l0.111,0.03l0.11,0.031l0.11,0.031l0.11,0.032l0.108,0.032l0.108,0.034l0.107,0.034l0.107,0.035l0.106,0.035l0.106,0.036l0.105,0.038l0.104,0.037l0.103,0.039l0.103,0.039l0.103,0.04l0.101,0.04l0.101,0.042l0.101,0.042l0.1,0.042l0.099,0.044l0.098,0.044l0.098,0.045l0.098,0.045l0.096,0.046l0.097,0.047l0.095,0.048l0.095,0.048l0.094,0.049l0.094,0.049l0.093,0.05l0.092,0.051l0.092,0.052l0.092,0.052l0.09,0.053l0.09,0.054l0.09,0.054l0.089,0.055l0.088,0.055l0.088,0.056l0.087,0.057l0.086,0.058l0.086,0.058l0.085,0.058l0.085,0.06l0.084,0.06l0.084,0.061l0.082,0.061l0.083,0.062l0.082,0.062l0.081,0.063l0.08,0.064l0.08,0.065l0.08,0.065l0.079,0.065l0.078,0.067l0.078,0.066l0.077,0.068l0.076,0.068l0.076,0.068l0.076,0.07l0.075,0.07l0.074,0.07l0.074,0.071l0.073,0.072l0.072,0.072l0.072,0.073l0.072,0.073l0.071,0.074l0.07,0.074l0.07,0.076l0.069,0.075l0.069,0.076l0.068,0.077l0.067,0.078l0.067,0.077l0.067,0.079l0.066,0.079l0.065,0.079l0.065,0.081l0.064,0.08l0.064,0.081l0.063,0.082l0.063,0.083l0.062,0.082l0.061,0.084l0.061,0.084l0.061,0.084l0.06,0.085l0.059,0.085l0.059,0.086l0.058,0.087l0.058,0.087l0.057,0.088l0.057,0.088l0.056,0.088l0.056,0.089l0.055,0.09l0.055,0.09l0.054,0.09l0.053,0.092l0.053,0.091l0.053,0.092l0.052,0.093l0.051,0.093l0.051,0.093l0.051,0.094l0.05,0.095l0.049,0.095l0.049,0.095l0.049,0.096l0.048,0.096l0.047,0.097l0.047,0.098l0.046,0.097l0.046,0.099l0.046,0.098l0.044,0.099l0.045,0.1l0.044,0.1l0.043,0.1l0.043,0.101l0.042,0.102l0.042,0.102l0.042,0.102l0.041,0.102l0.04,0.104l0.04,0.103l0.04,0.104l0.038,0.104l0.039,0.105l0.038,0.105l0.038,0.106l0.037,0.106l0.036,0.107l0.036,0.107l0.036,0.107l0.035,0.107l0.035,0.109l0.034,0.108l0.033,0.109l0.034,0.109l0.032,0.11l0.033,0.11l0.032,0.11l0.031,0.111l0.031,0.111l0.03,0.112l0.03,0.112l0.03,0.112l0.029,0.113l0.028,0.113l0.028,0.113l0.028,0.114l0.027,0.114l0.027,0.115l0.026,0.115l0.026,0.115l0.026,0.115l0.025,0.116l0.024,0.117l0.024,0.116l0.024,0.117l0.023,0.118l0.023,0.117l0.022,0.118l0.022,0.118l0.021,0.119l0.021,0.119l0.021,0.119l0.02,0.12l0.019,0.12l0.019,0.12l0.019,0.12l0.019,0.121l0.017,0.121l0.018,0.122l0.017,0.122l0.017,0.122l0.016,0.122l0.016,0.123l0.015,0.123l0.015,0.123l0.014,0.123l0.015,0.124l0.013,0.124l0.013,0.125l0.013,0.124l0.013,0.125l0.012,0.125l0.011,0.126l0.012,0.126l0.01,0.126l0.011,0.126l0.01,0.126l0.009,0.127l0.009,0.127l0.009,0.127l0.009,0.128l0.007,0.128l0.008,0.128l0.007,0.128l0.007,0.128l0.006,0.129l0.006,0.129l0.006,0.129l0.005,0.13l0.005,0.129l0.004,0.13l0.004,0.13l0.004,0.131l0.003,0.13l0.003,0.131l0.002,0.131l0.002,0.131l0.002,0.132l0.001,0.131l0.001,0.132l0.001,0.132l0,0.132l0,0.264l-0.002,0.264l-0.003,0.262l-0.004,0.262l-0.006,0.261l-0.007,0.26l-0.008,0.259l-0.009,0.258l-0.01,0.258l-0.012,0.256l-0.014,0.255l-0.014,0.254l-0.016,0.254l-0.018,0.252l-0.009,0.126l-0.01,0.125l-0.01,0.125l-0.01,0.125l-0.011,0.125l-0.011,0.124l-0.011,0.124l-0.012,0.124l-0.012,0.124l-0.013,0.123l-0.012,0.123l-0.014,0.122l-0.013,0.123l-0.014,0.122l-0.015,0.122l-0.015,0.121l-0.015,0.121l-0.016,0.121l-0.016,0.121l-0.016,0.12l-0.017,0.12l-0.017,0.119l-0.018,0.12l-0.018,0.119l-0.018,0.118l-0.019,0.118l-0.019,0.118l-0.02,0.118l-0.02,0.117l-0.02,0.117l-0.021,0.117l-0.021,0.116l-0.022,0.116l-0.022,0.116l-0.023,0.115l-0.023,0.115l-0.023,0.114l-0.024,0.114l-0.025,0.114l-0.024,0.114l-0.026,0.113l-0.025,0.112l-0.026,0.113l-0.027,0.112l-0.027,0.111l-0.027,0.111l-0.028,0.111l-0.029,0.111l-0.028,0.11l-0.03,0.109l-0.029,0.11l-0.031,0.108l-0.03,0.109l-0.031,0.108l-0.032,0.108l-0.032,0.107l-0.033,0.107l-0.033,0.106l-0.033,0.106l-0.034,0.106l-0.035,0.105l-0.035,0.105l-0.035,0.104l-0.036,0.104l-0.037,0.104l-0.037,0.103l-0.037,0.103l-0.038,0.102l-0.039,0.102l-0.039,0.101l-0.039,0.101l-0.04,0.101l-0.041,0.1l-0.041,0.099l-0.041,0.099l-0.042,0.099l-0.043,0.098l-0.043,0.098l-0.044,0.097l-0.044,0.097l-0.044,0.096l-0.046,0.096l-0.045,0.096l-0.047,0.095l-0.046,0.094l-0.048,0.094l-0.048,0.094l-0.048,0.093l-0.049,0.092l-0.05,0.092l-0.05,0.092l-0.05,0.091l-0.052,0.091l-0.051,0.09l-0.053,0.089l-0.052,0.089l-0.054,0.089l-0.054,0.088l-0.054,0.088l-0.056,0.087l-0.055,0.086l-0.057,0.086l-0.057,0.086l-0.057,0.085l-0.058,0.084l-0.059,0.084l-0.059,0.083l-0.06,0.083l-0.06,0.082l-0.061,0.082l-0.062,0.081l-0.062,0.081l-0.062,0.08l-0.064,0.08l-0.064,0.079l-0.064,0.078l-0.066,0.078l-0.065,0.077l-0.067,0.077l-0.067,0.076l-0.067,0.076l-0.069,0.075l-0.068,0.075l-0.07,0.074l-0.07,0.073l-0.071,0.073l-0.071,0.072l-0.072,0.071l-0.073,0.071l-0.073,0.071l-0.074,0.07l-0.075,0.069l-0.075,0.069l-0.076,0.068l-0.076,0.067l-0.077,0.067l-0.078,0.066l-0.079,0.066l-0.079,0.065l-0.079,0.064l-0.081,0.064l-0.081,0.063l-0.082,0.063l-0.082,0.062l-0.083,0.061l-0.084,0.061l-0.084,0.06l-0.085,0.059l-0.086,0.059l-0.087,0.058l-0.087,0.057l-0.088,0.057l-0.088,0.056l-0.089,0.056l-0.09,0.055l-0.091,0.054l-0.091,0.054l-0.092,0.052l-0.093,0.053l-0.093,0.051l-0.094,0.051l-0.095,0.05l-0.096,0.05l-0.096,0.049l-0.097,0.048l-0.097,0.048l-0.099,0.046l-0.099,0.047l-0.1,0.045l-0.1,0.045l-0.101,0.044l-0.102,0.043l-0.103,0.043l-0.103,0.042l-0.105,0.041l-0.104,0.041l-0.106,0.04l-0.106,0.039l-0.108,0.038l-0.107,0.038l-0.109,0.037l-0.109,0.036l-0.111,0.036l-0.11,0.035l-0.112,0.034l-0.112,0.033l-0.114,0.033l-0.114,0.032l-0.114,0.031l-0.116,0.03l-0.116,0.03l-0.117,0.029l-0.118,0.028l-0.118,0.028l-0.119,0.026l-0.121,0.026l-0.12,0.026l-0.122,0.024l-0.123,0.024l-0.123,0.023l-0.124,0.022l-0.125,0.021l-0.125,0.021l-0.127,0.019l-0.127,0.019l-0.128,0.019l-0.129,0.017l-0.129,0.017l-0.131,0.016l-0.131,0.015l-0.132,0.014l-0.133,0.014l-0.134,0.012l-0.134,0.012l-0.136,0.011l-0.136,0.011l-0.137,0.009l-0.137,0.009l-0.139,0.008l-0.14,0.007l-0.14,0.006l-0.141,0.005l-0.142,0.005l-0.143,0.004l-0.144,0.002l-0.144,0.003l-0.145,0.001l-0.147,0l-0.146,0l-0.145,-0.001l-0.145,-0.003l-0.143,-0.002l-0.143,-0.004l-0.142,-0.005l-0.141,-0.005l-0.141,-0.006l-0.139,-0.007l-0.139,-0.008l-0.138,-0.009l-0.137,-0.009l-0.136,-0.011l-0.135,-0.011l-0.135,-0.012l-0.133,-0.012l-0.133,-0.014l-0.132,-0.014l-0.132,-0.015l-0.13,-0.016l-0.13,-0.017l-0.128,-0.017l-0.128,-0.019l-0.128,-0.019l-0.126,-0.019l-0.126,-0.021l-0.125,-0.021l-0.124,-0.022l-0.123,-0.023l-0.122,-0.024l-0.122,-0.024l-0.121,-0.026l-0.12,-0.026l-0.119,-0.026l-0.119,-0.028l-0.117,-0.028l-0.117,-0.029l-0.117,-0.03l-0.115,-0.03l-0.115,-0.031l-0.114,-0.032l-0.113,-0.033l-0.112,-0.033l-0.112,-0.034l-0.111,-0.035l-0.11,-0.036l-0.109,-0.036l-0.109,-0.037l-0.108,-0.038l-0.107,-0.038l-0.106,-0.039l-0.106,-0.04l-0.105,-0.041l-0.104,-0.041l-0.103,-0.042l-0.103,-0.043l-0.102,-0.043l-0.101,-0.044l-0.101,-0.045l-0.1,-0.045l-0.099,-0.047l-0.098,-0.046l-0.098,-0.048l-0.097,-0.048l-0.096,-0.049l-0.095,-0.05l-0.095,-0.05l-0.094,-0.051l-0.094,-0.051l-0.092,-0.053l-0.092,-0.052l-0.092,-0.054l-0.09,-0.054l-0.09,-0.055l-0.089,-0.056l-0.089,-0.056l-0.088,-0.057l-0.087,-0.057l-0.086,-0.058l-0.086,-0.059l-0.085,-0.059l-0.084,-0.06l-0.084,-0.061l-0.083,-0.061l-0.083,-0.062l-0.081,-0.063l-0.082,-0.063l-0.08,-0.064l-0.08,-0.064l-0.079,-0.065l-0.078,-0.066l-0.078,-0.066l-0.077,-0.067l-0.077,-0.067l-0.076,-0.068l-0.075,-0.069l-0.074,-0.069l-0.074,-0.07l-0.073,-0.071l-0.073,-0.071l-0.072,-0.071l-0.072,-0.072l-0.07,-0.073l-0.07,-0.073l-0.07,-0.074l-0.069,-0.075l-0.068,-0.075l-0.068,-0.076l-0.067,-0.076l-0.066,-0.077l-0.066,-0.077l-0.065,-0.078l-0.065,-0.078l-0.064,-0.079l-0.063,-0.08l-0.063,-0.08l-0.062,-0.081l-0.061,-0.081l-0.061,-0.082l-0.061,-0.082l-0.06,-0.083l-0.059,-0.083l-0.058,-0.084l-0.058,-0.084l-0.058,-0.085l-0.057,-0.086l-0.056,-0.086l-0.056,-0.086l-0.055,-0.087l-0.054,-0.088l-0.054,-0.088l-0.054,-0.089l-0.053,-0.089l-0.052,-0.089l-0.052,-0.09l-0.051,-0.091l-0.051,-0.091l-0.05,-0.092l-0.049,-0.092l-0.049,-0.092l-0.049,-0.093l-0.048,-0.094l-0.047,-0.094l-0.047,-0.094l-0.046,-0.095l-0.046,-0.096l-0.045,-0.096l-0.045,-0.096l-0.044,-0.097l-0.043,-0.097l-0.044,-0.098l-0.042,-0.098l-0.042,-0.099l-0.042,-0.099l-0.041,-0.099l-0.04,-0.1l-0.04,-0.101l-0.04,-0.101l-0.039,-0.101l-0.038,-0.102l-0.038,-0.102l-0.038,-0.103l-0.037,-0.103l-0.036,-0.104l-0.036,-0.104l-0.035,-0.104l-0.035,-0.105l-0.035,-0.105l-0.034,-0.106l-0.034,-0.106l-0.033,-0.106l-0.032,-0.107l-0.032,-0.107l-0.032,-0.108l-0.031,-0.108l-0.031,-0.109l-0.03,-0.108l-0.03,-0.11l-0.029,-0.109l-0.029,-0.11l-0.028,-0.111l-0.028,-0.111l-0.028,-0.111l-0.027,-0.111l-0.026,-0.112l-0.026,-0.113l-0.026,-0.112l-0.025,-0.113l-0.025,-0.114l-0.024,-0.114l-0.024,-0.114l-0.023,-0.114l-0.024,-0.115l-0.022,-0.115l-0.022,-0.116l-0.022,-0.116l-0.021,-0.116l-0.021,-0.117l-0.021,-0.117l-0.02,-0.117l-0.019,-0.118l-0.02,-0.118l-0.018,-0.118l-0.019,-0.118l-0.018,-0.119l-0.017,-0.12l-0.018,-0.119l-0.016,-0.12l-0.017,-0.12l-0.016,-0.121l-0.015,-0.121l-0.016,-0.121l-0.014,-0.121l-0.015,-0.122l-0.014,-0.122l-0.014,-0.123l-0.013,-0.122l-0.013,-0.123l-0.012,-0.123l-0.013,-0.124l-0.011,-0.124l-0.012,-0.124l-0.011,-0.124l-0.01,-0.125l-0.011,-0.125l-0.01,-0.125l-0.009,-0.125l-0.01,-0.126l-0.017,-0.252l-0.016,-0.254l-0.015,-0.254l-0.013,-0.255l-0.012,-0.256l-0.01,-0.258l-0.01,-0.258l-0.008,-0.259l-0.006,-0.26l-0.006,-0.261l-0.004,-0.262l-0.003,-0.262l-0.002,-0.264l-0.001,-0.264l0.001,-0.132l0,-0.132l0.001,-0.132l0.001,-0.131l0.002,-0.132l0.002,-0.131l0.003,-0.131l0.003,-0.131l0.003,-0.13l0.003,-0.131l0.004,-0.13l0.005,-0.13l0.005,-0.129l0.005,-0.13l0.005,-0.129l0.006,-0.129l0.007,-0.129l0.006,-0.128l0.008,-0.128l0.007,-0.128l0.008,-0.128l0.008,-0.128l0.009,-0.127l0.009,-0.127l0.01,-0.127l0.01,-0.126l0.01,-0.126l0.011,-0.126l0.011,-0.126l0.012,-0.126l0.012,-0.125l0.012,-0.125l0.013,-0.124l0.013,-0.125l0.014,-0.124l0.014,-0.124l0.015,-0.123l0.015,-0.123l0.015,-0.123l0.016,-0.123l0.016,-0.122l0.017,-0.122l0.017,-0.122l0.017,-0.122l0.018,-0.121l0.018,-0.121l0.019,-0.12l0.019,-0.12l0.02,-0.12l0.02,-0.12l0.021,-0.119l0.021,-0.119l0.021,-0.119l0.022,-0.118l0.022,-0.118l0.023,-0.117l0.023,-0.118l0.024,-0.117l0.024,-0.116l0.024,-0.117l0.025,-0.116l0.025,-0.115l0.026,-0.115l0.027,-0.115l0.026,-0.115l0.028,-0.114l0.027,-0.114l0.028,-0.113l0.029,-0.113l0.029,-0.113l0.029,-0.112l0.03,-0.112l0.031,-0.112l0.031,-0.111l0.031,-0.111l0.032,-0.11l0.032,-0.11l0.033,-0.11l0.033,-0.109l0.034,-0.109l0.034,-0.108l0.035,-0.109l0.035,-0.107l0.035,-0.107l0.037,-0.107l0.036,-0.107l0.037,-0.106l0.038,-0.106l0.038,-0.105l0.038,-0.105l0.039,-0.104l0.04,-0.104l0.04,-0.103l0.04,-0.104l0.041,-0.102l0.041,-0.102l0.042,-0.102l0.043,-0.102l0.043,-0.101l0.043,-0.1l0.044,-0.1l0.044,-0.1l0.045,-0.099l0.046,-0.098l0.045,-0.099l0.047,-0.097l0.047,-0.098l0.047,-0.097l0.048,-0.096l0.048,-0.096l0.049,-0.095l0.05,-0.095l0.05,-0.095l0.05,-0.094l0.051,-0.093l0.052,-0.093l0.052,-0.093l0.052,-0.092l0.053,-0.091l0.054,-0.092l0.054,-0.09l0.055,-0.09l0.055,-0.09l0.056,-0.089l0.056,-0.088l0.056,-0.088l0.058,-0.088l0.058,-0.087l0.058,-0.087l0.059,-0.086l0.059,-0.085l0.06,-0.085l0.06,-0.084l0.061,-0.084l0.062,-0.084l0.062,-0.082l0.063,-0.083l0.063,-0.082l0.064,-0.081l0.064,-0.08l0.065,-0.081l0.065,-0.079l0.066,-0.079l0.066,-0.079l0.067,-0.077l0.068,-0.078l0.068,-0.077l0.069,-0.076l0.069,-0.075l0.07,-0.076l0.07,-0.074l0.071,-0.074l0.071,-0.073l0.072,-0.073l0.073,-0.072l0.073,-0.072l0.074,-0.071l0.074,-0.07l0.075,-0.07l0.075,-0.07l0.076,-0.068l0.077,-0.068l0.077,-0.068l0.078,-0.066l0.078,-0.067l0.079,-0.065l0.079,-0.065l0.08,-0.065l0.081,-0.064l0.081,-0.063l0.082,-0.062l0.082,-0.062l0.083,-0.061l0.084,-0.061l0.084,-0.06l0.084,-0.06l0.086,-0.058l0.086,-0.058l0.086,-0.058l0.087,-0.057l0.088,-0.056l0.088,-0.055l0.089,-0.055l0.089,-0.054l0.09,-0.054l0.091,-0.053l0.091,-0.052l0.092,-0.052l0.093,-0.051l0.093,-0.05l0.093,-0.049l0.095,-0.049l0.095,-0.048l0.095,-0.048l0.096,-0.047l0.097,-0.046l0.097,-0.045l0.098,-0.045l0.099,-0.044l0.099,-0.044l0.1,-0.042l0.1,-0.042l0.101,-0.042l0.102,-0.04l0.102,-0.04l0.103,-0.039l0.104,-0.039l0.104,-0.037l0.105,-0.038l0.105,-0.036l0.106,-0.035l0.107,-0.035l0.108,-0.034l0.108,-0.034l0.108,-0.032l0.109,-0.032l0.11,-0.031l0.111,-0.031l0.111,-0.03l0.112,-0.029l0.112,-0.028l0.113,-0.027l0.114,-0.027l0.115,-0.026l0.115,-0.025l0.115,-0.024l0.117,-0.024l0.117,-0.023l0.117,-0.022l0.119,-0.021l0.119,-0.021l0.119,-0.02l0.121,-0.019l0.121,-0.018l0.121,-0.018l0.123,-0.016l0.123,-0.016l0.123,-0.015l0.124,-0.015l0.125,-0.013l0.126,-0.013l0.126,-0.012l0.127,-0.011l0.128,-0.01l0.128,-0.01l0.129,-0.008l0.13,-0.008l0.13,-0.007l0.131,-0.006l0.132,-0.006l0.132,-0.004l0.133,-0.004l0.134,-0.003l0.134,-0.002l0.136,-0.001l0.135,-0.001l0.136,0.001Zm-0.266,0.924l-0.129,0.001l-0.129,0.002l-0.128,0.003l-0.127,0.004l-0.126,0.004l-0.126,0.005l-0.125,0.006l-0.124,0.007l-0.124,0.007l-0.123,0.009l-0.122,0.009l-0.121,0.009l-0.121,0.011l-0.12,0.011l-0.119,0.012l-0.119,0.013l-0.118,0.014l-0.117,0.014l-0.117,0.015l-0.115,0.016l-0.116,0.016l-0.114,0.018l-0.114,0.018l-0.113,0.018l-0.112,0.02l-0.112,0.02l-0.111,0.021l-0.111,0.021l-0.109,0.023l-0.109,0.023l-0.109,0.023l-0.107,0.025l-0.107,0.025l-0.106,0.026l-0.106,0.026l-0.105,0.027l-0.104,0.028l-0.104,0.029l-0.103,0.029l-0.102,0.03l-0.102,0.03l-0.101,0.032l-0.101,0.032l-0.099,0.032l-0.099,0.033l-0.099,0.034l-0.098,0.035l-0.097,0.035l-0.096,0.036l-0.097,0.037l-0.095,0.037l-0.094,0.037l-0.095,0.039l-0.093,0.039l-0.093,0.04l-0.092,0.04l-0.092,0.041l-0.091,0.042l-0.09,0.042l-0.091,0.043l-0.088,0.043l-0.089,0.044l-0.088,0.045l-0.088,0.046l-0.087,0.046l-0.086,0.046l-0.086,0.047l-0.085,0.048l-0.084,0.048l-0.084,0.049l-0.084,0.05l-0.083,0.051l-0.082,0.05l-0.082,0.051l-0.081,0.052l-0.081,0.053l-0.08,0.053l-0.079,0.054l-0.079,0.055l-0.078,0.054l-0.078,0.056l-0.078,0.056l-0.076,0.057l-0.077,0.057l-0.076,0.059l-0.075,0.058l-0.074,0.059l-0.074,0.059l-0.074,0.061l-0.073,0.061l-0.072,0.061l-0.073,0.062l-0.071,0.062l-0.071,0.063l-0.07,0.064l-0.07,0.064l-0.07,0.065l-0.069,0.065l-0.068,0.066l-0.068,0.067l-0.067,0.066l-0.067,0.068l-0.067,0.069l-0.065,0.068l-0.066,0.069l-0.065,0.07l-0.064,0.07l-0.064,0.071l-0.064,0.072l-0.062,0.072l-0.063,0.073l-0.062,0.073l-0.061,0.073l-0.061,0.074l-0.06,0.075l-0.06,0.075l-0.06,0.076l-0.059,0.077l-0.058,0.077l-0.059,0.077l-0.057,0.078l-0.057,0.078l-0.057,0.08l-0.055,0.079l-0.056,0.081l-0.056,0.08l-0.054,0.081l-0.055,0.082l-0.053,0.082l-0.053,0.082l-0.053,0.083l-0.053,0.085l-0.051,0.083l-0.052,0.085l-0.051,0.086l-0.05,0.085l-0.05,0.087l-0.05,0.087l-0.049,0.087l-0.049,0.088l-0.047,0.087l-0.048,0.09l-0.048,0.089l-0.046,0.09l-0.047,0.091l-0.045,0.089l-0.046,0.093l-0.045,0.091l-0.044,0.093l-0.044,0.092l-0.044,0.093l-0.043,0.095l-0.043,0.093l-0.042,0.095l-0.042,0.095l-0.041,0.095l-0.04,0.096l-0.041,0.097l-0.04,0.097l-0.039,0.097l-0.039,0.098l-0.039,0.099l-0.038,0.099l-0.038,0.098l-0.037,0.1l-0.037,0.101l-0.036,0.1l-0.036,0.101l-0.035,0.102l-0.035,0.102l-0.035,0.102l-0.034,0.103l-0.034,0.103l-0.033,0.103l-0.033,0.104l-0.032,0.105l-0.032,0.105l-0.031,0.105l-0.031,0.106l-0.031,0.106l-0.03,0.106l-0.03,0.108l-0.029,0.107l-0.029,0.108l-0.029,0.108l-0.027,0.108l-0.028,0.11l-0.027,0.109l-0.027,0.11l-0.026,0.11l-0.026,0.11l-0.025,0.111l-0.025,0.112l-0.025,0.111l-0.024,0.112l-0.023,0.112l-0.024,0.114l-0.023,0.112l-0.022,0.113l-0.022,0.115l-0.021,0.113l-0.022,0.115l-0.02,0.116l-0.021,0.114l-0.02,0.116l-0.019,0.117l-0.019,0.115l-0.019,0.116l-0.018,0.118l-0.018,0.117l-0.017,0.117l-0.017,0.119l-0.017,0.118l-0.016,0.118l-0.016,0.12l-0.015,0.119l-0.015,0.12l-0.015,0.119l-0.013,0.121l-0.014,0.12l-0.014,0.121l-0.013,0.121l-0.012,0.122l-0.012,0.121l-0.012,0.122l-0.011,0.122l-0.011,0.123l-0.011,0.123l-0.01,0.123l-0.009,0.123l-0.01,0.124l-0.009,0.124l-0.008,0.124l-0.008,0.125l-0.008,0.125l-0.008,0.124l-0.006,0.126l-0.007,0.126l-0.006,0.125l-0.006,0.126l-0.006,0.127l-0.005,0.126l-0.004,0.127l-0.005,0.127l-0.004,0.128l-0.003,0.127l-0.003,0.128l-0.003,0.127l-0.002,0.129l-0.003,0.129l-0.001,0.128l-0.001,0.129l-0.001,0.129l-0.001,0.13l0,0.129l0,0.26l0.002,0.259l0.003,0.259l0.004,0.257l0.006,0.256l0.006,0.256l0.008,0.254l0.009,0.254l0.011,0.252l0.011,0.251l0.013,0.251l0.015,0.249l0.015,0.248l0.017,0.247l0.009,0.122l0.01,0.123l0.01,0.123l0.01,0.122l0.01,0.122l0.011,0.121l0.011,0.121l0.012,0.122l0.011,0.12l0.013,0.119l0.012,0.12l0.013,0.121l0.013,0.119l0.014,0.118l0.014,0.119l0.015,0.119l0.015,0.118l0.015,0.117l0.015,0.117l0.016,0.117l0.017,0.117l0.016,0.116l0.017,0.116l0.018,0.116l0.018,0.114l0.018,0.115l0.019,0.115l0.019,0.114l0.019,0.114l0.02,0.113l0.02,0.113l0.021,0.113l0.021,0.112l0.021,0.112l0.022,0.111l0.022,0.111l0.023,0.11l0.023,0.111l0.024,0.11l0.024,0.11l0.024,0.108l0.025,0.109l0.025,0.108l0.026,0.109l0.025,0.107l0.027,0.106l0.027,0.107l0.027,0.107l0.028,0.106l0.028,0.105l0.028,0.105l0.029,0.104l0.03,0.104l0.029,0.103l0.031,0.103l0.031,0.104l0.031,0.103l0.032,0.101l0.031,0.101l0.033,0.1l0.034,0.103l0.033,0.1l0.033,0.098l0.035,0.099l0.035,0.1l0.035,0.098l0.035,0.097l0.036,0.098l0.037,0.096l0.037,0.098l0.037,0.095l0.039,0.095l0.038,0.095l0.039,0.094l0.039,0.094l0.04,0.094l0.04,0.093l0.041,0.093l0.042,0.092l0.041,0.09l0.042,0.092l0.043,0.091l0.044,0.09l0.042,0.088l0.045,0.089l0.045,0.09l0.045,0.088l0.045,0.087l0.046,0.087l0.047,0.086l0.047,0.087l0.047,0.085l0.049,0.085l0.048,0.084l0.048,0.084l0.05,0.083l0.05,0.084l0.051,0.082l0.051,0.082l0.052,0.081l0.051,0.081l0.053,0.08l0.053,0.08l0.054,0.079l0.053,0.078l0.055,0.078l0.055,0.078l0.056,0.077l0.056,0.076l0.057,0.077l0.056,0.075l0.058,0.075l0.059,0.074l0.058,0.074l0.059,0.073l0.06,0.072l0.061,0.073l0.061,0.072l0.061,0.071l0.062,0.071l0.063,0.069l0.062,0.069l0.065,0.07l0.063,0.068l0.065,0.067l0.066,0.068l0.065,0.066l0.067,0.066l0.067,0.066l0.067,0.065l0.068,0.064l0.069,0.064l0.07,0.064l0.069,0.062l0.071,0.062l0.072,0.062l0.071,0.061l0.072,0.06l0.073,0.06l0.074,0.06l0.074,0.059l0.074,0.057l0.076,0.058l0.076,0.057l0.076,0.057l0.077,0.056l0.078,0.055l0.078,0.054l0.08,0.055l0.08,0.053l0.08,0.054l0.081,0.052l0.082,0.052l0.082,0.051l0.083,0.051l0.084,0.05l0.084,0.049l0.085,0.049l0.086,0.048l0.086,0.048l0.087,0.047l0.088,0.047l0.088,0.046l0.09,0.045l0.089,0.045l0.091,0.044l0.091,0.043l0.092,0.043l0.093,0.042l0.093,0.042l0.095,0.041l0.094,0.04l0.096,0.04l0.096,0.039l0.098,0.039l0.097,0.037l0.098,0.037l0.1,0.037l0.1,0.036l0.101,0.035l0.101,0.035l0.103,0.034l0.103,0.033l0.104,0.033l0.104,0.032l0.106,0.031l0.106,0.031l0.107,0.03l0.108,0.029l0.109,0.029l0.109,0.028l0.11,0.027l0.111,0.027l0.112,0.025l0.113,0.026l0.113,0.024l0.114,0.024l0.115,0.023l0.116,0.022l0.117,0.022l0.117,0.021l0.119,0.02l0.119,0.02l0.12,0.019l0.121,0.018l0.122,0.017l0.122,0.017l0.124,0.016l0.124,0.015l0.125,0.014l0.126,0.014l0.127,0.013l0.128,0.012l0.128,0.011l0.13,0.011l0.13,0.01l0.131,0.009l0.132,0.008l0.133,0.008l0.134,0.006l0.135,0.006l0.135,0.005l0.137,0.005l0.137,0.003l0.138,0.003l0.139,0.002l0.14,0.001l0.141,0.001l0.141,-0.001l0.14,-0.001l0.139,-0.002l0.139,-0.003l0.137,-0.003l0.136,-0.005l0.136,-0.005l0.135,-0.006l0.133,-0.006l0.133,-0.008l0.132,-0.008l0.131,-0.009l0.131,-0.01l0.129,-0.011l0.129,-0.011l0.128,-0.012l0.126,-0.013l0.127,-0.014l0.125,-0.014l0.124,-0.015l0.123,-0.016l0.123,-0.017l0.121,-0.017l0.121,-0.018l0.12,-0.019l0.12,-0.02l0.118,-0.02l0.118,-0.021l0.116,-0.022l0.116,-0.022l0.115,-0.023l0.115,-0.024l0.113,-0.024l0.113,-0.026l0.112,-0.025l0.11,-0.027l0.111,-0.027l0.109,-0.028l0.109,-0.029l0.107,-0.029l0.108,-0.03l0.106,-0.031l0.105,-0.031l0.105,-0.032l0.104,-0.033l0.103,-0.033l0.102,-0.034l0.102,-0.035l0.101,-0.035l0.1,-0.036l0.099,-0.036l0.098,-0.038l0.098,-0.038l0.098,-0.038l0.096,-0.039l0.096,-0.04l0.095,-0.04l0.093,-0.041l0.094,-0.042l0.093,-0.042l0.091,-0.043l0.091,-0.043l0.091,-0.044l0.09,-0.045l0.089,-0.045l0.089,-0.046l0.088,-0.047l0.086,-0.047l0.087,-0.047l0.085,-0.049l0.086,-0.049l0.084,-0.049l0.084,-0.05l0.083,-0.051l0.082,-0.051l0.082,-0.052l0.081,-0.053l0.08,-0.053l0.08,-0.053l0.079,-0.054l0.078,-0.055l0.078,-0.055l0.078,-0.056l0.076,-0.057l0.076,-0.057l0.075,-0.058l0.075,-0.058l0.075,-0.059l0.072,-0.059l0.073,-0.06l0.073,-0.06l0.071,-0.061l0.072,-0.062l0.07,-0.062l0.07,-0.063l0.069,-0.062l0.069,-0.064l0.068,-0.065l0.068,-0.065l0.067,-0.066l0.066,-0.066l0.066,-0.067l0.066,-0.067l0.064,-0.067l0.064,-0.068l0.064,-0.069l0.063,-0.07l0.063,-0.07l0.061,-0.07l0.062,-0.071l0.061,-0.073l0.06,-0.071l0.06,-0.072l0.059,-0.074l0.059,-0.074l0.059,-0.074l0.057,-0.075l0.057,-0.075l0.056,-0.076l0.057,-0.077l0.056,-0.077l0.055,-0.078l0.054,-0.077l0.054,-0.079l0.054,-0.079l0.053,-0.08l0.052,-0.08l0.053,-0.081l0.051,-0.081l0.051,-0.082l0.05,-0.082l0.05,-0.084l0.05,-0.083l0.049,-0.084l0.048,-0.084l0.048,-0.085l0.048,-0.085l0.047,-0.087l0.047,-0.086l0.046,-0.087l0.045,-0.087l0.045,-0.089l0.045,-0.088l0.044,-0.089l0.044,-0.089l0.043,-0.091l0.042,-0.089l0.042,-0.092l0.042,-0.092l0.041,-0.091l0.041,-0.093l0.041,-0.093l0.039,-0.093l0.04,-0.095l0.039,-0.094l0.038,-0.095l0.038,-0.095l0.038,-0.096l0.037,-0.097l0.036,-0.096l0.036,-0.098l0.036,-0.097l0.035,-0.098l0.035,-0.099l0.034,-0.1l0.034,-0.099l0.034,-0.1l0.033,-0.101l0.032,-0.1l0.032,-0.102l0.032,-0.102l0.031,-0.102l0.031,-0.103l0.03,-0.104l0.03,-0.103l0.029,-0.104l0.029,-0.104l0.029,-0.105l0.028,-0.106l0.028,-0.106l0.027,-0.106l0.027,-0.106l0.026,-0.107l0.026,-0.108l0.026,-0.108l0.025,-0.107l0.025,-0.11l0.024,-0.108l0.024,-0.11l0.024,-0.11l0.022,-0.11l0.023,-0.111l0.022,-0.111l0.022,-0.111l0.022,-0.112l0.021,-0.112l0.02,-0.113l0.021,-0.113l0.02,-0.114l0.019,-0.113l0.019,-0.114l0.019,-0.115l0.018,-0.114l0.018,-0.116l0.017,-0.115l0.017,-0.116l0.017,-0.116l0.016,-0.116l0.016,-0.118l0.016,-0.117l0.015,-0.118l0.015,-0.118l0.014,-0.117l0.014,-0.119l0.014,-0.119l0.013,-0.119l0.013,-0.121l0.013,-0.12l0.012,-0.119l0.012,-0.121l0.012,-0.121l0.011,-0.12l0.01,-0.122l0.011,-0.123l0.01,-0.122l0.01,-0.121l0.009,-0.123l0.009,-0.123l0.017,-0.247l0.016,-0.248l0.014,-0.249l0.013,-0.251l0.012,-0.251l0.011,-0.252l0.009,-0.253l0.007,-0.255l0.007,-0.256l0.005,-0.256l0.005,-0.257l0.003,-0.259l0.001,-0.259l0.001,-0.26l0,-0.129l-0.001,-0.13l-0.001,-0.129l-0.001,-0.129l-0.002,-0.129l-0.002,-0.128l-0.002,-0.128l-0.003,-0.128l-0.003,-0.128l-0.004,-0.127l-0.004,-0.128l-0.004,-0.127l-0.005,-0.127l-0.005,-0.126l-0.005,-0.127l-0.006,-0.126l-0.006,-0.126l-0.007,-0.125l-0.007,-0.125l-0.007,-0.125l-0.008,-0.125l-0.008,-0.125l-0.009,-0.124l-0.009,-0.124l-0.009,-0.124l-0.01,-0.123l-0.01,-0.123l-0.01,-0.123l-0.011,-0.123l-0.012,-0.122l-0.011,-0.122l-0.012,-0.121l-0.013,-0.122l-0.013,-0.121l-0.013,-0.122l-0.014,-0.119l-0.014,-0.12l-0.015,-0.12l-0.015,-0.121l-0.015,-0.118l-0.015,-0.119l-0.017,-0.12l-0.016,-0.117l-0.017,-0.118l-0.018,-0.118l-0.018,-0.117l-0.018,-0.118l-0.018,-0.116l-0.019,-0.115l-0.02,-0.117l-0.02,-0.116l-0.02,-0.115l-0.021,-0.115l-0.021,-0.114l-0.021,-0.114l-0.023,-0.115l-0.022,-0.113l-0.023,-0.112l-0.023,-0.114l-0.023,-0.112l-0.025,-0.112l-0.024,-0.112l-0.025,-0.111l-0.025,-0.11l-0.026,-0.111l-0.026,-0.11l-0.027,-0.109l-0.028,-0.111l-0.027,-0.109l-0.028,-0.108l-0.028,-0.109l-0.029,-0.107l-0.029,-0.107l-0.03,-0.107l-0.03,-0.107l-0.031,-0.106l-0.031,-0.105l-0.031,-0.106l-0.032,-0.105l-0.033,-0.105l-0.032,-0.104l-0.034,-0.103l-0.033,-0.104l-0.034,-0.102l-0.035,-0.102l-0.035,-0.103l-0.035,-0.101l-0.036,-0.1l-0.037,-0.102l-0.036,-0.1l-0.037,-0.099l-0.038,-0.1l-0.038,-0.098l-0.039,-0.098l-0.039,-0.099l-0.039,-0.097l-0.041,-0.098l-0.04,-0.096l-0.04,-0.095l-0.042,-0.096l-0.042,-0.095l-0.042,-0.095l-0.042,-0.094l-0.043,-0.094l-0.044,-0.093l-0.044,-0.092l-0.045,-0.093l-0.044,-0.091l-0.046,-0.092l-0.046,-0.09l-0.046,-0.091l-0.047,-0.09l-0.047,-0.089l-0.048,-0.089l-0.048,-0.088l-0.048,-0.088l-0.049,-0.087l-0.05,-0.087l-0.05,-0.087l-0.051,-0.085l-0.05,-0.086l-0.052,-0.084l-0.052,-0.085l-0.052,-0.084l-0.053,-0.082l-0.053,-0.083l-0.054,-0.082l-0.054,-0.082l-0.055,-0.081l-0.055,-0.08l-0.056,-0.081l-0.056,-0.079l-0.057,-0.08l-0.057,-0.078l-0.057,-0.078l-0.058,-0.077l-0.059,-0.077l-0.059,-0.077l-0.059,-0.076l-0.06,-0.075l-0.061,-0.075l-0.061,-0.074l-0.061,-0.073l-0.062,-0.073l-0.062,-0.073l-0.063,-0.072l-0.063,-0.072l-0.064,-0.07l-0.065,-0.071l-0.065,-0.07l-0.065,-0.069l-0.066,-0.069l-0.066,-0.068l-0.067,-0.067l-0.068,-0.067l-0.068,-0.067l-0.068,-0.066l-0.068,-0.065l-0.07,-0.065l-0.07,-0.064l-0.071,-0.064l-0.071,-0.063l-0.071,-0.062l-0.072,-0.062l-0.073,-0.062l-0.072,-0.06l-0.074,-0.061l-0.074,-0.059l-0.075,-0.059l-0.075,-0.058l-0.076,-0.059l-0.076,-0.057l-0.077,-0.057l-0.077,-0.056l-0.078,-0.056l-0.079,-0.055l-0.078,-0.054l-0.08,-0.054l-0.08,-0.053l-0.08,-0.052l-0.082,-0.053l-0.081,-0.051l-0.083,-0.051l-0.082,-0.05l-0.084,-0.05l-0.084,-0.049l-0.085,-0.048l-0.084,-0.048l-0.086,-0.047l-0.086,-0.046l-0.088,-0.047l-0.087,-0.045l-0.088,-0.045l-0.089,-0.044l-0.089,-0.043l-0.09,-0.043l-0.09,-0.042l-0.091,-0.042l-0.092,-0.041l-0.093,-0.04l-0.092,-0.04l-0.094,-0.039l-0.094,-0.039l-0.095,-0.037l-0.095,-0.037l-0.096,-0.037l-0.096,-0.036l-0.098,-0.035l-0.098,-0.035l-0.098,-0.034l-0.099,-0.033l-0.1,-0.032l-0.1,-0.032l-0.101,-0.031l-0.102,-0.031l-0.103,-0.03l-0.103,-0.029l-0.103,-0.029l-0.105,-0.028l-0.104,-0.027l-0.106,-0.026l-0.106,-0.026l-0.108,-0.025l-0.107,-0.025l-0.108,-0.023l-0.109,-0.023l-0.11,-0.023l-0.11,-0.021l-0.111,-0.021l-0.112,-0.02l-0.112,-0.02l-0.113,-0.018l-0.114,-0.018l-0.115,-0.018l-0.115,-0.016l-0.116,-0.016l-0.116,-0.015l-0.117,-0.014l-0.118,-0.014l-0.119,-0.013l-0.119,-0.012l-0.12,-0.011l-0.121,-0.011l-0.122,-0.009l-0.122,-0.009l-0.122,-0.009l-0.124,-0.007l-0.124,-0.007l-0.125,-0.006l-0.126,-0.005l-0.126,-0.004l-0.128,-0.004l-0.128,-0.003l-0.128,-0.002l-0.13,-0.001l-0.13,0l-0.13,0Z" style="fill:#ac8639;"/><path d="M15.25,35.079c-1.101,2.703 -1.2,5.139 0,7.231" style="fill:none;stroke:#ac8639;stroke-width:1.86px;"/><g id="lips"><path d="M29.69,33.28c-0.244,0.028 -1.27,0.077 -1.452,0.079c-1.492,0.018 -2.304,-0.3 -2.53,-0.593c-0.137,-0.177 5.56,-0.412 5.734,-0.311c0.305,0.178 -0.371,0.669 -1.752,0.825Z" style="fill:#b63e36;"/><path d="M28.914,31.726c0.078,0 0.18,-0.245 0.685,-0.224c1.491,0.062 2.09,0.391 2.09,0.761c0,0.265 -3.256,0.451 -5.293,0.364c-1.147,-0.05 -1.361,-0.196 -1.211,-0.196c0.207,0 0.555,-0.145 0.89,-0.286c0.587,-0.248 1.187,-0.592 2.071,-0.643c0.553,-0.032 0.689,0.224 0.768,0.224Z" style="fill:#b63e36;"/></g></g><path id="beret" d="M14.687,9.659c0.738,-0.74 3.287,-3.35 8.948,-3.621c5.529,-0.264 11.511,2.138 12.338,2.967c2.543,2.548 0.259,4.327 0.259,4.327c0,0 0.598,-0.307 1.71,0c1.362,0.378 2.15,1.017 1.401,1.572c-1.085,0.805 -5.15,0.61 -11.353,0.61c-6.204,0 -13.303,-0.319 -13.303,-0.319c0,0 -3.254,-2.272 0,-5.536Z" style="fill:#302a1c;"/></g></g><path d="M25.162,0.001l0.161,0.001l0.161,0.003l0.161,0.003l0.16,0.005l0.161,0.005l0.16,0.007l0.16,0.008l0.159,0.008l0.16,0.01l0.159,0.01l0.158,0.012l0.159,0.013l0.158,0.013l0.158,0.015l0.158,0.015l0.157,0.017l0.157,0.017l0.157,0.019l0.156,0.019l0.156,0.02l0.156,0.022l0.156,0.022l0.155,0.023l0.155,0.024l0.155,0.026l0.154,0.026l0.154,0.027l0.154,0.028l0.153,0.029l0.153,0.03l0.153,0.03l0.152,0.032l0.152,0.033l0.152,0.033l0.151,0.035l0.151,0.035l0.151,0.036l0.15,0.038l0.15,0.038l0.149,0.039l0.15,0.04l0.148,0.04l0.149,0.042l0.148,0.043l0.148,0.043l0.147,0.044l0.147,0.046l0.146,0.046l0.147,0.047l0.145,0.048l0.146,0.048l0.145,0.05l0.144,0.051l0.144,0.051l0.144,0.052l0.143,0.053l0.143,0.054l0.143,0.055l0.142,0.055l0.142,0.057l0.141,0.057l0.141,0.058l0.14,0.059l0.14,0.06l0.14,0.06l0.139,0.062l0.138,0.062l0.139,0.063l0.137,0.064l0.138,0.064l0.137,0.066l0.136,0.066l0.136,0.067l0.135,0.068l0.135,0.069l0.135,0.069l0.134,0.07l0.133,0.071l0.133,0.072l0.133,0.073l0.132,0.073l0.132,0.074l0.131,0.075l0.13,0.076l0.131,0.076l0.129,0.078l0.129,0.077l0.129,0.079l0.128,0.08l0.128,0.08l0.127,0.081l0.126,0.082l0.126,0.082l0.126,0.083l0.125,0.084l0.124,0.085l0.124,0.085l0.123,0.086l0.123,0.087l0.122,0.087l0.122,0.089l0.121,0.089l0.121,0.089l0.12,0.091l0.119,0.091l0.119,0.092l0.119,0.092l0.118,0.093l0.117,0.094l0.116,0.095l0.116,0.095l0.116,0.096l0.115,0.096l0.114,0.098l0.114,0.097l0.113,0.099l0.113,0.099l0.111,0.1l0.112,0.101l0.11,0.101l0.111,0.102l0.109,0.102l0.109,0.104l0.108,0.103l0.108,0.105l0.107,0.105l0.106,0.106l0.106,0.106l0.105,0.107l0.105,0.108l0.103,0.108l0.104,0.109l0.102,0.109l0.102,0.111l0.101,0.11l0.101,0.112l0.1,0.111l0.099,0.113l0.099,0.113l0.097,0.114l0.098,0.114l0.096,0.115l0.096,0.116l0.095,0.116l0.095,0.116l0.094,0.117l0.093,0.118l0.092,0.119l0.092,0.119l0.091,0.119l0.091,0.12l0.089,0.121l0.089,0.121l0.089,0.122l0.087,0.122l0.087,0.123l0.086,0.123l0.085,0.124l0.085,0.124l0.084,0.125l0.083,0.126l0.082,0.126l0.082,0.126l0.081,0.127l0.08,0.128l0.08,0.128l0.079,0.129l0.077,0.129l0.078,0.129l0.076,0.131l0.076,0.13l0.075,0.131l0.074,0.132l0.073,0.132l0.073,0.133l0.072,0.133l0.071,0.133l0.07,0.134l0.069,0.135l0.069,0.135l0.068,0.135l0.067,0.136l0.066,0.136l0.066,0.137l0.064,0.138l0.064,0.137l0.063,0.139l0.062,0.138l0.062,0.139l0.06,0.14l0.06,0.14l0.059,0.14l0.058,0.141l0.057,0.141l0.057,0.142l0.055,0.142l0.055,0.143l0.054,0.143l0.053,0.143l0.052,0.144l0.051,0.144l0.051,0.144l0.05,0.145l0.048,0.146l0.048,0.145l0.047,0.147l0.046,0.146l0.046,0.147l0.044,0.147l0.043,0.148l0.043,0.148l0.042,0.149l0.04,0.148l0.04,0.15l0.039,0.149l0.038,0.15l0.038,0.15l0.036,0.151l0.035,0.151l0.035,0.151l0.033,0.152l0.033,0.152l0.032,0.152l0.03,0.153l0.03,0.153l0.029,0.153l0.028,0.154l0.027,0.154l0.026,0.154l0.026,0.155l0.024,0.155l0.023,0.155l0.022,0.156l0.022,0.156l0.02,0.156l0.019,0.156l0.019,0.157l0.017,0.157l0.017,0.157l0.015,0.158l0.015,0.158l0.013,0.158l0.013,0.159l0.012,0.158l0.01,0.159l0.01,0.16l0.008,0.159l0.008,0.16l0.007,0.16l0.005,0.161l0.005,0.16l0.003,0.161l0.003,0.161l0.001,0.161l0.001,0.162l-0.001,0.162l-0.001,0.161l-0.003,0.161l-0.003,0.161l-0.005,0.16l-0.005,0.161l-0.007,0.16l-0.008,0.16l-0.008,0.159l-0.01,0.16l-0.01,0.159l-0.012,0.158l-0.013,0.159l-0.013,0.158l-0.015,0.158l-0.015,0.158l-0.017,0.157l-0.017,0.157l-0.019,0.157l-0.019,0.156l-0.02,0.156l-0.022,0.156l-0.022,0.156l-0.023,0.155l-0.024,0.155l-0.026,0.155l-0.026,0.154l-0.027,0.154l-0.028,0.154l-0.029,0.153l-0.03,0.153l-0.03,0.153l-0.032,0.152l-0.033,0.152l-0.033,0.152l-0.035,0.151l-0.035,0.151l-0.036,0.151l-0.038,0.15l-0.038,0.15l-0.039,0.149l-0.04,0.15l-0.04,0.148l-0.042,0.149l-0.043,0.148l-0.043,0.148l-0.044,0.147l-0.046,0.147l-0.046,0.146l-0.047,0.147l-0.048,0.145l-0.048,0.146l-0.05,0.145l-0.051,0.144l-0.051,0.144l-0.052,0.144l-0.053,0.143l-0.054,0.143l-0.055,0.143l-0.055,0.142l-0.057,0.142l-0.057,0.141l-0.058,0.141l-0.059,0.14l-0.06,0.14l-0.06,0.14l-0.062,0.139l-0.062,0.138l-0.063,0.139l-0.064,0.137l-0.064,0.138l-0.066,0.137l-0.066,0.136l-0.067,0.136l-0.068,0.135l-0.069,0.135l-0.069,0.135l-0.07,0.134l-0.071,0.133l-0.072,0.133l-0.073,0.133l-0.073,0.132l-0.074,0.132l-0.075,0.131l-0.076,0.13l-0.076,0.131l-0.078,0.129l-0.077,0.129l-0.079,0.129l-0.08,0.128l-0.08,0.128l-0.081,0.127l-0.082,0.126l-0.082,0.126l-0.083,0.126l-0.084,0.125l-0.085,0.124l-0.085,0.124l-0.086,0.123l-0.087,0.123l-0.087,0.122l-0.089,0.122l-0.089,0.121l-0.089,0.121l-0.091,0.12l-0.091,0.119l-0.092,0.119l-0.092,0.119l-0.093,0.118l-0.094,0.117l-0.095,0.116l-0.095,0.116l-0.096,0.116l-0.096,0.115l-0.098,0.114l-0.097,0.114l-0.099,0.113l-0.099,0.113l-0.1,0.111l-0.101,0.112l-0.101,0.11l-0.102,0.111l-0.102,0.109l-0.104,0.109l-0.103,0.108l-0.105,0.108l-0.105,0.107l-0.106,0.106l-0.106,0.106l-0.107,0.105l-0.108,0.105l-0.108,0.103l-0.109,0.104l-0.109,0.102l-0.111,0.102l-0.11,0.101l-0.112,0.101l-0.111,0.1l-0.113,0.099l-0.113,0.099l-0.114,0.097l-0.114,0.098l-0.115,0.096l-0.116,0.096l-0.116,0.095l-0.116,0.095l-0.117,0.094l-0.118,0.093l-0.119,0.092l-0.119,0.092l-0.119,0.091l-0.12,0.091l-0.121,0.089l-0.121,0.089l-0.122,0.089l-0.122,0.087l-0.123,0.087l-0.123,0.086l-0.124,0.085l-0.124,0.085l-0.125,0.084l-0.126,0.083l-0.126,0.082l-0.126,0.082l-0.127,0.081l-0.128,0.08l-0.128,0.08l-0.129,0.079l-0.129,0.077l-0.129,0.078l-0.131,0.076l-0.13,0.076l-0.131,0.075l-0.132,0.074l-0.132,0.073l-0.133,0.073l-0.133,0.072l-0.133,0.071l-0.134,0.07l-0.135,0.069l-0.135,0.069l-0.135,0.068l-0.136,0.067l-0.136,0.066l-0.137,0.066l-0.138,0.064l-0.137,0.064l-0.139,0.063l-0.138,0.062l-0.139,0.062l-0.14,0.06l-0.14,0.06l-0.14,0.059l-0.141,0.058l-0.141,0.057l-0.142,0.057l-0.142,0.055l-0.143,0.055l-0.143,0.054l-0.143,0.053l-0.144,0.052l-0.144,0.051l-0.144,0.051l-0.145,0.05l-0.146,0.048l-0.145,0.048l-0.147,0.047l-0.146,0.046l-0.147,0.046l-0.147,0.044l-0.148,0.043l-0.148,0.043l-0.149,0.042l-0.148,0.04l-0.15,0.04l-0.149,0.039l-0.15,0.038l-0.15,0.038l-0.151,0.036l-0.151,0.035l-0.151,0.035l-0.152,0.033l-0.152,0.033l-0.152,0.032l-0.153,0.03l-0.153,0.03l-0.153,0.029l-0.154,0.028l-0.154,0.027l-0.154,0.026l-0.155,0.026l-0.155,0.024l-0.155,0.023l-0.156,0.022l-0.156,0.022l-0.156,0.02l-0.156,0.019l-0.157,0.019l-0.157,0.017l-0.157,0.017l-0.158,0.015l-0.158,0.015l-0.158,0.013l-0.159,0.013l-0.158,0.012l-0.159,0.01l-0.16,0.01l-0.159,0.008l-0.16,0.008l-0.16,0.007l-0.161,0.005l-0.16,0.005l-0.161,0.003l-0.161,0.003l-0.161,0.001l-0.162,0.001l-0.162,-0.001l-0.161,-0.001l-0.161,-0.003l-0.161,-0.003l-0.16,-0.005l-0.161,-0.005l-0.16,-0.007l-0.16,-0.008l-0.159,-0.008l-0.16,-0.01l-0.159,-0.01l-0.158,-0.012l-0.159,-0.013l-0.158,-0.013l-0.158,-0.015l-0.158,-0.015l-0.157,-0.017l-0.157,-0.017l-0.157,-0.019l-0.156,-0.019l-0.156,-0.02l-0.156,-0.022l-0.156,-0.022l-0.155,-0.023l-0.155,-0.024l-0.155,-0.026l-0.154,-0.026l-0.154,-0.027l-0.154,-0.028l-0.153,-0.029l-0.153,-0.03l-0.153,-0.03l-0.152,-0.032l-0.152,-0.033l-0.152,-0.033l-0.151,-0.035l-0.151,-0.035l-0.151,-0.036l-0.15,-0.038l-0.15,-0.038l-0.149,-0.039l-0.15,-0.04l-0.148,-0.04l-0.149,-0.042l-0.148,-0.043l-0.148,-0.043l-0.147,-0.044l-0.147,-0.046l-0.146,-0.046l-0.147,-0.047l-0.145,-0.048l-0.146,-0.048l-0.145,-0.05l-0.144,-0.051l-0.144,-0.051l-0.144,-0.052l-0.143,-0.053l-0.143,-0.054l-0.143,-0.055l-0.142,-0.055l-0.142,-0.057l-0.141,-0.057l-0.141,-0.058l-0.14,-0.059l-0.14,-0.06l-0.14,-0.06l-0.139,-0.062l-0.138,-0.062l-0.139,-0.063l-0.137,-0.064l-0.138,-0.064l-0.137,-0.066l-0.136,-0.066l-0.136,-0.067l-0.135,-0.068l-0.135,-0.069l-0.135,-0.069l-0.134,-0.07l-0.133,-0.071l-0.133,-0.072l-0.133,-0.073l-0.132,-0.073l-0.132,-0.074l-0.131,-0.075l-0.13,-0.076l-0.131,-0.076l-0.129,-0.078l-0.129,-0.077l-0.129,-0.079l-0.128,-0.08l-0.128,-0.08l-0.127,-0.081l-0.126,-0.082l-0.126,-0.082l-0.126,-0.083l-0.125,-0.084l-0.124,-0.085l-0.124,-0.085l-0.123,-0.086l-0.123,-0.087l-0.122,-0.087l-0.122,-0.089l-0.121,-0.089l-0.121,-0.089l-0.12,-0.091l-0.119,-0.091l-0.119,-0.092l-0.119,-0.092l-0.118,-0.093l-0.117,-0.094l-0.116,-0.095l-0.116,-0.095l-0.116,-0.096l-0.115,-0.096l-0.114,-0.098l-0.114,-0.097l-0.113,-0.099l-0.113,-0.099l-0.111,-0.1l-0.112,-0.101l-0.11,-0.101l-0.111,-0.102l-0.109,-0.102l-0.109,-0.104l-0.108,-0.103l-0.108,-0.105l-0.107,-0.105l-0.106,-0.106l-0.106,-0.106l-0.105,-0.107l-0.105,-0.108l-0.103,-0.108l-0.104,-0.109l-0.102,-0.109l-0.102,-0.111l-0.101,-0.11l-0.101,-0.112l-0.1,-0.111l-0.099,-0.113l-0.099,-0.113l-0.097,-0.114l-0.098,-0.114l-0.096,-0.115l-0.096,-0.116l-0.095,-0.116l-0.095,-0.116l-0.094,-0.117l-0.093,-0.118l-0.092,-0.119l-0.092,-0.119l-0.091,-0.119l-0.091,-0.12l-0.089,-0.121l-0.089,-0.121l-0.089,-0.122l-0.087,-0.122l-0.087,-0.123l-0.086,-0.123l-0.085,-0.124l-0.085,-0.124l-0.084,-0.125l-0.083,-0.126l-0.082,-0.126l-0.082,-0.126l-0.081,-0.127l-0.08,-0.128l-0.08,-0.128l-0.079,-0.129l-0.077,-0.129l-0.078,-0.129l-0.076,-0.131l-0.076,-0.13l-0.075,-0.131l-0.074,-0.132l-0.073,-0.132l-0.073,-0.133l-0.072,-0.133l-0.071,-0.133l-0.07,-0.134l-0.069,-0.135l-0.069,-0.135l-0.068,-0.135l-0.067,-0.136l-0.066,-0.136l-0.066,-0.137l-0.064,-0.138l-0.064,-0.137l-0.063,-0.139l-0.062,-0.138l-0.062,-0.139l-0.06,-0.14l-0.06,-0.14l-0.059,-0.14l-0.058,-0.141l-0.057,-0.141l-0.057,-0.142l-0.055,-0.142l-0.055,-0.143l-0.054,-0.143l-0.053,-0.143l-0.052,-0.144l-0.051,-0.144l-0.051,-0.144l-0.05,-0.145l-0.048,-0.146l-0.048,-0.145l-0.047,-0.147l-0.046,-0.146l-0.046,-0.147l-0.044,-0.147l-0.043,-0.148l-0.043,-0.148l-0.042,-0.149l-0.04,-0.148l-0.04,-0.15l-0.039,-0.149l-0.038,-0.15l-0.038,-0.15l-0.036,-0.151l-0.035,-0.151l-0.035,-0.151l-0.033,-0.152l-0.033,-0.152l-0.032,-0.152l-0.03,-0.153l-0.03,-0.153l-0.029,-0.153l-0.028,-0.154l-0.027,-0.154l-0.026,-0.154l-0.026,-0.155l-0.024,-0.155l-0.023,-0.155l-0.022,-0.156l-0.022,-0.156l-0.02,-0.156l-0.019,-0.156l-0.019,-0.157l-0.017,-0.157l-0.017,-0.157l-0.015,-0.158l-0.015,-0.158l-0.013,-0.158l-0.013,-0.159l-0.012,-0.158l-0.01,-0.159l-0.01,-0.16l-0.008,-0.159l-0.008,-0.16l-0.007,-0.16l-0.005,-0.161l-0.005,-0.16l-0.003,-0.161l-0.003,-0.161l-0.001,-0.161l-0.001,-0.162l0.001,-0.162l0.001,-0.161l0.003,-0.161l0.003,-0.161l0.005,-0.16l0.005,-0.161l0.007,-0.16l0.008,-0.16l0.008,-0.159l0.01,-0.16l0.01,-0.159l0.012,-0.158l0.013,-0.159l0.013,-0.158l0.015,-0.158l0.015,-0.158l0.017,-0.157l0.017,-0.157l0.019,-0.157l0.019,-0.156l0.02,-0.156l0.022,-0.156l0.022,-0.156l0.023,-0.155l0.024,-0.155l0.026,-0.155l0.026,-0.154l0.027,-0.154l0.028,-0.154l0.029,-0.153l0.03,-0.153l0.03,-0.153l0.032,-0.152l0.033,-0.152l0.033,-0.152l0.035,-0.151l0.035,-0.151l0.036,-0.151l0.038,-0.15l0.038,-0.15l0.039,-0.149l0.04,-0.15l0.04,-0.148l0.042,-0.149l0.043,-0.148l0.043,-0.148l0.044,-0.147l0.046,-0.147l0.046,-0.146l0.047,-0.147l0.048,-0.145l0.048,-0.146l0.05,-0.145l0.051,-0.144l0.051,-0.144l0.052,-0.144l0.053,-0.143l0.054,-0.143l0.055,-0.143l0.055,-0.142l0.057,-0.142l0.057,-0.141l0.058,-0.141l0.059,-0.14l0.06,-0.14l0.06,-0.14l0.062,-0.139l0.062,-0.138l0.063,-0.139l0.064,-0.137l0.064,-0.138l0.066,-0.137l0.066,-0.136l0.067,-0.136l0.068,-0.135l0.069,-0.135l0.069,-0.135l0.07,-0.134l0.071,-0.133l0.072,-0.133l0.073,-0.133l0.073,-0.132l0.074,-0.132l0.075,-0.131l0.076,-0.13l0.076,-0.131l0.078,-0.129l0.077,-0.129l0.079,-0.129l0.08,-0.128l0.08,-0.128l0.081,-0.127l0.082,-0.126l0.082,-0.126l0.083,-0.126l0.084,-0.125l0.085,-0.124l0.085,-0.124l0.086,-0.123l0.087,-0.123l0.087,-0.122l0.089,-0.122l0.089,-0.121l0.089,-0.121l0.091,-0.12l0.091,-0.119l0.092,-0.119l0.092,-0.119l0.093,-0.118l0.094,-0.117l0.095,-0.116l0.095,-0.116l0.096,-0.116l0.096,-0.115l0.098,-0.114l0.097,-0.114l0.099,-0.113l0.099,-0.113l0.1,-0.111l0.101,-0.112l0.101,-0.11l0.102,-0.111l0.102,-0.109l0.104,-0.109l0.103,-0.108l0.105,-0.108l0.105,-0.107l0.106,-0.106l0.106,-0.106l0.107,-0.105l0.108,-0.105l0.108,-0.103l0.109,-0.104l0.109,-0.102l0.111,-0.102l0.11,-0.101l0.112,-0.101l0.111,-0.1l0.113,-0.099l0.113,-0.099l0.114,-0.097l0.114,-0.098l0.115,-0.096l0.116,-0.096l0.116,-0.095l0.116,-0.095l0.117,-0.094l0.118,-0.093l0.119,-0.092l0.119,-0.092l0.119,-0.091l0.12,-0.091l0.121,-0.089l0.121,-0.089l0.122,-0.089l0.122,-0.087l0.123,-0.087l0.123,-0.086l0.124,-0.085l0.124,-0.085l0.125,-0.084l0.126,-0.083l0.126,-0.082l0.126,-0.082l0.127,-0.081l0.128,-0.08l0.128,-0.08l0.129,-0.079l0.129,-0.077l0.129,-0.078l0.131,-0.076l0.13,-0.076l0.131,-0.075l0.132,-0.074l0.132,-0.073l0.133,-0.073l0.133,-0.072l0.133,-0.071l0.134,-0.07l0.135,-0.069l0.135,-0.069l0.135,-0.068l0.136,-0.067l0.136,-0.066l0.137,-0.066l0.138,-0.064l0.137,-0.064l0.139,-0.063l0.138,-0.062l0.139,-0.062l0.14,-0.06l0.14,-0.06l0.14,-0.059l0.141,-0.058l0.141,-0.057l0.142,-0.057l0.142,-0.055l0.143,-0.055l0.143,-0.054l0.143,-0.053l0.144,-0.052l0.144,-0.051l0.144,-0.051l0.145,-0.05l0.146,-0.048l0.145,-0.048l0.147,-0.047l0.146,-0.046l0.147,-0.046l0.147,-0.044l0.148,-0.043l0.148,-0.043l0.149,-0.042l0.148,-0.04l0.15,-0.04l0.149,-0.039l0.15,-0.038l0.15,-0.038l0.151,-0.036l0.151,-0.035l0.151,-0.035l0.152,-0.033l0.152,-0.033l0.152,-0.032l0.153,-0.03l0.153,-0.03l0.153,-0.029l0.154,-0.028l0.154,-0.027l0.154,-0.026l0.155,-0.026l0.155,-0.024l0.155,-0.023l0.156,-0.022l0.156,-0.022l0.156,-0.02l0.156,-0.019l0.157,-0.019l0.157,-0.017l0.157,-0.017l0.158,-0.015l0.158,-0.015l0.158,-0.013l0.159,-0.013l0.158,-0.012l0.159,-0.01l0.16,-0.01l0.159,-0.008l0.16,-0.008l0.16,-0.007l0.161,-0.005l0.16,-0.005l0.161,-0.003l0.161,-0.003l0.161,-0.001l0.162,-0.001l0.162,0.001Zm-0.305,3l-0.142,0.001l-0.142,0.002l-0.142,0.003l-0.141,0.004l-0.142,0.005l-0.141,0.006l-0.14,0.007l-0.141,0.007l-0.141,0.009l-0.139,0.009l-0.14,0.01l-0.141,0.011l-0.138,0.012l-0.139,0.013l-0.139,0.014l-0.138,0.014l-0.139,0.016l-0.137,0.016l-0.138,0.017l-0.138,0.018l-0.138,0.019l-0.136,0.019l-0.136,0.021l-0.137,0.021l-0.136,0.022l-0.136,0.023l-0.135,0.024l-0.135,0.025l-0.135,0.025l-0.134,0.026l-0.134,0.027l-0.134,0.028l-0.134,0.029l-0.134,0.029l-0.133,0.031l-0.132,0.031l-0.133,0.032l-0.132,0.032l-0.131,0.034l-0.132,0.034l-0.132,0.035l-0.131,0.036l-0.129,0.037l-0.13,0.037l-0.13,0.038l-0.13,0.04l-0.13,0.04l-0.127,0.039l-0.129,0.042l-0.129,0.042l-0.127,0.043l-0.127,0.043l-0.128,0.045l-0.127,0.045l-0.126,0.046l-0.126,0.047l-0.125,0.047l-0.126,0.048l-0.125,0.049l-0.124,0.049l-0.124,0.051l-0.124,0.051l-0.124,0.052l-0.123,0.052l-0.123,0.054l-0.122,0.054l-0.121,0.054l-0.122,0.056l-0.122,0.056l-0.12,0.056l-0.12,0.058l-0.122,0.059l-0.118,0.058l-0.118,0.06l-0.121,0.061l-0.117,0.06l-0.118,0.062l-0.119,0.064l-0.116,0.062l-0.117,0.064l-0.116,0.065l-0.114,0.064l-0.116,0.066l-0.116,0.068l-0.116,0.067l-0.112,0.067l-0.113,0.069l-0.113,0.069l-0.113,0.07l-0.113,0.071l-0.113,0.072l-0.11,0.071l-0.111,0.073l-0.112,0.074l-0.109,0.072l-0.108,0.075l-0.11,0.075l-0.109,0.076l-0.108,0.076l-0.108,0.078l-0.108,0.078l-0.106,0.078l-0.106,0.079l-0.105,0.078l-0.106,0.081l-0.104,0.081l-0.104,0.081l-0.104,0.083l-0.105,0.083l-0.102,0.083l-0.102,0.084l-0.102,0.084l-0.1,0.084l-0.101,0.087l-0.1,0.086l-0.1,0.087l-0.099,0.087l-0.098,0.087l-0.1,0.091l-0.097,0.088l-0.095,0.089l-0.098,0.091l-0.096,0.091l-0.095,0.092l-0.095,0.091l-0.093,0.092l-0.095,0.095l-0.094,0.093l-0.091,0.093l-0.093,0.096l-0.092,0.096l-0.09,0.095l-0.09,0.096l-0.09,0.098l-0.089,0.097l-0.089,0.099l-0.087,0.097l-0.088,0.1l-0.088,0.1l-0.084,0.098l-0.086,0.102l-0.086,0.102l-0.085,0.102l-0.085,0.103l-0.082,0.102l-0.082,0.102l-0.082,0.104l-0.082,0.105l-0.081,0.104l-0.079,0.104l-0.08,0.107l-0.08,0.107l-0.078,0.106l-0.077,0.106l-0.078,0.109l-0.075,0.107l-0.077,0.11l-0.075,0.108l-0.074,0.11l-0.075,0.111l-0.072,0.11l-0.073,0.11l-0.071,0.111l-0.073,0.114l-0.07,0.111l-0.069,0.112l-0.071,0.116l-0.068,0.113l-0.067,0.112l-0.067,0.114l-0.067,0.116l-0.066,0.116l-0.066,0.116l-0.064,0.116l-0.064,0.116l-0.064,0.12l-0.062,0.115l-0.061,0.117l-0.062,0.119l-0.059,0.117l-0.061,0.121l-0.059,0.12l-0.058,0.121l-0.057,0.118l-0.057,0.121l-0.056,0.122l-0.056,0.122l-0.055,0.122l-0.053,0.121l-0.054,0.123l-0.053,0.124l-0.051,0.121l-0.051,0.125l-0.051,0.125l-0.049,0.123l-0.049,0.126l-0.049,0.127l-0.046,0.124l-0.046,0.124l-0.048,0.131l-0.045,0.125l-0.043,0.126l-0.044,0.129l-0.043,0.126l-0.042,0.127l-0.041,0.13l-0.041,0.131l-0.04,0.128l-0.039,0.128l-0.038,0.129l-0.037,0.13l-0.037,0.132l-0.036,0.133l-0.035,0.13l-0.034,0.131l-0.034,0.131l-0.032,0.132l-0.032,0.132l-0.031,0.132l-0.031,0.135l-0.029,0.133l-0.028,0.131l-0.029,0.137l-0.027,0.134l-0.026,0.134l-0.026,0.138l-0.024,0.132l-0.024,0.135l-0.023,0.136l-0.022,0.136l-0.021,0.137l-0.02,0.134l-0.02,0.14l-0.019,0.138l-0.018,0.135l-0.017,0.138l-0.016,0.138l-0.016,0.139l-0.014,0.136l-0.014,0.14l-0.013,0.14l-0.012,0.14l-0.011,0.141l-0.01,0.137l-0.009,0.139l-0.009,0.141l-0.007,0.142l-0.007,0.139l-0.006,0.142l-0.005,0.143l-0.004,0.14l-0.003,0.14l-0.002,0.144l-0.001,0.144l-0.001,0.141l0.001,0.141l0.001,0.144l0.002,0.144l0.003,0.14l0.004,0.14l0.005,0.143l0.006,0.142l0.007,0.139l0.007,0.142l0.009,0.141l0.009,0.139l0.01,0.137l0.011,0.141l0.012,0.14l0.013,0.14l0.014,0.14l0.014,0.136l0.016,0.139l0.016,0.138l0.017,0.138l0.018,0.135l0.019,0.138l0.02,0.14l0.02,0.134l0.021,0.137l0.022,0.136l0.023,0.136l0.024,0.135l0.024,0.132l0.026,0.138l0.026,0.134l0.027,0.134l0.029,0.137l0.028,0.131l0.029,0.133l0.031,0.135l0.031,0.132l0.032,0.132l0.032,0.132l0.034,0.131l0.034,0.131l0.035,0.13l0.036,0.133l0.037,0.132l0.037,0.13l0.038,0.129l0.039,0.128l0.04,0.128l0.041,0.131l0.041,0.13l0.042,0.127l0.043,0.126l0.044,0.129l0.043,0.126l0.045,0.125l0.048,0.131l0.046,0.124l0.046,0.124l0.049,0.127l0.049,0.126l0.049,0.123l0.051,0.125l0.051,0.125l0.051,0.121l0.053,0.124l0.054,0.123l0.053,0.121l0.055,0.122l0.056,0.122l0.056,0.122l0.057,0.121l0.057,0.118l0.058,0.121l0.059,0.12l0.061,0.121l0.059,0.117l0.062,0.119l0.061,0.117l0.062,0.115l0.064,0.12l0.064,0.116l0.064,0.116l0.066,0.116l0.066,0.116l0.067,0.116l0.067,0.114l0.067,0.112l0.068,0.113l0.071,0.116l0.069,0.112l0.07,0.111l0.073,0.114l0.071,0.111l0.073,0.11l0.072,0.11l0.075,0.111l0.074,0.11l0.075,0.108l0.077,0.11l0.075,0.107l0.078,0.109l0.077,0.106l0.078,0.106l0.08,0.107l0.08,0.107l0.079,0.104l0.081,0.104l0.082,0.105l0.082,0.104l0.082,0.102l0.082,0.102l0.085,0.103l0.085,0.102l0.086,0.102l0.086,0.102l0.084,0.098l0.088,0.1l0.088,0.1l0.087,0.097l0.089,0.099l0.089,0.097l0.09,0.098l0.09,0.096l0.09,0.095l0.092,0.096l0.093,0.096l0.091,0.093l0.094,0.093l0.095,0.095l0.093,0.092l0.095,0.091l0.095,0.092l0.096,0.091l0.098,0.091l0.095,0.089l0.097,0.088l0.1,0.091l0.098,0.087l0.099,0.087l0.1,0.087l0.1,0.086l0.101,0.087l0.1,0.084l0.102,0.084l0.102,0.084l0.102,0.083l0.105,0.083l0.104,0.083l0.104,0.081l0.104,0.081l0.106,0.081l0.105,0.078l0.106,0.079l0.106,0.078l0.108,0.078l0.108,0.078l0.108,0.076l0.109,0.076l0.11,0.075l0.108,0.075l0.109,0.072l0.112,0.074l0.111,0.073l0.11,0.071l0.113,0.072l0.113,0.071l0.113,0.07l0.113,0.069l0.113,0.069l0.112,0.067l0.116,0.067l0.116,0.068l0.116,0.066l0.114,0.064l0.116,0.065l0.117,0.064l0.116,0.062l0.119,0.064l0.118,0.062l0.117,0.06l0.121,0.061l0.118,0.06l0.118,0.058l0.122,0.059l0.12,0.058l0.12,0.056l0.122,0.056l0.122,0.056l0.121,0.054l0.122,0.054l0.123,0.054l0.123,0.052l0.124,0.052l0.124,0.051l0.124,0.051l0.124,0.049l0.125,0.049l0.126,0.048l0.125,0.047l0.126,0.047l0.126,0.046l0.127,0.045l0.128,0.045l0.127,0.043l0.127,0.043l0.129,0.042l0.129,0.042l0.127,0.039l0.13,0.04l0.13,0.04l0.13,0.038l0.13,0.037l0.129,0.037l0.131,0.036l0.132,0.035l0.132,0.034l0.131,0.034l0.132,0.032l0.133,0.032l0.132,0.031l0.133,0.031l0.134,0.029l0.134,0.029l0.134,0.028l0.134,0.027l0.134,0.026l0.135,0.025l0.135,0.025l0.135,0.024l0.136,0.023l0.136,0.022l0.137,0.021l0.136,0.021l0.136,0.019l0.138,0.019l0.138,0.018l0.138,0.017l0.137,0.016l0.139,0.016l0.138,0.014l0.139,0.014l0.139,0.013l0.138,0.012l0.141,0.011l0.14,0.01l0.139,0.009l0.141,0.009l0.141,0.007l0.14,0.007l0.141,0.006l0.142,0.005l0.141,0.004l0.142,0.003l0.142,0.002l0.142,0.001l0.143,0.001l0.143,-0.001l0.142,-0.001l0.142,-0.002l0.142,-0.003l0.141,-0.004l0.142,-0.005l0.141,-0.006l0.14,-0.007l0.141,-0.007l0.141,-0.009l0.139,-0.009l0.14,-0.01l0.141,-0.011l0.138,-0.012l0.139,-0.013l0.139,-0.014l0.138,-0.014l0.139,-0.016l0.137,-0.016l0.138,-0.017l0.138,-0.018l0.138,-0.019l0.136,-0.019l0.136,-0.021l0.137,-0.021l0.136,-0.022l0.136,-0.023l0.135,-0.024l0.135,-0.025l0.135,-0.025l0.134,-0.026l0.134,-0.027l0.134,-0.028l0.134,-0.029l0.134,-0.029l0.133,-0.031l0.132,-0.031l0.133,-0.032l0.132,-0.032l0.131,-0.034l0.132,-0.034l0.132,-0.035l0.131,-0.036l0.129,-0.037l0.13,-0.037l0.13,-0.038l0.13,-0.04l0.13,-0.04l0.127,-0.039l0.129,-0.042l0.129,-0.042l0.127,-0.043l0.127,-0.043l0.128,-0.045l0.127,-0.045l0.126,-0.046l0.126,-0.047l0.125,-0.047l0.126,-0.048l0.125,-0.049l0.124,-0.049l0.124,-0.051l0.124,-0.051l0.124,-0.052l0.123,-0.052l0.123,-0.054l0.122,-0.054l0.121,-0.054l0.122,-0.056l0.122,-0.056l0.12,-0.056l0.12,-0.058l0.122,-0.059l0.118,-0.058l0.118,-0.06l0.121,-0.061l0.117,-0.06l0.118,-0.062l0.119,-0.064l0.116,-0.062l0.117,-0.064l0.116,-0.065l0.114,-0.064l0.116,-0.066l0.116,-0.068l0.116,-0.067l0.112,-0.067l0.113,-0.069l0.113,-0.069l0.113,-0.07l0.113,-0.071l0.113,-0.072l0.11,-0.071l0.111,-0.073l0.112,-0.074l0.109,-0.072l0.108,-0.075l0.11,-0.075l0.109,-0.076l0.108,-0.076l0.108,-0.078l0.108,-0.078l0.106,-0.078l0.106,-0.079l0.105,-0.078l0.106,-0.081l0.104,-0.081l0.104,-0.081l0.104,-0.083l0.105,-0.083l0.102,-0.083l0.102,-0.084l0.102,-0.084l0.1,-0.084l0.101,-0.087l0.1,-0.086l0.1,-0.087l0.099,-0.087l0.098,-0.087l0.1,-0.091l0.097,-0.088l0.095,-0.089l0.098,-0.091l0.096,-0.091l0.095,-0.092l0.095,-0.091l0.093,-0.092l0.095,-0.095l0.094,-0.093l0.091,-0.093l0.093,-0.096l0.092,-0.096l0.09,-0.095l0.09,-0.096l0.09,-0.098l0.089,-0.097l0.089,-0.099l0.087,-0.097l0.088,-0.1l0.088,-0.1l0.084,-0.098l0.086,-0.102l0.086,-0.102l0.085,-0.102l0.085,-0.103l0.082,-0.102l0.082,-0.102l0.082,-0.104l0.082,-0.105l0.081,-0.104l0.079,-0.104l0.08,-0.107l0.08,-0.107l0.078,-0.106l0.077,-0.106l0.078,-0.109l0.075,-0.107l0.077,-0.11l0.075,-0.108l0.074,-0.11l0.075,-0.111l0.072,-0.11l0.073,-0.11l0.071,-0.111l0.073,-0.114l0.07,-0.111l0.069,-0.112l0.071,-0.116l0.068,-0.113l0.067,-0.112l0.067,-0.114l0.067,-0.116l0.066,-0.116l0.066,-0.116l0.064,-0.116l0.064,-0.116l0.064,-0.12l0.062,-0.115l0.061,-0.117l0.062,-0.119l0.059,-0.117l0.061,-0.121l0.059,-0.12l0.058,-0.121l0.057,-0.118l0.057,-0.121l0.056,-0.122l0.056,-0.122l0.055,-0.122l0.053,-0.121l0.054,-0.123l0.053,-0.124l0.051,-0.121l0.051,-0.125l0.051,-0.125l0.049,-0.123l0.049,-0.126l0.049,-0.127l0.046,-0.124l0.046,-0.124l0.048,-0.131l0.045,-0.125l0.043,-0.126l0.044,-0.129l0.043,-0.126l0.042,-0.127l0.041,-0.13l0.041,-0.131l0.04,-0.128l0.039,-0.128l0.038,-0.129l0.037,-0.13l0.037,-0.132l0.036,-0.133l0.035,-0.13l0.034,-0.131l0.034,-0.131l0.032,-0.132l0.032,-0.132l0.031,-0.132l0.031,-0.135l0.029,-0.133l0.028,-0.131l0.029,-0.137l0.027,-0.134l0.026,-0.134l0.026,-0.138l0.024,-0.132l0.024,-0.135l0.023,-0.136l0.022,-0.136l0.021,-0.137l0.02,-0.134l0.02,-0.14l0.019,-0.138l0.018,-0.135l0.017,-0.138l0.016,-0.138l0.016,-0.139l0.014,-0.136l0.014,-0.14l0.013,-0.14l0.012,-0.14l0.011,-0.141l0.01,-0.137l0.009,-0.139l0.009,-0.141l0.007,-0.142l0.007,-0.139l0.006,-0.142l0.005,-0.143l0.004,-0.14l0.003,-0.14l0.002,-0.144l0.001,-0.144l0.001,-0.141l-0.001,-0.141l-0.001,-0.144l-0.002,-0.144l-0.003,-0.14l-0.004,-0.14l-0.005,-0.143l-0.006,-0.142l-0.007,-0.139l-0.007,-0.142l-0.009,-0.141l-0.009,-0.139l-0.01,-0.137l-0.011,-0.141l-0.012,-0.14l-0.013,-0.14l-0.014,-0.14l-0.014,-0.136l-0.016,-0.139l-0.016,-0.138l-0.017,-0.138l-0.018,-0.135l-0.019,-0.138l-0.02,-0.14l-0.02,-0.134l-0.021,-0.137l-0.022,-0.136l-0.023,-0.136l-0.024,-0.135l-0.024,-0.132l-0.026,-0.138l-0.026,-0.134l-0.027,-0.134l-0.029,-0.137l-0.028,-0.131l-0.029,-0.133l-0.031,-0.135l-0.031,-0.132l-0.032,-0.132l-0.032,-0.132l-0.034,-0.131l-0.034,-0.131l-0.035,-0.13l-0.036,-0.133l-0.037,-0.132l-0.037,-0.13l-0.038,-0.129l-0.039,-0.128l-0.04,-0.128l-0.041,-0.131l-0.041,-0.13l-0.042,-0.127l-0.043,-0.126l-0.044,-0.129l-0.043,-0.126l-0.045,-0.125l-0.048,-0.131l-0.046,-0.124l-0.046,-0.124l-0.049,-0.127l-0.049,-0.126l-0.049,-0.123l-0.051,-0.125l-0.051,-0.125l-0.051,-0.121l-0.053,-0.124l-0.054,-0.123l-0.053,-0.121l-0.055,-0.122l-0.056,-0.122l-0.056,-0.122l-0.057,-0.121l-0.057,-0.118l-0.058,-0.121l-0.059,-0.12l-0.061,-0.121l-0.059,-0.117l-0.062,-0.119l-0.061,-0.117l-0.062,-0.115l-0.064,-0.12l-0.064,-0.116l-0.064,-0.116l-0.066,-0.116l-0.066,-0.116l-0.067,-0.116l-0.067,-0.114l-0.067,-0.112l-0.068,-0.113l-0.071,-0.116l-0.069,-0.112l-0.07,-0.111l-0.073,-0.114l-0.071,-0.111l-0.073,-0.11l-0.072,-0.11l-0.075,-0.111l-0.074,-0.11l-0.075,-0.108l-0.077,-0.11l-0.075,-0.107l-0.078,-0.109l-0.077,-0.106l-0.078,-0.106l-0.08,-0.107l-0.08,-0.107l-0.079,-0.104l-0.081,-0.104l-0.082,-0.105l-0.082,-0.104l-0.082,-0.102l-0.082,-0.102l-0.085,-0.103l-0.085,-0.102l-0.086,-0.102l-0.086,-0.102l-0.084,-0.098l-0.088,-0.1l-0.088,-0.1l-0.087,-0.097l-0.089,-0.099l-0.089,-0.097l-0.09,-0.098l-0.09,-0.096l-0.09,-0.095l-0.092,-0.096l-0.093,-0.096l-0.091,-0.093l-0.094,-0.093l-0.095,-0.095l-0.093,-0.092l-0.095,-0.091l-0.095,-0.092l-0.096,-0.091l-0.098,-0.091l-0.095,-0.089l-0.097,-0.088l-0.1,-0.091l-0.098,-0.087l-0.099,-0.087l-0.1,-0.087l-0.1,-0.086l-0.101,-0.087l-0.1,-0.084l-0.102,-0.084l-0.102,-0.084l-0.102,-0.083l-0.105,-0.083l-0.104,-0.083l-0.104,-0.081l-0.104,-0.081l-0.106,-0.081l-0.105,-0.078l-0.106,-0.079l-0.106,-0.078l-0.108,-0.078l-0.108,-0.078l-0.108,-0.076l-0.109,-0.076l-0.11,-0.075l-0.108,-0.075l-0.109,-0.072l-0.112,-0.074l-0.111,-0.073l-0.11,-0.071l-0.113,-0.072l-0.113,-0.071l-0.113,-0.07l-0.113,-0.069l-0.113,-0.069l-0.112,-0.067l-0.116,-0.067l-0.116,-0.068l-0.116,-0.066l-0.114,-0.064l-0.116,-0.065l-0.117,-0.064l-0.116,-0.062l-0.119,-0.064l-0.118,-0.062l-0.117,-0.06l-0.121,-0.061l-0.118,-0.06l-0.118,-0.058l-0.122,-0.059l-0.12,-0.058l-0.12,-0.056l-0.122,-0.056l-0.122,-0.056l-0.121,-0.054l-0.122,-0.054l-0.123,-0.054l-0.123,-0.052l-0.124,-0.052l-0.124,-0.051l-0.124,-0.051l-0.124,-0.049l-0.125,-0.049l-0.126,-0.048l-0.125,-0.047l-0.126,-0.047l-0.126,-0.046l-0.127,-0.045l-0.128,-0.045l-0.127,-0.043l-0.127,-0.043l-0.129,-0.042l-0.129,-0.042l-0.127,-0.039l-0.13,-0.04l-0.13,-0.04l-0.13,-0.038l-0.13,-0.037l-0.129,-0.037l-0.131,-0.036l-0.132,-0.035l-0.132,-0.034l-0.131,-0.034l-0.132,-0.032l-0.133,-0.032l-0.132,-0.031l-0.133,-0.031l-0.134,-0.029l-0.134,-0.029l-0.134,-0.028l-0.134,-0.027l-0.134,-0.026l-0.135,-0.025l-0.135,-0.025l-0.135,-0.024l-0.136,-0.023l-0.136,-0.022l-0.137,-0.021l-0.136,-0.021l-0.136,-0.019l-0.138,-0.019l-0.138,-0.018l-0.138,-0.017l-0.137,-0.016l-0.139,-0.016l-0.138,-0.014l-0.139,-0.014l-0.139,-0.013l-0.138,-0.012l-0.141,-0.011l-0.14,-0.01l-0.139,-0.009l-0.141,-0.009l-0.141,-0.007l-0.14,-0.007l-0.141,-0.006l-0.142,-0.005l-0.141,-0.004l-0.142,-0.003l-0.142,-0.002l-0.142,-0.001l-0.143,-0.001l-0.143,0.001Z" style="fill:#2a2a2a;"/></g></svg>