<?xml version="1.0" encoding="UTF-8" standalone="no"?><!DOCTYPE svg PUBLIC "-//W3C//DTD SVG 1.1//EN" "http://www.w3.org/Graphics/SVG/1.1/DTD/svg11.dtd"><svg width="100%" height="100%" viewBox="0 0 50 50" version="1.1" xmlns="http://www.w3.org/2000/svg" xmlns:xlink="http://www.w3.org/1999/xlink" xml:space="preserve" xmlns:serif="http://www.serif.com/" style="fill-rule:evenodd;clip-rule:evenodd;stroke-linecap:round;stroke-linejoin:round;stroke-miterlimit:2;"><rect id="m_witch_thumb" x="0" y="0" width="50" height="50" style="fill:none;"/><clipPath id="_clip1"><rect x="0" y="0" width="50" height="50"/></clipPath><g clip-path="url(#_clip1)"><circle cx="25" cy="25" r="25" style="fill:none;"/><clipPath id="_clip2"><circle cx="25" cy="25" r="25"/></clipPath><g clip-path="url(#_clip2)"><g><g id="boytato"><path d="M19.692,51.203c1.113,2.731 1.213,5.193 0,7.307" style="fill:none;stroke:#ac8639;stroke-width:1.88px;"/><path d="M32.166,51.227c0.748,2.388 0.788,4.821 0,7.307" style="fill:none;stroke:#ac8639;stroke-width:1.88px;"/><path d="M38.387,37.027c0.405,2.92 1.553,5.102 3.664,6.328" style="fill:none;stroke:#ac8639;stroke-width:1.88px;"/><path id="potato" d="M25.129,11.478c11.74,0 15.883,9.262 15.883,20.67c0,11.408 -3.237,20.67 -15.883,20.67c-12.646,0 -15.883,-9.262 -15.883,-20.67c0,-11.408 4.143,-20.67 15.883,-20.67Z" style="fill:#edbe5e;"/><clipPath id="_clip3"><path d="M25.129,11.478c11.74,0 15.883,9.262 15.883,20.67c0,11.408 -3.237,20.67 -15.883,20.67c-12.646,0 -15.883,-9.262 -15.883,-20.67c0,-11.408 4.143,-20.67 15.883,-20.67Z"/></clipPath><g clip-path="url(#_clip3)"><path id="shadow" d="M25.129,11.478c-21.191,9.645 -9.937,40.639 0,41.34c-12.646,0 -15.883,-9.262 -15.883,-20.67c0,-11.408 4.143,-20.67 15.883,-20.67Z" style="fill:#cda24c;fill-opacity:0.25098;"/><ellipse id="eye_1" cx="22.971" cy="27.573" rx="1.715" ry="1.71" style="fill:#302a1c;"/><ellipse id="eye_2" cx="35.498" cy="27.573" rx="1.715" ry="1.71" style="fill:#302a1c;"/><g id="eyebrows"><path d="M23.904,24.06c-0.691,-0.512 -1.91,-0.441 -2.495,0" style="fill:none;stroke:#ac8639;stroke-opacity:0.5;stroke-width:0.81px;"/><path d="M36.532,24.06c-0.692,-0.512 -1.91,-0.441 -2.495,0" style="fill:none;stroke:#ac8639;stroke-opacity:0.5;stroke-width:0.81px;"/></g><g id="marks"><path d="M14.179,33.791c0.691,-0.512 1.91,-0.44 2.495,0" style="fill:none;stroke:#ac8639;stroke-opacity:0.5;stroke-width:0.81px;"/><path d="M34.062,39.329c0.692,-0.512 1.91,-0.441 2.495,0" style="fill:none;stroke:#ac8639;stroke-opacity:0.5;stroke-width:0.81px;"/><path d="M19.852,43.139c0.692,-0.511 1.91,-0.44 2.495,0" style="fill:none;stroke:#ac8639;stroke-opacity:0.5;stroke-width:0.81px;"/><path d="M26.638,48.515c0.691,-0.512 1.91,-0.441 2.494,0" style="fill:none;stroke:#ac8639;stroke-opacity:0.5;stroke-width:0.81px;"/></g><path id="mouth" d="M26.902,33.749c2.475,0.005 2.64,0.054 4.394,0" style="fill:none;stroke:#302a1c;stroke-width:0.93px;"/></g><path d="M25.266,11.478l0.137,0.001l0.136,0.003l0.135,0.003l0.134,0.003l0.134,0.005l0.133,0.005l0.132,0.007l0.132,0.007l0.131,0.008l0.131,0.009l0.129,0.009l0.129,0.011l0.128,0.011l0.128,0.012l0.127,0.013l0.126,0.013l0.126,0.015l0.125,0.015l0.124,0.016l0.124,0.017l0.123,0.017l0.122,0.019l0.121,0.019l0.121,0.02l0.121,0.021l0.119,0.022l0.119,0.022l0.118,0.023l0.118,0.024l0.117,0.025l0.116,0.025l0.116,0.026l0.115,0.027l0.114,0.028l0.114,0.029l0.113,0.029l0.112,0.03l0.112,0.031l0.111,0.031l0.11,0.032l0.11,0.033l0.109,0.034l0.109,0.035l0.108,0.035l0.107,0.036l0.106,0.036l0.106,0.038l0.106,0.038l0.104,0.039l0.104,0.039l0.104,0.041l0.102,0.041l0.103,0.041l0.101,0.043l0.101,0.043l0.1,0.044l0.1,0.044l0.099,0.046l0.098,0.046l0.098,0.046l0.097,0.048l0.097,0.048l0.095,0.048l0.096,0.05l0.094,0.05l0.095,0.051l0.093,0.051l0.093,0.052l0.092,0.053l0.092,0.053l0.091,0.054l0.09,0.055l0.09,0.056l0.089,0.056l0.089,0.057l0.088,0.057l0.087,0.058l0.087,0.059l0.086,0.059l0.086,0.06l0.085,0.061l0.084,0.061l0.084,0.062l0.083,0.063l0.083,0.063l0.082,0.064l0.081,0.064l0.081,0.065l0.08,0.066l0.08,0.066l0.079,0.067l0.079,0.068l0.077,0.068l0.078,0.069l0.077,0.069l0.076,0.07l0.075,0.071l0.076,0.071l0.074,0.071l0.074,0.073l0.073,0.073l0.073,0.073l0.072,0.075l0.072,0.074l0.071,0.076l0.07,0.075l0.07,0.077l0.07,0.077l0.069,0.077l0.068,0.079l0.068,0.078l0.067,0.08l0.066,0.08l0.066,0.08l0.066,0.081l0.065,0.081l0.064,0.082l0.064,0.083l0.063,0.083l0.063,0.084l0.062,0.084l0.062,0.085l0.061,0.085l0.061,0.086l0.06,0.087l0.059,0.086l0.059,0.088l0.058,0.088l0.058,0.088l0.058,0.089l0.056,0.09l0.057,0.09l0.055,0.09l0.056,0.091l0.054,0.092l0.054,0.092l0.054,0.092l0.053,0.094l0.053,0.093l0.052,0.094l0.051,0.095l0.051,0.095l0.051,0.095l0.05,0.096l0.049,0.096l0.049,0.097l0.049,0.098l0.047,0.098l0.048,0.098l0.047,0.099l0.046,0.099l0.046,0.1l0.045,0.1l0.045,0.101l0.045,0.101l0.043,0.101l0.044,0.102l0.043,0.103l0.042,0.102l0.042,0.104l0.041,0.104l0.041,0.104l0.041,0.104l0.039,0.105l0.04,0.106l0.039,0.106l0.038,0.106l0.038,0.107l0.037,0.107l0.037,0.108l0.037,0.108l0.036,0.108l0.035,0.109l0.035,0.109l0.035,0.11l0.034,0.11l0.033,0.11l0.034,0.111l0.032,0.111l0.032,0.112l0.032,0.112l0.031,0.112l0.031,0.113l0.03,0.113l0.03,0.114l0.029,0.114l0.029,0.114l0.029,0.114l0.028,0.115l0.027,0.116l0.027,0.116l0.027,0.116l0.026,0.116l0.026,0.117l0.025,0.117l0.025,0.117l0.024,0.118l0.024,0.118l0.023,0.119l0.023,0.119l0.023,0.119l0.022,0.12l0.021,0.119l0.021,0.121l0.021,0.12l0.02,0.121l0.02,0.121l0.02,0.122l0.019,0.122l0.018,0.122l0.018,0.122l0.018,0.123l0.017,0.123l0.017,0.123l0.016,0.124l0.016,0.124l0.016,0.124l0.015,0.125l0.015,0.124l0.014,0.125l0.014,0.126l0.013,0.126l0.013,0.125l0.013,0.127l0.012,0.126l0.012,0.127l0.011,0.127l0.011,0.127l0.01,0.128l0.01,0.128l0.01,0.128l0.009,0.128l0.009,0.129l0.009,0.129l0.008,0.129l0.007,0.129l0.007,0.13l0.007,0.13l0.007,0.13l0.006,0.13l0.005,0.131l0.006,0.131l0.004,0.131l0.005,0.131l0.004,0.131l0.004,0.132l0.003,0.132l0.003,0.132l0.002,0.133l0.002,0.132l0.002,0.133l0.001,0.133l0.001,0.133l0.001,0.133l0,0.134l-0.001,0.267l-0.001,0.266l-0.003,0.266l-0.005,0.264l-0.005,0.264l-0.007,0.262l-0.008,0.262l-0.009,0.261l-0.011,0.26l-0.012,0.259l-0.014,0.258l-0.014,0.257l-0.017,0.256l-0.017,0.255l-0.01,0.127l-0.009,0.127l-0.01,0.126l-0.011,0.127l-0.011,0.126l-0.011,0.125l-0.011,0.126l-0.012,0.125l-0.012,0.125l-0.013,0.124l-0.013,0.124l-0.014,0.124l-0.013,0.124l-0.015,0.123l-0.014,0.123l-0.015,0.123l-0.016,0.123l-0.015,0.122l-0.016,0.121l-0.017,0.122l-0.017,0.121l-0.017,0.121l-0.018,0.12l-0.018,0.121l-0.019,0.12l-0.019,0.119l-0.019,0.119l-0.02,0.119l-0.02,0.119l-0.021,0.118l-0.021,0.118l-0.022,0.117l-0.022,0.117l-0.022,0.117l-0.023,0.117l-0.023,0.116l-0.024,0.115l-0.024,0.116l-0.025,0.115l-0.025,0.114l-0.025,0.115l-0.026,0.114l-0.027,0.113l-0.026,0.113l-0.028,0.113l-0.027,0.112l-0.029,0.112l-0.028,0.112l-0.029,0.111l-0.03,0.111l-0.03,0.11l-0.031,0.11l-0.031,0.11l-0.031,0.109l-0.032,0.109l-0.033,0.108l-0.032,0.108l-0.034,0.108l-0.034,0.107l-0.034,0.107l-0.035,0.106l-0.035,0.106l-0.036,0.106l-0.037,0.105l-0.036,0.104l-0.038,0.105l-0.038,0.103l-0.038,0.104l-0.039,0.103l-0.039,0.102l-0.04,0.102l-0.041,0.102l-0.041,0.101l-0.041,0.1l-0.042,0.1l-0.042,0.1l-0.043,0.099l-0.044,0.099l-0.044,0.099l-0.045,0.097l-0.045,0.098l-0.046,0.097l-0.046,0.096l-0.047,0.096l-0.047,0.096l-0.048,0.095l-0.048,0.094l-0.049,0.094l-0.05,0.094l-0.05,0.093l-0.05,0.092l-0.051,0.092l-0.052,0.092l-0.052,0.091l-0.053,0.09l-0.054,0.09l-0.054,0.09l-0.054,0.089l-0.055,0.088l-0.056,0.088l-0.057,0.088l-0.056,0.087l-0.058,0.086l-0.058,0.086l-0.059,0.085l-0.059,0.085l-0.06,0.084l-0.06,0.084l-0.061,0.083l-0.062,0.083l-0.062,0.082l-0.063,0.081l-0.063,0.081l-0.064,0.081l-0.065,0.08l-0.065,0.079l-0.066,0.079l-0.066,0.078l-0.068,0.077l-0.067,0.077l-0.069,0.077l-0.069,0.076l-0.069,0.075l-0.07,0.075l-0.071,0.074l-0.072,0.073l-0.072,0.073l-0.073,0.073l-0.073,0.071l-0.074,0.072l-0.075,0.07l-0.075,0.07l-0.076,0.07l-0.077,0.068l-0.077,0.068l-0.078,0.068l-0.079,0.067l-0.079,0.066l-0.08,0.066l-0.081,0.065l-0.081,0.065l-0.082,0.063l-0.082,0.064l-0.084,0.062l-0.084,0.062l-0.084,0.061l-0.086,0.061l-0.086,0.06l-0.086,0.059l-0.088,0.059l-0.088,0.058l-0.088,0.058l-0.09,0.056l-0.09,0.057l-0.091,0.055l-0.091,0.055l-0.093,0.054l-0.093,0.053l-0.093,0.053l-0.095,0.052l-0.095,0.052l-0.095,0.05l-0.097,0.051l-0.097,0.049l-0.098,0.049l-0.099,0.048l-0.099,0.047l-0.1,0.047l-0.101,0.046l-0.102,0.045l-0.102,0.044l-0.103,0.044l-0.104,0.043l-0.104,0.043l-0.106,0.042l-0.106,0.041l-0.106,0.04l-0.108,0.039l-0.108,0.039l-0.109,0.038l-0.11,0.038l-0.111,0.036l-0.111,0.036l-0.112,0.036l-0.113,0.034l-0.113,0.034l-0.115,0.033l-0.115,0.032l-0.116,0.032l-0.116,0.03l-0.118,0.03l-0.118,0.03l-0.119,0.028l-0.12,0.028l-0.12,0.027l-0.122,0.026l-0.122,0.026l-0.123,0.024l-0.124,0.024l-0.124,0.023l-0.125,0.023l-0.127,0.021l-0.127,0.021l-0.127,0.02l-0.129,0.019l-0.129,0.019l-0.13,0.017l-0.131,0.017l-0.132,0.016l-0.133,0.015l-0.133,0.015l-0.135,0.014l-0.135,0.012l-0.136,0.012l-0.136,0.012l-0.138,0.01l-0.138,0.01l-0.14,0.008l-0.14,0.008l-0.141,0.007l-0.142,0.007l-0.142,0.005l-0.144,0.005l-0.144,0.004l-0.145,0.003l-0.146,0.002l-0.147,0.001l-0.148,0l-0.148,0l-0.147,-0.001l-0.146,-0.002l-0.145,-0.003l-0.144,-0.004l-0.144,-0.005l-0.142,-0.005l-0.142,-0.007l-0.141,-0.007l-0.14,-0.008l-0.139,-0.008l-0.139,-0.01l-0.138,-0.01l-0.136,-0.012l-0.136,-0.012l-0.135,-0.012l-0.135,-0.014l-0.133,-0.015l-0.133,-0.015l-0.132,-0.016l-0.131,-0.017l-0.13,-0.017l-0.129,-0.019l-0.129,-0.019l-0.127,-0.02l-0.127,-0.021l-0.126,-0.021l-0.126,-0.023l-0.124,-0.023l-0.124,-0.024l-0.123,-0.024l-0.122,-0.026l-0.122,-0.026l-0.12,-0.027l-0.12,-0.028l-0.119,-0.028l-0.118,-0.03l-0.118,-0.03l-0.116,-0.03l-0.116,-0.032l-0.115,-0.032l-0.115,-0.033l-0.113,-0.034l-0.113,-0.034l-0.112,-0.036l-0.111,-0.036l-0.111,-0.036l-0.11,-0.038l-0.109,-0.038l-0.108,-0.039l-0.107,-0.039l-0.107,-0.04l-0.106,-0.041l-0.105,-0.042l-0.105,-0.043l-0.104,-0.043l-0.103,-0.044l-0.102,-0.044l-0.102,-0.045l-0.101,-0.046l-0.1,-0.047l-0.099,-0.047l-0.099,-0.048l-0.098,-0.049l-0.097,-0.049l-0.096,-0.051l-0.096,-0.05l-0.095,-0.052l-0.095,-0.052l-0.093,-0.053l-0.093,-0.053l-0.093,-0.054l-0.091,-0.055l-0.091,-0.055l-0.09,-0.057l-0.09,-0.056l-0.088,-0.058l-0.088,-0.058l-0.088,-0.059l-0.086,-0.059l-0.086,-0.06l-0.086,-0.061l-0.084,-0.061l-0.084,-0.062l-0.084,-0.062l-0.082,-0.064l-0.082,-0.063l-0.081,-0.065l-0.081,-0.065l-0.08,-0.066l-0.079,-0.066l-0.079,-0.067l-0.078,-0.068l-0.077,-0.068l-0.077,-0.068l-0.076,-0.07l-0.075,-0.07l-0.075,-0.07l-0.074,-0.072l-0.073,-0.071l-0.073,-0.073l-0.072,-0.073l-0.072,-0.073l-0.071,-0.074l-0.07,-0.075l-0.069,-0.075l-0.069,-0.076l-0.069,-0.077l-0.067,-0.077l-0.068,-0.077l-0.066,-0.078l-0.066,-0.079l-0.065,-0.079l-0.065,-0.08l-0.064,-0.081l-0.063,-0.081l-0.063,-0.081l-0.062,-0.082l-0.062,-0.083l-0.061,-0.083l-0.06,-0.084l-0.06,-0.084l-0.059,-0.085l-0.059,-0.085l-0.058,-0.086l-0.058,-0.086l-0.056,-0.087l-0.057,-0.088l-0.055,-0.088l-0.056,-0.088l-0.054,-0.089l-0.054,-0.09l-0.054,-0.09l-0.052,-0.09l-0.053,-0.091l-0.052,-0.092l-0.051,-0.092l-0.05,-0.092l-0.05,-0.093l-0.05,-0.094l-0.049,-0.094l-0.048,-0.094l-0.048,-0.095l-0.047,-0.096l-0.047,-0.096l-0.046,-0.096l-0.046,-0.097l-0.045,-0.098l-0.045,-0.097l-0.044,-0.099l-0.043,-0.099l-0.043,-0.099l-0.043,-0.1l-0.042,-0.1l-0.041,-0.1l-0.041,-0.101l-0.041,-0.102l-0.04,-0.102l-0.039,-0.102l-0.039,-0.103l-0.038,-0.104l-0.038,-0.103l-0.038,-0.105l-0.036,-0.104l-0.037,-0.105l-0.036,-0.106l-0.035,-0.106l-0.035,-0.106l-0.034,-0.107l-0.034,-0.107l-0.034,-0.108l-0.032,-0.108l-0.033,-0.108l-0.032,-0.109l-0.031,-0.109l-0.031,-0.11l-0.031,-0.11l-0.03,-0.11l-0.03,-0.111l-0.029,-0.111l-0.028,-0.112l-0.029,-0.112l-0.027,-0.112l-0.028,-0.113l-0.026,-0.113l-0.027,-0.113l-0.026,-0.114l-0.025,-0.115l-0.025,-0.114l-0.025,-0.115l-0.024,-0.116l-0.024,-0.115l-0.023,-0.116l-0.023,-0.117l-0.022,-0.117l-0.022,-0.117l-0.022,-0.117l-0.021,-0.118l-0.02,-0.118l-0.021,-0.119l-0.02,-0.119l-0.019,-0.119l-0.019,-0.119l-0.019,-0.12l-0.018,-0.121l-0.018,-0.12l-0.017,-0.121l-0.017,-0.121l-0.017,-0.122l-0.016,-0.121l-0.015,-0.122l-0.016,-0.123l-0.015,-0.123l-0.014,-0.123l-0.015,-0.123l-0.013,-0.124l-0.014,-0.124l-0.013,-0.124l-0.013,-0.124l-0.012,-0.125l-0.012,-0.125l-0.011,-0.126l-0.011,-0.125l-0.011,-0.126l-0.011,-0.127l-0.01,-0.126l-0.009,-0.127l-0.01,-0.127l-0.017,-0.255l-0.017,-0.256l-0.014,-0.257l-0.014,-0.258l-0.012,-0.259l-0.011,-0.26l-0.009,-0.261l-0.008,-0.262l-0.007,-0.262l-0.005,-0.264l-0.005,-0.264l-0.003,-0.266l-0.001,-0.266l-0.001,-0.267l0,-0.134l0.001,-0.133l0.001,-0.133l0.001,-0.133l0.002,-0.133l0.002,-0.132l0.002,-0.133l0.003,-0.132l0.003,-0.132l0.004,-0.132l0.004,-0.131l0.005,-0.131l0.004,-0.131l0.006,-0.131l0.005,-0.131l0.006,-0.13l0.007,-0.13l0.007,-0.13l0.007,-0.13l0.007,-0.129l0.009,-0.129l0.008,-0.129l0.009,-0.129l0.009,-0.128l0.01,-0.128l0.01,-0.128l0.01,-0.128l0.011,-0.127l0.011,-0.127l0.012,-0.127l0.012,-0.126l0.013,-0.127l0.013,-0.125l0.013,-0.126l0.014,-0.126l0.014,-0.125l0.015,-0.124l0.015,-0.125l0.016,-0.124l0.016,-0.124l0.016,-0.124l0.017,-0.123l0.017,-0.123l0.018,-0.123l0.018,-0.122l0.018,-0.122l0.019,-0.122l0.02,-0.122l0.02,-0.121l0.02,-0.121l0.021,-0.12l0.021,-0.121l0.021,-0.119l0.022,-0.12l0.023,-0.119l0.023,-0.119l0.023,-0.119l0.024,-0.118l0.024,-0.118l0.025,-0.117l0.025,-0.117l0.026,-0.117l0.026,-0.116l0.027,-0.116l0.027,-0.116l0.027,-0.116l0.028,-0.115l0.029,-0.114l0.029,-0.114l0.029,-0.114l0.03,-0.114l0.03,-0.113l0.031,-0.113l0.031,-0.112l0.032,-0.112l0.032,-0.112l0.032,-0.111l0.034,-0.111l0.033,-0.11l0.034,-0.11l0.035,-0.11l0.035,-0.109l0.035,-0.109l0.036,-0.108l0.037,-0.108l0.037,-0.108l0.037,-0.107l0.038,-0.107l0.038,-0.106l0.039,-0.106l0.04,-0.106l0.04,-0.105l0.04,-0.104l0.041,-0.104l0.041,-0.104l0.042,-0.104l0.042,-0.102l0.043,-0.103l0.044,-0.102l0.043,-0.101l0.045,-0.101l0.045,-0.101l0.045,-0.1l0.046,-0.1l0.046,-0.099l0.047,-0.099l0.048,-0.098l0.047,-0.098l0.049,-0.098l0.049,-0.097l0.049,-0.096l0.05,-0.096l0.051,-0.095l0.051,-0.095l0.051,-0.095l0.052,-0.094l0.053,-0.093l0.053,-0.094l0.054,-0.092l0.054,-0.092l0.054,-0.092l0.056,-0.091l0.055,-0.09l0.057,-0.09l0.056,-0.09l0.058,-0.089l0.058,-0.088l0.058,-0.088l0.059,-0.088l0.059,-0.086l0.06,-0.087l0.061,-0.086l0.061,-0.085l0.062,-0.085l0.062,-0.084l0.063,-0.084l0.063,-0.083l0.064,-0.083l0.064,-0.082l0.065,-0.081l0.066,-0.081l0.066,-0.08l0.066,-0.08l0.067,-0.08l0.068,-0.078l0.068,-0.079l0.069,-0.077l0.07,-0.077l0.07,-0.077l0.07,-0.075l0.071,-0.076l0.072,-0.074l0.072,-0.075l0.073,-0.073l0.073,-0.073l0.074,-0.073l0.075,-0.071l0.075,-0.071l0.075,-0.071l0.076,-0.07l0.077,-0.069l0.078,-0.069l0.078,-0.068l0.078,-0.068l0.079,-0.067l0.08,-0.066l0.08,-0.066l0.081,-0.065l0.081,-0.064l0.082,-0.064l0.083,-0.063l0.083,-0.063l0.084,-0.062l0.085,-0.061l0.085,-0.061l0.085,-0.06l0.086,-0.059l0.087,-0.059l0.087,-0.058l0.088,-0.057l0.089,-0.057l0.089,-0.056l0.09,-0.056l0.09,-0.055l0.091,-0.054l0.092,-0.053l0.092,-0.053l0.093,-0.052l0.094,-0.051l0.094,-0.051l0.094,-0.05l0.096,-0.05l0.095,-0.048l0.097,-0.048l0.097,-0.048l0.098,-0.046l0.098,-0.046l0.099,-0.046l0.1,-0.044l0.1,-0.044l0.101,-0.043l0.102,-0.043l0.102,-0.041l0.102,-0.041l0.104,-0.041l0.104,-0.039l0.105,-0.039l0.105,-0.038l0.106,-0.038l0.106,-0.036l0.108,-0.036l0.107,-0.035l0.109,-0.035l0.109,-0.034l0.11,-0.033l0.11,-0.032l0.111,-0.031l0.112,-0.031l0.112,-0.03l0.113,-0.029l0.114,-0.029l0.114,-0.028l0.115,-0.027l0.116,-0.026l0.116,-0.025l0.117,-0.025l0.118,-0.024l0.118,-0.023l0.119,-0.022l0.12,-0.022l0.12,-0.021l0.121,-0.02l0.121,-0.019l0.122,-0.019l0.123,-0.017l0.124,-0.017l0.124,-0.016l0.125,-0.015l0.126,-0.015l0.126,-0.013l0.127,-0.013l0.128,-0.012l0.128,-0.011l0.129,-0.011l0.129,-0.009l0.131,-0.009l0.131,-0.008l0.132,-0.007l0.132,-0.007l0.133,-0.005l0.134,-0.005l0.134,-0.003l0.135,-0.003l0.136,-0.003l0.137,-0.001l0.137,0l0.137,0Zm-0.269,0.934l-0.13,0.002l-0.13,0.002l-0.129,0.002l-0.129,0.004l-0.128,0.004l-0.127,0.006l-0.126,0.006l-0.126,0.006l-0.125,0.008l-0.124,0.008l-0.123,0.009l-0.123,0.01l-0.122,0.011l-0.121,0.012l-0.121,0.012l-0.119,0.013l-0.12,0.013l-0.119,0.015l-0.117,0.015l-0.117,0.016l-0.116,0.017l-0.116,0.017l-0.115,0.018l-0.115,0.019l-0.113,0.02l-0.113,0.02l-0.112,0.021l-0.111,0.022l-0.112,0.023l-0.109,0.023l-0.11,0.024l-0.109,0.025l-0.108,0.025l-0.107,0.026l-0.107,0.027l-0.106,0.027l-0.105,0.028l-0.106,0.029l-0.104,0.03l-0.102,0.03l-0.103,0.031l-0.103,0.031l-0.101,0.033l-0.101,0.033l-0.1,0.033l-0.1,0.034l-0.098,0.035l-0.099,0.036l-0.098,0.036l-0.097,0.037l-0.096,0.037l-0.095,0.039l-0.096,0.039l-0.095,0.039l-0.094,0.04l-0.092,0.041l-0.093,0.041l-0.092,0.043l-0.091,0.042l-0.091,0.043l-0.091,0.045l-0.089,0.044l-0.089,0.045l-0.088,0.046l-0.088,0.047l-0.088,0.047l-0.086,0.047l-0.086,0.049l-0.086,0.049l-0.085,0.049l-0.084,0.05l-0.083,0.051l-0.084,0.051l-0.083,0.053l-0.081,0.052l-0.082,0.053l-0.081,0.054l-0.08,0.054l-0.08,0.055l-0.079,0.056l-0.078,0.056l-0.079,0.057l-0.078,0.057l-0.077,0.058l-0.076,0.058l-0.075,0.059l-0.076,0.06l-0.075,0.061l-0.075,0.061l-0.074,0.061l-0.073,0.062l-0.072,0.062l-0.073,0.063l-0.071,0.064l-0.072,0.065l-0.07,0.065l-0.07,0.065l-0.07,0.066l-0.069,0.067l-0.069,0.067l-0.068,0.068l-0.067,0.068l-0.067,0.069l-0.068,0.07l-0.065,0.069l-0.065,0.07l-0.066,0.072l-0.065,0.072l-0.064,0.072l-0.063,0.073l-0.062,0.072l-0.063,0.074l-0.063,0.076l-0.061,0.074l-0.061,0.076l-0.061,0.076l-0.06,0.076l-0.06,0.078l-0.059,0.078l-0.058,0.077l-0.058,0.079l-0.058,0.079l-0.058,0.081l-0.057,0.08l-0.055,0.081l-0.056,0.081l-0.056,0.082l-0.054,0.083l-0.055,0.083l-0.054,0.084l-0.053,0.084l-0.053,0.084l-0.052,0.085l-0.052,0.086l-0.052,0.086l-0.051,0.087l-0.05,0.087l-0.05,0.088l-0.05,0.088l-0.049,0.089l-0.049,0.089l-0.048,0.089l-0.048,0.091l-0.047,0.091l-0.047,0.091l-0.046,0.092l-0.046,0.092l-0.045,0.093l-0.045,0.093l-0.045,0.094l-0.044,0.094l-0.043,0.094l-0.043,0.095l-0.043,0.096l-0.042,0.096l-0.042,0.097l-0.041,0.097l-0.041,0.098l-0.04,0.098l-0.04,0.098l-0.04,0.099l-0.038,0.099l-0.039,0.1l-0.038,0.101l-0.038,0.1l-0.037,0.101l-0.036,0.102l-0.037,0.103l-0.036,0.102l-0.035,0.103l-0.035,0.103l-0.035,0.105l-0.034,0.103l-0.033,0.105l-0.033,0.106l-0.033,0.105l-0.032,0.106l-0.032,0.106l-0.031,0.106l-0.031,0.108l-0.031,0.109l-0.03,0.107l-0.029,0.109l-0.029,0.109l-0.029,0.109l-0.028,0.109l-0.028,0.111l-0.028,0.11l-0.026,0.11l-0.027,0.112l-0.026,0.112l-0.026,0.112l-0.025,0.112l-0.025,0.113l-0.024,0.114l-0.024,0.113l-0.024,0.114l-0.023,0.114l-0.022,0.116l-0.023,0.114l-0.021,0.115l-0.022,0.116l-0.021,0.117l-0.02,0.116l-0.02,0.116l-0.02,0.118l-0.019,0.117l-0.019,0.119l-0.019,0.118l-0.018,0.118l-0.017,0.119l-0.017,0.119l-0.017,0.12l-0.016,0.119l-0.016,0.121l-0.016,0.12l-0.015,0.121l-0.014,0.121l-0.015,0.122l-0.014,0.122l-0.013,0.122l-0.013,0.122l-0.013,0.122l-0.012,0.123l-0.012,0.124l-0.011,0.124l-0.011,0.123l-0.011,0.124l-0.01,0.124l-0.01,0.126l-0.009,0.125l-0.009,0.125l-0.009,0.126l-0.008,0.126l-0.008,0.125l-0.008,0.126l-0.007,0.128l-0.006,0.126l-0.006,0.127l-0.007,0.129l-0.005,0.127l-0.005,0.128l-0.005,0.128l-0.004,0.127l-0.004,0.13l-0.004,0.129l-0.003,0.128l-0.003,0.13l-0.002,0.13l-0.002,0.13l-0.002,0.13l-0.001,0.13l-0.001,0.131l-0.001,0.13l0,0.131l0.001,0.263l0.002,0.262l0.002,0.261l0.005,0.26l0.005,0.259l0.007,0.258l0.008,0.257l0.009,0.256l0.01,0.255l0.012,0.255l0.013,0.252l0.015,0.252l0.016,0.25l0.017,0.251l0.009,0.123l0.01,0.124l0.009,0.124l0.011,0.123l0.01,0.123l0.011,0.123l0.011,0.122l0.012,0.122l0.012,0.122l0.012,0.123l0.013,0.121l0.013,0.12l0.014,0.12l0.014,0.121l0.014,0.12l0.014,0.12l0.015,0.118l0.016,0.119l0.015,0.12l0.016,0.117l0.017,0.118l0.017,0.117l0.017,0.118l0.018,0.117l0.018,0.115l0.018,0.116l0.019,0.116l0.019,0.116l0.02,0.115l0.02,0.114l0.02,0.113l0.021,0.114l0.022,0.115l0.021,0.112l0.022,0.112l0.023,0.114l0.023,0.111l0.023,0.111l0.024,0.111l0.024,0.111l0.025,0.11l0.025,0.111l0.025,0.108l0.026,0.11l0.026,0.108l0.027,0.108l0.027,0.108l0.027,0.107l0.029,0.107l0.028,0.106l0.029,0.106l0.029,0.107l0.03,0.104l0.03,0.106l0.031,0.104l0.031,0.103l0.031,0.103l0.032,0.103l0.033,0.103l0.033,0.102l0.033,0.102l0.034,0.101l0.034,0.101l0.035,0.1l0.035,0.1l0.035,0.099l0.036,0.098l0.037,0.099l0.037,0.099l0.037,0.096l0.038,0.097l0.038,0.096l0.039,0.096l0.04,0.096l0.04,0.095l0.04,0.094l0.041,0.094l0.041,0.094l0.041,0.093l0.043,0.092l0.042,0.092l0.043,0.092l0.044,0.091l0.044,0.09l0.045,0.09l0.045,0.09l0.045,0.089l0.046,0.088l0.047,0.088l0.046,0.087l0.048,0.087l0.048,0.087l0.049,0.085l0.049,0.086l0.049,0.085l0.05,0.084l0.051,0.084l0.051,0.082l0.051,0.082l0.052,0.083l0.053,0.082l0.054,0.082l0.053,0.08l0.053,0.079l0.056,0.08l0.055,0.079l0.056,0.079l0.055,0.077l0.057,0.077l0.058,0.078l0.057,0.075l0.059,0.077l0.058,0.074l0.059,0.075l0.06,0.074l0.061,0.073l0.061,0.074l0.061,0.071l0.063,0.072l0.062,0.071l0.063,0.071l0.064,0.071l0.065,0.069l0.065,0.069l0.065,0.068l0.066,0.068l0.067,0.068l0.066,0.066l0.068,0.066l0.069,0.067l0.068,0.064l0.07,0.065l0.07,0.064l0.071,0.063l0.071,0.063l0.072,0.062l0.072,0.062l0.073,0.061l0.074,0.061l0.074,0.06l0.075,0.059l0.076,0.059l0.076,0.058l0.076,0.058l0.078,0.057l0.078,0.056l0.079,0.057l0.079,0.055l0.08,0.054l0.08,0.055l0.082,0.053l0.081,0.053l0.083,0.052l0.084,0.053l0.083,0.051l0.085,0.05l0.084,0.05l0.086,0.049l0.087,0.049l0.088,0.049l0.088,0.047l0.088,0.047l0.09,0.047l0.09,0.046l0.09,0.044l0.092,0.045l0.092,0.044l0.093,0.043l0.094,0.043l0.094,0.042l0.095,0.041l0.096,0.041l0.097,0.04l0.098,0.04l0.097,0.039l0.099,0.038l0.1,0.038l0.1,0.036l0.101,0.037l0.102,0.035l0.103,0.036l0.103,0.034l0.105,0.033l0.104,0.033l0.106,0.033l0.107,0.031l0.107,0.031l0.109,0.031l0.108,0.029l0.11,0.029l0.11,0.028l0.112,0.028l0.112,0.027l0.114,0.026l0.113,0.026l0.114,0.024l0.117,0.024l0.116,0.024l0.117,0.022l0.117,0.022l0.119,0.021l0.12,0.021l0.12,0.02l0.121,0.019l0.123,0.018l0.123,0.017l0.124,0.017l0.124,0.016l0.126,0.016l0.127,0.014l0.127,0.014l0.128,0.013l0.129,0.012l0.13,0.012l0.131,0.01l0.132,0.01l0.132,0.01l0.133,0.008l0.135,0.008l0.135,0.006l0.136,0.006l0.137,0.006l0.138,0.004l0.139,0.004l0.14,0.003l0.14,0.002l0.142,0.001l0.142,0l0.142,0l0.142,-0.001l0.141,-0.002l0.139,-0.003l0.139,-0.004l0.138,-0.004l0.137,-0.006l0.136,-0.006l0.135,-0.006l0.135,-0.008l0.133,-0.008l0.132,-0.01l0.132,-0.01l0.131,-0.01l0.13,-0.012l0.129,-0.012l0.128,-0.013l0.128,-0.014l0.126,-0.014l0.126,-0.016l0.124,-0.016l0.124,-0.017l0.123,-0.017l0.123,-0.018l0.121,-0.019l0.12,-0.02l0.12,-0.021l0.118,-0.021l0.118,-0.022l0.117,-0.022l0.117,-0.024l0.116,-0.024l0.114,-0.024l0.113,-0.026l0.114,-0.026l0.112,-0.027l0.112,-0.028l0.11,-0.028l0.11,-0.029l0.109,-0.029l0.108,-0.031l0.107,-0.03l0.107,-0.032l0.106,-0.033l0.104,-0.033l0.105,-0.033l0.103,-0.034l0.103,-0.036l0.102,-0.035l0.101,-0.037l0.1,-0.036l0.1,-0.038l0.099,-0.038l0.097,-0.039l0.098,-0.04l0.097,-0.04l0.096,-0.041l0.095,-0.041l0.094,-0.042l0.094,-0.043l0.093,-0.043l0.092,-0.044l0.092,-0.045l0.09,-0.045l0.09,-0.045l0.09,-0.047l0.088,-0.047l0.088,-0.047l0.088,-0.049l0.087,-0.049l0.086,-0.049l0.084,-0.05l0.084,-0.05l0.084,-0.051l0.085,-0.053l0.082,-0.052l0.081,-0.053l0.082,-0.053l0.081,-0.055l0.079,-0.054l0.079,-0.055l0.079,-0.057l0.078,-0.056l0.078,-0.057l0.076,-0.058l0.076,-0.058l0.076,-0.059l0.075,-0.059l0.074,-0.06l0.074,-0.061l0.073,-0.061l0.072,-0.062l0.072,-0.062l0.071,-0.063l0.071,-0.063l0.07,-0.064l0.07,-0.065l0.068,-0.064l0.068,-0.066l0.069,-0.067l0.067,-0.066l0.066,-0.068l0.066,-0.068l0.065,-0.068l0.065,-0.069l0.065,-0.069l0.064,-0.071l0.063,-0.071l0.062,-0.071l0.063,-0.072l0.061,-0.071l0.061,-0.074l0.061,-0.073l0.06,-0.074l0.059,-0.075l0.058,-0.074l0.059,-0.077l0.058,-0.075l0.057,-0.078l0.057,-0.077l0.056,-0.077l0.056,-0.079l0.054,-0.079l0.056,-0.08l0.053,-0.079l0.053,-0.08l0.054,-0.082l0.053,-0.082l0.052,-0.082l0.051,-0.083l0.052,-0.083l0.05,-0.083l0.05,-0.084l0.049,-0.085l0.049,-0.086l0.049,-0.085l0.048,-0.087l0.047,-0.086l0.047,-0.088l0.047,-0.089l0.046,-0.087l0.045,-0.089l0.045,-0.09l0.045,-0.09l0.044,-0.09l0.044,-0.091l0.043,-0.092l0.043,-0.092l0.042,-0.092l0.041,-0.093l0.041,-0.094l0.041,-0.094l0.04,-0.094l0.04,-0.095l0.04,-0.096l0.039,-0.096l0.038,-0.096l0.038,-0.097l0.037,-0.096l0.037,-0.099l0.037,-0.098l0.036,-0.099l0.036,-0.1l0.034,-0.099l0.035,-0.1l0.034,-0.101l0.034,-0.101l0.033,-0.102l0.033,-0.102l0.033,-0.103l0.032,-0.103l0.031,-0.103l0.031,-0.103l0.031,-0.104l0.03,-0.106l0.03,-0.104l0.029,-0.107l0.029,-0.106l0.028,-0.106l0.029,-0.107l0.027,-0.107l0.027,-0.107l0.027,-0.109l0.026,-0.109l0.026,-0.109l0.025,-0.108l0.025,-0.111l0.025,-0.11l0.024,-0.111l0.024,-0.11l0.023,-0.112l0.023,-0.112l0.023,-0.113l0.022,-0.112l0.021,-0.112l0.022,-0.115l0.021,-0.113l0.02,-0.114l0.02,-0.115l0.02,-0.114l0.019,-0.116l0.019,-0.116l0.018,-0.116l0.018,-0.115l0.018,-0.117l0.017,-0.118l0.017,-0.117l0.017,-0.118l0.016,-0.117l0.015,-0.119l0.016,-0.12l0.015,-0.119l0.014,-0.119l0.014,-0.12l0.014,-0.121l0.014,-0.12l0.013,-0.12l0.013,-0.121l0.012,-0.123l0.012,-0.122l0.012,-0.122l0.011,-0.122l0.011,-0.123l0.011,-0.123l0.01,-0.123l0.009,-0.123l0.01,-0.125l0.009,-0.124l0.017,-0.25l0.016,-0.25l0.015,-0.252l0.013,-0.252l0.012,-0.255l0.01,-0.255l0.009,-0.256l0.008,-0.257l0.007,-0.258l0.005,-0.259l0.005,-0.26l0.003,-0.261l0.001,-0.262l0.001,-0.263l0,-0.131l-0.001,-0.13l-0.001,-0.131l-0.001,-0.13l-0.002,-0.13l-0.002,-0.13l-0.002,-0.13l-0.003,-0.129l-0.003,-0.129l-0.004,-0.13l-0.004,-0.128l-0.004,-0.128l-0.005,-0.128l-0.005,-0.128l-0.005,-0.128l-0.006,-0.127l-0.007,-0.128l-0.006,-0.127l-0.007,-0.127l-0.008,-0.125l-0.008,-0.126l-0.008,-0.127l-0.008,-0.125l-0.009,-0.125l-0.01,-0.125l-0.01,-0.126l-0.01,-0.124l-0.011,-0.124l-0.011,-0.123l-0.011,-0.124l-0.012,-0.124l-0.012,-0.123l-0.013,-0.122l-0.013,-0.122l-0.013,-0.122l-0.014,-0.122l-0.015,-0.122l-0.014,-0.121l-0.015,-0.121l-0.016,-0.12l-0.016,-0.121l-0.016,-0.119l-0.017,-0.12l-0.017,-0.119l-0.018,-0.119l-0.018,-0.119l-0.018,-0.117l-0.019,-0.119l-0.019,-0.117l-0.02,-0.118l-0.02,-0.116l-0.02,-0.116l-0.021,-0.117l-0.021,-0.115l-0.023,-0.116l-0.022,-0.115l-0.022,-0.115l-0.023,-0.114l-0.024,-0.114l-0.024,-0.113l-0.024,-0.114l-0.025,-0.113l-0.025,-0.112l-0.026,-0.112l-0.026,-0.112l-0.027,-0.112l-0.026,-0.11l-0.028,-0.11l-0.027,-0.11l-0.029,-0.11l-0.029,-0.11l-0.029,-0.108l-0.029,-0.109l-0.03,-0.107l-0.031,-0.109l-0.031,-0.108l-0.031,-0.106l-0.032,-0.106l-0.032,-0.106l-0.033,-0.105l-0.033,-0.106l-0.033,-0.105l-0.034,-0.103l-0.035,-0.105l-0.035,-0.103l-0.035,-0.103l-0.036,-0.102l-0.036,-0.103l-0.037,-0.102l-0.037,-0.101l-0.038,-0.1l-0.038,-0.101l-0.039,-0.1l-0.038,-0.099l-0.04,-0.099l-0.04,-0.098l-0.04,-0.098l-0.041,-0.098l-0.041,-0.097l-0.042,-0.097l-0.042,-0.096l-0.043,-0.096l-0.043,-0.095l-0.043,-0.093l-0.044,-0.095l-0.045,-0.094l-0.045,-0.093l-0.045,-0.094l-0.046,-0.091l-0.046,-0.092l-0.047,-0.091l-0.047,-0.091l-0.048,-0.091l-0.048,-0.089l-0.049,-0.089l-0.049,-0.089l-0.05,-0.088l-0.05,-0.088l-0.05,-0.087l-0.051,-0.087l-0.052,-0.086l-0.052,-0.086l-0.052,-0.085l-0.053,-0.084l-0.053,-0.084l-0.054,-0.084l-0.055,-0.083l-0.054,-0.083l-0.056,-0.082l-0.056,-0.081l-0.055,-0.081l-0.057,-0.08l-0.058,-0.081l-0.057,-0.078l-0.059,-0.08l-0.058,-0.078l-0.059,-0.077l-0.06,-0.078l-0.06,-0.076l-0.061,-0.076l-0.061,-0.076l-0.061,-0.074l-0.063,-0.076l-0.063,-0.074l-0.062,-0.072l-0.063,-0.073l-0.064,-0.072l-0.065,-0.072l-0.066,-0.072l-0.065,-0.07l-0.065,-0.069l-0.068,-0.07l-0.067,-0.069l-0.067,-0.068l-0.068,-0.068l-0.069,-0.067l-0.069,-0.067l-0.07,-0.066l-0.069,-0.065l-0.071,-0.065l-0.071,-0.065l-0.072,-0.064l-0.073,-0.063l-0.072,-0.062l-0.074,-0.062l-0.073,-0.062l-0.075,-0.06l-0.075,-0.061l-0.075,-0.06l-0.076,-0.059l-0.076,-0.058l-0.077,-0.058l-0.078,-0.057l-0.079,-0.057l-0.078,-0.056l-0.079,-0.056l-0.08,-0.055l-0.08,-0.054l-0.081,-0.054l-0.081,-0.053l-0.083,-0.052l-0.083,-0.053l-0.083,-0.051l-0.083,-0.051l-0.084,-0.05l-0.085,-0.049l-0.086,-0.049l-0.086,-0.049l-0.086,-0.047l-0.088,-0.047l-0.088,-0.047l-0.088,-0.046l-0.088,-0.045l-0.09,-0.044l-0.091,-0.045l-0.091,-0.043l-0.091,-0.042l-0.092,-0.042l-0.093,-0.042l-0.093,-0.041l-0.094,-0.04l-0.094,-0.039l-0.096,-0.039l-0.095,-0.039l-0.096,-0.037l-0.097,-0.037l-0.098,-0.036l-0.099,-0.036l-0.098,-0.035l-0.1,-0.034l-0.1,-0.033l-0.101,-0.033l-0.101,-0.033l-0.103,-0.031l-0.102,-0.031l-0.103,-0.03l-0.105,-0.03l-0.105,-0.029l-0.105,-0.028l-0.106,-0.027l-0.107,-0.027l-0.107,-0.026l-0.108,-0.025l-0.109,-0.025l-0.109,-0.024l-0.111,-0.023l-0.111,-0.023l-0.111,-0.022l-0.112,-0.021l-0.113,-0.02l-0.113,-0.02l-0.115,-0.019l-0.115,-0.018l-0.116,-0.017l-0.116,-0.017l-0.116,-0.016l-0.118,-0.015l-0.119,-0.015l-0.12,-0.013l-0.119,-0.013l-0.12,-0.012l-0.122,-0.012l-0.122,-0.011l-0.123,-0.01l-0.123,-0.009l-0.124,-0.008l-0.125,-0.008l-0.126,-0.006l-0.126,-0.006l-0.127,-0.006l-0.128,-0.004l-0.128,-0.004l-0.13,-0.002l-0.13,-0.002l-0.13,-0.002l-0.132,0l-0.132,0Z" style="fill:#ac8639;"/><path d="M15.554,36.048c-1.114,2.731 -1.214,5.193 0,7.307" style="fill:none;stroke:#ac8639;stroke-width:1.88px;"/></g><path d="M18,12.142c0.92,-1.23 1.989,-2.959 2.391,-4.778c0.242,-1.099 0.649,-1.002 0.972,-2.818c0.192,-1.086 -1.115,-0.702 -0.972,-1.974c0.099,-0.889 0.486,-2.087 0.881,-3.133c0.476,-1.264 -1.792,-2.673 -1.792,-2.673c0,0 4.06,0.403 4.472,1.59c0.124,0.359 1.592,1.394 1.856,1.842c0.701,1.188 0.63,2.341 0.857,2.816c0.216,0.452 0.751,0.229 1.106,1.532c0.294,1.08 0.418,2.459 0.767,2.818c1.705,1.755 2.99,3.563 3.803,4.839c1.357,0.012 2.578,0.066 3.543,0.301c1.136,0.277 5.847,1.724 3.756,2.889c-3.78,2.105 -5.564,3.325 -12.4,3.266c-1.586,-0.014 -8.511,-1.419 -9.921,-1.565c-5.109,-0.532 -5.968,-0.649 -5.968,-2.301c0,-1.21 2.121,-1.658 5.113,-2.289c0.493,-0.103 1.004,-0.232 1.536,-0.362Z" style="fill:#282624;"/></g></g><path d="M25.162,0.001l0.161,0.001l0.161,0.003l0.161,0.003l0.16,0.005l0.161,0.005l0.16,0.007l0.16,0.008l0.159,0.008l0.16,0.01l0.159,0.01l0.158,0.012l0.159,0.013l0.158,0.013l0.158,0.015l0.158,0.015l0.157,0.017l0.157,0.017l0.157,0.019l0.156,0.019l0.156,0.02l0.156,0.022l0.156,0.022l0.155,0.023l0.155,0.024l0.155,0.026l0.154,0.026l0.154,0.027l0.154,0.028l0.153,0.029l0.153,0.03l0.153,0.03l0.152,0.032l0.152,0.033l0.152,0.033l0.151,0.035l0.151,0.035l0.151,0.036l0.15,0.038l0.15,0.038l0.149,0.039l0.15,0.04l0.148,0.04l0.149,0.042l0.148,0.043l0.148,0.043l0.147,0.044l0.147,0.046l0.146,0.046l0.147,0.047l0.145,0.048l0.146,0.048l0.145,0.05l0.144,0.051l0.144,0.051l0.144,0.052l0.143,0.053l0.143,0.054l0.143,0.055l0.142,0.055l0.142,0.057l0.141,0.057l0.141,0.058l0.14,0.059l0.14,0.06l0.14,0.06l0.139,0.062l0.138,0.062l0.139,0.063l0.137,0.064l0.138,0.064l0.137,0.066l0.136,0.066l0.136,0.067l0.135,0.068l0.135,0.069l0.135,0.069l0.134,0.07l0.133,0.071l0.133,0.072l0.133,0.073l0.132,0.073l0.132,0.074l0.131,0.075l0.13,0.076l0.131,0.076l0.129,0.078l0.129,0.077l0.129,0.079l0.128,0.08l0.128,0.08l0.127,0.081l0.126,0.082l0.126,0.082l0.126,0.083l0.125,0.084l0.124,0.085l0.124,0.085l0.123,0.086l0.123,0.087l0.122,0.087l0.122,0.089l0.121,0.089l0.121,0.089l0.12,0.091l0.119,0.091l0.119,0.092l0.119,0.092l0.118,0.093l0.117,0.094l0.116,0.095l0.116,0.095l0.116,0.096l0.115,0.096l0.114,0.098l0.114,0.097l0.113,0.099l0.113,0.099l0.111,0.1l0.112,0.101l0.11,0.101l0.111,0.102l0.109,0.102l0.109,0.104l0.108,0.103l0.108,0.105l0.107,0.105l0.106,0.106l0.106,0.106l0.105,0.107l0.105,0.108l0.103,0.108l0.104,0.109l0.102,0.109l0.102,0.111l0.101,0.11l0.101,0.112l0.1,0.111l0.099,0.113l0.099,0.113l0.097,0.114l0.098,0.114l0.096,0.115l0.096,0.116l0.095,0.116l0.095,0.116l0.094,0.117l0.093,0.118l0.092,0.119l0.092,0.119l0.091,0.119l0.091,0.12l0.089,0.121l0.089,0.121l0.089,0.122l0.087,0.122l0.087,0.123l0.086,0.123l0.085,0.124l0.085,0.124l0.084,0.125l0.083,0.126l0.082,0.126l0.082,0.126l0.081,0.127l0.08,0.128l0.08,0.128l0.079,0.129l0.077,0.129l0.078,0.129l0.076,0.131l0.076,0.13l0.075,0.131l0.074,0.132l0.073,0.132l0.073,0.133l0.072,0.133l0.071,0.133l0.07,0.134l0.069,0.135l0.069,0.135l0.068,0.135l0.067,0.136l0.066,0.136l0.066,0.137l0.064,0.138l0.064,0.137l0.063,0.139l0.062,0.138l0.062,0.139l0.06,0.14l0.06,0.14l0.059,0.14l0.058,0.141l0.057,0.141l0.057,0.142l0.055,0.142l0.055,0.143l0.054,0.143l0.053,0.143l0.052,0.144l0.051,0.144l0.051,0.144l0.05,0.145l0.048,0.146l0.048,0.145l0.047,0.147l0.046,0.146l0.046,0.147l0.044,0.147l0.043,0.148l0.043,0.148l0.042,0.149l0.04,0.148l0.04,0.15l0.039,0.149l0.038,0.15l0.038,0.15l0.036,0.151l0.035,0.151l0.035,0.151l0.033,0.152l0.033,0.152l0.032,0.152l0.03,0.153l0.03,0.153l0.029,0.153l0.028,0.154l0.027,0.154l0.026,0.154l0.026,0.155l0.024,0.155l0.023,0.155l0.022,0.156l0.022,0.156l0.02,0.156l0.019,0.156l0.019,0.157l0.017,0.157l0.017,0.157l0.015,0.158l0.015,0.158l0.013,0.158l0.013,0.159l0.012,0.158l0.01,0.159l0.01,0.16l0.008,0.159l0.008,0.16l0.007,0.16l0.005,0.161l0.005,0.16l0.003,0.161l0.003,0.161l0.001,0.161l0.001,0.162l-0.001,0.162l-0.001,0.161l-0.003,0.161l-0.003,0.161l-0.005,0.16l-0.005,0.161l-0.007,0.16l-0.008,0.16l-0.008,0.159l-0.01,0.16l-0.01,0.159l-0.012,0.158l-0.013,0.159l-0.013,0.158l-0.015,0.158l-0.015,0.158l-0.017,0.157l-0.017,0.157l-0.019,0.157l-0.019,0.156l-0.02,0.156l-0.022,0.156l-0.022,0.156l-0.023,0.155l-0.024,0.155l-0.026,0.155l-0.026,0.154l-0.027,0.154l-0.028,0.154l-0.029,0.153l-0.03,0.153l-0.03,0.153l-0.032,0.152l-0.033,0.152l-0.033,0.152l-0.035,0.151l-0.035,0.151l-0.036,0.151l-0.038,0.15l-0.038,0.15l-0.039,0.149l-0.04,0.15l-0.04,0.148l-0.042,0.149l-0.043,0.148l-0.043,0.148l-0.044,0.147l-0.046,0.147l-0.046,0.146l-0.047,0.147l-0.048,0.145l-0.048,0.146l-0.05,0.145l-0.051,0.144l-0.051,0.144l-0.052,0.144l-0.053,0.143l-0.054,0.143l-0.055,0.143l-0.055,0.142l-0.057,0.142l-0.057,0.141l-0.058,0.141l-0.059,0.14l-0.06,0.14l-0.06,0.14l-0.062,0.139l-0.062,0.138l-0.063,0.139l-0.064,0.137l-0.064,0.138l-0.066,0.137l-0.066,0.136l-0.067,0.136l-0.068,0.135l-0.069,0.135l-0.069,0.135l-0.07,0.134l-0.071,0.133l-0.072,0.133l-0.073,0.133l-0.073,0.132l-0.074,0.132l-0.075,0.131l-0.076,0.13l-0.076,0.131l-0.078,0.129l-0.077,0.129l-0.079,0.129l-0.08,0.128l-0.08,0.128l-0.081,0.127l-0.082,0.126l-0.082,0.126l-0.083,0.126l-0.084,0.125l-0.085,0.124l-0.085,0.124l-0.086,0.123l-0.087,0.123l-0.087,0.122l-0.089,0.122l-0.089,0.121l-0.089,0.121l-0.091,0.12l-0.091,0.119l-0.092,0.119l-0.092,0.119l-0.093,0.118l-0.094,0.117l-0.095,0.116l-0.095,0.116l-0.096,0.116l-0.096,0.115l-0.098,0.114l-0.097,0.114l-0.099,0.113l-0.099,0.113l-0.1,0.111l-0.101,0.112l-0.101,0.11l-0.102,0.111l-0.102,0.109l-0.104,0.109l-0.103,0.108l-0.105,0.108l-0.105,0.107l-0.106,0.106l-0.106,0.106l-0.107,0.105l-0.108,0.105l-0.108,0.103l-0.109,0.104l-0.109,0.102l-0.111,0.102l-0.11,0.101l-0.112,0.101l-0.111,0.1l-0.113,0.099l-0.113,0.099l-0.114,0.097l-0.114,0.098l-0.115,0.096l-0.116,0.096l-0.116,0.095l-0.116,0.095l-0.117,0.094l-0.118,0.093l-0.119,0.092l-0.119,0.092l-0.119,0.091l-0.12,0.091l-0.121,0.089l-0.121,0.089l-0.122,0.089l-0.122,0.087l-0.123,0.087l-0.123,0.086l-0.124,0.085l-0.124,0.085l-0.125,0.084l-0.126,0.083l-0.126,0.082l-0.126,0.082l-0.127,0.081l-0.128,0.08l-0.128,0.08l-0.129,0.079l-0.129,0.077l-0.129,0.078l-0.131,0.076l-0.13,0.076l-0.131,0.075l-0.132,0.074l-0.132,0.073l-0.133,0.073l-0.133,0.072l-0.133,0.071l-0.134,0.07l-0.135,0.069l-0.135,0.069l-0.135,0.068l-0.136,0.067l-0.136,0.066l-0.137,0.066l-0.138,0.064l-0.137,0.064l-0.139,0.063l-0.138,0.062l-0.139,0.062l-0.14,0.06l-0.14,0.06l-0.14,0.059l-0.141,0.058l-0.141,0.057l-0.142,0.057l-0.142,0.055l-0.143,0.055l-0.143,0.054l-0.143,0.053l-0.144,0.052l-0.144,0.051l-0.144,0.051l-0.145,0.05l-0.146,0.048l-0.145,0.048l-0.147,0.047l-0.146,0.046l-0.147,0.046l-0.147,0.044l-0.148,0.043l-0.148,0.043l-0.149,0.042l-0.148,0.04l-0.15,0.04l-0.149,0.039l-0.15,0.038l-0.15,0.038l-0.151,0.036l-0.151,0.035l-0.151,0.035l-0.152,0.033l-0.152,0.033l-0.152,0.032l-0.153,0.03l-0.153,0.03l-0.153,0.029l-0.154,0.028l-0.154,0.027l-0.154,0.026l-0.155,0.026l-0.155,0.024l-0.155,0.023l-0.156,0.022l-0.156,0.022l-0.156,0.02l-0.156,0.019l-0.157,0.019l-0.157,0.017l-0.157,0.017l-0.158,0.015l-0.158,0.015l-0.158,0.013l-0.159,0.013l-0.158,0.012l-0.159,0.01l-0.16,0.01l-0.159,0.008l-0.16,0.008l-0.16,0.007l-0.161,0.005l-0.16,0.005l-0.161,0.003l-0.161,0.003l-0.161,0.001l-0.162,0.001l-0.162,-0.001l-0.161,-0.001l-0.161,-0.003l-0.161,-0.003l-0.16,-0.005l-0.161,-0.005l-0.16,-0.007l-0.16,-0.008l-0.159,-0.008l-0.16,-0.01l-0.159,-0.01l-0.158,-0.012l-0.159,-0.013l-0.158,-0.013l-0.158,-0.015l-0.158,-0.015l-0.157,-0.017l-0.157,-0.017l-0.157,-0.019l-0.156,-0.019l-0.156,-0.02l-0.156,-0.022l-0.156,-0.022l-0.155,-0.023l-0.155,-0.024l-0.155,-0.026l-0.154,-0.026l-0.154,-0.027l-0.154,-0.028l-0.153,-0.029l-0.153,-0.03l-0.153,-0.03l-0.152,-0.032l-0.152,-0.033l-0.152,-0.033l-0.151,-0.035l-0.151,-0.035l-0.151,-0.036l-0.15,-0.038l-0.15,-0.038l-0.149,-0.039l-0.15,-0.04l-0.148,-0.04l-0.149,-0.042l-0.148,-0.043l-0.148,-0.043l-0.147,-0.044l-0.147,-0.046l-0.146,-0.046l-0.147,-0.047l-0.145,-0.048l-0.146,-0.048l-0.145,-0.05l-0.144,-0.051l-0.144,-0.051l-0.144,-0.052l-0.143,-0.053l-0.143,-0.054l-0.143,-0.055l-0.142,-0.055l-0.142,-0.057l-0.141,-0.057l-0.141,-0.058l-0.14,-0.059l-0.14,-0.06l-0.14,-0.06l-0.139,-0.062l-0.138,-0.062l-0.139,-0.063l-0.137,-0.064l-0.138,-0.064l-0.137,-0.066l-0.136,-0.066l-0.136,-0.067l-0.135,-0.068l-0.135,-0.069l-0.135,-0.069l-0.134,-0.07l-0.133,-0.071l-0.133,-0.072l-0.133,-0.073l-0.132,-0.073l-0.132,-0.074l-0.131,-0.075l-0.13,-0.076l-0.131,-0.076l-0.129,-0.078l-0.129,-0.077l-0.129,-0.079l-0.128,-0.08l-0.128,-0.08l-0.127,-0.081l-0.126,-0.082l-0.126,-0.082l-0.126,-0.083l-0.125,-0.084l-0.124,-0.085l-0.124,-0.085l-0.123,-0.086l-0.123,-0.087l-0.122,-0.087l-0.122,-0.089l-0.121,-0.089l-0.121,-0.089l-0.12,-0.091l-0.119,-0.091l-0.119,-0.092l-0.119,-0.092l-0.118,-0.093l-0.117,-0.094l-0.116,-0.095l-0.116,-0.095l-0.116,-0.096l-0.115,-0.096l-0.114,-0.098l-0.114,-0.097l-0.113,-0.099l-0.113,-0.099l-0.111,-0.1l-0.112,-0.101l-0.11,-0.101l-0.111,-0.102l-0.109,-0.102l-0.109,-0.104l-0.108,-0.103l-0.108,-0.105l-0.107,-0.105l-0.106,-0.106l-0.106,-0.106l-0.105,-0.107l-0.105,-0.108l-0.103,-0.108l-0.104,-0.109l-0.102,-0.109l-0.102,-0.111l-0.101,-0.11l-0.101,-0.112l-0.1,-0.111l-0.099,-0.113l-0.099,-0.113l-0.097,-0.114l-0.098,-0.114l-0.096,-0.115l-0.096,-0.116l-0.095,-0.116l-0.095,-0.116l-0.094,-0.117l-0.093,-0.118l-0.092,-0.119l-0.092,-0.119l-0.091,-0.119l-0.091,-0.12l-0.089,-0.121l-0.089,-0.121l-0.089,-0.122l-0.087,-0.122l-0.087,-0.123l-0.086,-0.123l-0.085,-0.124l-0.085,-0.124l-0.084,-0.125l-0.083,-0.126l-0.082,-0.126l-0.082,-0.126l-0.081,-0.127l-0.08,-0.128l-0.08,-0.128l-0.079,-0.129l-0.077,-0.129l-0.078,-0.129l-0.076,-0.131l-0.076,-0.13l-0.075,-0.131l-0.074,-0.132l-0.073,-0.132l-0.073,-0.133l-0.072,-0.133l-0.071,-0.133l-0.07,-0.134l-0.069,-0.135l-0.069,-0.135l-0.068,-0.135l-0.067,-0.136l-0.066,-0.136l-0.066,-0.137l-0.064,-0.138l-0.064,-0.137l-0.063,-0.139l-0.062,-0.138l-0.062,-0.139l-0.06,-0.14l-0.06,-0.14l-0.059,-0.14l-0.058,-0.141l-0.057,-0.141l-0.057,-0.142l-0.055,-0.142l-0.055,-0.143l-0.054,-0.143l-0.053,-0.143l-0.052,-0.144l-0.051,-0.144l-0.051,-0.144l-0.05,-0.145l-0.048,-0.146l-0.048,-0.145l-0.047,-0.147l-0.046,-0.146l-0.046,-0.147l-0.044,-0.147l-0.043,-0.148l-0.043,-0.148l-0.042,-0.149l-0.04,-0.148l-0.04,-0.15l-0.039,-0.149l-0.038,-0.15l-0.038,-0.15l-0.036,-0.151l-0.035,-0.151l-0.035,-0.151l-0.033,-0.152l-0.033,-0.152l-0.032,-0.152l-0.03,-0.153l-0.03,-0.153l-0.029,-0.153l-0.028,-0.154l-0.027,-0.154l-0.026,-0.154l-0.026,-0.155l-0.024,-0.155l-0.023,-0.155l-0.022,-0.156l-0.022,-0.156l-0.02,-0.156l-0.019,-0.156l-0.019,-0.157l-0.017,-0.157l-0.017,-0.157l-0.015,-0.158l-0.015,-0.158l-0.013,-0.158l-0.013,-0.159l-0.012,-0.158l-0.01,-0.159l-0.01,-0.16l-0.008,-0.159l-0.008,-0.16l-0.007,-0.16l-0.005,-0.161l-0.005,-0.16l-0.003,-0.161l-0.003,-0.161l-0.001,-0.161l-0.001,-0.162l0.001,-0.162l0.001,-0.161l0.003,-0.161l0.003,-0.161l0.005,-0.16l0.005,-0.161l0.007,-0.16l0.008,-0.16l0.008,-0.159l0.01,-0.16l0.01,-0.159l0.012,-0.158l0.013,-0.159l0.013,-0.158l0.015,-0.158l0.015,-0.158l0.017,-0.157l0.017,-0.157l0.019,-0.157l0.019,-0.156l0.02,-0.156l0.022,-0.156l0.022,-0.156l0.023,-0.155l0.024,-0.155l0.026,-0.155l0.026,-0.154l0.027,-0.154l0.028,-0.154l0.029,-0.153l0.03,-0.153l0.03,-0.153l0.032,-0.152l0.033,-0.152l0.033,-0.152l0.035,-0.151l0.035,-0.151l0.036,-0.151l0.038,-0.15l0.038,-0.15l0.039,-0.149l0.04,-0.15l0.04,-0.148l0.042,-0.149l0.043,-0.148l0.043,-0.148l0.044,-0.147l0.046,-0.147l0.046,-0.146l0.047,-0.147l0.048,-0.145l0.048,-0.146l0.05,-0.145l0.051,-0.144l0.051,-0.144l0.052,-0.144l0.053,-0.143l0.054,-0.143l0.055,-0.143l0.055,-0.142l0.057,-0.142l0.057,-0.141l0.058,-0.141l0.059,-0.14l0.06,-0.14l0.06,-0.14l0.062,-0.139l0.062,-0.138l0.063,-0.139l0.064,-0.137l0.064,-0.138l0.066,-0.137l0.066,-0.136l0.067,-0.136l0.068,-0.135l0.069,-0.135l0.069,-0.135l0.07,-0.134l0.071,-0.133l0.072,-0.133l0.073,-0.133l0.073,-0.132l0.074,-0.132l0.075,-0.131l0.076,-0.13l0.076,-0.131l0.078,-0.129l0.077,-0.129l0.079,-0.129l0.08,-0.128l0.08,-0.128l0.081,-0.127l0.082,-0.126l0.082,-0.126l0.083,-0.126l0.084,-0.125l0.085,-0.124l0.085,-0.124l0.086,-0.123l0.087,-0.123l0.087,-0.122l0.089,-0.122l0.089,-0.121l0.089,-0.121l0.091,-0.12l0.091,-0.119l0.092,-0.119l0.092,-0.119l0.093,-0.118l0.094,-0.117l0.095,-0.116l0.095,-0.116l0.096,-0.116l0.096,-0.115l0.098,-0.114l0.097,-0.114l0.099,-0.113l0.099,-0.113l0.1,-0.111l0.101,-0.112l0.101,-0.11l0.102,-0.111l0.102,-0.109l0.104,-0.109l0.103,-0.108l0.105,-0.108l0.105,-0.107l0.106,-0.106l0.106,-0.106l0.107,-0.105l0.108,-0.105l0.108,-0.103l0.109,-0.104l0.109,-0.102l0.111,-0.102l0.11,-0.101l0.112,-0.101l0.111,-0.1l0.113,-0.099l0.113,-0.099l0.114,-0.097l0.114,-0.098l0.115,-0.096l0.116,-0.096l0.116,-0.095l0.116,-0.095l0.117,-0.094l0.118,-0.093l0.119,-0.092l0.119,-0.092l0.119,-0.091l0.12,-0.091l0.121,-0.089l0.121,-0.089l0.122,-0.089l0.122,-0.087l0.123,-0.087l0.123,-0.086l0.124,-0.085l0.124,-0.085l0.125,-0.084l0.126,-0.083l0.126,-0.082l0.126,-0.082l0.127,-0.081l0.128,-0.08l0.128,-0.08l0.129,-0.079l0.129,-0.077l0.129,-0.078l0.131,-0.076l0.13,-0.076l0.131,-0.075l0.132,-0.074l0.132,-0.073l0.133,-0.073l0.133,-0.072l0.133,-0.071l0.134,-0.07l0.135,-0.069l0.135,-0.069l0.135,-0.068l0.136,-0.067l0.136,-0.066l0.137,-0.066l0.138,-0.064l0.137,-0.064l0.139,-0.063l0.138,-0.062l0.139,-0.062l0.14,-0.06l0.14,-0.06l0.14,-0.059l0.141,-0.058l0.141,-0.057l0.142,-0.057l0.142,-0.055l0.143,-0.055l0.143,-0.054l0.143,-0.053l0.144,-0.052l0.144,-0.051l0.144,-0.051l0.145,-0.05l0.146,-0.048l0.145,-0.048l0.147,-0.047l0.146,-0.046l0.147,-0.046l0.147,-0.044l0.148,-0.043l0.148,-0.043l0.149,-0.042l0.148,-0.04l0.15,-0.04l0.149,-0.039l0.15,-0.038l0.15,-0.038l0.151,-0.036l0.151,-0.035l0.151,-0.035l0.152,-0.033l0.152,-0.033l0.152,-0.032l0.153,-0.03l0.153,-0.03l0.153,-0.029l0.154,-0.028l0.154,-0.027l0.154,-0.026l0.155,-0.026l0.155,-0.024l0.155,-0.023l0.156,-0.022l0.156,-0.022l0.156,-0.02l0.156,-0.019l0.157,-0.019l0.157,-0.017l0.157,-0.017l0.158,-0.015l0.158,-0.015l0.158,-0.013l0.159,-0.013l0.158,-0.012l0.159,-0.01l0.16,-0.01l0.159,-0.008l0.16,-0.008l0.16,-0.007l0.161,-0.005l0.16,-0.005l0.161,-0.003l0.161,-0.003l0.161,-0.001l0.162,-0.001l0.162,0.001Zm-0.305,3l-0.142,0.001l-0.142,0.002l-0.142,0.003l-0.141,0.004l-0.142,0.005l-0.141,0.006l-0.14,0.007l-0.141,0.007l-0.141,0.009l-0.139,0.009l-0.14,0.01l-0.141,0.011l-0.138,0.012l-0.139,0.013l-0.139,0.014l-0.138,0.014l-0.139,0.016l-0.137,0.016l-0.138,0.017l-0.138,0.018l-0.138,0.019l-0.136,0.019l-0.136,0.021l-0.137,0.021l-0.136,0.022l-0.136,0.023l-0.135,0.024l-0.135,0.025l-0.135,0.025l-0.134,0.026l-0.134,0.027l-0.134,0.028l-0.134,0.029l-0.134,0.029l-0.133,0.031l-0.132,0.031l-0.133,0.032l-0.132,0.032l-0.131,0.034l-0.132,0.034l-0.132,0.035l-0.131,0.036l-0.129,0.037l-0.13,0.037l-0.13,0.038l-0.13,0.04l-0.13,0.04l-0.127,0.039l-0.129,0.042l-0.129,0.042l-0.127,0.043l-0.127,0.043l-0.128,0.045l-0.127,0.045l-0.126,0.046l-0.126,0.047l-0.125,0.047l-0.126,0.048l-0.125,0.049l-0.124,0.049l-0.124,0.051l-0.124,0.051l-0.124,0.052l-0.123,0.052l-0.123,0.054l-0.122,0.054l-0.121,0.054l-0.122,0.056l-0.122,0.056l-0.12,0.056l-0.12,0.058l-0.122,0.059l-0.118,0.058l-0.118,0.06l-0.121,0.061l-0.117,0.06l-0.118,0.062l-0.119,0.064l-0.116,0.062l-0.117,0.064l-0.116,0.065l-0.114,0.064l-0.116,0.066l-0.116,0.068l-0.116,0.067l-0.112,0.067l-0.113,0.069l-0.113,0.069l-0.113,0.07l-0.113,0.071l-0.113,0.072l-0.11,0.071l-0.111,0.073l-0.112,0.074l-0.109,0.072l-0.108,0.075l-0.11,0.075l-0.109,0.076l-0.108,0.076l-0.108,0.078l-0.108,0.078l-0.106,0.078l-0.106,0.079l-0.105,0.078l-0.106,0.081l-0.104,0.081l-0.104,0.081l-0.104,0.083l-0.105,0.083l-0.102,0.083l-0.102,0.084l-0.102,0.084l-0.1,0.084l-0.101,0.087l-0.1,0.086l-0.1,0.087l-0.099,0.087l-0.098,0.087l-0.1,0.091l-0.097,0.088l-0.095,0.089l-0.098,0.091l-0.096,0.091l-0.095,0.092l-0.095,0.091l-0.093,0.092l-0.095,0.095l-0.094,0.093l-0.091,0.093l-0.093,0.096l-0.092,0.096l-0.09,0.095l-0.09,0.096l-0.09,0.098l-0.089,0.097l-0.089,0.099l-0.087,0.097l-0.088,0.1l-0.088,0.1l-0.084,0.098l-0.086,0.102l-0.086,0.102l-0.085,0.102l-0.085,0.103l-0.082,0.102l-0.082,0.102l-0.082,0.104l-0.082,0.105l-0.081,0.104l-0.079,0.104l-0.08,0.107l-0.08,0.107l-0.078,0.106l-0.077,0.106l-0.078,0.109l-0.075,0.107l-0.077,0.11l-0.075,0.108l-0.074,0.11l-0.075,0.111l-0.072,0.11l-0.073,0.11l-0.071,0.111l-0.073,0.114l-0.07,0.111l-0.069,0.112l-0.071,0.116l-0.068,0.113l-0.067,0.112l-0.067,0.114l-0.067,0.116l-0.066,0.116l-0.066,0.116l-0.064,0.116l-0.064,0.116l-0.064,0.12l-0.062,0.115l-0.061,0.117l-0.062,0.119l-0.059,0.117l-0.061,0.121l-0.059,0.12l-0.058,0.121l-0.057,0.118l-0.057,0.121l-0.056,0.122l-0.056,0.122l-0.055,0.122l-0.053,0.121l-0.054,0.123l-0.053,0.124l-0.051,0.121l-0.051,0.125l-0.051,0.125l-0.049,0.123l-0.049,0.126l-0.049,0.127l-0.046,0.124l-0.046,0.124l-0.048,0.131l-0.045,0.125l-0.043,0.126l-0.044,0.129l-0.043,0.126l-0.042,0.127l-0.041,0.13l-0.041,0.131l-0.04,0.128l-0.039,0.128l-0.038,0.129l-0.037,0.13l-0.037,0.132l-0.036,0.133l-0.035,0.13l-0.034,0.131l-0.034,0.131l-0.032,0.132l-0.032,0.132l-0.031,0.132l-0.031,0.135l-0.029,0.133l-0.028,0.131l-0.029,0.137l-0.027,0.134l-0.026,0.134l-0.026,0.138l-0.024,0.132l-0.024,0.135l-0.023,0.136l-0.022,0.136l-0.021,0.137l-0.02,0.134l-0.02,0.14l-0.019,0.138l-0.018,0.135l-0.017,0.138l-0.016,0.138l-0.016,0.139l-0.014,0.136l-0.014,0.14l-0.013,0.14l-0.012,0.14l-0.011,0.141l-0.01,0.137l-0.009,0.139l-0.009,0.141l-0.007,0.142l-0.007,0.139l-0.006,0.142l-0.005,0.143l-0.004,0.14l-0.003,0.14l-0.002,0.144l-0.001,0.144l-0.001,0.141l0.001,0.141l0.001,0.144l0.002,0.144l0.003,0.14l0.004,0.14l0.005,0.143l0.006,0.142l0.007,0.139l0.007,0.142l0.009,0.141l0.009,0.139l0.01,0.137l0.011,0.141l0.012,0.14l0.013,0.14l0.014,0.14l0.014,0.136l0.016,0.139l0.016,0.138l0.017,0.138l0.018,0.135l0.019,0.138l0.02,0.14l0.02,0.134l0.021,0.137l0.022,0.136l0.023,0.136l0.024,0.135l0.024,0.132l0.026,0.138l0.026,0.134l0.027,0.134l0.029,0.137l0.028,0.131l0.029,0.133l0.031,0.135l0.031,0.132l0.032,0.132l0.032,0.132l0.034,0.131l0.034,0.131l0.035,0.13l0.036,0.133l0.037,0.132l0.037,0.13l0.038,0.129l0.039,0.128l0.04,0.128l0.041,0.131l0.041,0.13l0.042,0.127l0.043,0.126l0.044,0.129l0.043,0.126l0.045,0.125l0.048,0.131l0.046,0.124l0.046,0.124l0.049,0.127l0.049,0.126l0.049,0.123l0.051,0.125l0.051,0.125l0.051,0.121l0.053,0.124l0.054,0.123l0.053,0.121l0.055,0.122l0.056,0.122l0.056,0.122l0.057,0.121l0.057,0.118l0.058,0.121l0.059,0.12l0.061,0.121l0.059,0.117l0.062,0.119l0.061,0.117l0.062,0.115l0.064,0.12l0.064,0.116l0.064,0.116l0.066,0.116l0.066,0.116l0.067,0.116l0.067,0.114l0.067,0.112l0.068,0.113l0.071,0.116l0.069,0.112l0.07,0.111l0.073,0.114l0.071,0.111l0.073,0.11l0.072,0.11l0.075,0.111l0.074,0.11l0.075,0.108l0.077,0.11l0.075,0.107l0.078,0.109l0.077,0.106l0.078,0.106l0.08,0.107l0.08,0.107l0.079,0.104l0.081,0.104l0.082,0.105l0.082,0.104l0.082,0.102l0.082,0.102l0.085,0.103l0.085,0.102l0.086,0.102l0.086,0.102l0.084,0.098l0.088,0.1l0.088,0.1l0.087,0.097l0.089,0.099l0.089,0.097l0.09,0.098l0.09,0.096l0.09,0.095l0.092,0.096l0.093,0.096l0.091,0.093l0.094,0.093l0.095,0.095l0.093,0.092l0.095,0.091l0.095,0.092l0.096,0.091l0.098,0.091l0.095,0.089l0.097,0.088l0.1,0.091l0.098,0.087l0.099,0.087l0.1,0.087l0.1,0.086l0.101,0.087l0.1,0.084l0.102,0.084l0.102,0.084l0.102,0.083l0.105,0.083l0.104,0.083l0.104,0.081l0.104,0.081l0.106,0.081l0.105,0.078l0.106,0.079l0.106,0.078l0.108,0.078l0.108,0.078l0.108,0.076l0.109,0.076l0.11,0.075l0.108,0.075l0.109,0.072l0.112,0.074l0.111,0.073l0.11,0.071l0.113,0.072l0.113,0.071l0.113,0.07l0.113,0.069l0.113,0.069l0.112,0.067l0.116,0.067l0.116,0.068l0.116,0.066l0.114,0.064l0.116,0.065l0.117,0.064l0.116,0.062l0.119,0.064l0.118,0.062l0.117,0.06l0.121,0.061l0.118,0.06l0.118,0.058l0.122,0.059l0.12,0.058l0.12,0.056l0.122,0.056l0.122,0.056l0.121,0.054l0.122,0.054l0.123,0.054l0.123,0.052l0.124,0.052l0.124,0.051l0.124,0.051l0.124,0.049l0.125,0.049l0.126,0.048l0.125,0.047l0.126,0.047l0.126,0.046l0.127,0.045l0.128,0.045l0.127,0.043l0.127,0.043l0.129,0.042l0.129,0.042l0.127,0.039l0.13,0.04l0.13,0.04l0.13,0.038l0.13,0.037l0.129,0.037l0.131,0.036l0.132,0.035l0.132,0.034l0.131,0.034l0.132,0.032l0.133,0.032l0.132,0.031l0.133,0.031l0.134,0.029l0.134,0.029l0.134,0.028l0.134,0.027l0.134,0.026l0.135,0.025l0.135,0.025l0.135,0.024l0.136,0.023l0.136,0.022l0.137,0.021l0.136,0.021l0.136,0.019l0.138,0.019l0.138,0.018l0.138,0.017l0.137,0.016l0.139,0.016l0.138,0.014l0.139,0.014l0.139,0.013l0.138,0.012l0.141,0.011l0.14,0.01l0.139,0.009l0.141,0.009l0.141,0.007l0.14,0.007l0.141,0.006l0.142,0.005l0.141,0.004l0.142,0.003l0.142,0.002l0.142,0.001l0.143,0.001l0.143,-0.001l0.142,-0.001l0.142,-0.002l0.142,-0.003l0.141,-0.004l0.142,-0.005l0.141,-0.006l0.14,-0.007l0.141,-0.007l0.141,-0.009l0.139,-0.009l0.14,-0.01l0.141,-0.011l0.138,-0.012l0.139,-0.013l0.139,-0.014l0.138,-0.014l0.139,-0.016l0.137,-0.016l0.138,-0.017l0.138,-0.018l0.138,-0.019l0.136,-0.019l0.136,-0.021l0.137,-0.021l0.136,-0.022l0.136,-0.023l0.135,-0.024l0.135,-0.025l0.135,-0.025l0.134,-0.026l0.134,-0.027l0.134,-0.028l0.134,-0.029l0.134,-0.029l0.133,-0.031l0.132,-0.031l0.133,-0.032l0.132,-0.032l0.131,-0.034l0.132,-0.034l0.132,-0.035l0.131,-0.036l0.129,-0.037l0.13,-0.037l0.13,-0.038l0.13,-0.04l0.13,-0.04l0.127,-0.039l0.129,-0.042l0.129,-0.042l0.127,-0.043l0.127,-0.043l0.128,-0.045l0.127,-0.045l0.126,-0.046l0.126,-0.047l0.125,-0.047l0.126,-0.048l0.125,-0.049l0.124,-0.049l0.124,-0.051l0.124,-0.051l0.124,-0.052l0.123,-0.052l0.123,-0.054l0.122,-0.054l0.121,-0.054l0.122,-0.056l0.122,-0.056l0.12,-0.056l0.12,-0.058l0.122,-0.059l0.118,-0.058l0.118,-0.06l0.121,-0.061l0.117,-0.06l0.118,-0.062l0.119,-0.064l0.116,-0.062l0.117,-0.064l0.116,-0.065l0.114,-0.064l0.116,-0.066l0.116,-0.068l0.116,-0.067l0.112,-0.067l0.113,-0.069l0.113,-0.069l0.113,-0.07l0.113,-0.071l0.113,-0.072l0.11,-0.071l0.111,-0.073l0.112,-0.074l0.109,-0.072l0.108,-0.075l0.11,-0.075l0.109,-0.076l0.108,-0.076l0.108,-0.078l0.108,-0.078l0.106,-0.078l0.106,-0.079l0.105,-0.078l0.106,-0.081l0.104,-0.081l0.104,-0.081l0.104,-0.083l0.105,-0.083l0.102,-0.083l0.102,-0.084l0.102,-0.084l0.1,-0.084l0.101,-0.087l0.1,-0.086l0.1,-0.087l0.099,-0.087l0.098,-0.087l0.1,-0.091l0.097,-0.088l0.095,-0.089l0.098,-0.091l0.096,-0.091l0.095,-0.092l0.095,-0.091l0.093,-0.092l0.095,-0.095l0.094,-0.093l0.091,-0.093l0.093,-0.096l0.092,-0.096l0.09,-0.095l0.09,-0.096l0.09,-0.098l0.089,-0.097l0.089,-0.099l0.087,-0.097l0.088,-0.1l0.088,-0.1l0.084,-0.098l0.086,-0.102l0.086,-0.102l0.085,-0.102l0.085,-0.103l0.082,-0.102l0.082,-0.102l0.082,-0.104l0.082,-0.105l0.081,-0.104l0.079,-0.104l0.08,-0.107l0.08,-0.107l0.078,-0.106l0.077,-0.106l0.078,-0.109l0.075,-0.107l0.077,-0.11l0.075,-0.108l0.074,-0.11l0.075,-0.111l0.072,-0.11l0.073,-0.11l0.071,-0.111l0.073,-0.114l0.07,-0.111l0.069,-0.112l0.071,-0.116l0.068,-0.113l0.067,-0.112l0.067,-0.114l0.067,-0.116l0.066,-0.116l0.066,-0.116l0.064,-0.116l0.064,-0.116l0.064,-0.12l0.062,-0.115l0.061,-0.117l0.062,-0.119l0.059,-0.117l0.061,-0.121l0.059,-0.12l0.058,-0.121l0.057,-0.118l0.057,-0.121l0.056,-0.122l0.056,-0.122l0.055,-0.122l0.053,-0.121l0.054,-0.123l0.053,-0.124l0.051,-0.121l0.051,-0.125l0.051,-0.125l0.049,-0.123l0.049,-0.126l0.049,-0.127l0.046,-0.124l0.046,-0.124l0.048,-0.131l0.045,-0.125l0.043,-0.126l0.044,-0.129l0.043,-0.126l0.042,-0.127l0.041,-0.13l0.041,-0.131l0.04,-0.128l0.039,-0.128l0.038,-0.129l0.037,-0.13l0.037,-0.132l0.036,-0.133l0.035,-0.13l0.034,-0.131l0.034,-0.131l0.032,-0.132l0.032,-0.132l0.031,-0.132l0.031,-0.135l0.029,-0.133l0.028,-0.131l0.029,-0.137l0.027,-0.134l0.026,-0.134l0.026,-0.138l0.024,-0.132l0.024,-0.135l0.023,-0.136l0.022,-0.136l0.021,-0.137l0.02,-0.134l0.02,-0.14l0.019,-0.138l0.018,-0.135l0.017,-0.138l0.016,-0.138l0.016,-0.139l0.014,-0.136l0.014,-0.14l0.013,-0.14l0.012,-0.14l0.011,-0.141l0.01,-0.137l0.009,-0.139l0.009,-0.141l0.007,-0.142l0.007,-0.139l0.006,-0.142l0.005,-0.143l0.004,-0.14l0.003,-0.14l0.002,-0.144l0.001,-0.144l0.001,-0.141l-0.001,-0.141l-0.001,-0.144l-0.002,-0.144l-0.003,-0.14l-0.004,-0.14l-0.005,-0.143l-0.006,-0.142l-0.007,-0.139l-0.007,-0.142l-0.009,-0.141l-0.009,-0.139l-0.01,-0.137l-0.011,-0.141l-0.012,-0.14l-0.013,-0.14l-0.014,-0.14l-0.014,-0.136l-0.016,-0.139l-0.016,-0.138l-0.017,-0.138l-0.018,-0.135l-0.019,-0.138l-0.02,-0.14l-0.02,-0.134l-0.021,-0.137l-0.022,-0.136l-0.023,-0.136l-0.024,-0.135l-0.024,-0.132l-0.026,-0.138l-0.026,-0.134l-0.027,-0.134l-0.029,-0.137l-0.028,-0.131l-0.029,-0.133l-0.031,-0.135l-0.031,-0.132l-0.032,-0.132l-0.032,-0.132l-0.034,-0.131l-0.034,-0.131l-0.035,-0.13l-0.036,-0.133l-0.037,-0.132l-0.037,-0.13l-0.038,-0.129l-0.039,-0.128l-0.04,-0.128l-0.041,-0.131l-0.041,-0.13l-0.042,-0.127l-0.043,-0.126l-0.044,-0.129l-0.043,-0.126l-0.045,-0.125l-0.048,-0.131l-0.046,-0.124l-0.046,-0.124l-0.049,-0.127l-0.049,-0.126l-0.049,-0.123l-0.051,-0.125l-0.051,-0.125l-0.051,-0.121l-0.053,-0.124l-0.054,-0.123l-0.053,-0.121l-0.055,-0.122l-0.056,-0.122l-0.056,-0.122l-0.057,-0.121l-0.057,-0.118l-0.058,-0.121l-0.059,-0.12l-0.061,-0.121l-0.059,-0.117l-0.062,-0.119l-0.061,-0.117l-0.062,-0.115l-0.064,-0.12l-0.064,-0.116l-0.064,-0.116l-0.066,-0.116l-0.066,-0.116l-0.067,-0.116l-0.067,-0.114l-0.067,-0.112l-0.068,-0.113l-0.071,-0.116l-0.069,-0.112l-0.07,-0.111l-0.073,-0.114l-0.071,-0.111l-0.073,-0.11l-0.072,-0.11l-0.075,-0.111l-0.074,-0.11l-0.075,-0.108l-0.077,-0.11l-0.075,-0.107l-0.078,-0.109l-0.077,-0.106l-0.078,-0.106l-0.08,-0.107l-0.08,-0.107l-0.079,-0.104l-0.081,-0.104l-0.082,-0.105l-0.082,-0.104l-0.082,-0.102l-0.082,-0.102l-0.085,-0.103l-0.085,-0.102l-0.086,-0.102l-0.086,-0.102l-0.084,-0.098l-0.088,-0.1l-0.088,-0.1l-0.087,-0.097l-0.089,-0.099l-0.089,-0.097l-0.09,-0.098l-0.09,-0.096l-0.09,-0.095l-0.092,-0.096l-0.093,-0.096l-0.091,-0.093l-0.094,-0.093l-0.095,-0.095l-0.093,-0.092l-0.095,-0.091l-0.095,-0.092l-0.096,-0.091l-0.098,-0.091l-0.095,-0.089l-0.097,-0.088l-0.1,-0.091l-0.098,-0.087l-0.099,-0.087l-0.1,-0.087l-0.1,-0.086l-0.101,-0.087l-0.1,-0.084l-0.102,-0.084l-0.102,-0.084l-0.102,-0.083l-0.105,-0.083l-0.104,-0.083l-0.104,-0.081l-0.104,-0.081l-0.106,-0.081l-0.105,-0.078l-0.106,-0.079l-0.106,-0.078l-0.108,-0.078l-0.108,-0.078l-0.108,-0.076l-0.109,-0.076l-0.11,-0.075l-0.108,-0.075l-0.109,-0.072l-0.112,-0.074l-0.111,-0.073l-0.11,-0.071l-0.113,-0.072l-0.113,-0.071l-0.113,-0.07l-0.113,-0.069l-0.113,-0.069l-0.112,-0.067l-0.116,-0.067l-0.116,-0.068l-0.116,-0.066l-0.114,-0.064l-0.116,-0.065l-0.117,-0.064l-0.116,-0.062l-0.119,-0.064l-0.118,-0.062l-0.117,-0.06l-0.121,-0.061l-0.118,-0.06l-0.118,-0.058l-0.122,-0.059l-0.12,-0.058l-0.12,-0.056l-0.122,-0.056l-0.122,-0.056l-0.121,-0.054l-0.122,-0.054l-0.123,-0.054l-0.123,-0.052l-0.124,-0.052l-0.124,-0.051l-0.124,-0.051l-0.124,-0.049l-0.125,-0.049l-0.126,-0.048l-0.125,-0.047l-0.126,-0.047l-0.126,-0.046l-0.127,-0.045l-0.128,-0.045l-0.127,-0.043l-0.127,-0.043l-0.129,-0.042l-0.129,-0.042l-0.127,-0.039l-0.13,-0.04l-0.13,-0.04l-0.13,-0.038l-0.13,-0.037l-0.129,-0.037l-0.131,-0.036l-0.132,-0.035l-0.132,-0.034l-0.131,-0.034l-0.132,-0.032l-0.133,-0.032l-0.132,-0.031l-0.133,-0.031l-0.134,-0.029l-0.134,-0.029l-0.134,-0.028l-0.134,-0.027l-0.134,-0.026l-0.135,-0.025l-0.135,-0.025l-0.135,-0.024l-0.136,-0.023l-0.136,-0.022l-0.137,-0.021l-0.136,-0.021l-0.136,-0.019l-0.138,-0.019l-0.138,-0.018l-0.138,-0.017l-0.137,-0.016l-0.139,-0.016l-0.138,-0.014l-0.139,-0.014l-0.139,-0.013l-0.138,-0.012l-0.141,-0.011l-0.14,-0.01l-0.139,-0.009l-0.141,-0.009l-0.141,-0.007l-0.14,-0.007l-0.141,-0.006l-0.142,-0.005l-0.141,-0.004l-0.142,-0.003l-0.142,-0.002l-0.142,-0.001l-0.143,-0.001l-0.143,0.001Z" style="fill:#2a2a2a;"/></g></svg>